<?xml version="1.0"?>
<svg xmlns="http://www.w3.org/2000/svg" xmlns:lc="https://librecad.org" xmlns:xlink="http://www.w3.org/1999/xlink" width="80mm" height="86mm" viewBox="0 0 80 86">
    <g lc:layername="0" lc:is_locked="false" lc:is_construction="false" fill="none" stroke="black" stroke-width="1">
        <circle cx="2.24999933" cy="2.99999897" r="1.6"/>
        <circle cx="2.24999933" cy="82.99999897" r="1.6"/>
        <circle cx="77.74999933" cy="2.99999897" r="1.6"/>
        <circle cx="77.74999933" cy="82.99999897" r="1.6"/>
        <circle cx="6.74999933" cy="46.07536226" r="0.5"/>
        <circle cx="6.74999933" cy="63.07536226" r="0.5"/>
        <circle cx="73.74999933" cy="46.07536226" r="0.5"/>
        <circle cx="73.74999933" cy="63.07536226" r="0.5"/>
        <circle cx="68.94999933" cy="73.68599897" r="7"/>
        <circle cx="6.74999933" cy="14.49999897" r="0.5"/>
        <circle cx="6.74999933" cy="31.49999897" r="0.5"/>
        <circle cx="73.74999933" cy="14.49999897" r="0.5"/>
        <circle cx="73.74999933" cy="31.49999897" r="0.5"/>
        <circle cx="11.05000067" cy="73.68599768" r="7"/>
        <path d="M80,83 L80,3 A3,3 0 0,0 77,0 L3,0 A3,3 0 0,0 0,3 L0,83 A3,3 0 0,0 3,86 L77,86 A3,3 0 0,0 80,83 "/>
        <path d="M10.24999933,61.57536226 L3.24999933,61.57536226 L3.24999933,47.57536226 L10.24999933,47.57536226 L10.24999933,61.57536226 "/>
        <path d="M77.24999933,47.57536226 L70.24999933,47.57536226 L70.24999933,61.57536226 L70.46398641,61.57536226 L77.24999933,61.57536226 L77.24999933,47.57536226 "/>
        <path d="M3.24999933,29.99999897 L10.24999933,29.99999897 L10.24999933,15.99999897 L3.24999933,15.99999897 L3.24999933,29.99999897 "/>
        <path d="M70.24999933,15.99999897 L77.24999933,15.99999897 L77.24999933,29.99999897 L70.24999933,29.99999897 L70.24999933,15.99999897 "/>
        <path d="M11.24999933,21.30395734 L11.24999933,23.30395734 L11.24999933,52.3333323 L11.24999933,56.3333323 L32.24999933,72.99999897 L46.24999933,72.99999897 L69.24999933,56.20970726 L69.24999933,21.30395734 A45.96153846,45.96153846 0 0,0 11.24999933,21.30395734 Z "/>
    </g>
    <g lc:layername="dimensions" lc:is_locked="false" lc:is_construction="false" fill="none" stroke="black" stroke-width="1"/>
</svg>
