<?xml version="1.0"?>
<svg xmlns="http://www.w3.org/2000/svg" xmlns:lc="https://librecad.org" xmlns:xlink="http://www.w3.org/1999/xlink" width="81.5mm" height="86mm" viewBox="0 0 81.5 86">
    <g lc:layername="0" lc:is_locked="false" lc:is_construction="false" fill="none" stroke="black" stroke-width="1">
        <path d="M80.5,6 Z "/>
        <path d="M6,3.5 L6,2.5 A2.5,2.5 0 0,1 8.5,0 L73.49999894,0 A2.50000053,2.50000053 0 0,1 76,2.5 L76,3.5 A2.5,2.5 0 0,0 78.5,6 A3,3 0 0,1 81.5,9 L81.5,77 A3,3 0 0,1 78.5,80 A2.5,2.5 0 0,0 76,82.5 L76,83.5 A2.5,2.5 0 0,1 73.5,86 L8.5,86 A2.5,2.5 0 0,1 6,83.5 L6,82.5 A2.5,2.5 0 0,0 3.5,80 L2.5,80 L3,80 A3,3 0 0,1 0,77 L0,9 A3,3 0 0,1 3,6 L2.5,6 L3,6 L3.5,6 A2.5,2.5 0 0,0 6,3.5 Z "/>
    </g>
</svg>
