<?xml version="1.0"?>
<svg xmlns="http://www.w3.org/2000/svg" xmlns:lc="https://librecad.org" xmlns:xlink="http://www.w3.org/1999/xlink" width="80mm" height="100.00000103mm" viewBox="0 0 80 100.00000103">
    <g lc:layername="0" lc:is_locked="false" lc:is_construction="false" fill="none" stroke="black" stroke-width="1">
        <circle cx="2.24999933" cy="17" r="1.6"/>
        <circle cx="2.24999933" cy="97" r="1.6"/>
        <circle cx="77.74999933" cy="17" r="1.6"/>
        <circle cx="77.74999933" cy="97" r="1.6"/>
        <circle cx="68.94999933" cy="87.686" r="3.5"/>
        <circle cx="6.74999933" cy="60.07536329" r="0.5"/>
        <circle cx="6.74999933" cy="77.07536329" r="0.5"/>
        <circle cx="73.74999933" cy="60.07536329" r="0.5"/>
        <circle cx="73.74999933" cy="77.07536329" r="0.5"/>
        <circle cx="6.74999933" cy="28.5" r="0.5"/>
        <circle cx="6.74999933" cy="45.5" r="0.5"/>
        <circle cx="73.74999933" cy="28.5" r="0.5"/>
        <circle cx="73.74999933" cy="45.5" r="0.5"/>
        <circle cx="39.99999933" cy="54" r="25"/>
        <circle cx="11.05000067" cy="87.68599744" r="3.5"/>
        <path d="M80,97.00000103 L80,17.00000103 A3,3 0 0,0 77,14.00000103 L3,14.00000103 A3,3 0 0,0 0,17.00000103 L0,97.00000103 A3,3 0 0,0 3,100.00000103 L77,100.00000103 A3,3 0 0,0 80,97.00000103 Z "/>
        <path d="M10.24999933,75.57536329 L3.24999933,75.57536329 L3.24999933,61.57536329 L10.24999933,61.57536329 L10.24999933,75.57536329 Z "/>
        <path d="M77.24999933,61.57536329 L70.24999933,61.57536329 L70.24999933,75.57536329 L70.46398641,75.57536329 L77.24999933,75.57536329 L77.24999933,61.57536329 Z "/>
        <path d="M3.24999933,44 L10.24999933,44 L10.24999933,30 L3.24999933,30 L3.24999933,44 Z "/>
        <path d="M70.24999933,30 L77.24999933,30 L77.24999933,44 L70.24999933,44 L70.24999933,30 Z "/>
    </g>
    <g lc:layername="dimensions" lc:is_locked="false" lc:is_construction="false" fill="none" stroke="black" stroke-width="1"/>
</svg>
