<?xml version="1.0"?>
<svg xmlns="http://www.w3.org/2000/svg" xmlns:lc="https://librecad.org" xmlns:xlink="http://www.w3.org/1999/xlink" width="83mm" height="72mm" viewBox="0 0 83 72">
    <g lc:layername="0" lc:is_locked="false" lc:is_construction="false" fill="none" stroke="black" stroke-width="1">
        <line x1="55.44233125" y1="15.85066364" x2="58.21980714" y2="12.97218702"/>
        <line x1="59.07074788" y1="20.13366481" x2="62.366569" y2="17.86704549"/>
        <line x1="61.77193507" y1="25.05434504" x2="65.45364008" y2="23.49068004"/>
        <line x1="63.43733025" y1="30.41493877" x2="67.35694885" y2="29.61707288"/>
        <line x1="36" y1="9" x2="37.14957229" y2="4.02065536"/>
        <line x1="36" y1="9" x2="34.85042771" y2="4.02065536"/>
        <line x1="50.49556184" y1="13.22109118" x2="54.13868779" y2="9.63737484"/>
        <line x1="50.49556184" y1="13.22109118" x2="52.19898391" y2="8.40302697"/>
        <line x1="51.69355478" y1="57.97071547" x2="53.65232116" y2="62.69073917"/>
        <line x1="51.69355478" y1="57.97071547" x2="55.52320455" y2="61.35437801"/>
        <line x1="27.83960647" y1="61.73728769" x2="25.2388552" y2="66.13631966"/>
        <line x1="27.83960647" y1="61.73728769" x2="27.4304754" y2="66.83120575"/>
        <line x1="13.42673537" y1="50.81376805" x2="8.63304791" y2="52.58462942"/>
        <line x1="13.42673537" y1="50.81376805" x2="9.89449215" y2="54.50682198"/>
        <line x1="9.07953954" y1="38.07094391" x2="4.02668953" y2="37.30668199"/>
        <line x1="9.07953954" y1="38.07094391" x2="4.20303766" y2="39.5990535"/>
        <line x1="10.52657714" y1="27.04987555" x2="6.20983134" y2="24.31471646"/>
        <line x1="10.52657714" y1="27.04987555" x2="5.44769689" y2="26.48386765"/>
        <line x1="15.59627649" y1="18.31701193" x2="12.58630249" y2="14.18718797"/>
        <line x1="15.59627649" y1="18.31701193" x2="11.08053411" y2="15.9246365"/>
        <line x1="24.8273011" y1="11.42011393" x2="23.81336176" y2="6.41138989"/>
        <line x1="24.8273011" y1="11.42011393" x2="21.72029835" y2="7.36278434"/>
        <line x1="43.82845431" y1="9.1166352" x2="44.94680492" y2="5.27615451"/>
        <line x1="47.54617859" y1="10.49145712" x2="49.19563267" y2="6.84737956"/>
        <line x1="49.86045922" y1="60.32874165" x2="51.84052482" y2="63.80427617"/>
        <line x1="47.30105047" y1="61.61808459" x2="48.91548625" y2="65.27781096"/>
        <line x1="44.62325489" y1="62.6390592" x2="45.85514844" y2="66.44463909"/>
        <line x1="41.85512435" y1="63.38097001" x2="42.69157068" y2="67.29253716"/>
        <line x1="38.91759788" y1="62.8419005" x2="39.45789378" y2="67.81262282"/>
        <line x1="36.70573039" y1="63.99110474" x2="36.80654902" y2="67.98983399"/>
        <line x1="34.38093733" y1="63.95315074" x2="34.14964266" y2="67.94645798"/>
        <line x1="32.06730858" y1="63.72244467" x2="31.50549552" y2="67.6827939"/>
        <line x1="29.78079786" y1="63.30057737" x2="28.89234041" y2="67.20065985"/>
        <line x1="25.73537702" y1="62.05067207" x2="24.26900231" y2="65.77219665"/>
        <line x1="23.98144607" y1="61.28941204" x2="22.26450979" y2="64.90218519"/>
        <line x1="20.6496289" y1="59.41721817" x2="18.45671874" y2="62.76253506"/>
        <line x1="19.69130469" y1="57.51804957" x2="16.67117593" y2="61.50287356"/>
        <line x1="17.60379297" y1="57.10875569" x2="14.97576339" y2="60.12429222"/>
        <line x1="16.20608848" y1="55.80406692" x2="13.37838683" y2="58.63321934"/>
        <line x1="14.90068296" y1="54.40703182" x2="11.88649481" y2="57.0366078"/>
        <line x1="9.49962124" y1="45.04046048" x2="5.71385285" y2="46.33195484"/>
        <line x1="8.23827902" y1="32.3548871" x2="4.27231888" y2="31.83415668"/>
        <line x1="11.78475702" y1="21.94219052" x2="8.32543659" y2="19.93393203"/>
        <line x1="19.24112213" y1="13.5692173" x2="16.84699672" y2="10.36481977"/>
        <line x1="30.07240851" y1="8.63462664" x2="29.22560973" y2="4.72528759"/>
        <line x1="22.28355761" y1="60.41022753" x2="20.32406584" y2="63.89740289"/>
        <line x1="13.69366353" y1="52.92416477" x2="10.50704403" y2="55.34190259"/>
        <line x1="56.2869676" y1="55.2986773" x2="59.18510583" y2="58.0556312"/>
        <line x1="59.56826848" y1="51.11743103" x2="62.93516397" y2="53.27706404"/>
        <line x1="63.49554007" y1="41.29105623" x2="67.42347437" y2="42.0469214"/>
        <line x1="62.00033743" y1="46.39146061" x2="65.71467135" y2="47.87595498"/>
        <line x1="63" y1="36" x2="67.97934464" y2="37.14957229"/>
        <line x1="63" y1="36" x2="67.97934464" y2="34.85042771"/>
        <line x1="53.35922433" y1="18.00952111" x2="54.74796227" y2="16.5702828"/>
        <line x1="56.59888203" y1="21.83362929" x2="58.2467926" y2="20.70031964"/>
        <line x1="59.01065632" y1="26.22709378" x2="60.85150882" y2="25.44526129"/>
        <line x1="60.49761629" y1="31.01333819" x2="62.45742559" y2="30.61440524"/>
        <line x1="60.54958935" y1="40.72415735" x2="62.5135565" y2="41.10208993"/>
        <line x1="59.21458699" y1="45.27808983" x2="61.07175395" y2="46.02033702"/>
        <line x1="57.04309685" y1="49.49770628" x2="58.7265446" y2="50.57752278"/>
        <line x1="54.11336393" y1="53.23096188" x2="55.56243304" y2="54.60943883"/>
        <circle cx="36" cy="36" r="1"/>
        <line x1="34.85042771" y1="4.02065536" x2="37" y2="4"/>
        <line x1="21.72029835" y1="7.36278434" x2="23.81336176" y2="6.41138989"/>
        <line x1="11.08053411" y1="15.9246365" x2="12.58630249" y2="14.18718797"/>
        <line x1="5.44769689" y1="26.48386765" x2="6.20983134" y2="24.31471646"/>
        <line x1="4.20303766" y1="39.5990535" x2="4.02668953" y2="37.30668199"/>
        <line x1="9.89449215" y1="54.50682198" x2="8.63304791" y2="52.58462942"/>
        <line x1="27.4304754" y1="66.83120575" x2="25.2388552" y2="66.13631966"/>
        <line x1="53.65232116" y1="62.69073917" x2="55.52320455" y2="61.35437801"/>
        <line x1="67.97934464" y1="37.14957229" x2="68" y2="35"/>
        <line x1="54.13868779" y1="9.63737484" x2="52.19898391" y2="8.40302697"/>
        <line x1="0" y1="4" x2="0" y2="0"/>
        <line x1="0" y1="0" x2="4" y2="0"/>
        <line x1="78" y1="0" x2="83" y2="0"/>
        <line x1="83" y1="0" x2="83" y2="5"/>
        <line x1="83" y1="66" x2="83" y2="72"/>
        <line x1="83" y1="72" x2="77" y2="72"/>
        <line x1="5" y1="72" x2="0" y2="72"/>
        <line x1="0" y1="72" x2="0" y2="67"/>
    </g>
    <g lc:layername="dimensions" lc:is_locked="false" lc:is_construction="false" fill="none" stroke="black" stroke-width="1"/>
</svg>
