<?xml version="1.0"?>
<svg xmlns="http://www.w3.org/2000/svg" xmlns:lc="https://librecad.org" xmlns:xlink="http://www.w3.org/1999/xlink" width="82mm" height="93mm" viewBox="0 0 82 93">
    <g lc:layername="0" lc:is_locked="false" lc:is_construction="false" fill="none" stroke="black" stroke-width="1">
        <path d="M3,0 A3,3 0 0,0 0,3 L0,90 A3,3 0 0,0 3,93 L79,93 A3,3 0 0,0 82,90 L82,3 A3,3 0 0,0 79,0 L3,0 "/>
        <path d="M6,58 L6,57.95836944 L6,11 A3,3 0 0,1 9,8 L73,8 A3,3 0 0,1 76,11 L76,58 L76,61 L76,60.95836944 A3,3 0 0,1 73,63.95836944 L69.52842712,63.95836944 A3,3 0 0,0 67.40710678,64.8370491 L57.8507576,74.39339828 A3,3 0 0,1 55.72943725,75.27207794 L26.27056275,75.27207794 A3,3 0 0,1 24.1492424,74.39339828 L14.59289322,64.8370491 A3,3 0 0,0 12.47157288,63.95836944 L9,63.95836944 A3,3 0 0,1 6,60.95836944 L6,58 Z "/>
        <path d="M45.5,89 L45.5,79 L34.5,79 L34.5,89 L45.5,89 "/>
        <circle cx="3" cy="3" r="1.5"/>
        <circle cx="79" cy="3" r="1.5"/>
        <circle cx="3" cy="83" r="1.5"/>
        <circle cx="79" cy="83" r="1.5"/>
        <circle cx="12.3" cy="76.686" r="3.7"/>
        <circle cx="69.7" cy="76.686" r="3.7"/>
    </g>
    <g lc:layername="dimensions" lc:is_locked="false" lc:is_construction="false" fill="none" stroke="black" stroke-width="1"/>
</svg>
