<?xml version="1.0" encoding="UTF-8" standalone="no"?>
<svg
   xmlns:lc="https://librecad.org"
   xmlns:dc="http://purl.org/dc/elements/1.1/"
   xmlns:cc="http://creativecommons.org/ns#"
   xmlns:rdf="http://www.w3.org/1999/02/22-rdf-syntax-ns#"
   xmlns:svg="http://www.w3.org/2000/svg"
   xmlns="http://www.w3.org/2000/svg"
   xmlns:sodipodi="http://sodipodi.sourceforge.net/DTD/sodipodi-0.dtd"
   xmlns:inkscape="http://www.inkscape.org/namespaces/inkscape"
   width="60.099998mm"
   height="60.099998mm"
   viewBox="0 0 60.099998 60.099998"
   version="1.1"
   id="svg8"
   inkscape:version="1.0.2-2 (e86c870879, 2021-01-15)"
   sodipodi:docname="fuel_engrave.svg">
  <defs
     id="defs2">
    <inkscape:path-effect
       effect="skeletal"
       id="path-effect1509"
       is_visible="true"
       lpeversion="1"
       pattern="#path966"
       copytype="single_stretched"
       prop_scale="1"
       scale_y_rel="false"
       spacing="0"
       normal_offset="0"
       tang_offset="0"
       prop_units="false"
       vertical_pattern="false"
       hide_knot="false"
       fuse_tolerance="0" />
    <inkscape:path-effect
       effect="skeletal"
       id="path-effect1496"
       is_visible="true"
       lpeversion="1"
       pattern="m -304.28964,141.29782 v 13.24538 z m 33.10567,0 v 13.24538 z m 33.10569,0 v 13.24538 z m 33.10439,0 v 13.24538 z m 33.10569,0 v 13.24538 z m 33.10566,0 v 13.24538 z m 33.10569,0 v 13.24538 z m 33.105688,0 v 13.24538 z m 33.105686,0 v 13.24538 z m 33.1056755,0 v 13.24538 z m 33.1056805,0 v 13.24538 z m 33.105678,0 v 13.24538 z m 33.105679,0 v 13.24538 z m -390.646777,3.31134 v 9.93404 z m 6.62139,0 v 9.93404 z m 6.6214,0 v 9.93404 z m 6.6214,0 v 9.93404 z m 13.24149,0 v 9.93404 z m 6.6214,0 v 9.93404 z m 6.62139,0 v 9.93404 z m 6.6214,0 v 9.93404 z m 13.24148,0 v 9.93404 z m 6.6214,0 v 9.93404 z m 6.62141,0 v 9.93404 z m 6.62139,0 v 9.93404 z m 13.24149,0 v 9.93404 z m 6.6214,0 v 9.93404 z m 6.62138,0 v 9.93404 z m 6.62141,0 v 9.93404 z m 13.24149,0 v 9.93404 z m 6.62139,0 v 9.93404 z m 6.6214,0 v 9.93404 z m 6.6214,0 v 9.93404 z m 13.24148,0 v 9.93404 z m 6.6214,0 v 9.93404 z m 6.62139,0 v 9.93404 z m 6.62142,0 v 9.93404 z m 13.24148,0 v 9.93404 z m 6.621413,0 v 9.93404 z m 6.621391,0 v 9.93404 z m 6.620105,0 v 9.93404 z m 13.242786,0 v 9.93404 z m 6.621397,0 v 9.93404 z m 6.62139,0 v 9.93404 z m 6.620105,0 v 9.93404 z m 13.242784,0 v 9.93404 z m 6.621398,0 v 9.93404 z m 6.621396,0 v 9.93404 z m 6.620099,0 v 9.93404 z m 13.24278554,0 v 9.93404 z m 6.62139676,0 v 9.93404 z m 6.6213977,0 v 9.93404 z m 6.620099,0 v 9.93404 z m 13.242786,0 v 9.93404 z m 6.621397,0 v 9.93404 z m 6.620098,0 v 9.93404 z m 6.621398,0 v 9.93404 z m 13.242794,0 v 9.93404 z m 6.621389,0 v 9.93404 z m 6.620105,0 v 9.93404 z m 6.621391,0 v 9.93404 z"
       copytype="single_stretched"
       prop_scale="-0.45"
       scale_y_rel="false"
       spacing="0"
       normal_offset="0"
       tang_offset="0"
       prop_units="false"
       vertical_pattern="false"
       hide_knot="false"
       fuse_tolerance="0" />
  </defs>
  <sodipodi:namedview
     id="base"
     pagecolor="#ffffff"
     bordercolor="#666666"
     borderopacity="1.0"
     inkscape:pageopacity="0.0"
     inkscape:pageshadow="2"
     inkscape:zoom="2.4921854"
     inkscape:cx="102.10884"
     inkscape:cy="204.9206"
     inkscape:document-units="mm"
     inkscape:current-layer="layer1"
     inkscape:document-rotation="0"
     showgrid="true"
     fit-margin-top="0"
     fit-margin-left="0"
     fit-margin-right="0"
     fit-margin-bottom="0"
     inkscape:window-width="1918"
     inkscape:window-height="2083"
     inkscape:window-x="-8"
     inkscape:window-y="38"
     inkscape:window-maximized="0">
    <inkscape:grid
       type="xygrid"
       id="grid964"
       originx="-42.885481"
       originy="-39.965939" />
  </sodipodi:namedview>
  <metadata
     id="metadata5">
    <rdf:RDF>
      <cc:Work
         rdf:about="">
        <dc:format>image/svg+xml</dc:format>
        <dc:type
           rdf:resource="http://purl.org/dc/dcmitype/StillImage" />
        <dc:title></dc:title>
      </cc:Work>
    </rdf:RDF>
  </metadata>
  <g
     inkscape:label="Lag 1"
     inkscape:groupmode="layer"
     id="layer1"
     transform="translate(-42.885484,-39.965941)">
    <g
       id="g962"
       transform="translate(42.935484,40.015941)"
       style="stroke:#ff0000;stroke-width:0.1;stroke-linejoin:miter;stroke-miterlimit:4;stroke-dasharray:none">
      <g
         lc:layername="0"
         lc:is_locked="false"
         lc:is_construction="false"
         fill="none"
         stroke="#000000"
         stroke-width="1"
         id="g940"
         style="stroke:#ff0000;stroke-width:0.1;stroke-linejoin:miter;stroke-miterlimit:4;stroke-dasharray:none">
        <path
           id="circle924"
           style="stroke:#ff0000;stroke-width:0.1;stroke-linejoin:miter;stroke-miterlimit:4;stroke-dasharray:none"
           d="M 56.6,5 A 1.6,1.6 0 0 1 55,6.6 1.6,1.6 0 0 1 53.4,5 1.6,1.6 0 0 1 55,3.4 1.6,1.6 0 0 1 56.6,5 Z" />
        <path
           id="circle926"
           style="stroke:#ff0000;stroke-width:0.1;stroke-linejoin:miter;stroke-miterlimit:4;stroke-dasharray:none"
           d="M 6.6,5 A 1.6,1.6 0 0 1 5,6.6 1.6,1.6 0 0 1 3.4,5 1.6,1.6 0 0 1 5,3.4 1.6,1.6 0 0 1 6.6,5 Z" />
        <path
           id="circle928"
           style="stroke:#ff0000;stroke-width:0.1;stroke-linejoin:miter;stroke-miterlimit:4;stroke-dasharray:none"
           d="M 56.6,55 A 1.6,1.6 0 0 1 55,56.6 1.6,1.6 0 0 1 53.4,55 1.6,1.6 0 0 1 55,53.4 1.6,1.6 0 0 1 56.6,55 Z" />
        <path
           id="circle930"
           style="stroke:#ff0000;stroke-width:0.1;stroke-linejoin:miter;stroke-miterlimit:4;stroke-dasharray:none"
           d="M 6.6,55 A 1.6,1.6 0 0 1 5,56.6 1.6,1.6 0 0 1 3.4,55 1.6,1.6 0 0 1 5,53.4 1.6,1.6 0 0 1 6.6,55 Z" />
        <path
           d="m 60,3 v 54 a 3,3 0 0 1 -3,3 H 3 A 3,3 0 0 1 0,57 V 3 A 3,3 0 0 1 3,0 h 54 a 3,3 0 0 1 3,3 z"
           id="path932"
           style="stroke:#ff0000;stroke-width:0.1;stroke-linejoin:miter;stroke-miterlimit:4;stroke-dasharray:none" />
        <path
           id="circle934"
           style="stroke:#ff0000;stroke-width:0.1;stroke-linejoin:miter;stroke-miterlimit:4;stroke-dasharray:none"
           d="m 34,30 a 4,4 0 0 1 -4,4 4,4 0 0 1 -4,-4 4,4 0 0 1 4,-4 4,4 0 0 1 4,4 z" />
        <path
           d="M 18,51 H 42 V 43 H 18 Z"
           id="path936"
           style="stroke:#ff0000;stroke-width:0.1;stroke-linejoin:miter;stroke-miterlimit:4;stroke-dasharray:none" />
        <path
           id="circle938"
           style="stroke:#ff0000;stroke-width:0.1;stroke-linejoin:miter;stroke-miterlimit:4;stroke-dasharray:none"
           d="M 56,30 A 26,26 0 0 1 30,56 26,26 0 0 1 4,30 26,26 0 0 1 30,4 26,26 0 0 1 56,30 Z" />
      </g>
      <g
         lc:layername="dimensions"
         lc:is_locked="false"
         lc:is_construction="false"
         fill="none"
         stroke="#000000"
         stroke-width="1"
         id="g942"
         style="stroke:#ff0000;stroke-width:0.1;stroke-linejoin:miter;stroke-miterlimit:4;stroke-dasharray:none" />
    </g>
    <path
       style="fill:none;stroke:#000000;stroke-width:0.307956;stroke-linecap:round;stroke-linejoin:miter;stroke-miterlimit:4;stroke-dasharray:none"
       d="M 94.128114,67.773013 98.528416,67.24697 Z"
       id="path1647" />
    <path
       style="fill:none;stroke:#000000;stroke-width:0.307956;stroke-linecap:round;stroke-linejoin:miter;stroke-miterlimit:4;stroke-dasharray:none"
       d="m 93.748476,65.615252 4.297709,-1.019518 z"
       id="path1645" />
    <path
       style="fill:none;stroke:#000000;stroke-width:0.307956;stroke-linecap:round;stroke-linejoin:miter;stroke-miterlimit:4;stroke-dasharray:none"
       d="m 93.125194,63.510475 4.162571,-1.480332 z"
       id="path1643" />
    <path
       style="fill:none;stroke:#000000;stroke-width:0.307956;stroke-linecap:round;stroke-linejoin:miter;stroke-miterlimit:4;stroke-dasharray:none"
       d="m 92.275406,61.475244 3.994835,-1.908663 z"
       id="path1641" />
    <path
       style="fill:none;stroke:#000000;stroke-width:0.307956;stroke-linecap:round;stroke-linejoin:miter;stroke-miterlimit:4;stroke-dasharray:none"
       d="m 89.966137,57.684193 3.561636,-2.667599 z"
       id="path1639" />
    <path
       style="fill:none;stroke:#000000;stroke-width:0.307956;stroke-linecap:round;stroke-linejoin:miter;stroke-miterlimit:4;stroke-dasharray:none"
       d="m 88.541423,55.963143 3.296174,-2.998205 z"
       id="path1637" />
    <path
       style="fill:none;stroke:#000000;stroke-width:0.307956;stroke-linecap:round;stroke-linejoin:miter;stroke-miterlimit:4;stroke-dasharray:none"
       d="m 86.96016,54.381884 2.998198,-3.296181 z"
       id="path1635" />
    <path
       style="fill:none;stroke:#000000;stroke-width:0.307956;stroke-linecap:round;stroke-linejoin:miter;stroke-miterlimit:4;stroke-dasharray:none"
       d="m 85.239107,52.957174 2.667591,-3.561642 z"
       id="path1633" />
    <path
       style="fill:none;stroke:#000000;stroke-width:0.307956;stroke-linecap:round;stroke-linejoin:miter;stroke-miterlimit:4;stroke-dasharray:none"
       d="m 81.448054,50.647916 1.908653,-3.99484 z"
       id="path1631" />
    <path
       style="fill:none;stroke:#000000;stroke-width:0.307956;stroke-linecap:round;stroke-linejoin:miter;stroke-miterlimit:4;stroke-dasharray:none"
       d="m 79.413225,49.798277 1.480408,-4.162546 z"
       id="path1629" />
    <path
       style="fill:none;stroke:#000000;stroke-width:0.307956;stroke-linecap:round;stroke-linejoin:miter;stroke-miterlimit:4;stroke-dasharray:none"
       d="m 77.308041,49.174855 1.019507,-4.297712 z"
       id="path1627" />
    <path
       style="fill:none;stroke:#000000;stroke-width:0.307956;stroke-linecap:round;stroke-linejoin:miter;stroke-miterlimit:4;stroke-dasharray:none"
       d="m 75.150277,48.795223 0.526031,-4.400304 z"
       id="path1625" />
    <path
       style="fill:none;stroke:#000000;stroke-width:0.307956;stroke-linecap:round;stroke-linejoin:miter;stroke-miterlimit:4;stroke-dasharray:none"
       d="M 70.76436,48.795242 70.238291,44.394945 Z"
       id="path1623" />
    <path
       style="fill:none;stroke:#000000;stroke-width:0.307956;stroke-linecap:round;stroke-linejoin:miter;stroke-miterlimit:4;stroke-dasharray:none"
       d="m 68.607018,49.174795 -1.01945,-4.297727 z"
       id="path1621" />
    <path
       style="fill:none;stroke:#000000;stroke-width:0.307956;stroke-linecap:round;stroke-linejoin:miter;stroke-miterlimit:4;stroke-dasharray:none"
       d="M 66.501827,49.798188 65.021473,45.635624 Z"
       id="path1619" />
    <path
       style="fill:none;stroke:#000000;stroke-width:0.307956;stroke-linecap:round;stroke-linejoin:miter;stroke-miterlimit:4;stroke-dasharray:none"
       d="M 64.466598,50.647988 62.557913,46.653163 Z"
       id="path1617" />
    <path
       style="fill:none;stroke:#000000;stroke-width:0.307956;stroke-linecap:round;stroke-linejoin:miter;stroke-miterlimit:4;stroke-dasharray:none"
       d="M 60.675561,52.957276 58.007944,49.395652 Z"
       id="path1615" />
    <path
       style="fill:none;stroke:#000000;stroke-width:0.307956;stroke-linecap:round;stroke-linejoin:miter;stroke-miterlimit:4;stroke-dasharray:none"
       d="m 58.954841,54.381703 -2.99816,-3.296214 z"
       id="path1613" />
    <path
       style="fill:none;stroke:#000000;stroke-width:0.307956;stroke-linecap:round;stroke-linejoin:miter;stroke-miterlimit:4;stroke-dasharray:none"
       d="M 57.373266,55.963268 54.077071,52.965086 Z"
       id="path1611" />
    <path
       style="fill:none;stroke:#000000;stroke-width:0.307956;stroke-linecap:round;stroke-linejoin:miter;stroke-miterlimit:4;stroke-dasharray:none"
       d="M 55.948565,57.684328 52.38691,55.016754 Z"
       id="path1609" />
    <path
       style="fill:none;stroke:#000000;stroke-width:0.307956;stroke-linecap:round;stroke-linejoin:miter;stroke-miterlimit:4;stroke-dasharray:none"
       d="M 53.639326,61.475392 49.644478,59.566759 Z"
       id="path1607" />
    <path
       style="fill:none;stroke:#000000;stroke-width:0.307956;stroke-linecap:round;stroke-linejoin:miter;stroke-miterlimit:4;stroke-dasharray:none"
       d="M 52.789698,63.510226 48.627145,62.029841 Z"
       id="path1605" />
    <path
       style="fill:none;stroke:#000000;stroke-width:0.307956;stroke-linecap:round;stroke-linejoin:miter;stroke-miterlimit:4;stroke-dasharray:none"
       d="M 52.166289,65.615411 47.868571,64.595929 Z"
       id="path1603" />
    <path
       style="fill:none;stroke:#000000;stroke-width:0.307956;stroke-linecap:round;stroke-linejoin:miter;stroke-miterlimit:4;stroke-dasharray:none"
       d="M 51.78667,67.773183 47.386361,67.247179 Z"
       id="path1601" />
    <path
       style="fill:none;stroke:#000000;stroke-width:0.307956;stroke-linecap:round;stroke-linejoin:miter;stroke-miterlimit:4;stroke-dasharray:none"
       d="m 51.786666,72.15867 -4.40031,0.525996 z"
       id="path1599" />
    <path
       style="fill:none;stroke:#000000;stroke-width:0.307956;stroke-linecap:round;stroke-linejoin:miter;stroke-miterlimit:4;stroke-dasharray:none"
       d="m 52.166283,74.316445 -4.29772,1.019476 z"
       id="path1597" />
    <path
       style="fill:none;stroke:#000000;stroke-width:0.307956;stroke-linecap:round;stroke-linejoin:miter;stroke-miterlimit:4;stroke-dasharray:none"
       d="m 52.789688,76.42163 -4.162555,1.480379 z"
       id="path1595" />
    <path
       style="fill:none;stroke:#000000;stroke-width:0.307956;stroke-linecap:round;stroke-linejoin:miter;stroke-miterlimit:4;stroke-dasharray:none"
       d="m 53.639501,78.456856 -3.994815,1.908707 z"
       id="path1593" />
    <path
       style="fill:none;stroke:#000000;stroke-width:0.307956;stroke-linecap:round;stroke-linejoin:miter;stroke-miterlimit:4;stroke-dasharray:none"
       d="m 88.541696,83.96844 3.296225,2.998149 z"
       id="path1563" />
    <path
       style="fill:none;stroke:#000000;stroke-width:0.307956;stroke-linecap:round;stroke-linejoin:miter;stroke-miterlimit:4;stroke-dasharray:none"
       d="m 89.96638,82.247366 3.561682,2.667537 z"
       id="path1561" />
    <path
       style="fill:none;stroke:#000000;stroke-width:0.307956;stroke-linecap:round;stroke-linejoin:miter;stroke-miterlimit:4;stroke-dasharray:none"
       d="m 92.275391,78.45667 3.994832,1.908669 z"
       id="path1559" />
    <path
       style="fill:none;stroke:#000000;stroke-width:0.307956;stroke-linecap:round;stroke-linejoin:miter;stroke-miterlimit:4;stroke-dasharray:none"
       d="m 93.125184,76.421437 4.162569,1.480338 z"
       id="path1557" />
    <path
       style="fill:none;stroke:#000000;stroke-width:0.307956;stroke-linecap:round;stroke-linejoin:miter;stroke-miterlimit:4;stroke-dasharray:none"
       d="m 93.748568,74.316243 4.297731,1.019431 z"
       id="path1555" />
    <path
       style="fill:none;stroke:#000000;stroke-width:0.307956;stroke-linecap:round;stroke-linejoin:miter;stroke-miterlimit:4;stroke-dasharray:none"
       d="m 94.12816,72.158474 4.400317,0.52595 z"
       id="path1553" />
    <path
       style="fill:none;stroke:#000000;stroke-width:0.307956;stroke-linecap:round;stroke-linejoin:miter;stroke-miterlimit:4;stroke-dasharray:none"
       d="m 92.756497,69.965963 h 5.960427 z"
       id="path1551" />
    <path
       style="fill:none;stroke:#000000;stroke-width:0.808;stroke-linecap:round;stroke-linejoin:miter;stroke-miterlimit:4;stroke-dasharray:none"
       d="m 89.951753,60.295492 5.059362,-3.072557 z"
       id="path1549" />
    <path
       style="fill:none;stroke:#000000;stroke-width:0.808;stroke-linecap:round;stroke-linejoin:miter;stroke-miterlimit:4;stroke-dasharray:none"
       d="m 82.62781,52.971565 3.072545,-5.059368 z"
       id="path1547" />
    <path
       style="fill:none;stroke:#000000;stroke-width:0.808;stroke-linecap:round;stroke-linejoin:miter;stroke-miterlimit:4;stroke-dasharray:none"
       d="m 72.957326,50.166864 -2.8e-5,-5.960418 z"
       id="path1545" />
    <path
       style="fill:none;stroke:#000000;stroke-width:0.808;stroke-linecap:round;stroke-linejoin:miter;stroke-miterlimit:4;stroke-dasharray:none"
       d="M 63.286861,52.971646 60.214278,47.912299 Z"
       id="path1543" />
    <path
       style="fill:none;stroke:#000000;stroke-width:0.808;stroke-linecap:round;stroke-linejoin:miter;stroke-miterlimit:4;stroke-dasharray:none"
       d="M 55.962968,60.295626 50.903584,57.223107 Z"
       id="path1541" />
    <path
       style="fill:none;stroke:#000000;stroke-width:0.808;stroke-linecap:round;stroke-linejoin:miter;stroke-miterlimit:4;stroke-dasharray:none"
       d="m 53.158322,69.966126 -5.960414,6.6e-5 z"
       id="path1539" />
    <path
       style="fill:none;stroke:#000000;stroke-width:0.808;stroke-linecap:round;stroke-linejoin:miter;stroke-miterlimit:4;stroke-dasharray:none"
       d="m 55.963166,79.636581 -5.059331,3.072611 z"
       id="path1537" />
    <path
       style="fill:none;stroke:#000000;stroke-width:0.808;stroke-linecap:round;stroke-linejoin:miter;stroke-miterlimit:4;stroke-dasharray:none"
       d="m 89.95174,79.636414 5.059358,3.072563 z"
       id="path1529" />
    <path
       style="fill:none;stroke:#000000;stroke-width:0.808;stroke-linecap:round;stroke-linejoin:miter;stroke-miterlimit:4;stroke-dasharray:none"
       d="m 92.756478,69.965941 h 5.96042 z"
       id="path1493" />
    <g
       aria-label="0"
       id="text1651"
       style="font-style:normal;font-variant:normal;font-weight:normal;font-stretch:normal;font-size:3.175px;line-height:1.25;font-family:'MS 33558';-inkscape-font-specification:'MS 33558, Normal';font-variant-ligatures:normal;font-variant-caps:normal;font-variant-numeric:normal;font-variant-east-asian:normal;stroke-width:0.264583;stroke-linejoin:miter">
      <path
         d="m 58.10275,77.107745 q 0.347266,0 0.567408,0.288355 0.220141,0.288354 0.305407,0.586011 0.03566,0.130224 0.06201,0.272851 0.07906,0.42323 0,0.927075 -0.07751,0.503846 -0.37052,0.835608 -0.235645,0.2651 -0.545703,0.2651 -0.47594,0 -0.716235,-0.496093 -0.238746,-0.496094 -0.241846,-1.091407 -0.0015,-0.595312 0.232544,-1.091406 0.234094,-0.496094 0.706933,-0.496094 z m 0.01085,0.438733 q -0.184484,0.03721 -0.293005,0.21084 -0.10697,0.173633 -0.15813,0.395325 -0.05116,0.221692 -0.05581,0.448035 -0.0047,0.226342 0.01705,0.367419 0.0186,0.133325 0.08837,0.344165 0.06976,0.20929 0.175183,0.361218 0.10697,0.150379 0.243396,0.173633 0.136425,0.0217 0.289904,-0.220142 0.116272,-0.186035 0.173633,-0.472839 0.05736,-0.286804 0.04031,-0.586011 -0.01705,-0.299206 -0.114722,-0.564306 -0.09612,-0.2651 -0.285254,-0.409278 -0.05736,-0.04031 -0.10852,-0.04806 -0.0016,0 -0.0047,0 -0.0015,0 -0.0078,0 z"
         style="font-style:normal;font-variant:normal;font-weight:normal;font-stretch:normal;font-size:3.175px;font-family:'MS 33558';-inkscape-font-specification:'MS 33558, Normal';font-variant-ligatures:normal;font-variant-caps:normal;font-variant-numeric:normal;font-variant-east-asian:normal;stroke-width:0.264583;stroke-linejoin:miter"
         id="path1784" />
    </g>
    <g
       aria-label="5"
       id="text1655"
       style="font-style:normal;font-variant:normal;font-weight:normal;font-stretch:normal;font-size:3.175px;line-height:1.25;font-family:'MS 33558';-inkscape-font-specification:'MS 33558, Normal';font-variant-ligatures:normal;font-variant-caps:normal;font-variant-numeric:normal;font-variant-east-asian:normal;stroke-width:0.264583;stroke-linejoin:miter">
      <path
         d="m 54.556905,71.178392 q -0.0047,-0.0047 -0.01705,-0.02481 -0.01085,-0.0217 -0.0124,-0.02791 -0.02791,-0.09612 0.0217,-0.182934 0.02015,-0.03566 0.05736,-0.06356 0.06821,-0.05116 0.15968,-0.03411 0.09147,0.0155 0.139526,0.08527 0.229444,0.306958 0.606165,0.251148 0.378271,-0.05736 0.489892,-0.432532 0.05426,-0.181384 -0.0093,-0.379822 -0.06201,-0.199988 -0.227893,-0.303857 -0.179834,-0.113172 -0.351917,-0.113172 -0.179834,0 -0.331763,0.09612 -0.04186,0.02791 -0.07906,0.05736 -0.04961,0.03876 -0.09922,0.04651 -0.09922,0.01705 -0.175183,-0.04651 -0.07596,-0.06511 -0.07596,-0.165881 v -1.282092 q 0,-0.01705 0.0047,-0.03876 0.0047,-0.02325 0.0062,-0.02945 0.04806,-0.145728 0.203089,-0.145728 h 1.010791 v 0 q 0.08837,0 0.153479,0.06511 0.09922,0.100769 0.04186,0.232544 -0.05581,0.131774 -0.195337,0.131774 h -0.796851 v 0.703833 q 0,0 0.02325,-0.0078 0.406177,-0.125574 0.785999,0.07131 0.379822,0.195337 0.514697,0.599964 0.02481,0.07906 0.04496,0.192236 0.03876,0.240296 -0.04961,0.480591 -0.08682,0.238745 -0.255798,0.406177 -0.254248,0.254248 -0.621667,0.291455 -0.36742,0.03721 -0.669727,-0.153479 -0.07131,-0.04341 -0.164331,-0.124024 -0.09302,-0.08061 -0.130225,-0.155029 z"
         style="font-style:normal;font-variant:normal;font-weight:normal;font-stretch:normal;font-size:3.175px;font-family:'MS 33558';-inkscape-font-specification:'MS 33558, Normal';font-variant-ligatures:normal;font-variant-caps:normal;font-variant-numeric:normal;font-variant-east-asian:normal;stroke-width:0.264583;stroke-linejoin:miter"
         id="path1781" />
    </g>
    <g
       aria-label="10"
       id="text1659"
       style="font-style:normal;font-variant:normal;font-weight:normal;font-stretch:normal;font-size:3.175px;line-height:1.25;font-family:'MS 33558';-inkscape-font-specification:'MS 33558, Normal';font-variant-ligatures:normal;font-variant-caps:normal;font-variant-numeric:normal;font-variant-east-asian:normal;stroke-width:0.264583;stroke-linejoin:miter">
      <path
         d="m 57.618464,62.851403 q 0,0.02015 -0.0047,0.04341 -0.03721,0.175183 -0.217041,0.175183 -0.131775,0 -0.195337,-0.122473 -0.01395,-0.02325 -0.02325,-0.09612 v -2.734717 q 0.0047,-0.03721 0.01085,-0.06976 0.0078,-0.03411 0.03411,-0.06511 0.06201,-0.07597 0.15968,-0.08217 0.09767,-0.0078 0.168982,0.06201 0.03721,0.03721 0.04806,0.07131 0.01085,0.03411 0.0186,0.08372 z"
         style="font-style:normal;font-variant:normal;font-weight:normal;font-stretch:normal;font-size:3.175px;font-family:'MS 33558';-inkscape-font-specification:'MS 33558, Normal';font-variant-ligatures:normal;font-variant-caps:normal;font-variant-numeric:normal;font-variant-east-asian:normal;stroke-width:0.264583;stroke-linejoin:miter"
         id="path1776" />
      <path
         d="m 59.057136,59.896545 q 0.347265,0 0.567407,0.288354 0.220142,0.288355 0.305408,0.586011 0.03566,0.130225 0.06201,0.272851 0.07906,0.42323 0,0.927076 -0.07751,0.503845 -0.37052,0.835608 -0.235644,0.2651 -0.545703,0.2651 -0.47594,0 -0.716235,-0.496094 -0.238745,-0.496094 -0.241846,-1.091406 -0.0016,-0.595313 0.232544,-1.091407 0.234094,-0.496093 0.706934,-0.496093 z m 0.01085,0.438733 q -0.184485,0.03721 -0.293006,0.210839 -0.10697,0.173633 -0.158129,0.395325 -0.05116,0.221692 -0.05581,0.448035 -0.0047,0.226343 0.01705,0.367419 0.0186,0.133325 0.08837,0.344165 0.06976,0.20929 0.175183,0.361219 0.10697,0.150378 0.243396,0.173632 0.136426,0.0217 0.289905,-0.220141 0.116272,-0.186035 0.173633,-0.47284 0.05736,-0.286804 0.04031,-0.58601 -0.01705,-0.299207 -0.114721,-0.564307 -0.09612,-0.2651 -0.285254,-0.409277 -0.05736,-0.04031 -0.108521,-0.04806 -0.0016,0 -0.0047,0 -0.0016,0 -0.0078,0 z"
         style="font-style:normal;font-variant:normal;font-weight:normal;font-stretch:normal;font-size:3.175px;font-family:'MS 33558';-inkscape-font-specification:'MS 33558, Normal';font-variant-ligatures:normal;font-variant-caps:normal;font-variant-numeric:normal;font-variant-east-asian:normal;stroke-width:0.264583;stroke-linejoin:miter"
         id="path1778" />
    </g>
    <g
       aria-label="15"
       id="text1663"
       style="font-style:normal;font-variant:normal;font-weight:normal;font-stretch:normal;font-size:3.175px;line-height:1.25;font-family:'MS 33558';-inkscape-font-specification:'MS 33558, Normal';font-variant-ligatures:normal;font-variant-caps:normal;font-variant-numeric:normal;font-variant-east-asian:normal;stroke-width:0.264583;stroke-linejoin:miter">
      <path
         d="m 63.686468,56.711858 q 0,0.02015 -0.0046,0.04341 -0.03721,0.175183 -0.217041,0.175183 -0.131775,0 -0.195337,-0.122473 -0.01395,-0.02325 -0.02326,-0.09612 v -2.734717 q 0.0047,-0.03721 0.01085,-0.06976 0.0078,-0.03411 0.03411,-0.06511 0.06201,-0.07596 0.15968,-0.08216 0.09767,-0.0078 0.168982,0.06201 0.03721,0.03721 0.04806,0.07131 0.01085,0.03411 0.0186,0.08372 z"
         style="font-style:normal;font-variant:normal;font-weight:normal;font-stretch:normal;font-size:3.175px;font-family:'MS 33558';-inkscape-font-specification:'MS 33558, Normal';font-variant-ligatures:normal;font-variant-caps:normal;font-variant-numeric:normal;font-variant-east-asian:normal;stroke-width:0.264583;stroke-linejoin:miter"
         id="path1771" />
      <path
         d="m 64.22597,56.491716 q -0.0046,-0.0047 -0.01705,-0.0248 -0.01085,-0.0217 -0.0124,-0.02791 -0.02791,-0.09612 0.0217,-0.182935 0.02015,-0.03566 0.05736,-0.06356 0.06821,-0.05116 0.15968,-0.03411 0.09147,0.0155 0.139526,0.08527 0.229444,0.306958 0.606165,0.251148 0.378271,-0.05736 0.489892,-0.432532 0.05426,-0.181384 -0.0093,-0.379822 -0.06201,-0.199988 -0.227893,-0.303857 -0.179834,-0.113172 -0.351917,-0.113172 -0.179834,0 -0.331763,0.09612 -0.04186,0.02791 -0.07906,0.05736 -0.04961,0.03876 -0.09922,0.04651 -0.09922,0.01705 -0.175183,-0.04651 -0.07596,-0.06511 -0.07596,-0.165881 V 53.97094 q 0,-0.01705 0.0047,-0.03876 0.0047,-0.02325 0.0062,-0.02945 0.04806,-0.145728 0.203089,-0.145728 h 1.010791 v 0 q 0.08837,0 0.153479,0.06511 0.09922,0.100769 0.04186,0.232543 -0.05581,0.131775 -0.195337,0.131775 h -0.796851 v 0.703833 q 0,0 0.02326,-0.0078 0.406176,-0.125574 0.785998,0.07131 0.379822,0.195337 0.514697,0.599964 0.02481,0.07906 0.04496,0.192236 0.03876,0.240296 -0.04961,0.480591 -0.08682,0.238745 -0.255798,0.406177 -0.254248,0.254248 -0.621667,0.291455 -0.36742,0.03721 -0.669727,-0.153479 -0.07131,-0.04341 -0.164331,-0.124024 -0.09302,-0.08062 -0.130225,-0.155029 z"
         style="font-style:normal;font-variant:normal;font-weight:normal;font-stretch:normal;font-size:3.175px;font-family:'MS 33558';-inkscape-font-specification:'MS 33558, Normal';font-variant-ligatures:normal;font-variant-caps:normal;font-variant-numeric:normal;font-variant-east-asian:normal;stroke-width:0.264583;stroke-linejoin:miter"
         id="path1773" />
    </g>
    <g
       aria-label="20"
       id="text1667"
       style="font-style:normal;font-variant:normal;font-weight:normal;font-stretch:normal;font-size:3.175px;line-height:1.25;font-family:'MS 33558';-inkscape-font-specification:'MS 33558, Normal';font-variant-ligatures:normal;font-variant-caps:normal;font-variant-numeric:normal;font-variant-east-asian:normal;stroke-width:0.264583;stroke-linejoin:miter">
      <path
         d="m 71.118991,54.443621 q -0.09147,0 -0.15658,-0.06356 -0.06356,-0.06356 -0.06356,-0.15658 0,-0.0031 0.0155,-0.09767 0.01705,-0.09612 0.02015,-0.110071 0.07906,-0.379822 0.306958,-0.722436 0.229444,-0.342615 0.553455,-0.561206 0.114721,-0.07751 0.207739,-0.161231 0.09457,-0.08527 0.192236,-0.190686 0.125574,-0.142627 0.108521,-0.324011 -0.0155,-0.181384 -0.179834,-0.286804 -0.201538,-0.125574 -0.409277,-0.0062 -0.20774,0.119372 -0.198438,0.356567 0,0.0047 0,0.01085 0.0015,0.0047 0.0015,0.0093 0.0093,0.07131 -0.03411,0.139526 -0.04341,0.06666 -0.110071,0.08682 -0.102319,0.03256 -0.190686,-0.02015 -0.08682,-0.05271 -0.09922,-0.15503 -0.0047,-0.01395 -0.0015,-0.114721 0.0047,-0.100769 0.0093,-0.117823 0.06976,-0.381372 0.399975,-0.573608 0.331763,-0.193787 0.699183,-0.06821 0.435632,0.151929 0.53175,0.593762 0.09612,0.441834 -0.207739,0.772046 -0.06201,0.06666 -0.125574,0.131775 -0.06201,0.06356 -0.133325,0.122473 -0.111621,0.09302 -0.235645,0.172083 -0.122473,0.07906 -0.220141,0.186035 -0.111621,0.124023 -0.21084,0.272852 -0.09767,0.148828 -0.155029,0.305407 -0.0047,0.0093 -0.02481,0.06821 -0.0186,0.05891 -0.0186,0.06356 h 1.150318 q 0.21394,0.01395 0.207739,0.226343 -0.0062,0.21239 -0.215491,0.21239 z"
         style="font-style:normal;font-variant:normal;font-weight:normal;font-stretch:normal;font-size:3.175px;font-family:'MS 33558';-inkscape-font-specification:'MS 33558, Normal';font-variant-ligatures:normal;font-variant-caps:normal;font-variant-numeric:normal;font-variant-east-asian:normal;stroke-width:0.264583;stroke-linejoin:miter"
         id="path1766" />
      <path
         d="m 74.111056,51.270171 q 0.347266,0 0.567408,0.288355 0.220141,0.288354 0.305407,0.586011 0.03566,0.130224 0.06201,0.272851 0.07906,0.42323 0,0.927075 -0.07752,0.503846 -0.37052,0.835608 -0.235644,0.2651 -0.545703,0.2651 -0.47594,0 -0.716235,-0.496093 -0.238746,-0.496094 -0.241846,-1.091407 -0.0015,-0.595312 0.232544,-1.091406 0.234094,-0.496094 0.706933,-0.496094 z m 0.01085,0.438733 q -0.184484,0.03721 -0.293005,0.21084 -0.10697,0.173633 -0.15813,0.395325 -0.05116,0.221692 -0.05581,0.448035 -0.0047,0.226342 0.01705,0.367419 0.0186,0.133325 0.08837,0.344165 0.06976,0.20929 0.175183,0.361218 0.10697,0.150379 0.243396,0.173633 0.136425,0.0217 0.289904,-0.220142 0.116272,-0.186035 0.173633,-0.472839 0.05736,-0.286804 0.04031,-0.586011 -0.01705,-0.299206 -0.114722,-0.564306 -0.09612,-0.2651 -0.285254,-0.409278 -0.05736,-0.04031 -0.10852,-0.04806 -0.0015,0 -0.0047,0 -0.0015,0 -0.0078,0 z"
         style="font-style:normal;font-variant:normal;font-weight:normal;font-stretch:normal;font-size:3.175px;font-family:'MS 33558';-inkscape-font-specification:'MS 33558, Normal';font-variant-ligatures:normal;font-variant-caps:normal;font-variant-numeric:normal;font-variant-east-asian:normal;stroke-width:0.264583;stroke-linejoin:miter"
         id="path1768" />
    </g>
    <g
       aria-label="25"
       id="text1671"
       style="font-style:normal;font-variant:normal;font-weight:normal;font-stretch:normal;font-size:3.175px;line-height:1.25;font-family:'MS 33558';-inkscape-font-specification:'MS 33558, Normal';font-variant-ligatures:normal;font-variant-caps:normal;font-variant-numeric:normal;font-variant-east-asian:normal;stroke-width:0.264583;stroke-linejoin:miter">
      <path
         d="m 78.69028,56.931883 q -0.09147,0 -0.156579,-0.06356 -0.06356,-0.06356 -0.06356,-0.156579 0,-0.0031 0.0155,-0.09767 0.01705,-0.09612 0.02015,-0.110071 0.07906,-0.379821 0.306958,-0.722436 0.229444,-0.342615 0.553455,-0.561206 0.114722,-0.07751 0.207739,-0.161231 0.09457,-0.08527 0.192236,-0.190686 0.125574,-0.142627 0.108521,-0.324011 -0.0155,-0.181384 -0.179834,-0.286804 -0.201538,-0.125574 -0.409277,-0.0062 -0.20774,0.119372 -0.198438,0.356567 0,0.0047 0,0.01085 0.0016,0.0047 0.0016,0.0093 0.0093,0.07131 -0.03411,0.139526 -0.04341,0.06666 -0.110071,0.08682 -0.102319,0.03256 -0.190686,-0.02015 -0.08682,-0.05271 -0.09922,-0.155029 -0.0046,-0.01395 -0.0015,-0.114722 0.0047,-0.100769 0.0093,-0.117822 0.06976,-0.381372 0.399975,-0.573609 0.331763,-0.193786 0.699183,-0.06821 0.435632,0.151929 0.53175,0.593763 0.09612,0.441833 -0.207739,0.772045 -0.06201,0.06666 -0.125574,0.131775 -0.06201,0.06356 -0.133325,0.122473 -0.111621,0.09302 -0.235645,0.172083 -0.122473,0.07906 -0.220141,0.186035 -0.111621,0.124024 -0.21084,0.272852 -0.09767,0.148828 -0.155029,0.305407 -0.0047,0.0093 -0.02481,0.06821 -0.0186,0.05891 -0.0186,0.06356 h 1.150318 q 0.21394,0.01395 0.207739,0.226343 -0.0062,0.21239 -0.215491,0.21239 z"
         style="font-style:normal;font-variant:normal;font-weight:normal;font-stretch:normal;font-size:3.175px;font-family:'MS 33558';-inkscape-font-specification:'MS 33558, Normal';font-variant-ligatures:normal;font-variant-caps:normal;font-variant-numeric:normal;font-variant-east-asian:normal;stroke-width:0.264583;stroke-linejoin:miter"
         id="path1761" />
      <path
         d="m 80.783176,56.49315 q -0.0047,-0.0047 -0.01705,-0.0248 -0.01085,-0.0217 -0.0124,-0.02791 -0.02791,-0.09612 0.0217,-0.182934 0.02015,-0.03566 0.05736,-0.06356 0.06821,-0.05116 0.15968,-0.03411 0.09147,0.0155 0.139526,0.08527 0.229444,0.306958 0.606165,0.251148 0.378271,-0.05736 0.489893,-0.432532 0.05426,-0.181384 -0.0093,-0.379822 -0.06201,-0.199987 -0.227893,-0.303857 -0.179834,-0.113171 -0.351917,-0.113171 -0.179834,0 -0.331762,0.09612 -0.04186,0.02791 -0.07906,0.05736 -0.04961,0.03876 -0.09922,0.04651 -0.09922,0.01705 -0.175183,-0.04651 -0.07597,-0.06511 -0.07597,-0.165882 v -1.282092 q 0,-0.01705 0.0047,-0.03876 0.0047,-0.02325 0.0062,-0.02946 0.04806,-0.145727 0.203089,-0.145727 h 1.010791 v 0 q 0.08837,0 0.153479,0.06511 0.09922,0.100769 0.04186,0.232544 -0.05581,0.131775 -0.195337,0.131775 h -0.796851 v 0.703833 q 0,0 0.02326,-0.0078 0.406176,-0.125573 0.785998,0.07131 0.379822,0.195337 0.514697,0.599963 0.02481,0.07906 0.04496,0.192236 0.03876,0.240296 -0.04961,0.480591 -0.08682,0.238745 -0.255799,0.406177 -0.254248,0.254248 -0.621667,0.291455 -0.36742,0.03721 -0.669727,-0.153479 -0.07131,-0.04341 -0.164331,-0.124023 -0.09302,-0.08062 -0.130224,-0.15503 z"
         style="font-style:normal;font-variant:normal;font-weight:normal;font-stretch:normal;font-size:3.175px;font-family:'MS 33558';-inkscape-font-specification:'MS 33558, Normal';font-variant-ligatures:normal;font-variant-caps:normal;font-variant-numeric:normal;font-variant-east-asian:normal;stroke-width:0.264583;stroke-linejoin:miter"
         id="path1763" />
    </g>
    <g
       aria-label="30"
       id="text1675"
       style="font-style:normal;font-variant:normal;font-weight:normal;font-stretch:normal;font-size:3.175px;line-height:1.25;font-family:'MS 33558';-inkscape-font-specification:'MS 33558, Normal';font-variant-ligatures:normal;font-variant-caps:normal;font-variant-numeric:normal;font-variant-east-asian:normal;stroke-width:0.264583;stroke-linejoin:miter">
      <path
         d="m 86.177563,62.130513 q -0.0016,-0.09457 0.0031,-0.172083 0.0062,-0.07906 -0.03411,-0.175183 -0.100769,-0.232544 -0.31316,-0.337963 -0.210839,-0.10542 -0.457336,-0.03566 -0.0031,0.0031 -0.0093,0.0031 -0.0124,0.0062 -0.02945,0.0093 -0.07441,0.0155 -0.139527,-0.0186 -0.07441,-0.03411 -0.10852,-0.124024 -0.0047,-0.01085 -0.01085,-0.04496 -0.0186,-0.100769 0.04651,-0.165882 l 0.593762,-0.733288 h -0.733289 q -0.102319,0 -0.168982,-0.07596 -0.06666,-0.07751 -0.04806,-0.179834 0.02946,-0.182934 0.215491,-0.182934 h 1.195276 q 0.184485,0 0.217041,0.189136 0.0155,0.103869 -0.04651,0.167431 l -0.576709,0.711585 q 0.02325,0.0047 0.04651,0.0124 0.0248,0.0062 0.04806,0.01085 0.01395,0.0047 0.01705,0.0047 0.31626,0.10697 0.510046,0.356567 0.195337,0.249598 0.227894,0.57981 0.0248,0.248047 -0.07751,0.485242 -0.100769,0.235644 -0.285254,0.396875 -0.297656,0.260449 -0.68678,0.260449 -0.395324,0 -0.68833,-0.243396 -0.291455,-0.243396 -0.367419,-0.627869 -0.0016,-0.0016 -0.0031,-0.03256 0,-0.03101 0,-0.03876 0.03876,-0.186035 0.221692,-0.186035 0.04341,0 0.117822,0.03566 0.02791,0.0155 0.06046,0.06356 0.03411,0.04651 0.03411,0.07906 0,0.01705 0.0217,0.08992 0.02325,0.07286 0.05891,0.124024 0.257349,0.386023 0.713135,0.272851 0.127124,-0.03256 0.248047,-0.145727 0.122473,-0.113172 0.15968,-0.240296 0.0015,-0.0062 0.01395,-0.04806 0.01395,-0.04186 0.01395,-0.04341 z"
         style="font-style:normal;font-variant:normal;font-weight:normal;font-stretch:normal;font-size:3.175px;font-family:'MS 33558';-inkscape-font-specification:'MS 33558, Normal';font-variant-ligatures:normal;font-variant-caps:normal;font-variant-numeric:normal;font-variant-east-asian:normal;stroke-width:0.264583;stroke-linejoin:miter"
         id="path1756" />
      <path
         d="m 88.000708,59.896541 q 0.347266,0 0.567407,0.288354 0.220142,0.288355 0.305408,0.586011 0.03566,0.130225 0.06201,0.272852 0.07906,0.42323 0,0.927075 -0.07752,0.503845 -0.37052,0.835608 -0.235645,0.2651 -0.545704,0.2651 -0.475939,0 -0.716235,-0.496094 -0.238745,-0.496094 -0.241846,-1.091406 -0.0015,-0.595313 0.232544,-1.091406 0.234095,-0.496094 0.706934,-0.496094 z m 0.01085,0.438733 q -0.184485,0.03721 -0.293005,0.21084 -0.106971,0.173632 -0.15813,0.395324 -0.05116,0.221692 -0.05581,0.448035 -0.0047,0.226343 0.01705,0.367419 0.0186,0.133326 0.08837,0.344165 0.06976,0.20929 0.175183,0.361219 0.10697,0.150378 0.243396,0.173633 0.136426,0.0217 0.289905,-0.220142 0.116272,-0.186035 0.173633,-0.472839 0.05736,-0.286805 0.04031,-0.586011 -0.01705,-0.299207 -0.114721,-0.564307 -0.09612,-0.2651 -0.285254,-0.409277 -0.05736,-0.04031 -0.108521,-0.04806 -0.0015,0 -0.0047,0 -0.0016,0 -0.0078,0 z"
         style="font-style:normal;font-variant:normal;font-weight:normal;font-stretch:normal;font-size:3.175px;font-family:'MS 33558';-inkscape-font-specification:'MS 33558, Normal';font-variant-ligatures:normal;font-variant-caps:normal;font-variant-numeric:normal;font-variant-east-asian:normal;stroke-width:0.264583;stroke-linejoin:miter"
         id="path1758" />
    </g>
    <g
       aria-label="35"
       id="text1679"
       style="font-style:normal;font-variant:normal;font-weight:normal;font-stretch:normal;font-size:3.175px;line-height:1.25;font-family:'MS 33558';-inkscape-font-specification:'MS 33558, Normal';font-variant-ligatures:normal;font-variant-caps:normal;font-variant-numeric:normal;font-variant-east-asian:normal;stroke-width:0.264583;stroke-linejoin:miter">
      <path
         d="m 88.921269,70.676808 q -0.0015,-0.09457 0.0031,-0.172082 0.0062,-0.07906 -0.03411,-0.175183 -0.100769,-0.232544 -0.313159,-0.337964 -0.21084,-0.10542 -0.457336,-0.03566 -0.0031,0.0031 -0.0093,0.0031 -0.0124,0.0062 -0.02946,0.0093 -0.07441,0.0155 -0.139526,-0.0186 -0.07441,-0.03411 -0.10852,-0.124024 -0.0047,-0.01085 -0.01085,-0.04496 -0.0186,-0.100769 0.04651,-0.165881 l 0.593762,-0.733289 h -0.733288 q -0.102319,0 -0.168982,-0.07596 -0.06666,-0.07752 -0.04806,-0.179834 0.02945,-0.182935 0.215491,-0.182935 h 1.195275 q 0.184485,0 0.217042,0.189136 0.0155,0.103869 -0.04651,0.167431 l -0.576709,0.711585 q 0.02325,0.0047 0.04651,0.0124 0.0248,0.0062 0.04806,0.01085 0.01395,0.0047 0.01705,0.0047 0.31626,0.10697 0.510046,0.356568 0.195337,0.249597 0.227893,0.579809 0.02481,0.248047 -0.07751,0.485242 -0.100769,0.235644 -0.285254,0.396875 -0.297657,0.260449 -0.68678,0.260449 -0.395325,0 -0.68833,-0.243396 -0.291455,-0.243396 -0.36742,-0.627869 -0.0015,-0.0016 -0.0031,-0.03256 0,-0.03101 0,-0.03876 0.03876,-0.186035 0.221692,-0.186035 0.04341,0 0.117822,0.03566 0.02791,0.0155 0.06046,0.06356 0.03411,0.04651 0.03411,0.07906 0,0.01705 0.0217,0.08992 0.02325,0.07286 0.05891,0.124024 0.257349,0.386023 0.713135,0.272851 0.127124,-0.03256 0.248047,-0.145727 0.122473,-0.113172 0.15968,-0.240296 0.0015,-0.0062 0.01395,-0.04806 0.01395,-0.04186 0.01395,-0.04341 z"
         style="font-style:normal;font-variant:normal;font-weight:normal;font-stretch:normal;font-size:3.175px;font-family:'MS 33558';-inkscape-font-specification:'MS 33558, Normal';font-variant-ligatures:normal;font-variant-caps:normal;font-variant-numeric:normal;font-variant-east-asian:normal;stroke-width:0.264583;stroke-linejoin:miter"
         id="path1751" />
      <path
         d="m 89.845244,71.177553 q -0.0047,-0.0047 -0.01705,-0.02481 -0.01085,-0.0217 -0.0124,-0.02791 -0.02791,-0.09612 0.0217,-0.182935 0.02015,-0.03566 0.05736,-0.06356 0.06821,-0.05116 0.15968,-0.03411 0.09147,0.0155 0.139527,0.08527 0.229443,0.306958 0.606164,0.251147 0.378272,-0.05736 0.489893,-0.432531 0.05426,-0.181385 -0.0093,-0.379822 -0.06201,-0.199988 -0.227893,-0.303858 -0.179834,-0.113171 -0.351917,-0.113171 -0.179833,0 -0.331762,0.09612 -0.04186,0.02791 -0.07906,0.05736 -0.04961,0.03876 -0.09922,0.04651 -0.09922,0.01705 -0.175183,-0.04651 -0.07596,-0.06511 -0.07596,-0.165881 v -1.282093 q 0,-0.01705 0.0047,-0.03876 0.0046,-0.02325 0.0062,-0.02945 0.04806,-0.145728 0.203088,-0.145728 h 1.010791 v 0 q 0.08837,0 0.153479,0.06511 0.09922,0.100769 0.04186,0.232544 -0.05581,0.131775 -0.195337,0.131775 h -0.79685 V 69.5761 q 0,0 0.02325,-0.0078 0.406177,-0.125574 0.785998,0.07131 0.379822,0.195337 0.514698,0.599964 0.0248,0.07906 0.04496,0.192236 0.03876,0.240295 -0.04961,0.480591 -0.08682,0.238745 -0.255799,0.406176 -0.254248,0.254249 -0.621667,0.291456 -0.367419,0.03721 -0.669727,-0.153479 -0.07131,-0.04341 -0.164331,-0.124024 -0.09302,-0.08062 -0.130224,-0.155029 z"
         style="font-style:normal;font-variant:normal;font-weight:normal;font-stretch:normal;font-size:3.175px;font-family:'MS 33558';-inkscape-font-specification:'MS 33558, Normal';font-variant-ligatures:normal;font-variant-caps:normal;font-variant-numeric:normal;font-variant-east-asian:normal;stroke-width:0.264583;stroke-linejoin:miter"
         id="path1753" />
    </g>
    <g
       aria-label="40"
       id="text1683"
       style="font-style:normal;font-variant:normal;font-weight:normal;font-stretch:normal;font-size:3.175px;line-height:1.25;font-family:'MS 33558';-inkscape-font-specification:'MS 33558, Normal';font-variant-ligatures:normal;font-variant-caps:normal;font-variant-numeric:normal;font-variant-east-asian:normal;stroke-width:0.264583;stroke-linejoin:miter">
      <path
         d="m 84.446535,79.713994 q -0.111621,0 -0.176734,-0.08992 -0.06356,-0.08992 -0.03101,-0.196887 l 0.696082,-2.16731 q 0,-0.0015 0,-0.0047 0.0015,-0.0031 0.0031,-0.0062 0.03876,-0.09922 0.134875,-0.130225 0.09612,-0.031 0.189136,0.02326 0.144177,0.08992 0.08992,0.252698 l -0.604614,1.880505 h 0.758093 v -0.643372 q 0,-0.139526 0.125574,-0.198437 0.125573,-0.05891 0.232543,0.02635 0.08062,0.06511 0.08062,0.172082 v 0.643372 h 0.401526 q 0.10697,0 0.16123,0.06976 0.05426,0.06821 0.05426,0.150379 0,0.08217 -0.05426,0.150378 -0.05426,0.06821 -0.16123,0.06821 h -0.401526 q 0,0.02015 0,0.184485 0,0.164331 0,0.165881 0,0.134876 -0.114722,0.192236 -0.111621,0.05271 -0.218591,-0.0062 -0.10542,-0.05891 -0.10387,-0.186035 0,-0.01085 -0.0015,-0.170532 0,-0.15968 0,-0.179834 z"
         style="font-style:normal;font-variant:normal;font-weight:normal;font-stretch:normal;font-size:3.175px;font-family:'MS 33558';-inkscape-font-specification:'MS 33558, Normal';font-variant-ligatures:normal;font-variant-caps:normal;font-variant-numeric:normal;font-variant-east-asian:normal;stroke-width:0.264583;stroke-linejoin:miter"
         id="path1746" />
      <path
         d="m 87.891286,77.107951 q 0.347265,0 0.567407,0.288355 0.220142,0.288354 0.305408,0.586011 0.03566,0.130224 0.06201,0.272851 0.07906,0.42323 0,0.927075 -0.07751,0.503846 -0.37052,0.835608 -0.235644,0.2651 -0.545703,0.2651 -0.47594,0 -0.716235,-0.496093 -0.238745,-0.496094 -0.241846,-1.091407 -0.0015,-0.595312 0.232544,-1.091406 0.234094,-0.496094 0.706934,-0.496094 z m 0.01085,0.438733 q -0.184485,0.03721 -0.293006,0.21084 -0.10697,0.173633 -0.158129,0.395325 -0.05116,0.221692 -0.05581,0.448035 -0.0047,0.226342 0.01705,0.367419 0.0186,0.133325 0.08837,0.344165 0.06976,0.20929 0.175183,0.361218 0.10697,0.150379 0.243396,0.173633 0.136426,0.0217 0.289905,-0.220142 0.116272,-0.186035 0.173633,-0.472839 0.05736,-0.286804 0.04031,-0.586011 -0.01705,-0.299206 -0.114721,-0.564306 -0.09612,-0.2651 -0.285254,-0.409278 -0.05736,-0.04031 -0.108521,-0.04806 -0.0016,0 -0.0047,0 -0.0016,0 -0.0078,0 z"
         style="font-style:normal;font-variant:normal;font-weight:normal;font-stretch:normal;font-size:3.175px;font-family:'MS 33558';-inkscape-font-specification:'MS 33558, Normal';font-variant-ligatures:normal;font-variant-caps:normal;font-variant-numeric:normal;font-variant-east-asian:normal;stroke-width:0.264583;stroke-linejoin:miter"
         id="path1748" />
    </g>
    <g
       aria-label="FUEL"
       id="text1687"
       style="font-style:normal;font-variant:normal;font-weight:normal;font-stretch:normal;font-size:3.175px;line-height:1.25;font-family:'MS 33558';-inkscape-font-specification:'MS 33558, Normal';font-variant-ligatures:normal;font-variant-caps:normal;font-variant-numeric:normal;font-variant-east-asian:normal;stroke-width:0.264583;stroke-linejoin:miter">
      <path
         d="m 68.345108,60.190236 v -2.734717 q 0.02791,-0.204639 0.220142,-0.220141 h 1.500683 q 0.215491,0.01705 0.215491,0.220141 0,0.201538 -0.218591,0.215491 H 68.78074 v 0.84801 h 0.999939 q 0.213941,0.0155 0.217041,0.20929 0.0031,0.193786 -0.217041,0.226342 H 68.78074 v 1.235584 q -0.0155,0.21394 -0.210839,0.217041 -0.193787,0.0031 -0.224793,-0.217041 z"
         style="font-style:normal;font-variant:normal;font-weight:normal;font-stretch:normal;font-size:3.175px;font-family:'MS 33558';-inkscape-font-specification:'MS 33558, Normal';font-variant-ligatures:normal;font-variant-caps:normal;font-variant-numeric:normal;font-variant-east-asian:normal;stroke-width:0.264583;stroke-linejoin:miter"
         id="path1737" />
      <path
         d="m 72.805301,59.36393 v 0.03101 q -0.0047,0.07751 -0.0062,0.09302 -0.06511,0.47439 -0.389124,0.700733 -0.324011,0.224792 -0.691431,0.210839 -0.367419,-0.0155 -0.672827,-0.2682 -0.303857,-0.252698 -0.330212,-0.736389 v -0.03101 -1.911511 q 0,-0.04651 0.01705,-0.08372 0.07441,-0.162781 0.246497,-0.128675 0.173632,0.03411 0.173632,0.212391 v 1.911511 q 0.02326,0.356567 0.31316,0.533301 0.291455,0.176733 0.612365,-0.0155 0.144178,-0.08527 0.21084,-0.220142 0.06821,-0.134875 0.08062,-0.297656 v -1.911511 q 0,-0.02791 0.0031,-0.04186 0.03566,-0.190686 0.234094,-0.172083 0.198438,0.0186 0.198438,0.213941 z"
         style="font-style:normal;font-variant:normal;font-weight:normal;font-stretch:normal;font-size:3.175px;font-family:'MS 33558';-inkscape-font-specification:'MS 33558, Normal';font-variant-ligatures:normal;font-variant-caps:normal;font-variant-numeric:normal;font-variant-east-asian:normal;stroke-width:0.264583;stroke-linejoin:miter"
         id="path1739" />
      <path
         d="m 74.904397,57.667909 h -1.285192 v 0.848011 h 0.979785 q 0.220141,0.03256 0.218591,0.221691 0,0.187586 -0.218591,0.218592 h -0.979785 v 1.018542 h 1.285192 q 0.218592,0.03256 0.218592,0.218591 0,0.186036 -0.218592,0.217042 h -1.500683 q -0.193787,-0.02481 -0.220142,-0.220142 v -2.737817 q 0.02946,-0.204639 0.220142,-0.217041 h 1.500683 q 0.218592,0.01705 0.217041,0.218591 0,0.199988 -0.217041,0.21394 z"
         style="font-style:normal;font-variant:normal;font-weight:normal;font-stretch:normal;font-size:3.175px;font-family:'MS 33558';-inkscape-font-specification:'MS 33558, Normal';font-variant-ligatures:normal;font-variant-caps:normal;font-variant-numeric:normal;font-variant-east-asian:normal;stroke-width:0.264583;stroke-linejoin:miter"
         id="path1741" />
      <path
         d="m 75.774112,60.411928 q -0.190686,-0.0124 -0.220142,-0.215491 v -2.740918 q 0.03256,-0.223242 0.226343,-0.218591 0.193787,0.0031 0.21084,0.218591 v 2.523877 l 1.43092,-0.0016 q 0.220142,0.0248 0.217041,0.223242 -0.0016,0.196887 -0.218591,0.21084 z"
         style="font-style:normal;font-variant:normal;font-weight:normal;font-stretch:normal;font-size:3.175px;font-family:'MS 33558';-inkscape-font-specification:'MS 33558, Normal';font-variant-ligatures:normal;font-variant-caps:normal;font-variant-numeric:normal;font-variant-east-asian:normal;stroke-width:0.264583;stroke-linejoin:miter"
         id="path1743" />
    </g>
    <g
       aria-label="TOTAL
LBS"
       id="text1691"
       style="font-style:normal;font-variant:normal;font-weight:normal;font-stretch:normal;font-size:2.11667px;line-height:1.25;font-family:'MS 33558';-inkscape-font-specification:'MS 33558, Normal';font-variant-ligatures:normal;font-variant-caps:normal;font-variant-numeric:normal;font-variant-east-asian:normal;text-align:center;text-anchor:middle;stroke-width:0.264583;stroke-linejoin:miter">
      <path
         d="m 69.384842,79.792607 v -1.68052 h -0.379305 q -0.144694,-0.01137 -0.144694,-0.144694 0.001,-0.134359 0.144694,-0.146761 h 1.049033 q 0.142627,0.01137 0.142627,0.146761 0.001,0.134359 -0.142627,0.144694 h -0.378272 v 1.68052 q -0.02377,0.146762 -0.152963,0.144695 -0.128157,-0.0021 -0.138493,-0.144695 z"
         style="font-style:normal;font-variant:normal;font-weight:normal;font-stretch:normal;font-size:2.11667px;font-family:'MS 33558';-inkscape-font-specification:'MS 33558, Normal';font-variant-ligatures:normal;font-variant-caps:normal;font-variant-numeric:normal;font-variant-east-asian:normal;text-align:center;text-anchor:middle;stroke-width:0.264583;stroke-linejoin:miter"
         id="path1720" />
      <path
         d="m 71.880818,78.429381 q 0.09508,0.286288 0.07131,0.59428 -0.02274,0.307992 -0.168465,0.56224 -0.09198,0.15813 -0.251148,0.268718 -0.159163,0.110588 -0.3514,0.07752 -0.31316,-0.05478 -0.479558,-0.326596 -0.166399,-0.271818 -0.191203,-0.604615 -0.02377,-0.33383 0.08992,-0.65009 0.114722,-0.316261 0.364836,-0.459921 0.121957,-0.07028 0.255282,-0.07028 0.254248,0 0.415479,0.192236 0.161231,0.191203 0.244947,0.416513 z M 71.22866,78.114154 q -0.190169,0 -0.288355,0.204639 -0.09715,0.204639 -0.12299,0.349334 -0.01964,0.10542 -0.01447,0.255281 0.0052,0.149862 0.04341,0.296624 0.03824,0.145727 0.114722,0.26355 0.07648,0.116789 0.200505,0.155029 0.144694,0.04548 0.249081,-0.05684 0.10542,-0.103353 0.159163,-0.219108 0.05478,-0.118856 0.07441,-0.312126 0.02067,-0.19327 -0.0093,-0.385507 -0.02894,-0.19327 -0.114722,-0.347266 -0.08578,-0.15503 -0.243913,-0.197404 -0.02067,-0.0062 -0.04754,-0.0062 z"
         style="font-style:normal;font-variant:normal;font-weight:normal;font-stretch:normal;font-size:2.11667px;font-family:'MS 33558';-inkscape-font-specification:'MS 33558, Normal';font-variant-ligatures:normal;font-variant-caps:normal;font-variant-numeric:normal;font-variant-east-asian:normal;text-align:center;text-anchor:middle;stroke-width:0.264583;stroke-linejoin:miter"
         id="path1722" />
      <path
         d="m 72.754151,79.792607 v -1.68052 h -0.379306 q -0.144694,-0.01137 -0.144694,-0.144694 0.001,-0.134359 0.144694,-0.146761 h 1.049033 q 0.142628,0.01137 0.142628,0.146761 0.001,0.134359 -0.142628,0.144694 h -0.378272 v 1.68052 q -0.02377,0.146762 -0.152962,0.144695 -0.128158,-0.0021 -0.138493,-0.144695 z"
         style="font-style:normal;font-variant:normal;font-weight:normal;font-stretch:normal;font-size:2.11667px;font-family:'MS 33558';-inkscape-font-specification:'MS 33558, Normal';font-variant-ligatures:normal;font-variant-caps:normal;font-variant-numeric:normal;font-variant-east-asian:normal;text-align:center;text-anchor:middle;stroke-width:0.264583;stroke-linejoin:miter"
         id="path1724" />
      <path
         d="m 74.994844,79.258272 -0.314193,-0.868165 -0.31626,0.868165 z m -0.314193,-0.868165 0.314193,0.868165 z m -0.797885,1.347723 q 0.165365,-0.455787 0.330729,-0.91054 0.166399,-0.455787 0.332797,-0.911573 0.03411,-0.09405 0.135393,-0.09508 0.101286,-0.001 0.136426,0.09508 l 0.662492,1.827281 q 0.03101,0.145728 -0.08888,0.188102 -0.11989,0.04237 -0.185002,-0.08682 l -0.106454,-0.29559 h -0.842327 l -0.103353,0.288355 q -0.06615,0.130225 -0.188102,0.08578 -0.121957,-0.04547 -0.08372,-0.185002 z"
         style="font-style:normal;font-variant:normal;font-weight:normal;font-stretch:normal;font-size:2.11667px;font-family:'MS 33558';-inkscape-font-specification:'MS 33558, Normal';font-variant-ligatures:normal;font-variant-caps:normal;font-variant-numeric:normal;font-variant-east-asian:normal;text-align:center;text-anchor:middle;stroke-width:0.264583;stroke-linejoin:miter"
         id="path1726" />
      <path
         d="m 75.83097,79.938335 q -0.127124,-0.0083 -0.146761,-0.143661 v -1.827281 q 0.0217,-0.148828 0.150896,-0.145728 0.129191,0.0021 0.14056,0.145728 v 1.682587 l 0.953948,-0.001 q 0.146761,0.01654 0.144694,0.148828 -0.001,0.131258 -0.145727,0.14056 z"
         style="font-style:normal;font-variant:normal;font-weight:normal;font-stretch:normal;font-size:2.11667px;font-family:'MS 33558';-inkscape-font-specification:'MS 33558, Normal';font-variant-ligatures:normal;font-variant-caps:normal;font-variant-numeric:normal;font-variant-east-asian:normal;text-align:center;text-anchor:middle;stroke-width:0.264583;stroke-linejoin:miter"
         id="path1728" />
      <path
         d="m 70.786826,82.584173 q -0.127124,-0.0083 -0.146761,-0.143661 V 80.61323 q 0.0217,-0.148828 0.150895,-0.145727 0.129191,0.0021 0.14056,0.145727 v 1.682588 l 0.953949,-0.001 q 0.146761,0.01654 0.144694,0.148828 -0.001,0.131259 -0.145728,0.140561 z"
         style="font-style:normal;font-variant:normal;font-weight:normal;font-stretch:normal;font-size:2.11667px;font-family:'MS 33558';-inkscape-font-specification:'MS 33558, Normal';font-variant-ligatures:normal;font-variant-caps:normal;font-variant-numeric:normal;font-variant-east-asian:normal;text-align:center;text-anchor:middle;stroke-width:0.264583;stroke-linejoin:miter"
         id="path1730" />
      <path
         d="m 73.113303,80.466469 q 0.19637,0.01654 0.329696,0.118856 0.134359,0.10232 0.186035,0.247014 0.05168,0.143661 0.01344,0.306958 -0.03721,0.162265 -0.181901,0.298691 0.159163,0.167431 0.198438,0.361735 0.03927,0.194304 -0.02481,0.363803 -0.06305,0.168465 -0.220142,0.286288 -0.157097,0.117822 -0.389641,0.133325 h -0.0031 -0.549838 q -0.127124,-0.01757 -0.146761,-0.143661 V 80.61323 q 0.01757,-0.128157 0.146761,-0.146761 z m -0.09199,1.824181 q 0.175701,-0.0072 0.267685,-0.113688 0.09198,-0.106454 0.09509,-0.235645 0.0041,-0.130225 -0.08268,-0.243913 -0.08682,-0.113689 -0.267684,-0.13746 h -0.416513 v 0.730706 z m 0.09199,-1.530658 h -0.496095 v 0.50953 h 0.499195 q 0.128158,-0.01344 0.19017,-0.09198 0.06305,-0.07958 0.06098,-0.169499 -0.001,-0.09095 -0.06511,-0.165365 -0.06408,-0.07545 -0.189136,-0.08268 z"
         style="font-style:normal;font-variant:normal;font-weight:normal;font-stretch:normal;font-size:2.11667px;font-family:'MS 33558';-inkscape-font-specification:'MS 33558, Normal';font-variant-ligatures:normal;font-variant-caps:normal;font-variant-numeric:normal;font-variant-east-asian:normal;text-align:center;text-anchor:middle;stroke-width:0.264583;stroke-linejoin:miter"
         id="path1732" />
      <path
         d="m 74.983992,81.456591 0.01654,0.0072 0.0186,0.0093 0.01654,0.0093 q 0.0072,0.0052 0.0155,0.01034 0.0093,0.0041 0.01757,0.0093 0.204639,0.134359 0.253215,0.372071 0.0186,0.09302 0.0083,0.191203 -0.01654,0.14056 -0.09922,0.26045 -0.08165,0.118856 -0.205672,0.183968 -0.133326,0.07028 -0.275953,0.07028 -0.239779,0 -0.457854,-0.06098 -0.218075,-0.06201 -0.311093,-0.329696 -0.0124,-0.03411 -0.0186,-0.07028 -0.0062,-0.03617 -0.01447,-0.07235 -0.0155,-0.07441 0.03617,-0.131259 0.05271,-0.05684 0.130225,-0.04341 0.08165,0.01654 0.113688,0.101286 l 0.0031,0.0093 q 0.04961,0.224276 0.172599,0.267684 0.124024,0.04341 0.344166,0.03927 0.202572,0 0.27802,-0.190169 0.03307,-0.08475 0.01033,-0.1757 -0.02274,-0.09198 -0.08992,-0.152963 -0.02997,-0.02584 -0.07855,-0.04858 l -0.478524,-0.209806 -0.0155,-0.0083 Q 74.138565,81.38011 74.08172,81.1517 q -0.06925,-0.264584 0.09612,-0.474391 0.166398,-0.21084 0.436149,-0.21084 l 0.113689,0.0031 q 0.05581,0.01033 0.107487,0.02067 0.05168,0.0093 0.104387,0.03307 0.130224,0.06098 0.199471,0.167432 0.06925,0.106454 0.125057,0.230477 0.0052,0.01137 0.0093,0.02687 0.01137,0.05064 -0.01034,0.09198 -0.0124,0.02584 -0.02584,0.03928 -0.01344,0.01344 -0.0217,0.0186 -0.05374,0.03824 -0.117822,0.02274 -0.06408,-0.01447 -0.09819,-0.08268 -0.02687,-0.05994 -0.05788,-0.121956 -0.02997,-0.06305 -0.08475,-0.104387 -0.02274,-0.01654 -0.04444,-0.02377 -0.02067,-0.0083 -0.04651,-0.01757 l -0.06718,-0.01137 -0.09509,-0.0031 q -0.138493,0.0021 -0.211874,0.119889 -0.04961,0.07545 -0.03721,0.168466 0.01447,0.114721 0.107488,0.177767 0.0041,0.0031 0.0093,0.0072 0.0052,0.0031 0.01137,0.0062 l 0.01137,0.0052 0.0124,0.0052 z"
         style="font-style:normal;font-variant:normal;font-weight:normal;font-stretch:normal;font-size:2.11667px;font-family:'MS 33558';-inkscape-font-specification:'MS 33558, Normal';font-variant-ligatures:normal;font-variant-caps:normal;font-variant-numeric:normal;font-variant-east-asian:normal;text-align:center;text-anchor:middle;stroke-width:0.264583;stroke-linejoin:miter"
         id="path1734" />
    </g>
    <g
       aria-label="SEL LBS x 100"
       id="text1697"
       style="font-style:normal;font-variant:normal;font-weight:normal;font-stretch:normal;font-size:2.11667px;line-height:1.25;font-family:'MS 33558';-inkscape-font-specification:'MS 33558, Normal';font-variant-ligatures:normal;font-variant-caps:normal;font-variant-numeric:normal;font-variant-east-asian:normal;stroke-width:0.264583;stroke-linejoin:miter">
      <path
         d="m 65.343076,62.188798 0.01654,0.0072 0.0186,0.0093 0.01654,0.0093 q 0.0072,0.0052 0.0155,0.01033 0.0093,0.0041 0.01757,0.0093 0.204639,0.134359 0.253215,0.372071 0.0186,0.09302 0.0083,0.191203 -0.01654,0.14056 -0.09922,0.26045 -0.08165,0.118856 -0.205673,0.183968 -0.133325,0.07028 -0.275952,0.07028 -0.239779,0 -0.457854,-0.06098 -0.218075,-0.06201 -0.311093,-0.329696 -0.0124,-0.03411 -0.0186,-0.07028 -0.0062,-0.03617 -0.01447,-0.07235 -0.0155,-0.07442 0.03617,-0.131259 0.05271,-0.05684 0.130225,-0.04341 0.08165,0.01654 0.113688,0.101286 l 0.0031,0.0093 q 0.04961,0.224276 0.172599,0.267684 0.124024,0.04341 0.344166,0.03927 0.202572,0 0.278019,-0.190169 0.03307,-0.08475 0.01034,-0.175701 -0.02274,-0.09198 -0.08992,-0.152962 -0.02997,-0.02584 -0.07855,-0.04858 l -0.478524,-0.209807 -0.0155,-0.0083 q -0.234612,-0.124023 -0.291456,-0.352434 -0.06925,-0.264583 0.09612,-0.47439 0.166398,-0.21084 0.436149,-0.21084 l 0.113689,0.0031 q 0.05581,0.01034 0.107487,0.02067 0.05168,0.0093 0.104386,0.03307 0.130225,0.06098 0.199472,0.167432 0.06925,0.106454 0.125057,0.230477 0.0052,0.01137 0.0093,0.02687 0.01137,0.05064 -0.01034,0.09198 -0.0124,0.02584 -0.02584,0.03927 -0.01344,0.01344 -0.0217,0.0186 -0.05374,0.03824 -0.117823,0.02274 -0.06408,-0.01447 -0.09819,-0.08268 -0.02687,-0.05994 -0.05788,-0.121956 -0.02997,-0.06305 -0.08475,-0.104387 -0.02274,-0.01654 -0.04444,-0.02377 -0.02067,-0.0083 -0.04651,-0.01757 l -0.06718,-0.01137 -0.09508,-0.0031 q -0.138493,0.0021 -0.211874,0.11989 -0.04961,0.07545 -0.03721,0.168465 0.01447,0.114722 0.107487,0.177767 0.0041,0.0031 0.0093,0.0072 0.0052,0.0031 0.01137,0.0062 l 0.01137,0.0052 0.0124,0.0052 z"
         style="font-style:normal;font-variant:normal;font-weight:normal;font-stretch:normal;font-size:2.11667px;font-family:'MS 33558';-inkscape-font-specification:'MS 33558, Normal';font-variant-ligatures:normal;font-variant-caps:normal;font-variant-numeric:normal;font-variant-east-asian:normal;stroke-width:0.264583;stroke-linejoin:miter"
         id="path1699" />
      <path
         d="m 67.095943,61.487031 h -0.856796 v 0.565341 h 0.653191 q 0.146761,0.0217 0.145728,0.147795 0,0.125057 -0.145728,0.145727 h -0.653191 v 0.67903 h 0.856796 q 0.145728,0.0217 0.145728,0.145728 0,0.124023 -0.145728,0.144694 h -1.000457 q -0.129191,-0.01654 -0.146761,-0.146762 V 61.34337 q 0.01964,-0.136426 0.146761,-0.144694 h 1.000457 q 0.145728,0.01137 0.144695,0.145728 0,0.133325 -0.144695,0.142627 z"
         style="font-style:normal;font-variant:normal;font-weight:normal;font-stretch:normal;font-size:2.11667px;font-family:'MS 33558';-inkscape-font-specification:'MS 33558, Normal';font-variant-ligatures:normal;font-variant-caps:normal;font-variant-numeric:normal;font-variant-east-asian:normal;stroke-width:0.264583;stroke-linejoin:miter"
         id="path1701" />
      <path
         d="m 67.675754,63.316379 q -0.127124,-0.0083 -0.146761,-0.14366 v -1.827282 q 0.0217,-0.148828 0.150895,-0.145728 0.129191,0.0021 0.14056,0.145728 v 1.682587 l 0.953949,-0.001 q 0.146761,0.01654 0.144694,0.148828 -0.001,0.131259 -0.145728,0.14056 z"
         style="font-style:normal;font-variant:normal;font-weight:normal;font-stretch:normal;font-size:2.11667px;font-family:'MS 33558';-inkscape-font-specification:'MS 33558, Normal';font-variant-ligatures:normal;font-variant-caps:normal;font-variant-numeric:normal;font-variant-east-asian:normal;stroke-width:0.264583;stroke-linejoin:miter"
         id="path1703" />
      <path
         d="m 70.477078,63.316379 q -0.127124,-0.0083 -0.146761,-0.14366 v -1.827282 q 0.0217,-0.148828 0.150895,-0.145728 0.129191,0.0021 0.14056,0.145728 v 1.682587 l 0.953948,-0.001 q 0.146762,0.01654 0.144695,0.148828 -0.001,0.131259 -0.145728,0.14056 z"
         style="font-style:normal;font-variant:normal;font-weight:normal;font-stretch:normal;font-size:2.11667px;font-family:'MS 33558';-inkscape-font-specification:'MS 33558, Normal';font-variant-ligatures:normal;font-variant-caps:normal;font-variant-numeric:normal;font-variant-east-asian:normal;stroke-width:0.264583;stroke-linejoin:miter"
         id="path1705" />
      <path
         d="m 72.803554,61.198676 q 0.196371,0.01654 0.329696,0.118856 0.134359,0.102319 0.186036,0.247014 0.05168,0.14366 0.01344,0.306958 -0.03721,0.162264 -0.181902,0.29869 0.159164,0.167432 0.198438,0.361736 0.03927,0.194304 -0.0248,0.363802 -0.06305,0.168466 -0.220142,0.286288 -0.157097,0.117823 -0.389641,0.133326 h -0.0031 -0.549838 q -0.127124,-0.01757 -0.146761,-0.143661 v -1.826248 q 0.01757,-0.128158 0.146761,-0.146761 z m -0.09198,1.824181 q 0.1757,-0.0072 0.267684,-0.113689 0.09199,-0.106453 0.09508,-0.235645 0.0041,-0.130224 -0.08268,-0.243913 -0.08682,-0.113688 -0.267684,-0.137459 H 72.30746 v 0.730706 z m 0.09198,-1.530659 H 72.30746 v 0.509531 h 0.499195 q 0.128158,-0.01344 0.190169,-0.09198 0.06305,-0.07958 0.06098,-0.169499 -0.001,-0.09095 -0.06511,-0.165365 -0.06408,-0.07545 -0.189136,-0.08268 z"
         style="font-style:normal;font-variant:normal;font-weight:normal;font-stretch:normal;font-size:2.11667px;font-family:'MS 33558';-inkscape-font-specification:'MS 33558, Normal';font-variant-ligatures:normal;font-variant-caps:normal;font-variant-numeric:normal;font-variant-east-asian:normal;stroke-width:0.264583;stroke-linejoin:miter"
         id="path1707" />
      <path
         d="m 74.674244,62.188798 0.01654,0.0072 0.0186,0.0093 0.01654,0.0093 q 0.0072,0.0052 0.0155,0.01033 0.0093,0.0041 0.01757,0.0093 0.204639,0.134359 0.253215,0.372071 0.0186,0.09302 0.0083,0.191203 -0.01654,0.14056 -0.09922,0.26045 -0.08165,0.118856 -0.205672,0.183968 -0.133326,0.07028 -0.275953,0.07028 -0.239779,0 -0.457854,-0.06098 -0.218075,-0.06201 -0.311093,-0.329696 -0.0124,-0.03411 -0.0186,-0.07028 -0.0062,-0.03617 -0.01447,-0.07235 -0.0155,-0.07442 0.03617,-0.131259 0.05271,-0.05684 0.130225,-0.04341 0.08165,0.01654 0.113688,0.101286 l 0.0031,0.0093 q 0.04961,0.224276 0.172599,0.267684 0.124024,0.04341 0.344166,0.03927 0.202572,0 0.27802,-0.190169 0.03307,-0.08475 0.01033,-0.175701 -0.02274,-0.09198 -0.08992,-0.152962 -0.02997,-0.02584 -0.07855,-0.04858 l -0.478524,-0.209807 -0.0155,-0.0083 q -0.234611,-0.124023 -0.291456,-0.352434 -0.06925,-0.264583 0.09612,-0.47439 0.166398,-0.21084 0.436149,-0.21084 l 0.113689,0.0031 q 0.05581,0.01034 0.107487,0.02067 0.05168,0.0093 0.104387,0.03307 0.130224,0.06098 0.199471,0.167432 0.06925,0.106454 0.125057,0.230477 0.0052,0.01137 0.0093,0.02687 0.01137,0.05064 -0.01034,0.09198 -0.0124,0.02584 -0.02584,0.03927 -0.01344,0.01344 -0.0217,0.0186 -0.05374,0.03824 -0.117822,0.02274 -0.06408,-0.01447 -0.09819,-0.08268 -0.02687,-0.05994 -0.05788,-0.121956 -0.02997,-0.06305 -0.08475,-0.104387 -0.02274,-0.01654 -0.04444,-0.02377 -0.02067,-0.0083 -0.04651,-0.01757 l -0.06718,-0.01137 -0.09509,-0.0031 q -0.138493,0.0021 -0.211874,0.11989 -0.04961,0.07545 -0.03721,0.168465 0.01447,0.114722 0.107488,0.177767 0.0041,0.0031 0.0093,0.0072 0.0052,0.0031 0.01137,0.0062 l 0.01137,0.0052 0.0124,0.0052 z"
         style="font-style:normal;font-variant:normal;font-weight:normal;font-stretch:normal;font-size:2.11667px;font-family:'MS 33558';-inkscape-font-specification:'MS 33558, Normal';font-variant-ligatures:normal;font-variant-caps:normal;font-variant-numeric:normal;font-variant-east-asian:normal;stroke-width:0.264583;stroke-linejoin:miter"
         id="path1709" />
      <path
         d="m 76.412066,63.098304 0.559139,-1.000457 -0.381372,-0.683163 q -0.05478,-0.135393 0.05684,-0.197405 0.111621,-0.06304 0.198438,0.05581 l 0.291455,0.526067 0.293523,-0.526067 q 0.08682,-0.118856 0.197404,-0.05684 0.110588,0.06201 0.05788,0.199471 l -0.380339,0.68213 0.558106,1.000457 q 0.05581,0.136426 -0.05788,0.199472 -0.113688,0.06201 -0.195337,-0.05891 l -0.473357,-0.843361 -0.468189,0.843361 q -0.08992,0.117822 -0.201538,0.05684 -0.110588,-0.06098 -0.05478,-0.197405 z"
         style="font-style:normal;font-variant:normal;font-weight:normal;font-stretch:normal;font-size:2.11667px;font-family:'MS 33558';-inkscape-font-specification:'MS 33558, Normal';font-variant-ligatures:normal;font-variant-caps:normal;font-variant-numeric:normal;font-variant-east-asian:normal;stroke-width:0.264583;stroke-linejoin:miter"
         id="path1711" />
      <path
         d="m 78.518282,63.168584 q 0,0.01344 -0.0031,0.02894 -0.02481,0.116789 -0.144694,0.116789 -0.08785,0 -0.130225,-0.08165 -0.0093,-0.0155 -0.0155,-0.06408 v -1.823147 q 0.0031,-0.0248 0.0072,-0.04651 0.0052,-0.02274 0.02274,-0.04341 0.04134,-0.05064 0.106454,-0.05478 0.06511,-0.0052 0.112655,0.04134 0.02481,0.02481 0.03204,0.04754 0.0072,0.02274 0.0124,0.05581 z"
         style="font-style:normal;font-variant:normal;font-weight:normal;font-stretch:normal;font-size:2.11667px;font-family:'MS 33558';-inkscape-font-specification:'MS 33558, Normal';font-variant-ligatures:normal;font-variant-caps:normal;font-variant-numeric:normal;font-variant-east-asian:normal;stroke-width:0.264583;stroke-linejoin:miter"
         id="path1713" />
      <path
         d="m 79.477397,61.198676 q 0.231511,0 0.378272,0.192236 0.146762,0.192237 0.203606,0.390675 0.02377,0.08682 0.04134,0.181901 0.05271,0.282154 0,0.618051 -0.05168,0.335898 -0.247014,0.557073 -0.157096,0.176734 -0.363802,0.176734 -0.317294,0 -0.477491,-0.33073 -0.159164,-0.33073 -0.161231,-0.727605 -0.001,-0.396876 0.15503,-0.727605 0.156063,-0.33073 0.471289,-0.33073 z m 0.0072,0.292489 q -0.12299,0.02481 -0.195337,0.14056 -0.07131,0.115755 -0.10542,0.26355 -0.03411,0.147795 -0.03721,0.29869 -0.0031,0.150896 0.01137,0.244947 0.0124,0.08888 0.05891,0.229444 0.04651,0.139526 0.116789,0.240812 0.07131,0.100253 0.162264,0.115756 0.09095,0.01447 0.19327,-0.146762 0.07751,-0.124023 0.115755,-0.315226 0.03824,-0.191203 0.02687,-0.390675 -0.01137,-0.199471 -0.07648,-0.376205 -0.06408,-0.176733 -0.19017,-0.272852 -0.03824,-0.02687 -0.07235,-0.03204 -0.001,0 -0.0031,0 -0.001,0 -0.0052,0 z"
         style="font-style:normal;font-variant:normal;font-weight:normal;font-stretch:normal;font-size:2.11667px;font-family:'MS 33558';-inkscape-font-specification:'MS 33558, Normal';font-variant-ligatures:normal;font-variant-caps:normal;font-variant-numeric:normal;font-variant-east-asian:normal;stroke-width:0.264583;stroke-linejoin:miter"
         id="path1715" />
      <path
         d="m 81.031827,61.198676 q 0.231511,0 0.378272,0.192236 0.146762,0.192237 0.203606,0.390675 0.02377,0.08682 0.04134,0.181901 0.05271,0.282154 0,0.618051 -0.05168,0.335898 -0.247014,0.557073 -0.157096,0.176734 -0.363802,0.176734 -0.317294,0 -0.477491,-0.33073 -0.159164,-0.33073 -0.161231,-0.727605 -0.001,-0.396876 0.15503,-0.727605 0.156063,-0.33073 0.471289,-0.33073 z m 0.0072,0.292489 q -0.12299,0.02481 -0.195337,0.14056 -0.07131,0.115755 -0.10542,0.26355 -0.03411,0.147795 -0.03721,0.29869 -0.0031,0.150896 0.01137,0.244947 0.0124,0.08888 0.05891,0.229444 0.04651,0.139526 0.116789,0.240812 0.07131,0.100253 0.162264,0.115756 0.09095,0.01447 0.19327,-0.146762 0.07752,-0.124023 0.115755,-0.315226 0.03824,-0.191203 0.02687,-0.390675 -0.01137,-0.199471 -0.07648,-0.376205 -0.06408,-0.176733 -0.19017,-0.272852 -0.03824,-0.02687 -0.07235,-0.03204 -0.001,0 -0.0031,0 -0.001,0 -0.0052,0 z"
         style="font-style:normal;font-variant:normal;font-weight:normal;font-stretch:normal;font-size:2.11667px;font-family:'MS 33558';-inkscape-font-specification:'MS 33558, Normal';font-variant-ligatures:normal;font-variant-caps:normal;font-variant-numeric:normal;font-variant-east-asian:normal;stroke-width:0.264583;stroke-linejoin:miter"
         id="path1717" />
    </g>
  </g>
</svg>
