<?xml version="1.0" encoding="UTF-8" standalone="no"?>
<svg
   xmlns:dc="http://purl.org/dc/elements/1.1/"
   xmlns:cc="http://creativecommons.org/ns#"
   xmlns:rdf="http://www.w3.org/1999/02/22-rdf-syntax-ns#"
   xmlns:svg="http://www.w3.org/2000/svg"
   xmlns="http://www.w3.org/2000/svg"
   xmlns:sodipodi="http://sodipodi.sourceforge.net/DTD/sodipodi-0.dtd"
   xmlns:inkscape="http://www.inkscape.org/namespaces/inkscape"
   width="210mm"
   height="297mm"
   viewBox="0 0 210 297"
   version="1.1"
   id="svg8"
   sodipodi:docname="indicator_outlines.svg"
   inkscape:version="1.0.2-2 (e86c870879, 2021-01-15)">
  <defs
     id="defs2">
    <marker
       id="DistanceX"
       orient="auto"
       refX="0.0"
       refY="0.0"
       style="overflow:visible">
      <path
         d="M 3,-3 L -3,3 M 0,-5 L  0,5"
         style="stroke:#000000; stroke-width:0.5"
         id="path833" />
    </marker>
    <pattern
       id="Hatch"
       patternUnits="userSpaceOnUse"
       width="8"
       height="8"
       x="0"
       y="0">
      <path
         d="M8 4 l-4,4"
         stroke="#000000"
         stroke-width="0.25"
         linecap="square"
         id="path836" />
      <path
         d="M6 2 l-4,4"
         stroke="#000000"
         stroke-width="0.25"
         linecap="square"
         id="path838" />
      <path
         d="M4 0 l-4,4"
         stroke="#000000"
         stroke-width="0.25"
         linecap="square"
         id="path840" />
    </pattern>
    <symbol
       id="*Model_Space" />
    <symbol
       id="*Paper_Space" />
  </defs>
  <sodipodi:namedview
     id="base"
     pagecolor="#ffffff"
     bordercolor="#666666"
     borderopacity="1.0"
     inkscape:pageopacity="0.0"
     inkscape:pageshadow="2"
     inkscape:zoom="1.979899"
     inkscape:cx="290.81386"
     inkscape:cy="357.46004"
     inkscape:document-units="mm"
     inkscape:current-layer="layer1"
     inkscape:document-rotation="0"
     showgrid="false"
     inkscape:window-width="1918"
     inkscape:window-height="2083"
     inkscape:window-x="-8"
     inkscape:window-y="38"
     inkscape:window-maximized="0" />
  <metadata
     id="metadata5">
    <rdf:RDF>
      <cc:Work
         rdf:about="">
        <dc:format>image/svg+xml</dc:format>
        <dc:type
           rdf:resource="http://purl.org/dc/dcmitype/StillImage" />
      </cc:Work>
    </rdf:RDF>
  </metadata>
  <g
     inkscape:label="Lag 1"
     inkscape:groupmode="layer"
     id="layer1">
    <g
       inkscape:label="0"
       id="g875"
       transform="matrix(0.26458333,0,0,0.26458333,18.697316,-227.09872)"
       style="stroke:#ff0000">
      <path
         d="m 3.779528,1122.5197 h 68.031496 a 3.779528,3.779528 0 0 0 3.779527,-3.7795 v -68.0315 a 3.779528,3.779528 0 0 0 -3.779527,-3.7796 H 3.779528 A 3.779528,3.779528 0 0 0 0,1050.7087 v 68.0315 a 3.779528,3.779528 0 0 0 3.779528,3.7795 z"
         style="fill:none;stroke:#ff0000;stroke-linecap:round"
         id="path847" />
      <path
         d="m 3.779528,1009.1339 h 68.031496 a 3.779528,3.779528 0 0 0 3.779527,-3.7796 v -68.03146 a 3.779528,3.779528 0 0 0 -3.779527,-3.77953 H 3.779528 A 3.779528,3.779528 0 0 0 0,937.32284 v 68.03146 a 3.779528,3.779528 0 0 0 3.779528,3.7796 z"
         style="fill:none;stroke:#ff0000;stroke-linecap:round"
         id="path849" />
      <path
         d="m 117.16535,1118.7402 h 60.47244 a 3.779528,3.779528 0 0 0 3.77953,-3.7796 v -60.4724 a 3.779528,3.779528 0 0 0 -3.77953,-3.7795 h -60.47244 a 3.779528,3.779528 0 0 0 -3.77952,3.7795 v 60.4724 a 3.779528,3.779528 0 0 0 3.77952,3.7796 z"
         style="fill:none;stroke:#ff0000;stroke-linecap:round"
         id="path851" />
      <path
         d="m 117.16535,1005.3543 h 60.47244 a 3.779528,3.779528 0 0 0 3.77953,-3.7795 v -60.47244 a 3.779528,3.779528 0 0 0 -3.77953,-3.77952 h -60.47244 a 3.779528,3.779528 0 0 0 -3.77952,3.77952 v 60.47244 a 3.779528,3.779528 0 0 0 3.77952,3.7795 z"
         style="fill:none;stroke:#ff0000;stroke-linecap:round"
         id="path853" />
      <path
         d="m 230.55118,1118.7402 h 60.47244 a 3.779528,3.779528 0 0 0 3.77953,-3.7796 v -60.4724 a 3.779528,3.779528 0 0 0 -3.77953,-3.7795 h -60.47244 a 3.779528,3.779528 0 0 0 -3.77953,3.7795 v 60.4724 a 3.779528,3.779528 0 0 0 3.77953,3.7796 z"
         style="fill:none;stroke:#ff0000;stroke-linecap:round"
         id="path855" />
      <path
         d="m 230.55118,1005.3543 h 60.47244 a 3.779528,3.779528 0 0 0 3.77953,-3.7795 v -60.47244 a 3.779528,3.779528 0 0 0 -3.77953,-3.77952 h -60.47244 a 3.779528,3.779528 0 0 0 -3.77953,3.77952 v 60.47244 a 3.779528,3.779528 0 0 0 3.77953,3.7795 z"
         style="fill:none;stroke:#ff0000;stroke-linecap:round"
         id="path857" />
      <path
         d="m 343.93701,1118.7402 h 60.47244 a 3.779528,3.779528 0 0 0 3.77953,-3.7796 v -60.4724 a 3.779528,3.779528 0 0 0 -3.77953,-3.7795 h -60.47244 a 3.779528,3.779528 0 0 0 -3.77953,3.7795 v 60.4724 a 3.779528,3.779528 0 0 0 3.77953,3.7796 z"
         style="fill:none;stroke:#ff0000;stroke-linecap:round"
         id="path859" />
      <path
         d="m 343.93701,1005.3543 h 60.47244 a 3.779528,3.779528 0 0 0 3.77953,-3.7795 v -60.47244 a 3.779528,3.779528 0 0 0 -3.77953,-3.77952 h -60.47244 a 3.779528,3.779528 0 0 0 -3.77953,3.77952 v 60.47244 a 3.779528,3.779528 0 0 0 3.77953,3.7795 z"
         style="fill:none;stroke:#ff0000;stroke-linecap:round"
         id="path861" />
      <path
         d="m 90.708661,971.33858 h 3.779528"
         style="fill:none;stroke:#ff0000;stroke-linecap:round"
         id="path863" />
      <path
         d="m 90.708661,1084.7244 h 3.779528"
         style="fill:none;stroke:#ff0000;stroke-linecap:round"
         id="path865" />
      <path
         d="m 200.31496,971.33858 h 3.77953"
         style="fill:none;stroke:#ff0000;stroke-linecap:round"
         id="path867" />
      <path
         d="m 200.31496,1084.7244 h 3.77953"
         style="fill:none;stroke:#ff0000;stroke-linecap:round"
         id="path869" />
      <path
         d="m 313.70079,971.33858 h 3.77953"
         style="fill:none;stroke:#ff0000;stroke-linecap:round"
         id="path871" />
      <path
         d="m 313.70079,1084.7244 h 3.77953"
         style="fill:none;stroke:#ff0000;stroke-linecap:round"
         id="path873" />
    </g>
    <g
       aria-label="FAIL"
       id="text916"
       style="font-style:normal;font-variant:normal;font-weight:normal;font-stretch:normal;font-size:2.46944px;line-height:1.25;font-family:'MS 33558';-inkscape-font-specification:'MS 33558, Normal';font-variant-ligatures:normal;font-variant-caps:normal;font-variant-numeric:normal;font-variant-east-asian:normal;stroke-width:0.264583">
      <path
         d="m 114.55045,61.033502 v -2.126998 q 0.0217,-0.159163 0.17122,-0.171221 h 1.1672 q 0.1676,0.01326 0.1676,0.171221 0,0.156752 -0.17001,0.167604 h -0.99718 v 0.659562 h 0.77773 q 0.16639,0.01206 0.16881,0.162781 0.002,0.150722 -0.16881,0.176044 h -0.77773 v 0.961007 q -0.0121,0.166398 -0.16399,0.16881 -0.15072,0.0024 -0.17484,-0.16881 z"
         style="font-style:normal;font-variant:normal;font-weight:normal;font-stretch:normal;font-size:2.46944px;font-family:'MS 33558';-inkscape-font-specification:'MS 33558, Normal';font-variant-ligatures:normal;font-variant-caps:normal;font-variant-numeric:normal;font-variant-east-asian:normal;stroke-width:0.264583"
         id="path1299" />
      <path
         d="m 117.69995,60.412525 -0.36655,-1.012856 -0.36897,1.012856 z m -0.36655,-1.012856 0.36655,1.012856 z m -0.93087,1.572339 q 0.19293,-0.53175 0.38585,-1.062294 0.19413,-0.531749 0.38826,-1.063499 0.0398,-0.109726 0.15796,-0.110932 0.11817,-0.0012 0.15917,0.110932 l 0.7729,2.131821 q 0.0362,0.170016 -0.1037,0.219453 -0.13987,0.04944 -0.21583,-0.101286 l -0.1242,-0.344853 h -0.98271 l -0.12058,0.336413 q -0.0772,0.151928 -0.21945,0.100079 -0.14228,-0.05305 -0.0977,-0.215834 z"
         style="font-style:normal;font-variant:normal;font-weight:normal;font-stretch:normal;font-size:2.46944px;font-family:'MS 33558';-inkscape-font-specification:'MS 33558, Normal';font-variant-ligatures:normal;font-variant-caps:normal;font-variant-numeric:normal;font-variant-east-asian:normal;stroke-width:0.264583"
         id="path1301" />
      <path
         d="m 118.84665,61.038326 q -0.0265,0.170015 -0.17242,0.168809 -0.1447,0 -0.17002,-0.168809 v -2.131822 q 0.0253,-0.170015 0.17002,-0.170015 0.14589,-0.0012 0.17242,0.170015 z"
         style="font-style:normal;font-variant:normal;font-weight:normal;font-stretch:normal;font-size:2.46944px;font-family:'MS 33558';-inkscape-font-specification:'MS 33558, Normal';font-variant-ligatures:normal;font-variant-caps:normal;font-variant-numeric:normal;font-variant-east-asian:normal;stroke-width:0.264583"
         id="path1303" />
      <path
         d="m 119.36031,61.205929 q -0.14831,-0.0096 -0.17122,-0.167603 v -2.131822 q 0.0253,-0.173632 0.17605,-0.170015 0.15072,0.0024 0.16398,0.170015 v 1.963012 l 1.11294,-0.0012 q 0.17122,0.01929 0.16881,0.173633 -0.001,0.153134 -0.17002,0.163986 z"
         style="font-style:normal;font-variant:normal;font-weight:normal;font-stretch:normal;font-size:2.46944px;font-family:'MS 33558';-inkscape-font-specification:'MS 33558, Normal';font-variant-ligatures:normal;font-variant-caps:normal;font-variant-numeric:normal;font-variant-east-asian:normal;stroke-width:0.264583"
         id="path1305" />
    </g>
    <g
       aria-label="RUN"
       id="text920"
       style="font-style:normal;font-variant:normal;font-weight:normal;font-stretch:normal;font-size:2.82222px;line-height:1.25;font-family:'MS 33558';-inkscape-font-specification:'MS 33558, Normal';font-variant-ligatures:normal;font-variant-caps:normal;font-variant-numeric:normal;font-variant-east-asian:normal;stroke-width:0.264583">
      <path
         d="m 27.27502,56.763016 q 0.08819,0.155718 -0.04961,0.261827 -0.06615,0.04685 -0.152962,0.0317 -0.08544,-0.01516 -0.125402,-0.08544 l -0.679372,-1.073491 h -0.344509 v 0.970139 q 0,0.119889 -0.108865,0.173632 -0.108865,0.05237 -0.20395,-0.02067 -0.07579,-0.0565 -0.07579,-0.152962 v -2.434992 q 0,-0.07993 0.05512,-0.136426 0.0565,-0.0565 0.137803,-0.0565 h 0.855762 q 0.30868,0 0.536056,0.197059 0.227376,0.195681 0.282498,0.497472 0.05788,0.323838 -0.137804,0.606336 -0.194303,0.281119 -0.516764,0.341753 l -0.02618,0.0041 z M 26.583246,55.51038 q 0.140559,0 0.259071,-0.08544 0.119889,-0.08544 0.16123,-0.223242 0.06477,-0.212218 -0.05926,-0.383095 -0.124023,-0.172254 -0.341753,-0.190169 h -0.679372 v 0.881944 z"
         style="font-style:normal;font-variant:normal;font-weight:normal;font-stretch:normal;font-size:2.82222px;font-family:'MS 33558';-inkscape-font-specification:'MS 33558, Normal';font-variant-ligatures:normal;font-variant-caps:normal;font-variant-numeric:normal;font-variant-east-asian:normal;stroke-width:0.264583"
         id="path1292" />
      <path
         d="m 29.638354,56.131875 v 0.02756 q -0.0041,0.0689 -0.0055,0.08268 -0.05788,0.421679 -0.345888,0.622873 -0.288009,0.199815 -0.614604,0.187413 -0.326595,-0.01378 -0.598068,-0.238401 -0.270096,-0.22462 -0.293522,-0.654567 v -0.02756 -1.69912 q 0,-0.04134 0.01516,-0.07441 0.06615,-0.144694 0.219108,-0.114377 0.15434,0.03032 0.15434,0.188791 v 1.69912 q 0.02067,0.316948 0.278364,0.474045 0.259071,0.157096 0.544324,-0.01378 0.128158,-0.07579 0.187414,-0.195681 0.06063,-0.119889 0.07166,-0.264583 v -1.69912 q 0,-0.02481 0.0028,-0.03721 0.03169,-0.169499 0.208083,-0.152962 0.176389,0.01654 0.176389,0.190169 z"
         style="font-style:normal;font-variant:normal;font-weight:normal;font-stretch:normal;font-size:2.82222px;font-family:'MS 33558';-inkscape-font-specification:'MS 33558, Normal';font-variant-ligatures:normal;font-variant-caps:normal;font-variant-numeric:normal;font-variant-east-asian:normal;stroke-width:0.264583"
         id="path1294" />
      <path
         d="m 31.877664,56.871881 q 0,0.144694 -0.140559,0.184657 -0.139182,0.03858 -0.216352,-0.08268 l -1.157551,-1.856216 v 1.754242 q -0.03032,0.192925 -0.195682,0.192925 -0.163986,0 -0.192925,-0.192925 v -2.433614 q 0.02067,-0.143316 0.146072,-0.188791 0.126779,-0.04548 0.21084,0.08544 l 1.157551,1.858972 v -1.755619 q 0.02618,-0.197059 0.199815,-0.194303 0.175011,0.0014 0.188791,0.194303 z"
         style="font-style:normal;font-variant:normal;font-weight:normal;font-stretch:normal;font-size:2.82222px;font-family:'MS 33558';-inkscape-font-specification:'MS 33558, Normal';font-variant-ligatures:normal;font-variant-caps:normal;font-variant-numeric:normal;font-variant-east-asian:normal;stroke-width:0.264583"
         id="path1296" />
    </g>
    <g
       aria-label="FAIL"
       id="text924"
       style="font-style:normal;font-variant:normal;font-weight:normal;font-stretch:normal;font-size:2.82222px;line-height:1.25;font-family:'MS 33558';-inkscape-font-specification:'MS 33558, Normal';font-variant-ligatures:normal;font-variant-caps:normal;font-variant-numeric:normal;font-variant-east-asian:normal;stroke-width:0.264583">
      <path
         d="m 25.128708,65.418996 v -2.430857 q 0.02481,-0.181901 0.195681,-0.195682 h 1.33394 q 0.191547,0.01516 0.191547,0.195682 0,0.179144 -0.194303,0.191547 h -1.139637 v 0.753786 h 0.888834 q 0.190169,0.01378 0.192925,0.186035 0.0028,0.172255 -0.192925,0.201194 h -0.888834 v 1.098295 q -0.01378,0.190169 -0.187413,0.192925 -0.172254,0.0028 -0.199815,-0.192925 z"
         style="font-style:normal;font-variant:normal;font-weight:normal;font-stretch:normal;font-size:2.82222px;font-family:'MS 33558';-inkscape-font-specification:'MS 33558, Normal';font-variant-ligatures:normal;font-variant-caps:normal;font-variant-numeric:normal;font-variant-east-asian:normal;stroke-width:0.264583"
         id="path1283" />
      <path
         d="m 28.728141,64.709307 -0.418923,-1.157551 -0.42168,1.157551 z m -0.418923,-1.157551 0.418923,1.157551 z m -1.063845,1.79696 q 0.220486,-0.607714 0.440972,-1.21405 0.221864,-0.607715 0.443728,-1.215429 0.04547,-0.125402 0.180523,-0.12678 0.135047,-0.0014 0.1819,0.12678 l 0.883322,2.436369 q 0.04134,0.194304 -0.118511,0.250803 -0.159852,0.0565 -0.246669,-0.115755 L 28.868701,65.096535 H 27.7456 l -0.137803,0.384473 q -0.0882,0.173633 -0.250803,0.114377 -0.162609,-0.06063 -0.111621,-0.246669 z"
         style="font-style:normal;font-variant:normal;font-weight:normal;font-stretch:normal;font-size:2.82222px;font-family:'MS 33558';-inkscape-font-specification:'MS 33558, Normal';font-variant-ligatures:normal;font-variant-caps:normal;font-variant-numeric:normal;font-variant-east-asian:normal;stroke-width:0.264583"
         id="path1285" />
      <path
         d="m 30.038654,65.424508 q -0.03032,0.194304 -0.197059,0.192926 -0.165365,0 -0.194303,-0.192926 v -2.436369 q 0.02894,-0.194304 0.194303,-0.194304 0.166742,-0.0014 0.197059,0.194304 z"
         style="font-style:normal;font-variant:normal;font-weight:normal;font-stretch:normal;font-size:2.82222px;font-family:'MS 33558';-inkscape-font-specification:'MS 33558, Normal';font-variant-ligatures:normal;font-variant-caps:normal;font-variant-numeric:normal;font-variant-east-asian:normal;stroke-width:0.264583"
         id="path1287" />
      <path
         d="m 30.625698,65.616055 q -0.169499,-0.01102 -0.195681,-0.191547 v -2.436369 q 0.02894,-0.198438 0.201193,-0.194304 0.172255,0.0028 0.187413,0.194304 v 2.243444 l 1.271928,-0.0014 q 0.195682,0.02205 0.192925,0.198437 -0.0014,0.175011 -0.194303,0.187413 z"
         style="font-style:normal;font-variant:normal;font-weight:normal;font-stretch:normal;font-size:2.82222px;font-family:'MS 33558';-inkscape-font-specification:'MS 33558, Normal';font-variant-ligatures:normal;font-variant-caps:normal;font-variant-numeric:normal;font-variant-east-asian:normal;stroke-width:0.264583"
         id="path1289" />
    </g>
    <g
       aria-label="FLCS PMG"
       id="text928"
       style="font-size:2.46944px;line-height:1.25;font-family:'MS 33558';-inkscape-font-specification:'MS 33558, Normal';stroke-width:0.264583">
      <path
         d="m 80.982399,27.157011 v -2.126998 q 0.0217,-0.159163 0.171221,-0.171221 h 1.167196 q 0.167604,0.01326 0.167604,0.171221 0,0.156751 -0.170015,0.167603 h -0.997181 v 0.659563 h 0.777728 q 0.166398,0.01206 0.16881,0.16278 0.0024,0.150723 -0.16881,0.176044 h -0.777728 v 0.961008 q -0.01206,0.166398 -0.163987,0.168809 -0.150722,0.0024 -0.174838,-0.168809 z"
         style="stroke-width:0.264583"
         id="path1268" />
      <path
         d="m 82.997259,27.329438 q -0.148311,-0.0096 -0.171221,-0.167604 v -2.131821 q 0.02532,-0.173633 0.176045,-0.170015 0.150722,0.0024 0.163986,0.170015 v 1.963012 l 1.112936,-0.0012 q 0.171221,0.01929 0.168809,0.173632 -0.0012,0.153135 -0.170015,0.163987 z"
         style="stroke-width:0.264583"
         id="path1270" />
      <path
         d="m 86.344508,26.942382 -0.01085,0.01568 q -0.0036,0.0048 -0.006,0.0084 -0.0024,0.0036 -0.0048,0.0072 -0.165192,0.22307 -0.434081,0.318326 -0.267684,0.09405 -0.528132,-0.03497 -0.302651,-0.150723 -0.444934,-0.511252 -0.141076,-0.360528 -0.121783,-0.74879 0.0205,-0.389467 0.204982,-0.715028 0.185691,-0.325561 0.537779,-0.407554 0.202571,-0.04702 0.403936,0.03979 0.201366,0.08561 0.330385,0.241156 0.0012,0 0.006,0.0084 0.05547,0.07235 0.02291,0.159164 -0.03256,0.08561 -0.119372,0.107314 -0.09284,0.02412 -0.171221,-0.05547 -0.161575,-0.188102 -0.311092,-0.180867 -0.149516,0.0072 -0.267683,0.12299 -0.118167,0.115755 -0.196542,0.296622 -0.07838,0.180867 -0.09646,0.338824 -0.0217,0.176044 0.0036,0.3545 0.02653,0.17725 0.109726,0.334002 0.144693,0.274918 0.364146,0.344853 0.220658,0.06873 0.430463,-0.211012 0.0096,-0.01206 0.02291,-0.03135 0.113344,-0.125401 0.238745,-0.02532 0.126607,0.09887 0.03738,0.224275 z"
         style="stroke-width:0.264583"
         id="path1272" />
      <path
         d="m 87.893937,26.01393 0.01929,0.0084 0.0217,0.01085 0.01929,0.01085 q 0.0084,0.006 0.01809,0.01206 0.01085,0.0048 0.0205,0.01085 0.238745,0.156751 0.295416,0.434081 0.0217,0.10852 0.0096,0.223069 -0.01929,0.163987 -0.115755,0.303857 -0.09526,0.138665 -0.239951,0.214629 -0.155546,0.08199 -0.321943,0.08199 -0.279742,0 -0.534161,-0.07114 -0.25442,-0.07235 -0.362941,-0.384644 -0.01447,-0.03979 -0.0217,-0.08199 -0.0072,-0.0422 -0.01688,-0.08441 -0.01809,-0.08682 0.0422,-0.153134 0.06149,-0.06632 0.151928,-0.05064 0.09526,0.01929 0.132636,0.118167 l 0.0036,0.01085 q 0.05788,0.261654 0.201366,0.312297 0.144694,0.05064 0.401525,0.04582 0.236333,0 0.324355,-0.221864 0.03859,-0.09887 0.01206,-0.204983 -0.02653,-0.107314 -0.104903,-0.178455 -0.03497,-0.03015 -0.09164,-0.05667 l -0.558277,-0.244774 -0.01809,-0.0096 q -0.273712,-0.144694 -0.34003,-0.411171 -0.08079,-0.30868 0.112138,-0.553454 0.19413,-0.245979 0.508839,-0.245979 l 0.132636,0.0036 q 0.06511,0.01206 0.125402,0.02412 0.06029,0.01085 0.121783,0.03859 0.151929,0.07114 0.232716,0.195336 0.08079,0.124196 0.1459,0.26889 0.006,0.01326 0.01085,0.03135 0.01326,0.05908 -0.01206,0.107314 -0.01447,0.03015 -0.03015,0.04582 -0.01568,0.01567 -0.02532,0.0217 -0.0627,0.04461 -0.137459,0.02653 -0.07476,-0.01688 -0.114549,-0.09646 -0.03135,-0.06994 -0.06752,-0.142282 -0.03497,-0.07355 -0.09887,-0.121784 -0.02653,-0.01929 -0.05185,-0.02773 -0.02411,-0.0096 -0.05426,-0.0205 l -0.07838,-0.01326 -0.110931,-0.0036 q -0.161575,0.0024 -0.247186,0.13987 -0.05788,0.08802 -0.04341,0.196543 0.01688,0.133841 0.125401,0.207394 0.0048,0.0036 0.01085,0.0084 0.006,0.0036 0.01326,0.0072 l 0.01326,0.006 0.01447,0.006 z"
         style="stroke-width:0.264583"
         id="path1274" />
      <path
         d="m 89.997211,24.858792 h 0.02291 q 0.15434,0.01085 0.284564,0.06993 0.249597,0.116961 0.353294,0.384644 0.103697,0.267684 -0.0024,0.522104 -0.08561,0.201365 -0.253214,0.315914 -0.167604,0.113344 -0.382233,0.126607 l -0.02291,0.0012 h -0.58601 v 0.879015 q -0.0217,0.170015 -0.17122,0.170015 -0.149517,0 -0.170016,-0.170015 v -2.130616 q 0.01809,-0.149517 0.159163,-0.168809 h 0.01085 z m 0,0.34003 h -0.58601 v 0.739144 h 0.58601 q 0.137459,0 0.242362,-0.09164 0.106109,-0.09164 0.124196,-0.229099 0.0217,-0.166398 -0.08923,-0.291799 -0.110932,-0.126607 -0.27733,-0.126607 z"
         style="stroke-width:0.264583"
         id="path1276" />
      <path
         d="m 92.848883,27.159422 q -0.02653,0.16881 -0.171221,0.16881 -0.143488,-0.0012 -0.168809,-0.16881 v -1.50602 l -0.413583,0.707793 q -0.06632,0.07958 -0.148311,0.0832 -0.08079,0.0036 -0.144694,-0.0832 l -0.411171,-0.704176 0.0012,1.502403 q -0.01929,0.167604 -0.174839,0.167604 -0.15434,-0.0012 -0.166397,-0.167604 v -2.129409 q 0.0096,-0.138665 0.121783,-0.165192 0.112138,-0.02773 0.195337,0.07596 l 0.579981,0.997181 0.586009,-0.997181 q 0.0832,-0.103697 0.192925,-0.07596 0.110932,0.02773 0.121784,0.165192 z"
         style="stroke-width:0.264583"
         id="path1278" />
      <path
         d="m 93.963025,26.333462 -0.01085,-0.0012 q -0.147106,-0.01809 -0.147106,-0.167604 0,-0.149517 0.147106,-0.167604 l 0.01085,-0.0024 h 0.01085 0.444933 q 0.06994,0 0.119372,0.05064 0.05064,0.04944 0.05064,0.119372 v 0.611331 l -0.01447,0.03135 -0.0084,0.01929 -0.0084,0.01809 -0.0096,0.01809 -0.0096,0.01809 -0.0084,0.01809 -0.0096,0.01809 -0.01085,0.01809 q -0.233922,0.397908 -0.581187,0.389467 -0.347265,-0.0096 -0.583598,-0.393084 -0.112138,-0.182073 -0.166398,-0.455786 -0.05426,-0.274918 -0.03256,-0.560688 0.0217,-0.286976 0.132636,-0.545013 0.112138,-0.259243 0.334001,-0.411171 0.27733,-0.188102 0.54019,-0.04341 0.262861,0.143488 0.393085,0.403936 l 0.0096,0.01929 0.0072,0.01688 0.0096,0.01809 q 0.041,0.11455 -0.03135,0.186897 -0.06994,0.06873 -0.151928,0.05185 -0.08199,-0.01809 -0.126608,-0.09767 -0.141076,-0.349677 -0.364145,-0.305063 -0.221864,0.04461 -0.332796,0.364146 -0.10852,0.30868 -0.08561,0.664386 0.02291,0.354499 0.23151,0.618565 0.143488,0.184485 0.2918,0.118167 0.148311,-0.06632 0.233921,-0.247185 l 0.01326,-0.02653 v -0.367764 z"
         style="stroke-width:0.264583"
         id="path1280" />
    </g>
    <g
       aria-label="MAIN GEN"
       id="text932"
       style="font-size:2.46944px;line-height:1.25;font-family:'MS 33558';-inkscape-font-specification:'MS 33558, Normal';stroke-width:0.264583">
      <path
         d="m 83.225753,34.913428 q -0.02653,0.168809 -0.171221,0.168809 -0.143488,-0.0012 -0.16881,-0.168809 v -1.506021 l -0.413583,0.707794 q -0.06632,0.07958 -0.148311,0.0832 -0.08079,0.0036 -0.144694,-0.0832 l -0.411171,-0.704177 0.0012,1.502404 q -0.01929,0.167603 -0.174838,0.167603 -0.15434,-0.0012 -0.166398,-0.167603 v -2.12941 q 0.0096,-0.138665 0.121784,-0.165192 0.112137,-0.02773 0.195336,0.07596 l 0.579981,0.997181 0.58601,-0.997181 q 0.0832,-0.103697 0.192925,-0.07596 0.110932,0.02773 0.121784,0.165192 z"
         style="stroke-width:0.264583"
         id="path1253" />
      <path
         d="m 84.821001,34.290039 -0.366557,-1.012856 -0.368969,1.012856 z m -0.366557,-1.012856 0.366557,1.012856 z m -0.930863,1.572338 q 0.192925,-0.531749 0.38585,-1.062293 0.19413,-0.531749 0.388261,-1.063499 0.03979,-0.109726 0.157957,-0.110932 0.118167,-0.0012 0.159164,0.110932 l 0.772905,2.131821 q 0.03617,0.170016 -0.103697,0.219453 -0.13987,0.04944 -0.215835,-0.101286 l -0.124195,-0.344854 h -0.982712 l -0.120578,0.336413 q -0.07717,0.151929 -0.219452,0.10008 -0.142282,-0.05305 -0.09767,-0.215835 z"
         style="stroke-width:0.264583"
         id="path1255" />
      <path
         d="m 85.967699,34.915839 q -0.02653,0.170016 -0.172426,0.16881 -0.144694,0 -0.170016,-0.16881 v -2.131821 q 0.02532,-0.170015 0.170016,-0.170015 0.145899,-0.0012 0.172426,0.170015 z"
         style="stroke-width:0.264583"
         id="path1257" />
      <path
         d="m 87.975325,34.915839 q 0,0.126607 -0.12299,0.161575 -0.121784,0.03376 -0.189307,-0.07235 L 86.650171,33.38088 v 1.534959 q -0.02653,0.16881 -0.171221,0.16881 -0.143488,0 -0.168809,-0.16881 V 32.78643 q 0.01809,-0.125401 0.127813,-0.165192 0.110932,-0.03979 0.184484,0.07476 l 1.012857,1.626599 V 32.78643 q 0.02291,-0.172427 0.174838,-0.170015 0.153134,0.0012 0.165192,0.170015 z"
         style="stroke-width:0.264583"
         id="path1259" />
      <path
         d="m 89.615578,34.087468 -0.01085,-0.0012 q -0.147105,-0.01809 -0.147105,-0.167604 0,-0.149517 0.147105,-0.167603 l 0.01085,-0.0024 h 0.01085 0.444934 q 0.06994,0 0.119372,0.05064 0.05064,0.04944 0.05064,0.119372 v 0.611331 l -0.01447,0.03135 -0.0084,0.01929 -0.0084,0.01809 -0.0096,0.01809 -0.0096,0.01809 -0.0084,0.01809 -0.0096,0.01809 -0.01085,0.01809 q -0.233921,0.397907 -0.581186,0.389467 -0.347265,-0.0096 -0.583598,-0.393085 -0.112138,-0.182073 -0.166398,-0.455785 -0.05426,-0.274918 -0.03256,-0.560688 0.0217,-0.286976 0.132636,-0.545013 0.112137,-0.259243 0.334001,-0.411172 0.27733,-0.188102 0.54019,-0.04341 0.26286,0.143488 0.393085,0.403937 l 0.0096,0.01929 0.0072,0.01688 0.0096,0.01809 q 0.041,0.114549 -0.03135,0.186896 -0.06994,0.06873 -0.151929,0.05185 -0.08199,-0.01809 -0.126607,-0.09767 -0.141076,-0.349676 -0.364146,-0.305062 -0.221864,0.04461 -0.332796,0.364146 -0.10852,0.30868 -0.08561,0.664385 0.02291,0.3545 0.23151,0.618566 0.143488,0.184484 0.291799,0.118166 0.148311,-0.06632 0.233922,-0.247185 l 0.01326,-0.02653 v -0.367763 z"
         style="stroke-width:0.264583"
         id="path1261" />
      <path
         d="m 91.97288,32.94921 h -0.999592 v 0.659563 h 0.762054 q 0.171221,0.02532 0.170015,0.172426 0,0.1459 -0.170015,0.170015 h -0.762054 v 0.792199 h 0.999592 q 0.170016,0.02532 0.170016,0.170015 0,0.144694 -0.170016,0.168809 h -1.167196 q -0.150722,-0.01929 -0.171221,-0.171221 v -2.129409 q 0.02291,-0.159163 0.171221,-0.16881 h 1.167196 q 0.170016,0.01326 0.16881,0.170015 0,0.155546 -0.16881,0.166398 z"
         style="stroke-width:0.264583"
         id="path1263" />
      <path
         d="m 94.143287,34.915839 q 0,0.126607 -0.12299,0.161575 -0.121784,0.03376 -0.189308,-0.07235 L 92.818133,33.38088 v 1.534959 q -0.02653,0.16881 -0.171221,0.16881 -0.143488,0 -0.168809,-0.16881 V 32.78643 q 0.01809,-0.125401 0.127812,-0.165192 0.110932,-0.03979 0.184485,0.07476 l 1.012856,1.626599 V 32.78643 q 0.02291,-0.172427 0.174839,-0.170015 0.153134,0.0012 0.165192,0.170015 z"
         style="stroke-width:0.264583"
         id="path1265" />
    </g>
    <g
       aria-label="STBY GEN"
       id="text936"
       style="font-size:2.46944px;line-height:1.25;font-family:'MS 33558';-inkscape-font-specification:'MS 33558, Normal';stroke-width:0.264583">
      <path
         d="m 82.195087,55.616805 0.01929,0.0084 0.0217,0.01085 0.01929,0.01085 q 0.0084,0.006 0.01809,0.01206 0.01085,0.0048 0.0205,0.01085 0.238745,0.156752 0.295416,0.434082 0.0217,0.10852 0.0096,0.223069 -0.01929,0.163986 -0.115755,0.303857 -0.09526,0.138665 -0.239951,0.214629 -0.155546,0.08199 -0.321943,0.08199 -0.279742,0 -0.534162,-0.07114 -0.254419,-0.07235 -0.36294,-0.384644 -0.01447,-0.03979 -0.0217,-0.08199 -0.0072,-0.0422 -0.01688,-0.0844 -0.01809,-0.08682 0.0422,-0.153134 0.06149,-0.06632 0.151928,-0.05064 0.09526,0.01929 0.132636,0.118167 l 0.0036,0.01085 q 0.05788,0.261654 0.201366,0.312297 0.144694,0.05064 0.401525,0.04582 0.236333,0 0.324355,-0.221864 0.03858,-0.09887 0.01206,-0.204983 -0.02653,-0.107314 -0.104903,-0.178455 -0.03497,-0.03014 -0.09164,-0.05667 l -0.558277,-0.244774 -0.01809,-0.0096 q -0.273712,-0.144694 -0.34003,-0.411171 -0.08079,-0.30868 0.112137,-0.553454 0.194131,-0.245979 0.50884,-0.245979 l 0.132636,0.0036 q 0.06511,0.01206 0.125401,0.02412 0.06029,0.01085 0.121784,0.03858 0.151929,0.07114 0.232716,0.195336 0.08079,0.124196 0.1459,0.268889 0.006,0.01326 0.01085,0.03135 0.01326,0.05908 -0.01206,0.107314 -0.01447,0.03014 -0.03014,0.04582 -0.01568,0.01567 -0.02532,0.0217 -0.0627,0.04461 -0.137459,0.02653 -0.07476,-0.01688 -0.114549,-0.09646 -0.03135,-0.06994 -0.06752,-0.142283 -0.03497,-0.07355 -0.09887,-0.121783 -0.02653,-0.01929 -0.05185,-0.02773 -0.02412,-0.0096 -0.05426,-0.0205 l -0.07838,-0.01326 -0.110932,-0.0036 q -0.161574,0.0024 -0.247185,0.139871 -0.05788,0.08802 -0.04341,0.196542 0.01688,0.133842 0.125401,0.207395 0.0048,0.0036 0.01085,0.0084 0.006,0.0036 0.01326,0.0072 l 0.01326,0.006 0.01447,0.006 z"
         style="stroke-width:0.264583"
         id="path1238" />
      <path
         d="m 83.513006,56.762297 v -1.9606 h -0.442522 q -0.168809,-0.01326 -0.168809,-0.168809 0.0012,-0.156752 0.168809,-0.171221 h 1.223868 q 0.166398,0.01326 0.166398,0.171221 0.0012,0.156751 -0.166398,0.168809 h -0.441316 v 1.9606 q -0.02773,0.171221 -0.178456,0.16881 -0.149516,-0.0024 -0.161574,-0.16881 z"
         style="stroke-width:0.264583"
         id="path1240" />
      <path
         d="m 85.741289,54.461667 q 0.229099,0.01929 0.384645,0.138664 0.156751,0.119373 0.21704,0.288182 0.06029,0.167604 0.01568,0.358117 -0.04341,0.189308 -0.212217,0.348471 0.18569,0.195337 0.23151,0.422023 0.04582,0.226687 -0.02894,0.424435 -0.07355,0.196543 -0.256831,0.334002 -0.183279,0.137459 -0.45458,0.155546 h -0.0036 -0.641476 q -0.148311,-0.0205 -0.171221,-0.167604 v -2.130615 q 0.0205,-0.149517 0.171221,-0.171221 z m -0.107314,2.128203 q 0.204983,-0.0084 0.312297,-0.132635 0.107315,-0.124196 0.110932,-0.274919 0.0048,-0.151928 -0.09646,-0.284564 -0.101286,-0.132636 -0.312298,-0.160369 h -0.48593 v 0.852487 z m 0.107314,-1.785762 h -0.578775 v 0.594451 h 0.582393 q 0.149517,-0.01568 0.221864,-0.107315 0.07355,-0.09284 0.07114,-0.197748 -0.0012,-0.106109 -0.07597,-0.192925 -0.07476,-0.08802 -0.220658,-0.09646 z"
         style="stroke-width:0.264583"
         id="path1242" />
      <path
         d="m 88.155264,54.549689 q 0.09405,-0.141077 0.226687,-0.06752 0.133841,0.07355 0.06873,0.230304 l -0.693324,1.238337 v 0.806668 q -0.01085,0.171221 -0.16881,0.171221 -0.156751,0 -0.167603,-0.171221 v -0.806668 l -0.692119,-1.238337 q -0.06391,-0.155546 0.06511,-0.227893 0.129018,-0.07355 0.230304,0.06511 l 0.565511,1.010444 z"
         style="stroke-width:0.264583"
         id="path1244" />
      <path
         d="m 90.061995,55.936337 -0.01085,-0.0012 q -0.147105,-0.01809 -0.147105,-0.167603 0,-0.149517 0.147105,-0.167604 l 0.01085,-0.0024 h 0.01085 0.444933 q 0.06994,0 0.119373,0.05064 0.05064,0.04944 0.05064,0.119373 v 0.611331 l -0.01447,0.03135 -0.0084,0.01929 -0.0084,0.01809 -0.0096,0.01809 -0.0096,0.01809 -0.0084,0.01809 -0.0096,0.01809 -0.01085,0.01809 q -0.233921,0.397908 -0.581186,0.389467 -0.347265,-0.0096 -0.583599,-0.393084 -0.112137,-0.182073 -0.166397,-0.455786 -0.05426,-0.274918 -0.03256,-0.560688 0.02171,-0.286976 0.132636,-0.545013 0.112138,-0.259243 0.334002,-0.411172 0.27733,-0.188101 0.54019,-0.04341 0.26286,0.143488 0.393085,0.403937 l 0.0096,0.01929 0.0072,0.01688 0.0096,0.01809 q 0.041,0.114549 -0.03135,0.186896 -0.06993,0.06873 -0.151928,0.05185 -0.08199,-0.01809 -0.126607,-0.09767 -0.141076,-0.349677 -0.364146,-0.305063 -0.221864,0.04461 -0.332796,0.364146 -0.10852,0.30868 -0.08561,0.664385 0.02291,0.3545 0.23151,0.618566 0.143488,0.184485 0.291799,0.118167 0.148311,-0.06632 0.233922,-0.247185 l 0.01326,-0.02653 v -0.367763 z"
         style="stroke-width:0.264583"
         id="path1246" />
      <path
         d="m 92.419297,54.79808 h -0.999592 v 0.659562 h 0.762053 q 0.171221,0.02532 0.170016,0.172427 0,0.145899 -0.170016,0.170015 h -0.762053 v 0.792198 h 0.999592 q 0.170015,0.02532 0.170015,0.170015 0,0.144694 -0.170015,0.16881 h -1.167196 q -0.150723,-0.01929 -0.171221,-0.171221 v -2.12941 q 0.02291,-0.159163 0.171221,-0.168809 h 1.167196 q 0.170015,0.01326 0.16881,0.170015 0,0.155546 -0.16881,0.166398 z"
         style="stroke-width:0.264583"
         id="path1248" />
      <path
         d="m 94.589703,56.764709 q 0,0.126607 -0.122989,0.161574 -0.121784,0.03376 -0.189308,-0.07235 L 93.26455,55.229749 v 1.53496 q -0.02653,0.168809 -0.171221,0.168809 -0.143488,0 -0.168809,-0.168809 v -2.12941 q 0.01809,-0.125401 0.127812,-0.165192 0.110932,-0.03979 0.184485,0.07476 l 1.012856,1.626599 v -1.536165 q 0.02291,-0.172427 0.174838,-0.170015 0.153135,0.0012 0.165192,0.170015 z"
         style="stroke-width:0.264583"
         id="path1250" />
    </g>
    <g
       aria-label="-"
       transform="scale(2.8788298,0.34736336)"
       id="text944"
       style="font-size:19.3303px;line-height:1.25;font-family:'MS 33558';-inkscape-font-specification:'MS 33558, Normal';stroke-width:2.07111">
      <path
         d="m 32.730454,183.68958 h -4.473907 v -1.32141 h 4.473907 z"
         style="stroke-width:2.07111"
         id="path1235" />
    </g>
    <g
       aria-label="EPU GEN"
       id="text948"
       style="font-size:2.46944px;line-height:1.25;font-family:'MS 33558';-inkscape-font-specification:'MS 33558, Normal';stroke-width:0.264583">
      <path
         d="m 53.226338,25.195281 h -0.999593 v 0.659562 h 0.762054 q 0.171221,0.02532 0.170015,0.172427 0,0.1459 -0.170015,0.170015 h -0.762054 v 0.792199 h 0.999593 q 0.170015,0.02532 0.170015,0.170015 0,0.144693 -0.170015,0.168809 h -1.167197 q -0.150722,-0.01929 -0.171221,-0.171221 v -2.12941 q 0.02291,-0.159163 0.171221,-0.168809 h 1.167197 q 0.170015,0.01326 0.168809,0.170015 0,0.155546 -0.168809,0.166398 z"
         style="stroke-width:0.264583"
         id="path1222" />
      <path
         d="m 54.658806,24.858868 h 0.02291 q 0.15434,0.01085 0.284565,0.06993 0.249597,0.116961 0.353294,0.384645 0.103697,0.267683 -0.0024,0.522103 -0.08561,0.201365 -0.253214,0.315915 -0.167603,0.113343 -0.382233,0.126607 l -0.02291,0.0012 h -0.58601 v 0.879015 q -0.0217,0.170015 -0.171221,0.170015 -0.149517,0 -0.170015,-0.170015 v -2.130616 q 0.01809,-0.149516 0.159163,-0.168809 h 0.01085 z m 0,0.34003 h -0.58601 v 0.739144 h 0.58601 q 0.137459,0 0.242362,-0.09164 0.106108,-0.09164 0.124195,-0.229098 0.0217,-0.166398 -0.08923,-0.2918 -0.110932,-0.126607 -0.277329,-0.126607 z"
         style="stroke-width:0.264583"
         id="path1224" />
      <path
         d="m 57.338052,26.514406 v 0.02411 q -0.0036,0.06029 -0.0048,0.07235 -0.05064,0.368969 -0.302651,0.545013 -0.252008,0.174839 -0.537778,0.163987 -0.28577,-0.01206 -0.523309,-0.208601 -0.236333,-0.196542 -0.256832,-0.572746 v -0.02411 -1.486729 q 0,-0.03617 0.01326,-0.06511 0.05788,-0.126607 0.191719,-0.10008 0.135048,0.02653 0.135048,0.165192 v 1.486729 q 0.01809,0.277329 0.243568,0.414789 0.226686,0.137459 0.476283,-0.01206 0.112138,-0.06632 0.163986,-0.171221 0.05306,-0.104903 0.0627,-0.23151 v -1.486729 q 0,-0.0217 0.0024,-0.03256 0.02773,-0.148311 0.182073,-0.133841 0.15434,0.01447 0.15434,0.166397 z"
         style="stroke-width:0.264583"
         id="path1226" />
      <path
         d="m 58.926457,26.333539 -0.01085,-0.0012 q -0.147106,-0.01809 -0.147106,-0.167604 0,-0.149517 0.147106,-0.167603 l 0.01085,-0.0024 h 0.01085 0.444933 q 0.06994,0 0.119372,0.05064 0.05064,0.04944 0.05064,0.119372 v 0.611331 l -0.01447,0.03135 -0.0084,0.01929 -0.0084,0.01809 -0.0096,0.01809 -0.0096,0.01809 -0.0084,0.01809 -0.0096,0.01809 -0.01085,0.01809 q -0.233921,0.397908 -0.581186,0.389468 -0.347265,-0.0096 -0.583598,-0.393085 -0.112138,-0.182073 -0.166398,-0.455785 -0.05426,-0.274918 -0.03256,-0.560689 0.0217,-0.286975 0.132636,-0.545013 0.112137,-0.259243 0.334001,-0.411171 0.27733,-0.188102 0.54019,-0.04341 0.262861,0.143488 0.393085,0.403937 l 0.0096,0.01929 0.0072,0.01688 0.0096,0.01809 q 0.041,0.114549 -0.03135,0.186896 -0.06994,0.06873 -0.151929,0.05185 -0.08199,-0.01809 -0.126607,-0.09767 -0.141076,-0.349676 -0.364146,-0.305063 -0.221863,0.04461 -0.332795,0.364146 -0.108521,0.30868 -0.08561,0.664386 0.02291,0.3545 0.23151,0.618566 0.143488,0.184484 0.291799,0.118166 0.148311,-0.06632 0.233922,-0.247185 l 0.01326,-0.02653 v -0.367763 z"
         style="stroke-width:0.264583"
         id="path1228" />
      <path
         d="m 61.283758,25.195281 h -0.999592 v 0.659562 h 0.762053 q 0.171221,0.02532 0.170016,0.172427 0,0.1459 -0.170016,0.170015 h -0.762053 v 0.792199 h 0.999592 q 0.170015,0.02532 0.170015,0.170015 0,0.144693 -0.170015,0.168809 h -1.167196 q -0.150723,-0.01929 -0.171221,-0.171221 v -2.12941 q 0.02291,-0.159163 0.171221,-0.168809 h 1.167196 q 0.170015,0.01326 0.16881,0.170015 0,0.155546 -0.16881,0.166398 z"
         style="stroke-width:0.264583"
         id="path1230" />
      <path
         d="m 63.454165,27.16191 q 0,0.126607 -0.122989,0.161575 -0.121784,0.03376 -0.189308,-0.07235 l -1.012856,-1.624187 v 1.534959 q -0.02653,0.16881 -0.171221,0.16881 -0.143488,0 -0.16881,-0.16881 v -2.129409 q 0.01809,-0.125402 0.127813,-0.165192 0.110932,-0.03979 0.184485,0.07476 l 1.012856,1.626599 v -1.536165 q 0.02291,-0.172427 0.174838,-0.170016 0.153135,0.0012 0.165192,0.170016 z"
         style="stroke-width:0.264583"
         id="path1232" />
    </g>
    <g
       aria-label="EPU PMG"
       id="text952"
       style="font-size:2.46944px;line-height:1.25;font-family:'MS 33558';-inkscape-font-specification:'MS 33558, Normal';stroke-width:0.264583">
      <path
         d="M 53.143139,32.951697 H 52.143546 V 33.61126 H 52.9056 q 0.171221,0.02532 0.170015,0.172426 0,0.1459 -0.170015,0.170016 H 52.143546 V 34.7459 h 0.999593 q 0.170015,0.02532 0.170015,0.170015 0,0.144694 -0.170015,0.168809 h -1.167196 q -0.150723,-0.01929 -0.171221,-0.171221 v -2.129409 q 0.02291,-0.159163 0.171221,-0.16881 h 1.167196 q 0.170015,0.01326 0.168809,0.170016 0,0.155545 -0.168809,0.166397 z"
         style="stroke-width:0.264583"
         id="path1209" />
      <path
         d="m 54.575607,32.615284 h 0.02291 q 0.15434,0.01085 0.284564,0.06994 0.249597,0.116961 0.353294,0.384644 0.103697,0.267683 -0.0024,0.522103 -0.08561,0.201366 -0.253214,0.315915 -0.167604,0.113343 -0.382233,0.126607 l -0.02291,0.0012 h -0.58601 v 0.879014 q -0.0217,0.170015 -0.171221,0.170015 -0.149516,0 -0.170015,-0.170015 v -2.130615 q 0.01809,-0.149517 0.159163,-0.16881 h 0.01085 z m 0,0.340031 h -0.58601 v 0.739144 h 0.58601 q 0.137459,0 0.242362,-0.09164 0.106109,-0.09164 0.124196,-0.229098 0.0217,-0.166398 -0.08923,-0.291799 -0.110932,-0.126607 -0.27733,-0.126607 z"
         style="stroke-width:0.264583"
         id="path1211" />
      <path
         d="m 57.254853,34.270822 v 0.02412 q -0.0036,0.06029 -0.0048,0.07235 -0.05064,0.368969 -0.302651,0.545013 -0.252009,0.174838 -0.537779,0.163986 -0.28577,-0.01206 -0.523309,-0.2086 -0.236333,-0.196543 -0.256831,-0.572746 v -0.02412 -1.486728 q 0,-0.03617 0.01326,-0.06511 0.05788,-0.126607 0.19172,-0.10008 0.135047,0.02653 0.135047,0.165192 v 1.486728 q 0.01809,0.27733 0.243568,0.414789 0.226687,0.137459 0.476284,-0.01206 0.112137,-0.06632 0.163986,-0.171221 0.05305,-0.104903 0.0627,-0.23151 v -1.486728 q 0,-0.0217 0.0024,-0.03256 0.02773,-0.148311 0.182073,-0.133842 0.15434,0.01447 0.15434,0.166398 z"
         style="stroke-width:0.264583"
         id="path1213" />
      <path
         d="m 58.945749,32.615284 h 0.02291 q 0.15434,0.01085 0.284565,0.06994 0.249596,0.116961 0.353294,0.384644 0.103697,0.267683 -0.0024,0.522103 -0.08561,0.201366 -0.253214,0.315915 -0.167604,0.113343 -0.382233,0.126607 l -0.02291,0.0012 H 58.35974 v 0.879014 q -0.0217,0.170015 -0.171221,0.170015 -0.149517,0 -0.170015,-0.170015 v -2.130615 q 0.01809,-0.149517 0.159163,-0.16881 h 0.01085 z m 0,0.340031 H 58.35974 v 0.739144 h 0.586009 q 0.13746,0 0.242362,-0.09164 0.106109,-0.09164 0.124196,-0.229098 0.0217,-0.166398 -0.08923,-0.291799 -0.110932,-0.126607 -0.27733,-0.126607 z"
         style="stroke-width:0.264583"
         id="path1215" />
      <path
         d="m 61.797422,34.915915 q -0.02653,0.168809 -0.171221,0.168809 -0.143488,-0.0012 -0.168809,-0.168809 v -1.506021 l -0.413583,0.707794 q -0.06632,0.07958 -0.148311,0.0832 -0.08079,0.0036 -0.144694,-0.0832 l -0.411171,-0.704176 0.0012,1.502403 q -0.01929,0.167604 -0.174838,0.167604 -0.15434,-0.0012 -0.166398,-0.167604 v -2.12941 q 0.0096,-0.138664 0.121784,-0.165192 0.112138,-0.02773 0.195337,0.07596 l 0.579981,0.997181 0.586009,-0.997181 q 0.0832,-0.103698 0.192925,-0.07596 0.110932,0.02773 0.121784,0.165192 z"
         style="stroke-width:0.264583"
         id="path1217" />
      <path
         d="m 62.911564,34.089955 -0.01085,-0.0012 q -0.147105,-0.01809 -0.147105,-0.167603 0,-0.149517 0.147105,-0.167604 l 0.01085,-0.0024 h 0.01085 0.444933 q 0.06994,0 0.119372,0.05064 0.05064,0.04944 0.05064,0.119373 v 0.611331 l -0.01447,0.03135 -0.0084,0.01929 -0.0084,0.01809 -0.0096,0.01809 -0.0096,0.01809 -0.0084,0.01809 -0.0096,0.01809 -0.01085,0.01809 q -0.233921,0.397908 -0.581186,0.389467 -0.347265,-0.0096 -0.583598,-0.393085 -0.112138,-0.182073 -0.166398,-0.455785 -0.05426,-0.274918 -0.03256,-0.560688 0.0217,-0.286976 0.132636,-0.545013 0.112137,-0.259243 0.334001,-0.411172 0.27733,-0.188102 0.54019,-0.04341 0.26286,0.143488 0.393085,0.403937 l 0.0096,0.01929 0.0072,0.01688 0.0096,0.01809 q 0.041,0.114549 -0.03135,0.186896 -0.06994,0.06873 -0.151929,0.05185 -0.08199,-0.01809 -0.126607,-0.09767 -0.141076,-0.349676 -0.364146,-0.305062 -0.221863,0.04461 -0.332795,0.364146 -0.108521,0.30868 -0.08561,0.664385 0.02291,0.3545 0.23151,0.618566 0.143488,0.184484 0.291799,0.118167 0.148311,-0.06632 0.233922,-0.247186 l 0.01326,-0.02653 v -0.367763 z"
         style="stroke-width:0.264583"
         id="path1219" />
    </g>
    <g
       aria-label="TO FLCS"
       id="text956"
       style="font-size:2.46944px;line-height:1.25;font-family:'MS 33558';-inkscape-font-specification:'MS 33558, Normal';stroke-width:0.264583">
      <path
         d="m 52.42234,56.759524 v -1.9606 h -0.442522 q -0.16881,-0.01326 -0.16881,-0.16881 0.0012,-0.156751 0.16881,-0.171221 h 1.223868 q 0.166398,0.01326 0.166398,0.171221 0.0012,0.156752 -0.166398,0.16881 H 52.76237 v 1.9606 q -0.02773,0.171221 -0.178456,0.168809 -0.149517,-0.0024 -0.161574,-0.168809 z"
         style="stroke-width:0.264583"
         id="path1196" />
      <path
         d="m 55.334301,55.169098 q 0.110932,0.334002 0.0832,0.693325 -0.02653,0.359322 -0.196542,0.655945 -0.107315,0.184484 -0.293005,0.313503 -0.18569,0.129018 -0.409966,0.09043 -0.365351,-0.06391 -0.559482,-0.381026 -0.194131,-0.317121 -0.22307,-0.705383 -0.02773,-0.389467 0.104903,-0.758436 0.133842,-0.368969 0.425641,-0.536573 0.142282,-0.08199 0.297828,-0.08199 0.296622,0 0.484724,0.224276 0.188102,0.223069 0.28577,0.485929 z m -0.760848,-0.367763 q -0.221864,0 -0.336413,0.238745 -0.113343,0.238745 -0.143488,0.407554 -0.02291,0.12299 -0.01688,0.297828 0.006,0.174838 0.05064,0.346059 0.04461,0.170015 0.133842,0.307474 0.08923,0.136254 0.233921,0.180868 0.16881,0.05305 0.290594,-0.06632 0.122989,-0.120579 0.18569,-0.255626 0.06391,-0.138665 0.08682,-0.364146 0.02412,-0.225481 -0.01085,-0.449756 -0.03376,-0.225482 -0.133841,-0.405143 -0.10008,-0.180867 -0.284565,-0.230304 -0.02412,-0.0072 -0.05547,-0.0072 z"
         style="stroke-width:0.264583"
         id="path1198" />
      <path
         d="m 56.211295,56.757112 v -2.126998 q 0.0217,-0.159163 0.171221,-0.171221 h 1.167196 q 0.167604,0.01326 0.167604,0.171221 0,0.156752 -0.170015,0.167604 H 56.55012 v 0.659562 h 0.777729 q 0.166397,0.01206 0.168809,0.162781 0.0024,0.150722 -0.168809,0.176044 H 56.55012 v 0.961007 q -0.01206,0.166398 -0.163987,0.16881 -0.150722,0.0024 -0.174838,-0.16881 z"
         style="stroke-width:0.264583"
         id="path1200" />
      <path
         d="m 58.226155,56.929539 q -0.148311,-0.0096 -0.17122,-0.167604 v -2.131821 q 0.02532,-0.173632 0.176044,-0.170015 0.150722,0.0024 0.163986,0.170015 v 1.963012 l 1.112936,-0.0012 q 0.171221,0.01929 0.168809,0.173633 -0.0012,0.153134 -0.170015,0.163986 z"
         style="stroke-width:0.264583"
         id="path1202" />
      <path
         d="m 61.573404,56.542483 -0.01085,0.01568 q -0.0036,0.0048 -0.006,0.0084 -0.0024,0.0036 -0.0048,0.0072 -0.165192,0.223069 -0.434081,0.318326 -0.267683,0.09405 -0.528132,-0.03497 -0.302651,-0.150722 -0.444933,-0.511251 -0.141077,-0.360529 -0.121784,-0.74879 0.0205,-0.389468 0.204982,-0.715028 0.185691,-0.325561 0.537779,-0.407555 0.202571,-0.04702 0.403937,0.03979 0.201365,0.08561 0.330384,0.241156 0.0012,0 0.006,0.0084 0.05547,0.07235 0.02291,0.159163 -0.03256,0.08561 -0.119372,0.107315 -0.09285,0.02412 -0.171221,-0.05547 -0.161575,-0.188102 -0.311091,-0.180868 -0.149517,0.0072 -0.267684,0.12299 -0.118166,0.115755 -0.196542,0.296622 -0.07838,0.180868 -0.09646,0.338825 -0.0217,0.176044 0.0036,0.3545 0.02653,0.177249 0.109726,0.334001 0.144693,0.274918 0.364146,0.344853 0.220658,0.06873 0.430464,-0.211011 0.0096,-0.01206 0.02291,-0.03135 0.113344,-0.125401 0.238745,-0.02532 0.126607,0.09887 0.03738,0.224275 z"
         style="stroke-width:0.264583"
         id="path1204" />
      <path
         d="m 63.122834,55.614032 0.01929,0.0084 0.0217,0.01085 0.01929,0.01085 q 0.0084,0.006 0.01809,0.01206 0.01085,0.0048 0.0205,0.01085 0.238744,0.156752 0.295416,0.434081 0.0217,0.108521 0.0096,0.22307 -0.01929,0.163986 -0.115755,0.303857 -0.09526,0.138665 -0.23995,0.214629 -0.155546,0.08199 -0.321944,0.08199 -0.279741,0 -0.534161,-0.07114 -0.25442,-0.07235 -0.36294,-0.384644 -0.01447,-0.03979 -0.0217,-0.08199 -0.0072,-0.0422 -0.01688,-0.08441 -0.01809,-0.08682 0.0422,-0.153134 0.06149,-0.06632 0.151929,-0.05064 0.09526,0.01929 0.132636,0.118166 l 0.0036,0.01085 q 0.05788,0.261655 0.201366,0.312298 0.144693,0.05064 0.401525,0.04582 0.236333,0 0.324355,-0.221863 0.03859,-0.09887 0.01206,-0.204983 -0.02653,-0.107315 -0.104903,-0.178456 -0.03497,-0.03014 -0.09164,-0.05667 l -0.558276,-0.244774 -0.01809,-0.0096 q -0.273712,-0.144694 -0.34003,-0.411172 -0.08079,-0.30868 0.112137,-0.553453 0.194131,-0.24598 0.50884,-0.24598 l 0.132636,0.0036 q 0.06511,0.01206 0.125401,0.02412 0.06029,0.01085 0.121784,0.03858 0.151928,0.07114 0.232716,0.195337 0.08079,0.124195 0.145899,0.268889 0.006,0.01326 0.01085,0.03135 0.01326,0.05908 -0.01206,0.107315 -0.01447,0.03014 -0.03014,0.04582 -0.01568,0.01568 -0.02532,0.0217 -0.0627,0.04461 -0.137459,0.02653 -0.07476,-0.01688 -0.11455,-0.09646 -0.03135,-0.06994 -0.06752,-0.142282 -0.03497,-0.07355 -0.09887,-0.121784 -0.02653,-0.01929 -0.05185,-0.02773 -0.02412,-0.0096 -0.05426,-0.0205 l -0.07838,-0.01326 -0.110932,-0.0036 q -0.161575,0.0024 -0.247185,0.139871 -0.05788,0.08802 -0.04341,0.196542 0.01688,0.133842 0.125401,0.207394 0.0048,0.0036 0.01085,0.0084 0.006,0.0036 0.01326,0.0072 l 0.01326,0.006 0.01447,0.006 z"
         style="stroke-width:0.264583"
         id="path1206" />
    </g>
    <g
       aria-label="FLCS RLY"
       id="text960"
       style="font-size:2.46944px;line-height:1.25;font-family:'MS 33558';-inkscape-font-specification:'MS 33558, Normal';stroke-width:0.264583">
      <path
         d="M 50.781212,64.641638 V 62.51464 q 0.0217,-0.159164 0.171221,-0.171221 h 1.167196 q 0.167604,0.01326 0.167604,0.171221 0,0.156751 -0.170016,0.167603 h -0.997181 v 0.659562 h 0.777729 q 0.166398,0.01206 0.16881,0.162781 0.0024,0.150723 -0.16881,0.176044 h -0.777729 v 0.961008 q -0.01206,0.166397 -0.163986,0.168809 -0.150723,0.0024 -0.174838,-0.168809 z"
         style="stroke-width:0.264583"
         id="path1181" />
      <path
         d="m 52.796072,64.814064 q -0.148311,-0.0096 -0.171221,-0.167603 V 62.51464 q 0.02532,-0.173633 0.176044,-0.170016 0.150723,0.0024 0.163987,0.170016 v 1.963011 l 1.112936,-0.0012 q 0.171221,0.01929 0.168809,0.173632 -0.0012,0.153134 -0.170015,0.163986 z"
         style="stroke-width:0.264583"
         id="path1183" />
      <path
         d="m 56.143321,64.427009 -0.01085,0.01568 q -0.0036,0.0048 -0.006,0.0084 -0.0024,0.0036 -0.0048,0.0072 -0.165192,0.223069 -0.434081,0.318326 -0.267684,0.09405 -0.528132,-0.03497 -0.302652,-0.150722 -0.444934,-0.511251 -0.141076,-0.360528 -0.121784,-0.74879 0.0205,-0.389467 0.204983,-0.715028 0.18569,-0.325561 0.537779,-0.407554 0.202571,-0.04703 0.403936,0.03979 0.201366,0.08561 0.330384,0.241156 0.0012,0 0.006,0.0084 0.05547,0.07235 0.02291,0.159163 -0.03256,0.08561 -0.119372,0.107315 -0.09284,0.02412 -0.171221,-0.05547 -0.161575,-0.188102 -0.311092,-0.180867 -0.149517,0.0072 -0.267683,0.122989 -0.118167,0.115755 -0.196542,0.296623 -0.07838,0.180867 -0.09646,0.338824 -0.0217,0.176044 0.0036,0.3545 0.02653,0.17725 0.109726,0.334001 0.144694,0.274918 0.364146,0.344854 0.220658,0.06873 0.430464,-0.211012 0.0096,-0.01206 0.02291,-0.03135 0.113344,-0.125402 0.238745,-0.02532 0.126607,0.09887 0.03738,0.224276 z"
         style="stroke-width:0.264583"
         id="path1185" />
      <path
         d="m 57.69275,63.498557 0.01929,0.0084 0.0217,0.01085 0.01929,0.01085 q 0.0084,0.006 0.01809,0.01206 0.01085,0.0048 0.0205,0.01085 0.238745,0.156752 0.295416,0.434082 0.0217,0.10852 0.0096,0.223069 -0.01929,0.163986 -0.115755,0.303857 -0.09526,0.138665 -0.239951,0.214629 -0.155546,0.08199 -0.321943,0.08199 -0.279742,0 -0.534162,-0.07114 -0.254419,-0.07235 -0.36294,-0.384644 -0.01447,-0.03979 -0.0217,-0.08199 -0.0072,-0.0422 -0.01688,-0.08441 -0.01809,-0.08682 0.0422,-0.153134 0.06149,-0.06632 0.151928,-0.05064 0.09526,0.01929 0.132636,0.118167 l 0.0036,0.01085 q 0.05788,0.261654 0.201366,0.312297 0.144694,0.05064 0.401525,0.04582 0.236333,0 0.324355,-0.221864 0.03859,-0.09887 0.01206,-0.204983 -0.02653,-0.107314 -0.104903,-0.178455 -0.03497,-0.03015 -0.09164,-0.05667 l -0.558277,-0.244774 -0.01809,-0.0096 q -0.273712,-0.144694 -0.34003,-0.411171 -0.08079,-0.30868 0.112138,-0.553454 0.19413,-0.245979 0.508839,-0.245979 l 0.132636,0.0036 q 0.06511,0.01206 0.125401,0.02412 0.06029,0.01085 0.121784,0.03858 0.151929,0.07114 0.232716,0.195336 0.08079,0.124196 0.1459,0.268889 0.006,0.01326 0.01085,0.03135 0.01326,0.05908 -0.01206,0.107314 -0.01447,0.03014 -0.03014,0.04582 -0.01568,0.01568 -0.02532,0.0217 -0.0627,0.04461 -0.137459,0.02653 -0.07476,-0.01688 -0.114549,-0.09646 -0.03135,-0.06994 -0.06752,-0.142283 -0.03497,-0.07355 -0.09887,-0.121783 -0.02653,-0.01929 -0.05185,-0.02773 -0.02412,-0.0096 -0.05426,-0.0205 l -0.07838,-0.01326 -0.110932,-0.0036 q -0.161574,0.0024 -0.247185,0.139871 -0.05788,0.08802 -0.04341,0.196542 0.01688,0.133842 0.125401,0.207395 0.0048,0.0036 0.01085,0.0084 0.006,0.0036 0.01326,0.0072 l 0.01326,0.006 0.01447,0.006 z"
         style="stroke-width:0.264583"
         id="path1187" />
      <path
         d="m 60.39168,64.551204 q 0.07717,0.136253 -0.04341,0.229098 -0.05788,0.041 -0.133842,0.02773 -0.07476,-0.01326 -0.109726,-0.07476 l -0.59445,-0.939304 h -0.301445 v 0.84887 q 0,0.104903 -0.09526,0.151929 -0.09526,0.04582 -0.178456,-0.01809 -0.06632,-0.04944 -0.06632,-0.133842 v -2.130615 q 0,-0.06994 0.04823,-0.119372 0.04944,-0.04944 0.120579,-0.04944 h 0.74879 q 0.270095,0 0.469049,0.172426 0.198954,0.171221 0.247185,0.435287 0.05064,0.283359 -0.120578,0.530544 -0.170015,0.245979 -0.452168,0.299034 l -0.02291,0.0036 z m -0.605302,-1.096055 q 0.122989,0 0.226687,-0.07476 0.104903,-0.07476 0.141076,-0.195336 0.05667,-0.18569 -0.05185,-0.335207 -0.10852,-0.150723 -0.299033,-0.166398 h -0.59445 v 0.7717 z"
         style="stroke-width:0.264583"
         id="path1189" />
      <path
         d="m 61.005422,64.814064 q -0.148311,-0.0096 -0.171221,-0.167603 V 62.51464 q 0.02532,-0.173633 0.176044,-0.170016 0.150723,0.0024 0.163986,0.170016 v 1.963011 l 1.112936,-0.0012 q 0.171221,0.01929 0.16881,0.173632 -0.0012,0.153134 -0.170016,0.163986 z"
         style="stroke-width:0.264583"
         id="path1191" />
      <path
         d="m 64.24415,62.431441 q 0.09405,-0.141077 0.226687,-0.06752 0.133842,0.07355 0.06873,0.230304 l -0.693324,1.238337 v 0.806668 q -0.01085,0.171221 -0.16881,0.171221 -0.156751,0 -0.167603,-0.171221 v -0.806668 l -0.692119,-1.238337 q -0.06391,-0.155546 0.06511,-0.227893 0.129019,-0.07355 0.230305,0.06511 l 0.565511,1.010444 z"
         style="stroke-width:0.264583"
         id="path1193" />
    </g>
    <g
       aria-label="A"
       id="text964"
       style="font-style:normal;font-variant:normal;font-weight:normal;font-stretch:normal;font-size:2.82222px;line-height:1.25;font-family:'MS 33558';-inkscape-font-specification:'MS 33558, Normal';font-variant-ligatures:normal;font-variant-caps:normal;font-variant-numeric:normal;font-variant-east-asian:normal;stroke-width:0.264583">
      <path
         d="m 33.456745,26.15481 -0.418923,-1.157551 -0.42168,1.157551 z m -0.418923,-1.157551 0.418923,1.157551 z m -1.063845,1.79696 q 0.220486,-0.607714 0.440972,-1.21405 0.221864,-0.607715 0.443728,-1.215429 0.04548,-0.125401 0.180523,-0.126779 0.135047,-0.0014 0.181901,0.126779 l 0.883321,2.43637 q 0.04134,0.194303 -0.118511,0.250802 -0.159852,0.0565 -0.246668,-0.115755 l -0.141938,-0.394118 h -1.123101 l -0.137803,0.384472 q -0.08819,0.173633 -0.250803,0.114377 -0.162608,-0.06063 -0.111621,-0.246669 z"
         style="font-style:normal;font-variant:normal;font-weight:normal;font-stretch:normal;font-size:2.82222px;font-family:'MS 33558';-inkscape-font-specification:'MS 33558, Normal';font-variant-ligatures:normal;font-variant-caps:normal;font-variant-numeric:normal;font-variant-east-asian:normal;stroke-width:0.264583"
         id="path1178" />
    </g>
    <g
       aria-label="B"
       id="text968"
       style="font-style:normal;font-variant:normal;font-weight:normal;font-stretch:normal;font-size:2.82222px;line-height:1.25;font-family:'MS 33558';-inkscape-font-specification:'MS 33558, Normal';font-variant-ligatures:normal;font-variant-caps:normal;font-variant-numeric:normal;font-variant-east-asian:normal;stroke-width:0.264583">
      <path
         d="m 33.189332,32.724628 q 0.261827,0.02205 0.439594,0.158474 0.179145,0.136426 0.248047,0.329351 0.0689,0.191548 0.01791,0.409277 -0.04961,0.216352 -0.242534,0.398253 0.212217,0.223242 0.264583,0.482313 0.05237,0.259071 -0.03307,0.485069 -0.08406,0.22462 -0.293522,0.381717 -0.209462,0.157096 -0.51952,0.177766 h -0.0041 -0.733116 q -0.169498,-0.02343 -0.195681,-0.191547 v -2.434992 q 0.02343,-0.170876 0.195681,-0.195681 z m -0.122645,2.432236 q 0.234266,-0.0096 0.356912,-0.151584 0.122645,-0.141938 0.126779,-0.314193 0.0055,-0.173632 -0.110243,-0.325217 -0.115755,-0.151584 -0.356912,-0.183278 h -0.555349 v 0.974272 z m 0.122645,-2.040873 h -0.661458 v 0.679372 h 0.665592 q 0.170877,-0.01791 0.253559,-0.122645 0.08406,-0.106109 0.0813,-0.225998 -0.0014,-0.121268 -0.08682,-0.220486 -0.08544,-0.100597 -0.252181,-0.110243 z"
         style="font-style:normal;font-variant:normal;font-weight:normal;font-stretch:normal;font-size:2.82222px;font-family:'MS 33558';-inkscape-font-specification:'MS 33558, Normal';font-variant-ligatures:normal;font-variant-caps:normal;font-variant-numeric:normal;font-variant-east-asian:normal;stroke-width:0.264583"
         id="path1175" />
    </g>
    <g
       aria-label="C"
       id="text972"
       style="font-style:normal;font-variant:normal;font-weight:normal;font-stretch:normal;font-size:2.82222px;line-height:1.25;font-family:'MS 33558';-inkscape-font-specification:'MS 33558, Normal';font-variant-ligatures:normal;font-variant-caps:normal;font-variant-numeric:normal;font-variant-east-asian:normal;stroke-width:0.264583">
      <path
         d="m 25.290087,26.62054 -0.0124,0.01792 q -0.0041,0.0055 -0.0069,0.0096 -0.0028,0.0041 -0.0055,0.0083 -0.188791,0.254937 -0.496093,0.363802 -0.305925,0.107487 -0.603581,-0.03996 -0.345887,-0.172255 -0.508495,-0.584288 -0.161231,-0.412033 -0.139182,-0.855761 0.02343,-0.445106 0.234266,-0.817176 0.212218,-0.37207 0.614605,-0.465777 0.23151,-0.05374 0.461642,0.04548 0.230132,0.09784 0.377582,0.275607 0.0014,0 0.0069,0.0096 0.06339,0.08268 0.02618,0.181901 -0.03721,0.09784 -0.136425,0.122646 -0.106109,0.02756 -0.195682,-0.06339 -0.184657,-0.214974 -0.355533,-0.206706 -0.170877,0.0083 -0.305924,0.14056 -0.135048,0.132292 -0.22462,0.338997 -0.08957,0.206706 -0.110243,0.387229 -0.02481,0.201193 0.0041,0.405143 0.03032,0.202571 0.125401,0.381716 0.165364,0.314192 0.416167,0.394118 0.252181,0.07855 0.49196,-0.241156 0.01102,-0.01378 0.02618,-0.03583 0.129536,-0.143316 0.272852,-0.02894 0.144693,0.112999 0.04272,0.256315 z"
         style="font-style:normal;font-variant:normal;font-weight:normal;font-stretch:normal;font-size:2.82222px;font-family:'MS 33558';-inkscape-font-specification:'MS 33558, Normal';font-variant-ligatures:normal;font-variant-caps:normal;font-variant-numeric:normal;font-variant-east-asian:normal;stroke-width:0.264583"
         id="path1172" />
    </g>
    <g
       aria-label="D"
       id="text976"
       style="font-style:normal;font-variant:normal;font-weight:normal;font-stretch:normal;font-size:2.82222px;line-height:1.25;font-family:'MS 33558';-inkscape-font-specification:'MS 33558, Normal';font-variant-ligatures:normal;font-variant-caps:normal;font-variant-numeric:normal;font-variant-east-asian:normal;stroke-width:0.264583">
      <path
         d="m 23.712695,32.724628 h 0.649055 q 0.483691,0 0.724848,0.440972 0.241156,0.440972 0.241156,0.970138 0,0.529167 -0.242534,0.970138 -0.241157,0.440972 -0.72347,0.440972 h -0.649055 0.0028 -0.0028 q -0.04547,-0.0069 -0.04961,-0.0083 -0.143316,-0.03445 -0.141938,-0.187413 h -0.0014 l 0.0014,-2.433614 q -0.0014,-0.0041 -0.0014,-0.01102 0.0041,-0.07579 0.05926,-0.128157 0.0565,-0.05374 0.135048,-0.05374 z m 0.649055,2.433614 q 0.0028,0 0.0055,0 0.0028,0 0.0069,0 0.0028,0 0.0041,0 0.0028,-0.0014 0.0069,-0.0014 0.0028,0 0.0055,0 0.0041,-0.0014 0.0083,-0.0014 0.0028,0 0.0055,0 0.0028,-0.0014 0.0069,-0.0014 0.0028,0 0.0055,0 0.0028,-0.0014 0.0069,-0.0014 0.0055,-0.0028 0.01102,-0.0028 0.0028,0 0.0055,-0.0014 0.0028,-0.0028 0.0069,-0.0041 0.0028,0 0.0055,0 0.0041,-0.0014 0.0083,-0.0028 0.0028,0 0.0055,-0.0014 0.0028,-0.0014 0.0069,-0.0028 0.0083,-0.0028 0.0124,-0.0055 0.0248,-0.0083 0.01378,-0.0055 0.0028,0 0.0055,-0.0014 0.0028,-0.0028 0.0069,-0.0041 0.0124,-0.0083 0.01103,-0.0069 0.01378,-0.0069 0.01378,-0.0069 0.0028,-0.0014 0.0055,-0.0028 0.0028,-0.0028 0.0069,-0.0055 0.0124,-0.0083 0.0124,-0.0083 0.0028,-0.0014 0.0055,-0.0028 0.0041,-0.0028 0.0083,-0.0055 0.0028,-0.0014 0.0055,-0.0041 0.0028,-0.0028 0.0069,-0.0055 0.0028,-0.0014 0.0055,-0.0028 0.0028,-0.0028 0.0069,-0.0055 0.0028,-0.0028 0.01378,-0.01102 0.01102,-0.01102 0.01102,-0.01102 0.0028,-0.0028 0.0055,-0.0055 0.0028,-0.0028 0.0069,-0.0069 0.0028,-0.0028 0.0055,-0.0055 0.0028,-0.0028 0.0069,-0.0069 0.0041,-0.0028 0.0124,-0.01102 0.0028,-0.0028 0.0055,-0.0055 0.0028,-0.0028 0.0069,-0.0069 0.0028,-0.0028 0.0055,-0.0055 0.0028,-0.0041 0.0069,-0.0083 0.01654,-0.02205 0.01102,-0.01378 0.0096,-0.0096 0.0124,-0.01516 0.0124,-0.01654 0.01102,-0.01516 0.0028,-0.0041 0.0055,-0.0069 0.0028,-0.0041 0.0069,-0.0083 0.0028,-0.0041 0.0041,-0.0083 0.0028,-0.0041 0.0069,-0.0083 0.0014,-0.0041 0.0041,-0.0083 0.0041,-0.0055 0.0069,-0.0096 0.0083,-0.01103 0.01102,-0.01654 0.0028,-0.0041 0.0041,-0.0083 0.0028,-0.0055 0.0069,-0.0096 0.0028,-0.0041 0.0041,-0.0083 0.0028,-0.0055 0.0069,-0.0096 0.0028,-0.0069 0.0083,-0.01791 0.0028,-0.0041 0.0041,-0.0096 0.0028,-0.0055 0.0069,-0.01102 0.0028,-0.0041 0.0041,-0.0083 0.0028,-0.0055 0.0069,-0.01102 0.0014,-0.0041 0.0028,-0.0096 0.0028,-0.0055 0.0055,-0.01102 0.0041,-0.0069 0.0096,-0.02067 0.01378,-0.03445 0.0096,-0.02205 0.0014,-0.0041 0.0028,-0.0096 0.0028,-0.0069 0.0055,-0.0124 0.0014,-0.0055 0.0028,-0.01102 0.0028,-0.0055 0.0055,-0.0124 0.0041,-0.0124 0.0069,-0.02205 0.0014,-0.0055 0.0028,-0.01102 0.0028,-0.0055 0.0055,-0.0124 -0.0055,0.01378 0.0069,-0.02343 0.0028,-0.0069 0.0083,-0.02343 0,-0.0055 0.0014,-0.01102 0.0028,-0.0069 0.0041,-0.01378 0.0014,-0.0055 0.0028,-0.01102 0.0014,-0.0069 0.0041,-0.01378 0,-0.0041 0.0014,-0.0096 0.0028,-0.0069 0.0041,-0.01378 0.0014,-0.0096 0.0041,-0.02618 0,-0.0055 0.0014,-0.01102 0.0028,-0.0069 0.0041,-0.01378 0,-0.0055 0.0014,-0.01103 0.0014,-0.0069 0.0028,-0.01378 0.0014,-0.0096 0.0041,-0.02618 0,-0.0055 0.0014,-0.0124 0.0028,-0.0069 0.0041,-0.01378 0,-0.0096 0.0028,-0.02618 0,-0.0055 0,-0.01102 0.0014,-0.0069 0.0028,-0.01516 0.0028,-0.01654 0.0028,-0.02618 0.0014,-0.0096 0.0014,-0.02618 0.0014,-0.0096 0.0014,-0.02756 0.0014,-0.0096 0.0014,-0.02618 0,-0.0069 0,-0.0124 0.0014,-0.0069 0.0028,-0.01516 0,-0.0055 0,-0.01103 0.0014,-0.0069 0.0014,-0.01516 0,-0.0055 0,-0.0124 0,-0.0069 0,-0.01378 0,-0.0069 0,-0.0124 0,-0.0069 0,-0.01378 0,-0.0069 -0.0014,-0.0124 0,-0.0069 0,-0.01516 0,-0.0055 0,-0.0124 0,-0.0069 0,-0.01378 0,-0.0083 -0.0028,-0.02756 0,-0.01654 -0.0014,-0.0248 0,-0.0096 -0.0028,-0.02894 0,-0.01654 -0.0014,-0.02481 0,-0.0096 -0.0028,-0.02618 -0.0014,-0.0055 -0.0028,-0.0124 0,-0.0069 0,-0.01378 -0.0028,-0.01654 -0.0055,-0.02618 -0.0014,-0.0055 -0.0028,-0.01102 -0.0014,-0.0069 -0.0014,-0.01378 -0.0014,-0.0096 -0.0041,-0.02618 -0.0014,-0.0096 -0.0041,-0.02618 -0.0055,-0.01654 -0.0069,-0.02481 -0.0028,-0.01654 -0.0041,-0.02343 -0.0028,-0.0055 -0.0041,-0.01102 -0.0014,-0.0069 -0.0028,-0.01378 -0.0014,-0.0055 -0.0041,-0.01102 -0.0028,-0.0069 -0.0028,-0.01378 -0.0124,-0.03721 -0.0069,-0.02343 -0.0028,-0.0096 -0.0069,-0.02343 -0.0028,-0.0041 -0.0055,-0.0096 -0.0014,-0.0069 -0.0028,-0.0124 -0.0014,-0.0041 -0.0083,-0.02343 -0.0055,-0.01378 -0.0083,-0.02205 -0.0028,-0.0041 -0.0055,-0.0096 -0.0014,-0.0069 -0.0028,-0.0124 -0.0028,-0.0041 -0.0055,-0.0096 -0.0028,-0.0055 -0.0041,-0.01102 -0.0055,-0.01378 -0.0096,-0.02067 -0.0055,-0.01378 -0.0083,-0.01929 -0.0055,-0.01378 -0.0096,-0.02067 -0.0028,-0.0041 -0.0055,-0.0083 -0.0028,-0.0055 -0.0041,-0.0096 -0.0083,-0.01378 -0.01102,-0.01929 -0.0124,-0.01929 -0.01102,-0.01792 -0.0041,-0.0041 -0.0069,-0.0083 -0.0014,-0.0055 -0.0041,-0.0096 -0.0028,-0.0055 -0.01102,-0.01654 -0.0028,-0.0041 -0.0055,-0.0083 -0.0028,-0.0041 -0.0041,-0.0083 -0.0069,-0.0124 -0.02343,-0.03169 -0.0028,-0.0028 -0.02205,-0.03032 -0.01654,-0.01929 -0.02481,-0.02756 -0.0083,-0.0096 -0.02481,-0.02618 -0.01102,-0.0124 -0.02343,-0.02343 -0.0096,-0.0069 -0.02618,-0.02067 -0.01378,-0.01102 -0.02618,-0.02067 -0.03169,-0.02067 -0.02618,-0.01792 -0.02756,-0.01654 -0.0248,-0.01516 0,0 -0.02481,-0.0124 -0.0055,-0.0028 -0.02618,-0.0096 -0.01791,-0.0069 -0.02618,-0.0096 -0.0069,-0.0014 -0.0124,-0.0028 -0.0055,-0.0028 -0.01102,-0.0055 -0.02481,-0.0041 -0.02481,-0.0041 -0.0083,-0.0014 -0.0248,-0.0014 -0.0041,0 -0.0069,0 -0.0028,0 -0.0055,0 h -0.454752 v 2.045007 0 z"
         style="font-style:normal;font-variant:normal;font-weight:normal;font-stretch:normal;font-size:2.82222px;font-family:'MS 33558';-inkscape-font-specification:'MS 33558, Normal';font-variant-ligatures:normal;font-variant-caps:normal;font-variant-numeric:normal;font-variant-east-asian:normal;stroke-width:0.264583"
         id="path1169" />
    </g>
    <g
       aria-label="HYDRAZN"
       id="text980"
       style="font-size:2.46944px;line-height:1.25;font-family:'MS 33558';-inkscape-font-specification:'MS 33558, Normal';stroke-width:0.264583">
      <path
         d="M 110.91685,27.160321 V 25.0285 q 0.0253,-0.173632 0.17604,-0.170015 0.15072,0.0024 0.16399,0.170015 v 0.797022 h 0.97065 V 25.0285 q 0.0253,-0.170015 0.17002,-0.170015 0.1459,-0.0012 0.17242,0.170015 v 2.131821 q -0.0265,0.170016 -0.17242,0.16881 -0.1447,0 -0.17002,-0.16881 v -0.992357 h -0.97065 v 0.992357 q -0.0133,0.166398 -0.16399,0.16881 -0.15072,0.0024 -0.17604,-0.16881 z"
         style="stroke-width:0.264583"
         id="path1154" />
      <path
         d="m 114.34247,24.945301 q 0.094,-0.141076 0.22669,-0.06752 0.13384,0.07355 0.0687,0.230304 l -0.69333,1.238337 v 0.806668 q -0.0108,0.171221 -0.16881,0.171221 -0.15675,0 -0.1676,-0.171221 v -0.806668 l -0.69212,-1.238337 q -0.0639,-0.155546 0.0651,-0.227893 0.12902,-0.07355 0.23031,0.06511 l 0.56551,1.010445 z"
         style="stroke-width:0.264583"
         id="path1156" />
      <path
         d="m 115.12382,24.857279 h 0.56792 q 0.42323,0 0.63424,0.38585 0.21101,0.38585 0.21101,0.84887 0,0.46302 -0.21221,0.84887 -0.21102,0.38585 -0.63304,0.38585 h -0.56792 0.002 -0.002 q -0.0398,-0.006 -0.0434,-0.0072 -0.1254,-0.03015 -0.1242,-0.163987 h -0.001 l 0.001,-2.129409 q -0.001,-0.0036 -0.001,-0.0096 0.004,-0.06632 0.0519,-0.112137 0.0494,-0.04703 0.11816,-0.04703 z m 0.56792,2.12941 q 0.002,0 0.005,0 0.002,0 0.006,0 0.002,0 0.004,0 0.002,-0.0012 0.006,-0.0012 0.002,0 0.005,0 0.004,-0.0012 0.007,-0.0012 0.002,0 0.005,0 0.002,-0.0012 0.006,-0.0012 0.002,0 0.005,0 0.002,-0.0012 0.006,-0.0012 0.005,-0.0024 0.01,-0.0024 0.002,0 0.005,-0.0012 0.002,-0.0024 0.006,-0.0036 0.002,0 0.005,0 0.004,-0.0012 0.007,-0.0024 0.002,0 0.005,-0.0012 0.002,-0.0012 0.006,-0.0024 0.007,-0.0024 0.0108,-0.0048 0.0217,-0.0072 0.0121,-0.0048 0.002,0 0.005,-0.0012 0.002,-0.0024 0.006,-0.0036 0.0108,-0.0072 0.01,-0.006 0.0121,-0.006 0.0121,-0.006 0.002,-0.0012 0.005,-0.0024 0.002,-0.0024 0.006,-0.0048 0.0109,-0.0072 0.0109,-0.0072 0.002,-0.0012 0.005,-0.0024 0.004,-0.0024 0.007,-0.0048 0.002,-0.0012 0.005,-0.0036 0.002,-0.0024 0.006,-0.0048 0.002,-0.0012 0.005,-0.0024 0.002,-0.0024 0.006,-0.0048 0.002,-0.0024 0.0121,-0.0096 0.01,-0.0096 0.01,-0.0096 0.002,-0.0024 0.005,-0.0048 0.002,-0.0024 0.006,-0.006 0.002,-0.0024 0.005,-0.0048 0.002,-0.0024 0.006,-0.006 0.004,-0.0024 0.0109,-0.0096 0.002,-0.0024 0.005,-0.0048 0.002,-0.0024 0.006,-0.006 0.002,-0.0024 0.005,-0.0048 0.002,-0.0036 0.006,-0.0072 0.0145,-0.01929 0.01,-0.01206 0.008,-0.0084 0.0108,-0.01326 0.0109,-0.01447 0.01,-0.01326 0.002,-0.0036 0.005,-0.006 0.002,-0.0036 0.006,-0.0072 0.002,-0.0036 0.004,-0.0072 0.002,-0.0036 0.006,-0.0072 0.001,-0.0036 0.004,-0.0072 0.004,-0.0048 0.006,-0.0084 0.007,-0.0096 0.01,-0.01447 0.002,-0.0036 0.004,-0.0072 0.002,-0.0048 0.006,-0.0084 0.002,-0.0036 0.004,-0.0072 0.002,-0.0048 0.006,-0.0084 0.002,-0.006 0.007,-0.01568 0.002,-0.0036 0.004,-0.0084 0.002,-0.0048 0.006,-0.0096 0.002,-0.0036 0.004,-0.0072 0.002,-0.0048 0.006,-0.0096 0.001,-0.0036 0.002,-0.0084 0.002,-0.0048 0.005,-0.0096 0.004,-0.006 0.008,-0.01809 0.012,-0.03014 0.008,-0.01929 0.001,-0.0036 0.002,-0.0084 0.002,-0.006 0.005,-0.01085 0.001,-0.0048 0.002,-0.0096 0.002,-0.0048 0.005,-0.01085 0.004,-0.01085 0.006,-0.01929 0.001,-0.0048 0.002,-0.0096 0.002,-0.0048 0.005,-0.01085 -0.005,0.01206 0.006,-0.0205 0.002,-0.006 0.007,-0.0205 0,-0.0048 0.001,-0.0096 0.002,-0.006 0.004,-0.01206 0.001,-0.0048 0.002,-0.0096 0.001,-0.006 0.004,-0.01206 0,-0.0036 0.001,-0.0084 0.002,-0.006 0.004,-0.01206 0.001,-0.0084 0.004,-0.02291 0,-0.0048 0.001,-0.0096 0.002,-0.006 0.004,-0.01206 0,-0.0048 0.001,-0.0096 0.001,-0.006 0.002,-0.01206 0.001,-0.0084 0.004,-0.02291 0,-0.0048 0.001,-0.01085 0.002,-0.006 0.004,-0.01206 0,-0.0084 0.002,-0.02291 0,-0.0048 0,-0.0096 0.001,-0.006 0.002,-0.01326 0.002,-0.01447 0.002,-0.02291 0.001,-0.0084 0.001,-0.02291 0.001,-0.0084 0.001,-0.02412 0.001,-0.0084 0.001,-0.02291 0,-0.006 0,-0.01085 0.001,-0.006 0.002,-0.01326 0,-0.0048 0,-0.0096 0.001,-0.006 0.001,-0.01326 0,-0.0048 0,-0.01085 0,-0.006 0,-0.01206 0,-0.006 0,-0.01085 0,-0.006 0,-0.01206 0,-0.006 -0.001,-0.01085 0,-0.006 0,-0.01326 0,-0.0048 0,-0.01085 0,-0.006 0,-0.01206 0,-0.0072 -0.002,-0.02412 0,-0.01447 -0.001,-0.0217 0,-0.0084 -0.002,-0.02532 0,-0.01447 -0.001,-0.0217 0,-0.0084 -0.002,-0.02291 -0.001,-0.0048 -0.002,-0.01085 0,-0.006 0,-0.01206 -0.002,-0.01447 -0.005,-0.02291 -0.001,-0.0048 -0.002,-0.0096 -0.001,-0.006 -0.001,-0.01206 -0.001,-0.0084 -0.004,-0.02291 -0.001,-0.0084 -0.004,-0.02291 -0.005,-0.01447 -0.006,-0.02171 -0.002,-0.01447 -0.004,-0.0205 -0.002,-0.0048 -0.004,-0.0096 -0.001,-0.006 -0.002,-0.01206 -0.001,-0.0048 -0.004,-0.0096 -0.002,-0.006 -0.002,-0.01206 -0.0108,-0.03256 -0.006,-0.0205 -0.002,-0.0084 -0.006,-0.0205 -0.002,-0.0036 -0.005,-0.0084 -0.001,-0.006 -0.002,-0.01085 -0.001,-0.0036 -0.007,-0.0205 -0.005,-0.01206 -0.007,-0.01929 -0.002,-0.0036 -0.005,-0.0084 -0.001,-0.006 -0.002,-0.01085 -0.002,-0.0036 -0.005,-0.0084 -0.002,-0.0048 -0.004,-0.0096 -0.005,-0.01206 -0.008,-0.01809 -0.005,-0.01206 -0.007,-0.01688 -0.005,-0.01206 -0.008,-0.01809 -0.002,-0.0036 -0.005,-0.0072 -0.002,-0.0048 -0.004,-0.0084 -0.007,-0.01206 -0.01,-0.01688 -0.0108,-0.01688 -0.01,-0.01568 -0.004,-0.0036 -0.006,-0.0072 -0.001,-0.0048 -0.004,-0.0084 -0.002,-0.0048 -0.01,-0.01447 -0.002,-0.0036 -0.005,-0.0072 -0.002,-0.0036 -0.004,-0.0072 -0.006,-0.01085 -0.0205,-0.02773 -0.002,-0.0024 -0.0193,-0.02653 -0.0145,-0.01688 -0.0217,-0.02411 -0.007,-0.0084 -0.0217,-0.02291 -0.01,-0.01085 -0.0205,-0.0205 -0.008,-0.006 -0.0229,-0.01809 -0.0121,-0.0096 -0.0229,-0.01809 -0.0277,-0.01809 -0.0229,-0.01567 -0.0241,-0.01447 -0.0217,-0.01326 0,0 -0.0217,-0.01085 -0.005,-0.0024 -0.0229,-0.0084 -0.0157,-0.006 -0.0229,-0.0084 -0.006,-0.0012 -0.0108,-0.0024 -0.005,-0.0024 -0.01,-0.0048 -0.0217,-0.0036 -0.0217,-0.0036 -0.007,-0.0012 -0.0217,-0.0012 -0.004,0 -0.006,0 -0.002,0 -0.005,0 h -0.39791 v 1.789379 0 z"
         style="stroke-width:0.264583"
         id="path1158" />
      <path
         d="m 118.36737,27.065065 q 0.0772,0.136253 -0.0434,0.229098 -0.0579,0.041 -0.13384,0.02773 -0.0748,-0.01326 -0.10973,-0.07476 l -0.59445,-0.939304 h -0.30144 v 0.84887 q 0,0.104903 -0.0953,0.151929 -0.0953,0.04582 -0.17845,-0.01809 -0.0663,-0.04944 -0.0663,-0.133842 v -2.130615 q 0,-0.06994 0.0482,-0.119373 0.0494,-0.04944 0.12058,-0.04944 h 0.74879 q 0.27009,0 0.46905,0.172427 0.19895,0.171221 0.24718,0.435287 0.0506,0.283359 -0.12058,0.530544 -0.17001,0.245979 -0.45216,0.299034 l -0.0229,0.0036 z m -0.6053,-1.096055 q 0.12299,0 0.22668,-0.07476 0.10491,-0.07476 0.14108,-0.195336 0.0567,-0.185691 -0.0519,-0.335208 -0.10852,-0.150722 -0.29903,-0.166397 h -0.59445 v 0.7717 z"
         style="stroke-width:0.264583"
         id="path1160" />
      <path
         d="m 120.11575,26.534521 -0.36656,-1.012856 -0.36896,1.012856 z m -0.36656,-1.012856 0.36656,1.012856 z m -0.93086,1.572339 q 0.19293,-0.53175 0.38585,-1.062294 0.19413,-0.531749 0.38826,-1.063499 0.0398,-0.109726 0.15796,-0.110932 0.11817,-0.0012 0.15916,0.110932 l 0.77291,2.131821 q 0.0362,0.170016 -0.1037,0.219453 -0.13987,0.04944 -0.21583,-0.101286 l -0.1242,-0.344853 h -0.98271 l -0.12058,0.336413 q -0.0772,0.151928 -0.21945,0.100079 -0.14228,-0.05305 -0.0977,-0.215834 z"
         style="stroke-width:0.264583"
         id="path1162" />
      <path
         d="m 121.94492,25.19731 h -0.8549 q -0.16639,-0.01326 -0.17001,-0.162781 -0.002,-0.149517 0.17001,-0.17725 h 1.13585 q 0.10129,0.01447 0.14711,0.08441 0.047,0.06873 0.002,0.166398 l -1.0008,1.876195 h 0.92845 q 0.17363,0.02532 0.17243,0.172427 -0.001,0.1459 -0.17243,0.170015 h -1.21663 q -0.22307,-0.03376 -0.14831,-0.25442 z"
         style="stroke-width:0.264583"
         id="path1164" />
      <path
         d="m 124.44451,27.160321 q 0,0.126608 -0.12299,0.161575 -0.12179,0.03376 -0.18931,-0.07235 l -1.01286,-1.624187 v 1.534959 q -0.0265,0.16881 -0.17122,0.16881 -0.14349,0 -0.16881,-0.16881 v -2.129409 q 0.0181,-0.125401 0.12782,-0.165192 0.11093,-0.03979 0.18448,0.07476 l 1.01286,1.626599 v -1.536165 q 0.0229,-0.172427 0.17484,-0.170015 0.15313,0.0012 0.16519,0.170015 z"
         style="stroke-width:0.264583"
         id="path1166" />
    </g>
    <g
       aria-label="AIR"
       id="text984"
       style="font-size:2.46944px;line-height:1.25;font-family:'MS 33558';-inkscape-font-specification:'MS 33558, Normal';stroke-width:0.264583">
      <path
         d="m 116.76745,34.286926 -0.36655,-1.012856 -0.36897,1.012856 z m -0.36655,-1.012856 0.36655,1.012856 z m -0.93087,1.572339 q 0.19293,-0.53175 0.38585,-1.062294 0.19413,-0.531749 0.38827,-1.063499 0.0398,-0.109726 0.15795,-0.110932 0.11817,-0.0012 0.15917,0.110932 l 0.7729,2.131822 q 0.0362,0.170015 -0.1037,0.219452 -0.13987,0.04944 -0.21583,-0.101286 l -0.1242,-0.344853 h -0.98271 l -0.12058,0.336413 q -0.0772,0.151928 -0.21945,0.10008 -0.14228,-0.05306 -0.0977,-0.215835 z"
         style="stroke-width:0.264583"
         id="path1147" />
      <path
         d="m 117.91415,34.912727 q -0.0265,0.170015 -0.17242,0.168809 -0.1447,0 -0.17002,-0.168809 v -2.131822 q 0.0253,-0.170015 0.17002,-0.170015 0.1459,-0.0012 0.17242,0.170015 z"
         style="stroke-width:0.264583"
         id="path1149" />
      <path
         d="m 119.7795,34.81747 q 0.0772,0.136253 -0.0434,0.229098 -0.0579,0.041 -0.13384,0.02773 -0.0748,-0.01326 -0.10973,-0.07476 l -0.59445,-0.939304 h -0.30145 v 0.84887 q 0,0.104903 -0.0953,0.151929 -0.0953,0.04582 -0.17846,-0.01809 -0.0663,-0.04944 -0.0663,-0.133842 v -2.130615 q 0,-0.06994 0.0482,-0.119373 0.0494,-0.04944 0.12057,-0.04944 h 0.74879 q 0.2701,0 0.46905,0.172427 0.19896,0.171221 0.24719,0.435287 0.0506,0.283359 -0.12058,0.530544 -0.17002,0.245979 -0.45217,0.299034 l -0.0229,0.0036 z m -0.60531,-1.096055 q 0.12299,0 0.22669,-0.07476 0.1049,-0.07476 0.14108,-0.195336 0.0567,-0.185691 -0.0519,-0.335207 -0.10852,-0.150723 -0.29903,-0.166398 h -0.59446 v 0.7717 z"
         style="stroke-width:0.264583"
         id="path1151" />
    </g>
  </g>
</svg>
