<?xml version="1.0" encoding="UTF-8" standalone="no"?>
<svg
   xmlns:dc="http://purl.org/dc/elements/1.1/"
   xmlns:cc="http://creativecommons.org/ns#"
   xmlns:rdf="http://www.w3.org/1999/02/22-rdf-syntax-ns#"
   xmlns:svg="http://www.w3.org/2000/svg"
   xmlns="http://www.w3.org/2000/svg"
   xmlns:sodipodi="http://sodipodi.sourceforge.net/DTD/sodipodi-0.dtd"
   xmlns:inkscape="http://www.inkscape.org/namespaces/inkscape"
   width="210mm"
   height="297mm"
   viewBox="0 0 210 297"
   version="1.1"
   id="svg8"
   inkscape:version="1.0.2-2 (e86c870879, 2021-01-15)"
   sodipodi:docname="tegning.svg">
  <defs
     id="defs2">
    <marker
       id="DistanceX"
       orient="auto"
       refX="0.0"
       refY="0.0"
       style="overflow:visible">
      <path
         d="M 3,-3 L -3,3 M 0,-5 L  0,5"
         style="stroke:#000000; stroke-width:0.5"
         id="path833" />
    </marker>
    <pattern
       id="Hatch"
       patternUnits="userSpaceOnUse"
       width="8"
       height="8"
       x="0"
       y="0">
      <path
         d="M8 4 l-4,4"
         stroke="#000000"
         stroke-width="0.25"
         linecap="square"
         id="path836" />
      <path
         d="M6 2 l-4,4"
         stroke="#000000"
         stroke-width="0.25"
         linecap="square"
         id="path838" />
      <path
         d="M4 0 l-4,4"
         stroke="#000000"
         stroke-width="0.25"
         linecap="square"
         id="path840" />
    </pattern>
    <symbol
       id="*Model_Space" />
    <symbol
       id="*Paper_Space" />
  </defs>
  <sodipodi:namedview
     id="base"
     pagecolor="#ffffff"
     bordercolor="#666666"
     borderopacity="1.0"
     inkscape:pageopacity="0.0"
     inkscape:pageshadow="2"
     inkscape:zoom="2.3076115"
     inkscape:cx="245.91777"
     inkscape:cy="458.98716"
     inkscape:document-units="mm"
     inkscape:current-layer="layer1"
     inkscape:document-rotation="0"
     showgrid="true"
     inkscape:snap-grids="false"
     inkscape:window-width="1918"
     inkscape:window-height="2083"
     inkscape:window-x="-8"
     inkscape:window-y="38"
     inkscape:window-maximized="0">
    <inkscape:grid
       type="xygrid"
       id="grid935" />
  </sodipodi:namedview>
  <metadata
     id="metadata5">
    <rdf:RDF>
      <cc:Work
         rdf:about="">
        <dc:format>image/svg+xml</dc:format>
        <dc:type
           rdf:resource="http://purl.org/dc/dcmitype/StillImage" />
        <dc:title></dc:title>
      </cc:Work>
    </rdf:RDF>
  </metadata>
  <g
     inkscape:label="Lag 1"
     inkscape:groupmode="layer"
     id="layer1">
    <g
       inkscape:label="0"
       id="g889"
       transform="matrix(0.26458333,0,0,0.26458333,94.019905,-111.76566)"
       style="stroke:#ff0000">
      <path
         d="M 75.590551,1122.5197 V 617.95276"
         style="fill:none;stroke:#ff0000;stroke-linecap:round"
         id="path847" />
      <path
         d="M 0,617.95276 V 1122.5197"
         style="fill:none;stroke:#ff0000;stroke-linecap:round"
         id="path849" />
      <path
         d="m 0,1122.5197 v 94.4882"
         style="fill:none;stroke:#ff0000;stroke-linecap:round"
         id="path851" />
      <path
         d="M 0,1217.0079 H 75.590551"
         style="fill:none;stroke:#ff0000;stroke-linecap:round"
         id="path853" />
      <path
         d="m 75.590551,1217.0079 v -94.4882"
         style="fill:none;stroke:#ff0000;stroke-linecap:round"
         id="path855" />
      <path
         d="M 0,617.95276 V 563.14961"
         style="fill:none;stroke:#ff0000;stroke-linecap:round"
         id="path857" />
      <path
         d="m 75.590551,563.14961 v 54.80315"
         style="fill:none;stroke:#ff0000;stroke-linecap:round"
         id="path859" />
      <path
         d="M 0,563.14961 V 468.66142"
         style="fill:none;stroke:#ff0000;stroke-linecap:round"
         id="path861" />
      <path
         d="M 0,468.66142 H 75.590551"
         style="fill:none;stroke:#ff0000;stroke-linecap:round"
         id="path863" />
      <path
         d="m 75.590551,468.66142 v 94.48819"
         style="fill:none;stroke:#ff0000;stroke-linecap:round"
         id="path865" />
      <path
         d="m -113.38583,1122.5197 h 75.590554"
         style="fill:none;stroke:#ff0000;stroke-linecap:round"
         id="path867" />
      <path
         d="m -113.38583,1066.5827 h 75.590554"
         style="fill:none;stroke:#ff0000;stroke-linecap:round"
         id="path869" />
      <path
         d="m -113.38583,1010.6457 h 75.590554"
         style="fill:none;stroke:#ff0000;stroke-linecap:round"
         id="path871" />
      <path
         d="m -113.38583,954.70866 h 75.590554"
         style="fill:none;stroke:#ff0000;stroke-linecap:round"
         id="path873" />
      <path
         d="m -113.38583,898.77165 h 75.590554"
         style="fill:none;stroke:#ff0000;stroke-linecap:round"
         id="path875" />
      <path
         d="m -113.38583,842.83465 h 75.590554"
         style="fill:none;stroke:#ff0000;stroke-linecap:round"
         id="path877" />
      <path
         d="m -113.38583,786.89764 h 75.590554"
         style="fill:none;stroke:#ff0000;stroke-linecap:round"
         id="path879" />
      <path
         d="m -113.38583,730.96063 h 75.590554"
         style="fill:none;stroke:#ff0000;stroke-linecap:round"
         id="path881" />
      <path
         d="m -113.38583,675.02362 h 75.590554"
         style="fill:none;stroke:#ff0000;stroke-linecap:round"
         id="path883" />
      <path
         d="m -113.38583,619.08661 h 75.590554"
         style="fill:none;stroke:#ff0000;stroke-linecap:round"
         id="path885" />
      <path
         d="m -113.38583,563.14961 h 75.590554"
         style="fill:none;stroke:#ff0000;stroke-linecap:round"
         id="path887" />
    </g>
    <path
       id="rect1809"
       style="fill:#000000;stroke:none;stroke-width:0.814612;stroke-miterlimit:4;stroke-dasharray:none"
       d="m 104.64115,100.2408 h 6.96632 v 3.89705 h -6.96632 z" />
    <path
       style="fill:none;stroke:#000000;stroke-width:0.446186;stroke-linecap:butt;stroke-linejoin:miter;stroke-miterlimit:4;stroke-dasharray:none;stroke-opacity:1"
       d="M 95.108286,47.26084 H 105.19112"
       id="path937" />
    <path
       style="fill:none;stroke:#000000;stroke-width:0.123104px;stroke-linecap:butt;stroke-linejoin:miter;stroke-opacity:1"
       d="m 95.108286,46.139539 h 6.416354"
       id="path937-9" />
    <path
       style="fill:none;stroke:#000000;stroke-width:0.123104px;stroke-linecap:butt;stroke-linejoin:miter;stroke-opacity:1"
       d="m 95.108286,45.018236 h 6.416354"
       id="path937-9-8" />
    <path
       style="fill:none;stroke:#000000;stroke-width:0.123104px;stroke-linecap:butt;stroke-linejoin:miter;stroke-opacity:1"
       d="m 95.108286,43.896933 h 6.416354"
       id="path937-9-7" />
    <path
       style="fill:none;stroke:#000000;stroke-width:0.123104px;stroke-linecap:butt;stroke-linejoin:miter;stroke-opacity:1"
       d="m 95.108286,42.775631 h 6.416354"
       id="path937-9-8-4" />
    <path
       style="fill:none;stroke:#000000;stroke-width:0.446186;stroke-linecap:butt;stroke-linejoin:miter;stroke-miterlimit:4;stroke-dasharray:none;stroke-opacity:1"
       d="M 95.108286,41.654328 H 105.19112"
       id="path937-6" />
    <path
       style="fill:none;stroke:#000000;stroke-width:0.123104px;stroke-linecap:butt;stroke-linejoin:miter;stroke-opacity:1"
       d="m 95.108286,40.533025 h 6.416354"
       id="path937-9-0" />
    <path
       style="fill:none;stroke:#000000;stroke-width:0.123104px;stroke-linecap:butt;stroke-linejoin:miter;stroke-opacity:1"
       d="m 95.108286,39.411723 h 6.416354"
       id="path937-9-8-7" />
    <path
       style="fill:none;stroke:#000000;stroke-width:0.123104px;stroke-linecap:butt;stroke-linejoin:miter;stroke-opacity:1"
       d="m 95.108286,38.29042 h 6.416354"
       id="path937-9-7-6" />
    <path
       style="fill:none;stroke:#000000;stroke-width:0.123104px;stroke-linecap:butt;stroke-linejoin:miter;stroke-opacity:1"
       d="m 95.108286,37.169119 h 6.416354"
       id="path937-9-8-4-2" />
    <path
       style="fill:none;stroke:#000000;stroke-width:0.446186;stroke-linecap:butt;stroke-linejoin:miter;stroke-miterlimit:4;stroke-dasharray:none;stroke-opacity:1"
       d="M 95.108286,36.047816 H 105.19112"
       id="path937-2" />
    <path
       style="fill:none;stroke:#000000;stroke-width:0.446186;stroke-linecap:butt;stroke-linejoin:miter;stroke-miterlimit:4;stroke-dasharray:none;stroke-opacity:1"
       d="M 95.108286,103.32596 H 105.19112"
       id="path937-2-4" />
    <path
       style="fill:none;stroke:#000000;stroke-width:0.123104px;stroke-linecap:butt;stroke-linejoin:miter;stroke-opacity:1"
       d="m 95.108286,102.20466 h 6.416354"
       id="path937-9-75-9" />
    <path
       style="fill:none;stroke:#000000;stroke-width:0.123104px;stroke-linecap:butt;stroke-linejoin:miter;stroke-opacity:1"
       d="m 95.108286,101.08336 h 6.416354"
       id="path937-9-8-3-8" />
    <path
       style="fill:none;stroke:#000000;stroke-width:0.123104px;stroke-linecap:butt;stroke-linejoin:miter;stroke-opacity:1"
       d="m 95.108286,99.962055 h 6.416354"
       id="path937-9-7-1-4" />
    <path
       style="fill:none;stroke:#000000;stroke-width:0.123104px;stroke-linecap:butt;stroke-linejoin:miter;stroke-opacity:1"
       d="m 95.108286,98.840754 h 6.416354"
       id="path937-9-8-4-8-5" />
    <path
       style="fill:none;stroke:#000000;stroke-width:0.446186;stroke-linecap:butt;stroke-linejoin:miter;stroke-miterlimit:4;stroke-dasharray:none;stroke-opacity:1"
       d="M 95.108286,97.719453 H 105.19112"
       id="path937-6-9-7" />
    <path
       style="fill:none;stroke:#000000;stroke-width:0.123104px;stroke-linecap:butt;stroke-linejoin:miter;stroke-opacity:1"
       d="m 95.108286,96.598152 h 6.416354"
       id="path937-9-0-5-7" />
    <path
       style="fill:none;stroke:#000000;stroke-width:0.123104px;stroke-linecap:butt;stroke-linejoin:miter;stroke-opacity:1"
       d="m 95.108286,95.476851 h 6.416354"
       id="path937-9-8-7-5-1" />
    <path
       style="fill:none;stroke:#000000;stroke-width:0.123104px;stroke-linecap:butt;stroke-linejoin:miter;stroke-opacity:1"
       d="m 95.108286,94.355541 h 6.416354"
       id="path937-9-7-6-6-5" />
    <path
       style="fill:none;stroke:#000000;stroke-width:0.123104px;stroke-linecap:butt;stroke-linejoin:miter;stroke-opacity:1"
       d="m 95.108286,93.234243 h 6.416354"
       id="path937-9-8-4-2-3-5" />
    <path
       style="fill:none;stroke:#000000;stroke-width:0.446186;stroke-linecap:butt;stroke-linejoin:miter;stroke-miterlimit:4;stroke-dasharray:none;stroke-opacity:1"
       d="M 95.108286,92.112938 H 105.19112"
       id="path937-1" />
    <path
       style="fill:none;stroke:#000000;stroke-width:0.123104px;stroke-linecap:butt;stroke-linejoin:miter;stroke-opacity:1"
       d="m 95.108286,90.991641 h 6.416354"
       id="path937-9-3" />
    <path
       style="fill:none;stroke:#000000;stroke-width:0.123104px;stroke-linecap:butt;stroke-linejoin:miter;stroke-opacity:1"
       d="m 95.108286,89.870336 h 6.416354"
       id="path937-9-8-71" />
    <path
       style="fill:none;stroke:#000000;stroke-width:0.123104px;stroke-linecap:butt;stroke-linejoin:miter;stroke-opacity:1"
       d="m 95.108286,88.749034 h 6.416354"
       id="path937-9-7-0" />
    <path
       style="fill:none;stroke:#000000;stroke-width:0.123104px;stroke-linecap:butt;stroke-linejoin:miter;stroke-opacity:1"
       d="m 95.108286,87.627731 h 6.416354"
       id="path937-9-8-4-7" />
    <path
       style="fill:none;stroke:#000000;stroke-width:0.446186;stroke-linecap:butt;stroke-linejoin:miter;stroke-miterlimit:4;stroke-dasharray:none;stroke-opacity:1"
       d="M 95.108286,86.506426 H 105.19112"
       id="path937-6-5" />
    <path
       style="fill:none;stroke:#000000;stroke-width:0.123104px;stroke-linecap:butt;stroke-linejoin:miter;stroke-opacity:1"
       d="m 95.108286,85.385129 h 6.416354"
       id="path937-9-0-9" />
    <path
       style="fill:none;stroke:#000000;stroke-width:0.123104px;stroke-linecap:butt;stroke-linejoin:miter;stroke-opacity:1"
       d="m 95.108286,84.263822 h 6.416354"
       id="path937-9-8-7-3" />
    <path
       style="fill:none;stroke:#000000;stroke-width:0.123104px;stroke-linecap:butt;stroke-linejoin:miter;stroke-opacity:1"
       d="m 95.108286,83.14252 h 6.416354"
       id="path937-9-7-6-0" />
    <path
       style="fill:none;stroke:#000000;stroke-width:0.123104px;stroke-linecap:butt;stroke-linejoin:miter;stroke-opacity:1"
       d="m 95.108286,82.021219 h 6.416354"
       id="path937-9-8-4-2-0" />
    <path
       style="fill:none;stroke:#000000;stroke-width:0.446186;stroke-linecap:butt;stroke-linejoin:miter;stroke-miterlimit:4;stroke-dasharray:none;stroke-opacity:1"
       d="M 95.108286,80.899914 H 105.19112"
       id="path937-2-46" />
    <path
       style="fill:none;stroke:#000000;stroke-width:0.123104px;stroke-linecap:butt;stroke-linejoin:miter;stroke-opacity:1"
       d="m 95.108286,79.778613 h 6.416354"
       id="path937-9-75-2" />
    <path
       style="fill:none;stroke:#000000;stroke-width:0.123104px;stroke-linecap:butt;stroke-linejoin:miter;stroke-opacity:1"
       d="m 95.108286,78.657309 h 6.416354"
       id="path937-9-8-3-2" />
    <path
       style="fill:none;stroke:#000000;stroke-width:0.123104px;stroke-linecap:butt;stroke-linejoin:miter;stroke-opacity:1"
       d="m 95.108286,77.53601 h 6.416354"
       id="path937-9-7-1-8" />
    <path
       style="fill:none;stroke:#000000;stroke-width:0.123104px;stroke-linecap:butt;stroke-linejoin:miter;stroke-opacity:1"
       d="m 95.108286,76.414705 h 6.416354"
       id="path937-9-8-4-8-0" />
    <path
       style="fill:none;stroke:#000000;stroke-width:0.446186;stroke-linecap:butt;stroke-linejoin:miter;stroke-miterlimit:4;stroke-dasharray:none;stroke-opacity:1"
       d="M 95.108286,75.293404 H 105.19112"
       id="path937-6-9-4" />
    <path
       style="fill:none;stroke:#000000;stroke-width:0.123104px;stroke-linecap:butt;stroke-linejoin:miter;stroke-opacity:1"
       d="m 95.108286,74.1721 h 6.416354"
       id="path937-9-0-5-6" />
    <path
       style="fill:none;stroke:#000000;stroke-width:0.123104px;stroke-linecap:butt;stroke-linejoin:miter;stroke-opacity:1"
       d="m 95.108286,73.050799 h 6.416354"
       id="path937-9-8-7-5-5" />
    <path
       style="fill:none;stroke:#000000;stroke-width:0.123104px;stroke-linecap:butt;stroke-linejoin:miter;stroke-opacity:1"
       d="m 95.108286,71.929495 h 6.416354"
       id="path937-9-7-6-6-0" />
    <path
       style="fill:none;stroke:#000000;stroke-width:0.123104px;stroke-linecap:butt;stroke-linejoin:miter;stroke-opacity:1"
       d="m 95.108286,70.808191 h 6.416354"
       id="path937-9-8-4-2-3-3" />
    <path
       style="fill:none;stroke:#000000;stroke-width:0.446186;stroke-linecap:butt;stroke-linejoin:miter;stroke-miterlimit:4;stroke-dasharray:none;stroke-opacity:1"
       d="M 95.108286,69.686891 H 105.19112"
       id="path937-4-7" />
    <path
       style="fill:none;stroke:#000000;stroke-width:0.123104px;stroke-linecap:butt;stroke-linejoin:miter;stroke-opacity:1"
       d="m 95.108286,68.565588 h 6.416354"
       id="path937-9-2-9" />
    <path
       style="fill:none;stroke:#000000;stroke-width:0.123104px;stroke-linecap:butt;stroke-linejoin:miter;stroke-opacity:1"
       d="m 95.108286,67.444287 h 6.416354"
       id="path937-9-8-0-1" />
    <path
       style="fill:none;stroke:#000000;stroke-width:0.123104px;stroke-linecap:butt;stroke-linejoin:miter;stroke-opacity:1"
       d="m 95.108286,66.322982 h 6.416354"
       id="path937-9-7-4-5" />
    <path
       style="fill:none;stroke:#000000;stroke-width:0.123104px;stroke-linecap:butt;stroke-linejoin:miter;stroke-opacity:1"
       d="m 95.108286,65.20168 h 6.416354"
       id="path937-9-8-4-3-0" />
    <path
       style="fill:none;stroke:#000000;stroke-width:0.446186;stroke-linecap:butt;stroke-linejoin:miter;stroke-miterlimit:4;stroke-dasharray:none;stroke-opacity:1"
       d="M 95.108286,64.080378 H 105.19112"
       id="path937-6-96-7" />
    <path
       style="fill:none;stroke:#000000;stroke-width:0.123104px;stroke-linecap:butt;stroke-linejoin:miter;stroke-opacity:1"
       d="m 95.108286,62.959075 h 6.416354"
       id="path937-9-0-7-6" />
    <path
       style="fill:none;stroke:#000000;stroke-width:0.123104px;stroke-linecap:butt;stroke-linejoin:miter;stroke-opacity:1"
       d="m 95.108286,61.837773 h 6.416354"
       id="path937-9-8-7-4-7" />
    <path
       style="fill:none;stroke:#000000;stroke-width:0.123104px;stroke-linecap:butt;stroke-linejoin:miter;stroke-opacity:1"
       d="m 95.108286,60.716471 h 6.416354"
       id="path937-9-7-6-5-9" />
    <path
       style="fill:none;stroke:#000000;stroke-width:0.123104px;stroke-linecap:butt;stroke-linejoin:miter;stroke-opacity:1"
       d="m 95.108286,59.595169 h 6.416354"
       id="path937-9-8-4-2-7-1" />
    <path
       style="fill:none;stroke:#000000;stroke-width:0.446186;stroke-linecap:butt;stroke-linejoin:miter;stroke-miterlimit:4;stroke-dasharray:none;stroke-opacity:1"
       d="M 95.108286,58.473865 H 105.19112"
       id="path937-2-4-8" />
    <path
       style="fill:none;stroke:#000000;stroke-width:0.123104px;stroke-linecap:butt;stroke-linejoin:miter;stroke-opacity:1"
       d="m 95.108286,57.352562 h 6.416354"
       id="path937-9-75-9-9" />
    <path
       style="fill:none;stroke:#000000;stroke-width:0.123104px;stroke-linecap:butt;stroke-linejoin:miter;stroke-opacity:1"
       d="m 95.108286,56.23126 h 6.416354"
       id="path937-9-8-3-8-7" />
    <path
       style="fill:none;stroke:#000000;stroke-width:0.123104px;stroke-linecap:butt;stroke-linejoin:miter;stroke-opacity:1"
       d="m 95.108286,55.109958 h 6.416354"
       id="path937-9-7-1-4-7" />
    <path
       style="fill:none;stroke:#000000;stroke-width:0.123104px;stroke-linecap:butt;stroke-linejoin:miter;stroke-opacity:1"
       d="m 95.108286,53.988656 h 6.416354"
       id="path937-9-8-4-8-5-7" />
    <path
       style="fill:none;stroke:#000000;stroke-width:0.446186;stroke-linecap:butt;stroke-linejoin:miter;stroke-miterlimit:4;stroke-dasharray:none;stroke-opacity:1"
       d="M 95.108286,52.867354 H 105.19112"
       id="path937-6-9-7-6" />
    <path
       style="fill:none;stroke:#000000;stroke-width:0.123104px;stroke-linecap:butt;stroke-linejoin:miter;stroke-opacity:1"
       d="m 95.108286,51.746051 h 6.416354"
       id="path937-9-0-5-7-1" />
    <path
       style="fill:none;stroke:#000000;stroke-width:0.123104px;stroke-linecap:butt;stroke-linejoin:miter;stroke-opacity:1"
       d="m 95.108286,50.624748 h 6.416354"
       id="path937-9-8-7-5-1-3" />
    <path
       style="fill:none;stroke:#000000;stroke-width:0.123104px;stroke-linecap:butt;stroke-linejoin:miter;stroke-opacity:1"
       d="m 95.108286,49.503446 h 6.416354"
       id="path937-9-7-6-6-5-8" />
    <path
       style="fill:none;stroke:#000000;stroke-width:0.123104px;stroke-linecap:butt;stroke-linejoin:miter;stroke-opacity:1"
       d="m 95.108286,48.382143 h 6.416354"
       id="path937-9-8-4-2-3-5-1" />
    <path
       id="rect1807"
       style="fill:#000000;stroke:none;stroke-width:0.694443;stroke-miterlimit:4;stroke-dasharray:none"
       d="M 89.982212,103.09864 H 111.60747 V 217.27025 H 89.982212 Z" />
    <g
       aria-label="0"
       transform="matrix(0.78791059,0,0,0.75901719,35.569896,3.5303123)"
       id="text1389"
       style="font-style:normal;font-variant:normal;font-weight:normal;font-stretch:normal;font-size:4.35855px;line-height:1.25;font-family:'MS 33558';-inkscape-font-specification:'MS 33558, Normal';font-variant-ligatures:normal;font-variant-caps:normal;font-variant-numeric:normal;font-variant-east-asian:normal;fill:#ffffff;stroke-width:0.326891">
      <path
         d="m 90.906525,128.93742 q 0.476716,0 0.77892,0.39585 0.302204,0.39584 0.419255,0.80446 0.04895,0.17877 0.08513,0.37456 0.108538,0.581 0,1.27266 -0.10641,0.69167 -0.508639,1.1471 -0.323486,0.36392 -0.749126,0.36392 -0.653357,0 -0.983228,-0.68102 -0.327742,-0.68102 -0.331998,-1.49825 -0.0021,-0.81723 0.319229,-1.49825 0.321358,-0.68103 0.970459,-0.68103 z m 0.0149,0.60228 q -0.253256,0.0511 -0.402229,0.28944 -0.146846,0.23836 -0.217077,0.54269 -0.07023,0.30433 -0.07662,0.61505 -0.0064,0.31072 0.02341,0.50438 0.02554,0.18303 0.121308,0.47246 0.09577,0.28731 0.240486,0.49587 0.146846,0.20644 0.334127,0.23836 0.187282,0.0298 0.397973,-0.3022 0.159615,-0.25539 0.238359,-0.6491 0.07874,-0.39372 0.05533,-0.80446 -0.02341,-0.41074 -0.157487,-0.77467 -0.131948,-0.36392 -0.391588,-0.56184 -0.07874,-0.0553 -0.148974,-0.066 -0.0021,0 -0.0064,0 -0.0021,0 -0.01064,0 z"
         style="font-style:normal;font-variant:normal;font-weight:normal;font-stretch:normal;font-size:4.35855px;font-family:'MS 33558';-inkscape-font-specification:'MS 33558, Normal';font-variant-ligatures:normal;font-variant-caps:normal;font-variant-numeric:normal;font-variant-east-asian:normal;fill:#ffffff;stroke-width:0.326891"
         id="path2631" />
    </g>
    <g
       aria-label=".5"
       transform="matrix(0.74916807,0,0,0.79826902,35.569896,3.5303123)"
       id="text1393"
       style="font-style:normal;font-variant:normal;font-weight:normal;font-stretch:normal;font-size:2.16972px;line-height:1.25;font-family:'MS 33558';-inkscape-font-specification:'MS 33558, Normal';font-variant-ligatures:normal;font-variant-caps:normal;font-variant-numeric:normal;font-variant-east-asian:normal;stroke-width:0.162728">
      <path
         d="m 94.543335,119.02535 q 0,0.0551 -0.04026,0.0932 -0.03602,0.0276 -0.07416,0.0276 -0.03814,0 -0.07204,-0.0276 -0.03814,-0.036 -0.03814,-0.0932 0,-0.0593 0.03178,-0.1017 0.03178,-0.0403 0.0784,-0.0403 0.04662,0 0.08264,0.0403 0.03178,0.0424 0.03178,0.1017 z"
         style="font-style:normal;font-variant:normal;font-weight:normal;font-stretch:normal;font-size:2.16972px;font-family:'MS 33558';-inkscape-font-specification:'MS 33558, Normal';font-variant-ligatures:normal;font-variant-caps:normal;font-variant-numeric:normal;font-variant-east-asian:normal;stroke-width:0.162728"
         id="path2626" />
      <path
         d="m 95.003129,118.69481 q -0.0032,-0.003 -0.01165,-0.017 -0.0074,-0.0148 -0.0085,-0.0191 -0.01907,-0.0657 0.01483,-0.12501 0.01377,-0.0244 0.0392,-0.0434 0.04662,-0.035 0.109122,-0.0233 0.06251,0.0106 0.09535,0.0583 0.156796,0.20977 0.414238,0.17163 0.258502,-0.0392 0.334782,-0.29558 0.03708,-0.12396 -0.0064,-0.25956 -0.04238,-0.13667 -0.155737,-0.20765 -0.122894,-0.0773 -0.240491,-0.0773 -0.122895,0 -0.226719,0.0657 -0.0286,0.0191 -0.05403,0.0392 -0.0339,0.0265 -0.0678,0.0318 -0.0678,0.0117 -0.119716,-0.0318 -0.05191,-0.0445 -0.05191,-0.11336 v -0.87615 q 0,-0.0117 0.0032,-0.0265 0.0032,-0.0159 0.0042,-0.0201 0.03284,-0.0996 0.138786,-0.0996 h 0.69075 v 0 q 0.06039,0 0.104884,0.0445 0.0678,0.0689 0.0286,0.15891 -0.03814,0.09 -0.133489,0.09 h -0.544548 v 0.48099 q 0,0 0.01589,-0.005 0.277572,-0.0858 0.537133,0.0487 0.259561,0.13349 0.351732,0.41 0.01695,0.054 0.03072,0.13137 0.02649,0.16421 -0.0339,0.32843 -0.05933,0.16315 -0.174806,0.27757 -0.173747,0.17375 -0.424833,0.19917 -0.251086,0.0254 -0.457675,-0.10488 -0.04873,-0.0297 -0.1123,-0.0848 -0.06357,-0.0551 -0.08899,-0.10594 z"
         style="font-style:normal;font-variant:normal;font-weight:normal;font-stretch:normal;font-size:2.16972px;font-family:'MS 33558';-inkscape-font-specification:'MS 33558, Normal';font-variant-ligatures:normal;font-variant-caps:normal;font-variant-numeric:normal;font-variant-east-asian:normal;stroke-width:0.162728"
         id="path2628" />
    </g>
    <g
       aria-label="1"
       transform="matrix(0.74916807,0,0,0.79826902,35.569896,3.5303123)"
       id="text1397"
       style="font-size:2.16972px;line-height:1.25;font-family:'MS 33558';-inkscape-font-specification:'MS 33558, Normal';stroke-width:0.162728">
      <path
         d="m 94.619605,111.70258 q 0,0.0138 -0.0032,0.0297 -0.02543,0.11972 -0.14832,0.11972 -0.09005,0 -0.133489,-0.0837 -0.0095,-0.0159 -0.01589,-0.0657 v -1.86884 q 0.0032,-0.0254 0.0074,-0.0477 0.0053,-0.0233 0.02331,-0.0445 0.04238,-0.0519 0.109122,-0.0562 0.06674,-0.005 0.115478,0.0424 0.02543,0.0254 0.03284,0.0487 0.0074,0.0233 0.01271,0.0572 z"
         style="stroke-width:0.162728"
         id="path2623" />
    </g>
    <g
       aria-label="2"
       transform="matrix(0.74916807,0,0,0.79826902,35.569896,3.5303123)"
       id="text1401"
       style="font-size:2.16972px;line-height:1.25;font-family:'MS 33558';-inkscape-font-specification:'MS 33558, Normal';stroke-width:0.162728">
      <path
         d="m 94.469165,97.890161 q -0.06251,0 -0.107003,-0.04344 -0.04344,-0.04344 -0.04344,-0.107003 0,-0.0021 0.01059,-0.06674 0.01165,-0.06569 0.01377,-0.07522 0.05403,-0.259561 0.209767,-0.493696 0.156797,-0.234135 0.378218,-0.383515 0.0784,-0.05297 0.141964,-0.110181 0.06463,-0.05827 0.13137,-0.13031 0.08581,-0.09747 0.07416,-0.221422 -0.01059,-0.123954 -0.122894,-0.195995 -0.137726,-0.08581 -0.27969,-0.0042 -0.141964,0.08158 -0.135608,0.24367 0,0.0032 0,0.0074 0.0011,0.0032 0.0011,0.0064 0.0064,0.04873 -0.02331,0.09535 -0.02966,0.04556 -0.07522,0.05933 -0.06992,0.02225 -0.13031,-0.01377 -0.05933,-0.03602 -0.0678,-0.105943 -0.0032,-0.0095 -0.0011,-0.0784 0.0032,-0.06886 0.0064,-0.08052 0.04767,-0.260621 0.273334,-0.391991 0.226719,-0.132429 0.477805,-0.04662 0.297701,0.103825 0.363385,0.405763 0.06569,0.301939 -0.141964,0.527598 -0.04238,0.04556 -0.08581,0.09005 -0.04238,0.04344 -0.09111,0.0837 -0.07628,0.06357 -0.161034,0.117597 -0.08369,0.05403 -0.15044,0.127132 -0.07628,0.08476 -0.144082,0.186461 -0.06674,0.101705 -0.105944,0.208708 -0.0032,0.0064 -0.01695,0.04662 -0.01271,0.04026 -0.01271,0.04344 h 0.7861 q 0.146202,0.0095 0.141964,0.154677 -0.0042,0.145143 -0.147261,0.145143 z"
         style="stroke-width:0.162728"
         id="path2620" />
    </g>
    <g
       aria-label="3"
       transform="matrix(0.74916807,0,0,0.79826902,35.569896,3.5303123)"
       id="text1405"
       style="font-size:2.16972px;line-height:1.25;font-family:'MS 33558';-inkscape-font-specification:'MS 33558, Normal';stroke-width:0.162728">
      <path
         d="m 95.455498,83.236219 q -0.0011,-0.06463 0.0021,-0.117597 0.0042,-0.05403 -0.02331,-0.119716 -0.06886,-0.158915 -0.214005,-0.230956 -0.144083,-0.07204 -0.312533,-0.02437 -0.0021,0.0021 -0.0064,0.0021 -0.0085,0.0042 -0.02013,0.0064 -0.05085,0.01059 -0.09535,-0.01271 -0.05085,-0.02331 -0.07416,-0.08476 -0.0032,-0.0074 -0.0074,-0.03072 -0.01271,-0.06886 0.03178,-0.11336 l 0.405763,-0.501112 h -0.501112 q -0.06992,0 -0.115478,-0.05191 -0.04556,-0.05297 -0.03284,-0.122894 0.02013,-0.125014 0.147261,-0.125014 h 0.816823 q 0.126073,0 0.148321,0.129251 0.01059,0.07098 -0.03178,0.114419 l -0.394109,0.48628 q 0.01589,0.0032 0.03178,0.0085 0.01695,0.0042 0.03284,0.0074 0.0095,0.0032 0.01165,0.0032 0.216124,0.0731 0.348553,0.24367 0.133489,0.170568 0.155737,0.396228 0.01695,0.169509 -0.05297,0.331603 -0.06886,0.161033 -0.194936,0.271215 -0.203411,0.177984 -0.469329,0.177984 -0.270156,0 -0.470389,-0.166331 -0.199173,-0.166331 -0.251086,-0.42907 -0.0011,-0.0011 -0.0021,-0.02225 0,-0.02119 0,-0.02649 0.02649,-0.127132 0.151499,-0.127132 0.02966,0 0.08052,0.02437 0.01907,0.01059 0.04132,0.04344 0.02331,0.03178 0.02331,0.05403 0,0.01165 0.01483,0.06145 0.01589,0.04979 0.04026,0.08475 0.175865,0.263799 0.487339,0.186461 0.08687,-0.02225 0.169509,-0.09959 0.0837,-0.07734 0.109122,-0.164212 0.0011,-0.0042 0.0095,-0.03284 0.0095,-0.0286 0.0095,-0.02966 z"
         style="stroke-width:0.162728"
         id="path2617" />
    </g>
    <g
       aria-label="2.5"
       transform="matrix(0.74916807,0,0,0.79826902,35.569896,3.5303123)"
       id="text1409"
       style="font-size:2.16972px;line-height:1.25;font-family:'MS 33558';-inkscape-font-specification:'MS 33558, Normal';stroke-width:0.162728">
      <path
         d="m 94.469165,90.86036 q -0.06251,0 -0.107003,-0.04344 -0.04344,-0.04344 -0.04344,-0.107002 0,-0.0021 0.01059,-0.06674 0.01165,-0.06569 0.01377,-0.07522 0.05403,-0.259562 0.209767,-0.493696 0.156797,-0.234135 0.378218,-0.383515 0.0784,-0.05297 0.141964,-0.110181 0.06463,-0.05827 0.13137,-0.130311 0.08581,-0.09747 0.07416,-0.221421 -0.01059,-0.123954 -0.122894,-0.195996 -0.137726,-0.08581 -0.27969,-0.0042 -0.141964,0.08158 -0.135608,0.243669 0,0.0032 0,0.0074 0.0011,0.0032 0.0011,0.0064 0.0064,0.04873 -0.02331,0.09535 -0.02966,0.04556 -0.07522,0.05933 -0.06992,0.02225 -0.13031,-0.01377 -0.05933,-0.03602 -0.0678,-0.105944 -0.0032,-0.0095 -0.0011,-0.0784 0.0032,-0.06886 0.0064,-0.08052 0.04767,-0.26062 0.273334,-0.39199 0.226719,-0.132429 0.477805,-0.04662 0.297701,0.103824 0.363385,0.405763 0.06569,0.301938 -0.141964,0.527598 -0.04238,0.04555 -0.08581,0.09005 -0.04238,0.04344 -0.09111,0.08369 -0.07628,0.06357 -0.161034,0.117597 -0.08369,0.05403 -0.15044,0.127132 -0.07628,0.08476 -0.144082,0.18646 -0.06674,0.101706 -0.105944,0.208709 -0.0032,0.0064 -0.01695,0.04662 -0.01271,0.04026 -0.01271,0.04344 h 0.7861 q 0.146202,0.0095 0.141964,0.154677 -0.0042,0.145142 -0.147261,0.145142 z"
         style="stroke-width:0.162728"
         id="path2610" />
      <path
         d="m 96.524466,90.891084 q 0,0.05509 -0.04026,0.09323 -0.03602,0.02755 -0.07416,0.02755 -0.03814,0 -0.07204,-0.02755 -0.03814,-0.03602 -0.03814,-0.09323 0,-0.05933 0.03178,-0.101706 0.03178,-0.04026 0.0784,-0.04026 0.04661,0 0.08264,0.04026 0.03178,0.04238 0.03178,0.101706 z"
         style="stroke-width:0.162728"
         id="path2612" />
      <path
         d="m 96.98426,90.560541 q -0.0032,-0.0032 -0.01165,-0.01695 -0.0074,-0.01483 -0.0085,-0.01907 -0.01907,-0.06569 0.01483,-0.125013 0.01377,-0.02437 0.0392,-0.04344 0.04662,-0.03496 0.109122,-0.02331 0.06251,0.01059 0.09535,0.05827 0.156796,0.209768 0.414238,0.171628 0.258502,-0.0392 0.334781,-0.295582 0.03708,-0.123953 -0.0064,-0.259561 -0.04238,-0.136667 -0.155737,-0.207649 -0.122894,-0.07734 -0.240491,-0.07734 -0.122895,0 -0.226719,0.06568 -0.0286,0.01907 -0.05403,0.0392 -0.0339,0.02648 -0.0678,0.03178 -0.0678,0.01165 -0.119716,-0.03178 -0.05191,-0.0445 -0.05191,-0.11336 v -0.876151 q 0,-0.01165 0.0032,-0.02649 0.0032,-0.01589 0.0042,-0.02013 0.03284,-0.09959 0.138786,-0.09959 h 0.69075 v 0 q 0.06039,0 0.104884,0.0445 0.0678,0.06886 0.0286,0.158915 -0.03814,0.09005 -0.133489,0.09005 H 97.34121 v 0.480983 q 0,0 0.01589,-0.0053 0.277572,-0.08581 0.537133,0.04873 0.259561,0.133489 0.351732,0.410001 0.01695,0.05403 0.03072,0.13137 0.02649,0.164212 -0.0339,0.328424 -0.05933,0.163153 -0.174806,0.277572 -0.173747,0.173747 -0.424833,0.199174 -0.251086,0.02543 -0.457675,-0.104884 -0.04873,-0.02966 -0.1123,-0.08476 -0.06357,-0.05509 -0.08899,-0.105943 z"
         style="stroke-width:0.162728"
         id="path2614" />
    </g>
    <g
       aria-label="1.5"
       transform="matrix(0.74916807,0,0,0.79826902,35.569896,3.5303123)"
       id="text1413"
       style="font-size:2.16972px;line-height:1.25;font-family:'MS 33558';-inkscape-font-specification:'MS 33558, Normal';stroke-width:0.162728">
      <path
         d="m 94.619605,104.74723 q 0,0.0138 -0.0032,0.0297 -0.02543,0.11972 -0.14832,0.11972 -0.09005,0 -0.133489,-0.0837 -0.0095,-0.0159 -0.01589,-0.0657 v -1.86884 q 0.0032,-0.0254 0.0074,-0.0477 0.0053,-0.0233 0.02331,-0.0445 0.04238,-0.0519 0.109122,-0.0562 0.06674,-0.005 0.115478,0.0424 0.02543,0.0254 0.03284,0.0487 0.0074,0.0233 0.01271,0.0572 z"
         style="stroke-width:0.162728"
         id="path2603" />
      <path
         d="m 95.613353,104.92733 q 0,0.0551 -0.04026,0.0932 -0.03602,0.0275 -0.07416,0.0275 -0.03814,0 -0.07204,-0.0275 -0.03814,-0.036 -0.03814,-0.0932 0,-0.0593 0.03178,-0.1017 0.03178,-0.0403 0.0784,-0.0403 0.04662,0 0.08263,0.0403 0.03178,0.0424 0.03178,0.1017 z"
         style="stroke-width:0.162728"
         id="path2605" />
      <path
         d="m 96.073148,104.59679 q -0.0032,-0.003 -0.01165,-0.0169 -0.0074,-0.0148 -0.0085,-0.0191 -0.01907,-0.0657 0.01483,-0.12502 0.01377,-0.0244 0.0392,-0.0434 0.04662,-0.035 0.109122,-0.0233 0.06251,0.0106 0.09535,0.0583 0.156796,0.20977 0.414239,0.17163 0.258501,-0.0392 0.334781,-0.29559 0.03708,-0.12395 -0.0064,-0.25956 -0.04238,-0.13666 -0.155737,-0.20765 -0.122894,-0.0773 -0.240491,-0.0773 -0.122894,0 -0.226719,0.0657 -0.0286,0.0191 -0.05403,0.0392 -0.0339,0.0265 -0.0678,0.0318 -0.0678,0.0117 -0.119716,-0.0318 -0.05191,-0.0445 -0.05191,-0.11336 v -0.87615 q 0,-0.0117 0.0032,-0.0265 0.0032,-0.0159 0.0042,-0.0201 0.03284,-0.0996 0.138786,-0.0996 h 0.690751 v 0 q 0.06039,0 0.104883,0.0445 0.0678,0.0689 0.0286,0.15892 -0.03814,0.0901 -0.133488,0.0901 H 96.4301 v 0.48098 q 0,0 0.01589,-0.005 0.277572,-0.0858 0.537133,0.0487 0.259561,0.13349 0.351732,0.41 0.01695,0.054 0.03072,0.13137 0.02649,0.16421 -0.0339,0.32842 -0.05933,0.16316 -0.174807,0.27758 -0.173747,0.17374 -0.424833,0.19917 -0.251085,0.0254 -0.457675,-0.10488 -0.04873,-0.0297 -0.1123,-0.0848 -0.06357,-0.0551 -0.08899,-0.10594 z"
         style="stroke-width:0.162728"
         id="path2607" />
    </g>
    <g
       aria-label="3.5"
       transform="matrix(0.74916807,0,0,0.79826902,35.569896,3.5303123)"
       id="text1417"
       style="font-size:2.16972px;line-height:1.25;font-family:'MS 33558';-inkscape-font-specification:'MS 33558, Normal';stroke-width:0.162728">
      <path
         d="m 95.455498,76.049604 q -0.0011,-0.06463 0.0021,-0.117597 0.0042,-0.05403 -0.02331,-0.119716 -0.06886,-0.158915 -0.214005,-0.230956 -0.144083,-0.07204 -0.312533,-0.02437 -0.0021,0.0021 -0.0064,0.0021 -0.0085,0.0042 -0.02013,0.0064 -0.05085,0.01059 -0.09535,-0.01271 -0.05085,-0.02331 -0.07416,-0.08476 -0.0032,-0.0074 -0.0074,-0.03072 -0.01271,-0.06886 0.03178,-0.11336 l 0.405763,-0.501112 h -0.501112 q -0.06992,0 -0.115478,-0.05191 -0.04556,-0.05297 -0.03284,-0.122894 0.02013,-0.125014 0.147261,-0.125014 h 0.816823 q 0.126073,0 0.148321,0.129251 0.01059,0.07098 -0.03178,0.114419 l -0.394109,0.48628 q 0.01589,0.0032 0.03178,0.0085 0.01695,0.0042 0.03284,0.0074 0.0095,0.0032 0.01165,0.0032 0.216124,0.0731 0.348553,0.24367 0.133489,0.170568 0.155737,0.396228 0.01695,0.169509 -0.05297,0.331603 -0.06886,0.161033 -0.194936,0.271215 -0.203411,0.177984 -0.469329,0.177984 -0.270156,0 -0.470389,-0.166331 -0.199173,-0.166331 -0.251086,-0.42907 -0.0011,-0.0011 -0.0021,-0.02225 0,-0.02119 0,-0.02649 0.02649,-0.127132 0.151499,-0.127132 0.02966,0 0.08052,0.02437 0.01907,0.01059 0.04132,0.04344 0.02331,0.03178 0.02331,0.05403 0,0.01165 0.01483,0.06145 0.01589,0.04979 0.04026,0.08475 0.175865,0.263799 0.487339,0.186461 0.08687,-0.02225 0.169509,-0.09959 0.0837,-0.07734 0.109122,-0.164212 0.0011,-0.0042 0.0095,-0.03284 0.0095,-0.0286 0.0095,-0.02966 z"
         style="stroke-width:0.162728"
         id="path2596" />
      <path
         d="m 96.711986,76.722344 q 0,0.05509 -0.04026,0.09323 -0.03602,0.02755 -0.07416,0.02755 -0.03814,0 -0.07204,-0.02755 -0.03814,-0.03602 -0.03814,-0.09323 0,-0.05933 0.03178,-0.101705 0.03178,-0.04026 0.0784,-0.04026 0.04662,0 0.08264,0.04026 0.03178,0.04238 0.03178,0.101705 z"
         style="stroke-width:0.162728"
         id="path2598" />
      <path
         d="m 97.17178,76.391801 q -0.0032,-0.0032 -0.01165,-0.01695 -0.0074,-0.01483 -0.0085,-0.01907 -0.01907,-0.06568 0.01483,-0.125013 0.01377,-0.02437 0.0392,-0.04344 0.04662,-0.03496 0.109122,-0.02331 0.06251,0.01059 0.09535,0.05827 0.156796,0.209768 0.414238,0.171628 0.258502,-0.0392 0.334781,-0.295582 0.03708,-0.123954 -0.0064,-0.259561 -0.04238,-0.136667 -0.155737,-0.207649 -0.122894,-0.07734 -0.240492,-0.07734 -0.122894,0 -0.226718,0.06569 -0.0286,0.01907 -0.05403,0.0392 -0.0339,0.02649 -0.0678,0.03178 -0.0678,0.01165 -0.119716,-0.03178 -0.05191,-0.0445 -0.05191,-0.113359 v -0.876152 q 0,-0.01165 0.0032,-0.02649 0.0032,-0.01589 0.0042,-0.02013 0.03284,-0.09959 0.138785,-0.09959 h 0.690751 v 0 q 0.06039,0 0.104884,0.0445 0.0678,0.06886 0.0286,0.158915 -0.03814,0.09005 -0.133489,0.09005 H 97.52873 V 75.2974 q 0,0 0.01589,-0.0053 0.277571,-0.08581 0.537133,0.04873 0.259561,0.133489 0.351732,0.410001 0.01695,0.05403 0.03072,0.13137 0.02649,0.164212 -0.0339,0.328424 -0.05933,0.163153 -0.174806,0.277572 -0.173747,0.173747 -0.424833,0.199173 -0.251086,0.02543 -0.457675,-0.104884 -0.04873,-0.02966 -0.1123,-0.08475 -0.06357,-0.05509 -0.08899,-0.105944 z"
         style="stroke-width:0.162728"
         id="path2600" />
    </g>
    <g
       aria-label="4"
       transform="matrix(0.74916807,0,0,0.79826902,35.569896,3.5303123)"
       id="text1421"
       style="font-size:2.16972px;line-height:1.25;font-family:'MS 33558';-inkscape-font-specification:'MS 33558, Normal';stroke-width:0.162728">
      <path
         d="m 94.46822,69.230565 q -0.07628,0 -0.120775,-0.06145 -0.04344,-0.06145 -0.02119,-0.134548 l 0.475686,-1.481088 q 0,-0.0011 0,-0.0032 0.0011,-0.0021 0.0021,-0.0042 0.02648,-0.0678 0.09217,-0.08899 0.06569,-0.02119 0.129251,0.01589 0.09853,0.06145 0.06145,0.172687 l -0.413179,1.285093 h 0.518063 V 68.49108 q 0,-0.09535 0.08581,-0.135607 0.08582,-0.04026 0.158915,0.01801 0.05509,0.0445 0.05509,0.117597 v 0.439665 h 0.274393 q 0.0731,0 0.110181,0.04767 0.03708,0.04662 0.03708,0.102765 0,0.05615 -0.03708,0.102765 -0.03708,0.04662 -0.110181,0.04662 h -0.274393 q 0,0.01377 0,0.126073 0,0.1123 0,0.113359 0,0.09217 -0.0784,0.13137 -0.07628,0.03602 -0.14938,-0.0042 -0.07204,-0.04026 -0.07098,-0.127132 0,-0.0074 -0.0011,-0.116538 0,-0.109121 0,-0.122894 z"
         style="stroke-width:0.162728"
         id="path2593" />
    </g>
    <g
       aria-label="4.5"
       transform="matrix(0.74916807,0,0,0.79826902,35.569896,3.5303123)"
       id="text1425"
       style="font-size:2.16972px;line-height:1.25;font-family:'MS 33558';-inkscape-font-specification:'MS 33558, Normal';stroke-width:0.162728">
      <path
         d="m 94.46822,62.222409 q -0.07628,0 -0.120775,-0.06145 -0.04344,-0.06145 -0.02119,-0.134548 l 0.475686,-1.481088 q 0,-0.0011 0,-0.0032 0.0011,-0.0021 0.0021,-0.0042 0.02648,-0.0678 0.09217,-0.08899 0.06569,-0.02119 0.129251,0.01589 0.09853,0.06145 0.06145,0.172688 l -0.413179,1.285092 h 0.518063 v -0.439664 q 0,-0.09535 0.08581,-0.135608 0.08582,-0.04026 0.158915,0.01801 0.05509,0.0445 0.05509,0.117598 v 0.439664 h 0.274393 q 0.0731,0 0.110181,0.04767 0.03708,0.04662 0.03708,0.102765 0,0.05615 -0.03708,0.102765 -0.03708,0.04661 -0.110181,0.04661 h -0.274393 q 0,0.01377 0,0.126073 0,0.1123 0,0.113359 0,0.09217 -0.0784,0.13137 -0.07628,0.03602 -0.14938,-0.0042 -0.07204,-0.04026 -0.07098,-0.127132 0,-0.0074 -0.0011,-0.116538 0,-0.109121 0,-0.122894 z"
         style="stroke-width:0.162728"
         id="path2586" />
      <path
         d="m 96.832876,62.640885 q 0,0.05509 -0.04026,0.09323 -0.03602,0.02754 -0.07416,0.02754 -0.03814,0 -0.07204,-0.02754 -0.03814,-0.03602 -0.03814,-0.09323 0,-0.05933 0.03178,-0.101705 0.03178,-0.04026 0.0784,-0.04026 0.04662,0 0.08264,0.04026 0.03178,0.04238 0.03178,0.101705 z"
         style="stroke-width:0.162728"
         id="path2588" />
      <path
         d="m 97.29267,62.310342 q -0.0032,-0.0032 -0.01165,-0.01695 -0.0074,-0.01483 -0.0085,-0.01907 -0.01907,-0.06568 0.01483,-0.125013 0.01377,-0.02437 0.0392,-0.04344 0.04662,-0.03496 0.109122,-0.02331 0.06251,0.01059 0.09535,0.05827 0.156796,0.209768 0.414238,0.171628 0.258502,-0.0392 0.334781,-0.295582 0.03708,-0.123954 -0.0064,-0.259561 -0.04238,-0.136667 -0.155737,-0.207649 -0.122894,-0.07734 -0.240492,-0.07734 -0.122894,0 -0.226718,0.06569 -0.0286,0.01907 -0.05403,0.0392 -0.0339,0.02649 -0.0678,0.03178 -0.0678,0.01165 -0.119716,-0.03178 -0.05191,-0.0445 -0.05191,-0.113359 v -0.876152 q 0,-0.01165 0.0032,-0.02649 0.0032,-0.01589 0.0042,-0.02013 0.03284,-0.09959 0.138785,-0.09959 h 0.690751 v 0 q 0.06039,0 0.104884,0.0445 0.0678,0.06886 0.0286,0.158915 -0.03814,0.09005 -0.133489,0.09005 H 97.64962 v 0.480983 q 0,0 0.01589,-0.0053 0.277571,-0.08581 0.537132,0.04873 0.259562,0.133489 0.351732,0.410001 0.01695,0.05403 0.03072,0.13137 0.02649,0.164212 -0.0339,0.328424 -0.05933,0.163153 -0.174806,0.277572 -0.173748,0.173747 -0.424833,0.199173 -0.251086,0.02543 -0.457676,-0.104884 -0.04873,-0.02966 -0.1123,-0.08475 -0.06357,-0.05509 -0.08899,-0.105944 z"
         style="stroke-width:0.162728"
         id="path2590" />
    </g>
    <g
       aria-label="5"
       transform="matrix(0.74916807,0,0,0.79826902,35.569896,3.5303123)"
       id="text1429"
       style="font-size:2.16972px;line-height:1.25;font-family:'MS 33558';-inkscape-font-specification:'MS 33558, Normal';stroke-width:0.162728">
      <path
         d="m 94.345729,55.372701 q -0.0032,-0.0032 -0.01165,-0.01695 -0.0074,-0.01483 -0.0085,-0.01907 -0.01907,-0.06569 0.01483,-0.125013 0.01377,-0.02437 0.0392,-0.04344 0.04662,-0.03496 0.109122,-0.02331 0.06251,0.01059 0.09535,0.05827 0.156796,0.209768 0.414238,0.171628 0.258502,-0.0392 0.334781,-0.295582 0.03708,-0.123954 -0.0064,-0.259561 -0.04238,-0.136667 -0.155737,-0.207649 -0.122894,-0.07734 -0.240492,-0.07734 -0.122894,0 -0.226718,0.06569 -0.0286,0.01907 -0.05403,0.0392 -0.0339,0.02649 -0.0678,0.03178 -0.0678,0.01165 -0.119716,-0.03178 -0.05191,-0.0445 -0.05191,-0.113359 v -0.876152 q 0,-0.01165 0.0032,-0.02649 0.0032,-0.01589 0.0042,-0.02013 0.03284,-0.09959 0.138785,-0.09959 h 0.690751 v 0 q 0.06039,0 0.104884,0.0445 0.0678,0.06886 0.0286,0.158915 -0.03814,0.09005 -0.133489,0.09005 h -0.544549 v 0.480983 q 0,0 0.01589,-0.0053 0.277571,-0.08581 0.537133,0.04873 0.259561,0.133489 0.351732,0.410001 0.01695,0.05403 0.03072,0.131369 0.02649,0.164213 -0.0339,0.328425 -0.05933,0.163153 -0.174806,0.277571 -0.173747,0.173748 -0.424833,0.199174 -0.251086,0.02543 -0.457675,-0.104884 -0.04873,-0.02966 -0.1123,-0.08475 -0.06357,-0.05509 -0.08899,-0.105943 z"
         style="stroke-width:0.162728"
         id="path2583" />
    </g>
    <g
       aria-label="5.5"
       transform="matrix(0.74916807,0,0,0.79826902,35.569896,3.5303123)"
       id="text1433"
       style="font-size:2.16972px;line-height:1.25;font-family:'MS 33558';-inkscape-font-specification:'MS 33558, Normal';stroke-width:0.162728">
      <path
         d="m 94.345729,48.440439 q -0.0032,-0.0032 -0.01165,-0.01695 -0.0074,-0.01483 -0.0085,-0.01907 -0.01907,-0.06569 0.01483,-0.125013 0.01377,-0.02437 0.0392,-0.04344 0.04662,-0.03496 0.109122,-0.02331 0.06251,0.0106 0.09535,0.05827 0.156796,0.209768 0.414238,0.171628 0.258502,-0.0392 0.334781,-0.295581 0.03708,-0.123954 -0.0064,-0.259562 -0.04238,-0.136667 -0.155737,-0.207649 -0.122894,-0.07734 -0.240492,-0.07734 -0.122894,0 -0.226718,0.06569 -0.0286,0.01907 -0.05403,0.0392 -0.0339,0.02649 -0.0678,0.03178 -0.0678,0.01165 -0.119716,-0.03178 -0.05191,-0.0445 -0.05191,-0.11336 V 46.7178 q 0,-0.01165 0.0032,-0.02649 0.0032,-0.01589 0.0042,-0.02013 0.03284,-0.09959 0.138785,-0.09959 h 0.690751 v 0 q 0.06039,0 0.104884,0.0445 0.0678,0.06886 0.0286,0.158915 -0.03814,0.09005 -0.133489,0.09005 h -0.544549 v 0.480983 q 0,0 0.01589,-0.0053 0.277571,-0.08582 0.537133,0.04873 0.259561,0.133488 0.351732,0.41 0.01695,0.05403 0.03072,0.13137 0.02649,0.164212 -0.0339,0.328424 -0.05933,0.163153 -0.174806,0.277572 -0.173747,0.173747 -0.424833,0.199174 -0.251086,0.02543 -0.457675,-0.104884 -0.04873,-0.02966 -0.1123,-0.08476 -0.06357,-0.05509 -0.08899,-0.105943 z"
         style="stroke-width:0.162728"
         id="path2576" />
      <path
         d="m 96.604442,48.770982 q 0,0.05509 -0.04026,0.09323 -0.03602,0.02754 -0.07416,0.02754 -0.03814,0 -0.07204,-0.02754 -0.03814,-0.03602 -0.03814,-0.09323 0,-0.05933 0.03178,-0.101706 0.03178,-0.04026 0.0784,-0.04026 0.04662,0 0.08264,0.04026 0.03178,0.04238 0.03178,0.101706 z"
         style="stroke-width:0.162728"
         id="path2578" />
      <path
         d="m 97.064236,48.440439 q -0.0032,-0.0032 -0.01165,-0.01695 -0.0074,-0.01483 -0.0085,-0.01907 -0.01907,-0.06569 0.01483,-0.125013 0.01377,-0.02437 0.0392,-0.04344 0.04661,-0.03496 0.109121,-0.02331 0.06251,0.0106 0.09535,0.05827 0.156796,0.209768 0.414239,0.171628 0.258502,-0.0392 0.334781,-0.295581 0.03708,-0.123954 -0.0064,-0.259562 -0.04238,-0.136667 -0.155737,-0.207649 -0.122894,-0.07734 -0.240491,-0.07734 -0.122894,0 -0.226719,0.06569 -0.0286,0.01907 -0.05403,0.0392 -0.0339,0.02649 -0.0678,0.03178 -0.0678,0.01165 -0.119716,-0.03178 -0.05191,-0.0445 -0.05191,-0.11336 V 46.7178 q 0,-0.01165 0.0032,-0.02649 0.0032,-0.01589 0.0042,-0.02013 0.03284,-0.09959 0.138786,-0.09959 h 0.690751 v 0 q 0.06039,0 0.104884,0.0445 0.0678,0.06886 0.0286,0.158915 -0.03814,0.09005 -0.133488,0.09005 h -0.544549 v 0.480983 q 0,0 0.01589,-0.0053 0.277572,-0.08582 0.537133,0.04873 0.259561,0.133488 0.351732,0.41 0.01695,0.05403 0.03072,0.13137 0.02649,0.164212 -0.0339,0.328424 -0.05933,0.163153 -0.174807,0.277572 -0.173747,0.173747 -0.424833,0.199174 -0.251085,0.02543 -0.457675,-0.104884 -0.04873,-0.02966 -0.1123,-0.08476 -0.06357,-0.05509 -0.08899,-0.105943 z"
         style="stroke-width:0.162728"
         id="path2580" />
    </g>
    <g
       aria-label="6"
       transform="matrix(0.74916807,0,0,0.79826902,35.569896,3.5303123)"
       id="text1437"
       style="font-size:2.16972px;line-height:1.25;font-family:'MS 33558';-inkscape-font-specification:'MS 33558, Normal';stroke-width:0.162728">
      <path
         d="m 94.328245,40.83847 0.0021,-0.01271 q 0.01377,-0.07204 0.0286,-0.143023 0.01589,-0.07098 0.04026,-0.140905 0.0339,-0.107003 0.0784,-0.202352 0.116538,-0.258502 0.278631,-0.4492 0.162094,-0.191757 0.382456,-0.357029 l 0.01059,-0.0074 q 0.108062,-0.07204 0.194936,0.02225 0.08687,0.09429 0.0074,0.194936 -0.01377,0.01695 -0.03072,0.02755 -0.123953,0.09323 -0.235194,0.200233 -0.110181,0.107003 -0.194936,0.237313 -0.01695,0.02755 -0.02649,0.04026 l -0.0053,0.0095 -0.0064,0.01059 0.0074,-0.0021 0.0074,-0.0011 q 0.136667,-0.01907 0.240491,-0.01059 0.104884,0.0074 0.235195,0.06568 0.187519,0.08581 0.29876,0.28181 0.1123,0.194936 0.09641,0.398347 -0.0032,0.03178 -0.0032,0.03072 -0.01801,0.105944 -0.05403,0.203412 -0.03496,0.09747 -0.108062,0.179044 -0.276512,0.306176 -0.679097,0.241551 -0.298761,-0.04979 -0.454497,-0.296642 -0.154678,-0.247907 -0.111241,-0.520182 z m 0.333722,0.302998 q 0.03284,0.08264 0.123954,0.148321 0.09217,0.06463 0.180103,0.07416 0.159975,0.01695 0.282869,-0.05933 0.188579,-0.118656 0.188579,-0.347494 0.0011,-0.228838 -0.188579,-0.347494 -0.18752,-0.115478 -0.384574,-0.02966 -0.162094,0.07204 -0.222481,0.237313 -0.05933,0.165271 0.02013,0.324186 z"
         style="stroke-width:0.162728"
         id="path2573" />
    </g>
    <path
       style="fill:#ffffff;stroke:#ffffff;stroke-width:0.446186;stroke-linecap:butt;stroke-linejoin:miter;stroke-miterlimit:4;stroke-dasharray:none;stroke-opacity:1"
       d="M 95.108286,114.539 H 105.19112"
       id="path937-7" />
    <path
       style="fill:#ffffff;stroke:#ffffff;stroke-width:0.123104px;stroke-linecap:butt;stroke-linejoin:miter;stroke-opacity:1"
       d="m 95.108286,113.41769 h 6.416354"
       id="path937-9-30" />
    <path
       style="fill:#ffffff;stroke:#ffffff;stroke-width:0.123104px;stroke-linecap:butt;stroke-linejoin:miter;stroke-opacity:1"
       d="m 95.108286,112.29638 h 6.416354"
       id="path937-9-8-40" />
    <path
       style="fill:#ffffff;stroke:#ffffff;stroke-width:0.123104px;stroke-linecap:butt;stroke-linejoin:miter;stroke-opacity:1"
       d="m 95.108286,111.17507 h 6.416354"
       id="path937-9-7-7" />
    <path
       style="fill:#ffffff;stroke:#ffffff;stroke-width:0.123104px;stroke-linecap:butt;stroke-linejoin:miter;stroke-opacity:1"
       d="m 95.108286,110.05378 h 6.416354"
       id="path937-9-8-4-3" />
    <path
       style="fill:#ffffff;stroke:#ffffff;stroke-width:0.446186;stroke-linecap:butt;stroke-linejoin:miter;stroke-miterlimit:4;stroke-dasharray:none;stroke-opacity:1"
       d="M 95.108286,108.93247 H 105.19112"
       id="path937-6-6" />
    <path
       style="fill:#ffffff;stroke:#ffffff;stroke-width:0.123104px;stroke-linecap:butt;stroke-linejoin:miter;stroke-opacity:1"
       d="m 95.108286,107.81117 h 6.416354"
       id="path937-9-0-5" />
    <path
       style="fill:#ffffff;stroke:#ffffff;stroke-width:0.123104px;stroke-linecap:butt;stroke-linejoin:miter;stroke-opacity:1"
       d="m 95.108286,106.68987 h 6.416354"
       id="path937-9-8-7-5" />
    <path
       style="fill:#ffffff;stroke:#ffffff;stroke-width:0.123104px;stroke-linecap:butt;stroke-linejoin:miter;stroke-opacity:1"
       d="m 95.108286,105.56856 h 6.416354"
       id="path937-9-7-6-00" />
    <path
       style="fill:#ffffff;stroke:#ffffff;stroke-width:0.123104px;stroke-linecap:butt;stroke-linejoin:miter;stroke-opacity:1"
       d="m 95.108286,104.44727 h 6.416354"
       id="path937-9-8-4-2-9" />
    <path
       style="fill:#ffffff;stroke:#ffffff;stroke-width:0.446186;stroke-linecap:butt;stroke-linejoin:miter;stroke-miterlimit:4;stroke-dasharray:none;stroke-opacity:1"
       d="M 95.108286,170.60411 H 105.19112"
       id="path937-2-4-1" />
    <path
       style="fill:#ffffff;stroke:#ffffff;stroke-width:0.123104px;stroke-linecap:butt;stroke-linejoin:miter;stroke-opacity:1"
       d="m 95.108286,169.48281 h 6.416354"
       id="path937-9-75-9-99" />
    <path
       style="fill:#ffffff;stroke:#ffffff;stroke-width:0.123104px;stroke-linecap:butt;stroke-linejoin:miter;stroke-opacity:1"
       d="m 95.108286,168.3615 h 6.416354"
       id="path937-9-8-3-8-78" />
    <path
       style="fill:#ffffff;stroke:#ffffff;stroke-width:0.123104px;stroke-linecap:butt;stroke-linejoin:miter;stroke-opacity:1"
       d="m 95.108286,167.24021 h 6.416354"
       id="path937-9-7-1-4-6" />
    <path
       style="fill:#ffffff;stroke:#ffffff;stroke-width:0.123104px;stroke-linecap:butt;stroke-linejoin:miter;stroke-opacity:1"
       d="m 95.108286,166.1189 h 6.416354"
       id="path937-9-8-4-8-5-2" />
    <path
       style="fill:#ffffff;stroke:#ffffff;stroke-width:0.446186;stroke-linecap:butt;stroke-linejoin:miter;stroke-miterlimit:4;stroke-dasharray:none;stroke-opacity:1"
       d="M 95.108286,164.9976 H 105.19112"
       id="path937-6-9-7-2" />
    <path
       style="fill:#ffffff;stroke:#ffffff;stroke-width:0.123104px;stroke-linecap:butt;stroke-linejoin:miter;stroke-opacity:1"
       d="m 95.108286,163.87629 h 6.416354"
       id="path937-9-0-5-7-5" />
    <path
       style="fill:#ffffff;stroke:#ffffff;stroke-width:0.123104px;stroke-linecap:butt;stroke-linejoin:miter;stroke-opacity:1"
       d="m 95.108286,162.75499 h 6.416354"
       id="path937-9-8-7-5-1-1" />
    <path
       style="fill:#ffffff;stroke:#ffffff;stroke-width:0.123104px;stroke-linecap:butt;stroke-linejoin:miter;stroke-opacity:1"
       d="m 95.108286,161.63369 h 6.416354"
       id="path937-9-7-6-6-5-1" />
    <path
       style="fill:#ffffff;stroke:#ffffff;stroke-width:0.123104px;stroke-linecap:butt;stroke-linejoin:miter;stroke-opacity:1"
       d="m 95.108286,160.51239 h 6.416354"
       id="path937-9-8-4-2-3-5-5" />
    <path
       style="fill:#ffffff;stroke:#ffffff;stroke-width:0.446186;stroke-linecap:butt;stroke-linejoin:miter;stroke-miterlimit:4;stroke-dasharray:none;stroke-opacity:1"
       d="M 95.108286,159.39109 H 105.19112"
       id="path937-1-3" />
    <path
       style="fill:#ffffff;stroke:#ffffff;stroke-width:0.123104px;stroke-linecap:butt;stroke-linejoin:miter;stroke-opacity:1"
       d="m 95.108286,158.26979 h 6.416354"
       id="path937-9-3-7" />
    <path
       style="fill:#ffffff;stroke:#ffffff;stroke-width:0.123104px;stroke-linecap:butt;stroke-linejoin:miter;stroke-opacity:1"
       d="m 95.108286,157.14848 h 6.416354"
       id="path937-9-8-71-1" />
    <path
       style="fill:#ffffff;stroke:#ffffff;stroke-width:0.123104px;stroke-linecap:butt;stroke-linejoin:miter;stroke-opacity:1"
       d="m 95.108286,156.02718 h 6.416354"
       id="path937-9-7-0-0" />
    <path
       style="fill:#ffffff;stroke:#ffffff;stroke-width:0.123104px;stroke-linecap:butt;stroke-linejoin:miter;stroke-opacity:1"
       d="m 95.108286,154.90588 h 6.416354"
       id="path937-9-8-4-7-6" />
    <path
       style="fill:#ffffff;stroke:#ffffff;stroke-width:0.446186;stroke-linecap:butt;stroke-linejoin:miter;stroke-miterlimit:4;stroke-dasharray:none;stroke-opacity:1"
       d="M 95.108286,153.78457 H 105.19112"
       id="path937-6-5-7" />
    <path
       style="fill:#ffffff;stroke:#ffffff;stroke-width:0.123104px;stroke-linecap:butt;stroke-linejoin:miter;stroke-opacity:1"
       d="m 95.108286,152.66327 h 6.416354"
       id="path937-9-0-9-5" />
    <path
       style="fill:#ffffff;stroke:#ffffff;stroke-width:0.123104px;stroke-linecap:butt;stroke-linejoin:miter;stroke-opacity:1"
       d="m 95.108286,151.54196 h 6.416354"
       id="path937-9-8-7-3-2" />
    <path
       style="fill:#ffffff;stroke:#ffffff;stroke-width:0.123104px;stroke-linecap:butt;stroke-linejoin:miter;stroke-opacity:1"
       d="m 95.108286,150.42066 h 6.416354"
       id="path937-9-7-6-0-3" />
    <path
       style="fill:#ffffff;stroke:#ffffff;stroke-width:0.123104px;stroke-linecap:butt;stroke-linejoin:miter;stroke-opacity:1"
       d="m 95.108286,149.29936 h 6.416354"
       id="path937-9-8-4-2-0-1" />
    <path
       style="fill:#ffffff;stroke:#ffffff;stroke-width:0.446186;stroke-linecap:butt;stroke-linejoin:miter;stroke-miterlimit:4;stroke-dasharray:none;stroke-opacity:1"
       d="M 95.108286,148.17806 H 105.19112"
       id="path937-2-46-8" />
    <path
       style="fill:#ffffff;stroke:#ffffff;stroke-width:0.123104px;stroke-linecap:butt;stroke-linejoin:miter;stroke-opacity:1"
       d="m 95.108286,147.05675 h 6.416354"
       id="path937-9-75-2-6" />
    <path
       style="fill:#ffffff;stroke:#ffffff;stroke-width:0.123104px;stroke-linecap:butt;stroke-linejoin:miter;stroke-opacity:1"
       d="m 95.108286,145.93545 h 6.416354"
       id="path937-9-8-3-2-2" />
    <path
       style="fill:#ffffff;stroke:#ffffff;stroke-width:0.123104px;stroke-linecap:butt;stroke-linejoin:miter;stroke-opacity:1"
       d="m 95.108286,144.81415 h 6.416354"
       id="path937-9-7-1-8-2" />
    <path
       style="fill:#ffffff;stroke:#ffffff;stroke-width:0.123104px;stroke-linecap:butt;stroke-linejoin:miter;stroke-opacity:1"
       d="m 95.108286,143.69285 h 6.416354"
       id="path937-9-8-4-8-0-8" />
    <path
       style="fill:#ffffff;stroke:#ffffff;stroke-width:0.446186;stroke-linecap:butt;stroke-linejoin:miter;stroke-miterlimit:4;stroke-dasharray:none;stroke-opacity:1"
       d="M 95.108286,142.57155 H 105.19112"
       id="path937-6-9-4-8" />
    <path
       style="fill:#ffffff;stroke:#ffffff;stroke-width:0.123104px;stroke-linecap:butt;stroke-linejoin:miter;stroke-opacity:1"
       d="m 95.108286,141.45024 h 6.416354"
       id="path937-9-0-5-6-4" />
    <path
       style="fill:#ffffff;stroke:#ffffff;stroke-width:0.123104px;stroke-linecap:butt;stroke-linejoin:miter;stroke-opacity:1"
       d="m 95.108286,140.32895 h 6.416354"
       id="path937-9-8-7-5-5-0" />
    <path
       style="fill:#ffffff;stroke:#ffffff;stroke-width:0.123104px;stroke-linecap:butt;stroke-linejoin:miter;stroke-opacity:1"
       d="m 95.108286,139.20764 h 6.416354"
       id="path937-9-7-6-6-0-7" />
    <path
       style="fill:#ffffff;stroke:#ffffff;stroke-width:0.123104px;stroke-linecap:butt;stroke-linejoin:miter;stroke-opacity:1"
       d="m 95.108286,138.08633 h 6.416354"
       id="path937-9-8-4-2-3-3-3" />
    <path
       style="fill:#ffffff;stroke:#ffffff;stroke-width:0.446186;stroke-linecap:butt;stroke-linejoin:miter;stroke-miterlimit:4;stroke-dasharray:none;stroke-opacity:1"
       d="M 95.108286,136.96503 H 105.19112"
       id="path937-4-7-2" />
    <path
       style="fill:#ffffff;stroke:#ffffff;stroke-width:0.123104px;stroke-linecap:butt;stroke-linejoin:miter;stroke-opacity:1"
       d="m 95.108286,135.84373 h 6.416354"
       id="path937-9-2-9-9" />
    <path
       style="fill:#ffffff;stroke:#ffffff;stroke-width:0.123104px;stroke-linecap:butt;stroke-linejoin:miter;stroke-opacity:1"
       d="m 95.108286,134.72244 h 6.416354"
       id="path937-9-8-0-1-8" />
    <path
       style="fill:#ffffff;stroke:#ffffff;stroke-width:0.123104px;stroke-linecap:butt;stroke-linejoin:miter;stroke-opacity:1"
       d="m 95.108286,133.60112 h 6.416354"
       id="path937-9-7-4-5-2" />
    <path
       style="fill:#ffffff;stroke:#ffffff;stroke-width:0.123104px;stroke-linecap:butt;stroke-linejoin:miter;stroke-opacity:1"
       d="m 95.108286,132.47983 h 6.416354"
       id="path937-9-8-4-3-0-6" />
    <path
       style="fill:#ffffff;stroke:#ffffff;stroke-width:0.446186;stroke-linecap:butt;stroke-linejoin:miter;stroke-miterlimit:4;stroke-dasharray:none;stroke-opacity:1"
       d="M 95.108286,131.35852 H 105.19112"
       id="path937-6-96-7-5" />
    <path
       style="fill:#ffffff;stroke:#ffffff;stroke-width:0.123104px;stroke-linecap:butt;stroke-linejoin:miter;stroke-opacity:1"
       d="m 95.108286,130.23722 h 6.416354"
       id="path937-9-0-7-6-4" />
    <path
       style="fill:#ffffff;stroke:#ffffff;stroke-width:0.123104px;stroke-linecap:butt;stroke-linejoin:miter;stroke-opacity:1"
       d="m 95.108286,129.11591 h 6.416354"
       id="path937-9-8-7-4-7-7" />
    <path
       style="fill:#ffffff;stroke:#ffffff;stroke-width:0.123104px;stroke-linecap:butt;stroke-linejoin:miter;stroke-opacity:1"
       d="m 95.108286,127.99462 h 6.416354"
       id="path937-9-7-6-5-9-4" />
    <path
       style="fill:#ffffff;stroke:#ffffff;stroke-width:0.123104px;stroke-linecap:butt;stroke-linejoin:miter;stroke-opacity:1"
       d="m 95.108286,126.87331 h 6.416354"
       id="path937-9-8-4-2-7-1-8" />
    <path
       style="fill:#ffffff;stroke:#ffffff;stroke-width:0.446186;stroke-linecap:butt;stroke-linejoin:miter;stroke-miterlimit:4;stroke-dasharray:none;stroke-opacity:1"
       d="M 95.108286,125.75201 H 105.19112"
       id="path937-2-4-8-2" />
    <path
       style="fill:#ffffff;stroke:#ffffff;stroke-width:0.123104px;stroke-linecap:butt;stroke-linejoin:miter;stroke-opacity:1"
       d="m 95.108286,124.63072 h 6.416354"
       id="path937-9-75-9-9-3" />
    <path
       style="fill:#ffffff;stroke:#ffffff;stroke-width:0.123104px;stroke-linecap:butt;stroke-linejoin:miter;stroke-opacity:1"
       d="m 95.108286,123.50941 h 6.416354"
       id="path937-9-8-3-8-7-9" />
    <path
       style="fill:#ffffff;stroke:#ffffff;stroke-width:0.123104px;stroke-linecap:butt;stroke-linejoin:miter;stroke-opacity:1"
       d="m 95.108286,122.38811 h 6.416354"
       id="path937-9-7-1-4-7-4" />
    <path
       style="fill:#ffffff;stroke:#ffffff;stroke-width:0.123104px;stroke-linecap:butt;stroke-linejoin:miter;stroke-opacity:1"
       d="m 95.108286,121.2668 h 6.416354"
       id="path937-9-8-4-8-5-7-5" />
    <path
       style="fill:#ffffff;stroke:#ffffff;stroke-width:0.446186;stroke-linecap:butt;stroke-linejoin:miter;stroke-miterlimit:4;stroke-dasharray:none;stroke-opacity:1"
       d="M 95.108286,120.1455 H 105.19112"
       id="path937-6-9-7-6-8" />
    <path
       style="fill:#ffffff;stroke:#ffffff;stroke-width:0.123104px;stroke-linecap:butt;stroke-linejoin:miter;stroke-opacity:1"
       d="m 95.108286,119.0242 h 6.416354"
       id="path937-9-0-5-7-1-6" />
    <path
       style="fill:#ffffff;stroke:#ffffff;stroke-width:0.123104px;stroke-linecap:butt;stroke-linejoin:miter;stroke-opacity:1"
       d="m 95.108286,117.90289 h 6.416354"
       id="path937-9-8-7-5-1-3-2" />
    <path
       style="fill:#ffffff;stroke:#ffffff;stroke-width:0.123104px;stroke-linecap:butt;stroke-linejoin:miter;stroke-opacity:1"
       d="m 95.108286,116.78159 h 6.416354"
       id="path937-9-7-6-6-5-8-6" />
    <path
       style="fill:#ffffff;stroke:#ffffff;stroke-width:0.123104px;stroke-linecap:butt;stroke-linejoin:miter;stroke-opacity:1"
       d="m 95.108286,115.66029 h 6.416354"
       id="path937-9-8-4-2-3-5-1-7" />
    <g
       aria-label=".5"
       transform="matrix(0.74916807,0,0,0.79826902,35.569896,3.5303123)"
       id="text1393-9"
       style="font-style:normal;font-variant:normal;font-weight:normal;font-stretch:normal;font-size:2.16972px;line-height:1.25;font-family:'MS 33558';-inkscape-font-specification:'MS 33558, Normal';font-variant-ligatures:normal;font-variant-caps:normal;font-variant-numeric:normal;font-variant-east-asian:normal;fill:#ffffff;stroke:#ffffff;stroke-width:0.162728">
      <path
         d="m 94.543335,132.62113 q 0,0.0551 -0.04026,0.0932 -0.03602,0.0275 -0.07416,0.0275 -0.03814,0 -0.07204,-0.0275 -0.03814,-0.036 -0.03814,-0.0932 0,-0.0593 0.03178,-0.10171 0.03178,-0.0403 0.0784,-0.0403 0.04662,0 0.08264,0.0403 0.03178,0.0424 0.03178,0.10171 z"
         style="font-style:normal;font-variant:normal;font-weight:normal;font-stretch:normal;font-size:2.16972px;font-family:'MS 33558';-inkscape-font-specification:'MS 33558, Normal';font-variant-ligatures:normal;font-variant-caps:normal;font-variant-numeric:normal;font-variant-east-asian:normal;fill:#ffffff;stroke:#ffffff;stroke-width:0.162728"
         id="path2568" />
      <path
         d="m 95.003129,132.29058 q -0.0032,-0.003 -0.01165,-0.017 -0.0074,-0.0148 -0.0085,-0.0191 -0.01907,-0.0657 0.01483,-0.12501 0.01377,-0.0244 0.0392,-0.0434 0.04662,-0.035 0.109122,-0.0233 0.06251,0.0106 0.09535,0.0583 0.156796,0.20977 0.414238,0.17163 0.258502,-0.0392 0.334782,-0.29558 0.03708,-0.12395 -0.0064,-0.25956 -0.04238,-0.13667 -0.155737,-0.20765 -0.122894,-0.0773 -0.240491,-0.0773 -0.122895,0 -0.226719,0.0657 -0.0286,0.0191 -0.05403,0.0392 -0.0339,0.0265 -0.0678,0.0318 -0.0678,0.0117 -0.119716,-0.0318 -0.05191,-0.0445 -0.05191,-0.11336 V 130.568 q 0,-0.0117 0.0032,-0.0265 0.0032,-0.0159 0.0042,-0.0201 0.03284,-0.0996 0.138786,-0.0996 h 0.69075 v 0 q 0.06039,0 0.104884,0.0445 0.0678,0.0689 0.0286,0.15891 -0.03814,0.0901 -0.133489,0.0901 h -0.544548 v 0.48099 q 0,0 0.01589,-0.005 0.277572,-0.0858 0.537133,0.0487 0.259561,0.13349 0.351732,0.41 0.01695,0.054 0.03072,0.13137 0.02649,0.16422 -0.0339,0.32843 -0.05933,0.16315 -0.174806,0.27757 -0.173747,0.17375 -0.424833,0.19917 -0.251086,0.0254 -0.457675,-0.10488 -0.04873,-0.0297 -0.1123,-0.0847 -0.06357,-0.0551 -0.08899,-0.10595 z"
         style="font-style:normal;font-variant:normal;font-weight:normal;font-stretch:normal;font-size:2.16972px;font-family:'MS 33558';-inkscape-font-specification:'MS 33558, Normal';font-variant-ligatures:normal;font-variant-caps:normal;font-variant-numeric:normal;font-variant-east-asian:normal;fill:#ffffff;stroke:#ffffff;stroke-width:0.162728"
         id="path2570" />
    </g>
    <g
       aria-label="1"
       transform="matrix(0.74916807,0,0,0.79826902,35.569896,3.5303123)"
       id="text1397-1"
       style="font-size:2.16972px;line-height:1.25;font-family:'MS 33558';-inkscape-font-specification:'MS 33558, Normal';fill:#ffffff;stroke:#ffffff;stroke-width:0.162728">
      <path
         d="m 94.619605,139.73361 q 0,0.0138 -0.0032,0.0297 -0.02543,0.11972 -0.14832,0.11972 -0.09005,0 -0.133489,-0.0837 -0.0095,-0.0159 -0.01589,-0.0657 v -1.86884 q 0.0032,-0.0254 0.0074,-0.0477 0.0053,-0.0233 0.02331,-0.0445 0.04238,-0.0519 0.109122,-0.0562 0.06674,-0.005 0.115478,0.0424 0.02543,0.0254 0.03284,0.0487 0.0074,0.0233 0.01271,0.0572 z"
         style="fill:#ffffff;stroke:#ffffff;stroke-width:0.162728"
         id="path2565" />
    </g>
    <g
       aria-label="2"
       transform="matrix(0.74916807,0,0,0.79826902,35.569896,3.5303123)"
       id="text1401-7"
       style="font-size:2.16972px;line-height:1.25;font-family:'MS 33558';-inkscape-font-specification:'MS 33558, Normal';fill:#ffffff;stroke:#ffffff;stroke-width:0.162728">
      <path
         d="m 94.469165,153.84832 q -0.06251,0 -0.107003,-0.0434 -0.04344,-0.0434 -0.04344,-0.107 0,-0.002 0.01059,-0.0667 0.01165,-0.0657 0.01377,-0.0752 0.05403,-0.25956 0.209767,-0.4937 0.156797,-0.23413 0.378218,-0.38351 0.0784,-0.053 0.141964,-0.11018 0.06463,-0.0583 0.13137,-0.13032 0.08581,-0.0975 0.07416,-0.22142 -0.01059,-0.12395 -0.122894,-0.19599 -0.137726,-0.0858 -0.27969,-0.004 -0.141964,0.0816 -0.135608,0.24367 0,0.003 0,0.007 0.0011,0.003 0.0011,0.006 0.0064,0.0487 -0.02331,0.0953 -0.02966,0.0456 -0.07522,0.0593 -0.06992,0.0222 -0.13031,-0.0138 -0.05933,-0.036 -0.0678,-0.10595 -0.0032,-0.01 -0.0011,-0.0784 0.0032,-0.0689 0.0064,-0.0805 0.04767,-0.26062 0.273334,-0.39199 0.226719,-0.13243 0.477805,-0.0466 0.297701,0.10383 0.363385,0.40577 0.06569,0.30194 -0.141964,0.52759 -0.04238,0.0456 -0.08581,0.0901 -0.04238,0.0434 -0.09111,0.0837 -0.07628,0.0636 -0.161034,0.1176 -0.08369,0.054 -0.15044,0.12713 -0.07628,0.0848 -0.144082,0.18646 -0.06674,0.10171 -0.105944,0.20871 -0.0032,0.006 -0.01695,0.0466 -0.01271,0.0403 -0.01271,0.0434 h 0.7861 q 0.146202,0.01 0.141964,0.15468 -0.0042,0.14514 -0.147261,0.14514 z"
         style="fill:#ffffff;stroke:#ffffff;stroke-width:0.162728"
         id="path2562" />
    </g>
    <g
       aria-label="3"
       transform="matrix(0.74916807,0,0,0.79826902,35.569896,3.5303123)"
       id="text1405-0"
       style="font-size:2.16972px;line-height:1.25;font-family:'MS 33558';-inkscape-font-specification:'MS 33558, Normal';fill:#ffffff;stroke:#ffffff;stroke-width:0.162728">
      <path
         d="m 95.455498,167.21522 q -0.0011,-0.0646 0.0021,-0.1176 0.0042,-0.054 -0.02331,-0.11972 -0.06886,-0.15891 -0.214005,-0.23095 -0.144083,-0.072 -0.312533,-0.0244 -0.0021,0.002 -0.0064,0.002 -0.0085,0.004 -0.02013,0.006 -0.05085,0.0106 -0.09535,-0.0127 -0.05085,-0.0233 -0.07416,-0.0848 -0.0032,-0.007 -0.0074,-0.0307 -0.01271,-0.0689 0.03178,-0.11336 l 0.405763,-0.50111 h -0.501112 q -0.06992,0 -0.115478,-0.0519 -0.04556,-0.053 -0.03284,-0.1229 0.02013,-0.12501 0.147261,-0.12501 h 0.816823 q 0.126073,0 0.148321,0.12925 0.01059,0.071 -0.03178,0.11442 l -0.394109,0.48628 q 0.01589,0.003 0.03178,0.008 0.01695,0.004 0.03284,0.007 0.0095,0.003 0.01165,0.003 0.216124,0.0731 0.348553,0.24367 0.133489,0.17057 0.155737,0.39623 0.01695,0.16951 -0.05297,0.3316 -0.06886,0.16104 -0.194936,0.27122 -0.203411,0.17798 -0.469329,0.17798 -0.270156,0 -0.470389,-0.16633 -0.199173,-0.16633 -0.251086,-0.42907 -0.0011,-0.001 -0.0021,-0.0222 0,-0.0212 0,-0.0265 0.02649,-0.12714 0.151499,-0.12714 0.02966,0 0.08052,0.0244 0.01907,0.0106 0.04132,0.0434 0.02331,0.0318 0.02331,0.054 0,0.0117 0.01483,0.0615 0.01589,0.0498 0.04026,0.0848 0.175865,0.2638 0.487339,0.18646 0.08687,-0.0222 0.169509,-0.0996 0.0837,-0.0773 0.109122,-0.16421 0.0011,-0.004 0.0095,-0.0328 0.0095,-0.0286 0.0095,-0.0297 z"
         style="fill:#ffffff;stroke:#ffffff;stroke-width:0.162728"
         id="path2559" />
    </g>
    <g
       aria-label="2.5"
       transform="matrix(0.74916807,0,0,0.79826902,35.569896,3.5303123)"
       id="text1409-9"
       style="font-size:2.16972px;line-height:1.25;font-family:'MS 33558';-inkscape-font-specification:'MS 33558, Normal';fill:#ffffff;stroke:#ffffff;stroke-width:0.162728">
      <path
         d="m 94.469165,160.72662 q -0.06251,0 -0.107003,-0.0434 -0.04344,-0.0434 -0.04344,-0.107 0,-0.002 0.01059,-0.0667 0.01165,-0.0657 0.01377,-0.0752 0.05403,-0.25956 0.209767,-0.49369 0.156797,-0.23414 0.378218,-0.38352 0.0784,-0.053 0.141964,-0.11018 0.06463,-0.0583 0.13137,-0.13031 0.08581,-0.0975 0.07416,-0.22142 -0.01059,-0.12395 -0.122894,-0.196 -0.137726,-0.0858 -0.27969,-0.004 -0.141964,0.0816 -0.135608,0.24367 0,0.003 0,0.007 0.0011,0.003 0.0011,0.006 0.0064,0.0487 -0.02331,0.0953 -0.02966,0.0456 -0.07522,0.0593 -0.06992,0.0222 -0.13031,-0.0138 -0.05933,-0.036 -0.0678,-0.10594 -0.0032,-0.01 -0.0011,-0.0784 0.0032,-0.0689 0.0064,-0.0805 0.04767,-0.26062 0.273334,-0.39199 0.226719,-0.13242 0.477805,-0.0466 0.297701,0.10382 0.363385,0.40576 0.06569,0.30194 -0.141964,0.5276 -0.04238,0.0456 -0.08581,0.09 -0.04238,0.0434 -0.09111,0.0837 -0.07628,0.0636 -0.161034,0.11759 -0.08369,0.054 -0.15044,0.12714 -0.07628,0.0848 -0.144082,0.18646 -0.06674,0.1017 -0.105944,0.20871 -0.0032,0.006 -0.01695,0.0466 -0.01271,0.0403 -0.01271,0.0434 h 0.7861 q 0.146202,0.01 0.141964,0.15467 -0.0042,0.14515 -0.147261,0.14515 z"
         style="fill:#ffffff;stroke:#ffffff;stroke-width:0.162728"
         id="path2552" />
      <path
         d="m 96.524466,160.75734 q 0,0.0551 -0.04026,0.0932 -0.03602,0.0275 -0.07416,0.0275 -0.03814,0 -0.07204,-0.0275 -0.03814,-0.036 -0.03814,-0.0932 0,-0.0593 0.03178,-0.10171 0.03178,-0.0403 0.0784,-0.0403 0.04661,0 0.08264,0.0403 0.03178,0.0424 0.03178,0.10171 z"
         style="fill:#ffffff;stroke:#ffffff;stroke-width:0.162728"
         id="path2554" />
      <path
         d="m 96.98426,160.4268 q -0.0032,-0.003 -0.01165,-0.0169 -0.0074,-0.0148 -0.0085,-0.0191 -0.01907,-0.0657 0.01483,-0.12502 0.01377,-0.0244 0.0392,-0.0434 0.04662,-0.035 0.109122,-0.0233 0.06251,0.0106 0.09535,0.0583 0.156796,0.20977 0.414238,0.17163 0.258502,-0.0392 0.334781,-0.29559 0.03708,-0.12395 -0.0064,-0.25956 -0.04238,-0.13666 -0.155737,-0.20765 -0.122894,-0.0773 -0.240491,-0.0773 -0.122895,0 -0.226719,0.0657 -0.0286,0.0191 -0.05403,0.0392 -0.0339,0.0265 -0.0678,0.0318 -0.0678,0.0117 -0.119716,-0.0318 -0.05191,-0.0445 -0.05191,-0.11336 v -0.87615 q 0,-0.0117 0.0032,-0.0265 0.0032,-0.0159 0.0042,-0.0201 0.03284,-0.0996 0.138786,-0.0996 h 0.69075 v 0 q 0.06039,0 0.104884,0.0445 0.0678,0.0689 0.0286,0.15892 -0.03814,0.09 -0.133489,0.09 H 97.34121 v 0.48098 q 0,0 0.01589,-0.005 0.277572,-0.0858 0.537133,0.0487 0.259561,0.13349 0.351732,0.41 0.01695,0.054 0.03072,0.13137 0.02649,0.16421 -0.0339,0.32842 -0.05933,0.16316 -0.174806,0.27758 -0.173747,0.17374 -0.424833,0.19917 -0.251086,0.0254 -0.457675,-0.10488 -0.04873,-0.0297 -0.1123,-0.0848 -0.06357,-0.0551 -0.08899,-0.10594 z"
         style="fill:#ffffff;stroke:#ffffff;stroke-width:0.162728"
         id="path2556" />
    </g>
    <g
       aria-label="1.5"
       transform="matrix(0.74916807,0,0,0.79826902,35.569896,3.5303123)"
       id="text1413-1"
       style="font-size:2.16972px;line-height:1.25;font-family:'MS 33558';-inkscape-font-specification:'MS 33558, Normal';fill:#ffffff;stroke:#ffffff;stroke-width:0.162728">
      <path
         d="m 94.619605,146.53904 q 0,0.0138 -0.0032,0.0297 -0.02543,0.11971 -0.14832,0.11971 -0.09005,0 -0.133489,-0.0837 -0.0095,-0.0159 -0.01589,-0.0657 v -1.86884 q 0.0032,-0.0254 0.0074,-0.0477 0.0053,-0.0233 0.02331,-0.0445 0.04238,-0.0519 0.109122,-0.0562 0.06674,-0.005 0.115478,0.0424 0.02543,0.0254 0.03284,0.0487 0.0074,0.0233 0.01271,0.0572 z"
         style="fill:#ffffff;stroke:#ffffff;stroke-width:0.162728"
         id="path2545" />
      <path
         d="m 95.613353,146.71915 q 0,0.0551 -0.04026,0.0932 -0.03602,0.0275 -0.07416,0.0275 -0.03814,0 -0.07204,-0.0275 -0.03814,-0.036 -0.03814,-0.0932 0,-0.0593 0.03178,-0.10171 0.03178,-0.0403 0.0784,-0.0403 0.04662,0 0.08263,0.0403 0.03178,0.0424 0.03178,0.10171 z"
         style="fill:#ffffff;stroke:#ffffff;stroke-width:0.162728"
         id="path2547" />
      <path
         d="m 96.073148,146.3886 q -0.0032,-0.003 -0.01165,-0.017 -0.0074,-0.0148 -0.0085,-0.0191 -0.01907,-0.0657 0.01483,-0.12501 0.01377,-0.0244 0.0392,-0.0434 0.04662,-0.035 0.109122,-0.0233 0.06251,0.0106 0.09535,0.0583 0.156796,0.20976 0.414239,0.17162 0.258501,-0.0392 0.334781,-0.29558 0.03708,-0.12395 -0.0064,-0.25956 -0.04238,-0.13667 -0.155737,-0.20765 -0.122894,-0.0773 -0.240491,-0.0773 -0.122894,0 -0.226719,0.0657 -0.0286,0.0191 -0.05403,0.0392 -0.0339,0.0265 -0.0678,0.0318 -0.0678,0.0117 -0.119716,-0.0318 -0.05191,-0.0445 -0.05191,-0.11336 v -0.87615 q 0,-0.0117 0.0032,-0.0265 0.0032,-0.0159 0.0042,-0.0201 0.03284,-0.0996 0.138786,-0.0996 h 0.690751 v 0 q 0.06039,0 0.104883,0.0445 0.0678,0.0689 0.0286,0.15891 -0.03814,0.0901 -0.133488,0.0901 H 96.4301 v 0.48098 q 0,0 0.01589,-0.005 0.277572,-0.0858 0.537133,0.0487 0.259561,0.13349 0.351732,0.41 0.01695,0.054 0.03072,0.13137 0.02649,0.16421 -0.0339,0.32842 -0.05933,0.16315 -0.174807,0.27757 -0.173747,0.17375 -0.424833,0.19918 -0.251085,0.0254 -0.457675,-0.10489 -0.04873,-0.0297 -0.1123,-0.0847 -0.06357,-0.0551 -0.08899,-0.10595 z"
         style="fill:#ffffff;stroke:#ffffff;stroke-width:0.162728"
         id="path2549" />
    </g>
    <g
       aria-label="3.5"
       transform="matrix(0.74916807,0,0,0.79826902,35.569896,3.5303123)"
       id="text1417-9"
       style="font-size:2.16972px;line-height:1.25;font-family:'MS 33558';-inkscape-font-specification:'MS 33558, Normal';fill:#ffffff;stroke:#ffffff;stroke-width:0.162728">
      <path
         d="m 95.455498,174.25138 q -0.0011,-0.0646 0.0021,-0.1176 0.0042,-0.054 -0.02331,-0.11971 -0.06886,-0.15892 -0.214005,-0.23096 -0.144083,-0.072 -0.312533,-0.0244 -0.0021,0.002 -0.0064,0.002 -0.0085,0.004 -0.02013,0.006 -0.05085,0.0106 -0.09535,-0.0127 -0.05085,-0.0233 -0.07416,-0.0848 -0.0032,-0.007 -0.0074,-0.0307 -0.01271,-0.0689 0.03178,-0.11336 l 0.405763,-0.50112 h -0.501112 q -0.06992,0 -0.115478,-0.0519 -0.04556,-0.053 -0.03284,-0.12289 0.02013,-0.12501 0.147261,-0.12501 h 0.816823 q 0.126073,0 0.148321,0.12925 0.01059,0.071 -0.03178,0.11441 l -0.394109,0.48628 q 0.01589,0.003 0.03178,0.008 0.01695,0.004 0.03284,0.007 0.0095,0.003 0.01165,0.003 0.216124,0.0731 0.348553,0.24367 0.133489,0.17057 0.155737,0.39623 0.01695,0.16951 -0.05297,0.33161 -0.06886,0.16103 -0.194936,0.27121 -0.203411,0.17798 -0.469329,0.17798 -0.270156,0 -0.470389,-0.16633 -0.199173,-0.16633 -0.251086,-0.42907 -0.0011,-0.001 -0.0021,-0.0222 0,-0.0212 0,-0.0265 0.02649,-0.12713 0.151499,-0.12713 0.02966,0 0.08052,0.0244 0.01907,0.0106 0.04132,0.0434 0.02331,0.0318 0.02331,0.054 0,0.0117 0.01483,0.0614 0.01589,0.0498 0.04026,0.0848 0.175865,0.2638 0.487339,0.18646 0.08687,-0.0222 0.169509,-0.0996 0.0837,-0.0773 0.109122,-0.16421 0.0011,-0.004 0.0095,-0.0328 0.0095,-0.0286 0.0095,-0.0297 z"
         style="fill:#ffffff;stroke:#ffffff;stroke-width:0.162728"
         id="path2538" />
      <path
         d="m 96.711986,174.92412 q 0,0.0551 -0.04026,0.0932 -0.03602,0.0275 -0.07416,0.0275 -0.03814,0 -0.07204,-0.0275 -0.03814,-0.036 -0.03814,-0.0932 0,-0.0593 0.03178,-0.10171 0.03178,-0.0403 0.0784,-0.0403 0.04662,0 0.08264,0.0403 0.03178,0.0424 0.03178,0.10171 z"
         style="fill:#ffffff;stroke:#ffffff;stroke-width:0.162728"
         id="path2540" />
      <path
         d="m 97.17178,174.59358 q -0.0032,-0.003 -0.01165,-0.017 -0.0074,-0.0148 -0.0085,-0.0191 -0.01907,-0.0657 0.01483,-0.12502 0.01377,-0.0244 0.0392,-0.0434 0.04662,-0.035 0.109122,-0.0233 0.06251,0.0106 0.09535,0.0583 0.156796,0.20976 0.414238,0.17162 0.258502,-0.0392 0.334781,-0.29558 0.03708,-0.12395 -0.0064,-0.25956 -0.04238,-0.13667 -0.155737,-0.20765 -0.122894,-0.0773 -0.240492,-0.0773 -0.122894,0 -0.226718,0.0657 -0.0286,0.0191 -0.05403,0.0392 -0.0339,0.0265 -0.0678,0.0318 -0.0678,0.0116 -0.119716,-0.0318 -0.05191,-0.0445 -0.05191,-0.11336 v -0.87615 q 0,-0.0117 0.0032,-0.0265 0.0032,-0.0159 0.0042,-0.0201 0.03284,-0.0996 0.138785,-0.0996 h 0.690751 v 0 q 0.06039,0 0.104884,0.0445 0.0678,0.0689 0.0286,0.15892 -0.03814,0.0901 -0.133489,0.0901 H 97.52873 v 0.48098 q 0,0 0.01589,-0.005 0.277571,-0.0858 0.537133,0.0487 0.259561,0.13349 0.351732,0.41 0.01695,0.054 0.03072,0.13137 0.02649,0.16421 -0.0339,0.32842 -0.05933,0.16316 -0.174806,0.27757 -0.173747,0.17375 -0.424833,0.19918 -0.251086,0.0254 -0.457675,-0.10489 -0.04873,-0.0297 -0.1123,-0.0847 -0.06357,-0.0551 -0.08899,-0.10594 z"
         style="fill:#ffffff;stroke:#ffffff;stroke-width:0.162728"
         id="path2542" />
    </g>
    <g
       aria-label="4"
       transform="matrix(0.74916807,0,0,0.79826902,35.569896,3.5303123)"
       id="text1421-2"
       style="font-size:2.16972px;line-height:1.25;font-family:'MS 33558';-inkscape-font-specification:'MS 33558, Normal';fill:#ffffff;stroke:#ffffff;stroke-width:0.162728">
      <path
         d="m 94.46822,181.73068 q -0.07628,0 -0.120775,-0.0615 -0.04344,-0.0614 -0.02119,-0.13455 l 0.475686,-1.48108 q 0,-0.001 0,-0.003 0.0011,-0.002 0.0021,-0.004 0.02648,-0.0678 0.09217,-0.089 0.06569,-0.0212 0.129251,0.0159 0.09853,0.0614 0.06145,0.17269 l -0.413179,1.28509 h 0.518063 v -0.43967 q 0,-0.0953 0.08581,-0.1356 0.08582,-0.0403 0.158915,0.018 0.05509,0.0445 0.05509,0.11759 v 0.43967 h 0.274393 q 0.0731,0 0.110181,0.0477 0.03708,0.0466 0.03708,0.10277 0,0.0562 -0.03708,0.10276 -0.03708,0.0466 -0.110181,0.0466 h -0.274393 q 0,0.0138 0,0.12607 0,0.1123 0,0.11336 0,0.0922 -0.0784,0.13137 -0.07628,0.036 -0.14938,-0.004 -0.07204,-0.0403 -0.07098,-0.12713 0,-0.007 -0.0011,-0.11654 0,-0.10912 0,-0.12289 z"
         style="fill:#ffffff;stroke:#ffffff;stroke-width:0.162728"
         id="path2535" />
    </g>
    <g
       aria-label="4.5"
       transform="matrix(0.74916807,0,0,0.79826902,35.569896,3.5303123)"
       id="text1425-8"
       style="font-size:2.16972px;line-height:1.25;font-family:'MS 33558';-inkscape-font-specification:'MS 33558, Normal';fill:#ffffff;stroke:#ffffff;stroke-width:0.162728">
      <path
         d="m 94.46822,188.5874 q -0.07628,0 -0.120775,-0.0615 -0.04344,-0.0614 -0.02119,-0.13455 l 0.475686,-1.48108 q 0,-0.001 0,-0.003 0.0011,-0.002 0.0021,-0.004 0.02648,-0.0678 0.09217,-0.089 0.06569,-0.0212 0.129251,0.0159 0.09853,0.0615 0.06145,0.17269 l -0.413179,1.28509 h 0.518063 v -0.43967 q 0,-0.0953 0.08581,-0.1356 0.08582,-0.0403 0.158915,0.018 0.05509,0.0445 0.05509,0.11759 v 0.43967 h 0.274393 q 0.0731,0 0.110181,0.0477 0.03708,0.0466 0.03708,0.10277 0,0.0562 -0.03708,0.10276 -0.03708,0.0466 -0.110181,0.0466 h -0.274393 q 0,0.0138 0,0.12607 0,0.1123 0,0.11336 0,0.0922 -0.0784,0.13137 -0.07628,0.036 -0.14938,-0.004 -0.07204,-0.0403 -0.07098,-0.12713 0,-0.007 -0.0011,-0.11654 0,-0.10912 0,-0.12289 z"
         style="fill:#ffffff;stroke:#ffffff;stroke-width:0.162728"
         id="path2528" />
      <path
         d="m 96.832876,189.00588 q 0,0.0551 -0.04026,0.0932 -0.03602,0.0275 -0.07416,0.0275 -0.03814,0 -0.07204,-0.0275 -0.03814,-0.036 -0.03814,-0.0932 0,-0.0593 0.03178,-0.10171 0.03178,-0.0403 0.0784,-0.0403 0.04662,0 0.08264,0.0403 0.03178,0.0424 0.03178,0.10171 z"
         style="fill:#ffffff;stroke:#ffffff;stroke-width:0.162728"
         id="path2530" />
      <path
         d="m 97.29267,188.67533 q -0.0032,-0.003 -0.01165,-0.017 -0.0074,-0.0148 -0.0085,-0.0191 -0.01907,-0.0657 0.01483,-0.12501 0.01377,-0.0244 0.0392,-0.0434 0.04662,-0.035 0.109122,-0.0233 0.06251,0.0106 0.09535,0.0583 0.156796,0.20977 0.414238,0.17163 0.258502,-0.0392 0.334781,-0.29558 0.03708,-0.12395 -0.0064,-0.25956 -0.04238,-0.13667 -0.155737,-0.20765 -0.122894,-0.0773 -0.240492,-0.0773 -0.122894,0 -0.226718,0.0657 -0.0286,0.0191 -0.05403,0.0392 -0.0339,0.0265 -0.0678,0.0318 -0.0678,0.0117 -0.119716,-0.0318 -0.05191,-0.0445 -0.05191,-0.11335 v -0.87616 q 0,-0.0117 0.0032,-0.0265 0.0032,-0.0159 0.0042,-0.0201 0.03284,-0.0996 0.138785,-0.0996 h 0.690751 v 0 q 0.06039,0 0.104884,0.0445 0.0678,0.0689 0.0286,0.15891 -0.03814,0.0901 -0.133489,0.0901 H 97.64962 v 0.48099 q 0,0 0.01589,-0.005 0.277571,-0.0858 0.537132,0.0487 0.259562,0.13349 0.351732,0.41001 0.01695,0.054 0.03072,0.13136 0.02649,0.16422 -0.0339,0.32843 -0.05933,0.16315 -0.174806,0.27757 -0.173748,0.17375 -0.424833,0.19917 -0.251086,0.0254 -0.457676,-0.10488 -0.04873,-0.0297 -0.1123,-0.0847 -0.06357,-0.0551 -0.08899,-0.10595 z"
         style="fill:#ffffff;stroke:#ffffff;stroke-width:0.162728"
         id="path2532" />
    </g>
    <g
       aria-label="5"
       transform="matrix(0.74916807,0,0,0.79826902,35.569896,3.5303123)"
       id="text1429-9"
       style="font-size:2.16972px;line-height:1.25;font-family:'MS 33558';-inkscape-font-specification:'MS 33558, Normal';fill:#ffffff;stroke:#ffffff;stroke-width:0.162728">
      <path
         d="m 94.345729,195.76425 q -0.0032,-0.003 -0.01165,-0.017 -0.0074,-0.0148 -0.0085,-0.0191 -0.01907,-0.0657 0.01483,-0.12501 0.01377,-0.0244 0.0392,-0.0434 0.04662,-0.035 0.109122,-0.0233 0.06251,0.0106 0.09535,0.0583 0.156796,0.20976 0.414238,0.17162 0.258502,-0.0392 0.334781,-0.29558 0.03708,-0.12395 -0.0064,-0.25956 -0.04238,-0.13667 -0.155737,-0.20765 -0.122894,-0.0773 -0.240492,-0.0773 -0.122894,0 -0.226718,0.0657 -0.0286,0.0191 -0.05403,0.0392 -0.0339,0.0265 -0.0678,0.0318 -0.0678,0.0116 -0.119716,-0.0318 -0.05191,-0.0445 -0.05191,-0.11336 v -0.87615 q 0,-0.0117 0.0032,-0.0265 0.0032,-0.0159 0.0042,-0.0201 0.03284,-0.0996 0.138785,-0.0996 h 0.690751 v 0 q 0.06039,0 0.104884,0.0445 0.0678,0.0689 0.0286,0.15892 -0.03814,0.0901 -0.133489,0.0901 h -0.544549 v 0.48098 q 0,0 0.01589,-0.005 0.277571,-0.0858 0.537133,0.0487 0.259561,0.13349 0.351732,0.41 0.01695,0.054 0.03072,0.13137 0.02649,0.16421 -0.0339,0.32842 -0.05933,0.16316 -0.174806,0.27757 -0.173747,0.17375 -0.424833,0.19918 -0.251086,0.0254 -0.457675,-0.10489 -0.04873,-0.0297 -0.1123,-0.0847 -0.06357,-0.0551 -0.08899,-0.10594 z"
         style="fill:#ffffff;stroke:#ffffff;stroke-width:0.162728"
         id="path2525" />
    </g>
    <g
       aria-label="5.5"
       transform="matrix(0.74916807,0,0,0.79826902,35.569896,3.5303123)"
       id="text1433-3"
       style="font-size:2.16972px;line-height:1.25;font-family:'MS 33558';-inkscape-font-specification:'MS 33558, Normal';fill:#ffffff;stroke:#ffffff;stroke-width:0.162728">
      <path
         d="m 94.345729,202.54493 q -0.0032,-0.003 -0.01165,-0.0169 -0.0074,-0.0148 -0.0085,-0.0191 -0.01907,-0.0657 0.01483,-0.12501 0.01377,-0.0244 0.0392,-0.0434 0.04662,-0.035 0.109122,-0.0233 0.06251,0.0106 0.09535,0.0583 0.156796,0.20977 0.414238,0.17163 0.258502,-0.0392 0.334781,-0.29558 0.03708,-0.12396 -0.0064,-0.25956 -0.04238,-0.13667 -0.155737,-0.20765 -0.122894,-0.0773 -0.240492,-0.0773 -0.122894,0 -0.226718,0.0657 -0.0286,0.0191 -0.05403,0.0392 -0.0339,0.0265 -0.0678,0.0318 -0.0678,0.0117 -0.119716,-0.0318 -0.05191,-0.0445 -0.05191,-0.11336 v -0.87615 q 0,-0.0117 0.0032,-0.0265 0.0032,-0.0159 0.0042,-0.0201 0.03284,-0.0996 0.138785,-0.0996 h 0.690751 v 0 q 0.06039,0 0.104884,0.0445 0.0678,0.0689 0.0286,0.15891 -0.03814,0.09 -0.133489,0.09 h -0.544549 v 0.48099 q 0,0 0.01589,-0.005 0.277571,-0.0858 0.537133,0.0487 0.259561,0.13349 0.351732,0.41 0.01695,0.054 0.03072,0.13137 0.02649,0.16422 -0.0339,0.32843 -0.05933,0.16315 -0.174806,0.27757 -0.173747,0.17375 -0.424833,0.19917 -0.251086,0.0254 -0.457675,-0.10488 -0.04873,-0.0297 -0.1123,-0.0848 -0.06357,-0.0551 -0.08899,-0.10594 z"
         style="fill:#ffffff;stroke:#ffffff;stroke-width:0.162728"
         id="path2518" />
      <path
         d="m 96.604442,202.87547 q 0,0.0551 -0.04026,0.0932 -0.03602,0.0275 -0.07416,0.0275 -0.03814,0 -0.07204,-0.0275 -0.03814,-0.036 -0.03814,-0.0932 0,-0.0593 0.03178,-0.1017 0.03178,-0.0403 0.0784,-0.0403 0.04662,0 0.08264,0.0403 0.03178,0.0424 0.03178,0.1017 z"
         style="fill:#ffffff;stroke:#ffffff;stroke-width:0.162728"
         id="path2520" />
      <path
         d="m 97.064236,202.54493 q -0.0032,-0.003 -0.01165,-0.0169 -0.0074,-0.0148 -0.0085,-0.0191 -0.01907,-0.0657 0.01483,-0.12501 0.01377,-0.0244 0.0392,-0.0434 0.04661,-0.035 0.109121,-0.0233 0.06251,0.0106 0.09535,0.0583 0.156796,0.20977 0.414239,0.17163 0.258502,-0.0392 0.334781,-0.29558 0.03708,-0.12396 -0.0064,-0.25956 -0.04238,-0.13667 -0.155737,-0.20765 -0.122894,-0.0773 -0.240491,-0.0773 -0.122894,0 -0.226719,0.0657 -0.0286,0.0191 -0.05403,0.0392 -0.0339,0.0265 -0.0678,0.0318 -0.0678,0.0117 -0.119716,-0.0318 -0.05191,-0.0445 -0.05191,-0.11336 v -0.87615 q 0,-0.0117 0.0032,-0.0265 0.0032,-0.0159 0.0042,-0.0201 0.03284,-0.0996 0.138786,-0.0996 h 0.690751 v 0 q 0.06039,0 0.104884,0.0445 0.0678,0.0689 0.0286,0.15891 -0.03814,0.09 -0.133488,0.09 h -0.544549 v 0.48099 q 0,0 0.01589,-0.005 0.277572,-0.0858 0.537133,0.0487 0.259561,0.13349 0.351732,0.41 0.01695,0.054 0.03072,0.13137 0.02649,0.16422 -0.0339,0.32843 -0.05933,0.16315 -0.174807,0.27757 -0.173747,0.17375 -0.424833,0.19917 -0.251085,0.0254 -0.457675,-0.10488 -0.04873,-0.0297 -0.1123,-0.0848 -0.06357,-0.0551 -0.08899,-0.10594 z"
         style="fill:#ffffff;stroke:#ffffff;stroke-width:0.162728"
         id="path2522" />
    </g>
    <g
       aria-label="6"
       transform="matrix(0.74916807,0,0,0.79826902,35.569896,3.5303123)"
       id="text1437-7"
       style="font-size:2.16972px;line-height:1.25;font-family:'MS 33558';-inkscape-font-specification:'MS 33558, Normal';fill:#ffffff;stroke:#ffffff;stroke-width:0.162728">
      <path
         d="m 94.328245,209.24516 0.0021,-0.0127 q 0.01377,-0.072 0.0286,-0.14302 0.01589,-0.071 0.04026,-0.14091 0.0339,-0.107 0.0784,-0.20235 0.116538,-0.2585 0.278631,-0.4492 0.162094,-0.19176 0.382456,-0.35703 l 0.01059,-0.007 q 0.108062,-0.072 0.194936,0.0222 0.08687,0.0943 0.0074,0.19493 -0.01377,0.017 -0.03072,0.0275 -0.123953,0.0932 -0.235194,0.20023 -0.110181,0.107 -0.194936,0.23731 -0.01695,0.0275 -0.02649,0.0403 l -0.0053,0.01 -0.0064,0.0106 0.0074,-0.002 0.0074,-0.001 q 0.136667,-0.0191 0.240491,-0.0106 0.104884,0.007 0.235195,0.0657 0.187519,0.0858 0.29876,0.28181 0.1123,0.19494 0.09641,0.39835 -0.0032,0.0318 -0.0032,0.0307 -0.01801,0.10595 -0.05403,0.20341 -0.03496,0.0975 -0.108062,0.17905 -0.276512,0.30617 -0.679097,0.24155 -0.298761,-0.0498 -0.454497,-0.29664 -0.154678,-0.24791 -0.111241,-0.52018 z m 0.333722,0.30299 q 0.03284,0.0826 0.123954,0.14832 0.09217,0.0646 0.180103,0.0742 0.159975,0.017 0.282869,-0.0593 0.188579,-0.11866 0.188579,-0.3475 0.0011,-0.22884 -0.188579,-0.34749 -0.18752,-0.11548 -0.384574,-0.0297 -0.162094,0.072 -0.222481,0.23732 -0.05933,0.16527 0.02013,0.32418 z"
         style="fill:#ffffff;stroke:#ffffff;stroke-width:0.162728"
         id="path2515" />
    </g>
  </g>
</svg>
