<?xml version="1.0" encoding="UTF-8" standalone="no"?>
<svg
   xmlns:lc="https://librecad.org"
   xmlns:dc="http://purl.org/dc/elements/1.1/"
   xmlns:cc="http://creativecommons.org/ns#"
   xmlns:rdf="http://www.w3.org/1999/02/22-rdf-syntax-ns#"
   xmlns:svg="http://www.w3.org/2000/svg"
   xmlns="http://www.w3.org/2000/svg"
   xmlns:sodipodi="http://sodipodi.sourceforge.net/DTD/sodipodi-0.dtd"
   xmlns:inkscape="http://www.inkscape.org/namespaces/inkscape"
   width="81mm"
   height="150mm"
   viewBox="0 0 81 150"
   version="1.1"
   id="svg933"
   sodipodi:docname="top_instruments_engrave.svg"
   inkscape:version="1.0.2-2 (e86c870879, 2021-01-15)">
  <metadata
     id="metadata939">
    <rdf:RDF>
      <cc:Work
         rdf:about="">
        <dc:format>image/svg+xml</dc:format>
        <dc:type
           rdf:resource="http://purl.org/dc/dcmitype/StillImage" />
        <dc:title></dc:title>
      </cc:Work>
    </rdf:RDF>
  </metadata>
  <defs
     id="defs937">
    <inkscape:path-effect
       effect="skeletal"
       id="path-effect1540"
       is_visible="true"
       lpeversion="1"
       pattern="#path1483"
       copytype="single_stretched"
       prop_scale="1"
       scale_y_rel="false"
       spacing="0"
       normal_offset="0"
       tang_offset="0"
       prop_units="false"
       vertical_pattern="false"
       hide_knot="false"
       fuse_tolerance="0" />
    <inkscape:path-effect
       effect="skeletal"
       id="path-effect1334"
       is_visible="true"
       lpeversion="1"
       pattern="#path943-9-4-3-0-6-2"
       copytype="single_stretched"
       prop_scale="1"
       scale_y_rel="false"
       spacing="0"
       normal_offset="0"
       tang_offset="0"
       prop_units="false"
       vertical_pattern="false"
       hide_knot="false"
       fuse_tolerance="0" />
  </defs>
  <sodipodi:namedview
     pagecolor="#ffffff"
     bordercolor="#666666"
     borderopacity="1"
     objecttolerance="10"
     gridtolerance="10"
     guidetolerance="10"
     inkscape:pageopacity="0"
     inkscape:pageshadow="2"
     inkscape:window-width="1918"
     inkscape:window-height="2083"
     id="namedview935"
     showgrid="true"
     inkscape:snap-grids="true"
     inkscape:zoom="1.5866181"
     inkscape:cx="41.613071"
     inkscape:cy="225.39459"
     inkscape:window-x="-8"
     inkscape:window-y="38"
     inkscape:window-maximized="0"
     inkscape:current-layer="svg933">
    <inkscape:grid
       type="xygrid"
       id="grid941" />
  </sodipodi:namedview>
  <g
     lc:layername="0"
     lc:is_locked="false"
     lc:is_construction="false"
     fill="none"
     stroke="black"
     stroke-width="1"
     id="g929"
     style="stroke-width:0.2;stroke-miterlimit:4;stroke-dasharray:none;stroke:#ff0000">
    <circle
       cx="3"
       cy="147"
       r="1.6"
       id="circle887"
       style="stroke-width:0.2;stroke-miterlimit:4;stroke-dasharray:none;stroke:#ff0000" />
    <circle
       cx="3"
       cy="83"
       r="1.6"
       id="circle889"
       style="stroke-width:0.2;stroke-miterlimit:4;stroke-dasharray:none;stroke:#ff0000" />
    <circle
       cx="78"
       cy="83"
       r="1.6"
       id="circle891"
       style="stroke-width:0.2;stroke-miterlimit:4;stroke-dasharray:none;stroke:#ff0000" />
    <circle
       cx="78"
       cy="147"
       r="1.6"
       id="circle893"
       style="stroke-width:0.2;stroke-miterlimit:4;stroke-dasharray:none;stroke:#ff0000" />
    <path
       d="M0,83 A3,3 0 0,1 3,80 L67,80 L78,80 A3,3 0 0,1 81,83 L81,147 A3,3 0 0,1 78,150 L67,150 L3,150 A3,3 0 0,1 0,147 L0,83 Z "
       id="path895"
       style="stroke-width:0.2;stroke-miterlimit:4;stroke-dasharray:none;stroke:#ff0000" />
    <circle
       cx="78"
       cy="67"
       r="1.6"
       id="circle897"
       style="stroke-width:0.2;stroke-miterlimit:4;stroke-dasharray:none;stroke:#ff0000" />
    <circle
       cx="78"
       cy="3"
       r="1.6"
       id="circle899"
       style="stroke-width:0.2;stroke-miterlimit:4;stroke-dasharray:none;stroke:#ff0000" />
    <circle
       cx="3"
       cy="3"
       r="1.6"
       id="circle901"
       style="stroke-width:0.2;stroke-miterlimit:4;stroke-dasharray:none;stroke:#ff0000" />
    <circle
       cx="3"
       cy="67"
       r="1.6"
       id="circle903"
       style="stroke-width:0.2;stroke-miterlimit:4;stroke-dasharray:none;stroke:#ff0000" />
    <path
       d="M81,3 A3,3 0 0,0 78,0 L14,0 L3,0 A3,3 0 0,0 0,3 L0,67 A3,3 0 0,0 3,70 L14,70 L78,70 A3,3 0 0,0 81,67 L81,3 Z "
       id="path905"
       style="stroke-width:0.2;stroke-miterlimit:4;stroke-dasharray:none;stroke:#ff0000" />
    <circle
       cx="35"
       cy="115"
       r="32"
       id="circle907"
       style="stroke-width:0.2;stroke-miterlimit:4;stroke-dasharray:none;stroke:#ff0000" />
    <circle
       cx="46"
       cy="35"
       r="32"
       id="circle909"
       style="stroke-width:0.2;stroke-miterlimit:4;stroke-dasharray:none;stroke:#ff0000" />
    <circle
       cx="69.20807989"
       cy="137.82909931"
       r="3.5"
       id="circle911"
       style="stroke-width:0.2;stroke-miterlimit:4;stroke-dasharray:none;stroke:#ff0000" />
    <circle
       cx="69.20807989"
       cy="92.17090069"
       r="3.5"
       id="circle913"
       style="stroke-width:0.2;stroke-miterlimit:4;stroke-dasharray:none;stroke:#ff0000" />
    <circle
       cx="11.79192011"
       cy="57.82909931"
       r="3.5"
       id="circle915"
       style="stroke-width:0.2;stroke-miterlimit:4;stroke-dasharray:none;stroke:#ff0000" />
    <circle
       cx="11.79192011"
       cy="12.17090069"
       r="3.5"
       id="circle917"
       style="stroke-width:0.2;stroke-miterlimit:4;stroke-dasharray:none;stroke:#ff0000" />
    <path
       d="M23,135 L47,135 L47,127 L23,127 L23,135 Z "
       id="path919"
       style="stroke-width:0.2;stroke-miterlimit:4;stroke-dasharray:none;stroke:#ff0000" />
    <circle
       cx="35"
       cy="115"
       r="2"
       id="circle921"
       style="stroke-width:0.2;stroke-miterlimit:4;stroke-dasharray:none;stroke:#ff0000" />
    <circle
       cx="46"
       cy="35"
       r="2"
       id="circle923"
       style="stroke-width:0.2;stroke-miterlimit:4;stroke-dasharray:none;stroke:#ff0000" />
    <path
       d="M34,21.99999874 L58,21.99999874 L58,13.99999874 L34,13.99999874 L34,21.99999874 Z "
       id="path925"
       style="stroke-width:0.2;stroke-miterlimit:4;stroke-dasharray:none;stroke:#ff0000" />
    <path
       d="M34,55 L58,55 L58,47 L34,47 L34,55 Z "
       id="path927"
       style="stroke-width:0.2;stroke-miterlimit:4;stroke-dasharray:none;stroke:#ff0000" />
  </g>
  <g
     lc:layername="dimensions"
     lc:is_locked="false"
     lc:is_construction="false"
     fill="none"
     stroke="black"
     stroke-width="1"
     id="g931" />
  <path
     style="fill:none;stroke:#000000;stroke-width:0.289836px;stroke-linecap:butt;stroke-linejoin:miter;stroke-opacity:1"
     d="m -66.145835,73.748966 h 7.937505"
     id="path943-9-4-3-0-6-2" />
  <path
     style="fill:none;stroke:#000000;stroke-width:0.18672;stroke-miterlimit:4;stroke-dasharray:none"
     id="path1538"
     inkscape:path-effect="#path-effect1540"
     sodipodi:type="arc"
     sodipodi:cx="30.75066"
     sodipodi:cy="-41.548836"
     sodipodi:rx="37.303112"
     sodipodi:ry="37.00827"
     d="m 68.053772,-41.548836 c 0,19.454747 -17.848366,37.0082705 -37.303112,37.0082705 l -8e-6,-7.4e-6 c -19.454746,4e-7 -37.3031041,-17.5535201 -37.3031041,-37.0082631 0,-19.454742 17.8483581,-37.008263 37.3031001,-37.00827 l 1.2e-5,0 c 19.454749,0 37.303117,17.553529 37.303112,37.008278" />
</svg>
