<?xml version="1.0" encoding="UTF-8" standalone="no"?>
<svg
   xmlns:dc="http://purl.org/dc/elements/1.1/"
   xmlns:cc="http://creativecommons.org/ns#"
   xmlns:rdf="http://www.w3.org/1999/02/22-rdf-syntax-ns#"
   xmlns:svg="http://www.w3.org/2000/svg"
   xmlns="http://www.w3.org/2000/svg"
   xmlns:sodipodi="http://sodipodi.sourceforge.net/DTD/sodipodi-0.dtd"
   xmlns:inkscape="http://www.inkscape.org/namespaces/inkscape"
   width="210mm"
   height="297mm"
   viewBox="0 0 210 297"
   version="1.1"
   id="svg8"
   inkscape:version="1.0.2-2 (e86c870879, 2021-01-15)"
   sodipodi:docname="twa_engrave.svg">
  <defs
     id="defs2">
    <marker
       id="DistanceX"
       orient="auto"
       refX="0.0"
       refY="0.0"
       style="overflow:visible">
      <path
         d="M 3,-3 L -3,3 M 0,-5 L  0,5"
         style="stroke:#000000; stroke-width:0.5"
         id="path833" />
    </marker>
    <pattern
       id="Hatch"
       patternUnits="userSpaceOnUse"
       width="8"
       height="8"
       x="0"
       y="0">
      <path
         d="M8 4 l-4,4"
         stroke="#000000"
         stroke-width="0.25"
         linecap="square"
         id="path836" />
      <path
         d="M6 2 l-4,4"
         stroke="#000000"
         stroke-width="0.25"
         linecap="square"
         id="path838" />
      <path
         d="M4 0 l-4,4"
         stroke="#000000"
         stroke-width="0.25"
         linecap="square"
         id="path840" />
    </pattern>
    <symbol
       id="*Model_Space" />
    <symbol
       id="*Paper_Space" />
  </defs>
  <sodipodi:namedview
     id="base"
     pagecolor="#ffffff"
     bordercolor="#666666"
     borderopacity="1.0"
     inkscape:pageopacity="0.0"
     inkscape:pageshadow="2"
     inkscape:zoom="3.959798"
     inkscape:cx="132.22381"
     inkscape:cy="208.9193"
     inkscape:document-units="mm"
     inkscape:current-layer="layer1"
     inkscape:document-rotation="0"
     showgrid="false"
     inkscape:window-width="1918"
     inkscape:window-height="2083"
     inkscape:window-x="-8"
     inkscape:window-y="38"
     inkscape:window-maximized="0" />
  <metadata
     id="metadata5">
    <rdf:RDF>
      <cc:Work
         rdf:about="">
        <dc:format>image/svg+xml</dc:format>
        <dc:type
           rdf:resource="http://purl.org/dc/dcmitype/StillImage" />
        <dc:title></dc:title>
      </cc:Work>
    </rdf:RDF>
  </metadata>
  <g
     inkscape:label="Lag 1"
     inkscape:groupmode="layer"
     id="layer1">
    <g
       inkscape:label="0"
       id="g863"
       transform="matrix(0.26458333,0,0,0.26458333,14.814116,-195.94248)"
       style="stroke:#ff0000">
      <path
         d="m 37.795276,1122.5197 h 83.149604 a 37.795276,37.795276 0 0 0 37.79528,-37.7953 V 812.59843 A 37.795276,37.795276 0 0 0 120.94488,774.80315 H 37.795276 A 37.795276,37.795276 0 0 0 0,812.59843 v 272.12597 a 37.795276,37.795276 0 0 0 37.795276,37.7953 z"
         style="fill:none;stroke:#ff0000;stroke-linecap:round"
         id="path847" />
      <path
         d="M 0,850.3937 H 158.74016"
         style="fill:none;stroke:#ff0000;stroke-linecap:round"
         id="path849" />
      <path
         d="M 0,1084.7244 H 158.74016"
         style="fill:none;stroke:#ff0000;stroke-linecap:round"
         id="path851" />
      <path
         d="m 94.488189,1084.7244 v -22.6772"
         style="fill:none;stroke:#ff0000;stroke-linecap:round"
         id="path853" />
      <path
         d="m 30.23622,1099.8425 a 7.559055,7.559055 0 1 0 -15.11811,0 7.559055,7.559055 0 1 0 15.11811,0 z"
         style="fill:none;stroke:#ff0000;stroke-linecap:round"
         id="path855" />
      <path
         d="m 143.62205,1099.8425 a 7.559055,7.559055 0 1 0 -15.11811,0 7.559055,7.559055 0 1 0 15.11811,0 z"
         style="fill:none;stroke:#ff0000;stroke-linecap:round"
         id="path857" />
      <path
         d="m 143.62205,801.25984 a 7.559055,7.559055 0 1 0 -15.11811,0 7.559055,7.559055 0 1 0 15.11811,0 z"
         style="fill:none;stroke:#ff0000;stroke-linecap:round"
         id="path859" />
      <path
         d="m 30.23622,801.25984 a 7.559055,7.559055 0 1 0 -15.11811,0 7.559055,7.559055 0 1 0 15.11811,0 z"
         style="fill:none;stroke:#ff0000;stroke-linecap:round"
         id="path861" />
    </g>
    <g
       aria-label="THREAT
WARNING
AUX"
       id="text898"
       style="font-style:normal;font-variant:normal;font-weight:normal;font-stretch:normal;font-size:3.175px;line-height:1.25;font-family:'MS 33558';-inkscape-font-specification:'MS 33558, Normal';font-variant-ligatures:normal;font-variant-caps:normal;font-variant-numeric:normal;font-variant-east-asian:normal;text-align:center;text-anchor:middle;stroke-width:0.264583">
      <path
         d="m 29.305987,14.816868 v -2.520776 h -0.568958 q -0.217041,-0.01705 -0.217041,-0.217042 0.0016,-0.201538 0.217041,-0.220141 h 1.573548 q 0.21394,0.01705 0.21394,0.220141 0.0016,0.201539 -0.21394,0.217042 h -0.567408 v 2.520776 q -0.03566,0.220141 -0.229443,0.217041 -0.192236,-0.0031 -0.207739,-0.217041 z"
         style="font-style:normal;font-variant:normal;font-weight:normal;font-stretch:normal;font-size:3.175px;font-family:'MS 33558';-inkscape-font-specification:'MS 33558, Normal';font-variant-ligatures:normal;font-variant-caps:normal;font-variant-numeric:normal;font-variant-east-asian:normal;text-align:center;text-anchor:middle;stroke-width:0.264583"
         id="path915" />
      <path
         d="M 30.988055,14.819968 V 12.07905 q 0.03256,-0.223242 0.226343,-0.218591 0.193786,0.0031 0.210839,0.218591 v 1.024744 h 1.247986 V 12.07905 q 0.03256,-0.218591 0.218592,-0.218591 0.187585,-0.0015 0.221691,0.218591 v 2.740918 q -0.03411,0.218592 -0.221691,0.217041 -0.186036,0 -0.218592,-0.217041 v -1.275891 h -1.247986 v 1.275891 q -0.01705,0.213941 -0.210839,0.217041 -0.193787,0.0031 -0.226343,-0.217041 z"
         style="font-style:normal;font-variant:normal;font-weight:normal;font-stretch:normal;font-size:3.175px;font-family:'MS 33558';-inkscape-font-specification:'MS 33558, Normal';font-variant-ligatures:normal;font-variant-caps:normal;font-variant-numeric:normal;font-variant-east-asian:normal;text-align:center;text-anchor:middle;stroke-width:0.264583"
         id="path917" />
      <path
         d="m 35.493206,14.697495 q 0.09922,0.175183 -0.05581,0.294556 -0.07441,0.05271 -0.172083,0.03566 -0.09612,-0.01705 -0.141077,-0.09612 l -0.764294,-1.207679 h -0.387573 v 1.091407 q 0,0.134875 -0.122473,0.195336 -0.122474,0.05891 -0.229444,-0.02325 -0.08527,-0.06356 -0.08527,-0.172082 V 12.07595 q 0,-0.08992 0.06201,-0.153479 0.06356,-0.06356 0.155029,-0.06356 h 0.962732 q 0.347266,0 0.603064,0.221692 0.255798,0.220141 0.31781,0.559656 0.06511,0.364318 -0.155029,0.682128 -0.218592,0.31626 -0.58136,0.384473 l -0.02946,0.0047 z m -0.778247,-1.409216 q 0.15813,0 0.291455,-0.09612 0.134876,-0.09612 0.181384,-0.251148 0.07286,-0.238745 -0.06666,-0.430981 -0.139527,-0.193787 -0.384473,-0.21394 h -0.764294 v 0.992187 z"
         style="font-style:normal;font-variant:normal;font-weight:normal;font-stretch:normal;font-size:3.175px;font-family:'MS 33558';-inkscape-font-specification:'MS 33558, Normal';font-variant-ligatures:normal;font-variant-caps:normal;font-variant-numeric:normal;font-variant-east-asian:normal;text-align:center;text-anchor:middle;stroke-width:0.264583"
         id="path919" />
      <path
         d="m 37.782989,12.291441 h -1.285193 v 0.84801 h 0.979785 q 0.220142,0.03256 0.218591,0.221692 0,0.187585 -0.218591,0.218591 h -0.979785 v 1.018543 h 1.285193 q 0.218591,0.03256 0.218591,0.218591 0,0.186035 -0.218591,0.217041 h -1.500684 q -0.193786,-0.0248 -0.220141,-0.220142 V 12.07595 q 0.02945,-0.204639 0.220141,-0.217041 h 1.500684 q 0.218591,0.01705 0.217041,0.218591 0,0.199988 -0.217041,0.213941 z"
         style="font-style:normal;font-variant:normal;font-weight:normal;font-stretch:normal;font-size:3.175px;font-family:'MS 33558';-inkscape-font-specification:'MS 33558, Normal';font-variant-ligatures:normal;font-variant-caps:normal;font-variant-numeric:normal;font-variant-east-asian:normal;text-align:center;text-anchor:middle;stroke-width:0.264583"
         id="path921" />
      <path
         d="M 40.111528,14.015366 39.640239,12.71312 39.16585,14.015366 Z m -0.471289,-1.302246 0.471289,1.302246 z m -1.196826,2.021582 q 0.248047,-0.683679 0.496094,-1.365808 0.249597,-0.683679 0.499194,-1.367358 0.05116,-0.141077 0.203089,-0.142627 0.151928,-0.0015 0.204638,0.142627 l 0.993738,2.740918 q 0.04651,0.218591 -0.133325,0.282153 -0.179834,0.06356 -0.277502,-0.130225 L 40.269658,14.450999 H 39.00617 l -0.15503,0.432531 q -0.09922,0.195337 -0.282153,0.128675 -0.182935,-0.06821 -0.125574,-0.277503 z"
         style="font-style:normal;font-variant:normal;font-weight:normal;font-stretch:normal;font-size:3.175px;font-family:'MS 33558';-inkscape-font-specification:'MS 33558, Normal';font-variant-ligatures:normal;font-variant-caps:normal;font-variant-numeric:normal;font-variant-east-asian:normal;text-align:center;text-anchor:middle;stroke-width:0.264583"
         id="path923" />
      <path
         d="m 41.931572,14.816868 v -2.520776 h -0.568957 q -0.217041,-0.01705 -0.217041,-0.217042 0.0015,-0.201538 0.217041,-0.220141 h 1.573547 q 0.213941,0.01705 0.213941,0.220141 0.0016,0.201539 -0.213941,0.217042 h -0.567407 v 2.520776 q -0.03566,0.220141 -0.229443,0.217041 -0.192237,-0.0031 -0.20774,-0.217041 z"
         style="font-style:normal;font-variant:normal;font-weight:normal;font-stretch:normal;font-size:3.175px;font-family:'MS 33558';-inkscape-font-specification:'MS 33558, Normal';font-variant-ligatures:normal;font-variant-caps:normal;font-variant-numeric:normal;font-variant-east-asian:normal;text-align:center;text-anchor:middle;stroke-width:0.264583"
         id="path925" />
      <path
         d="m 29.295135,16.004392 0.542602,1.854151 0.362769,-1.854151 q 0.06511,-0.209289 0.254248,-0.170532 0.190686,0.03876 0.175183,0.252698 l -0.536401,2.737817 q -0.04961,0.172083 -0.203089,0.178284 -0.151928,0.0062 -0.220141,-0.15658 l -0.586011,-1.999878 -0.58136,1.999878 q -0.07131,0.167432 -0.218591,0.15658 -0.147278,-0.01085 -0.207739,-0.178284 l -0.536402,-2.737817 q 0,-0.221692 0.176734,-0.254248 0.176733,-0.03411 0.257348,0.172082 l 0.358118,1.857251 0.542602,-1.857251 q 0.06666,-0.153479 0.212391,-0.15813 0.147277,-0.0047 0.207739,0.15813 z"
         style="font-style:normal;font-variant:normal;font-weight:normal;font-stretch:normal;font-size:3.175px;font-family:'MS 33558';-inkscape-font-specification:'MS 33558, Normal';font-variant-ligatures:normal;font-variant-caps:normal;font-variant-numeric:normal;font-variant-east-asian:normal;text-align:center;text-anchor:middle;stroke-width:0.264583"
         id="path927" />
      <path
         d="m 32.609661,17.984116 -0.471289,-1.302246 -0.474389,1.302246 z m -0.471289,-1.302246 0.471289,1.302246 z m -1.196826,2.021582 q 0.248047,-0.683679 0.496094,-1.365808 0.249597,-0.683679 0.499194,-1.367358 0.05116,-0.141077 0.203088,-0.142627 0.151929,-0.0015 0.204639,0.142627 l 0.993738,2.740918 q 0.04651,0.218591 -0.133325,0.282153 -0.179834,0.06356 -0.277503,-0.130225 l -0.15968,-0.443383 h -1.263489 l -0.155029,0.432531 q -0.09922,0.195337 -0.282153,0.128675 -0.182935,-0.06821 -0.125574,-0.277503 z"
         style="font-style:normal;font-variant:normal;font-weight:normal;font-stretch:normal;font-size:3.175px;font-family:'MS 33558';-inkscape-font-specification:'MS 33558, Normal';font-variant-ligatures:normal;font-variant-caps:normal;font-variant-numeric:normal;font-variant-east-asian:normal;text-align:center;text-anchor:middle;stroke-width:0.264583"
         id="path929" />
      <path
         d="m 35.601726,18.666245 q 0.09922,0.175183 -0.05581,0.294556 -0.07441,0.05271 -0.172083,0.03566 -0.09612,-0.01705 -0.141076,-0.09612 l -0.764295,-1.207678 h -0.387573 v 1.091406 q 0,0.134876 -0.122473,0.195337 -0.122473,0.05891 -0.229443,-0.02325 -0.08527,-0.06356 -0.08527,-0.172083 V 16.0447 q 0,-0.08992 0.06201,-0.153479 0.06356,-0.06356 0.155029,-0.06356 h 0.962732 q 0.347266,0 0.603064,0.221692 0.255799,0.220141 0.31781,0.559655 0.06511,0.364319 -0.155029,0.682129 -0.218591,0.31626 -0.58136,0.384473 l -0.02945,0.0047 z m -0.778247,-1.409216 q 0.15813,0 0.291455,-0.09612 0.134876,-0.09612 0.181385,-0.251148 0.07286,-0.238745 -0.06666,-0.430981 -0.139526,-0.193787 -0.384473,-0.213941 h -0.764294 v 0.992188 z"
         style="font-style:normal;font-variant:normal;font-weight:normal;font-stretch:normal;font-size:3.175px;font-family:'MS 33558';-inkscape-font-specification:'MS 33558, Normal';font-variant-ligatures:normal;font-variant-caps:normal;font-variant-numeric:normal;font-variant-east-asian:normal;text-align:center;text-anchor:middle;stroke-width:0.264583"
         id="path931" />
      <path
         d="m 38.311639,18.788718 q 0,0.162781 -0.15813,0.20774 -0.15658,0.04341 -0.243396,-0.09302 l -1.302246,-2.088245 v 1.973523 q -0.03411,0.217041 -0.220142,0.217041 -0.184485,0 -0.217041,-0.217041 v -2.737817 q 0.02325,-0.16123 0.164331,-0.21239 0.142627,-0.05116 0.237195,0.09612 l 1.302246,2.091345 v -1.975073 q 0.02946,-0.221692 0.224792,-0.218591 0.196888,0.0015 0.212391,0.218591 z"
         style="font-style:normal;font-variant:normal;font-weight:normal;font-stretch:normal;font-size:3.175px;font-family:'MS 33558';-inkscape-font-specification:'MS 33558, Normal';font-variant-ligatures:normal;font-variant-caps:normal;font-variant-numeric:normal;font-variant-east-asian:normal;text-align:center;text-anchor:middle;stroke-width:0.264583"
         id="path933" />
      <path
         d="m 39.196856,18.788718 q -0.03411,0.218592 -0.221692,0.217041 -0.186035,0 -0.218591,-0.217041 V 16.0478 q 0.03256,-0.218591 0.218591,-0.218591 0.187586,-0.0015 0.221692,0.218591 z"
         style="font-style:normal;font-variant:normal;font-weight:normal;font-stretch:normal;font-size:3.175px;font-family:'MS 33558';-inkscape-font-specification:'MS 33558, Normal';font-variant-ligatures:normal;font-variant-caps:normal;font-variant-numeric:normal;font-variant-east-asian:normal;text-align:center;text-anchor:middle;stroke-width:0.264583"
         id="path935" />
      <path
         d="m 41.778094,18.788718 q 0,0.162781 -0.15813,0.20774 -0.156579,0.04341 -0.243396,-0.09302 l -1.302246,-2.088245 v 1.973523 q -0.03411,0.217041 -0.220142,0.217041 -0.184484,0 -0.217041,-0.217041 v -2.737817 q 0.02325,-0.16123 0.164332,-0.21239 0.142626,-0.05116 0.237194,0.09612 l 1.302246,2.091345 v -1.975073 q 0.02946,-0.221692 0.224793,-0.218591 0.196887,0.0015 0.21239,0.218591 z"
         style="font-style:normal;font-variant:normal;font-weight:normal;font-stretch:normal;font-size:3.175px;font-family:'MS 33558';-inkscape-font-specification:'MS 33558, Normal';font-variant-ligatures:normal;font-variant-caps:normal;font-variant-numeric:normal;font-variant-east-asian:normal;text-align:center;text-anchor:middle;stroke-width:0.264583"
         id="path937" />
      <path
         d="m 43.283429,17.723667 -0.01395,-0.0015 q -0.189136,-0.02326 -0.189136,-0.215491 0,-0.192236 0.189136,-0.215491 l 0.01395,-0.0031 h 0.01395 0.572058 q 0.08992,0 0.153479,0.06511 0.06511,0.06356 0.06511,0.153479 v 0.785999 l -0.0186,0.04031 -0.01085,0.02481 -0.01085,0.02325 -0.0124,0.02325 -0.0124,0.02325 -0.01085,0.02325 -0.0124,0.02325 -0.01395,0.02325 q -0.300756,0.511597 -0.747241,0.500745 -0.446484,-0.0124 -0.750342,-0.505396 -0.144177,-0.234094 -0.21394,-0.58601 -0.06976,-0.353467 -0.04186,-0.720887 0.02791,-0.368969 0.170532,-0.700732 0.144178,-0.333313 0.429431,-0.52865 0.356568,-0.241846 0.694532,-0.05581 0.337964,0.184484 0.505395,0.519348 l 0.0124,0.0248 0.0093,0.02171 0.0124,0.02325 q 0.05271,0.147278 -0.04031,0.240295 -0.08992,0.08837 -0.195337,0.06666 -0.10542,-0.02325 -0.162781,-0.125574 -0.181384,-0.449585 -0.468188,-0.392224 -0.285254,0.05736 -0.427881,0.468189 -0.139526,0.396875 -0.110071,0.854211 0.02946,0.455786 0.297656,0.7953 0.184485,0.237195 0.375171,0.151929 0.190686,-0.08527 0.300757,-0.31781 l 0.01705,-0.03411 v -0.472839 z"
         style="font-style:normal;font-variant:normal;font-weight:normal;font-stretch:normal;font-size:3.175px;font-family:'MS 33558';-inkscape-font-specification:'MS 33558, Normal';font-variant-ligatures:normal;font-variant-caps:normal;font-variant-numeric:normal;font-variant-east-asian:normal;text-align:center;text-anchor:middle;stroke-width:0.264583"
         id="path939" />
      <path
         d="m 33.8716,21.952866 -0.471289,-1.302246 -0.47439,1.302246 z M 33.400311,20.65062 33.8716,21.952866 Z m -1.196827,2.021582 q 0.248047,-0.683679 0.496094,-1.365808 0.249597,-0.683679 0.499194,-1.367358 0.05116,-0.141077 0.203089,-0.142627 0.151929,-0.0016 0.204639,0.142627 l 0.993737,2.740918 q 0.04651,0.218591 -0.133325,0.282153 -0.179834,0.06356 -0.277502,-0.130225 l -0.159681,-0.443383 h -1.263488 l -0.15503,0.432531 q -0.09922,0.195337 -0.282153,0.128675 -0.182934,-0.06821 -0.125574,-0.277503 z"
         style="font-style:normal;font-variant:normal;font-weight:normal;font-stretch:normal;font-size:3.175px;font-family:'MS 33558';-inkscape-font-specification:'MS 33558, Normal';font-variant-ligatures:normal;font-variant-caps:normal;font-variant-numeric:normal;font-variant-east-asian:normal;text-align:center;text-anchor:middle;stroke-width:0.264583"
         id="path941" />
      <path
         d="m 36.99544,21.924961 v 0.03101 q -0.0047,0.07751 -0.0062,0.09302 -0.06511,0.47439 -0.389124,0.700733 -0.324011,0.224792 -0.69143,0.21084 -0.36742,-0.0155 -0.672828,-0.268201 Q 34.932,22.439658 34.905645,21.955967 v -0.03101 -1.911511 q 0,-0.04651 0.01705,-0.08372 0.07441,-0.162781 0.246497,-0.128674 0.173633,0.03411 0.173633,0.21239 v 1.911511 q 0.02325,0.356567 0.313159,0.533301 0.291455,0.176733 0.612366,-0.0155 0.144177,-0.08527 0.210839,-0.220142 0.06821,-0.134875 0.08062,-0.297656 V 20.01345 q 0,-0.02791 0.0031,-0.04186 0.03566,-0.190686 0.234094,-0.172083 0.198438,0.0186 0.198438,0.213941 z"
         style="font-style:normal;font-variant:normal;font-weight:normal;font-stretch:normal;font-size:3.175px;font-family:'MS 33558';-inkscape-font-specification:'MS 33558, Normal';font-variant-ligatures:normal;font-variant-caps:normal;font-variant-numeric:normal;font-variant-east-asian:normal;text-align:center;text-anchor:middle;stroke-width:0.264583"
         id="path943" />
      <path
         d="m 37.396966,22.645847 0.838708,-1.500683 -0.572058,-1.024744 q -0.08216,-0.203088 0.08527,-0.296106 0.167432,-0.09457 0.297656,0.08372 l 0.437183,0.789099 0.440283,-0.789099 q 0.130225,-0.178284 0.296106,-0.08527 0.165882,0.09302 0.08682,0.299206 l -0.570508,1.023194 0.837158,1.500683 q 0.08372,0.204639 -0.08682,0.299207 -0.170533,0.09302 -0.293006,-0.08837 l -0.710034,-1.265039 -0.702283,1.265039 q -0.134875,0.176733 -0.302307,0.08527 -0.165881,-0.09147 -0.08217,-0.296106 z"
         style="font-style:normal;font-variant:normal;font-weight:normal;font-stretch:normal;font-size:3.175px;font-family:'MS 33558';-inkscape-font-specification:'MS 33558, Normal';font-variant-ligatures:normal;font-variant-caps:normal;font-variant-numeric:normal;font-variant-east-asian:normal;text-align:center;text-anchor:middle;stroke-width:0.264583"
         id="path945" />
    </g>
    <g
       aria-label="DIM"
       id="text906"
       style="font-style:normal;font-variant:normal;font-weight:normal;font-stretch:normal;font-size:2.82222px;line-height:1.25;font-family:'MS 33558';-inkscape-font-specification:'MS 33558, Normal';font-variant-ligatures:normal;font-variant-caps:normal;font-variant-numeric:normal;font-variant-east-asian:normal;stroke-width:0.264583">
      <path
         d="m 37.744294,92.258911 h 0.649055 q 0.483691,0 0.724848,0.440972 0.241156,0.440972 0.241156,0.970138 0,0.529166 -0.242534,0.970138 -0.241157,0.440972 -0.72347,0.440972 h -0.649055 0.0028 -0.0028 q -0.04547,-0.0069 -0.04961,-0.0083 -0.143316,-0.03445 -0.141938,-0.187413 h -0.0014 l 0.0014,-2.433614 q -0.0014,-0.0041 -0.0014,-0.01102 0.0041,-0.07579 0.05926,-0.128158 0.0565,-0.05374 0.135048,-0.05374 z m 0.649055,2.433614 q 0.0028,0 0.0055,0 0.0028,0 0.0069,0 0.0028,0 0.0041,0 0.0028,-0.0014 0.0069,-0.0014 0.0028,0 0.0055,0 0.0041,-0.0014 0.0083,-0.0014 0.0028,0 0.0055,0 0.0028,-0.0014 0.0069,-0.0014 0.0028,0 0.0055,0 0.0028,-0.0014 0.0069,-0.0014 0.0055,-0.0028 0.01102,-0.0028 0.0028,0 0.0055,-0.0014 0.0028,-0.0028 0.0069,-0.0041 0.0028,0 0.0055,0 0.0041,-0.0014 0.0083,-0.0028 0.0028,0 0.0055,-0.0014 0.0028,-0.0014 0.0069,-0.0028 0.0083,-0.0028 0.0124,-0.0055 0.0248,-0.0083 0.01378,-0.0055 0.0028,0 0.0055,-0.0014 0.0028,-0.0028 0.0069,-0.0041 0.0124,-0.0083 0.01103,-0.0069 0.01378,-0.0069 0.01378,-0.0069 0.0028,-0.0014 0.0055,-0.0028 0.0028,-0.0028 0.0069,-0.0055 0.0124,-0.0083 0.0124,-0.0083 0.0028,-0.0014 0.0055,-0.0028 0.0041,-0.0028 0.0083,-0.0055 0.0028,-0.0014 0.0055,-0.0041 0.0028,-0.0028 0.0069,-0.0055 0.0028,-0.0014 0.0055,-0.0028 0.0028,-0.0028 0.0069,-0.0055 0.0028,-0.0028 0.01378,-0.01102 0.01102,-0.01103 0.01102,-0.01103 0.0028,-0.0028 0.0055,-0.0055 0.0028,-0.0028 0.0069,-0.0069 0.0028,-0.0028 0.0055,-0.0055 0.0028,-0.0028 0.0069,-0.0069 0.0041,-0.0028 0.0124,-0.01102 0.0028,-0.0028 0.0055,-0.0055 0.0028,-0.0028 0.0069,-0.0069 0.0028,-0.0028 0.0055,-0.0055 0.0028,-0.0041 0.0069,-0.0083 0.01654,-0.02205 0.01102,-0.01378 0.0096,-0.0096 0.0124,-0.01516 0.0124,-0.01654 0.01102,-0.01516 0.0028,-0.0041 0.0055,-0.0069 0.0028,-0.0041 0.0069,-0.0083 0.0028,-0.0041 0.0041,-0.0083 0.0028,-0.0041 0.0069,-0.0083 0.0014,-0.0041 0.0041,-0.0083 0.0041,-0.0055 0.0069,-0.0096 0.0083,-0.01102 0.01102,-0.01654 0.0028,-0.0041 0.0041,-0.0083 0.0028,-0.0055 0.0069,-0.0096 0.0028,-0.0041 0.0041,-0.0083 0.0028,-0.0055 0.0069,-0.0096 0.0028,-0.0069 0.0083,-0.01792 0.0028,-0.0041 0.0041,-0.0096 0.0028,-0.0055 0.0069,-0.01102 0.0028,-0.0041 0.0041,-0.0083 0.0028,-0.0055 0.0069,-0.01103 0.0014,-0.0041 0.0028,-0.0096 0.0028,-0.0055 0.0055,-0.01102 0.0041,-0.0069 0.0096,-0.02067 0.01378,-0.03445 0.0096,-0.02205 0.0014,-0.0041 0.0028,-0.0096 0.0028,-0.0069 0.0055,-0.0124 0.0014,-0.0055 0.0028,-0.01102 0.0028,-0.0055 0.0055,-0.0124 0.0041,-0.0124 0.0069,-0.02205 0.0014,-0.0055 0.0028,-0.01103 0.0028,-0.0055 0.0055,-0.0124 -0.0055,0.01378 0.0069,-0.02343 0.0028,-0.0069 0.0083,-0.02343 0,-0.0055 0.0014,-0.01103 0.0028,-0.0069 0.0041,-0.01378 0.0014,-0.0055 0.0028,-0.01102 0.0014,-0.0069 0.0041,-0.01378 0,-0.0041 0.0014,-0.0096 0.0028,-0.0069 0.0041,-0.01378 0.0014,-0.0096 0.0041,-0.02618 0,-0.0055 0.0014,-0.01102 0.0028,-0.0069 0.0041,-0.01378 0,-0.0055 0.0014,-0.01102 0.0014,-0.0069 0.0028,-0.01378 0.0014,-0.0096 0.0041,-0.02618 0,-0.0055 0.0014,-0.0124 0.0028,-0.0069 0.0041,-0.01378 0,-0.0096 0.0028,-0.02618 0,-0.0055 0,-0.01103 0.0014,-0.0069 0.0028,-0.01516 0.0028,-0.01654 0.0028,-0.02618 0.0014,-0.0096 0.0014,-0.02618 0.0014,-0.0096 0.0014,-0.02756 0.0014,-0.0096 0.0014,-0.02618 0,-0.0069 0,-0.0124 0.0014,-0.0069 0.0028,-0.01516 0,-0.0055 0,-0.01102 0.0014,-0.0069 0.0014,-0.01516 0,-0.0055 0,-0.0124 0,-0.0069 0,-0.01378 0,-0.0069 0,-0.0124 0,-0.0069 0,-0.01378 0,-0.0069 -0.0014,-0.0124 0,-0.0069 0,-0.01516 0,-0.0055 0,-0.0124 0,-0.0069 0,-0.01378 0,-0.0083 -0.0028,-0.02756 0,-0.01654 -0.0014,-0.02481 0,-0.0096 -0.0028,-0.02894 0,-0.01654 -0.0014,-0.02481 0,-0.0096 -0.0028,-0.02618 -0.0014,-0.0055 -0.0028,-0.0124 0,-0.0069 0,-0.01378 -0.0028,-0.01654 -0.0055,-0.02618 -0.0014,-0.0055 -0.0028,-0.01102 -0.0014,-0.0069 -0.0014,-0.01378 -0.0014,-0.0096 -0.0041,-0.02618 -0.0014,-0.0096 -0.0041,-0.02618 -0.0055,-0.01654 -0.0069,-0.02481 -0.0028,-0.01654 -0.0041,-0.02343 -0.0028,-0.0055 -0.0041,-0.01102 -0.0014,-0.0069 -0.0028,-0.01378 -0.0014,-0.0055 -0.0041,-0.01103 -0.0028,-0.0069 -0.0028,-0.01378 -0.0124,-0.03721 -0.0069,-0.02343 -0.0028,-0.0096 -0.0069,-0.02343 -0.0028,-0.0041 -0.0055,-0.0096 -0.0014,-0.0069 -0.0028,-0.0124 -0.0014,-0.0041 -0.0083,-0.02343 -0.0055,-0.01378 -0.0083,-0.02205 -0.0028,-0.0041 -0.0055,-0.0096 -0.0014,-0.0069 -0.0028,-0.0124 -0.0028,-0.0041 -0.0055,-0.0096 -0.0028,-0.0055 -0.0041,-0.01102 -0.0055,-0.01378 -0.0096,-0.02067 -0.0055,-0.01378 -0.0083,-0.01929 -0.0055,-0.01378 -0.0096,-0.02067 -0.0028,-0.0041 -0.0055,-0.0083 -0.0028,-0.0055 -0.0041,-0.0096 -0.0083,-0.01378 -0.01102,-0.01929 -0.0124,-0.01929 -0.01102,-0.01791 -0.0041,-0.0041 -0.0069,-0.0083 -0.0014,-0.0055 -0.0041,-0.0096 -0.0028,-0.0055 -0.01102,-0.01654 -0.0028,-0.0041 -0.0055,-0.0083 -0.0028,-0.0041 -0.0041,-0.0083 -0.0069,-0.0124 -0.02343,-0.03169 -0.0028,-0.0028 -0.02205,-0.03032 -0.01654,-0.01929 -0.02481,-0.02756 -0.0083,-0.0096 -0.0248,-0.02618 -0.01102,-0.0124 -0.02343,-0.02343 -0.0096,-0.0069 -0.02618,-0.02067 -0.01378,-0.01102 -0.02618,-0.02067 -0.0317,-0.02067 -0.02618,-0.01791 -0.02756,-0.01654 -0.0248,-0.01516 0,0 -0.0248,-0.0124 -0.0055,-0.0028 -0.02618,-0.0096 -0.01791,-0.0069 -0.02618,-0.0096 -0.0069,-0.0014 -0.0124,-0.0028 -0.0055,-0.0028 -0.01102,-0.0055 -0.02481,-0.0041 -0.02481,-0.0041 -0.0083,-0.0014 -0.0248,-0.0014 -0.0041,0 -0.0069,0 -0.0028,0 -0.0055,0 h -0.454752 v 2.045008 0 z"
         style="font-style:normal;font-variant:normal;font-weight:normal;font-stretch:normal;font-size:2.82222px;font-family:'MS 33558';-inkscape-font-specification:'MS 33558, Normal';font-variant-ligatures:normal;font-variant-caps:normal;font-variant-numeric:normal;font-variant-east-asian:normal;stroke-width:0.264583"
         id="path908" />
      <path
         d="m 40.102116,94.890962 q -0.03032,0.194303 -0.19706,0.192925 -0.165364,0 -0.194303,-0.192925 v -2.43637 q 0.02894,-0.194303 0.194303,-0.194303 0.166743,-0.0014 0.19706,0.194303 z"
         style="font-style:normal;font-variant:normal;font-weight:normal;font-stretch:normal;font-size:2.82222px;font-family:'MS 33558';-inkscape-font-specification:'MS 33558, Normal';font-variant-ligatures:normal;font-variant-caps:normal;font-variant-numeric:normal;font-variant-east-asian:normal;stroke-width:0.264583"
         id="path910" />
      <path
         d="m 42.548131,94.888206 q -0.03032,0.192925 -0.195681,0.192925 -0.163986,-0.0014 -0.192925,-0.192925 v -1.721169 l -0.472667,0.808908 q -0.07579,0.09095 -0.169498,0.09508 -0.09233,0.0041 -0.165365,-0.09508 l -0.46991,-0.804774 0.0014,1.717035 q -0.02205,0.191547 -0.199816,0.191547 -0.176389,-0.0014 -0.190169,-0.191547 v -2.433614 q 0.01102,-0.158474 0.139182,-0.188791 0.128157,-0.03169 0.223242,0.08682 l 0.662836,1.139637 0.669726,-1.139637 q 0.09508,-0.118511 0.220486,-0.08682 0.126779,0.03169 0.139181,0.188791 z"
         style="font-style:normal;font-variant:normal;font-weight:normal;font-stretch:normal;font-size:2.82222px;font-family:'MS 33558';-inkscape-font-specification:'MS 33558, Normal';font-variant-ligatures:normal;font-variant-caps:normal;font-variant-numeric:normal;font-variant-east-asian:normal;stroke-width:0.264583"
         id="path912" />
    </g>
  </g>
</svg>
