<?xml version="1.0"?>
<svg xmlns="http://www.w3.org/2000/svg" xmlns:lc="https://librecad.org" xmlns:xlink="http://www.w3.org/1999/xlink" width="124mm" height="145mm" viewBox="0 0 124 145">
    <g lc:layername="foo" lc:is_locked="false" lc:is_construction="false" fill="none" stroke="black" stroke-width="1">
        <circle cx="10" cy="140" r="2"/>
        <circle cx="114" cy="140" r="2"/>
        <circle cx="114" cy="5" r="2"/>
        <circle cx="10" cy="5" r="2"/>
        <circle cx="99" cy="115" r="5"/>
        <circle cx="100" cy="30" r="5"/>
        <circle cx="114" cy="88" r="3.5"/>
        <circle cx="114" cy="58" r="3.5"/>
        <circle cx="44" cy="119" r="3.5"/>
        <circle cx="44" cy="27" r="3.5"/>
        <circle cx="89" cy="73" r="3.5"/>
        <circle cx="119" cy="125" r="1.5"/>
        <circle cx="119" cy="73" r="1.5"/>
        <circle cx="119" cy="20" r="1.5"/>
        <circle cx="52.5" cy="103.5" r="1.5"/>
        <circle cx="34.6" cy="103.5" r="1.5"/>
        <circle cx="34.5" cy="42.4" r="1.5"/>
        <circle cx="52.5" cy="42.4" r="1.5"/>
        <circle cx="28.38" cy="73.35" r="1.52"/>
        <circle cx="10.62" cy="73.35" r="1.5"/>
        <circle cx="10.62" cy="33" r="1.5"/>
        <circle cx="28.38" cy="33" r="1.5"/>
        <path d="M124,145 L124,0 L0,0 L0,145 L124,145 "/>
        <path d="M50.44,95.63 L50.44,50.35 L36.44,50.35 L36.44,95.63 L50.44,95.63 "/>
        <path d="M26.5,65.93 L26.5,35.93 L12.5,35.93 L12.5,65.93 L26.5,65.93 "/>
        <circle cx="67" cy="23" r="4.7"/>
        <circle cx="67" cy="48" r="4.7"/>
        <circle cx="67" cy="73" r="4.7"/>
        <circle cx="67" cy="98" r="4.7"/>
        <circle cx="67" cy="123" r="4.7"/>
        <circle cx="19" cy="21" r="4.7"/>
    </g>
</svg>
