<?xml version="1.0" encoding="UTF-8" standalone="no"?>
<svg
   xmlns:dc="http://purl.org/dc/elements/1.1/"
   xmlns:cc="http://creativecommons.org/ns#"
   xmlns:rdf="http://www.w3.org/1999/02/22-rdf-syntax-ns#"
   xmlns:svg="http://www.w3.org/2000/svg"
   xmlns="http://www.w3.org/2000/svg"
   xmlns:sodipodi="http://sodipodi.sourceforge.net/DTD/sodipodi-0.dtd"
   xmlns:inkscape="http://www.inkscape.org/namespaces/inkscape"
   width="210mm"
   height="297mm"
   viewBox="0 0 210 297"
   version="1.1"
   id="svg8"
   inkscape:version="1.0.2-2 (e86c870879, 2021-01-15)"
   sodipodi:docname="usb_engrave.svg">
  <defs
     id="defs2">
    <marker
       id="DistanceX"
       orient="auto"
       refX="0.0"
       refY="0.0"
       style="overflow:visible">
      <path
         d="M 3,-3 L -3,3 M 0,-5 L  0,5"
         style="stroke:#000000; stroke-width:0.5"
         id="path833" />
    </marker>
    <pattern
       id="Hatch"
       patternUnits="userSpaceOnUse"
       width="8"
       height="8"
       x="0"
       y="0">
      <path
         d="M8 4 l-4,4"
         stroke="#000000"
         stroke-width="0.25"
         linecap="square"
         id="path836" />
      <path
         d="M6 2 l-4,4"
         stroke="#000000"
         stroke-width="0.25"
         linecap="square"
         id="path838" />
      <path
         d="M4 0 l-4,4"
         stroke="#000000"
         stroke-width="0.25"
         linecap="square"
         id="path840" />
    </pattern>
    <symbol
       id="*Model_Space" />
    <symbol
       id="*Paper_Space" />
  </defs>
  <sodipodi:namedview
     id="base"
     pagecolor="#ffffff"
     bordercolor="#666666"
     borderopacity="1.0"
     inkscape:pageopacity="0.0"
     inkscape:pageshadow="2"
     inkscape:zoom="0.98994949"
     inkscape:cx="286.78938"
     inkscape:cy="408.95413"
     inkscape:document-units="mm"
     inkscape:current-layer="layer1"
     inkscape:document-rotation="0"
     showgrid="false"
     inkscape:window-width="1424"
     inkscape:window-height="1019"
     inkscape:window-x="96"
     inkscape:window-y="134"
     inkscape:window-maximized="0" />
  <metadata
     id="metadata5">
    <rdf:RDF>
      <cc:Work
         rdf:about="">
        <dc:format>image/svg+xml</dc:format>
        <dc:type
           rdf:resource="http://purl.org/dc/dcmitype/StillImage" />
        <dc:title></dc:title>
      </cc:Work>
    </rdf:RDF>
  </metadata>
  <g
     inkscape:label="Lag 1"
     inkscape:groupmode="layer"
     id="layer1">
    <g
       inkscape:label="0"
       id="g887"
       transform="matrix(0.26458333,0,0,0.26458333,-131.02976,-204.53572)"
       style="stroke:#ff0000">
      <path
         d="M 585.82677,925.98425 H 566.92913"
         style="fill:none;stroke:#ff0000;stroke-linecap:round"
         id="path847" />
      <path
         d="m 604.72441,869.29134 v 37.79527"
         style="fill:none;stroke:#ff0000;stroke-linecap:round"
         id="path849" />
      <path
         d="m 585.82677,925.98425 a 18.897638,18.897638 0 0 0 18.89764,-18.89764"
         style="fill:none;stroke:#ff0000;stroke-linecap:round"
         id="path851" />
      <path
         d="M 585.82677,1065.8268 H 566.92913"
         style="fill:none;stroke:#ff0000;stroke-linecap:round"
         id="path853" />
      <path
         d="m 604.72441,1122.5197 v -37.7953"
         style="fill:none;stroke:#ff0000;stroke-linecap:round"
         id="path855" />
      <path
         d="m 604.72441,1084.7244 a 18.897638,18.897638 0 0 0 -18.89764,-18.8976"
         style="fill:none;stroke:#ff0000;stroke-linecap:round"
         id="path857" />
      <path
         d="M 1077.1654,907.08661 V 869.29134"
         style="fill:none;stroke:#ff0000;stroke-linecap:round"
         id="path859" />
      <path
         d="M 1114.9606,925.98425 H 1096.063"
         style="fill:none;stroke:#ff0000;stroke-linecap:round"
         id="path861" />
      <path
         d="m 1077.1654,907.08661 a 18.897638,18.897638 0 0 0 18.8976,18.89764"
         style="fill:none;stroke:#ff0000;stroke-linecap:round"
         id="path863" />
      <path
         d="m 1077.1654,1122.5197 v -37.7953"
         style="fill:none;stroke:#ff0000;stroke-linecap:round"
         id="path865" />
      <path
         d="m 1096.063,1065.8268 h 18.8976"
         style="fill:none;stroke:#ff0000;stroke-linecap:round"
         id="path867" />
      <path
         d="m 1096.063,1065.8268 a 18.897638,18.897638 0 0 0 -18.8976,18.8976"
         style="fill:none;stroke:#ff0000;stroke-linecap:round"
         id="path869" />
      <path
         d="M 566.92913,1065.8268 V 925.98425"
         style="fill:none;stroke:#ff0000;stroke-linecap:round"
         id="path871" />
      <path
         d="M 604.72441,869.29134 H 1077.1654"
         style="fill:none;stroke:#ff0000;stroke-linecap:round"
         id="path873" />
      <path
         d="M 1114.9606,925.98425 V 1065.8268"
         style="fill:none;stroke:#ff0000;stroke-linecap:round"
         id="path875" />
      <path
         d="M 1077.1654,1122.5197 H 604.72441"
         style="fill:none;stroke:#ff0000;stroke-linecap:round"
         id="path877" />
      <path
         d="m 620.22047,995.90551 a 6.047245,6.047245 0 1 0 -12.09449,0 6.047245,6.047245 0 1 0 12.09449,0 z"
         style="fill:none;stroke:#ff0000;stroke-linecap:round"
         id="path879" />
      <path
         d="m 1073.7638,995.90551 a 6.04725,6.04725 0 1 0 -12.0945,0 6.04725,6.04725 0 1 0 12.0945,0 z"
         style="fill:none;stroke:#ff0000;stroke-linecap:round"
         id="path881" />
      <path
         d="m 772.91339,995.90551 a 45.354335,45.354335 0 1 0 -90.70867,0 45.354335,45.354335 0 1 0 90.70867,0 z"
         style="fill:none;stroke:#ff0000;stroke-linecap:round"
         id="path883" />
      <path
         d="m 999.68504,995.90551 a 45.354331,45.354331 0 1 0 -90.70866,0 45.354331,45.354331 0 1 0 90.70866,0 z"
         style="fill:none;stroke:#ff0000;stroke-linecap:round"
         id="path885" />
    </g>
    <g
       aria-label="U
S
B"
       id="text934"
       style="font-style:normal;font-variant:normal;font-weight:normal;font-stretch:normal;font-size:4.93889px;line-height:1.25;font-family:'MS 33558';-inkscape-font-specification:'MS 33558, Normal';font-variant-ligatures:normal;font-variant-caps:normal;font-variant-numeric:normal;font-variant-east-asian:normal;text-align:center;text-anchor:middle;stroke-width:0.264583">
      <path
         d="m 24.675946,52.360633 v 0.04823 q -0.0072,0.120578 -0.0096,0.144694 -0.101286,0.737939 -0.605304,1.090028 -0.504017,0.349678 -1.075559,0.327973 -0.571541,-0.02411 -1.04662,-0.417201 -0.472667,-0.393085 -0.513664,-1.145494 v -0.04823 -2.973462 q 0,-0.07235 0.02653,-0.130225 0.115755,-0.253214 0.383439,-0.20016 0.270095,0.05306 0.270095,0.330385 v 2.973462 q 0.03617,0.554661 0.487137,0.82958 0.453375,0.274918 0.952569,-0.02412 0.224276,-0.132636 0.327973,-0.342443 0.106109,-0.209806 0.125402,-0.463021 v -2.973462 q 0,-0.04341 0.0048,-0.06511 0.05547,-0.296623 0.364146,-0.267684 0.308681,0.02894 0.308681,0.332796 z"
         style="font-style:normal;font-variant:normal;font-weight:normal;font-stretch:normal;font-size:4.93889px;font-family:'MS 33558';-inkscape-font-specification:'MS 33558, Normal';font-variant-ligatures:normal;font-variant-caps:normal;font-variant-numeric:normal;font-variant-east-asian:normal;text-align:center;text-anchor:middle;stroke-width:0.264583"
         id="path940" />
      <path
         d="m 23.85119,57.533446 0.03859,0.01688 0.04341,0.02171 0.03859,0.0217 q 0.01688,0.01206 0.03617,0.02411 0.0217,0.0096 0.041,0.0217 0.47749,0.313504 0.590834,0.868165 0.04341,0.217041 0.01929,0.44614 -0.03858,0.327973 -0.23151,0.607715 -0.190514,0.27733 -0.479902,0.429259 -0.311092,0.163986 -0.643889,0.163986 -0.559483,0 -1.068324,-0.142282 -0.508841,-0.144694 -0.725882,-0.76929 -0.02894,-0.07958 -0.04341,-0.163987 -0.01447,-0.0844 -0.03376,-0.16881 -0.03617,-0.173632 0.08441,-0.306269 0.12299,-0.132636 0.303857,-0.101285 0.190514,0.03858 0.265273,0.236333 l 0.0072,0.0217 q 0.115756,0.52331 0.402732,0.624596 0.289388,0.101286 0.803052,0.09164 0.472667,0 0.648712,-0.443729 0.07717,-0.197748 0.02412,-0.409966 -0.05305,-0.21463 -0.209806,-0.356912 -0.06994,-0.06029 -0.183279,-0.113344 l -1.116556,-0.489548 -0.03617,-0.01929 q -0.547426,-0.289388 -0.680062,-0.822345 -0.161575,-0.617361 0.224275,-1.106909 0.388263,-0.49196 1.017682,-0.49196 l 0.265272,0.0072 q 0.130225,0.02412 0.250803,0.04823 0.120579,0.0217 0.243569,0.07717 0.303857,0.142283 0.465432,0.390674 0.161575,0.248392 0.2918,0.53778 0.01206,0.02653 0.0217,0.0627 0.02653,0.118167 -0.02412,0.21463 -0.02894,0.06029 -0.06029,0.09164 -0.03135,0.03135 -0.05064,0.04341 -0.125401,0.08923 -0.274919,0.05305 -0.149517,-0.03376 -0.229098,-0.192925 -0.0627,-0.139871 -0.135048,-0.284565 -0.06994,-0.147106 -0.197749,-0.243569 -0.05305,-0.03858 -0.103697,-0.05547 -0.04823,-0.01929 -0.108521,-0.041 l -0.156752,-0.02653 -0.221864,-0.0072 q -0.32315,0.0048 -0.494371,0.279742 -0.115755,0.176044 -0.08682,0.393085 0.03376,0.267684 0.250803,0.41479 0.0096,0.0072 0.0217,0.01688 0.01206,0.0072 0.02653,0.01447 l 0.02653,0.01206 0.02894,0.01206 z"
         style="font-style:normal;font-variant:normal;font-weight:normal;font-stretch:normal;font-size:4.93889px;font-family:'MS 33558';-inkscape-font-specification:'MS 33558, Normal';font-variant-ligatures:normal;font-variant-caps:normal;font-variant-numeric:normal;font-variant-east-asian:normal;text-align:center;text-anchor:middle;stroke-width:0.264583"
         id="path942" />
      <path
         d="m 23.295324,61.396776 q 0.458198,0.03859 0.76929,0.277331 0.313504,0.238745 0.434082,0.576364 0.120578,0.335208 0.03135,0.716236 -0.08682,0.378616 -0.424436,0.696943 0.371382,0.390674 0.463021,0.844048 0.09164,0.453375 -0.05788,0.848872 -0.147106,0.393086 -0.513664,0.668004 -0.366558,0.274919 -0.909161,0.311092 h -0.0072 -1.282954 q -0.296622,-0.041 -0.342442,-0.335207 v -4.26124 q 0.041,-0.299034 0.342442,-0.342443 z m -0.21463,4.256417 q 0.409967,-0.01688 0.624596,-0.265273 0.21463,-0.248391 0.221864,-0.549837 0.0096,-0.303857 -0.192925,-0.56913 -0.202572,-0.265272 -0.624596,-0.320738 h -0.971862 v 1.704978 z m 0.21463,-3.571531 h -1.157553 v 1.188902 h 1.164787 q 0.299035,-0.03135 0.443729,-0.214629 0.147105,-0.185691 0.142282,-0.395497 -0.0024,-0.212218 -0.151928,-0.385851 -0.149518,-0.176044 -0.441317,-0.192925 z"
         style="font-style:normal;font-variant:normal;font-weight:normal;font-stretch:normal;font-size:4.93889px;font-family:'MS 33558';-inkscape-font-specification:'MS 33558, Normal';font-variant-ligatures:normal;font-variant-caps:normal;font-variant-numeric:normal;font-variant-east-asian:normal;text-align:center;text-anchor:middle;stroke-width:0.264583"
         id="path944" />
    </g>
  </g>
</svg>
