<?xml version="1.0" encoding="UTF-8" standalone="no"?>
<svg
   xmlns:dc="http://purl.org/dc/elements/1.1/"
   xmlns:cc="http://creativecommons.org/ns#"
   xmlns:rdf="http://www.w3.org/1999/02/22-rdf-syntax-ns#"
   xmlns:svg="http://www.w3.org/2000/svg"
   xmlns="http://www.w3.org/2000/svg"
   xmlns:sodipodi="http://sodipodi.sourceforge.net/DTD/sodipodi-0.dtd"
   xmlns:inkscape="http://www.inkscape.org/namespaces/inkscape"
   width="210mm"
   height="297mm"
   viewBox="0 0 210 297"
   version="1.1"
   id="svg8"
   inkscape:version="1.0.2-2 (e86c870879, 2021-01-15)"
   sodipodi:docname="vvi_engrave.svg">
  <defs
     id="defs2">
    <marker
       id="DistanceX"
       orient="auto"
       refX="0.0"
       refY="0.0"
       style="overflow:visible">
      <path
         d="M 3,-3 L -3,3 M 0,-5 L  0,5"
         style="stroke:#000000; stroke-width:0.5"
         id="path833" />
    </marker>
    <pattern
       id="Hatch"
       patternUnits="userSpaceOnUse"
       width="8"
       height="8"
       x="0"
       y="0">
      <path
         d="M8 4 l-4,4"
         stroke="#000000"
         stroke-width="0.25"
         linecap="square"
         id="path836" />
      <path
         d="M6 2 l-4,4"
         stroke="#000000"
         stroke-width="0.25"
         linecap="square"
         id="path838" />
      <path
         d="M4 0 l-4,4"
         stroke="#000000"
         stroke-width="0.25"
         linecap="square"
         id="path840" />
    </pattern>
    <symbol
       id="*Model_Space" />
    <symbol
       id="*Paper_Space" />
    <symbol
       id="vvi_acrylic" />
    <symbol
       id="vvi_styrene" />
  </defs>
  <sodipodi:namedview
     id="base"
     pagecolor="#ffffff"
     bordercolor="#666666"
     borderopacity="1.0"
     inkscape:pageopacity="0.0"
     inkscape:pageshadow="2"
     inkscape:zoom="3.5297272"
     inkscape:cx="176.01081"
     inkscape:cy="199.24878"
     inkscape:document-units="mm"
     inkscape:current-layer="layer1"
     inkscape:document-rotation="0"
     showgrid="false"
     inkscape:window-width="1920"
     inkscape:window-height="2083"
     inkscape:window-x="1910"
     inkscape:window-y="38"
     inkscape:window-maximized="0" />
  <metadata
     id="metadata5">
    <rdf:RDF>
      <cc:Work
         rdf:about="">
        <dc:format>image/svg+xml</dc:format>
        <dc:type
           rdf:resource="http://purl.org/dc/dcmitype/StillImage" />
        <dc:title></dc:title>
      </cc:Work>
    </rdf:RDF>
  </metadata>
  <g
     inkscape:label="Lag 1"
     inkscape:groupmode="layer"
     id="layer1">
    <g
       id="g1041"
       transform="matrix(0.26458333,0,0,0.26458333,3.3014073,-207.56874)"
       style="stroke:#ff0000">
      <g
         inkscape:label="0"
         id="g961"
         style="stroke:#ff0000">
        <path
           d="m 17.385827,808.8189 a 6.047244,6.047244 0 1 0 -12.094488,0 6.047244,6.047244 0 1 0 12.094488,0 z"
           style="fill:none;stroke:#ff0000;stroke-linecap:round"
           id="path849" />
        <path
           d="m 145.88976,808.8189 a 6.047244,6.047244 0 1 0 -12.09448,0 6.047244,6.047244 0 1 0 12.09448,0 z"
           style="fill:none;stroke:#ff0000;stroke-linecap:round"
           id="path851" />
        <path
           d="m 17.385827,1111.1811 a 6.047244,6.047244 0 1 0 -12.094488,0 6.047244,6.047244 0 1 0 12.094488,0 z"
           style="fill:none;stroke:#ff0000;stroke-linecap:round"
           id="path853" />
        <path
           d="m 145.88976,1111.1811 a 6.047244,6.047244 0 1 0 -12.09448,0 6.047244,6.047244 0 1 0 12.09448,0 z"
           style="fill:none;stroke:#ff0000;stroke-linecap:round"
           id="path855" />
        <path
           d="M 1.889764,808.8189 A 11.338583,11.338583 0 0 1 13.228346,797.48032 H 139.84252 a 11.338583,11.338583 0 0 1 11.33858,11.33858 v 302.3622 a 11.338583,11.338583 0 0 1 -11.33858,11.3386 H 13.228346 A 11.338583,11.338583 0 0 1 1.889764,1111.1811 Z"
           style="fill:none;stroke:#ff0000;stroke-linecap:round"
           id="path857" />
        <path
           d="m 126.61417,846.61417 a 11.338583,11.338583 0 0 1 11.33859,11.33859 v 204.09444 a 11.338583,11.338583 0 0 1 -11.33859,11.3386 H 24.566929 A 11.338583,11.338583 0 0 1 13.228346,1062.0472 V 857.95276 a 11.338583,11.338583 0 0 1 11.338583,-11.33859 z"
           style="fill:none;stroke:#ff0000;stroke-linecap:round"
           id="path859" />
        <path
           d="m 206.3622,808.8189 a 6.047244,6.047244 0 1 0 -12.09448,0 6.047244,6.047244 0 1 0 12.09448,0 z"
           style="fill:none;stroke:#ff0000;stroke-linecap:round"
           id="path861" />
        <path
           d="m 334.86614,808.8189 a 6.047245,6.047245 0 1 0 -12.09449,0 6.047245,6.047245 0 1 0 12.09449,0 z"
           style="fill:none;stroke:#ff0000;stroke-linecap:round"
           id="path863" />
        <path
           d="m 206.3622,1111.1811 a 6.047244,6.047244 0 1 0 -12.09448,0 6.047244,6.047244 0 1 0 12.09448,0 z"
           style="fill:none;stroke:#ff0000;stroke-linecap:round"
           id="path865" />
        <path
           d="m 334.86614,1111.1811 a 6.047245,6.047245 0 1 0 -12.09449,0 6.047245,6.047245 0 1 0 12.09449,0 z"
           style="fill:none;stroke:#ff0000;stroke-linecap:round"
           id="path867" />
        <path
           d="m 190.86614,808.8189 a 11.338583,11.338583 0 0 1 11.33858,-11.33858 H 328.8189 a 11.338583,11.338583 0 0 1 11.33858,11.33858 v 302.3622 a 11.338583,11.338583 0 0 1 -11.33858,11.3386 H 202.20472 a 11.338583,11.338583 0 0 1 -11.33858,-11.3386 z"
           style="fill:none;stroke:#ff0000;stroke-linecap:round"
           id="path869" />
        <path
           d="m 315.59055,846.61417 a 11.338583,11.338583 0 0 1 11.33858,11.33859 v 204.09444 a 11.338583,11.338583 0 0 1 -11.33858,11.3386 H 213.54331 a 11.338583,11.338583 0 0 1 -11.33859,-11.3386 V 857.95276 a 11.338583,11.338583 0 0 1 11.33859,-11.33859 z"
           style="fill:none;stroke:#ff0000;stroke-linecap:round"
           id="path871" />
        <path
           d="m 17.385827,808.8189 a 6.047244,6.047244 0 1 0 -12.094488,0 6.047244,6.047244 0 1 0 12.094488,0 z"
           style="fill:none;stroke:#ff0000;stroke-linecap:round"
           id="path873" />
        <path
           d="m 145.88976,808.8189 a 6.047244,6.047244 0 1 0 -12.09448,0 6.047244,6.047244 0 1 0 12.09448,0 z"
           style="fill:none;stroke:#ff0000;stroke-linecap:round"
           id="path875" />
        <path
           d="m 17.385827,1111.1811 a 6.047244,6.047244 0 1 0 -12.094488,0 6.047244,6.047244 0 1 0 12.094488,0 z"
           style="fill:none;stroke:#ff0000;stroke-linecap:round"
           id="path877" />
        <path
           d="m 145.88976,1111.1811 a 6.047244,6.047244 0 1 0 -12.09448,0 6.047244,6.047244 0 1 0 12.09448,0 z"
           style="fill:none;stroke:#ff0000;stroke-linecap:round"
           id="path879" />
        <path
           d="M 1.889764,808.8189 A 11.338583,11.338583 0 0 1 13.228346,797.48032 H 139.84252 a 11.338583,11.338583 0 0 1 11.33858,11.33858 v 302.3622 a 11.338583,11.338583 0 0 1 -11.33858,11.3386 H 13.228346 A 11.338583,11.338583 0 0 1 1.889764,1111.1811 Z"
           style="fill:none;stroke:#ff0000;stroke-linecap:round"
           id="path881" />
        <path
           d="m 206.3622,808.8189 a 6.047244,6.047244 0 1 0 -12.09448,0 6.047244,6.047244 0 1 0 12.09448,0 z"
           style="fill:none;stroke:#ff0000;stroke-linecap:round"
           id="path883" />
        <path
           d="m 334.86614,808.8189 a 6.047245,6.047245 0 1 0 -12.09449,0 6.047245,6.047245 0 1 0 12.09449,0 z"
           style="fill:none;stroke:#ff0000;stroke-linecap:round"
           id="path885" />
        <path
           d="m 206.3622,1111.1811 a 6.047244,6.047244 0 1 0 -12.09448,0 6.047244,6.047244 0 1 0 12.09448,0 z"
           style="fill:none;stroke:#ff0000;stroke-linecap:round"
           id="path887" />
        <path
           d="m 334.86614,1111.1811 a 6.047245,6.047245 0 1 0 -12.09449,0 6.047245,6.047245 0 1 0 12.09449,0 z"
           style="fill:none;stroke:#ff0000;stroke-linecap:round"
           id="path889" />
        <path
           d="m 190.86614,808.8189 a 11.338583,11.338583 0 0 1 11.33858,-11.33858 H 328.8189 a 11.338583,11.338583 0 0 1 11.33858,11.33858 v 302.3622 a 11.338583,11.338583 0 0 1 -11.33858,11.3386 H 202.20472 a 11.338583,11.338583 0 0 1 -11.33858,-11.3386 z"
           style="fill:none;stroke:#ff0000;stroke-linecap:round"
           id="path891" />
        <path
           d="M 43.464567,1054.4882 H 107.71653"
           style="fill:none;stroke:#ff0000;stroke-linecap:round"
           id="path893" />
        <path
           d="m 107.71653,1054.4882 a 11.338583,11.338583 0 0 0 11.33859,-11.3386"
           style="fill:none;stroke:#ff0000;stroke-linecap:round"
           id="path895" />
        <path
           d="m 32.125984,1043.1496 a 11.338583,11.338583 0 0 0 11.338583,11.3386"
           style="fill:none;stroke:#ff0000;stroke-linecap:round"
           id="path897" />
        <path
           d="m 32.125984,967.93701 11.338583,-5.66929"
           style="fill:none;stroke:#ff0000;stroke-linecap:round"
           id="path899" />
        <path
           d="m 119.05512,967.93701 -11.33859,-5.66929"
           style="fill:none;stroke:#ff0000;stroke-linecap:round"
           id="path901" />
        <path
           d="M 43.464567,962.26772 H 107.71653"
           style="fill:none;stroke:#ff0000;stroke-linecap:round"
           id="path903" />
        <path
           d="m 32.125984,967.93701 v 75.21259"
           style="fill:none;stroke:#ff0000;stroke-linecap:round"
           id="path905" />
        <path
           d="M 119.05512,1043.1496 V 967.93701"
           style="fill:none;stroke:#ff0000;stroke-linecap:round"
           id="path907" />
        <path
           d="M 43.464567,865.51181 H 107.71653"
           style="fill:none;stroke:#ff0000;stroke-linecap:round"
           id="path909" />
        <path
           d="M 119.05512,876.85039 A 11.338583,11.338583 0 0 0 107.71653,865.51181"
           style="fill:none;stroke:#ff0000;stroke-linecap:round"
           id="path911" />
        <path
           d="M 43.464567,865.51181 A 11.338583,11.338583 0 0 0 32.125984,876.85039"
           style="fill:none;stroke:#ff0000;stroke-linecap:round"
           id="path913" />
        <path
           d="m 32.125984,952.06299 11.338583,5.66929"
           style="fill:none;stroke:#ff0000;stroke-linecap:round"
           id="path915" />
        <path
           d="m 119.05512,952.06299 -11.33859,5.66929"
           style="fill:none;stroke:#ff0000;stroke-linecap:round"
           id="path917" />
        <path
           d="M 43.464567,957.73228 H 107.71653"
           style="fill:none;stroke:#ff0000;stroke-linecap:round"
           id="path919" />
        <path
           d="m 32.125984,952.06299 v -75.2126"
           style="fill:none;stroke:#ff0000;stroke-linecap:round"
           id="path921" />
        <path
           d="m 119.05512,876.85039 v 75.2126"
           style="fill:none;stroke:#ff0000;stroke-linecap:round"
           id="path923" />
        <path
           d="m 232.44094,1054.4882 h 64.25197"
           style="fill:none;stroke:#ff0000;stroke-linecap:round"
           id="path925" />
        <path
           d="m 296.69291,1054.4882 a 11.338583,11.338583 0 0 0 11.33859,-11.3386"
           style="fill:none;stroke:#ff0000;stroke-linecap:round"
           id="path927" />
        <path
           d="m 221.10236,1043.1496 a 11.338583,11.338583 0 0 0 11.33858,11.3386"
           style="fill:none;stroke:#ff0000;stroke-linecap:round"
           id="path929" />
        <path
           d="m 221.10236,967.93701 11.33858,-5.66929"
           style="fill:none;stroke:#ff0000;stroke-linecap:round"
           id="path931" />
        <path
           d="m 308.0315,967.93701 -11.33859,-5.66929"
           style="fill:none;stroke:#ff0000;stroke-linecap:round"
           id="path933" />
        <path
           d="m 232.44094,962.26772 h 64.25197"
           style="fill:none;stroke:#ff0000;stroke-linecap:round"
           id="path935" />
        <path
           d="m 221.10236,967.93701 v 75.21259"
           style="fill:none;stroke:#ff0000;stroke-linecap:round"
           id="path937" />
        <path
           d="M 308.0315,1043.1496 V 967.93701"
           style="fill:none;stroke:#ff0000;stroke-linecap:round"
           id="path939" />
        <path
           d="m 232.44094,865.51181 h 64.25197"
           style="fill:none;stroke:#ff0000;stroke-linecap:round"
           id="path941" />
        <path
           d="M 308.0315,876.85039 A 11.338583,11.338583 0 0 0 296.69291,865.51181"
           style="fill:none;stroke:#ff0000;stroke-linecap:round"
           id="path943" />
        <path
           d="m 232.44094,865.51181 a 11.338583,11.338583 0 0 0 -11.33858,11.33858"
           style="fill:none;stroke:#ff0000;stroke-linecap:round"
           id="path945" />
        <path
           d="m 221.10236,952.06299 11.33858,5.66929"
           style="fill:none;stroke:#ff0000;stroke-linecap:round"
           id="path947" />
        <path
           d="m 308.0315,952.06299 -11.33859,5.66929"
           style="fill:none;stroke:#ff0000;stroke-linecap:round"
           id="path949" />
        <path
           d="m 232.44094,957.73228 h 64.25197"
           style="fill:none;stroke:#ff0000;stroke-linecap:round"
           id="path951" />
        <path
           d="m 221.10236,952.06299 v -75.2126"
           style="fill:none;stroke:#ff0000;stroke-linecap:round"
           id="path953" />
        <path
           d="m 308.0315,876.85039 v 75.2126"
           style="fill:none;stroke:#ff0000;stroke-linecap:round"
           id="path955" />
        <g
           id="use957"
           style="stroke:#ff0000"
           transform="translate(377.953,-755.906)" />
        <g
           id="use959"
           style="stroke:#ff0000"
           transform="translate(377.953,-755.906)" />
      </g>
      <g
         inkscape:label="dimensions"
         id="g963"
         style="stroke:#ff0000" />
    </g>
    <g
       aria-label="V
V
I"
       id="text1051"
       style="font-size:3.52777px;line-height:1.25;font-family:'MS 33558';-inkscape-font-specification:'MS 33558, Normal';text-align:center;text-anchor:middle;stroke-width:0.264583">
      <path
         d="m 8.4592584,27.84359 q -0.032728,-0.244601 0.1739769,-0.299723 0.2084278,-0.05512 0.2962776,0.173977 l 0.5804973,2.149735 0.5839428,-2.170405 q 0.08785,-0.232544 0.303167,-0.16881 0.215318,0.06201 0.165365,0.294555 l -0.8199314,3.043736 q -0.068902,0.177422 -0.2308209,0.179144 -0.1619191,0 -0.2359885,-0.172254 z"
         style="text-align:center;text-anchor:middle;stroke-width:0.264583"
         id="path1126" />
      <path
         d="M 8.4592584,32.253303 Q 8.42653,32.008701 8.6332353,31.95358 q 0.2084278,-0.05512 0.2962776,0.173977 l 0.5804973,2.149735 0.5839428,-2.170406 q 0.08785,-0.232543 0.303167,-0.168809 0.215318,0.06201 0.165365,0.294555 l -0.8199314,3.043735 q -0.068902,0.177422 -0.2308209,0.179145 -0.1619191,0 -0.2359885,-0.172255 z"
         style="text-align:center;text-anchor:middle;stroke-width:0.264583"
         id="path1128" />
      <path
         d="m 9.7511663,39.627513 q -0.037896,0.242879 -0.2463237,0.241156 -0.2067053,0 -0.2428787,-0.241156 v -3.045457 q 0.036173,-0.242879 0.2428787,-0.242879 0.2084278,-0.0017 0.2463237,0.242879 z"
         style="text-align:center;text-anchor:middle;stroke-width:0.264583"
         id="path1130" />
    </g>
    <g
       aria-label="A
o
A"
       id="text1059"
       style="font-size:3.52777px;line-height:1.25;font-family:'MS 33558';-inkscape-font-specification:'MS 33558, Normal';text-align:center;text-anchor:middle;stroke-width:0.264583">
      <path
         d="m 59.72067,29.910582 -0.523653,-1.446937 -0.527099,1.446937 z m -0.523653,-1.446937 0.523653,1.446937 z m -1.329804,2.246198 q 0.275607,-0.759642 0.551214,-1.517562 0.277329,-0.759642 0.554659,-1.519283 0.05684,-0.156752 0.225653,-0.158474 0.16881,-0.0017 0.227376,0.158474 l 1.104151,3.045457 q 0.05168,0.242879 -0.148139,0.313503 -0.199815,0.07062 -0.308335,-0.144693 L 59.89637,30.394617 h -1.403874 l -0.172254,0.48059 q -0.110243,0.21704 -0.313503,0.142971 -0.20326,-0.07579 -0.139526,-0.308335 z"
         style="text-align:center;text-anchor:middle;stroke-width:0.264583"
         id="path1119" />
      <path
         d="m 60.216763,32.938814 q 0.158474,0.477145 0.118855,0.990463 -0.0379,0.513318 -0.280774,0.937064 -0.153307,0.263549 -0.418579,0.447862 -0.265271,0.184312 -0.585664,0.12919 -0.521931,-0.09129 -0.799261,-0.544324 -0.277329,-0.453029 -0.318671,-1.007688 -0.03962,-0.556381 0.149862,-1.08348 0.191202,-0.527098 0.608058,-0.766532 0.20326,-0.117133 0.425468,-0.117133 0.423746,0 0.692463,0.320393 0.268717,0.318671 0.408243,0.694185 z m -1.086925,-0.525375 q -0.316949,0 -0.48059,0.341063 -0.161919,0.341064 -0.204983,0.58222 -0.03273,0.1757 -0.02412,0.425468 0.0086,0.249769 0.07235,0.494371 0.06373,0.242878 0.191203,0.439248 0.127468,0.194648 0.334173,0.258382 0.241156,0.07579 0.415133,-0.09474 0.1757,-0.172254 0.265272,-0.365179 0.0913,-0.198093 0.124023,-0.520209 0.03445,-0.322115 -0.0155,-0.642509 -0.04823,-0.322115 -0.191202,-0.578774 -0.142971,-0.258382 -0.40652,-0.329006 -0.03445,-0.01034 -0.07924,-0.01034 z"
         style="text-align:center;text-anchor:middle;stroke-width:0.264583"
         id="path1121" />
      <path
         d="m 59.72067,38.730007 -0.523653,-1.446937 -0.527099,1.446937 z m -0.523653,-1.446937 0.523653,1.446937 z m -1.329804,2.246198 q 0.275607,-0.759642 0.551214,-1.517562 0.277329,-0.759641 0.554659,-1.519283 0.05684,-0.156752 0.225653,-0.158474 0.16881,-0.0017 0.227376,0.158474 l 1.104151,3.045457 q 0.05168,0.242879 -0.148139,0.313503 -0.199815,0.07062 -0.308335,-0.144693 L 59.89637,39.214042 h -1.403874 l -0.172254,0.48059 q -0.110243,0.21704 -0.313503,0.142971 -0.20326,-0.07579 -0.139526,-0.308335 z"
         style="text-align:center;text-anchor:middle;stroke-width:0.264583"
         id="path1123" />
    </g>
    <g
       aria-label="D
E
G"
       id="text1067"
       style="font-style:normal;font-variant:normal;font-weight:normal;font-stretch:normal;font-size:2.82222px;line-height:1.25;font-family:'MS 33558';-inkscape-font-specification:'MS 33558, Normal';font-variant-ligatures:normal;font-variant-caps:normal;font-variant-numeric:normal;font-variant-east-asian:normal;text-align:center;text-anchor:middle;stroke-width:0.264583">
      <path
         d="m 58.560998,54.180809 h 0.649056 q 0.483691,0 0.724847,0.440972 0.241157,0.440972 0.241157,0.970138 0,0.529166 -0.242535,0.970138 -0.241156,0.440972 -0.723469,0.440972 h -0.649056 0.0028 -0.0028 q -0.04547,-0.0069 -0.04961,-0.0083 -0.143316,-0.03445 -0.141938,-0.187413 h -0.0014 l 0.0014,-2.433614 q -0.0014,-0.0041 -0.0014,-0.01102 0.0041,-0.07579 0.05926,-0.128158 0.0565,-0.05374 0.135047,-0.05374 z m 0.649056,2.433613 q 0.0028,0 0.0055,0 0.0028,0 0.0069,0 0.0028,0 0.0041,0 0.0028,-0.0014 0.0069,-0.0014 0.0028,0 0.0055,0 0.0041,-0.0014 0.0083,-0.0014 0.0028,0 0.0055,0 0.0028,-0.0014 0.0069,-0.0014 0.0028,0 0.0055,0 0.0028,-0.0014 0.0069,-0.0014 0.0055,-0.0028 0.01102,-0.0028 0.0028,0 0.0055,-0.0014 0.0028,-0.0028 0.0069,-0.0041 0.0028,0 0.0055,0 0.0041,-0.0014 0.0083,-0.0028 0.0028,0 0.0055,-0.0014 0.0028,-0.0014 0.0069,-0.0028 0.0083,-0.0028 0.0124,-0.0055 0.02481,-0.0083 0.01378,-0.0055 0.0028,0 0.0055,-0.0014 0.0028,-0.0028 0.0069,-0.0041 0.0124,-0.0083 0.01102,-0.0069 0.01378,-0.0069 0.01378,-0.0069 0.0028,-0.0014 0.0055,-0.0028 0.0028,-0.0028 0.0069,-0.0055 0.0124,-0.0083 0.0124,-0.0083 0.0028,-0.0014 0.0055,-0.0028 0.0041,-0.0028 0.0083,-0.0055 0.0028,-0.0014 0.0055,-0.0041 0.0028,-0.0028 0.0069,-0.0055 0.0028,-0.0014 0.0055,-0.0028 0.0028,-0.0028 0.0069,-0.0055 0.0028,-0.0028 0.01378,-0.01102 0.01102,-0.01103 0.01102,-0.01103 0.0028,-0.0028 0.0055,-0.0055 0.0028,-0.0028 0.0069,-0.0069 0.0028,-0.0028 0.0055,-0.0055 0.0028,-0.0028 0.0069,-0.0069 0.0041,-0.0028 0.0124,-0.01103 0.0028,-0.0028 0.0055,-0.0055 0.0028,-0.0028 0.0069,-0.0069 0.0028,-0.0028 0.0055,-0.0055 0.0028,-0.0041 0.0069,-0.0083 0.01654,-0.02205 0.01102,-0.01378 0.0096,-0.0096 0.0124,-0.01516 0.0124,-0.01654 0.01102,-0.01516 0.0028,-0.0041 0.0055,-0.0069 0.0028,-0.0041 0.0069,-0.0083 0.0028,-0.0041 0.0041,-0.0083 0.0028,-0.0041 0.0069,-0.0083 0.0014,-0.0041 0.0041,-0.0083 0.0041,-0.0055 0.0069,-0.0096 0.0083,-0.01102 0.01102,-0.01654 0.0028,-0.0041 0.0041,-0.0083 0.0028,-0.0055 0.0069,-0.0096 0.0028,-0.0041 0.0041,-0.0083 0.0028,-0.0055 0.0069,-0.0096 0.0028,-0.0069 0.0083,-0.01792 0.0028,-0.0041 0.0041,-0.0096 0.0028,-0.0055 0.0069,-0.01102 0.0028,-0.0041 0.0041,-0.0083 0.0028,-0.0055 0.0069,-0.01102 0.0014,-0.0041 0.0028,-0.0096 0.0028,-0.0055 0.0055,-0.01102 0.0041,-0.0069 0.0096,-0.02067 0.01378,-0.03445 0.0096,-0.02205 0.0014,-0.0041 0.0028,-0.0096 0.0028,-0.0069 0.0055,-0.0124 0.0014,-0.0055 0.0028,-0.01102 0.0028,-0.0055 0.0055,-0.0124 0.0041,-0.0124 0.0069,-0.02205 0.0014,-0.0055 0.0028,-0.01103 0.0028,-0.0055 0.0055,-0.0124 -0.0055,0.01378 0.0069,-0.02343 0.0028,-0.0069 0.0083,-0.02343 0,-0.0055 0.0014,-0.01102 0.0028,-0.0069 0.0041,-0.01378 0.0014,-0.0055 0.0028,-0.01102 0.0014,-0.0069 0.0041,-0.01378 0,-0.0041 0.0014,-0.0096 0.0028,-0.0069 0.0041,-0.01378 0.0014,-0.0096 0.0041,-0.02618 0,-0.0055 0.0014,-0.01102 0.0028,-0.0069 0.0041,-0.01378 0,-0.0055 0.0014,-0.01102 0.0014,-0.0069 0.0028,-0.01378 0.0014,-0.0096 0.0041,-0.02618 0,-0.0055 0.0014,-0.0124 0.0028,-0.0069 0.0041,-0.01378 0,-0.0096 0.0028,-0.02618 0,-0.0055 0,-0.01102 0.0014,-0.0069 0.0028,-0.01516 0.0028,-0.01654 0.0028,-0.02618 0.0014,-0.0096 0.0014,-0.02618 0.0014,-0.0096 0.0014,-0.02756 0.0014,-0.0096 0.0014,-0.02618 0,-0.0069 0,-0.0124 0.0014,-0.0069 0.0028,-0.01516 0,-0.0055 0,-0.01102 0.0014,-0.0069 0.0014,-0.01516 0,-0.0055 0,-0.0124 0,-0.0069 0,-0.01378 0,-0.0069 0,-0.0124 0,-0.0069 0,-0.01378 0,-0.0069 -0.0014,-0.0124 0,-0.0069 0,-0.01516 0,-0.0055 0,-0.0124 0,-0.0069 0,-0.01378 0,-0.0083 -0.0028,-0.02756 0,-0.01654 -0.0014,-0.02481 0,-0.0096 -0.0028,-0.02894 0,-0.01654 -0.0014,-0.0248 0,-0.0096 -0.0028,-0.02618 -0.0014,-0.0055 -0.0028,-0.0124 0,-0.0069 0,-0.01378 -0.0028,-0.01654 -0.0055,-0.02618 -0.0014,-0.0055 -0.0028,-0.01103 -0.0014,-0.0069 -0.0014,-0.01378 -0.0014,-0.0096 -0.0041,-0.02618 -0.0014,-0.0096 -0.0041,-0.02618 -0.0055,-0.01654 -0.0069,-0.02481 -0.0028,-0.01654 -0.0041,-0.02343 -0.0028,-0.0055 -0.0041,-0.01102 -0.0014,-0.0069 -0.0028,-0.01378 -0.0014,-0.0055 -0.0041,-0.01102 -0.0028,-0.0069 -0.0028,-0.01378 -0.0124,-0.03721 -0.0069,-0.02343 -0.0028,-0.0096 -0.0069,-0.02343 -0.0028,-0.0041 -0.0055,-0.0096 -0.0014,-0.0069 -0.0028,-0.0124 -0.0014,-0.0041 -0.0083,-0.02343 -0.0055,-0.01378 -0.0083,-0.02205 -0.0028,-0.0041 -0.0055,-0.0096 -0.0014,-0.0069 -0.0028,-0.0124 -0.0028,-0.0041 -0.0055,-0.0096 -0.0028,-0.0055 -0.0041,-0.01102 -0.0055,-0.01378 -0.0096,-0.02067 -0.0055,-0.01378 -0.0083,-0.01929 -0.0055,-0.01378 -0.0096,-0.02067 -0.0028,-0.0041 -0.0055,-0.0083 -0.0028,-0.0055 -0.0041,-0.0096 -0.0083,-0.01378 -0.01102,-0.01929 -0.0124,-0.01929 -0.01102,-0.01791 -0.0041,-0.0041 -0.0069,-0.0083 -0.0014,-0.0055 -0.0041,-0.0096 -0.0028,-0.0055 -0.01102,-0.01654 -0.0028,-0.0041 -0.0055,-0.0083 -0.0028,-0.0041 -0.0041,-0.0083 -0.0069,-0.0124 -0.02343,-0.03169 -0.0028,-0.0028 -0.02205,-0.03032 -0.01654,-0.01929 -0.02481,-0.02756 -0.0083,-0.0096 -0.0248,-0.02618 -0.01103,-0.0124 -0.02343,-0.02343 -0.0096,-0.0069 -0.02618,-0.02067 -0.01378,-0.01102 -0.02618,-0.02067 -0.03169,-0.02067 -0.02618,-0.01791 -0.02756,-0.01654 -0.02481,-0.01516 0,0 -0.0248,-0.0124 -0.0055,-0.0028 -0.02618,-0.0096 -0.01792,-0.0069 -0.02618,-0.0096 -0.0069,-0.0014 -0.0124,-0.0028 -0.0055,-0.0028 -0.01102,-0.0055 -0.02481,-0.0041 -0.02481,-0.0041 -0.0083,-0.0014 -0.02481,-0.0014 -0.0041,0 -0.0069,0 -0.0028,0 -0.0055,0 h -0.454752 v 2.045007 0 z"
         style="font-style:normal;font-variant:normal;font-weight:normal;font-stretch:normal;font-size:2.82222px;font-family:'MS 33558';-inkscape-font-specification:'MS 33558, Normal';font-variant-ligatures:normal;font-variant-caps:normal;font-variant-numeric:normal;font-variant-east-asian:normal;text-align:center;text-anchor:middle;stroke-width:0.264583"
         id="path1112" />
      <path
         d="m 59.923877,58.093056 h -1.142393 v 0.753787 h 0.87092 q 0.195681,0.02894 0.194303,0.197059 0,0.166742 -0.194303,0.194303 h -0.87092 v 0.905371 h 1.142393 q 0.194303,0.02894 0.194303,0.194303 0,0.165364 -0.194303,0.192925 h -1.33394 q -0.172254,-0.02205 -0.195681,-0.195681 v -2.433614 q 0.02618,-0.181901 0.195681,-0.192925 h 1.33394 q 0.194303,0.01516 0.192925,0.194303 0,0.177767 -0.192925,0.190169 z"
         style="font-style:normal;font-variant:normal;font-weight:normal;font-stretch:normal;font-size:2.82222px;font-family:'MS 33558';-inkscape-font-specification:'MS 33558, Normal';font-variant-ligatures:normal;font-variant-caps:normal;font-variant-numeric:normal;font-variant-east-asian:normal;text-align:center;text-anchor:middle;stroke-width:0.264583"
         id="path1114" />
      <path
         d="m 59.336833,62.921698 -0.0124,-0.0014 q -0.168121,-0.02067 -0.168121,-0.191547 0,-0.170876 0.168121,-0.191547 l 0.0124,-0.0028 h 0.0124 0.508495 q 0.07993,0 0.136426,0.05788 0.05788,0.0565 0.05788,0.136425 v 0.698665 l -0.01654,0.03583 -0.0096,0.02205 -0.0096,0.02067 -0.01102,0.02067 -0.01102,0.02067 -0.0096,0.02067 -0.01102,0.02067 -0.0124,0.02067 q -0.267339,0.454752 -0.664214,0.445106 -0.396874,-0.01102 -0.66697,-0.44924 -0.128157,-0.208084 -0.190169,-0.520898 -0.06201,-0.314193 -0.03721,-0.640787 0.02481,-0.327973 0.151584,-0.622873 0.128158,-0.296278 0.381717,-0.469911 0.316948,-0.214974 0.61736,-0.04961 0.300412,0.163986 0.44924,0.461642 l 0.01102,0.02205 0.0083,0.01929 0.01102,0.02067 q 0.04685,0.130913 -0.03583,0.213596 -0.07993,0.07855 -0.173633,0.05926 -0.09371,-0.02067 -0.144693,-0.111621 -0.161231,-0.399631 -0.416168,-0.348643 -0.253558,0.05099 -0.380338,0.416167 -0.124023,0.352778 -0.09784,0.759299 0.02618,0.405142 0.264584,0.706933 0.163986,0.210839 0.333485,0.135047 0.169498,-0.07579 0.267339,-0.282497 l 0.01516,-0.03032 v -0.420302 z"
         style="font-style:normal;font-variant:normal;font-weight:normal;font-stretch:normal;font-size:2.82222px;font-family:'MS 33558';-inkscape-font-specification:'MS 33558, Normal';font-variant-ligatures:normal;font-variant-caps:normal;font-variant-numeric:normal;font-variant-east-asian:normal;text-align:center;text-anchor:middle;stroke-width:0.264583"
         id="path1116" />
    </g>
    <g
       aria-label="1
0
0
0
f
p
m"
       id="text1079"
       style="font-style:normal;font-variant:normal;font-weight:normal;font-stretch:normal;font-size:2.11667px;line-height:1.25;font-family:'MS 33558';-inkscape-font-specification:'MS 33558, Normal';font-variant-ligatures:normal;font-variant-caps:normal;font-variant-numeric:normal;font-variant-east-asian:normal;text-align:center;text-anchor:middle;stroke-width:0.264583">
      <path
         d="M 9.5898986,51.884705 H 9.2510741 v -1.276923 q -0.1856903,0.173633 -0.4376986,0.256832 v -0.307475 q 0.1326359,-0.04341 0.2881817,-0.163986 0.1555458,-0.121784 0.2134233,-0.283358 h 0.2749181 z"
         style="font-style:normal;font-variant:normal;font-weight:bold;font-stretch:normal;font-size:2.46944px;font-family:Arial;-inkscape-font-specification:'Arial, Bold';font-variant-ligatures:normal;font-variant-caps:normal;font-variant-numeric:normal;font-variant-east-asian:normal;text-align:center;text-anchor:middle;stroke-width:0.264583"
         id="path1097" />
      <path
         d="m 9.153836,52.779802 q 0.2315107,0 0.378272,0.192237 0.1467613,0.192236 0.2036055,0.390674 0.023771,0.08682 0.041341,0.181901 0.05271,0.282154 0,0.618051 -0.051677,0.335898 -0.2470137,0.557073 -0.1570966,0.176734 -0.3638027,0.176734 -0.3172938,0 -0.4774909,-0.33073 -0.1591637,-0.330729 -0.1612308,-0.727605 -0.00103,-0.396876 0.1550296,-0.727605 0.156063,-0.33073 0.4712898,-0.33073 z m 0.00723,0.292489 q -0.1229901,0.02481 -0.1953372,0.14056 -0.071314,0.115756 -0.1054201,0.26355 -0.034107,0.147795 -0.037207,0.298691 -0.0031,0.150895 0.011369,0.244946 0.012402,0.08888 0.058911,0.229444 0.046509,0.139527 0.116789,0.240813 0.071314,0.100252 0.1622642,0.115755 0.090951,0.01447 0.1932702,-0.146761 0.077515,-0.124024 0.1157553,-0.315227 0.038241,-0.191203 0.026872,-0.390675 -0.011369,-0.199471 -0.076481,-0.376205 -0.064079,-0.176733 -0.1901696,-0.272851 -0.038241,-0.02687 -0.072347,-0.03204 -0.00103,0 -0.0031,0 -0.00103,0 -0.00517,0 z"
         style="font-style:normal;font-variant:normal;font-weight:normal;font-stretch:normal;font-size:2.11667px;font-family:'MS 33558';-inkscape-font-specification:'MS 33558, Normal';font-variant-ligatures:normal;font-variant-caps:normal;font-variant-numeric:normal;font-variant-east-asian:normal;text-align:center;text-anchor:middle;stroke-width:0.264583"
         id="path1099" />
      <path
         d="m 9.153836,55.425639 q 0.2315107,0 0.378272,0.192237 0.1467613,0.192237 0.2036055,0.390674 0.023771,0.08682 0.041341,0.181902 0.05271,0.282153 0,0.618051 -0.051677,0.335897 -0.2470137,0.557073 -0.1570966,0.176733 -0.3638027,0.176733 -0.3172938,0 -0.4774909,-0.330729 -0.1591637,-0.33073 -0.1612308,-0.727606 -0.00103,-0.396875 0.1550296,-0.727605 0.156063,-0.33073 0.4712898,-0.33073 z m 0.00723,0.292489 q -0.1229901,0.02481 -0.1953372,0.140561 -0.071314,0.115755 -0.1054201,0.26355 -0.034107,0.147795 -0.037207,0.29869 -0.0031,0.150895 0.011369,0.244947 0.012402,0.08888 0.058911,0.229443 0.046509,0.139527 0.116789,0.240813 0.071314,0.100252 0.1622642,0.115755 0.090951,0.01447 0.1932702,-0.146761 0.077515,-0.124024 0.1157553,-0.315227 0.038241,-0.191203 0.026872,-0.390674 -0.011369,-0.199471 -0.076481,-0.376205 -0.064079,-0.176734 -0.1901696,-0.272852 -0.038241,-0.02687 -0.072347,-0.03204 -0.00103,0 -0.0031,0 -0.00103,0 -0.00517,0 z"
         style="font-style:normal;font-variant:normal;font-weight:normal;font-stretch:normal;font-size:2.11667px;font-family:'MS 33558';-inkscape-font-specification:'MS 33558, Normal';font-variant-ligatures:normal;font-variant-caps:normal;font-variant-numeric:normal;font-variant-east-asian:normal;text-align:center;text-anchor:middle;stroke-width:0.264583"
         id="path1101" />
      <path
         d="m 9.153836,58.071477 q 0.2315107,0 0.378272,0.192236 0.1467613,0.192237 0.2036055,0.390675 0.023771,0.08682 0.041341,0.181901 0.05271,0.282154 0,0.618051 -0.051677,0.335898 -0.2470137,0.557073 -0.1570966,0.176734 -0.3638027,0.176734 -0.3172938,0 -0.4774909,-0.33073 -0.1591637,-0.33073 -0.1612308,-0.727605 -0.00103,-0.396876 0.1550296,-0.727606 0.156063,-0.330729 0.4712898,-0.330729 z m 0.00723,0.292489 q -0.1229901,0.02481 -0.1953372,0.14056 -0.071314,0.115755 -0.1054201,0.26355 -0.034107,0.147795 -0.037207,0.29869 -0.0031,0.150896 0.011369,0.244947 0.012402,0.08888 0.058911,0.229444 0.046509,0.139526 0.116789,0.240812 0.071314,0.100253 0.1622642,0.115756 0.090951,0.01447 0.1932702,-0.146762 0.077515,-0.124023 0.1157553,-0.315226 0.038241,-0.191203 0.026872,-0.390675 -0.011369,-0.199471 -0.076481,-0.376205 -0.064079,-0.176733 -0.1901696,-0.272852 -0.038241,-0.02687 -0.072347,-0.03204 -0.00103,0 -0.0031,0 -0.00103,0 -0.00517,0 z"
         style="font-style:normal;font-variant:normal;font-weight:normal;font-stretch:normal;font-size:2.11667px;font-family:'MS 33558';-inkscape-font-specification:'MS 33558, Normal';font-variant-ligatures:normal;font-variant-caps:normal;font-variant-numeric:normal;font-variant-east-asian:normal;text-align:center;text-anchor:middle;stroke-width:0.264583"
         id="path1103" />
      <path
         d="m 8.5145975,62.687223 v -1.823148 q 0.018604,-0.136426 0.1467613,-0.146761 h 1.0004573 q 0.1436607,0.01137 0.1436607,0.146761 0,0.134359 -0.1457278,0.143661 H 8.8050195 v 0.565341 h 0.666627 q 0.1426272,0.01034 0.1446942,0.139527 0.00207,0.129191 -0.1446942,0.150895 h -0.666627 v 0.823724 q -0.010335,0.142627 -0.1405601,0.144694 -0.1291913,0.0021 -0.1498619,-0.144694 z"
         style="font-style:normal;font-variant:normal;font-weight:normal;font-stretch:normal;font-size:2.11667px;font-family:'MS 33558';-inkscape-font-specification:'MS 33558, Normal';font-variant-ligatures:normal;font-variant-caps:normal;font-variant-numeric:normal;font-variant-east-asian:normal;text-align:center;text-anchor:middle;stroke-width:0.264583"
         id="path1105" />
      <path
         d="m 9.250471,63.363151 h 0.019637 q 0.1322919,0.0093 0.2439131,0.05994 0.2139408,0.100253 0.3028244,0.329696 0.088884,0.229444 -0.00207,0.447519 -0.073381,0.1726 -0.2170413,0.270785 -0.1436607,0.09715 -0.3276291,0.108521 l -0.019637,0.001 H 8.7481753 v 0.753444 q -0.018603,0.145727 -0.1467612,0.145727 -0.1281578,0 -0.1457278,-0.145727 v -1.826248 q 0.015503,-0.128158 0.136426,-0.144695 h 0.0093 z m 0,0.291456 H 8.7481753 v 0.633554 H 9.250471 q 0.1178225,0 0.2077396,-0.07855 0.090951,-0.07855 0.1064536,-0.196371 0.018604,-0.142627 -0.076481,-0.250114 -0.095085,-0.108521 -0.237712,-0.108521 z"
         style="font-style:normal;font-variant:normal;font-weight:normal;font-stretch:normal;font-size:2.11667px;font-family:'MS 33558';-inkscape-font-specification:'MS 33558, Normal';font-variant-ligatures:normal;font-variant-caps:normal;font-variant-numeric:normal;font-variant-east-asian:normal;text-align:center;text-anchor:middle;stroke-width:0.264583"
         id="path1107" />
      <path
         d="m 9.9512045,67.980965 q -0.022738,0.144694 -0.1467613,0.144694 -0.1229901,-0.001 -0.1446942,-0.144694 v -1.29088 l -0.3545009,0.606683 q -0.056844,0.06821 -0.1271242,0.07131 -0.069246,0.0031 -0.1240236,-0.07131 L 8.7016665,66.693186 8.7027,67.980965 q -0.016537,0.14366 -0.1498619,0.14366 -0.1322918,-0.001 -0.1426271,-0.14366 V 66.15575 q 0.00827,-0.118856 0.1043865,-0.141594 0.096118,-0.02377 0.1674319,0.06511 l 0.497128,0.854729 0.5022957,-0.854729 q 0.071314,-0.08888 0.1653649,-0.06511 0.095085,0.02377 0.1043865,0.141594 z"
         style="font-style:normal;font-variant:normal;font-weight:normal;font-stretch:normal;font-size:2.11667px;font-family:'MS 33558';-inkscape-font-specification:'MS 33558, Normal';font-variant-ligatures:normal;font-variant-caps:normal;font-variant-numeric:normal;font-variant-east-asian:normal;text-align:center;text-anchor:middle;stroke-width:0.264583"
         id="path1109" />
    </g>
  </g>
</svg>
