<?xml version="1.0" encoding="UTF-8" standalone="no"?>
<svg
   xmlns:dc="http://purl.org/dc/elements/1.1/"
   xmlns:cc="http://creativecommons.org/ns#"
   xmlns:rdf="http://www.w3.org/1999/02/22-rdf-syntax-ns#"
   xmlns:svg="http://www.w3.org/2000/svg"
   xmlns="http://www.w3.org/2000/svg"
   xmlns:sodipodi="http://sodipodi.sourceforge.net/DTD/sodipodi-0.dtd"
   xmlns:inkscape="http://www.inkscape.org/namespaces/inkscape"
   width="210mm"
   height="297mm"
   viewBox="0 0 210 297"
   version="1.1"
   id="svg3746"
   inkscape:version="1.0.1 (3bc2e813f5, 2020-09-07)"
   sodipodi:docname="antiice_engrave.svg">
  <defs
     id="defs3740">
    <marker
       id="DistanceX"
       orient="auto"
       refX="0.0"
       refY="0.0"
       style="overflow:visible">
      <path
         d="M 3,-3 L -3,3 M 0,-5 L  0,5"
         style="stroke:#000000; stroke-width:0.5"
         id="path4309" />
    </marker>
    <pattern
       id="Hatch"
       patternUnits="userSpaceOnUse"
       width="8"
       height="8"
       x="0"
       y="0">
      <path
         d="M8 4 l-4,4"
         stroke="#000000"
         stroke-width="0.25"
         linecap="square"
         id="path4312" />
      <path
         d="M6 2 l-4,4"
         stroke="#000000"
         stroke-width="0.25"
         linecap="square"
         id="path4314" />
      <path
         d="M4 0 l-4,4"
         stroke="#000000"
         stroke-width="0.25"
         linecap="square"
         id="path4316" />
    </pattern>
    <symbol
       id="*Model_Space" />
    <symbol
       id="*Paper_Space" />
  </defs>
  <sodipodi:namedview
     id="base"
     pagecolor="#ffffff"
     bordercolor="#666666"
     borderopacity="1.0"
     inkscape:pageopacity="0.0"
     inkscape:pageshadow="2"
     inkscape:zoom="1.979899"
     inkscape:cx="284.93879"
     inkscape:cy="248.86173"
     inkscape:document-units="mm"
     inkscape:current-layer="layer1"
     inkscape:document-rotation="0"
     showgrid="true"
     inkscape:snap-grids="false"
     inkscape:window-width="1918"
     inkscape:window-height="2071"
     inkscape:window-x="-8"
     inkscape:window-y="0"
     inkscape:window-maximized="0">
    <inkscape:grid
       type="xygrid"
       id="grid4445" />
  </sodipodi:namedview>
  <metadata
     id="metadata3743">
    <rdf:RDF>
      <cc:Work
         rdf:about="">
        <dc:format>image/svg+xml</dc:format>
        <dc:type
           rdf:resource="http://purl.org/dc/dcmitype/StillImage" />
        <dc:title></dc:title>
      </cc:Work>
    </rdf:RDF>
  </metadata>
  <g
     inkscape:label="Lag 1"
     inkscape:groupmode="layer"
     id="layer1">
    <g
       inkscape:label="0"
       id="g4341"
       transform="matrix(0.26458333,0,0,0.26458333,8.3869047,-248.77381)"
       style="stroke:#ff0000">
      <path
         d="m 173.85827,1046.9291 a 22.677165,22.677165 0 1 0 -45.35433,0 22.677165,22.677165 0 1 0 45.35433,0 z"
         style="fill:none;stroke:#ff0000;stroke-linecap:round"
         id="path4323" />
      <path
         d="m 347.71654,1046.9291 a 22.677165,22.677165 0 1 0 -45.35433,0 22.677165,22.677165 0 1 0 45.35433,0 z"
         style="fill:none;stroke:#ff0000;stroke-linecap:round"
         id="path4325" />
      <path
         d="m 461.10236,1046.9291 a 22.677165,22.677165 0 1 0 -45.35433,0 22.677165,22.677165 0 1 0 45.35433,0 z"
         style="fill:none;stroke:#ff0000;stroke-linecap:round"
         id="path4327" />
      <path
         d="m 37.795276,1122.5197 v -37.7953 A 18.897638,18.897638 0 0 0 18.897638,1065.8268 H 0"
         style="fill:none;stroke:#ff0000;stroke-linecap:round"
         id="path4329" />
      <path
         d="m 510.23622,975.11811 v 37.79529 a 18.897638,18.897638 0 0 0 18.89764,18.8976 h 18.89764"
         style="fill:none;stroke:#ff0000;stroke-linecap:round"
         id="path4331" />
      <path
         d="M 37.795276,1122.5197 H 548.0315"
         style="fill:none;stroke:#ff0000;stroke-linecap:round"
         id="path4333" />
      <path
         d="M 548.0315,1122.5197 V 1031.811"
         style="fill:none;stroke:#ff0000;stroke-linecap:round"
         id="path4335" />
      <path
         d="M 510.23622,975.11811 H 0"
         style="fill:none;stroke:#ff0000;stroke-linecap:round"
         id="path4337" />
      <path
         d="m 0,975.11811 v 90.70869"
         style="fill:none;stroke:#ff0000;stroke-linecap:round"
         id="path4339" />
    </g>
    <g
       aria-label="A
N
T
I"
       id="text4377"
       style="font-style:normal;font-variant:normal;font-weight:normal;font-stretch:normal;font-size:4.93889px;line-height:1.25;font-family:'MS 33558';-inkscape-font-specification:'MS 33558, Normal';font-variant-ligatures:normal;font-variant-caps:normal;font-variant-numeric:normal;font-variant-east-asian:normal;text-align:center;text-anchor:middle;stroke-width:0.264583"
       transform="translate(0,-1.5875)">
      <path
         d="m 22.124922,18.206976 -0.733117,-2.025716 -0.737939,2.025716 z m -0.733117,-2.025716 0.733117,2.025716 z m -1.86173,3.144684 q 0.385851,-1.063502 0.771702,-2.124591 0.388262,-1.063501 0.776525,-2.127003 0.07958,-0.219452 0.315915,-0.221864 0.236334,-0.0024 0.318327,0.221864 l 1.545814,4.263651 q 0.07235,0.340031 -0.207394,0.438906 -0.279742,0.09887 -0.431671,-0.202572 l -0.248391,-0.689708 h -1.965428 l -0.241156,0.672827 q -0.154341,0.303858 -0.438906,0.20016 -0.284565,-0.106109 -0.195337,-0.43167 z"
         style="font-style:normal;font-variant:normal;font-weight:normal;font-stretch:normal;font-size:4.93889px;font-family:'MS 33558';-inkscape-font-specification:'MS 33558, Normal';font-variant-ligatures:normal;font-variant-caps:normal;font-variant-numeric:normal;font-variant-east-asian:normal;text-align:center;text-anchor:middle;stroke-width:0.264583"
         id="path4584" />
      <path
         d="m 22.942443,25.632192 q 0,0.253215 -0.24598,0.32315 -0.243568,0.06752 -0.378616,-0.144694 l -2.025716,-3.248381 v 3.069925 q -0.05306,0.33762 -0.342443,0.33762 -0.286976,0 -0.337619,-0.33762 v -4.258828 q 0.03617,-0.250803 0.255626,-0.330384 0.221864,-0.07958 0.36897,0.149517 l 2.025716,3.253204 v -3.072337 q 0.04582,-0.344854 0.349677,-0.340031 0.306269,0.0024 0.330385,0.340031 z"
         style="font-style:normal;font-variant:normal;font-weight:normal;font-stretch:normal;font-size:4.93889px;font-family:'MS 33558';-inkscape-font-specification:'MS 33558, Normal';font-variant-ligatures:normal;font-variant-caps:normal;font-variant-numeric:normal;font-variant-east-asian:normal;text-align:center;text-anchor:middle;stroke-width:0.264583"
         id="path4586" />
      <path
         d="m 20.926373,31.800982 v -3.921209 h -0.885045 q -0.33762,-0.02653 -0.33762,-0.337619 0.0024,-0.313504 0.33762,-0.342443 h 2.44774 q 0.332797,0.02653 0.332797,0.342443 0.0024,0.313503 -0.332797,0.337619 h -0.882633 v 3.921209 q -0.05547,0.342442 -0.356912,0.337619 -0.299034,-0.0048 -0.32315,-0.337619 z"
         style="font-style:normal;font-variant:normal;font-weight:normal;font-stretch:normal;font-size:4.93889px;font-family:'MS 33558';-inkscape-font-specification:'MS 33558, Normal';font-variant-ligatures:normal;font-variant-caps:normal;font-variant-numeric:normal;font-variant-east-asian:normal;text-align:center;text-anchor:middle;stroke-width:0.264583"
         id="path4588" />
      <path
         d="m 21.623316,37.979417 q -0.05306,0.340031 -0.344854,0.33762 -0.289388,0 -0.340031,-0.33762 v -4.263651 q 0.05064,-0.340031 0.340031,-0.340031 0.291799,-0.0024 0.344854,0.340031 z"
         style="font-style:normal;font-variant:normal;font-weight:normal;font-stretch:normal;font-size:4.93889px;font-family:'MS 33558';-inkscape-font-specification:'MS 33558, Normal';font-variant-ligatures:normal;font-variant-caps:normal;font-variant-numeric:normal;font-variant-east-asian:normal;text-align:center;text-anchor:middle;stroke-width:0.264583"
         id="path4590" />
    </g>
    <g
       aria-label="I
C
E"
       id="text4387"
       style="font-style:normal;font-variant:normal;font-weight:normal;font-stretch:normal;font-size:4.93889px;line-height:1.25;font-family:'MS 33558';-inkscape-font-specification:'MS 33558, Normal';font-variant-ligatures:normal;font-variant-caps:normal;font-variant-numeric:normal;font-variant-east-asian:normal;text-align:center;text-anchor:middle;stroke-width:0.264583"
       transform="translate(0,-1.5875)">
      <path
         d="m 26.183855,33.7884 q -0.05305,0.340031 -0.344854,0.33762 -0.289388,0 -0.340031,-0.33762 v -4.263651 q 0.05064,-0.340031 0.340031,-0.340031 0.2918,-0.0024 0.344854,0.340031 z"
         style="font-style:normal;font-variant:normal;font-weight:normal;font-stretch:normal;font-size:4.93889px;font-family:'MS 33558';-inkscape-font-specification:'MS 33558, Normal';font-variant-ligatures:normal;font-variant-caps:normal;font-variant-numeric:normal;font-variant-east-asian:normal;text-align:center;text-anchor:middle;stroke-width:0.264583"
         id="path4577" />
      <path
         d="m 27.400491,39.523108 -0.0217,0.03135 q -0.0072,0.0096 -0.01206,0.01688 -0.0048,0.0072 -0.0096,0.01447 -0.330385,0.44614 -0.868165,0.636654 -0.535368,0.188102 -1.056266,-0.06994 -0.605304,-0.301446 -0.889869,-1.022505 -0.282153,-0.721058 -0.243568,-1.497583 0.041,-0.778936 0.409967,-1.43006 0.371381,-0.651123 1.075559,-0.815109 0.405143,-0.09405 0.807875,0.07958 0.402731,0.171222 0.660769,0.482314 0.0024,0 0.01206,0.01688 0.110932,0.144694 0.04582,0.318327 -0.06511,0.171221 -0.238745,0.214629 -0.185691,0.04823 -0.342443,-0.110932 -0.32315,-0.376204 -0.622184,-0.361735 -0.299035,0.01447 -0.535368,0.24598 -0.236334,0.23151 -0.393086,0.593245 -0.156752,0.361736 -0.192925,0.677651 -0.04341,0.352089 0.0072,0.709001 0.05305,0.3545 0.219452,0.668004 0.289388,0.549837 0.728294,0.689708 0.441316,0.137459 0.860929,-0.422024 0.01929,-0.02412 0.04582,-0.0627 0.226687,-0.250803 0.47749,-0.05064 0.253215,0.197749 0.07476,0.448552 z"
         style="font-style:normal;font-variant:normal;font-weight:normal;font-stretch:normal;font-size:4.93889px;font-family:'MS 33558';-inkscape-font-specification:'MS 33558, Normal';font-variant-ligatures:normal;font-variant-caps:normal;font-variant-numeric:normal;font-variant-east-asian:normal;text-align:center;text-anchor:middle;stroke-width:0.264583"
         id="path4579" />
      <path
         d="m 27.017052,42.202359 h -1.99919 v 1.319127 h 1.524111 q 0.342442,0.05064 0.340031,0.344855 0,0.291799 -0.340031,0.340031 h -1.524111 v 1.584399 h 1.99919 q 0.340031,0.05064 0.340031,0.340031 0,0.289388 -0.340031,0.33762 h -2.334398 q -0.301446,-0.03858 -0.342442,-0.342443 v -4.258828 q 0.04582,-0.318327 0.342442,-0.337619 h 2.334398 q 0.340031,0.02653 0.337619,0.340031 0,0.311092 -0.337619,0.332796 z"
         style="font-style:normal;font-variant:normal;font-weight:normal;font-stretch:normal;font-size:4.93889px;font-family:'MS 33558';-inkscape-font-specification:'MS 33558, Normal';font-variant-ligatures:normal;font-variant-caps:normal;font-variant-numeric:normal;font-variant-east-asian:normal;text-align:center;text-anchor:middle;stroke-width:0.264583"
         id="path4581" />
    </g>
    <g
       aria-label="ENGINE"
       id="text4395"
       style="font-size:3.29433px;line-height:1.25;font-family:'MS 33558';-inkscape-font-specification:'MS 33558, Normal';stroke-width:0.264583">
      <path
         d="m 44.68226,11.854282 h -1.333496 v 0.879882 h 1.01661 q 0.228415,0.03378 0.226807,0.230024 0,0.194635 -0.226807,0.226807 h -1.01661 v 1.056823 h 1.333496 q 0.226807,0.03378 0.226807,0.226807 0,0.193027 -0.226807,0.225198 h -1.557086 q -0.201069,-0.02574 -0.228415,-0.228415 v -2.840716 q 0.03056,-0.21233 0.228415,-0.225199 h 1.557086 q 0.226807,0.01769 0.225198,0.226807 0,0.207505 -0.225198,0.221982 z"
         style="stroke-width:0.264583"
         id="path4564" />
      <path
         d="m 47.577667,14.477842 q 0,0.168899 -0.164073,0.215547 -0.162464,0.04504 -0.252544,-0.09651 l -1.35119,-2.16673 v 2.047696 q -0.03539,0.225198 -0.228415,0.225198 -0.191419,0 -0.225199,-0.225198 v -2.840716 q 0.02413,-0.16729 0.170508,-0.220373 0.147987,-0.05308 0.246109,0.09973 l 1.35119,2.169947 v -2.049305 q 0.03056,-0.230024 0.233242,-0.226807 0.204287,0.0016 0.220372,0.226807 z"
         style="stroke-width:0.264583"
         id="path4566" />
      <path
         d="m 49.139579,13.372762 -0.01448,-0.0016 q -0.196244,-0.02413 -0.196244,-0.22359 0,-0.199461 0.196244,-0.223589 l 0.01448,-0.0032 h 0.01448 0.593558 q 0.0933,0 0.159247,0.06756 0.06756,0.06595 0.06756,0.159247 v 0.81554 l -0.0193,0.04182 -0.01126,0.02574 -0.01126,0.02413 -0.01287,0.02413 -0.01287,0.02413 -0.01126,0.02413 -0.01287,0.02413 -0.01448,0.02413 q -0.312061,0.530825 -0.775326,0.519565 -0.463265,-0.01287 -0.778543,-0.524391 -0.149596,-0.242892 -0.221981,-0.608035 -0.07238,-0.366752 -0.04343,-0.74798 0.02895,-0.382838 0.176942,-0.727069 0.149596,-0.345841 0.445571,-0.548519 0.369968,-0.250935 0.720634,-0.05791 0.350666,0.191418 0.524391,0.538867 l 0.01287,0.02574 0.0097,0.02252 0.01287,0.02413 q 0.05469,0.152814 -0.04182,0.249327 -0.0933,0.09169 -0.202679,0.06917 -0.109382,-0.02413 -0.168899,-0.130293 -0.188201,-0.466482 -0.485785,-0.406966 -0.295975,0.05952 -0.443962,0.485785 -0.14477,0.411792 -0.114208,0.886317 0.03056,0.472916 0.308844,0.825191 0.191418,0.246109 0.389271,0.157638 0.197853,-0.08847 0.312061,-0.329754 l 0.01769,-0.03539 v -0.49061 z"
         style="stroke-width:0.264583"
         id="path4568" />
      <path
         d="m 50.955642,14.477842 q -0.03539,0.226807 -0.230024,0.225198 -0.193027,0 -0.226807,-0.225198 v -2.843933 q 0.03378,-0.226807 0.226807,-0.226807 0.194636,-0.0016 0.230024,0.226807 z"
         style="stroke-width:0.264583"
         id="path4570" />
      <path
         d="m 53.633893,14.477842 q 0,0.168899 -0.164073,0.215547 -0.162464,0.04504 -0.252544,-0.09651 l -1.351189,-2.16673 v 2.047696 q -0.03539,0.225198 -0.228416,0.225198 -0.191419,0 -0.225198,-0.225198 v -2.840716 q 0.02413,-0.16729 0.170507,-0.220373 0.147988,-0.05308 0.24611,0.09973 l 1.35119,2.169947 v -2.049305 q 0.03056,-0.230024 0.233241,-0.226807 0.204287,0.0016 0.220372,0.226807 z"
         style="stroke-width:0.264583"
         id="path4572" />
      <path
         d="m 55.881052,11.854282 h -1.333496 v 0.879882 h 1.016609 q 0.228416,0.03378 0.226807,0.230024 0,0.194635 -0.226807,0.226807 h -1.016609 v 1.056823 h 1.333496 q 0.226806,0.03378 0.226806,0.226807 0,0.193027 -0.226806,0.225198 h -1.557086 q -0.20107,-0.02574 -0.228415,-0.228415 v -2.840716 q 0.03056,-0.21233 0.228415,-0.225199 h 1.557086 q 0.226806,0.01769 0.225198,0.226807 0,0.207505 -0.225198,0.221982 z"
         style="stroke-width:0.264583"
         id="path4574" />
    </g>
    <g
       aria-label="ON"
       id="text4399"
       style="font-size:3.29433px;line-height:1.25;font-family:'MS 33558';-inkscape-font-specification:'MS 33558, Normal';stroke-width:0.264583">
      <path
         d="m 56.111617,18.649867 q 0.147987,0.445571 0.110991,0.924922 -0.03539,0.479351 -0.262196,0.875056 -0.143161,0.24611 -0.39088,0.418226 -0.247718,0.172116 -0.54691,0.120642 -0.487393,-0.08525 -0.746371,-0.508305 -0.258979,-0.423051 -0.297584,-0.941007 -0.037,-0.519565 0.139945,-1.011784 0.17855,-0.492219 0.567821,-0.715809 0.18981,-0.109382 0.397314,-0.109382 0.395706,0 0.646641,0.299192 0.250936,0.297583 0.381229,0.648249 z m -1.015001,-0.49061 q -0.295975,0 -0.448788,0.318494 -0.151205,0.318495 -0.191419,0.543694 -0.03056,0.164073 -0.02252,0.397314 0.008,0.233241 0.06756,0.461656 0.05952,0.226807 0.17855,0.410183 0.119033,0.181767 0.312061,0.241284 0.225198,0.07078 0.387662,-0.08847 0.164073,-0.160856 0.247719,-0.341014 0.08525,-0.184985 0.115816,-0.485785 0.03217,-0.300801 -0.01448,-0.599993 -0.04504,-0.300801 -0.17855,-0.540476 -0.133511,-0.241284 -0.37962,-0.307235 -0.03217,-0.0097 -0.07399,-0.0097 z"
         style="stroke-width:0.264583"
         id="path4559" />
      <path
         d="m 58.876731,20.774774 q 0,0.168899 -0.164073,0.215547 -0.162465,0.04504 -0.252544,-0.09651 l -1.35119,-2.16673 v 2.047696 q -0.03539,0.225199 -0.228416,0.225199 -0.191418,0 -0.225198,-0.225199 v -2.840716 q 0.02413,-0.16729 0.170507,-0.220372 0.147988,-0.05308 0.24611,0.09973 l 1.35119,2.169947 v -2.049305 q 0.03056,-0.230024 0.233241,-0.226807 0.204287,0.0016 0.220373,0.226807 z"
         style="stroke-width:0.264583"
         id="path4561" />
    </g>
    <g
       aria-label="AUTO"
       id="text4403"
       style="font-size:3.29433px;line-height:1.25;font-family:'MS 33558';-inkscape-font-specification:'MS 33558, Normal';stroke-width:0.264583">
      <path
         d="m 58.4977,28.604828 -0.489002,-1.35119 -0.492219,1.35119 z m -0.489002,-1.35119 0.489002,1.35119 z M 56.76689,29.3512 q 0.25737,-0.709375 0.514739,-1.417141 0.258979,-0.709375 0.517957,-1.41875 0.05308,-0.146379 0.210721,-0.147987 0.157639,-0.0016 0.21233,0.147987 l 1.031086,2.843933 q 0.04826,0.226807 -0.138336,0.292758 -0.186593,0.06595 -0.287932,-0.135119 l -0.165681,-0.460048 h -1.310976 l -0.160856,0.448788 Q 57.086994,29.7083 56.897184,29.639132 56.707374,29.568355 56.76689,29.3512 Z"
         style="stroke-width:0.264583"
         id="path4550" />
      <path
         d="m 61.738948,28.575874 v 0.03217 q -0.0048,0.08043 -0.0064,0.09651 -0.06756,0.492219 -0.403749,0.727069 -0.336189,0.233241 -0.717417,0.218764 -0.381229,-0.01609 -0.698115,-0.278281 -0.315278,-0.262195 -0.342623,-0.764066 v -0.03217 -1.983354 q 0,-0.04826 0.01769,-0.08686 0.07721,-0.168899 0.255761,-0.133511 0.180158,0.03539 0.180158,0.220373 v 1.983354 q 0.02413,0.369969 0.324929,0.553344 0.30241,0.183376 0.635381,-0.01609 0.149596,-0.08847 0.218764,-0.228416 0.07078,-0.139944 0.08365,-0.308843 V 26.59252 q 0,-0.02895 0.0032,-0.04343 0.037,-0.197853 0.242892,-0.17855 0.205896,0.0193 0.205896,0.221981 z"
         style="stroke-width:0.264583"
         id="path4552" />
      <path
         d="m 62.946976,29.436453 v -2.615517 h -0.590341 q -0.225199,-0.01769 -0.225199,-0.225199 0.0016,-0.209113 0.225199,-0.228415 h 1.632688 q 0.221981,0.01769 0.221981,0.228415 0.0016,0.209113 -0.221981,0.225199 H 63.40059 v 2.615517 q -0.037,0.228416 -0.238067,0.225199 -0.199461,-0.0032 -0.215547,-0.225199 z"
         style="stroke-width:0.264583"
         id="path4554" />
      <path
         d="m 66.831647,27.314763 q 0.147988,0.445571 0.110991,0.924922 -0.03539,0.479351 -0.262195,0.875056 -0.143162,0.24611 -0.39088,0.418226 -0.247718,0.172116 -0.546911,0.120642 -0.487393,-0.08525 -0.746371,-0.508305 -0.258978,-0.423051 -0.297584,-0.941007 -0.037,-0.519565 0.139945,-1.011784 0.17855,-0.492219 0.567822,-0.715809 0.18981,-0.109382 0.397314,-0.109382 0.395705,0 0.646641,0.299192 0.250935,0.297583 0.381228,0.648249 z m -1.015001,-0.49061 q -0.295975,0 -0.448788,0.318494 -0.151204,0.318495 -0.191418,0.543694 -0.03056,0.164073 -0.02252,0.397314 0.008,0.233241 0.06756,0.461656 0.05952,0.226807 0.17855,0.410183 0.119034,0.181767 0.312061,0.241284 0.225198,0.07078 0.387663,-0.08847 0.164073,-0.160856 0.247718,-0.341014 0.08525,-0.184985 0.115816,-0.485785 0.03217,-0.300801 -0.01448,-0.599993 -0.04504,-0.300801 -0.17855,-0.540476 -0.13351,-0.241284 -0.37962,-0.307235 -0.03217,-0.0097 -0.07399,-0.0097 z"
         style="stroke-width:0.264583"
         id="path4556" />
    </g>
    <g
       aria-label="OFF"
       id="text4407"
       style="font-size:3.29433px;line-height:1.25;font-family:'MS 33558';-inkscape-font-specification:'MS 33558, Normal';stroke-width:0.264583">
      <path
         d="m 56.111617,36.907819 q 0.147987,0.445571 0.110991,0.924922 -0.03539,0.47935 -0.262196,0.875056 -0.143161,0.24611 -0.39088,0.418226 -0.247718,0.172115 -0.54691,0.120642 -0.487393,-0.08525 -0.746371,-0.508305 -0.258979,-0.423051 -0.297584,-0.941008 -0.037,-0.519564 0.139945,-1.011784 0.17855,-0.492219 0.567821,-0.715808 0.18981,-0.109383 0.397314,-0.109383 0.395706,0 0.646641,0.299193 0.250936,0.297583 0.381229,0.648249 z m -1.015001,-0.490611 q -0.295975,0 -0.448788,0.318495 -0.151205,0.318495 -0.191419,0.543693 -0.03056,0.164073 -0.02252,0.397314 0.008,0.233242 0.06756,0.461657 0.05952,0.226807 0.17855,0.410183 0.119033,0.181767 0.312061,0.241284 0.225198,0.07078 0.387662,-0.08847 0.164073,-0.160856 0.247719,-0.341015 0.08525,-0.184984 0.115816,-0.485785 0.03217,-0.3008 -0.01448,-0.599992 -0.04504,-0.300801 -0.17855,-0.540476 -0.133511,-0.241284 -0.37962,-0.307235 -0.03217,-0.0097 -0.07399,-0.0097 z"
         style="stroke-width:0.264583"
         id="path4543" />
      <path
         d="m 56.65531,39.026292 v -2.837499 q 0.02895,-0.21233 0.228416,-0.228416 h 1.557085 q 0.22359,0.01769 0.22359,0.228416 0,0.209113 -0.226807,0.22359 h -1.330279 v 0.879882 h 1.037521 q 0.221981,0.01608 0.225199,0.217155 0.0032,0.20107 -0.225199,0.23485 h -1.037521 v 1.282022 q -0.01608,0.221981 -0.218764,0.225198 -0.20107,0.0032 -0.233241,-0.225198 z"
         style="stroke-width:0.264583"
         id="path4545" />
      <path
         d="m 59.114798,39.026292 v -2.837499 q 0.02895,-0.21233 0.228415,-0.228416 h 1.557086 q 0.223589,0.01769 0.223589,0.228416 0,0.209113 -0.226806,0.22359 h -1.330279 v 0.879882 h 1.037521 q 0.221981,0.01608 0.225198,0.217155 0.0032,0.20107 -0.225198,0.23485 h -1.037521 v 1.282022 q -0.01609,0.221981 -0.218764,0.225198 -0.20107,0.0032 -0.233241,-0.225198 z"
         style="stroke-width:0.264583"
         id="path4547" />
    </g>
    <g
       aria-label="IFF"
       id="text4411"
       style="font-size:3.29433px;line-height:1.25;font-family:'MS 33558';-inkscape-font-specification:'MS 33558, Normal';stroke-width:0.264583">
      <path
         d="m 91.996656,14.479051 q -0.03539,0.226807 -0.230024,0.225199 -0.193027,0 -0.226807,-0.225199 v -2.843933 q 0.03378,-0.226807 0.226807,-0.226807 0.194636,-0.0016 0.230024,0.226807 z"
         style="stroke-width:0.264583"
         id="path4536" />
      <path
         d="m 92.453487,14.472617 v -2.837499 q 0.02895,-0.21233 0.228416,-0.228415 h 1.557085 q 0.22359,0.01769 0.22359,0.228415 0,0.209113 -0.226807,0.22359 h -1.330279 v 0.879882 h 1.037521 q 0.221982,0.01609 0.225199,0.217156 0.0032,0.20107 -0.225199,0.234849 h -1.037521 v 1.282022 q -0.01608,0.221981 -0.218764,0.225199 -0.20107,0.0032 -0.233241,-0.225199 z"
         style="stroke-width:0.264583"
         id="path4538" />
      <path
         d="m 94.912975,14.472617 v -2.837499 q 0.02895,-0.21233 0.228415,-0.228415 h 1.557086 q 0.223589,0.01769 0.223589,0.228415 0,0.209113 -0.226806,0.22359 H 95.36498 v 0.879882 h 1.037521 q 0.221981,0.01609 0.225198,0.217156 0.0032,0.20107 -0.225198,0.234849 H 95.36498 v 1.282022 q -0.01609,0.221981 -0.218764,0.225199 -0.20107,0.0032 -0.233241,-0.225199 z"
         style="stroke-width:0.264583"
         id="path4540" />
    </g>
    <g
       aria-label="UPPER"
       id="text4415"
       style="font-size:3.29433px;line-height:1.25;font-family:'MS 33558';-inkscape-font-specification:'MS 33558, Normal';stroke-width:0.264583">
      <path
         d="m 104.78311,19.911937 v 0.03217 q -0.005,0.08043 -0.006,0.09651 -0.0676,0.492219 -0.40375,0.727069 -0.33619,0.233241 -0.71742,0.218764 -0.38122,-0.01609 -0.69811,-0.278281 -0.31528,-0.262195 -0.34262,-0.764065 v -0.03217 -1.983354 q 0,-0.04826 0.0177,-0.08686 0.0772,-0.168899 0.25576,-0.13351 0.18016,0.03539 0.18016,0.220372 v 1.983354 q 0.0241,0.369969 0.32493,0.553345 0.30241,0.183376 0.63538,-0.01609 0.1496,-0.08847 0.21876,-0.228415 0.0708,-0.139945 0.0836,-0.308844 v -1.983354 q 0,-0.02895 0.003,-0.04343 0.037,-0.197852 0.24289,-0.17855 0.20589,0.0193 0.20589,0.221981 z"
         style="stroke-width:0.264583"
         id="path4525" />
      <path
         d="m 106.41259,17.703385 h 0.0306 q 0.20589,0.01448 0.37962,0.0933 0.33297,0.15603 0.47131,0.51313 0.13833,0.3571 -0.003,0.696506 -0.11421,0.26863 -0.3378,0.421443 -0.22359,0.151205 -0.50991,0.168899 l -0.0306,0.0016 h -0.78176 v 1.17264 q -0.029,0.226807 -0.22842,0.226807 -0.19946,0 -0.22681,-0.226807 v -2.842325 q 0.0241,-0.199461 0.21233,-0.225198 h 0.0145 z m 0,0.453614 h -0.78176 v 0.986047 h 0.78176 q 0.18337,0 0.32332,-0.122251 0.14155,-0.12225 0.16568,-0.305626 0.0289,-0.221981 -0.11904,-0.389271 -0.14798,-0.168899 -0.36996,-0.168899 z"
         style="stroke-width:0.264583"
         id="path4527" />
      <path
         d="m 109.05545,17.703385 h 0.0306 q 0.2059,0.01448 0.37962,0.0933 0.33297,0.15603 0.47131,0.51313 0.13834,0.3571 -0.003,0.696506 -0.11421,0.26863 -0.3378,0.421443 -0.22358,0.151205 -0.50991,0.168899 l -0.0306,0.0016 h -0.78176 v 1.17264 q -0.029,0.226807 -0.22842,0.226807 -0.19946,0 -0.2268,-0.226807 v -2.842325 q 0.0241,-0.199461 0.21233,-0.225198 h 0.0145 z m 0,0.453614 h -0.78176 v 0.986047 h 0.78176 q 0.18337,0 0.32332,-0.122251 0.14155,-0.12225 0.16568,-0.305626 0.029,-0.221981 -0.11903,-0.389271 -0.14799,-0.168899 -0.36997,-0.168899 z"
         style="stroke-width:0.264583"
         id="path4529" />
      <path
         d="m 112.24683,18.152173 h -1.33349 v 0.879882 h 1.0166 q 0.22842,0.03378 0.22681,0.230024 0,0.194636 -0.22681,0.226807 h -1.0166 v 1.056824 h 1.33349 q 0.22681,0.03378 0.22681,0.226807 0,0.193027 -0.22681,0.225198 h -1.55708 q -0.20107,-0.02574 -0.22842,-0.228415 v -2.840717 q 0.0306,-0.212329 0.22842,-0.225198 h 1.55708 q 0.22681,0.01769 0.2252,0.226807 0,0.207504 -0.2252,0.221981 z"
         style="stroke-width:0.264583"
         id="path4531" />
      <path
         d="m 114.95243,20.648658 q 0.10295,0.181767 -0.0579,0.305626 -0.0772,0.05469 -0.17855,0.037 -0.0997,-0.01769 -0.14638,-0.09973 l -0.79302,-1.253068 h -0.40214 v 1.132426 q 0,0.139945 -0.12708,0.202679 -0.12707,0.06113 -0.23806,-0.02413 -0.0885,-0.06595 -0.0885,-0.17855 v -2.842325 q 0,-0.0933 0.0643,-0.159247 0.066,-0.06595 0.16086,-0.06595 h 0.99891 q 0.36032,0 0.62573,0.230024 0.26541,0.228416 0.32976,0.58069 0.0676,0.378012 -0.16086,0.707766 -0.22681,0.328146 -0.60321,0.398923 l -0.0306,0.0048 z m -0.8075,-1.462181 q 0.16407,0 0.30241,-0.09973 0.13995,-0.09973 0.1882,-0.260586 0.0756,-0.247719 -0.0692,-0.44718 -0.14477,-0.20107 -0.39892,-0.221981 h -0.79302 v 1.029478 z"
         style="stroke-width:0.264583"
         id="path4533" />
    </g>
    <g
       aria-label="LOWER"
       id="text4419"
       style="font-size:3.29433px;line-height:1.25;font-family:'MS 33558';-inkscape-font-specification:'MS 33558, Normal';stroke-width:0.264583">
      <path
         d="m 102.355,39.256415 q -0.19785,-0.01287 -0.22841,-0.22359 v -2.843933 q 0.0338,-0.231632 0.23485,-0.226807 0.20107,0.0032 0.21876,0.226807 v 2.618735 l 1.4847,-0.0016 q 0.22842,0.02574 0.2252,0.231633 -0.002,0.204287 -0.22681,0.218764 z"
         style="stroke-width:0.264583"
         id="path4514" />
      <path
         d="m 106.88792,36.907918 q 0.14799,0.445571 0.11099,0.924922 -0.0354,0.479351 -0.26219,0.875056 -0.14316,0.24611 -0.39088,0.418226 -0.24772,0.172116 -0.54691,0.120642 -0.4874,-0.08525 -0.74637,-0.508305 -0.25898,-0.423051 -0.29759,-0.941007 -0.037,-0.519565 0.13995,-1.011784 0.17855,-0.49222 0.56782,-0.715809 0.18981,-0.109382 0.39731,-0.109382 0.39571,0 0.64664,0.299192 0.25094,0.297583 0.38123,0.648249 z m -1.015,-0.49061 q -0.29597,0 -0.44879,0.318494 -0.1512,0.318495 -0.19141,0.543693 -0.0306,0.164074 -0.0225,0.397315 0.008,0.233241 0.0676,0.461656 0.0595,0.226807 0.17855,0.410183 0.11903,0.181767 0.31206,0.241284 0.22519,0.07078 0.38766,-0.08847 0.16407,-0.160856 0.24772,-0.341015 0.0853,-0.184984 0.11581,-0.485785 0.0322,-0.3008 -0.0145,-0.599992 -0.045,-0.300801 -0.17855,-0.540476 -0.13351,-0.241284 -0.37962,-0.307235 -0.0322,-0.0097 -0.074,-0.0097 z"
         style="stroke-width:0.264583"
         id="path4516" />
      <path
         d="m 109.25251,36.143852 0.56299,1.923838 0.3764,-1.923838 q 0.0676,-0.217155 0.26381,-0.176941 0.19785,0.04021 0.18177,0.262195 l -0.55657,2.840716 q -0.0515,0.17855 -0.21072,0.184985 -0.15764,0.0064 -0.22841,-0.162465 l -0.60804,-2.075042 -0.60321,2.075042 q -0.074,0.173724 -0.22681,0.162465 -0.15281,-0.01126 -0.21554,-0.184985 l -0.55656,-2.840716 q 0,-0.230024 0.18337,-0.263804 0.18338,-0.03539 0.26702,0.17855 l 0.37158,1.927055 0.563,-1.927055 q 0.0692,-0.159247 0.22037,-0.164073 0.15281,-0.0048 0.21555,0.164073 z"
         style="stroke-width:0.264583"
         id="path4518" />
      <path
         d="m 112.73504,36.409265 h -1.3335 v 0.879882 h 1.01661 q 0.22842,0.03378 0.22681,0.230024 0,0.194636 -0.22681,0.226807 h -1.01661 v 1.056823 h 1.3335 q 0.2268,0.03378 0.2268,0.226807 0,0.193027 -0.2268,0.225199 h -1.55709 q -0.20107,-0.02574 -0.22841,-0.228416 v -2.840716 q 0.0306,-0.21233 0.22841,-0.225198 h 1.55709 q 0.2268,0.01769 0.22519,0.226807 0,0.207504 -0.22519,0.221981 z"
         style="stroke-width:0.264583"
         id="path4520" />
      <path
         d="m 115.44063,38.905749 q 0.10295,0.181767 -0.0579,0.305626 -0.0772,0.05469 -0.17855,0.037 -0.0997,-0.01769 -0.14638,-0.09973 l -0.79302,-1.253068 h -0.40214 V 39.028 q 0,0.139944 -0.12708,0.202678 -0.12708,0.06113 -0.23807,-0.02413 -0.0885,-0.06595 -0.0885,-0.17855 v -2.842325 q 0,-0.0933 0.0644,-0.159247 0.066,-0.06595 0.16085,-0.06595 h 0.99892 q 0.36031,0 0.62573,0.230024 0.26541,0.228415 0.32975,0.58069 0.0676,0.378011 -0.16085,0.707766 -0.22681,0.328146 -0.60321,0.398923 l -0.0306,0.0048 z m -0.80749,-1.46218 q 0.16407,0 0.30241,-0.09973 0.13994,-0.09973 0.1882,-0.260587 0.0756,-0.247718 -0.0692,-0.447179 -0.14477,-0.20107 -0.39892,-0.221982 h -0.79302 v 1.029479 z"
         style="stroke-width:0.264583"
         id="path4522" />
    </g>
    <g
       aria-label="NORM"
       id="text4423"
       style="font-size:3.29433px;line-height:1.25;font-family:'MS 33558';-inkscape-font-specification:'MS 33558, Normal';stroke-width:0.264583">
      <path
         d="m 105.8935,29.441332 q 0,0.168898 -0.16407,0.215547 -0.16247,0.04504 -0.25255,-0.09651 l -1.35119,-2.16673 v 2.047697 q -0.0354,0.225198 -0.22841,0.225198 -0.19142,0 -0.2252,-0.225198 v -2.840716 q 0.0241,-0.167291 0.17051,-0.220373 0.14799,-0.05308 0.24611,0.09973 l 1.35119,2.169946 v -2.049304 q 0.0306,-0.230024 0.23324,-0.226807 0.20429,0.0016 0.22037,0.226807 z"
         style="stroke-width:0.264583"
         id="path4505" />
      <path
         d="m 108.49454,27.316425 q 0.14799,0.445571 0.11099,0.924921 -0.0354,0.479351 -0.26219,0.875057 -0.14316,0.246109 -0.39088,0.418225 -0.24772,0.172116 -0.54691,0.120642 -0.4874,-0.08525 -0.74637,-0.508305 -0.25898,-0.423051 -0.29759,-0.941007 -0.037,-0.519565 0.13995,-1.011784 0.17855,-0.492219 0.56782,-0.715809 0.18981,-0.109382 0.39731,-0.109382 0.39571,0 0.64664,0.299192 0.25094,0.297584 0.38123,0.64825 z m -1.015,-0.490611 q -0.29597,0 -0.44879,0.318495 -0.1512,0.318494 -0.19142,0.543693 -0.0306,0.164073 -0.0225,0.397314 0.008,0.233241 0.0676,0.461657 0.0595,0.226807 0.17855,0.410182 0.11904,0.181768 0.31207,0.241284 0.22519,0.07078 0.38766,-0.08847 0.16407,-0.160856 0.24772,-0.341014 0.0853,-0.184985 0.11581,-0.485785 0.0322,-0.300801 -0.0145,-0.599993 -0.045,-0.3008 -0.17855,-0.540476 -0.13352,-0.241284 -0.37962,-0.307235 -0.0322,-0.0097 -0.074,-0.0097 z"
         style="stroke-width:0.264583"
         id="path4507" />
      <path
         d="m 111.06985,29.314255 q 0.10294,0.181768 -0.0579,0.305627 -0.0772,0.05469 -0.17855,0.037 -0.0997,-0.01769 -0.14638,-0.09973 l -0.79302,-1.253068 h -0.40214 v 1.132426 q 0,0.139945 -0.12708,0.202679 -0.12707,0.06113 -0.23806,-0.02413 -0.0885,-0.06595 -0.0885,-0.17855 v -2.842325 q 0,-0.0933 0.0643,-0.159247 0.066,-0.06595 0.16085,-0.06595 h 0.99892 q 0.36032,0 0.62573,0.230024 0.26541,0.228415 0.32975,0.58069 0.0676,0.378012 -0.16085,0.707766 -0.22681,0.328146 -0.60321,0.398923 l -0.0306,0.0048 z m -0.8075,-1.46218 q 0.16407,0 0.30241,-0.09973 0.13994,-0.09973 0.1882,-0.260586 0.0756,-0.247719 -0.0692,-0.44718 -0.14477,-0.20107 -0.39892,-0.221981 h -0.79302 v 1.029478 z"
         style="stroke-width:0.264583"
         id="path4509" />
      <path
         d="m 114.05855,29.438115 q -0.0354,0.225198 -0.22842,0.225198 -0.19141,-0.0016 -0.22519,-0.225198 v -2.009091 l -0.55174,0.944224 q -0.0885,0.106165 -0.19785,0.110991 -0.10778,0.0048 -0.19303,-0.110991 l -0.54852,-0.939399 0.002,2.004266 q -0.0257,0.223589 -0.23324,0.223589 -0.2059,-0.0016 -0.22198,-0.223589 v -2.840717 q 0.0129,-0.184984 0.16246,-0.220372 0.1496,-0.037 0.26059,0.101339 l 0.77372,1.330279 0.78176,-1.330279 q 0.11099,-0.138336 0.25737,-0.101339 0.14798,0.037 0.16246,0.220372 z"
         style="stroke-width:0.264583"
         id="path4511" />
    </g>
    <g
       aria-label="UHF"
       id="text4427"
       style="font-size:3.29433px;line-height:1.25;font-family:'MS 33558';-inkscape-font-specification:'MS 33558, Normal';stroke-width:0.264583">
      <path
         d="m 123.77598,13.615222 v 0.03217 q -0.005,0.08043 -0.006,0.09651 -0.0676,0.49222 -0.40375,0.727069 -0.33619,0.233241 -0.71742,0.218764 -0.38123,-0.01608 -0.69811,-0.27828 -0.31528,-0.262196 -0.34263,-0.764066 v -0.03217 -1.983354 q 0,-0.04826 0.0177,-0.08686 0.0772,-0.168898 0.25576,-0.13351 0.18016,0.03539 0.18016,0.220373 v 1.983354 q 0.0241,0.369968 0.32493,0.553344 0.30241,0.183376 0.63538,-0.01609 0.14959,-0.08847 0.21876,-0.228415 0.0708,-0.139945 0.0837,-0.308843 v -1.983354 q 0,-0.02895 0.003,-0.04343 0.037,-0.197853 0.2429,-0.178551 0.20589,0.0193 0.20589,0.221982 z"
         style="stroke-width:0.264583"
         id="path4498" />
      <path
         d="m 124.16847,14.479018 v -2.843933 q 0.0338,-0.231633 0.23485,-0.226807 0.20107,0.0032 0.21876,0.226807 v 1.063258 h 1.29489 v -1.063258 q 0.0338,-0.226807 0.22681,-0.226807 0.19464,-0.0016 0.23002,0.226807 v 2.843933 q -0.0354,0.226807 -0.23002,0.225198 -0.19303,0 -0.22681,-0.225198 v -1.323844 h -1.29489 v 1.323844 q -0.0177,0.221981 -0.21876,0.225198 -0.20107,0.0032 -0.23485,-0.225198 z"
         style="stroke-width:0.264583"
         id="path4500" />
      <path
         d="m 126.81133,14.472584 v -2.837499 q 0.029,-0.21233 0.22842,-0.228416 h 1.55708 q 0.22359,0.01769 0.22359,0.228416 0,0.209113 -0.2268,0.22359 h -1.33028 v 0.879882 h 1.03752 q 0.22198,0.01609 0.2252,0.217155 0.003,0.20107 -0.2252,0.23485 h -1.03752 v 1.282022 q -0.0161,0.221981 -0.21877,0.225198 -0.20107,0.0032 -0.23324,-0.225198 z"
         style="stroke-width:0.264583"
         id="path4502" />
    </g>
    <g
       aria-label="A
n
T"
       id="text4431"
       style="font-style:normal;font-variant:normal;font-weight:normal;font-stretch:normal;font-size:4.93889px;line-height:1.25;font-family:'MS 33558';-inkscape-font-specification:'MS 33558, Normal';font-variant-ligatures:normal;font-variant-caps:normal;font-variant-numeric:normal;font-variant-east-asian:normal;text-align:center;text-anchor:middle;stroke-width:0.264583"
       transform="translate(0,-1.5875)">
      <path
         d="m 79.430363,18.206976 -0.733117,-2.025716 -0.737939,2.025716 z m -0.733117,-2.025716 0.733117,2.025716 z m -1.86173,3.144684 q 0.385851,-1.063502 0.771702,-2.124591 0.388262,-1.063501 0.776524,-2.127003 0.07958,-0.219452 0.315916,-0.221864 0.236333,-0.0024 0.318327,0.221864 l 1.545814,4.263651 q 0.07235,0.340031 -0.207394,0.438906 -0.279742,0.09887 -0.431671,-0.202572 l -0.248391,-0.689708 h -1.965428 l -0.241157,0.672827 q -0.15434,0.303858 -0.438905,0.20016 -0.284565,-0.106109 -0.195337,-0.43167 z"
         style="font-style:normal;font-variant:normal;font-weight:normal;font-stretch:normal;font-size:4.93889px;font-family:'MS 33558';-inkscape-font-specification:'MS 33558, Normal';font-variant-ligatures:normal;font-variant-caps:normal;font-variant-numeric:normal;font-variant-east-asian:normal;text-align:center;text-anchor:middle;stroke-width:0.264583"
         id="path4491" />
      <path
         d="m 80.247884,25.632192 q 0,0.253215 -0.24598,0.32315 -0.243568,0.06752 -0.378616,-0.144694 l -2.025716,-3.248381 v 3.069925 q -0.05306,0.33762 -0.342443,0.33762 -0.286977,0 -0.337619,-0.33762 v -4.258828 q 0.03617,-0.250803 0.255626,-0.330384 0.221864,-0.07958 0.368969,0.149517 l 2.025717,3.253204 v -3.072337 q 0.04582,-0.344854 0.349677,-0.340031 0.306269,0.0024 0.330385,0.340031 z"
         style="font-style:normal;font-variant:normal;font-weight:normal;font-stretch:normal;font-size:4.93889px;font-family:'MS 33558';-inkscape-font-specification:'MS 33558, Normal';font-variant-ligatures:normal;font-variant-caps:normal;font-variant-numeric:normal;font-variant-east-asian:normal;text-align:center;text-anchor:middle;stroke-width:0.264583"
         id="path4493" />
      <path
         d="m 78.231814,31.800982 v -3.921209 h -0.885045 q -0.33762,-0.02653 -0.33762,-0.337619 0.0024,-0.313504 0.33762,-0.342443 h 2.44774 q 0.332797,0.02653 0.332797,0.342443 0.0024,0.313503 -0.332797,0.337619 h -0.882633 v 3.921209 q -0.05547,0.342442 -0.356912,0.337619 -0.299035,-0.0048 -0.32315,-0.337619 z"
         style="font-style:normal;font-variant:normal;font-weight:normal;font-stretch:normal;font-size:4.93889px;font-family:'MS 33558';-inkscape-font-specification:'MS 33558, Normal';font-variant-ligatures:normal;font-variant-caps:normal;font-variant-numeric:normal;font-variant-east-asian:normal;text-align:center;text-anchor:middle;stroke-width:0.264583"
         id="path4495" />
    </g>
    <g
       aria-label="S
E
L"
       id="text4439"
       style="font-style:normal;font-variant:normal;font-weight:normal;font-stretch:normal;font-size:4.93889px;line-height:1.25;font-family:'MS 33558';-inkscape-font-specification:'MS 33558, Normal';font-variant-ligatures:normal;font-variant-caps:normal;font-variant-numeric:normal;font-variant-east-asian:normal;text-align:center;text-anchor:middle;stroke-width:0.264583"
       transform="translate(0,-1.5875)">
      <path
         d="m 83.215063,31.490177 0.03858,0.01688 0.04341,0.0217 0.03858,0.02171 q 0.01688,0.01206 0.03617,0.02411 0.0217,0.0096 0.041,0.0217 0.47749,0.313504 0.590834,0.868165 0.04341,0.217041 0.01929,0.44614 -0.03858,0.327973 -0.231511,0.607715 -0.190514,0.27733 -0.479902,0.429259 -0.311092,0.163986 -0.643888,0.163986 -0.559484,0 -1.068325,-0.142282 -0.50884,-0.144694 -0.725881,-0.76929 -0.02894,-0.07958 -0.04341,-0.163987 -0.01447,-0.0844 -0.03376,-0.16881 -0.03617,-0.173632 0.0844,-0.306269 0.12299,-0.132636 0.303858,-0.101285 0.190514,0.03858 0.265272,0.236333 l 0.0072,0.0217 q 0.115755,0.52331 0.402732,0.624596 0.289388,0.101286 0.803052,0.09164 0.472667,0 0.648711,-0.443729 0.07717,-0.197748 0.02412,-0.409966 -0.05306,-0.21463 -0.209806,-0.356912 -0.06994,-0.06029 -0.18328,-0.113344 L 81.826,31.620402 81.789826,31.60111 q -0.547426,-0.289389 -0.680062,-0.822345 -0.161575,-0.617361 0.224276,-1.106909 0.388262,-0.49196 1.017681,-0.49196 l 0.265273,0.0072 q 0.130225,0.02411 0.250803,0.04823 0.120578,0.0217 0.243568,0.07717 0.303858,0.142283 0.465433,0.390674 0.161575,0.248391 0.291799,0.53778 0.01206,0.02653 0.0217,0.0627 0.02653,0.118167 -0.02411,0.21463 -0.02894,0.06029 -0.06029,0.09164 -0.03135,0.03135 -0.05064,0.04341 -0.125402,0.08923 -0.274919,0.05305 -0.149517,-0.03376 -0.229099,-0.192925 -0.0627,-0.139871 -0.135048,-0.284565 -0.06994,-0.147106 -0.197748,-0.243569 -0.05306,-0.03858 -0.103698,-0.05547 -0.04823,-0.01929 -0.10852,-0.041 l -0.156752,-0.02653 -0.221864,-0.0072 q -0.32315,0.0048 -0.494372,0.279742 -0.115755,0.176044 -0.08682,0.393085 0.03376,0.267684 0.250803,0.41479 0.0096,0.0072 0.0217,0.01688 0.01206,0.0072 0.02653,0.01447 l 0.02653,0.01206 0.02894,0.01206 z"
         style="font-style:normal;font-variant:normal;font-weight:normal;font-stretch:normal;font-size:4.93889px;font-family:'MS 33558';-inkscape-font-specification:'MS 33558, Normal';font-variant-ligatures:normal;font-variant-caps:normal;font-variant-numeric:normal;font-variant-east-asian:normal;text-align:center;text-anchor:middle;stroke-width:0.264583"
         id="path4484" />
      <path
         d="m 83.54183,36.026336 h -1.999189 v 1.319127 h 1.52411 q 0.342443,0.05064 0.340031,0.344854 0,0.2918 -0.340031,0.340031 h -1.52411 v 1.5844 h 1.999189 q 0.340031,0.05064 0.340031,0.340031 0,0.289388 -0.340031,0.337619 h -2.334397 q -0.301446,-0.03858 -0.342443,-0.342442 v -4.258828 q 0.04582,-0.318327 0.342443,-0.33762 h 2.334397 q 0.340031,0.02653 0.337619,0.340031 0,0.311093 -0.337619,0.332797 z"
         style="font-style:normal;font-variant:normal;font-weight:normal;font-stretch:normal;font-size:4.93889px;font-family:'MS 33558';-inkscape-font-specification:'MS 33558, Normal';font-variant-ligatures:normal;font-variant-caps:normal;font-variant-numeric:normal;font-variant-east-asian:normal;text-align:center;text-anchor:middle;stroke-width:0.264583"
         id="path4486" />
      <path
         d="m 81.085649,46.468422 q -0.296623,-0.01929 -0.342443,-0.335207 v -4.263652 q 0.05064,-0.347265 0.352089,-0.340031 0.301446,0.0048 0.327973,0.340031 v 3.926032 l 2.225877,-0.0024 q 0.342442,0.03859 0.337619,0.347265 -0.0024,0.306269 -0.340031,0.327973 z"
         style="font-style:normal;font-variant:normal;font-weight:normal;font-stretch:normal;font-size:4.93889px;font-family:'MS 33558';-inkscape-font-specification:'MS 33558, Normal';font-variant-ligatures:normal;font-variant-caps:normal;font-variant-numeric:normal;font-variant-east-asian:normal;text-align:center;text-anchor:middle;stroke-width:0.264583"
         id="path4488" />
    </g>
    <path
       style="fill:none;stroke:#000000;stroke-width:1;stroke-linecap:butt;stroke-linejoin:miter;stroke-miterlimit:4;stroke-dasharray:none;stroke-opacity:1"
       d="m 75.40625,11.90625 c 0,34.395833 0,34.395833 0,34.395833"
       id="path4447" />
    <path
       style="fill:none;stroke:#000000;stroke-width:1;stroke-linecap:butt;stroke-linejoin:miter;stroke-miterlimit:4;stroke-dasharray:none;stroke-opacity:1"
       d="m 100.50826,37.609447 c -6.614587,0 -6.614587,0 -6.614587,0"
       id="path4449" />
    <path
       style="fill:none;stroke:#000000;stroke-width:1;stroke-linecap:butt;stroke-linejoin:miter;stroke-miterlimit:4;stroke-dasharray:none;stroke-opacity:1"
       d="m 124.60711,37.609447 c -6.61458,0 -6.61458,0 -6.61458,0"
       id="path4449-5" />
    <path
       style="fill:none;stroke:#000000;stroke-width:1;stroke-linecap:butt;stroke-linejoin:miter;stroke-miterlimit:4;stroke-dasharray:none;stroke-opacity:1"
       d="m 100.50826,19.350596 c -6.614587,0 -6.614587,0 -6.614587,0"
       id="path4449-6" />
    <path
       style="fill:none;stroke:#000000;stroke-width:1;stroke-linecap:butt;stroke-linejoin:miter;stroke-miterlimit:4;stroke-dasharray:none;stroke-opacity:1"
       d="m 124.60711,19.350596 c -6.61458,0 -6.61458,0 -6.61458,0"
       id="path4449-5-2" />
  </g>
</svg>
