<?xml version="1.0" encoding="UTF-8" standalone="no"?>
<svg
   xmlns:dc="http://purl.org/dc/elements/1.1/"
   xmlns:cc="http://creativecommons.org/ns#"
   xmlns:rdf="http://www.w3.org/1999/02/22-rdf-syntax-ns#"
   xmlns:svg="http://www.w3.org/2000/svg"
   xmlns="http://www.w3.org/2000/svg"
   xmlns:sodipodi="http://sodipodi.sourceforge.net/DTD/sodipodi-0.dtd"
   xmlns:inkscape="http://www.inkscape.org/namespaces/inkscape"
   width="210mm"
   height="297mm"
   viewBox="0 0 210 297"
   version="1.1"
   id="svg2764"
   inkscape:version="1.0.1 (3bc2e813f5, 2020-09-07)"
   sodipodi:docname="oxygen_engrave.svg">
  <defs
     id="defs2758">
    <marker
       id="DistanceX"
       orient="auto"
       refX="0.0"
       refY="0.0"
       style="overflow:visible">
      <path
         d="M 3,-3 L -3,3 M 0,-5 L  0,5"
         style="stroke:#000000; stroke-width:0.5"
         id="path3327" />
    </marker>
    <pattern
       id="Hatch"
       patternUnits="userSpaceOnUse"
       width="8"
       height="8"
       x="0"
       y="0">
      <path
         d="M8 4 l-4,4"
         stroke="#000000"
         stroke-width="0.25"
         linecap="square"
         id="path3330" />
      <path
         d="M6 2 l-4,4"
         stroke="#000000"
         stroke-width="0.25"
         linecap="square"
         id="path3332" />
      <path
         d="M4 0 l-4,4"
         stroke="#000000"
         stroke-width="0.25"
         linecap="square"
         id="path3334" />
    </pattern>
    <symbol
       id="*Model_Space" />
    <symbol
       id="*Paper_Space" />
  </defs>
  <sodipodi:namedview
     id="base"
     pagecolor="#ffffff"
     bordercolor="#666666"
     borderopacity="1.0"
     inkscape:pageopacity="0.0"
     inkscape:pageshadow="2"
     inkscape:zoom="1.979899"
     inkscape:cx="189.94097"
     inkscape:cy="316.4874"
     inkscape:document-units="mm"
     inkscape:current-layer="layer1"
     inkscape:document-rotation="0"
     showgrid="true"
     inkscape:window-width="1918"
     inkscape:window-height="2071"
     inkscape:window-x="-8"
     inkscape:window-y="0"
     inkscape:window-maximized="0"
     inkscape:snap-grids="false">
    <inkscape:grid
       type="xygrid"
       id="grid3736" />
  </sodipodi:namedview>
  <metadata
     id="metadata2761">
    <rdf:RDF>
      <cc:Work
         rdf:about="">
        <dc:format>image/svg+xml</dc:format>
        <dc:type
           rdf:resource="http://purl.org/dc/dcmitype/StillImage" />
        <dc:title></dc:title>
      </cc:Work>
    </rdf:RDF>
  </metadata>
  <g
     inkscape:label="Lag 1"
     inkscape:groupmode="layer"
     id="layer1">
    <g
       inkscape:label="0"
       id="g3383"
       transform="matrix(0.26458333,0,0,0.26458333,2.3392871,-216.66666)"
       style="stroke:#ff0000">
      <path
         d="m 510.23622,835.27559 v 37.79528"
         style="fill:none;stroke:#ff0000;stroke-linecap:round"
         id="path3341" />
      <path
         d="M 529.13386,891.9685 H 548.0315"
         style="fill:none;stroke:#ff0000;stroke-linecap:round"
         id="path3343" />
      <path
         d="m 510.23622,873.07087 a 18.897638,18.897638 0 0 0 18.89764,18.89763"
         style="fill:none;stroke:#ff0000;stroke-linecap:round"
         id="path3345" />
      <path
         d="m 37.795276,1122.5197 v -37.7953"
         style="fill:none;stroke:#ff0000;stroke-linecap:round"
         id="path3347" />
      <path
         d="M 18.897638,1065.8268 H 0"
         style="fill:none;stroke:#ff0000;stroke-linecap:round"
         id="path3349" />
      <path
         d="M 37.795276,1084.7244 A 18.897638,18.897638 0 0 0 18.897638,1065.8268"
         style="fill:none;stroke:#ff0000;stroke-linecap:round"
         id="path3351" />
      <path
         d="m 113.38583,1050.7087 a 22.677167,22.677167 0 1 0 -45.354334,0 22.677167,22.677167 0 1 0 45.354334,0 z"
         style="fill:none;stroke:#ff0000;stroke-linecap:round"
         id="path3353" />
      <path
         d="m 298.58268,1054.4882 a 22.677165,22.677165 0 1 0 -45.35433,0 22.677165,22.677165 0 1 0 45.35433,0 z"
         style="fill:none;stroke:#ff0000;stroke-linecap:round"
         id="path3355" />
      <path
         d="m 472.44094,1054.4882 a 22.677165,22.677165 0 1 0 -45.35433,0 22.677165,22.677165 0 1 0 45.35433,0 z"
         style="fill:none;stroke:#ff0000;stroke-linecap:round"
         id="path3357" />
      <path
         d="M 529.13386,1065.8268 H 548.0315"
         style="fill:none;stroke:#ff0000;stroke-linecap:round"
         id="path3359" />
      <path
         d="m 510.23622,1122.5197 v -37.7953"
         style="fill:none;stroke:#ff0000;stroke-linecap:round"
         id="path3361" />
      <path
         d="m 529.13386,1065.8268 a 18.897638,18.897638 0 0 0 -18.89764,18.8976"
         style="fill:none;stroke:#ff0000;stroke-linecap:round"
         id="path3363" />
      <path
         d="M 18.897638,891.9685 H 0"
         style="fill:none;stroke:#ff0000;stroke-linecap:round"
         id="path3365" />
      <path
         d="m 37.795276,835.27559 v 37.79528"
         style="fill:none;stroke:#ff0000;stroke-linecap:round"
         id="path3367" />
      <path
         d="M 18.897638,891.9685 A 18.897638,18.897638 0 0 0 37.795276,873.07087"
         style="fill:none;stroke:#ff0000;stroke-linecap:round"
         id="path3369" />
      <path
         d="m 495.11811,925.98425 a 68.031496,68.031496 0 1 0 -136.06299,0 68.031496,68.031496 0 1 0 136.06299,0 z"
         style="fill:none;stroke:#ff0000;stroke-linecap:round"
         id="path3371" />
      <path
         d="m 124.72441,910.86614 h 37.79527 a 11.338583,11.338583 0 0 1 11.33859,11.33858 v 0 a 11.338583,11.338583 0 0 1 -11.33859,11.33859 h -37.79527 a 11.338583,11.338583 0 0 1 -11.33858,-11.33859 v 0 a 11.338583,11.338583 0 0 1 11.33858,-11.33858 z"
         style="fill:none;stroke:#ff0000;stroke-linecap:round"
         id="path3373" />
      <path
         d="M 37.795276,835.27559 H 510.23622"
         style="fill:none;stroke:#ff0000;stroke-linecap:round"
         id="path3375" />
      <path
         d="m 548.0315,891.9685 v 173.8583"
         style="fill:none;stroke:#ff0000;stroke-linecap:round"
         id="path3377" />
      <path
         d="M 510.23622,1122.5197 H 37.795276"
         style="fill:none;stroke:#ff0000;stroke-linecap:round"
         id="path3379" />
      <path
         d="M 0,1065.8268 V 891.9685"
         style="fill:none;stroke:#ff0000;stroke-linecap:round"
         id="path3381" />
    </g>
    <g
       aria-label="FLOW"
       id="text3431"
       style="font-size:3.29433px;line-height:1.25;font-family:'MS 33558';-inkscape-font-specification:'MS 33558, Normal';stroke-width:0.264583">
      <path
         d="M 34.344135,35.318429 V 32.48093 q 0.02895,-0.21233 0.228416,-0.228415 h 1.557085 q 0.22359,0.01769 0.22359,0.228415 0,0.209113 -0.226807,0.22359 h -1.330278 v 0.879882 h 1.03752 q 0.221982,0.01609 0.225199,0.217155 0.0032,0.20107 -0.225199,0.23485 h -1.03752 v 1.282022 q -0.01609,0.221981 -0.218765,0.225198 -0.20107,0.0032 -0.233241,-0.225198 z"
         style="stroke-width:0.264583"
         id="path3700" />
      <path
         d="m 37.032038,35.548453 q -0.197853,-0.01287 -0.228415,-0.22359 V 32.48093 q 0.03378,-0.231633 0.234849,-0.226807 0.20107,0.0032 0.218765,0.226807 v 2.618735 l 1.4847,-0.0016 q 0.228415,0.02574 0.225198,0.231633 -0.0016,0.204287 -0.226807,0.218764 z"
         style="stroke-width:0.264583"
         id="path3702" />
      <path
         d="m 41.564959,33.199956 q 0.147987,0.445571 0.110991,0.924922 -0.03539,0.479351 -0.262196,0.875056 -0.143161,0.24611 -0.39088,0.418226 -0.247718,0.172116 -0.54691,0.120642 -0.487393,-0.08525 -0.746371,-0.508305 -0.258979,-0.423051 -0.297584,-0.941007 -0.037,-0.519565 0.139945,-1.011784 0.17855,-0.49222 0.567821,-0.715809 0.18981,-0.109382 0.397314,-0.109382 0.395706,0 0.646641,0.299192 0.250936,0.297583 0.381229,0.648249 z m -1.015001,-0.49061 q -0.295975,0 -0.448788,0.318494 -0.151205,0.318495 -0.191419,0.543693 -0.03056,0.164073 -0.02252,0.397315 0.008,0.233241 0.06756,0.461656 0.05952,0.226807 0.17855,0.410183 0.119033,0.181767 0.312061,0.241284 0.225198,0.07078 0.387662,-0.08847 0.164073,-0.160856 0.247719,-0.341015 0.08525,-0.184984 0.115816,-0.485785 0.03217,-0.3008 -0.01448,-0.599992 -0.04504,-0.300801 -0.17855,-0.540476 -0.133511,-0.241284 -0.37962,-0.307235 -0.03217,-0.0097 -0.07399,-0.0097 z"
         style="stroke-width:0.264583"
         id="path3704" />
      <path
         d="m 43.929541,32.43589 0.562996,1.923838 0.376403,-1.923838 q 0.06756,-0.217155 0.263804,-0.176941 0.197853,0.04021 0.181767,0.262195 L 44.75795,35.36186 q -0.05147,0.17855 -0.210722,0.184984 -0.157638,0.0064 -0.228415,-0.162464 l -0.608036,-2.075042 -0.603209,2.075042 q -0.07399,0.173724 -0.226807,0.162464 -0.152813,-0.01126 -0.215547,-0.184984 l -0.556562,-2.840716 q 0,-0.230024 0.183376,-0.263804 0.183376,-0.03539 0.267021,0.17855 l 0.371577,1.927055 0.562996,-1.927055 q 0.06917,-0.159247 0.220373,-0.164073 0.152813,-0.0048 0.215546,0.164073 z"
         style="stroke-width:0.264583"
         id="path3706" />
    </g>
    <g
       aria-label="EMERGENCY"
       id="text3435"
       style="font-size:3.29433px;line-height:1.25;font-family:'MS 33558';-inkscape-font-specification:'MS 33558, Normal';stroke-width:0.264583"
       transform="translate(0,0.52916667)">
      <path
         d="m 38.357275,50.632451 h -1.333496 v 0.879882 h 1.016609 q 0.228416,0.03378 0.226807,0.230024 0,0.194636 -0.226807,0.226807 h -1.016609 v 1.056824 h 1.333496 q 0.226806,0.03378 0.226806,0.226807 0,0.193027 -0.226806,0.225198 h -1.557086 q -0.20107,-0.02574 -0.228415,-0.228415 v -2.840717 q 0.03056,-0.212329 0.228415,-0.225198 h 1.557086 q 0.226806,0.01769 0.225198,0.226807 0,0.207504 -0.225198,0.221981 z"
         style="stroke-width:0.264583"
         id="path3681" />
      <path
         d="m 41.429623,53.252795 q -0.03539,0.225198 -0.228415,0.225198 -0.191419,-0.0016 -0.225199,-0.225198 v -2.009091 l -0.551735,0.944224 q -0.08847,0.106165 -0.197853,0.110991 -0.107774,0.0048 -0.193027,-0.110991 l -0.548519,-0.939398 0.0016,2.004265 q -0.02574,0.223589 -0.233241,0.223589 -0.205895,-0.0016 -0.221981,-0.223589 v -2.840716 q 0.01287,-0.184985 0.162464,-0.220373 0.149597,-0.037 0.260587,0.101339 l 0.773717,1.330279 0.78176,-1.330279 q 0.110991,-0.138336 0.25737,-0.101339 0.147987,0.037 0.162464,0.220373 z"
         style="stroke-width:0.264583"
         id="path3683" />
      <path
         d="m 43.601179,50.632451 h -1.333496 v 0.879882 h 1.016609 q 0.228416,0.03378 0.226807,0.230024 0,0.194636 -0.226807,0.226807 h -1.016609 v 1.056824 h 1.333496 q 0.226807,0.03378 0.226807,0.226807 0,0.193027 -0.226807,0.225198 h -1.557086 q -0.20107,-0.02574 -0.228415,-0.228415 v -2.840717 q 0.03056,-0.212329 0.228415,-0.225198 h 1.557086 q 0.226807,0.01769 0.225198,0.226807 0,0.207504 -0.225198,0.221981 z"
         style="stroke-width:0.264583"
         id="path3685" />
      <path
         d="m 46.306775,53.128936 q 0.102948,0.181767 -0.05791,0.305626 -0.07721,0.05469 -0.17855,0.037 -0.09973,-0.01769 -0.146379,-0.09973 l -0.79302,-1.253068 h -0.40214 v 1.132426 q 0,0.139945 -0.127076,0.202679 -0.127076,0.06112 -0.238067,-0.02413 -0.08847,-0.06595 -0.08847,-0.17855 v -2.842325 q 0,-0.0933 0.06434,-0.159247 0.06595,-0.06595 0.160856,-0.06595 h 0.998915 q 0.360318,0 0.62573,0.230024 0.265412,0.228416 0.329755,0.58069 0.06756,0.378012 -0.160856,0.707766 -0.226807,0.328146 -0.60321,0.398923 l -0.03056,0.0048 z m -0.807497,-1.462181 q 0.164073,0 0.30241,-0.09973 0.139944,-0.09973 0.188201,-0.260586 0.0756,-0.247718 -0.06917,-0.44718 -0.14477,-0.20107 -0.398923,-0.221981 h -0.79302 v 1.029478 z"
         style="stroke-width:0.264583"
         id="path3687" />
      <path
         d="m 47.997371,52.150931 -0.01448,-0.0016 q -0.196244,-0.02413 -0.196244,-0.22359 0,-0.199461 0.196244,-0.22359 l 0.01448,-0.0032 h 0.01448 0.593559 q 0.0933,0 0.159247,0.06756 0.06756,0.06595 0.06756,0.159247 v 0.81554 l -0.0193,0.04182 -0.01126,0.02574 -0.01126,0.02413 -0.01287,0.02413 -0.01287,0.02413 -0.01126,0.02413 -0.01287,0.02413 -0.01448,0.02413 q -0.312061,0.530824 -0.775326,0.519564 -0.463265,-0.01287 -0.778543,-0.52439 -0.149596,-0.242893 -0.221981,-0.608036 -0.07238,-0.366751 -0.04343,-0.74798 0.02895,-0.382837 0.176942,-0.727069 0.149596,-0.34584 0.445571,-0.548518 0.369968,-0.250936 0.720634,-0.05791 0.350666,0.191419 0.524391,0.538868 l 0.01287,0.02574 0.0097,0.02252 0.01287,0.02413 q 0.05469,0.152813 -0.04182,0.249327 -0.0933,0.09169 -0.202678,0.06917 -0.109382,-0.02413 -0.168899,-0.130293 -0.188201,-0.466483 -0.485785,-0.406966 -0.295975,0.05952 -0.443962,0.485785 -0.144771,0.411791 -0.114208,0.886316 0.03056,0.472917 0.308843,0.825191 0.191419,0.24611 0.389272,0.157639 0.197853,-0.08847 0.31206,-0.329755 l 0.0177,-0.03539 V 52.15097 Z"
         style="stroke-width:0.264583"
         id="path3689" />
      <path
         d="M 51.142106,50.632451 H 49.80861 v 0.879882 h 1.016609 q 0.228416,0.03378 0.226807,0.230024 0,0.194636 -0.226807,0.226807 H 49.80861 v 1.056824 h 1.333496 q 0.226807,0.03378 0.226807,0.226807 0,0.193027 -0.226807,0.225198 H 49.58502 q -0.20107,-0.02574 -0.228415,-0.228415 v -2.840717 q 0.03056,-0.212329 0.228415,-0.225198 h 1.557086 q 0.226807,0.01769 0.225198,0.226807 0,0.207504 -0.225198,0.221981 z"
         style="stroke-width:0.264583"
         id="path3691" />
      <path
         d="m 54.037512,53.256012 q 0,0.168899 -0.164073,0.215547 -0.162464,0.04504 -0.252544,-0.09651 l -1.35119,-2.166729 v 2.047696 q -0.03539,0.225198 -0.228415,0.225198 -0.191419,0 -0.225198,-0.225198 V 50.4153 q 0.02413,-0.16729 0.170507,-0.220373 0.147987,-0.05308 0.246109,0.09973 l 1.35119,2.169947 v -2.049305 q 0.03056,-0.230024 0.233242,-0.226807 0.204287,0.0016 0.220372,0.226807 z"
         style="stroke-width:0.264583"
         id="path3693" />
      <path
         d="m 56.570993,52.963254 -0.01448,0.02091 q -0.0048,0.0064 -0.008,0.01126 -0.0032,0.0048 -0.0064,0.0097 -0.220373,0.297583 -0.579081,0.424659 -0.357101,0.125468 -0.70455,-0.04665 -0.403748,-0.20107 -0.593558,-0.682029 -0.188201,-0.48096 -0.162464,-0.998916 0.02734,-0.519564 0.273455,-0.953875 0.247718,-0.434312 0.717417,-0.543694 0.270238,-0.06273 0.538868,0.05308 0.268629,0.114208 0.440745,0.321712 0.0016,0 0.008,0.01126 0.07399,0.09651 0.03056,0.21233 -0.04343,0.114207 -0.159247,0.143161 -0.123859,0.03217 -0.228415,-0.07399 -0.215547,-0.250936 -0.415009,-0.241284 -0.199461,0.0097 -0.3571,0.164073 -0.157639,0.154421 -0.262195,0.395705 -0.104557,0.241284 -0.128685,0.452006 -0.02895,0.234849 0.0048,0.472916 0.03539,0.236458 0.146379,0.445571 0.193027,0.366752 0.485785,0.460048 0.294366,0.09169 0.574255,-0.281498 0.01287,-0.01608 0.03056,-0.04182 0.151205,-0.167291 0.318495,-0.03378 0.168898,0.131902 0.04987,0.299192 z"
         style="stroke-width:0.264583"
         id="path3695" />
      <path
         d="m 58.946835,50.301088 q 0.125468,-0.188201 0.30241,-0.09008 0.17855,0.09812 0.09169,0.307235 l -0.924921,1.65199 v 1.076126 q -0.01448,0.228416 -0.225199,0.228416 -0.209112,0 -0.223589,-0.228416 v -1.076126 l -0.923313,-1.65199 q -0.08525,-0.207505 0.08686,-0.304018 0.172116,-0.09812 0.307235,0.08686 l 0.754414,1.347973 z"
         style="stroke-width:0.264583"
         id="path3697" />
    </g>
    <g
       aria-label="NORMAL"
       id="text3439"
       style="font-size:3.29433px;line-height:1.25;font-family:'MS 33558';-inkscape-font-specification:'MS 33558, Normal';stroke-width:0.264583">
      <path
         d="m 38.793194,63.55162 q 0,0.168899 -0.164073,0.215547 -0.162464,0.04504 -0.252544,-0.09651 l -1.35119,-2.16673 v 2.047696 q -0.03539,0.225199 -0.228415,0.225199 -0.191419,0 -0.225198,-0.225199 v -2.840716 q 0.02413,-0.16729 0.170507,-0.220372 0.147987,-0.05308 0.246109,0.09973 l 1.35119,2.169947 v -2.049305 q 0.03056,-0.230024 0.233242,-0.226807 0.204287,0.0016 0.220372,0.226807 z"
         style="stroke-width:0.264583"
         id="path3668" />
      <path
         d="m 41.394235,61.426713 q 0.147987,0.445571 0.110991,0.924922 -0.03539,0.479351 -0.262196,0.875056 -0.143161,0.24611 -0.39088,0.418226 -0.247718,0.172116 -0.54691,0.120642 -0.487393,-0.08525 -0.746371,-0.508305 -0.258978,-0.423051 -0.297584,-0.941007 -0.037,-0.519565 0.139945,-1.011784 0.17855,-0.49222 0.567821,-0.715809 0.18981,-0.109382 0.397314,-0.109382 0.395706,0 0.646641,0.299192 0.250936,0.297583 0.381229,0.648249 z m -1.015001,-0.49061 q -0.295975,0 -0.448788,0.318494 -0.151205,0.318495 -0.191419,0.543693 -0.03056,0.164074 -0.02252,0.397315 0.008,0.233241 0.06756,0.461656 0.05952,0.226807 0.17855,0.410183 0.119033,0.181767 0.312061,0.241284 0.225198,0.07078 0.387662,-0.08847 0.164074,-0.160856 0.247719,-0.341015 0.08525,-0.184984 0.115816,-0.485785 0.03217,-0.3008 -0.01448,-0.599992 -0.04504,-0.300801 -0.17855,-0.540476 -0.133511,-0.241284 -0.37962,-0.307235 -0.03217,-0.0097 -0.07399,-0.0097 z"
         style="stroke-width:0.264583"
         id="path3670" />
      <path
         d="m 43.969539,63.424544 q 0.102948,0.181767 -0.05791,0.305626 -0.07721,0.05469 -0.17855,0.037 -0.09973,-0.01769 -0.146379,-0.09973 l -0.79302,-1.253068 h -0.40214 v 1.132426 q 0,0.139944 -0.127076,0.202678 -0.127076,0.06112 -0.238067,-0.02413 -0.08847,-0.06595 -0.08847,-0.17855 V 60.70447 q 0,-0.0933 0.06434,-0.159247 0.06595,-0.06595 0.160856,-0.06595 h 0.998915 q 0.360317,0 0.62573,0.230024 0.265412,0.228415 0.329754,0.58069 0.06756,0.378011 -0.160856,0.707766 -0.226807,0.328146 -0.603209,0.398923 l -0.03056,0.0048 z m -0.807497,-1.46218 q 0.164073,0 0.302409,-0.09973 0.139945,-0.09973 0.188202,-0.260587 0.0756,-0.247718 -0.06917,-0.447179 -0.144771,-0.20107 -0.398923,-0.221982 h -0.79302 v 1.029479 z"
         style="stroke-width:0.264583"
         id="path3672" />
      <path
         d="m 46.958242,63.548403 q -0.03539,0.225199 -0.228415,0.225199 -0.191419,-0.0016 -0.225198,-0.225199 v -2.009091 l -0.551736,0.944225 q -0.08847,0.106165 -0.197853,0.11099 -0.107774,0.0048 -0.193027,-0.11099 l -0.548519,-0.939399 0.0016,2.004265 q -0.02574,0.22359 -0.233242,0.22359 -0.205895,-0.0016 -0.221981,-0.22359 v -2.840716 q 0.01287,-0.184984 0.162465,-0.220373 0.149596,-0.037 0.260586,0.10134 l 0.773718,1.330278 0.781759,-1.330278 q 0.110991,-0.138336 0.25737,-0.10134 0.147987,0.037 0.162464,0.220373 z"
         style="stroke-width:0.264583"
         id="path3674" />
      <path
         d="m 49.086366,62.716778 -0.489002,-1.35119 -0.492219,1.35119 z m -0.489002,-1.35119 0.489002,1.35119 z m -1.241808,2.097562 q 0.25737,-0.709375 0.514739,-1.417141 0.258978,-0.709375 0.517957,-1.41875 0.05308,-0.146379 0.210721,-0.147987 0.157639,-0.0016 0.21233,0.147987 l 1.031086,2.843933 q 0.04826,0.226807 -0.138336,0.292758 -0.186593,0.06595 -0.287932,-0.135119 l -0.165682,-0.460048 h -1.310976 l -0.160855,0.448788 Q 47.67566,63.82025 47.48585,63.751082 47.29604,63.680305 47.355556,63.46315 Z"
         style="stroke-width:0.264583"
         id="path3676" />
      <path
         d="m 50.387691,63.77521 q -0.197852,-0.01287 -0.228415,-0.22359 v -2.843933 q 0.03378,-0.231632 0.23485,-0.226807 0.20107,0.0032 0.218764,0.226807 v 2.618735 l 1.4847,-0.0016 q 0.228416,0.02574 0.225199,0.231633 -0.0016,0.204287 -0.226807,0.218764 z"
         style="stroke-width:0.264583"
         id="path3678" />
    </g>
    <g
       aria-label="TEST
MASK"
       id="text3443"
       style="font-size:3.29433px;line-height:1.25;font-family:'MS 33558';-inkscape-font-specification:'MS 33558, Normal';stroke-width:0.264583">
      <path
         d="m 37.387313,73.006659 v -2.615518 h -0.590341 q -0.225198,-0.01769 -0.225198,-0.225198 0.0016,-0.209113 0.225198,-0.228416 h 1.632688 q 0.221981,0.0177 0.221981,0.228416 0.0016,0.209113 -0.221981,0.225198 h -0.588733 v 2.615518 q -0.037,0.228415 -0.238067,0.225198 -0.199461,-0.0032 -0.215547,-0.225198 z"
         style="stroke-width:0.264583"
         id="path3651" />
      <path
         d="m 40.918101,70.386316 h -1.333495 v 0.879882 h 1.016609 q 0.228416,0.03378 0.226807,0.230024 0,0.194635 -0.226807,0.226806 h -1.016609 v 1.056824 h 1.333495 q 0.226807,0.03378 0.226807,0.226807 0,0.193027 -0.226807,0.225198 H 39.361016 Q 39.159946,73.20612 39.1326,73.003442 v -2.840716 q 0.03056,-0.21233 0.228416,-0.225199 h 1.557085 q 0.226807,0.0177 0.225199,0.226807 0,0.207504 -0.225199,0.221982 z"
         style="stroke-width:0.264583"
         id="path3653" />
      <path
         d="m 43.210299,71.478527 0.02574,0.01126 0.02895,0.01448 0.02574,0.01448 q 0.01126,0.008 0.02413,0.01609 0.01448,0.0064 0.02734,0.01448 0.318495,0.209113 0.394098,0.579081 0.02895,0.144771 0.01287,0.297584 -0.02574,0.218764 -0.154422,0.405357 -0.127076,0.184984 -0.320103,0.286324 -0.207504,0.109382 -0.429485,0.109382 -0.373186,0 -0.712592,-0.0949 -0.339406,-0.09651 -0.484177,-0.513131 -0.0193,-0.05308 -0.02895,-0.109382 -0.0097,-0.0563 -0.02252,-0.112599 -0.02413,-0.115816 0.0563,-0.204287 0.08204,-0.08847 0.202679,-0.06756 0.127076,0.02574 0.176941,0.157639 l 0.0048,0.01448 q 0.07721,0.349058 0.268629,0.416617 0.193027,0.06756 0.53565,0.06112 0.315278,0 0.432703,-0.295975 0.05147,-0.131901 0.01609,-0.273455 -0.03539,-0.143161 -0.139945,-0.238066 -0.04665,-0.04021 -0.122251,-0.0756 l -0.744763,-0.326537 -0.02413,-0.01287 q -0.365143,-0.193027 -0.453614,-0.548519 -0.107773,-0.411791 0.149596,-0.738328 0.258978,-0.328147 0.678812,-0.328147 l 0.176942,0.0048 q 0.08686,0.01609 0.16729,0.03217 0.08043,0.01448 0.162465,0.05147 0.202678,0.0949 0.310452,0.260587 0.107773,0.165681 0.194635,0.358709 0.008,0.01769 0.01448,0.04182 0.01769,0.07882 -0.01608,0.143162 -0.0193,0.04021 -0.04021,0.06112 -0.02091,0.02091 -0.03378,0.02895 -0.08365,0.05952 -0.183376,0.03539 -0.09973,-0.02252 -0.152813,-0.128685 -0.04182,-0.0933 -0.09008,-0.18981 -0.04665,-0.09812 -0.131902,-0.162465 -0.03539,-0.02574 -0.06917,-0.037 -0.03217,-0.01287 -0.07238,-0.02734 l -0.104557,-0.01769 -0.147987,-0.0048 q -0.215547,0.0032 -0.329755,0.186593 -0.07721,0.117425 -0.05791,0.262195 0.02252,0.17855 0.16729,0.276672 0.0064,0.0048 0.01448,0.01126 0.008,0.0048 0.01769,0.0097 l 0.01769,0.008 0.0193,0.008 z"
         style="stroke-width:0.264583"
         id="path3655" />
      <path
         d="m 44.968454,73.006659 v -2.615518 h -0.590341 q -0.225198,-0.01769 -0.225198,-0.225198 0.0016,-0.209113 0.225198,-0.228416 h 1.632688 q 0.221981,0.0177 0.221981,0.228416 0.0016,0.209113 -0.221981,0.225198 h -0.588733 v 2.615518 q -0.037,0.228415 -0.238067,0.225198 -0.199461,-0.0032 -0.215547,-0.225198 z"
         style="stroke-width:0.264583"
         id="path3657" />
      <path
         d="m 38.970136,77.124571 q -0.03539,0.225199 -0.228416,0.225199 -0.191418,-0.0016 -0.225198,-0.225199 V 75.11548 l -0.551736,0.944225 q -0.08847,0.106165 -0.197853,0.110991 -0.107773,0.0048 -0.193027,-0.110991 l -0.548519,-0.939399 0.0016,2.004265 q -0.02574,0.22359 -0.233241,0.22359 -0.205896,-0.0016 -0.221981,-0.22359 v -2.840716 q 0.01287,-0.184984 0.162464,-0.220372 0.149596,-0.037 0.260587,0.101339 l 0.773717,1.330279 0.78176,-1.330279 q 0.11099,-0.138336 0.257369,-0.101339 0.147988,0.037 0.162465,0.220372 z"
         style="stroke-width:0.264583"
         id="path3659" />
      <path
         d="m 41.09826,76.292946 -0.489002,-1.35119 -0.492219,1.35119 z m -0.489002,-1.35119 0.489002,1.35119 z m -1.241808,2.097562 q 0.257369,-0.709375 0.514739,-1.417141 0.258978,-0.709375 0.517956,-1.41875 0.05308,-0.146379 0.210721,-0.147987 0.157639,-0.0016 0.21233,0.147987 l 1.031087,2.843933 q 0.04826,0.226807 -0.138336,0.292758 -0.186593,0.06595 -0.287932,-0.135119 l -0.165682,-0.460048 h -1.310976 l -0.160856,0.448788 q -0.102948,0.202679 -0.292758,0.133511 -0.18981,-0.07078 -0.130293,-0.287932 z"
         style="stroke-width:0.264583"
         id="path3661" />
      <path
         d="m 43.78938,75.59644 0.02574,0.01126 0.02895,0.01448 0.02574,0.01448 q 0.01126,0.008 0.02413,0.01609 0.01448,0.0064 0.02734,0.01448 0.318495,0.209113 0.394097,0.579082 0.02895,0.14477 0.01287,0.297583 -0.02574,0.218764 -0.154422,0.405357 -0.127076,0.184985 -0.320103,0.286324 -0.207505,0.109382 -0.429486,0.109382 -0.373186,0 -0.712592,-0.0949 -0.339406,-0.09651 -0.484176,-0.513131 -0.0193,-0.05308 -0.02895,-0.109382 -0.0097,-0.0563 -0.02252,-0.112599 -0.02413,-0.115816 0.0563,-0.204287 0.08204,-0.08847 0.202678,-0.06756 0.127076,0.02574 0.176942,0.157639 l 0.0048,0.01448 q 0.07721,0.349057 0.26863,0.416616 0.193027,0.06756 0.53565,0.06113 0.315278,0 0.432703,-0.295975 0.05147,-0.131902 0.01608,-0.273455 -0.03539,-0.143162 -0.139945,-0.238067 -0.04665,-0.04021 -0.12225,-0.0756 l -0.744763,-0.326538 -0.02413,-0.01287 q -0.365143,-0.193028 -0.453613,-0.548519 -0.107774,-0.411792 0.149596,-0.738329 0.258978,-0.328146 0.678812,-0.328146 l 0.176941,0.0048 q 0.08686,0.01609 0.167291,0.03217 0.08043,0.01448 0.162464,0.05147 0.202679,0.0949 0.310452,0.260586 0.107774,0.165682 0.194636,0.358709 0.008,0.01769 0.01448,0.04182 0.01769,0.07882 -0.01609,0.143161 -0.0193,0.04021 -0.04021,0.06113 -0.02091,0.02091 -0.03378,0.02895 -0.08365,0.05952 -0.183375,0.03539 -0.09973,-0.02252 -0.152813,-0.128685 -0.04182,-0.0933 -0.09008,-0.18981 -0.04665,-0.09812 -0.131902,-0.162464 -0.03539,-0.02574 -0.06917,-0.037 -0.03217,-0.01287 -0.07239,-0.02735 l -0.104556,-0.01769 -0.147988,-0.0048 q -0.215547,0.0032 -0.329754,0.186593 -0.07721,0.117425 -0.05791,0.262196 0.02252,0.17855 0.167291,0.276672 0.0064,0.0048 0.01448,0.01126 0.008,0.0048 0.01769,0.0097 l 0.01769,0.008 0.0193,0.008 z"
         style="stroke-width:0.264583"
         id="path3663" />
      <path
         d="m 46.366292,74.116565 q 0.183376,-0.13351 0.324929,0.01609 0.141553,0.147987 -0.008,0.31206 l -0.744763,0.715809 0.944225,1.862712 q 0.06756,0.226807 -0.1126,0.312061 -0.180158,0.08525 -0.292757,-0.107774 l -0.881491,-1.738853 -0.410183,0.395706 v 1.243416 q -0.03539,0.226807 -0.236458,0.22359 -0.20107,-0.0016 -0.217155,-0.22359 v -2.843933 q 0.01608,-0.22359 0.217155,-0.226807 0.20107,-0.0048 0.236458,0.226807 v 0.969962 z"
         style="stroke-width:0.264583"
         id="path3665" />
    </g>
    <g
       aria-label="100%"
       id="text3449"
       style="font-size:3.29433px;line-height:1.25;font-family:'MS 33558';-inkscape-font-specification:'MS 33558, Normal';stroke-width:0.264583"
       transform="translate(0,0.52916667)">
      <path
         d="m 71.427404,53.224416 q 0,0.02091 -0.0048,0.04504 -0.03861,0.181768 -0.225199,0.181768 -0.136727,0 -0.202678,-0.127076 -0.01448,-0.02413 -0.02413,-0.09973 v -2.837499 q 0.0048,-0.03861 0.01126,-0.07238 0.008,-0.03539 0.03539,-0.06756 0.06434,-0.07882 0.165681,-0.08525 0.10134,-0.008 0.175333,0.06434 0.03861,0.0386 0.04987,0.07399 0.01126,0.03539 0.0193,0.08686 z"
         style="stroke-width:0.264583"
         id="path3642" />
      <path
         d="m 72.920148,50.158501 q 0.360317,0 0.588732,0.299192 0.228416,0.299193 0.316887,0.608036 0.037,0.135119 0.06434,0.283106 0.08204,0.439137 0,0.961919 -0.08043,0.522782 -0.384446,0.867014 -0.244501,0.275063 -0.566213,0.275063 -0.493828,0 -0.743154,-0.514739 -0.247718,-0.514739 -0.250936,-1.132426 -0.0016,-0.617687 0.241284,-1.132426 0.242893,-0.514739 0.733504,-0.514739 z m 0.01126,0.455223 q -0.191418,0.03861 -0.304017,0.218764 -0.110991,0.180158 -0.164073,0.410182 -0.05308,0.230025 -0.05791,0.464874 -0.0048,0.23485 0.01769,0.381229 0.0193,0.138336 0.09169,0.3571 0.07238,0.217156 0.181767,0.374794 0.11099,0.156031 0.252544,0.180159 0.141553,0.02252 0.3008,-0.228415 0.120642,-0.193028 0.180159,-0.490611 0.05952,-0.297584 0.04182,-0.608036 -0.01769,-0.310452 -0.119033,-0.585515 -0.09973,-0.275064 -0.295975,-0.42466 -0.05952,-0.04182 -0.112599,-0.04987 -0.0016,0 -0.0048,0 -0.0016,0 -0.008,0 z"
         style="stroke-width:0.264583"
         id="path3644" />
      <path
         d="m 75.339421,50.158501 q 0.360317,0 0.588733,0.299192 0.228415,0.299193 0.316886,0.608036 0.037,0.135119 0.06434,0.283106 0.08204,0.439137 0,0.961919 -0.08043,0.522782 -0.384445,0.867014 -0.244501,0.275063 -0.566213,0.275063 -0.493828,0 -0.743155,-0.514739 -0.247718,-0.514739 -0.250935,-1.132426 -0.0016,-0.617687 0.241284,-1.132426 0.242892,-0.514739 0.733503,-0.514739 z m 0.01126,0.455223 q -0.191419,0.03861 -0.304018,0.218764 -0.11099,0.180158 -0.164073,0.410182 -0.05308,0.230025 -0.05791,0.464874 -0.0048,0.23485 0.01769,0.381229 0.0193,0.138336 0.09169,0.3571 0.07238,0.217156 0.181767,0.374794 0.110991,0.156031 0.252544,0.180159 0.141553,0.02252 0.300801,-0.228415 0.120642,-0.193028 0.180158,-0.490611 0.05952,-0.297584 0.04182,-0.608036 -0.01769,-0.310452 -0.119033,-0.585515 -0.09973,-0.275064 -0.295975,-0.42466 -0.05952,-0.04182 -0.1126,-0.04987 -0.0016,0 -0.0048,0 -0.0016,0 -0.008,0 z"
         style="stroke-width:0.264583"
         id="path3646" />
      <path
         d="m 79.179053,52.396008 q -0.139945,0 -0.220373,0.119033 -0.07882,0.119033 -0.07882,0.331363 0,0.209113 0.07882,0.329755 0.08043,0.119033 0.220373,0.119033 0.136728,0 0.215547,-0.119033 0.08043,-0.120642 0.08043,-0.329755 0,-0.210721 -0.08043,-0.329754 -0.07882,-0.120642 -0.215547,-0.120642 z m 0,-0.204287 q 0.254152,0 0.403748,0.176941 0.149596,0.176942 0.149596,0.477742 0,0.300801 -0.151204,0.477743 -0.149596,0.175332 -0.40214,0.175332 -0.25737,0 -0.406966,-0.175332 -0.149596,-0.176942 -0.149596,-0.477743 0,-0.302409 0.149596,-0.477742 0.151205,-0.176941 0.406966,-0.176941 z M 77.51902,51.212108 q -0.138337,0 -0.218765,0.120642 -0.07882,0.119033 -0.07882,0.328146 0,0.21233 0.07882,0.331363 0.07882,0.119034 0.218765,0.119034 0.139944,0 0.218764,-0.119034 0.08043,-0.119033 0.08043,-0.331363 0,-0.207504 -0.08043,-0.328146 -0.08043,-0.120642 -0.218764,-0.120642 z m 1.452529,-0.204287 h 0.257369 l -1.502394,2.491658 h -0.25737 z m -1.452529,0 q 0.254152,0 0.405357,0.176941 0.151204,0.175333 0.151204,0.476134 0,0.304018 -0.151204,0.479351 -0.149596,0.175333 -0.405357,0.175333 -0.255761,0 -0.405357,-0.175333 -0.147988,-0.176942 -0.147988,-0.479351 0,-0.299192 0.149596,-0.476134 0.149596,-0.176941 0.403749,-0.176941 z"
         style="stroke-width:0.264583"
         id="path3648" />
    </g>
    <g
       aria-label="ON"
       id="text3461"
       style="font-size:3.29433px;line-height:1.25;font-family:'MS 33558';-inkscape-font-specification:'MS 33558, Normal';stroke-width:0.264583">
      <path
         d="m 130.96331,61.427816 q 0.14799,0.445571 0.11099,0.924921 -0.0354,0.479351 -0.26219,0.875057 -0.14316,0.246109 -0.39088,0.418225 -0.24772,0.172116 -0.54691,0.120642 -0.4874,-0.08525 -0.74637,-0.508305 -0.25898,-0.423051 -0.29759,-0.941007 -0.037,-0.519565 0.13995,-1.011784 0.17855,-0.492219 0.56782,-0.715809 0.18981,-0.109382 0.39731,-0.109382 0.39571,0 0.64664,0.299192 0.25094,0.297584 0.38123,0.64825 z m -1.015,-0.490611 q -0.29597,0 -0.44879,0.318495 -0.1512,0.318495 -0.19141,0.543693 -0.0306,0.164073 -0.0225,0.397314 0.008,0.233241 0.0675,0.461657 0.0595,0.226807 0.17856,0.410182 0.11903,0.181768 0.31206,0.241284 0.22519,0.07078 0.38766,-0.08847 0.16407,-0.160856 0.24772,-0.341015 0.0853,-0.184984 0.11581,-0.485785 0.0322,-0.300801 -0.0145,-0.599993 -0.045,-0.3008 -0.17855,-0.540476 -0.13351,-0.241284 -0.37962,-0.307235 -0.0322,-0.0097 -0.074,-0.0097 z"
         style="stroke-width:0.264583"
         id="path3637" />
      <path
         d="m 133.72843,63.552723 q 0,0.168899 -0.16408,0.215547 -0.16246,0.04504 -0.25254,-0.09651 l -1.35119,-2.166729 v 2.047696 q -0.0354,0.225198 -0.22842,0.225198 -0.19141,0 -0.22519,-0.225198 v -2.840716 q 0.0241,-0.167291 0.1705,-0.220373 0.14799,-0.05308 0.24611,0.09973 l 1.35119,2.169946 v -2.049304 q 0.0306,-0.230024 0.23324,-0.226807 0.20429,0.0016 0.22038,0.226807 z"
         style="stroke-width:0.264583"
         id="path3639" />
    </g>
    <g
       aria-label="OFF"
       id="text3469"
       style="font-size:3.29433px;line-height:1.25;font-family:'MS 33558';-inkscape-font-specification:'MS 33558, Normal';stroke-width:0.264583"
       transform="translate(0.42887491)">
      <path
         d="m 119.47071,72.947843 q 0.14799,0.445571 0.11099,0.924922 -0.0354,0.47935 -0.26219,0.875056 -0.14316,0.24611 -0.39088,0.418225 -0.24772,0.172116 -0.54691,0.120642 -0.48739,-0.08525 -0.74637,-0.508304 -0.25898,-0.423052 -0.29759,-0.941008 -0.037,-0.519565 0.13995,-1.011784 0.17855,-0.492219 0.56782,-0.715809 0.18981,-0.109382 0.39731,-0.109382 0.39571,0 0.64664,0.299192 0.25094,0.297584 0.38123,0.64825 z m -1.015,-0.490611 q -0.29597,0 -0.44879,0.318495 -0.1512,0.318495 -0.19141,0.543693 -0.0306,0.164073 -0.0225,0.397314 0.008,0.233241 0.0676,0.461657 0.0595,0.226807 0.17855,0.410183 0.11903,0.181767 0.31206,0.241283 0.22519,0.07078 0.38766,-0.08847 0.16407,-0.160856 0.24772,-0.341015 0.0852,-0.184984 0.11581,-0.485785 0.0322,-0.300801 -0.0145,-0.599993 -0.045,-0.3008 -0.17855,-0.540476 -0.13351,-0.241284 -0.37962,-0.307234 -0.0322,-0.0097 -0.074,-0.0097 z"
         style="stroke-width:0.264583"
         id="path3630" />
      <path
         d="m 120.01441,75.066316 v -2.837499 q 0.029,-0.21233 0.22841,-0.228416 h 1.55709 q 0.22359,0.01769 0.22359,0.228416 0,0.209112 -0.22681,0.223589 h -1.33028 v 0.879883 h 1.03752 q 0.22198,0.01609 0.2252,0.217155 0.003,0.20107 -0.2252,0.23485 h -1.03752 v 1.282022 q -0.0161,0.221981 -0.21876,0.225198 -0.20107,0.0032 -0.23324,-0.225198 z"
         style="stroke-width:0.264583"
         id="path3632" />
      <path
         d="m 122.47389,75.066316 v -2.837499 q 0.029,-0.21233 0.22842,-0.228416 h 1.55709 q 0.22358,0.01769 0.22358,0.228416 0,0.209112 -0.2268,0.223589 h -1.33028 v 0.879883 h 1.03752 q 0.22198,0.01609 0.2252,0.217155 0.003,0.20107 -0.2252,0.23485 h -1.03752 v 1.282022 q -0.0161,0.221981 -0.21876,0.225198 -0.20107,0.0032 -0.23325,-0.225198 z"
         style="stroke-width:0.264583"
         id="path3634" />
    </g>
    <g
       aria-label="PGB"
       id="text3481"
       style="font-size:3.29433px;line-height:1.25;font-family:'MS 33558';-inkscape-font-specification:'MS 33558, Normal';stroke-width:0.264583"
       transform="translate(-0.93285768,0.52916667)">
      <path
         d="m 119.90467,50.185986 h 0.0306 q 0.2059,0.01448 0.37962,0.0933 0.33297,0.15603 0.47131,0.51313 0.13834,0.3571 -0.003,0.696506 -0.11421,0.26863 -0.3378,0.421443 -0.22359,0.151205 -0.50991,0.168899 l -0.0306,0.0016 h -0.78176 v 1.17264 q -0.029,0.226807 -0.22842,0.226807 -0.19946,0 -0.2268,-0.226807 V 50.41118 q 0.0241,-0.199462 0.21233,-0.225199 h 0.0145 z m 0,0.453614 h -0.78176 v 0.986047 h 0.78176 q 0.18337,0 0.32332,-0.12225 0.14155,-0.122251 0.16568,-0.305627 0.0289,-0.221981 -0.11903,-0.389271 -0.14799,-0.168899 -0.36997,-0.168899 z"
         style="stroke-width:0.264583"
         id="path3563" />
      <path
         d="m 122.4108,52.153255 -0.0145,-0.0016 q -0.19625,-0.02413 -0.19625,-0.22359 0,-0.199461 0.19625,-0.22359 l 0.0145,-0.0032 h 0.0145 0.59356 q 0.0933,0 0.15925,0.06756 0.0676,0.06595 0.0676,0.159247 v 0.81554 l -0.0193,0.04182 -0.0113,0.02574 -0.0113,0.02413 -0.0129,0.02413 -0.0129,0.02413 -0.0113,0.02413 -0.0129,0.02413 -0.0145,0.02413 q -0.31206,0.530824 -0.77532,0.519564 -0.46327,-0.01287 -0.77855,-0.52439 -0.14959,-0.242892 -0.22198,-0.608035 -0.0724,-0.366752 -0.0434,-0.747981 0.029,-0.382837 0.17694,-0.727068 0.1496,-0.345841 0.44557,-0.548519 0.36997,-0.250936 0.72064,-0.05791 0.35066,0.191418 0.52439,0.538867 l 0.0129,0.02574 0.01,0.02252 0.0129,0.02413 q 0.0547,0.152813 -0.0418,0.249327 -0.0933,0.09169 -0.20267,0.06917 -0.10939,-0.02413 -0.1689,-0.130293 -0.1882,-0.466483 -0.48579,-0.406966 -0.29597,0.05952 -0.44396,0.485785 -0.14477,0.411791 -0.11421,0.886316 0.0306,0.472917 0.30885,0.825191 0.19141,0.24611 0.38927,0.157639 0.19785,-0.08847 0.31206,-0.329754 l 0.0177,-0.03539 v -0.49061 z"
         style="stroke-width:0.264583"
         id="path3565" />
      <path
         d="m 124.99737,50.185986 q 0.30562,0.02574 0.51313,0.184985 0.20911,0.159247 0.28954,0.384445 0.0804,0.22359 0.0209,0.477743 -0.0579,0.252543 -0.28311,0.464873 0.24772,0.260587 0.30885,0.562996 0.0611,0.302409 -0.0386,0.566213 -0.0981,0.262195 -0.34262,0.445571 -0.2445,0.183376 -0.60643,0.207504 h -0.005 -0.85576 q -0.19785,-0.02735 -0.22841,-0.22359 v -2.842324 q 0.0273,-0.199462 0.22841,-0.228416 z m -0.14316,2.839108 q 0.27345,-0.01126 0.41661,-0.176942 0.14316,-0.165681 0.14799,-0.366751 0.006,-0.202679 -0.12868,-0.37962 -0.13512,-0.176942 -0.41662,-0.213939 h -0.64825 v 1.137252 z m 0.14316,-2.382277 h -0.77211 v 0.79302 h 0.77693 q 0.19947,-0.02091 0.29598,-0.143162 0.0981,-0.123859 0.0949,-0.263804 -0.002,-0.141553 -0.10134,-0.257369 -0.0997,-0.117425 -0.29436,-0.128685 z"
         style="stroke-width:0.264583"
         id="path3567" />
    </g>
    <path
       id="path3489"
       style="fill:#000000;stroke:none;stroke-width:0.528186;stroke-linecap:round;stroke-miterlimit:4;stroke-dasharray:none"
       d="m 35.497435,52.358158 a 0.76125938,0.73114365 0 0 1 -0.761259,0.731144 0.76125938,0.73114365 0 0 1 -0.76126,-0.731144 0.76125938,0.73114365 0 0 1 0.76126,-0.731144 0.76125938,0.73114365 0 0 1 0.761259,0.731144 z" />
    <path
       id="path3489-0"
       style="fill:#000000;stroke:none;stroke-width:0.528185;stroke-linecap:round;stroke-miterlimit:4;stroke-dasharray:none"
       d="m 35.497435,62.128544 a 0.76125938,0.73114365 0 0 1 -0.761259,0.731144 0.76125938,0.73114365 0 0 1 -0.76126,-0.731144 0.76125938,0.73114365 0 0 1 0.76126,-0.731144 0.76125938,0.73114365 0 0 1 0.761259,0.731144 z" />
    <path
       id="path3489-0-9"
       style="fill:#000000;stroke:none;stroke-width:0.528185;stroke-linecap:round;stroke-miterlimit:4;stroke-dasharray:none"
       d="m 35.497435,73.332077 a 0.76125938,0.73114365 0 0 1 -0.761259,0.731144 0.76125938,0.73114365 0 0 1 -0.76126,-0.731144 0.76125938,0.73114365 0 0 1 0.76126,-0.731144 0.76125938,0.73114365 0 0 1 0.761259,0.731144 z" />
    <g
       aria-label="NORM"
       id="text3532"
       style="font-size:3.29433px;line-height:1.25;font-family:'MS 33558';-inkscape-font-specification:'MS 33558, Normal';stroke-width:0.264583">
      <path
         d="m 72.37967,75.07365 q 0,0.168899 -0.164073,0.215547 -0.162465,0.04504 -0.252544,-0.09651 l -1.35119,-2.16673 v 2.047696 q -0.03539,0.225199 -0.228416,0.225199 -0.191418,0 -0.225198,-0.225199 v -2.840716 q 0.02413,-0.16729 0.170507,-0.220373 0.147988,-0.05308 0.24611,0.09973 l 1.35119,2.169947 v -2.049305 q 0.03056,-0.230024 0.233241,-0.226807 0.204287,0.0016 0.220373,0.226807 z"
         style="stroke-width:0.264583"
         id="path3551" />
      <path
         d="m 74.98071,72.948743 q 0.147988,0.445571 0.110991,0.924922 -0.03539,0.479351 -0.262195,0.875056 -0.143162,0.24611 -0.39088,0.418226 -0.247718,0.172116 -0.54691,0.120642 -0.487394,-0.08525 -0.746372,-0.508305 -0.258978,-0.423051 -0.297584,-0.941008 -0.037,-0.519564 0.139945,-1.011783 0.17855,-0.49222 0.567822,-0.715809 0.18981,-0.109382 0.397314,-0.109382 0.395705,0 0.646641,0.299192 0.250935,0.297583 0.381228,0.648249 z m -1.015001,-0.490611 q -0.295975,0 -0.448788,0.318495 -0.151204,0.318495 -0.191418,0.543693 -0.03056,0.164073 -0.02252,0.397315 0.008,0.233241 0.06756,0.461656 0.05952,0.226807 0.17855,0.410183 0.119034,0.181767 0.312061,0.241284 0.225198,0.07078 0.387663,-0.08847 0.164073,-0.160856 0.247718,-0.341015 0.08525,-0.184984 0.115816,-0.485785 0.03217,-0.3008 -0.01448,-0.599992 -0.04504,-0.300801 -0.17855,-0.540476 -0.13351,-0.241284 -0.37962,-0.307235 -0.03217,-0.0097 -0.07399,-0.0097 z"
         style="stroke-width:0.264583"
         id="path3553" />
      <path
         d="m 77.556014,74.946574 q 0.102948,0.181767 -0.05791,0.305626 -0.07721,0.05469 -0.17855,0.037 -0.09973,-0.01769 -0.146379,-0.09973 l -0.79302,-1.253067 h -0.40214 v 1.132426 q 0,0.139944 -0.127076,0.202678 -0.127076,0.06113 -0.238067,-0.02413 -0.08847,-0.06595 -0.08847,-0.17855 V 72.2265 q 0,-0.0933 0.06434,-0.159248 0.06595,-0.06595 0.160856,-0.06595 h 0.998915 q 0.360318,0 0.62573,0.230024 0.265412,0.228415 0.329755,0.58069 0.06756,0.378011 -0.160856,0.707766 -0.226807,0.328146 -0.60321,0.398922 l -0.03056,0.0048 z m -0.807497,-1.462181 q 0.164073,0 0.30241,-0.09973 0.139944,-0.09973 0.188201,-0.260587 0.0756,-0.247718 -0.06917,-0.447179 -0.14477,-0.20107 -0.398923,-0.221982 h -0.79302 v 1.029478 z"
         style="stroke-width:0.264583"
         id="path3555" />
      <path
         d="m 80.544718,75.070433 q -0.03539,0.225198 -0.228416,0.225198 -0.191418,-0.0016 -0.225198,-0.225198 v -2.009091 l -0.551736,0.944225 q -0.08847,0.106165 -0.197853,0.11099 -0.107773,0.0048 -0.193027,-0.11099 l -0.548519,-0.939399 0.0016,2.004265 q -0.02574,0.22359 -0.233241,0.22359 -0.205896,-0.0016 -0.221981,-0.22359 v -2.840716 q 0.01287,-0.184984 0.162464,-0.220373 0.149596,-0.037 0.260587,0.10134 l 0.773717,1.330278 0.78176,-1.330278 q 0.11099,-0.138337 0.257369,-0.10134 0.147988,0.037 0.162465,0.220373 z"
         style="stroke-width:0.264583"
         id="path3557" />
    </g>
    <g
       aria-label="SUPPLY"
       id="text3536"
       style="font-size:3.29433px;line-height:1.25;font-family:'MS 33558';-inkscape-font-specification:'MS 33558, Normal';stroke-width:0.264583"
       transform="translate(-4.59628,-16.893606)">
      <path
         d="m 92.489854,62.024716 0.02574,0.01126 0.02895,0.01448 0.02574,0.01448 q 0.01126,0.008 0.02413,0.01609 0.01448,0.0064 0.02735,0.01448 0.318495,0.209113 0.394097,0.579082 0.02895,0.14477 0.01287,0.297583 -0.02574,0.218764 -0.154421,0.405357 -0.127077,0.184985 -0.320104,0.286324 -0.207504,0.109382 -0.429485,0.109382 -0.373186,0 -0.712592,-0.09491 -0.339406,-0.09651 -0.484176,-0.513131 -0.0193,-0.05308 -0.02895,-0.109382 -0.0097,-0.0563 -0.02252,-0.112599 -0.02413,-0.115816 0.0563,-0.204287 0.08204,-0.08847 0.202679,-0.06756 0.127076,0.02574 0.176941,0.157639 l 0.0048,0.01448 q 0.07721,0.349057 0.268629,0.416616 0.193028,0.06756 0.535651,0.06113 0.315277,0 0.432702,-0.295975 0.05147,-0.131902 0.01609,-0.273455 -0.03539,-0.143162 -0.139945,-0.238067 -0.04665,-0.04021 -0.12225,-0.0756 l -0.744763,-0.326538 -0.02413,-0.01287 q -0.365143,-0.193028 -0.453614,-0.548519 -0.107773,-0.411792 0.149597,-0.738329 0.258978,-0.328146 0.678812,-0.328146 l 0.176941,0.0048 q 0.08686,0.01609 0.16729,0.03217 0.08043,0.01448 0.162465,0.05147 0.202678,0.0949 0.310452,0.260586 0.107773,0.165682 0.194636,0.358709 0.008,0.01769 0.01448,0.04182 0.01769,0.07882 -0.01609,0.143161 -0.0193,0.04021 -0.04021,0.06113 -0.02091,0.02091 -0.03378,0.02895 -0.08365,0.05952 -0.183376,0.03539 -0.09973,-0.02252 -0.152813,-0.128685 -0.04182,-0.0933 -0.09008,-0.18981 -0.04665,-0.09812 -0.131902,-0.162464 -0.03539,-0.02574 -0.06917,-0.037 -0.03217,-0.01287 -0.07238,-0.02735 l -0.104556,-0.01769 -0.147988,-0.0048 q -0.215547,0.0032 -0.329755,0.186593 -0.07721,0.117425 -0.05791,0.262196 0.02252,0.17855 0.16729,0.276672 0.0064,0.0048 0.01448,0.01126 0.008,0.0048 0.0177,0.0097 l 0.01769,0.008 0.0193,0.008 z"
         style="stroke-width:0.264583"
         id="path3538" />
      <path
         d="m 95.600808,62.692268 v 0.03217 q -0.0048,0.08043 -0.0064,0.09651 -0.06756,0.492219 -0.403749,0.727069 -0.336189,0.233241 -0.717417,0.218764 Q 94.091979,63.7507 93.775093,63.488505 93.459815,63.22631 93.43247,62.724439 v -0.03217 -1.983354 q 0,-0.04826 0.01769,-0.08686 0.07721,-0.168899 0.255761,-0.133511 0.180159,0.03539 0.180159,0.220373 v 1.983354 q 0.02413,0.369969 0.324929,0.553344 0.302409,0.183376 0.635381,-0.01609 0.149596,-0.08847 0.218764,-0.228416 0.07078,-0.139944 0.08365,-0.308843 v -1.983354 q 0,-0.02895 0.0032,-0.04343 0.037,-0.197853 0.242892,-0.17855 0.205896,0.0193 0.205896,0.221981 z"
         style="stroke-width:0.264583"
         id="path3540" />
      <path
         d="m 97.230279,60.483716 h 0.03056 q 0.205895,0.01448 0.37962,0.0933 0.332971,0.15603 0.471308,0.513131 0.138336,0.3571 -0.0032,0.696506 -0.114207,0.268629 -0.337797,0.421443 -0.22359,0.151204 -0.509913,0.168898 l -0.03056,0.0016 h -0.78176 v 1.17264 q -0.02895,0.226807 -0.228415,0.226807 -0.199462,0 -0.226807,-0.226807 v -2.842325 q 0.02413,-0.199461 0.212329,-0.225198 h 0.01448 z m 0,0.453614 h -0.78176 v 0.986047 h 0.78176 q 0.183376,0 0.32332,-0.122251 0.141554,-0.122251 0.165682,-0.305626 0.02895,-0.221982 -0.119033,-0.389272 Q 97.45226,60.93733 97.230279,60.93733 Z"
         style="stroke-width:0.264583"
         id="path3542" />
      <path
         d="m 99.873142,60.483716 h 0.03056 q 0.205898,0.01448 0.379618,0.0933 0.33298,0.15603 0.47131,0.513131 0.13834,0.3571 -0.003,0.696506 -0.11421,0.268629 -0.3378,0.421443 -0.22359,0.151204 -0.509918,0.168898 l -0.03056,0.0016 h -0.78176 v 1.17264 q -0.02895,0.226807 -0.228415,0.226807 -0.199462,0 -0.226807,-0.226807 v -2.842325 q 0.02413,-0.199461 0.21233,-0.225198 h 0.01448 z m 0,0.453614 h -0.78176 v 0.986047 h 0.78176 q 0.183378,0 0.323318,-0.122251 0.14156,-0.122251 0.16568,-0.305626 0.029,-0.221982 -0.11903,-0.389272 -0.14799,-0.168898 -0.369968,-0.168898 z"
         style="stroke-width:0.264583"
         id="path3544" />
      <path
         d="m 101.50744,63.779654 q -0.19785,-0.01287 -0.22842,-0.22359 v -2.843933 q 0.0338,-0.231632 0.23485,-0.226807 0.20107,0.0032 0.21877,0.226807 v 2.618735 l 1.4847,-0.0016 q 0.22841,0.02574 0.2252,0.231632 -0.002,0.204287 -0.22681,0.218764 z"
         style="stroke-width:0.264583"
         id="path3546" />
      <path
         d="m 105.82803,60.601141 q 0.12547,-0.188202 0.30241,-0.09008 0.17855,0.09812 0.0917,0.307235 l -0.92493,1.651991 v 1.076126 q -0.0145,0.228416 -0.22519,0.228416 -0.20912,0 -0.22359,-0.228416 v -1.076126 l -0.92332,-1.651991 q -0.0853,-0.207504 0.0869,-0.304018 0.17211,-0.09812 0.30723,0.08686 l 0.75442,1.347972 z"
         style="stroke-width:0.264583"
         id="path3548" />
    </g>
    <g
       aria-label="O
X
Y
G
E
N"
       id="text3711"
       style="font-style:normal;font-variant:normal;font-weight:normal;font-stretch:normal;font-size:4.93889px;line-height:1.25;font-family:'MS 33558';-inkscape-font-specification:'MS 33558, Normal';font-variant-ligatures:normal;font-variant-caps:normal;font-variant-numeric:normal;font-variant-east-asian:normal;text-align:center;text-anchor:middle;stroke-width:0.264583">
      <path
         d="m 7.9860897,25.213007 q 0.2218642,0.668004 0.1663981,1.386651 -0.053054,0.718647 -0.3930854,1.311893 Q 7.5447729,28.28052 7.1733915,28.538558 6.8020101,28.796596 6.3534586,28.719426 5.6227537,28.591613 5.2344913,27.95737 4.846229,27.323128 4.7883514,26.546603 q -0.055466,-0.778936 0.2098063,-1.516875 0.267684,-0.73794 0.8512833,-1.073148 0.284565,-0.163987 0.5956571,-0.163987 0.5932456,0 0.9694501,0.448552 0.3762045,0.44614 0.5715415,0.971862 z m -1.521699,-0.735528 q -0.4437284,0 -0.6728273,0.47749 -0.2266873,0.47749 -0.2869765,0.81511 -0.04582,0.24598 -0.033762,0.595657 0.012058,0.349677 0.1012859,0.69212 0.089228,0.340031 0.2676839,0.614949 0.178456,0.272507 0.4678441,0.361735 0.3376194,0.106109 0.5811877,-0.132636 0.2459799,-0.241156 0.3713814,-0.511252 0.1278131,-0.27733 0.1736329,-0.728293 0.048231,-0.450963 -0.021704,-0.899515 -0.067524,-0.450963 -0.267684,-0.810287 -0.2001601,-0.361735 -0.5691299,-0.460609 -0.048231,-0.01447 -0.1109321,-0.01447 z"
         style="font-style:normal;font-variant:normal;font-weight:normal;font-stretch:normal;font-size:4.93889px;font-family:'MS 33558';-inkscape-font-specification:'MS 33558, Normal';font-variant-ligatures:normal;font-variant-caps:normal;font-variant-numeric:normal;font-variant-east-asian:normal;text-align:center;text-anchor:middle;stroke-width:0.264583"
         id="path3723" />
      <path
         d="M 4.829348,34.398667 6.134006,32.06427 5.2441376,30.470224 q -0.1278131,-0.315916 0.1326362,-0.46061 0.2604493,-0.147105 0.4630209,0.130225 l 0.680062,1.227488 0.6848852,-1.227488 q 0.2025716,-0.27733 0.4606093,-0.132636 0.2580377,0.144694 0.1350478,0.465432 L 6.9129422,32.06427 8.2151886,34.398667 Q 8.3454132,34.716994 8.0801408,34.864099 7.8148684,35.008793 7.6243546,34.72664 L 6.5198567,32.758801 5.4274167,34.72664 Q 5.2176104,35.001559 4.9571611,34.859276 4.6991234,34.716994 4.829348,34.398667 Z"
         style="font-style:normal;font-variant:normal;font-weight:normal;font-stretch:normal;font-size:4.93889px;font-family:'MS 33558';-inkscape-font-specification:'MS 33558, Normal';font-variant-ligatures:normal;font-variant-caps:normal;font-variant-numeric:normal;font-variant-east-asian:normal;text-align:center;text-anchor:middle;stroke-width:0.264583"
         id="path3725" />
      <path
         d="m 7.621943,36.315863 q 0.1881023,-0.282154 0.4533747,-0.135048 0.267684,0.147106 0.1374593,0.460609 l -1.3866512,2.47668 v 1.613339 q -0.021704,0.342442 -0.3376194,0.342442 -0.3135038,0 -0.3352079,-0.342442 v -1.613339 l -1.3842397,-2.47668 q -0.1278131,-0.311092 0.1302247,-0.455786 0.2580377,-0.147105 0.4606093,0.130225 l 1.1310251,2.020893 z"
         style="font-style:normal;font-variant:normal;font-weight:normal;font-stretch:normal;font-size:4.93889px;font-family:'MS 33558';-inkscape-font-specification:'MS 33558, Normal';font-variant-ligatures:normal;font-variant-caps:normal;font-variant-numeric:normal;font-variant-east-asian:normal;text-align:center;text-anchor:middle;stroke-width:0.264583"
         id="path3727" />
      <path
         d="m 6.5958211,45.262778 -0.021704,-0.0024 q -0.2942112,-0.03617 -0.2942112,-0.335208 0,-0.299034 0.2942112,-0.335207 l 0.021704,-0.0048 h 0.021704 0.8898684 q 0.1398709,0 0.2387451,0.101286 0.1012859,0.09887 0.1012859,0.238745 v 1.222665 l -0.028939,0.0627 -0.016881,0.03858 -0.016881,0.03617 -0.019292,0.03617 -0.019293,0.03617 -0.016881,0.03617 -0.019293,0.03617 -0.021704,0.03617 Q 7.2204171,47.261967 6.5258857,47.245086 5.8313542,47.225794 5.358687,46.458915 5.1344113,46.094769 5.0258907,45.547343 4.9173702,44.997505 4.9607784,44.425964 q 0.043408,-0.573953 0.2652724,-1.090029 0.2242758,-0.518487 0.6680042,-0.822344 0.5546605,-0.376205 1.0803822,-0.08682 0.5257217,0.286976 0.7861709,0.807875 l 0.019293,0.03858 0.014469,0.03376 0.019292,0.03617 q 0.081993,0.229099 -0.062701,0.373793 -0.1398709,0.137459 -0.3038575,0.103698 -0.1639866,-0.03617 -0.2532146,-0.195337 -0.2821534,-0.699355 -0.7282933,-0.610127 -0.4437284,0.08923 -0.6655926,0.728293 -0.2170411,0.617362 -0.1712213,1.328774 0.04582,0.709001 0.4630209,1.237134 0.2869765,0.36897 0.5835993,0.236334 0.2966228,-0.132637 0.4678441,-0.494372 l 0.026527,-0.05305 v -0.735528 z"
         style="font-style:normal;font-variant:normal;font-weight:normal;font-stretch:normal;font-size:4.93889px;font-family:'MS 33558';-inkscape-font-specification:'MS 33558, Normal';font-variant-ligatures:normal;font-variant-caps:normal;font-variant-numeric:normal;font-variant-east-asian:normal;text-align:center;text-anchor:middle;stroke-width:0.264583"
         id="path3729" />
      <path
         d="M 7.6231488,49.159871 H 5.6239595 v 1.319127 H 7.14807 q 0.3424426,0.05064 0.340031,0.344854 0,0.2918 -0.340031,0.340031 H 5.6239595 v 1.5844 h 1.9991893 q 0.340031,0.05064 0.340031,0.340031 0,0.289388 -0.340031,0.337619 H 5.2887516 Q 4.9873057,53.387348 4.946309,53.083491 v -4.258828 q 0.04582,-0.318327 0.3424426,-0.33762 h 2.3343972 q 0.340031,0.02653 0.3376194,0.340031 0,0.311093 -0.3376194,0.332797 z"
         style="font-style:normal;font-variant:normal;font-weight:normal;font-stretch:normal;font-size:4.93889px;font-family:'MS 33558';-inkscape-font-specification:'MS 33558, Normal';font-variant-ligatures:normal;font-variant-caps:normal;font-variant-numeric:normal;font-variant-east-asian:normal;text-align:center;text-anchor:middle;stroke-width:0.264583"
         id="path3731" />
      <path
         d="m 8.1090796,59.26675 q 0,0.253214 -0.2459798,0.32315 -0.2435683,0.06752 -0.3786161,-0.144694 L 5.4587671,56.196824 v 3.069926 q -0.053055,0.337619 -0.3424426,0.337619 -0.2869765,0 -0.3376194,-0.337619 v -4.258828 q 0.036174,-0.250803 0.2556261,-0.330385 0.2218642,-0.07958 0.3689698,0.149517 l 2.0257166,3.253204 v -3.072336 q 0.04582,-0.344855 0.3496773,-0.340031 0.3062691,0.0024 0.3303847,0.340031 z"
         style="font-style:normal;font-variant:normal;font-weight:normal;font-stretch:normal;font-size:4.93889px;font-family:'MS 33558';-inkscape-font-specification:'MS 33558, Normal';font-variant-ligatures:normal;font-variant-caps:normal;font-variant-numeric:normal;font-variant-east-asian:normal;text-align:center;text-anchor:middle;stroke-width:0.264583"
         id="path3733" />
    </g>
    <path
       style="fill:none;stroke:#000000;stroke-width:0.8;stroke-linecap:butt;stroke-linejoin:miter;stroke-opacity:1;stroke-miterlimit:4;stroke-dasharray:none"
       d="m 70.114582,48.947916 c 63.570118,0 63.499998,0 63.499998,0"
       id="path3738" />
  </g>
</svg>
