<?xml version="1.0" encoding="UTF-8" standalone="no"?>
<svg
   xmlns:dc="http://purl.org/dc/elements/1.1/"
   xmlns:cc="http://creativecommons.org/ns#"
   xmlns:rdf="http://www.w3.org/1999/02/22-rdf-syntax-ns#"
   xmlns:svg="http://www.w3.org/2000/svg"
   xmlns="http://www.w3.org/2000/svg"
   xmlns:sodipodi="http://sodipodi.sourceforge.net/DTD/sodipodi-0.dtd"
   xmlns:inkscape="http://www.inkscape.org/namespaces/inkscape"
   width="210mm"
   height="297mm"
   viewBox="0 0 210 297"
   version="1.1"
   id="svg8"
   inkscape:version="1.0.1 (3bc2e813f5, 2020-09-07)"
   sodipodi:docname="snsr_pwr_engrave.svg">
  <defs
     id="defs2">
    <marker
       id="DistanceX"
       orient="auto"
       refX="0.0"
       refY="0.0"
       style="overflow:visible">
      <path
         d="M 3,-3 L -3,3 M 0,-5 L  0,5"
         style="stroke:#000000; stroke-width:0.5"
         id="path833" />
    </marker>
    <pattern
       id="Hatch"
       patternUnits="userSpaceOnUse"
       width="8"
       height="8"
       x="0"
       y="0">
      <path
         d="M8 4 l-4,4"
         stroke="#000000"
         stroke-width="0.25"
         linecap="square"
         id="path836" />
      <path
         d="M6 2 l-4,4"
         stroke="#000000"
         stroke-width="0.25"
         linecap="square"
         id="path838" />
      <path
         d="M4 0 l-4,4"
         stroke="#000000"
         stroke-width="0.25"
         linecap="square"
         id="path840" />
    </pattern>
    <symbol
       id="*Model_Space" />
    <symbol
       id="*Paper_Space" />
  </defs>
  <sodipodi:namedview
     id="base"
     pagecolor="#ffffff"
     bordercolor="#666666"
     borderopacity="1.0"
     inkscape:pageopacity="0.0"
     inkscape:pageshadow="2"
     inkscape:zoom="1.979899"
     inkscape:cx="275.31751"
     inkscape:cy="34.890822"
     inkscape:document-units="mm"
     inkscape:current-layer="layer1"
     inkscape:document-rotation="0"
     showgrid="false"
     inkscape:window-width="1918"
     inkscape:window-height="2071"
     inkscape:window-x="-8"
     inkscape:window-y="0"
     inkscape:window-maximized="0" />
  <metadata
     id="metadata5">
    <rdf:RDF>
      <cc:Work
         rdf:about="">
        <dc:format>image/svg+xml</dc:format>
        <dc:type
           rdf:resource="http://purl.org/dc/dcmitype/StillImage" />
        <dc:title></dc:title>
      </cc:Work>
    </rdf:RDF>
  </metadata>
  <g
     inkscape:label="Lag 1"
     inkscape:groupmode="layer"
     id="layer1">
    <g
       inkscape:label="0"
       id="g875"
       transform="matrix(0.26458333,0,0,0.26458333,6.8749999,-253.80952)"
       style="fill:none;stroke:#ff0000">
      <path
         d="m 117.16535,1058.2677 a 22.677165,22.677165 0 1 0 -45.354326,0 22.677165,22.677165 0 1 0 45.354326,0 z"
         style="fill:none;stroke:#ff0000;stroke-linecap:round"
         id="path847" />
      <path
         d="m 359.05512,1058.2677 a 22.677165,22.677165 0 1 0 -45.35433,0 22.677165,22.677165 0 1 0 45.35433,0 z"
         style="fill:none;stroke:#ff0000;stroke-linecap:round"
         id="path849" />
      <path
         d="m 238.11024,1058.2677 a 22.677165,22.677165 0 1 0 -45.35433,0 22.677165,22.677165 0 1 0 45.35433,0 z"
         style="fill:none;stroke:#ff0000;stroke-linecap:round"
         id="path851" />
      <path
         d="m 480,1058.2677 a 22.677165,22.677165 0 1 0 -45.35433,0 22.677165,22.677165 0 1 0 45.35433,0 z"
         style="fill:none;stroke:#ff0000;stroke-linecap:round"
         id="path853" />
      <path
         d="M 18.897638,1065.8268 H 0"
         style="fill:none;stroke:#ff0000;stroke-linecap:round"
         id="path855" />
      <path
         d="m 37.795276,1122.5197 v -37.7953"
         style="fill:none;stroke:#ff0000;stroke-linecap:round"
         id="path857" />
      <path
         d="M 37.795276,1084.7244 A 18.897638,18.897638 0 0 0 18.897638,1065.8268"
         style="fill:none;stroke:#ff0000;stroke-linecap:round"
         id="path859" />
      <path
         d="M 529.13386,1035.5906 H 548.0315"
         style="fill:none;stroke:#ff0000;stroke-linecap:round"
         id="path861" />
      <path
         d="m 510.23622,978.89764 v 37.79526"
         style="fill:none;stroke:#ff0000;stroke-linecap:round"
         id="path863" />
      <path
         d="m 510.23622,1016.6929 a 18.897638,18.897638 0 0 0 18.89764,18.8977"
         style="fill:none;stroke:#ff0000;stroke-linecap:round"
         id="path865" />
      <path
         d="m 0,978.89764 v 86.92916"
         style="fill:none;stroke:#ff0000;stroke-linecap:round"
         id="path867" />
      <path
         d="M 37.795276,1122.5197 H 548.0315"
         style="fill:none;stroke:#ff0000;stroke-linecap:round"
         id="path869" />
      <path
         d="M 510.23622,978.89764 H 0"
         style="fill:none;stroke:#ff0000;stroke-linecap:round"
         id="path871" />
      <path
         d="m 548.0315,1122.5197 v -86.9291"
         style="fill:none;stroke:#ff0000;stroke-linecap:round"
         id="path873" />
    </g>
    <g
       aria-label="S
N
S
R"
       transform="scale(1.1685758,0.85574253)"
       id="text916"
       style="font-style:normal;font-variant:normal;font-weight:normal;font-stretch:normal;font-size:4.7142px;line-height:1.25;font-family:'MS 33558';-inkscape-font-specification:'MS 33558, Normal';font-variant-ligatures:normal;font-variant-caps:normal;font-variant-numeric:normal;font-variant-east-asian:normal;stroke-width:0.353565">
      <path
         d="m 9.520534,10.263361 0.03683,0.01611 0.041433,0.02072 0.03683,0.02072 q 0.016113,0.01151 0.034528,0.02302 0.020717,0.0092 0.039131,0.02072 0.4557679,0.299241 0.5639549,0.828668 0.04143,0.207167 0.01841,0.425843 -0.03683,0.313052 -0.220979,0.580068 -0.1818461,0.264713 -0.4580688,0.40973 -0.2969394,0.156526 -0.6145954,0.156526 -0.5340305,0 -1.019722,-0.135809 -0.4856915,-0.138112 -0.6928585,-0.734292 -0.027622,-0.07596 -0.041433,-0.156526 -0.013811,-0.08057 -0.032226,-0.16113 -0.034528,-0.165734 0.080565,-0.292336 0.1173946,-0.126602 0.2900338,-0.09668 0.1818465,0.03683 0.2532041,0.225582 l 0.00691,0.02072 q 0.1104891,0.499502 0.3844099,0.59618 0.2762227,0.09668 0.7665179,0.08747 0.4511636,0 0.6191991,-0.423542 0.073659,-0.188752 0.023018,-0.391315 -0.050641,-0.204865 -0.2002614,-0.340675 -0.066754,-0.05755 -0.174941,-0.108187 L 8.1946652,10.387661 8.1601374,10.369247 Q 7.6376162,10.093024 7.5110141,9.5843139 7.3567898,8.9950388 7.7250867,8.5277622 8.0956854,8.0581837 8.6964697,8.0581837 l 0.2532041,0.00691 q 0.1243002,0.023019 0.239393,0.046037 0.1150928,0.020717 0.2324874,0.073659 0.2900338,0.1358095 0.4442581,0.3729006 0.1542247,0.2370911 0.2785247,0.5133138 0.01151,0.02532 0.02072,0.059848 0.02532,0.1127909 -0.02302,0.2048652 -0.02762,0.057546 -0.05755,0.08747 -0.02993,0.029924 -0.04834,0.041433 Q 9.9164531,9.549786 9.7737381,9.5152582 9.631023,9.4830322 9.5550618,9.3311097 9.4952136,9.1976021 9.4261579,9.0594908 9.3594041,8.9190776 9.2374058,8.8270034 9.1867649,8.7901737 9.138426,8.7740607 9.0923889,8.7556459 9.0348425,8.7349292 L 8.8852219,8.7096088 8.6734512,8.7027032 Q 8.3650025,8.7073069 8.2015708,8.9697184 8.0910817,9.1377539 8.118704,9.3449209 8.15093,9.6004268 8.358097,9.74084 q 0.00921,0.00691 0.020717,0.016113 0.011509,0.00691 0.02532,0.013811 l 0.02532,0.011509 0.027622,0.011509 z"
         style="stroke-width:0.353565"
         id="path1060" />
      <path
         d="m 10.38373,18.347478 q 0,0.241694 -0.234789,0.308448 -0.2324879,0.06445 -0.3613918,-0.138111 L 7.8539906,15.417216 v 2.930262 q -0.050641,0.322259 -0.3268635,0.322259 -0.2739208,0 -0.3222597,-0.322259 v -4.065077 q 0.034528,-0.239393 0.2439966,-0.315354 0.2117707,-0.07596 0.3521839,0.142715 l 1.9335586,3.105203 v -2.932564 q 0.043735,-0.329165 0.3337695,-0.324562 0.292335,0.0023 0.315354,0.324562 z"
         style="stroke-width:0.353565"
         id="path1062" />
      <path
         d="m 9.520534,22.048861 0.03683,0.01611 0.041433,0.02072 0.03683,0.02072 q 0.016113,0.01151 0.034528,0.02302 0.020717,0.0092 0.039131,0.02072 0.4557679,0.299241 0.5639549,0.828668 0.04143,0.207167 0.01841,0.425843 -0.03683,0.313052 -0.220979,0.580068 -0.1818461,0.264713 -0.4580688,0.40973 -0.2969394,0.156526 -0.6145954,0.156526 -0.5340305,0 -1.019722,-0.135809 -0.4856915,-0.138112 -0.6928585,-0.734292 -0.027622,-0.07596 -0.041433,-0.156526 -0.013811,-0.08057 -0.032226,-0.16113 -0.034528,-0.165734 0.080565,-0.292336 0.1173946,-0.126602 0.2900338,-0.09668 0.1818465,0.03683 0.2532041,0.225582 l 0.00691,0.02072 q 0.1104891,0.499502 0.3844099,0.59618 0.2762227,0.09668 0.7665179,0.08747 0.4511636,0 0.6191991,-0.423542 0.073659,-0.188752 0.023018,-0.391315 -0.050641,-0.204865 -0.2002614,-0.340675 -0.066754,-0.05755 -0.174941,-0.108187 L 8.1946652,22.173161 8.1601374,22.154747 Q 7.6376162,21.878524 7.5110141,21.369814 7.3567898,20.780539 7.7250867,20.313262 8.0956854,19.843684 8.6964697,19.843684 l 0.2532041,0.0069 q 0.1243002,0.02302 0.239393,0.04604 0.1150928,0.02072 0.2324874,0.07366 0.2900338,0.135809 0.4442581,0.3729 0.1542247,0.237091 0.2785247,0.513314 0.01151,0.02532 0.02072,0.05985 0.02532,0.112791 -0.02302,0.204866 -0.02762,0.05755 -0.05755,0.08747 -0.02993,0.02992 -0.04834,0.04143 -0.1196969,0.08517 -0.2624119,0.05064 Q 9.631023,21.268532 9.5550618,21.11661 9.4952136,20.983102 9.4261579,20.844991 9.3594041,20.704578 9.2374058,20.612503 q -0.050641,-0.03683 -0.09898,-0.05294 -0.046037,-0.01841 -0.1035835,-0.03913 l -0.1496206,-0.02532 -0.2117707,-0.0069 q -0.3084487,0.0046 -0.4718804,0.267015 -0.1104891,0.168036 -0.082867,0.375203 0.032226,0.255506 0.239393,0.395919 0.00921,0.0069 0.020717,0.01611 0.011509,0.0069 0.02532,0.01381 l 0.02532,0.01151 0.027622,0.01151 z"
         style="stroke-width:0.353565"
         id="path1064" />
      <path
         d="m 10.112111,29.951131 q 0.147319,0.26011 -0.08287,0.437353 -0.110489,0.07826 -0.2555059,0.05294 Q 9.631023,30.416106 9.5642692,30.298711 L 8.4294545,28.505566 H 7.8539906 v 1.620506 q 0,0.200262 -0.1818466,0.290034 -0.1818466,0.08747 -0.3406746,-0.03453 -0.126602,-0.09438 -0.126602,-0.255506 v -4.067378 q 0,-0.133508 0.092074,-0.227884 0.094376,-0.09438 0.2301855,-0.09438 h 1.4294523 q 0.5156156,0 0.8954218,0.329165 0.3798058,0.326864 0.4718808,0.83097 0.09668,0.540936 -0.230186,1.012816 -0.3245616,0.469579 -0.8631958,0.57086 l -0.043735,0.0069 z M 8.9565794,27.858744 q 0.2347892,0 0.4327488,-0.142715 0.2002614,-0.142715 0.2693171,-0.3729 0.1081872,-0.354486 -0.09898,-0.639916 -0.207167,-0.287732 -0.5708601,-0.317656 H 7.8539906 v 1.473187 z"
         style="stroke-width:0.353565"
         id="path1066" />
    </g>
    <g
       aria-label="P
W
R"
       transform="scale(1.1088102,0.90186762)"
       id="text916-9"
       style="font-style:normal;font-variant:normal;font-weight:normal;font-stretch:normal;font-size:4.47309px;line-height:1.25;font-family:'MS 33558';-inkscape-font-specification:'MS 33558, Normal';font-variant-ligatures:normal;font-variant-caps:normal;font-variant-numeric:normal;font-variant-east-asian:normal;text-align:center;text-anchor:middle;stroke-width:0.335482">
      <path
         d="m 14.73008,10.860927 h 0.0415 q 0.279569,0.01966 0.515454,0.126679 0.452114,0.21186 0.639949,0.696736 0.187835,0.484876 -0.0044,0.945727 -0.155073,0.364749 -0.458667,0.572241 -0.303593,0.205308 -0.692368,0.229333 l -0.0415,0.0022 h -1.061485 v 1.592228 q -0.03932,0.307962 -0.310146,0.307962 -0.270832,0 -0.307962,-0.307962 v -3.859351 q 0.03276,-0.270831 0.288305,-0.305777 h 0.01966 z m 0,0.615923 h -1.061485 v 1.338869 h 1.061485 q 0.24899,0 0.439009,-0.165993 0.192203,-0.165994 0.224965,-0.414984 0.03932,-0.301409 -0.161625,-0.528559 -0.20094,-0.229333 -0.502349,-0.229333 z"
         style="text-align:center;text-anchor:middle;stroke-width:0.335482"
         id="path1069" />
      <path
         d="m 14.928835,16.70128 0.764445,2.612214 0.511085,-2.612214 q 0.09173,-0.294857 0.358197,-0.240254 0.268647,0.0546 0.246806,0.356012 l -0.755708,3.857167 q -0.06989,0.242438 -0.28612,0.251175 -0.214045,0.0087 -0.310146,-0.220597 l -0.8256,-2.817523 -0.819047,2.817523 q -0.10047,0.235885 -0.307962,0.220597 -0.207492,-0.01529 -0.292673,-0.251175 l -0.755707,-3.857167 q 0,-0.31233 0.24899,-0.358196 0.24899,-0.04805 0.362565,0.242438 l 0.504533,2.616583 0.764444,-2.616583 q 0.09392,-0.216229 0.299226,-0.222781 0.207492,-0.0066 0.292672,0.222781 z"
         style="text-align:center;text-anchor:middle;stroke-width:0.335482"
         id="path1071" />
      <path
         d="m 15.823235,26.042787 q 0.139784,0.246806 -0.07863,0.414984 -0.104839,0.07426 -0.242438,0.05024 -0.135416,-0.02403 -0.198756,-0.135416 l -1.076774,-1.701434 h -0.546032 v 1.537624 q 0,0.190019 -0.172546,0.2752 -0.172546,0.083 -0.32325,-0.03276 -0.120127,-0.08955 -0.120127,-0.242438 v -3.85935 q 0,-0.12668 0.08737,-0.216229 0.08955,-0.08955 0.218412,-0.08955 h 1.356343 q 0.489244,0 0.849625,0.31233 0.360381,0.310146 0.447746,0.78847 0.09173,0.513269 -0.218413,0.961015 -0.307962,0.445562 -0.819047,0.541663 l -0.0415,0.0066 z m -1.096431,-1.985371 q 0.222781,0 0.410615,-0.135416 0.190019,-0.135415 0.255543,-0.353828 0.102654,-0.336355 -0.09392,-0.607187 -0.196572,-0.273016 -0.541663,-0.301409 h -1.076775 v 1.39784 z"
         style="text-align:center;text-anchor:middle;stroke-width:0.335482"
         id="path1073" />
    </g>
    <g
       aria-label="right
HDPT"
       transform="scale(1.0390047,0.96245955)"
       id="text987"
       style="font-size:3.29432px;line-height:1.25;font-family:'MS 33558';-inkscape-font-specification:'MS 33558, Normal';text-align:center;text-anchor:middle;stroke-width:0.184893">
      <path
         d="m 57.997217,13.977618 q 0.102947,0.181767 -0.05791,0.305625 -0.07721,0.05469 -0.17855,0.037 -0.09973,-0.01769 -0.146378,-0.09973 l -0.793018,-1.253064 h -0.402139 v 1.132422 q 0,0.139945 -0.127075,0.202678 -0.127076,0.06113 -0.238067,-0.02413 -0.08847,-0.06595 -0.08847,-0.17855 v -2.842316 q 0,-0.0933 0.06434,-0.159247 0.06595,-0.06595 0.160856,-0.06595 h 0.998912 q 0.360316,0 0.625728,0.230024 0.265411,0.228414 0.329754,0.580688 0.06756,0.37801 -0.160856,0.707764 -0.226806,0.328145 -0.603208,0.398922 l -0.03056,0.0048 z m -0.807495,-1.462176 q 0.164073,0 0.302408,-0.09973 0.139945,-0.09973 0.188201,-0.260585 0.0756,-0.247718 -0.06917,-0.447179 -0.144769,-0.201069 -0.398921,-0.22198 h -0.793018 v 1.029475 z"
         style="text-align:center;text-anchor:middle;stroke-width:0.184893"
         id="path1076" />
      <path
         d="m 59.044386,14.104694 q -0.03539,0.226806 -0.230024,0.225198 -0.193026,0 -0.226806,-0.225198 v -2.843925 q 0.03378,-0.226806 0.226806,-0.226806 0.194635,-0.0016 0.230024,0.226806 z"
         style="text-align:center;text-anchor:middle;stroke-width:0.184893"
         id="path1078" />
      <path
         d="m 60.601467,12.999617 -0.01448,-0.0016 q -0.196244,-0.02413 -0.196244,-0.223589 0,-0.199461 0.196244,-0.223589 l 0.01448,-0.0032 h 0.01448 0.593556 q 0.0933,0 0.159247,0.06756 0.06756,0.06595 0.06756,0.159247 v 0.815537 l -0.0193,0.04182 -0.01126,0.02574 -0.01126,0.02413 -0.01287,0.02413 -0.01287,0.02413 -0.01126,0.02413 -0.01287,0.02413 -0.01448,0.02413 q -0.31206,0.530823 -0.775323,0.519563 -0.463264,-0.01287 -0.778541,-0.524389 -0.149595,-0.242892 -0.22198,-0.608034 -0.07239,-0.36675 -0.04343,-0.747978 0.02895,-0.382836 0.176941,-0.727066 0.149595,-0.34584 0.445569,-0.548518 0.369968,-0.250934 0.720633,-0.05791 0.350665,0.191418 0.524389,0.538866 l 0.01287,0.02574 0.0097,0.02252 0.01287,0.02413 q 0.05469,0.152813 -0.04182,0.249326 -0.0933,0.09169 -0.202678,0.06917 -0.109381,-0.02413 -0.168898,-0.130293 -0.188201,-0.466481 -0.485783,-0.406964 -0.295974,0.05952 -0.443961,0.485783 -0.14477,0.41179 -0.114208,0.886314 0.03056,0.472915 0.308843,0.825189 0.191418,0.246108 0.38927,0.157638 0.197852,-0.08847 0.31206,-0.329754 l 0.01769,-0.03539 v -0.490609 z"
         style="text-align:center;text-anchor:middle;stroke-width:0.184893"
         id="path1080" />
      <path
         d="m 61.960696,14.104694 v -2.843925 q 0.03378,-0.231632 0.234849,-0.226806 0.201069,0.0032 0.218763,0.226806 v 1.063255 h 1.294887 v -1.063255 q 0.03378,-0.226806 0.226806,-0.226806 0.194635,-0.0016 0.230023,0.226806 v 2.843925 q -0.03539,0.226806 -0.230023,0.225198 -0.193027,0 -0.226806,-0.225198 v -1.323841 h -1.294887 v 1.323841 q -0.01769,0.22198 -0.218763,0.225198 -0.20107,0.0032 -0.234849,-0.225198 z"
         style="text-align:center;text-anchor:middle;stroke-width:0.184893"
         id="path1082" />
      <path
         d="m 65.419089,14.101477 v -2.61551 h -0.59034 q -0.225198,-0.01769 -0.225198,-0.225198 0.0016,-0.209112 0.225198,-0.228415 h 1.632683 q 0.221981,0.01769 0.221981,0.228415 0.0016,0.209112 -0.221981,0.225198 h -0.588731 v 2.61551 q -0.037,0.228415 -0.238066,0.225197 -0.199461,-0.0032 -0.215546,-0.225197 z"
         style="text-align:center;text-anchor:middle;stroke-width:0.184893"
         id="path1084" />
      <path
         d="m 56.381423,18.222594 v -2.843925 q 0.03378,-0.231632 0.234849,-0.226806 0.20107,0.0032 0.218764,0.226806 v 1.063255 h 1.294886 v -1.063255 q 0.03378,-0.226806 0.226807,-0.226806 0.194635,-0.0016 0.230023,0.226806 v 2.843925 q -0.03539,0.226806 -0.230023,0.225198 -0.193027,0 -0.226807,-0.225198 v -1.323841 h -1.294886 v 1.323841 q -0.01769,0.221981 -0.218764,0.225198 -0.201069,0.0032 -0.234849,-0.225198 z"
         style="text-align:center;text-anchor:middle;stroke-width:0.184893"
         id="path1086" />
      <path
         d="m 59.249476,15.150254 h 0.75763 q 0.564602,0 0.846099,0.514738 0.281498,0.514738 0.281498,1.132423 0,0.617685 -0.283106,1.132422 -0.281497,0.514738 -0.844491,0.514738 h -0.75763 0.0032 -0.0032 q -0.05308,-0.008 -0.05791,-0.0097 -0.167289,-0.04021 -0.165681,-0.218763 h -0.0016 l 0.0016,-2.840708 q -0.0016,-0.0048 -0.0016,-0.01287 0.0048,-0.08847 0.06917,-0.149596 0.06595,-0.06273 0.157638,-0.06273 z m 0.75763,2.840708 q 0.0032,0 0.0064,0 0.0032,0 0.008,0 0.0032,0 0.0048,0 0.0032,-0.0016 0.008,-0.0016 0.0032,0 0.0064,0 0.0048,-0.0016 0.0097,-0.0016 0.0032,0 0.0064,0 0.0032,-0.0016 0.008,-0.0016 0.0032,0 0.0064,0 0.0032,-0.0016 0.008,-0.0016 0.0064,-0.0032 0.01287,-0.0032 0.0032,0 0.0064,-0.0016 0.0032,-0.0032 0.008,-0.0048 0.0032,0 0.0064,0 0.0048,-0.0016 0.0097,-0.0032 0.0032,0 0.0064,-0.0016 0.0032,-0.0016 0.008,-0.0032 0.0097,-0.0032 0.01448,-0.0064 0.02895,-0.0097 0.01608,-0.0064 0.0032,0 0.0064,-0.0016 0.0032,-0.0032 0.008,-0.0048 0.01448,-0.0097 0.01287,-0.008 0.01608,-0.008 0.01608,-0.008 0.0032,-0.0016 0.0064,-0.0032 0.0032,-0.0032 0.008,-0.0064 0.01448,-0.0097 0.01448,-0.0097 0.0032,-0.0016 0.0064,-0.0032 0.0048,-0.0032 0.0097,-0.0064 0.0032,-0.0016 0.0064,-0.0048 0.0032,-0.0032 0.008,-0.0064 0.0032,-0.0016 0.0064,-0.0032 0.0032,-0.0032 0.008,-0.0064 0.0032,-0.0032 0.01608,-0.01287 0.01287,-0.01287 0.01287,-0.01287 0.0032,-0.0032 0.0064,-0.0064 0.0032,-0.0032 0.008,-0.008 0.0032,-0.0032 0.0064,-0.0064 0.0032,-0.0032 0.008,-0.008 0.0048,-0.0032 0.01448,-0.01287 0.0032,-0.0032 0.0064,-0.0064 0.0032,-0.0032 0.008,-0.008 0.0032,-0.0032 0.0064,-0.0064 0.0032,-0.0048 0.008,-0.0097 0.0193,-0.02574 0.01287,-0.01609 0.01126,-0.01126 0.01448,-0.01769 0.01448,-0.0193 0.01287,-0.01769 0.0032,-0.0048 0.0064,-0.008 0.0032,-0.0048 0.008,-0.0097 0.0032,-0.0048 0.0048,-0.0097 0.0032,-0.0048 0.008,-0.0097 0.0016,-0.0048 0.0048,-0.0097 0.0048,-0.0064 0.008,-0.01126 0.0097,-0.01287 0.01287,-0.0193 0.0032,-0.0048 0.0048,-0.0097 0.0032,-0.0064 0.008,-0.01126 0.0032,-0.0048 0.0048,-0.0097 0.0032,-0.0064 0.008,-0.01126 0.0032,-0.008 0.0097,-0.02091 0.0032,-0.0048 0.0048,-0.01126 0.0032,-0.0064 0.008,-0.01287 0.0032,-0.0048 0.0048,-0.0097 0.0032,-0.0064 0.008,-0.01287 0.0016,-0.0048 0.0032,-0.01126 0.0032,-0.0064 0.0064,-0.01287 0.0048,-0.008 0.01126,-0.02413 0.01609,-0.04021 0.01126,-0.02574 0.0016,-0.0048 0.0032,-0.01126 0.0032,-0.008 0.0064,-0.01448 0.0016,-0.0064 0.0032,-0.01287 0.0032,-0.0064 0.0064,-0.01448 0.0048,-0.01448 0.008,-0.02574 0.0016,-0.0064 0.0032,-0.01287 0.0032,-0.0064 0.0064,-0.01448 -0.0064,0.01609 0.008,-0.02735 0.0032,-0.008 0.0097,-0.02735 0,-0.0064 0.0016,-0.01287 0.0032,-0.008 0.0048,-0.01609 0.0016,-0.0064 0.0032,-0.01287 0.0016,-0.008 0.0048,-0.01609 0,-0.0048 0.0016,-0.01126 0.0032,-0.008 0.0048,-0.01609 0.0016,-0.01126 0.0048,-0.03056 0,-0.0064 0.0016,-0.01287 0.0032,-0.008 0.0048,-0.01609 0,-0.0064 0.0016,-0.01287 0.0016,-0.008 0.0032,-0.01609 0.0016,-0.01126 0.0048,-0.03056 0,-0.0064 0.0016,-0.01448 0.0032,-0.008 0.0048,-0.01609 0,-0.01126 0.0032,-0.03056 0,-0.0064 0,-0.01287 0.0016,-0.008 0.0032,-0.01769 0.0032,-0.0193 0.0032,-0.03056 0.0016,-0.01126 0.0016,-0.03056 0.0016,-0.01126 0.0016,-0.03217 0.0016,-0.01126 0.0016,-0.03056 0,-0.008 0,-0.01448 0.0016,-0.008 0.0032,-0.01769 0,-0.0064 0,-0.01287 0.0016,-0.008 0.0016,-0.01769 0,-0.0064 0,-0.01448 0,-0.008 0,-0.01609 0,-0.008 0,-0.01448 0,-0.008 0,-0.01609 0,-0.008 -0.0016,-0.01448 0,-0.008 0,-0.01769 0,-0.0064 0,-0.01448 0,-0.008 0,-0.01609 0,-0.0097 -0.0032,-0.03217 0,-0.0193 -0.0016,-0.02895 0,-0.01126 -0.0032,-0.03378 0,-0.0193 -0.0016,-0.02895 0,-0.01126 -0.0032,-0.03056 -0.0016,-0.0064 -0.0032,-0.01448 0,-0.008 0,-0.01609 -0.0032,-0.0193 -0.0064,-0.03056 -0.0016,-0.0064 -0.0032,-0.01287 -0.0016,-0.008 -0.0016,-0.01609 -0.0016,-0.01126 -0.0048,-0.03056 -0.0016,-0.01126 -0.0048,-0.03056 -0.0064,-0.0193 -0.008,-0.02895 -0.0032,-0.0193 -0.0048,-0.02735 -0.0032,-0.0064 -0.0048,-0.01287 -0.0016,-0.008 -0.0032,-0.01609 -0.0016,-0.0064 -0.0048,-0.01287 -0.0032,-0.008 -0.0032,-0.01608 -0.01448,-0.04343 -0.008,-0.02735 -0.0032,-0.01126 -0.008,-0.02735 -0.0032,-0.0048 -0.0064,-0.01126 -0.0016,-0.008 -0.0032,-0.01448 -0.0016,-0.0048 -0.0097,-0.02735 -0.0064,-0.01609 -0.0097,-0.02574 -0.0032,-0.0048 -0.0064,-0.01126 -0.0016,-0.008 -0.0032,-0.01448 -0.0032,-0.0048 -0.0064,-0.01126 -0.0032,-0.0064 -0.0048,-0.01287 -0.0064,-0.01609 -0.01126,-0.02413 -0.0064,-0.01609 -0.0097,-0.02252 -0.0064,-0.01609 -0.01126,-0.02413 -0.0032,-0.0048 -0.0064,-0.0097 -0.0032,-0.0064 -0.0048,-0.01126 -0.0097,-0.01609 -0.01287,-0.02252 -0.01448,-0.02252 -0.01287,-0.02091 -0.0048,-0.0048 -0.008,-0.0097 -0.0016,-0.0064 -0.0048,-0.01126 -0.0032,-0.0064 -0.01287,-0.0193 -0.0032,-0.0048 -0.0064,-0.0097 -0.0032,-0.0048 -0.0048,-0.0097 -0.008,-0.01448 -0.02734,-0.037 -0.0032,-0.0032 -0.02574,-0.03539 -0.0193,-0.02252 -0.02895,-0.03217 -0.0097,-0.01126 -0.02895,-0.03056 -0.01287,-0.01448 -0.02734,-0.02735 -0.01126,-0.008 -0.03056,-0.02413 -0.01608,-0.01287 -0.03056,-0.02413 -0.037,-0.02413 -0.03056,-0.02091 -0.03217,-0.0193 -0.02895,-0.01769 0,0 -0.02895,-0.01448 -0.0064,-0.0032 -0.03056,-0.01126 -0.02091,-0.008 -0.03056,-0.01126 -0.008,-0.0016 -0.01448,-0.0032 -0.0064,-0.0032 -0.01287,-0.0064 -0.02895,-0.0048 -0.02895,-0.0048 -0.0097,-0.0016 -0.02895,-0.0016 -0.0048,0 -0.008,0 -0.0032,0 -0.0064,0 h -0.530823 v 2.387095 0 z"
         style="text-align:center;text-anchor:middle;stroke-width:0.184893"
         id="path1088" />
      <path
         d="m 62.781863,15.150254 h 0.03056 q 0.205895,0.01448 0.379619,0.0933 0.332971,0.156029 0.471307,0.513129 0.138335,0.357099 -0.0032,0.696504 -0.114208,0.268628 -0.337797,0.421441 -0.223589,0.151204 -0.509912,0.168898 l -0.03056,0.0016 h -0.781758 v 1.172636 q -0.02895,0.226807 -0.228415,0.226807 -0.19946,0 -0.226806,-0.226807 v -2.842316 q 0.02413,-0.199461 0.212329,-0.225198 h 0.01448 z m 0,0.453613 h -0.781758 v 0.986044 h 0.781758 q 0.183375,0 0.323319,-0.12225 0.141553,-0.12225 0.165681,-0.305626 0.02895,-0.22198 -0.119033,-0.38927 -0.147987,-0.168898 -0.369967,-0.168898 z"
         style="text-align:center;text-anchor:middle;stroke-width:0.184893"
         id="path1090" />
      <path
         d="m 65.003277,18.219377 v -2.61551 h -0.59034 q -0.225197,-0.01769 -0.225197,-0.225198 0.0016,-0.209112 0.225197,-0.228415 h 1.632683 q 0.221981,0.01769 0.221981,0.228415 0.0016,0.209112 -0.221981,0.225198 h -0.588731 v 2.61551 q -0.037,0.228415 -0.238066,0.225198 -0.19946,-0.0032 -0.215546,-0.225198 z"
         style="text-align:center;text-anchor:middle;stroke-width:0.184893"
         id="path1092" />
    </g>
    <g
       aria-label="LEFT
HDPT"
       transform="scale(1.0390047,0.96245955)"
       id="text987-8"
       style="font-size:3.29433px;line-height:1.25;font-family:'MS 33558';-inkscape-font-specification:'MS 33558, Normal';stroke-width:0.184893">
      <path
         d="m 26.025022,14.328271 q -0.197853,-0.01287 -0.228416,-0.22359 v -2.843933 q 0.03378,-0.231633 0.23485,-0.226807 0.20107,0.0032 0.218764,0.226807 v 2.618735 l 1.4847,-0.0016 q 0.228416,0.02574 0.225199,0.231633 -0.0016,0.204287 -0.226807,0.218764 z"
         style="stroke-width:0.184893"
         id="path1095" />
      <path
         d="m 30.204059,11.48112 h -1.333496 v 0.879882 h 1.01661 q 0.228415,0.03378 0.226807,0.230024 0,0.194636 -0.226807,0.226807 h -1.01661 v 1.056824 h 1.333496 q 0.226807,0.03378 0.226807,0.226807 0,0.193027 -0.226807,0.225198 h -1.557085 q -0.20107,-0.02574 -0.228416,-0.228415 v -2.840716 q 0.03056,-0.21233 0.228416,-0.225199 h 1.557085 q 0.226807,0.01769 0.225199,0.226807 0,0.207504 -0.225199,0.221981 z"
         style="stroke-width:0.184893"
         id="path1097" />
      <path
         d="m 30.878046,14.098247 v -2.837499 q 0.02895,-0.21233 0.228415,-0.228416 h 1.557086 q 0.223589,0.01769 0.223589,0.228416 0,0.209112 -0.226807,0.223589 h -1.330278 v 0.879882 h 1.037521 q 0.221981,0.01609 0.225198,0.217156 0.0032,0.20107 -0.225198,0.23485 h -1.037521 v 1.282022 q -0.01609,0.221981 -0.218764,0.225198 -0.20107,0.0032 -0.233241,-0.225198 z"
         style="stroke-width:0.184893"
         id="path1099" />
      <path
         d="m 34.153073,14.101464 v -2.615518 h -0.590342 q -0.225198,-0.01769 -0.225198,-0.225198 0.0016,-0.209113 0.225198,-0.228416 h 1.632688 q 0.221981,0.01769 0.221981,0.228416 0.0016,0.209112 -0.221981,0.225198 h -0.588733 v 2.615518 q -0.037,0.228415 -0.238066,0.225198 -0.199462,-0.0032 -0.215547,-0.225198 z"
         style="stroke-width:0.184893"
         id="path1101" />
      <path
         d="M 25.796606,18.222593 V 15.37866 q 0.03378,-0.231633 0.23485,-0.226807 0.20107,0.0032 0.218764,0.226807 v 1.063258 h 1.29489 V 15.37866 q 0.03378,-0.226807 0.226807,-0.226807 0.194636,-0.0016 0.230024,0.226807 v 2.843933 q -0.03539,0.226807 -0.230024,0.225199 -0.193027,0 -0.226807,-0.225199 v -1.323844 h -1.29489 v 1.323844 q -0.01769,0.221981 -0.218764,0.225199 -0.20107,0.0032 -0.23485,-0.225199 z"
         style="stroke-width:0.184893"
         id="path1103" />
      <path
         d="m 28.664668,15.150245 h 0.757631 q 0.564605,0 0.846103,0.514739 0.281497,0.514739 0.281497,1.132425 0,0.617687 -0.283106,1.132426 -0.281498,0.514739 -0.844494,0.514739 h -0.757631 0.0032 -0.0032 q -0.05308,-0.008 -0.05791,-0.0097 -0.167291,-0.04021 -0.165682,-0.218764 h -0.0016 l 0.0016,-2.840716 q -0.0016,-0.0048 -0.0016,-0.01287 0.0048,-0.08847 0.06917,-0.149596 0.06595,-0.06273 0.157639,-0.06273 z m 0.757631,2.840716 q 0.0032,0 0.0064,0 0.0032,0 0.008,0 0.0032,0 0.0048,0 0.0032,-0.0016 0.008,-0.0016 0.0032,0 0.0064,0 0.0048,-0.0016 0.0097,-0.0016 0.0032,0 0.0064,0 0.0032,-0.0016 0.008,-0.0016 0.0032,0 0.0064,0 0.0032,-0.0016 0.008,-0.0016 0.0064,-0.0032 0.01287,-0.0032 0.0032,0 0.0064,-0.0016 0.0032,-0.0032 0.008,-0.0048 0.0032,0 0.0064,0 0.0048,-0.0016 0.0097,-0.0032 0.0032,0 0.0064,-0.0016 0.0032,-0.0016 0.008,-0.0032 0.0097,-0.0032 0.01448,-0.0064 0.02895,-0.0097 0.01609,-0.0064 0.0032,0 0.0064,-0.0016 0.0032,-0.0032 0.008,-0.0048 0.01448,-0.0097 0.01287,-0.008 0.01609,-0.008 0.01609,-0.008 0.0032,-0.0016 0.0064,-0.0032 0.0032,-0.0032 0.008,-0.0064 0.01448,-0.0097 0.01448,-0.0097 0.0032,-0.0016 0.0064,-0.0032 0.0048,-0.0032 0.0097,-0.0064 0.0032,-0.0016 0.0064,-0.0048 0.0032,-0.0032 0.008,-0.0064 0.0032,-0.0016 0.0064,-0.0032 0.0032,-0.0032 0.008,-0.0064 0.0032,-0.0032 0.01609,-0.01287 0.01287,-0.01287 0.01287,-0.01287 0.0032,-0.0032 0.0064,-0.0064 0.0032,-0.0032 0.008,-0.008 0.0032,-0.0032 0.0064,-0.0064 0.0032,-0.0032 0.008,-0.008 0.0048,-0.0032 0.01448,-0.01287 0.0032,-0.0032 0.0064,-0.0064 0.0032,-0.0032 0.008,-0.008 0.0032,-0.0032 0.0064,-0.0064 0.0032,-0.0048 0.008,-0.0097 0.0193,-0.02574 0.01287,-0.01609 0.01126,-0.01126 0.01448,-0.01769 0.01448,-0.0193 0.01287,-0.01769 0.0032,-0.0048 0.0064,-0.008 0.0032,-0.0048 0.008,-0.0097 0.0032,-0.0048 0.0048,-0.0097 0.0032,-0.0048 0.008,-0.0097 0.0016,-0.0048 0.0048,-0.0097 0.0048,-0.0064 0.008,-0.01126 0.0097,-0.01287 0.01287,-0.0193 0.0032,-0.0048 0.0048,-0.0097 0.0032,-0.0064 0.008,-0.01126 0.0032,-0.0048 0.0048,-0.0097 0.0032,-0.0064 0.008,-0.01126 0.0032,-0.008 0.0097,-0.02091 0.0032,-0.0048 0.0048,-0.01126 0.0032,-0.0064 0.008,-0.01287 0.0032,-0.0048 0.0048,-0.0097 0.0032,-0.0064 0.008,-0.01287 0.0016,-0.0048 0.0032,-0.01126 0.0032,-0.0064 0.0064,-0.01287 0.0048,-0.008 0.01126,-0.02413 0.01609,-0.04021 0.01126,-0.02574 0.0016,-0.0048 0.0032,-0.01126 0.0032,-0.008 0.0064,-0.01448 0.0016,-0.0064 0.0032,-0.01287 0.0032,-0.0064 0.0064,-0.01448 0.0048,-0.01448 0.008,-0.02574 0.0016,-0.0064 0.0032,-0.01287 0.0032,-0.0064 0.0064,-0.01448 -0.0064,0.01609 0.008,-0.02735 0.0032,-0.008 0.0097,-0.02735 0,-0.0064 0.0016,-0.01287 0.0032,-0.008 0.0048,-0.01609 0.0016,-0.0064 0.0032,-0.01287 0.0016,-0.008 0.0048,-0.01609 0,-0.0048 0.0016,-0.01126 0.0032,-0.008 0.0048,-0.01609 0.0016,-0.01126 0.0048,-0.03056 0,-0.0064 0.0016,-0.01287 0.0032,-0.008 0.0048,-0.01609 0,-0.0064 0.0016,-0.01287 0.0016,-0.008 0.0032,-0.01609 0.0016,-0.01126 0.0048,-0.03056 0,-0.0064 0.0016,-0.01448 0.0032,-0.008 0.0048,-0.01609 0,-0.01126 0.0032,-0.03056 0,-0.0064 0,-0.01287 0.0016,-0.008 0.0032,-0.01769 0.0032,-0.0193 0.0032,-0.03056 0.0016,-0.01126 0.0016,-0.03056 0.0016,-0.01126 0.0016,-0.03217 0.0016,-0.01126 0.0016,-0.03056 0,-0.008 0,-0.01448 0.0016,-0.008 0.0032,-0.01769 0,-0.0064 0,-0.01287 0.0016,-0.008 0.0016,-0.01769 0,-0.0064 0,-0.01448 0,-0.008 0,-0.01609 0,-0.008 0,-0.01448 0,-0.008 0,-0.01609 0,-0.008 -0.0016,-0.01448 0,-0.008 0,-0.01769 0,-0.0064 0,-0.01448 0,-0.008 0,-0.01609 0,-0.0097 -0.0032,-0.03217 0,-0.0193 -0.0016,-0.02895 0,-0.01126 -0.0032,-0.03378 0,-0.0193 -0.0016,-0.02895 0,-0.01126 -0.0032,-0.03056 -0.0016,-0.0064 -0.0032,-0.01448 0,-0.008 0,-0.01609 -0.0032,-0.0193 -0.0064,-0.03056 -0.0016,-0.0064 -0.0032,-0.01287 -0.0016,-0.008 -0.0016,-0.01609 -0.0016,-0.01126 -0.0048,-0.03056 -0.0016,-0.01126 -0.0048,-0.03056 -0.0064,-0.0193 -0.008,-0.02895 -0.0032,-0.0193 -0.0048,-0.02735 -0.0032,-0.0064 -0.0048,-0.01287 -0.0016,-0.008 -0.0032,-0.01609 -0.0016,-0.0064 -0.0048,-0.01287 -0.0032,-0.008 -0.0032,-0.01609 -0.01448,-0.04343 -0.008,-0.02735 -0.0032,-0.01126 -0.008,-0.02735 -0.0032,-0.0048 -0.0064,-0.01126 -0.0016,-0.008 -0.0032,-0.01448 -0.0016,-0.0048 -0.0097,-0.02735 -0.0064,-0.01609 -0.0097,-0.02574 -0.0032,-0.0048 -0.0064,-0.01126 -0.0016,-0.008 -0.0032,-0.01448 -0.0032,-0.0048 -0.0064,-0.01126 -0.0032,-0.0064 -0.0048,-0.01287 -0.0064,-0.01609 -0.01126,-0.02413 -0.0064,-0.01609 -0.0097,-0.02252 -0.0064,-0.01609 -0.01126,-0.02413 -0.0032,-0.0048 -0.0064,-0.0097 -0.0032,-0.0064 -0.0048,-0.01126 -0.0097,-0.01609 -0.01287,-0.02252 -0.01448,-0.02252 -0.01287,-0.02091 -0.0048,-0.0048 -0.008,-0.0097 -0.0016,-0.0064 -0.0048,-0.01126 -0.0032,-0.0064 -0.01287,-0.0193 -0.0032,-0.0048 -0.0064,-0.0097 -0.0032,-0.0048 -0.0048,-0.0097 -0.008,-0.01448 -0.02735,-0.037 -0.0032,-0.0032 -0.02574,-0.03539 -0.0193,-0.02252 -0.02895,-0.03217 -0.0097,-0.01126 -0.02895,-0.03056 -0.01287,-0.01448 -0.02735,-0.02735 -0.01126,-0.008 -0.03056,-0.02413 -0.01609,-0.01287 -0.03056,-0.02413 -0.037,-0.02413 -0.03056,-0.02091 -0.03217,-0.0193 -0.02895,-0.01769 0,0 -0.02895,-0.01448 -0.0064,-0.0032 -0.03056,-0.01126 -0.02091,-0.008 -0.03056,-0.01126 -0.008,-0.0016 -0.01448,-0.0032 -0.0064,-0.0032 -0.01287,-0.0064 -0.02895,-0.0048 -0.02895,-0.0048 -0.0097,-0.0016 -0.02895,-0.0016 -0.0048,0 -0.008,0 -0.0032,0 -0.0064,0 h -0.530824 v 2.387103 0 z"
         style="stroke-width:0.184893"
         id="path1105" />
      <path
         d="m 32.197064,15.150245 h 0.03056 q 0.205896,0.01448 0.37962,0.0933 0.332972,0.15603 0.471308,0.51313 0.138336,0.357101 -0.0032,0.696507 -0.114208,0.268629 -0.337798,0.421442 -0.223589,0.151205 -0.509913,0.168899 l -0.03056,0.0016 h -0.78176 v 1.17264 q -0.02895,0.226806 -0.228415,0.226806 -0.199461,0 -0.226807,-0.226806 v -2.842325 q 0.02413,-0.199462 0.21233,-0.225198 h 0.01448 z m 0,0.453613 h -0.78176 v 0.986047 h 0.78176 q 0.183376,0 0.323321,-0.12225 0.141553,-0.122251 0.165681,-0.305627 0.02895,-0.221981 -0.119033,-0.389271 -0.147987,-0.168899 -0.369969,-0.168899 z"
         style="stroke-width:0.184893"
         id="path1107" />
      <path
         d="m 34.418485,18.219376 v -2.615518 h -0.590341 q -0.225199,-0.01769 -0.225199,-0.225198 0.0016,-0.209113 0.225199,-0.228415 h 1.632688 q 0.221981,0.01769 0.221981,0.228415 0.0016,0.209113 -0.221981,0.225198 h -0.588733 v 2.615518 q -0.037,0.228416 -0.238067,0.225198 -0.199461,-0.0032 -0.215547,-0.225198 z"
         style="stroke-width:0.184893"
         id="path1109" />
    </g>
    <g
       aria-label="fcr"
       id="text1014"
       style="font-size:3.29433px;line-height:1.25;font-family:'MS 33558';-inkscape-font-specification:'MS 33558, Normal';stroke-width:0.264583">
      <path
         d="m 92.078766,17.522237 v -2.837499 q 0.02895,-0.21233 0.228415,-0.228416 h 1.557086 q 0.22359,0.01769 0.22359,0.228416 0,0.209113 -0.226807,0.22359 h -1.330279 v 0.879882 h 1.037521 q 0.221981,0.01609 0.225198,0.217155 0.0032,0.20107 -0.225198,0.23485 h -1.037521 v 1.282022 q -0.01609,0.221981 -0.218764,0.225198 -0.20107,0.0032 -0.233241,-0.225198 z"
         style="stroke-width:0.264583"
         id="path1112" />
      <path
         d="m 96.610078,17.235913 -0.01448,0.02091 q -0.0048,0.0064 -0.008,0.01126 -0.0032,0.0048 -0.0064,0.0097 -0.220373,0.297583 -0.579082,0.42466 -0.3571,0.125467 -0.704549,-0.04665 -0.403748,-0.20107 -0.593558,-0.682029 -0.188202,-0.480959 -0.162465,-0.998915 0.02735,-0.519565 0.273456,-0.953876 0.247718,-0.434311 0.717417,-0.543693 0.270238,-0.06273 0.538868,0.05308 0.268629,0.114208 0.440745,0.321712 0.0016,0 0.008,0.01126 0.07399,0.09651 0.03056,0.21233 -0.04343,0.114208 -0.159247,0.143162 -0.123859,0.03217 -0.228416,-0.07399 -0.215547,-0.250935 -0.415008,-0.241284 -0.199461,0.0097 -0.3571,0.164073 -0.157639,0.154422 -0.262195,0.395706 -0.104557,0.241284 -0.128685,0.452005 -0.02895,0.23485 0.0048,0.472916 0.03539,0.236459 0.146378,0.445571 0.193028,0.366752 0.485785,0.460048 0.294367,0.09169 0.574256,-0.281498 0.01287,-0.01608 0.03056,-0.04182 0.151204,-0.16729 0.318495,-0.03378 0.168898,0.131902 0.04986,0.299192 z"
         style="stroke-width:0.264583"
         id="path1114" />
      <path
         d="m 99.090477,17.401595 q 0.102947,0.181767 -0.05791,0.305626 -0.07721,0.05469 -0.178551,0.037 -0.09973,-0.01769 -0.146378,-0.09973 L 97.91462,16.39142 h -0.40214 v 1.132425 q 0,0.139945 -0.127076,0.202679 -0.127077,0.06112 -0.238067,-0.02413 -0.08847,-0.06595 -0.08847,-0.178551 v -2.842324 q 0,-0.0933 0.06434,-0.159248 0.06595,-0.06595 0.160856,-0.06595 h 0.998916 q 0.360317,0 0.625729,0.230024 0.265413,0.228416 0.329755,0.58069 0.06756,0.378012 -0.160856,0.707767 -0.226807,0.328146 -0.60321,0.398922 l -0.03056,0.0048 z M 98.28298,15.939414 q 0.164073,0 0.302409,-0.09973 0.139945,-0.09973 0.188201,-0.260587 0.0756,-0.247718 -0.06917,-0.44718 -0.14477,-0.20107 -0.398922,-0.221981 h -0.79302 v 1.029478 z"
         style="stroke-width:0.264583"
         id="path1116" />
    </g>
    <g
       aria-label="rdr
alt"
       id="text1018"
       style="font-size:3.29433px;line-height:1.25;font-family:'MS 33558';-inkscape-font-specification:'MS 33558, Normal';text-align:center;text-anchor:middle;stroke-width:0.264583">
      <path
         d="m 126.27626,13.281688 q 0.10295,0.181768 -0.0579,0.305627 -0.0772,0.05469 -0.17855,0.037 -0.0997,-0.01769 -0.14638,-0.09973 l -0.79302,-1.253068 h -0.40214 v 1.132426 q 0,0.139945 -0.12707,0.202678 -0.12708,0.06113 -0.23807,-0.02413 -0.0885,-0.06595 -0.0885,-0.17855 v -2.842325 q 0,-0.0933 0.0643,-0.159247 0.066,-0.06595 0.16086,-0.06595 h 0.99891 q 0.36032,0 0.62573,0.230024 0.26541,0.228415 0.32976,0.58069 0.0676,0.378011 -0.16086,0.707766 -0.22681,0.328146 -0.60321,0.398923 l -0.0306,0.0048 z m -0.8075,-1.46218 q 0.16408,0 0.30241,-0.09973 0.13995,-0.09973 0.1882,-0.260586 0.0756,-0.247719 -0.0692,-0.44718 -0.14478,-0.20107 -0.39893,-0.221981 h -0.79302 v 1.029478 z"
         style="text-align:center;text-anchor:middle;stroke-width:0.264583"
         id="path1119" />
      <path
         d="m 127.0918,10.336416 h 0.75763 q 0.56461,0 0.8461,0.514739 0.2815,0.514739 0.2815,1.132426 0,0.617687 -0.28311,1.132426 -0.28149,0.514739 -0.84449,0.514739 h -0.75763 0.003 -0.003 q -0.0531,-0.008 -0.0579,-0.0097 -0.16729,-0.04021 -0.16568,-0.218765 h -0.002 l 0.002,-2.840716 q -0.002,-0.0048 -0.002,-0.01287 0.005,-0.08847 0.0692,-0.149596 0.066,-0.06273 0.15764,-0.06273 z m 0.75763,2.840716 q 0.003,0 0.006,0 0.003,0 0.008,0 0.003,0 0.005,0 0.003,-0.0016 0.008,-0.0016 0.003,0 0.006,0 0.005,-0.0016 0.01,-0.0016 0.003,0 0.006,0 0.003,-0.0016 0.008,-0.0016 0.003,0 0.006,0 0.003,-0.0016 0.008,-0.0016 0.006,-0.0032 0.0129,-0.0032 0.003,0 0.006,-0.0016 0.003,-0.0032 0.008,-0.0048 0.003,0 0.006,0 0.005,-0.0016 0.01,-0.0032 0.003,0 0.006,-0.0016 0.003,-0.0016 0.008,-0.0032 0.01,-0.0032 0.0145,-0.0064 0.029,-0.0097 0.0161,-0.0064 0.003,0 0.006,-0.0016 0.003,-0.0032 0.008,-0.0048 0.0145,-0.0097 0.0129,-0.008 0.0161,-0.008 0.0161,-0.008 0.003,-0.0016 0.006,-0.0032 0.003,-0.0032 0.008,-0.0064 0.0145,-0.0097 0.0145,-0.0097 0.003,-0.0016 0.006,-0.0032 0.005,-0.0032 0.01,-0.0064 0.003,-0.0016 0.006,-0.0048 0.003,-0.0032 0.008,-0.0064 0.003,-0.0016 0.006,-0.0032 0.003,-0.0032 0.008,-0.0064 0.003,-0.0032 0.0161,-0.01287 0.0129,-0.01287 0.0129,-0.01287 0.003,-0.0032 0.006,-0.0064 0.003,-0.0032 0.008,-0.008 0.003,-0.0032 0.006,-0.0064 0.003,-0.0032 0.008,-0.008 0.005,-0.0032 0.0145,-0.01287 0.003,-0.0032 0.006,-0.0064 0.003,-0.0032 0.008,-0.008 0.003,-0.0032 0.006,-0.0064 0.003,-0.0048 0.008,-0.0097 0.0193,-0.02574 0.0129,-0.01609 0.0113,-0.01126 0.0145,-0.01769 0.0145,-0.0193 0.0129,-0.01769 0.003,-0.0048 0.006,-0.008 0.003,-0.0048 0.008,-0.0097 0.003,-0.0048 0.005,-0.0097 0.003,-0.0048 0.008,-0.0097 0.002,-0.0048 0.005,-0.0097 0.005,-0.0064 0.008,-0.01126 0.01,-0.01287 0.0129,-0.0193 0.003,-0.0048 0.005,-0.0097 0.003,-0.0064 0.008,-0.01126 0.003,-0.0048 0.005,-0.0097 0.003,-0.0064 0.008,-0.01126 0.003,-0.008 0.01,-0.02091 0.003,-0.0048 0.005,-0.01126 0.003,-0.0064 0.008,-0.01287 0.003,-0.0048 0.005,-0.0097 0.003,-0.0064 0.008,-0.01287 0.002,-0.0048 0.003,-0.01126 0.003,-0.0064 0.006,-0.01287 0.005,-0.008 0.0113,-0.02413 0.0161,-0.04021 0.0113,-0.02574 0.002,-0.0048 0.003,-0.01126 0.003,-0.008 0.006,-0.01448 0.002,-0.0064 0.003,-0.01287 0.003,-0.0064 0.006,-0.01448 0.005,-0.01448 0.008,-0.02574 0.002,-0.0064 0.003,-0.01287 0.003,-0.0064 0.006,-0.01448 -0.006,0.01609 0.008,-0.02734 0.003,-0.008 0.01,-0.02735 0,-0.0064 0.002,-0.01287 0.003,-0.008 0.005,-0.01609 0.002,-0.0064 0.003,-0.01287 0.002,-0.008 0.005,-0.01609 0,-0.0048 0.002,-0.01126 0.003,-0.008 0.005,-0.01609 0.002,-0.01126 0.005,-0.03056 0,-0.0064 0.002,-0.01287 0.003,-0.008 0.005,-0.01609 0,-0.0064 0.002,-0.01287 0.002,-0.008 0.003,-0.01609 0.002,-0.01126 0.005,-0.03056 0,-0.0064 0.002,-0.01448 0.003,-0.008 0.005,-0.01608 0,-0.01126 0.003,-0.03056 0,-0.0064 0,-0.01287 0.002,-0.008 0.003,-0.0177 0.003,-0.0193 0.003,-0.03056 0.002,-0.01126 0.002,-0.03056 0.002,-0.01126 0.002,-0.03217 0.002,-0.01126 0.002,-0.03056 0,-0.008 0,-0.01448 0.002,-0.008 0.003,-0.01769 0,-0.0064 0,-0.01287 0.002,-0.008 0.002,-0.01769 0,-0.0064 0,-0.01448 0,-0.008 0,-0.01609 0,-0.008 0,-0.01448 0,-0.008 0,-0.01609 0,-0.008 -0.002,-0.01448 0,-0.008 0,-0.01769 0,-0.0064 0,-0.01448 0,-0.008 0,-0.01609 0,-0.0097 -0.003,-0.03217 0,-0.0193 -0.002,-0.02895 0,-0.01126 -0.003,-0.03378 0,-0.0193 -0.002,-0.02895 0,-0.01126 -0.003,-0.03056 -0.002,-0.0064 -0.003,-0.01448 0,-0.008 0,-0.01609 -0.003,-0.0193 -0.006,-0.03056 -0.002,-0.0064 -0.003,-0.01287 -0.002,-0.008 -0.002,-0.01609 -0.002,-0.01126 -0.005,-0.03056 -0.002,-0.01126 -0.005,-0.03056 -0.006,-0.0193 -0.008,-0.02895 -0.003,-0.0193 -0.005,-0.02735 -0.003,-0.0064 -0.005,-0.01287 -0.002,-0.008 -0.003,-0.01609 -0.002,-0.0064 -0.005,-0.01287 -0.003,-0.008 -0.003,-0.01609 -0.0145,-0.04343 -0.008,-0.02735 -0.003,-0.01126 -0.008,-0.02735 -0.003,-0.0048 -0.006,-0.01126 -0.002,-0.008 -0.003,-0.01448 -0.002,-0.0048 -0.01,-0.02735 -0.006,-0.01609 -0.01,-0.02574 -0.003,-0.0048 -0.006,-0.01126 -0.002,-0.008 -0.003,-0.01448 -0.003,-0.0048 -0.006,-0.01126 -0.003,-0.0064 -0.005,-0.01287 -0.006,-0.01609 -0.0113,-0.02413 -0.006,-0.01608 -0.01,-0.02252 -0.006,-0.01608 -0.0113,-0.02413 -0.003,-0.0048 -0.006,-0.0097 -0.003,-0.0064 -0.005,-0.01126 -0.01,-0.01609 -0.0129,-0.02252 -0.0145,-0.02252 -0.0129,-0.02091 -0.005,-0.0048 -0.008,-0.0097 -0.002,-0.0064 -0.005,-0.01126 -0.003,-0.0064 -0.0129,-0.0193 -0.003,-0.0048 -0.006,-0.0097 -0.003,-0.0048 -0.005,-0.0097 -0.008,-0.01448 -0.0273,-0.037 -0.003,-0.0032 -0.0257,-0.03539 -0.0193,-0.02252 -0.029,-0.03217 -0.01,-0.01126 -0.029,-0.03056 -0.0129,-0.01448 -0.0274,-0.02735 -0.0113,-0.008 -0.0306,-0.02413 -0.0161,-0.01287 -0.0306,-0.02413 -0.037,-0.02413 -0.0306,-0.02091 -0.0322,-0.0193 -0.0289,-0.01769 0,0 -0.029,-0.01448 -0.006,-0.0032 -0.0306,-0.01126 -0.0209,-0.008 -0.0306,-0.01126 -0.008,-0.0016 -0.0145,-0.0032 -0.006,-0.0032 -0.0129,-0.0064 -0.029,-0.0048 -0.029,-0.0048 -0.01,-0.0016 -0.0289,-0.0016 -0.005,0 -0.008,0 -0.003,0 -0.006,0 h -0.53082 v 2.387102 0 z"
         style="text-align:center;text-anchor:middle;stroke-width:0.264583"
         id="path1121" />
      <path
         d="m 131.41882,13.281688 q 0.10295,0.181768 -0.0579,0.305627 -0.0772,0.05469 -0.17855,0.037 -0.0997,-0.01769 -0.14638,-0.09973 l -0.79302,-1.253068 h -0.40214 v 1.132426 q 0,0.139945 -0.12708,0.202678 -0.12707,0.06113 -0.23807,-0.02413 -0.0885,-0.06595 -0.0885,-0.17855 v -2.842325 q 0,-0.0933 0.0643,-0.159247 0.0659,-0.06595 0.16085,-0.06595 h 0.99892 q 0.36031,0 0.62573,0.230024 0.26541,0.228415 0.32975,0.58069 0.0676,0.378011 -0.16085,0.707766 -0.22681,0.328146 -0.60321,0.398923 l -0.0306,0.0048 z m -0.80749,-1.46218 q 0.16407,0 0.30241,-0.09973 0.13994,-0.09973 0.1882,-0.260586 0.0756,-0.247719 -0.0692,-0.44718 -0.14477,-0.20107 -0.39892,-0.221981 h -0.79302 v 1.029478 z"
         style="text-align:center;text-anchor:middle;stroke-width:0.264583"
         id="path1123" />
      <path
         d="m 125.8701,16.691835 -0.489,-1.35119 -0.49222,1.35119 z m -0.489,-1.35119 0.489,1.35119 z m -1.24181,2.097561 q 0.25737,-0.709374 0.51474,-1.417141 0.25898,-0.709374 0.51795,-1.418749 0.0531,-0.146379 0.21072,-0.147988 0.15764,-0.0016 0.21233,0.147988 l 1.03109,2.843933 q 0.0483,0.226807 -0.13833,0.292758 -0.1866,0.06595 -0.28794,-0.135119 l -0.16568,-0.460048 h -1.31097 l -0.16086,0.448788 q -0.10295,0.202678 -0.29276,0.13351 -0.18981,-0.07078 -0.13029,-0.287932 z"
         style="text-align:center;text-anchor:middle;stroke-width:0.264583"
         id="path1125" />
      <path
         d="m 127.17142,17.750267 q -0.19785,-0.01287 -0.22841,-0.22359 v -2.843933 q 0.0338,-0.231633 0.23485,-0.226807 0.20107,0.0032 0.21876,0.226807 v 2.618735 l 1.4847,-0.0016 q 0.22842,0.02574 0.2252,0.231633 -0.002,0.204287 -0.22681,0.218764 z"
         style="text-align:center;text-anchor:middle;stroke-width:0.264583"
         id="path1127" />
      <path
         d="m 130.3805,17.52346 v -2.615518 h -0.59034 q -0.2252,-0.01769 -0.2252,-0.225198 0.002,-0.209113 0.2252,-0.228416 h 1.63269 q 0.22198,0.01769 0.22198,0.228416 0.002,0.209113 -0.22198,0.225198 h -0.58874 v 2.615518 q -0.037,0.228415 -0.23806,0.225198 -0.19947,-0.0032 -0.21555,-0.225198 z"
         style="text-align:center;text-anchor:middle;stroke-width:0.264583"
         id="path1129" />
    </g>
    <g
       aria-label="stby"
       id="text1024"
       style="font-size:3.29433px;line-height:1.25;font-family:'MS 33558';-inkscape-font-specification:'MS 33558, Normal';stroke-width:0.264583">
      <path
         d="m 137.79204,26.176339 0.0257,0.01126 0.029,0.01448 0.0257,0.01448 q 0.0113,0.008 0.0241,0.01609 0.0145,0.0064 0.0273,0.01448 0.3185,0.209113 0.3941,0.579082 0.029,0.14477 0.0129,0.297583 -0.0257,0.218764 -0.15443,0.405357 -0.12707,0.184984 -0.3201,0.286324 -0.2075,0.109382 -0.42948,0.109382 -0.37319,0 -0.7126,-0.09491 -0.3394,-0.09651 -0.48417,-0.513131 -0.0193,-0.05308 -0.029,-0.109382 -0.01,-0.0563 -0.0225,-0.112599 -0.0241,-0.115816 0.0563,-0.204287 0.082,-0.08847 0.20268,-0.06756 0.12708,0.02574 0.17694,0.157639 l 0.005,0.01448 q 0.0772,0.349058 0.26863,0.416617 0.19303,0.06756 0.53565,0.06113 0.31528,0 0.4327,-0.295975 0.0515,-0.131902 0.0161,-0.273456 -0.0354,-0.143161 -0.13995,-0.238066 -0.0466,-0.04021 -0.12225,-0.0756 l -0.74476,-0.326537 -0.0241,-0.01287 q -0.36514,-0.193027 -0.45361,-0.548518 -0.10778,-0.411792 0.14959,-0.738329 0.25898,-0.328146 0.67881,-0.328146 l 0.17695,0.0048 q 0.0869,0.01609 0.16729,0.03217 0.0804,0.01448 0.16246,0.05147 0.20268,0.09491 0.31045,0.260587 0.10778,0.165682 0.19464,0.358709 0.008,0.01769 0.0145,0.04182 0.0177,0.07882 -0.0161,0.143162 -0.0193,0.04021 -0.0402,0.06112 -0.0209,0.02091 -0.0338,0.02895 -0.0836,0.05952 -0.18338,0.03539 -0.0997,-0.02252 -0.15281,-0.128685 -0.0418,-0.0933 -0.0901,-0.18981 -0.0466,-0.09812 -0.1319,-0.162465 -0.0354,-0.02574 -0.0692,-0.037 -0.0322,-0.01287 -0.0724,-0.02735 l -0.10455,-0.01769 -0.14799,-0.0048 q -0.21555,0.0032 -0.32976,0.186593 -0.0772,0.117425 -0.0579,0.262195 0.0225,0.17855 0.16729,0.276673 0.006,0.0048 0.0145,0.01126 0.008,0.0048 0.0177,0.0097 l 0.0177,0.008 0.0193,0.008 z"
         style="stroke-width:0.264583"
         id="path1132" />
      <path
         d="m 139.55019,27.70447 v -2.615518 h -0.59034 q -0.2252,-0.01769 -0.2252,-0.225198 0.002,-0.209113 0.2252,-0.228415 h 1.63269 q 0.22198,0.01769 0.22198,0.228415 0.002,0.209113 -0.22198,0.225198 h -0.58873 v 2.615518 q -0.037,0.228416 -0.23807,0.225198 -0.19946,-0.0032 -0.21555,-0.225198 z"
         style="stroke-width:0.264583"
         id="path1134" />
      <path
         d="m 142.52281,24.635339 q 0.30563,0.02574 0.51313,0.184984 0.20912,0.159247 0.28954,0.384446 0.0804,0.223589 0.0209,0.477742 -0.0579,0.252544 -0.28311,0.464873 0.24772,0.260587 0.30884,0.562996 0.0611,0.30241 -0.0386,0.566213 -0.0981,0.262195 -0.34263,0.445571 -0.2445,0.183376 -0.60642,0.207504 h -0.005 -0.85575 q -0.19786,-0.02735 -0.22842,-0.223589 v -2.842325 q 0.0274,-0.199461 0.22842,-0.228415 z m -0.14316,2.839107 q 0.27346,-0.01126 0.41662,-0.176941 0.14316,-0.165682 0.14799,-0.366752 0.006,-0.202679 -0.12869,-0.37962 -0.13512,-0.176942 -0.41662,-0.213938 h -0.64825 v 1.137251 z m 0.14316,-2.382277 h -0.77211 v 0.79302 h 0.77694 q 0.19946,-0.02091 0.29597,-0.143162 0.0981,-0.123859 0.0949,-0.263803 -0.002,-0.141554 -0.10134,-0.25737 -0.0997,-0.117425 -0.29437,-0.128685 z"
         style="stroke-width:0.264583"
         id="path1136" />
      <path
         d="m 145.74315,24.752763 q 0.12547,-0.188201 0.30241,-0.09008 0.17855,0.09812 0.0917,0.307235 l -0.92493,1.651991 v 1.076126 q -0.0145,0.228415 -0.22519,0.228415 -0.20912,0 -0.22359,-0.228415 V 26.62191 l -0.92332,-1.651991 q -0.0853,-0.207504 0.0869,-0.304018 0.17211,-0.09812 0.30723,0.08686 l 0.75441,1.347973 z"
         style="stroke-width:0.264583"
         id="path1138" />
    </g>
    <g
       aria-label="off"
       id="text1028"
       style="font-size:3.29433px;line-height:1.25;font-family:'MS 33558';-inkscape-font-specification:'MS 33558, Normal';stroke-width:0.264583">
      <path
         d="m 30.502248,35.338117 q 0.147987,0.445571 0.11099,0.924922 -0.03539,0.47935 -0.262195,0.875056 -0.143162,0.24611 -0.39088,0.418225 -0.247718,0.172116 -0.54691,0.120642 -0.487394,-0.08525 -0.746372,-0.508304 -0.258978,-0.423052 -0.297583,-0.941008 -0.037,-0.519564 0.139944,-1.011784 0.178551,-0.492219 0.567822,-0.715809 0.18981,-0.109382 0.397314,-0.109382 0.395706,0 0.646641,0.299192 0.250935,0.297584 0.381229,0.64825 z m -1.015001,-0.490611 q -0.295975,0 -0.448788,0.318495 -0.151205,0.318495 -0.191419,0.543693 -0.03056,0.164073 -0.02252,0.397314 0.008,0.233241 0.06756,0.461657 0.05952,0.226807 0.17855,0.410183 0.119033,0.181767 0.31206,0.241283 0.225199,0.07078 0.387663,-0.08847 0.164073,-0.160856 0.247718,-0.341015 0.08525,-0.184984 0.115817,-0.485785 0.03217,-0.300801 -0.01448,-0.599993 -0.04504,-0.3008 -0.178551,-0.540476 -0.13351,-0.241283 -0.37962,-0.307234 -0.03217,-0.0097 -0.07399,-0.0097 z"
         style="stroke-width:0.264583"
         id="path1141" />
      <path
         d="m 31.045941,37.45659 v -2.837499 q 0.02895,-0.21233 0.228415,-0.228416 h 1.557086 q 0.22359,0.01769 0.22359,0.228416 0,0.209112 -0.226807,0.22359 h -1.330279 v 0.879882 h 1.037521 q 0.221981,0.01608 0.225198,0.217155 0.0032,0.20107 -0.225198,0.23485 h -1.037521 v 1.282022 q -0.01609,0.221981 -0.218764,0.225198 -0.20107,0.0032 -0.233241,-0.225198 z"
         style="stroke-width:0.264583"
         id="path1143" />
      <path
         d="m 33.505428,37.45659 v -2.837499 q 0.02895,-0.21233 0.228416,-0.228416 h 1.557085 q 0.22359,0.01769 0.22359,0.228416 0,0.209112 -0.226807,0.22359 h -1.330278 v 0.879882 h 1.03752 q 0.221982,0.01608 0.225199,0.217155 0.0032,0.20107 -0.225199,0.23485 h -1.03752 v 1.282022 q -0.01609,0.221981 -0.218765,0.225198 -0.201069,0.0032 -0.233241,-0.225198 z"
         style="stroke-width:0.264583"
         id="path1145" />
    </g>
    <g
       aria-label="off"
       id="text1028-8"
       style="font-size:3.29433px;line-height:1.25;font-family:'MS 33558';-inkscape-font-specification:'MS 33558, Normal';stroke-width:0.264583">
      <path
         d="m 62.280002,35.338117 q 0.147987,0.445571 0.11099,0.924922 -0.03539,0.47935 -0.262195,0.875056 -0.143162,0.24611 -0.39088,0.418225 -0.247718,0.172116 -0.54691,0.120642 -0.487394,-0.08525 -0.746372,-0.508304 -0.258978,-0.423052 -0.297583,-0.941008 -0.037,-0.519564 0.139944,-1.011784 0.17855,-0.492219 0.567822,-0.715809 0.18981,-0.109382 0.397314,-0.109382 0.395706,0 0.646641,0.299192 0.250935,0.297584 0.381229,0.64825 z M 61.265,34.847506 q -0.295974,0 -0.448788,0.318495 -0.151204,0.318495 -0.191418,0.543693 -0.03056,0.164073 -0.02252,0.397314 0.008,0.233241 0.06756,0.461657 0.05952,0.226807 0.178551,0.410183 0.119033,0.181767 0.31206,0.241283 0.225198,0.07078 0.387663,-0.08847 0.164073,-0.160856 0.247718,-0.341015 0.08525,-0.184984 0.115816,-0.485785 0.03217,-0.300801 -0.01448,-0.599993 -0.04504,-0.3008 -0.17855,-0.540476 -0.13351,-0.241283 -0.37962,-0.307234 -0.03217,-0.0097 -0.07399,-0.0097 z"
         style="stroke-width:0.264583"
         id="path1148" />
      <path
         d="m 62.823695,37.45659 v -2.837499 q 0.02895,-0.21233 0.228415,-0.228416 h 1.557086 q 0.22359,0.01769 0.22359,0.228416 0,0.209112 -0.226807,0.22359 H 63.2757 v 0.879882 h 1.037521 q 0.221981,0.01608 0.225198,0.217155 0.0032,0.20107 -0.225198,0.23485 H 63.2757 v 1.282022 q -0.01609,0.221981 -0.218764,0.225198 -0.20107,0.0032 -0.233241,-0.225198 z"
         style="stroke-width:0.264583"
         id="path1150" />
      <path
         d="m 65.283182,37.45659 v -2.837499 q 0.02895,-0.21233 0.228416,-0.228416 h 1.557085 q 0.22359,0.01769 0.22359,0.228416 0,0.209112 -0.226807,0.22359 h -1.330279 v 0.879882 h 1.037521 q 0.221981,0.01608 0.225199,0.217155 0.0032,0.20107 -0.225199,0.23485 h -1.037521 v 1.282022 q -0.01608,0.221981 -0.218764,0.225198 -0.20107,0.0032 -0.233241,-0.225198 z"
         style="stroke-width:0.264583"
         id="path1152" />
    </g>
    <g
       aria-label="off"
       id="text1054"
       style="font-size:3.29433px;line-height:1.25;font-family:'MS 33558';-inkscape-font-specification:'MS 33558, Normal';stroke-width:0.264583">
      <path
         d="m 94.229861,35.338117 q 0.147988,0.445571 0.110991,0.924922 -0.03539,0.47935 -0.262195,0.875056 -0.143162,0.24611 -0.39088,0.418225 -0.247719,0.172116 -0.546911,0.120642 -0.487393,-0.08525 -0.746371,-0.508304 -0.258978,-0.423052 -0.297584,-0.941008 -0.037,-0.519564 0.139945,-1.011784 0.17855,-0.492219 0.567821,-0.715809 0.18981,-0.109382 0.397315,-0.109382 0.395705,0 0.646641,0.299192 0.250935,0.297584 0.381228,0.64825 z M 93.21486,34.847506 q -0.295975,0 -0.448788,0.318495 -0.151205,0.318495 -0.191419,0.543693 -0.03056,0.164073 -0.02252,0.397314 0.008,0.233241 0.06756,0.461657 0.05952,0.226807 0.17855,0.410183 0.119034,0.181767 0.312061,0.241283 0.225198,0.07078 0.387663,-0.08847 0.164073,-0.160856 0.247718,-0.341015 0.08525,-0.184984 0.115816,-0.485785 0.03217,-0.300801 -0.01448,-0.599993 -0.04504,-0.3008 -0.17855,-0.540476 -0.133511,-0.241283 -0.37962,-0.307234 -0.03217,-0.0097 -0.07399,-0.0097 z"
         style="stroke-width:0.264583"
         id="path1155" />
      <path
         d="m 94.773554,37.45659 v -2.837499 q 0.02895,-0.21233 0.228416,-0.228416 h 1.557085 q 0.22359,0.01769 0.22359,0.228416 0,0.209112 -0.226807,0.22359 H 95.22556 v 0.879882 h 1.03752 q 0.221982,0.01608 0.225199,0.217155 0.0032,0.20107 -0.225199,0.23485 h -1.03752 v 1.282022 q -0.01609,0.221981 -0.218765,0.225198 -0.201069,0.0032 -0.233241,-0.225198 z"
         style="stroke-width:0.264583"
         id="path1157" />
      <path
         d="m 97.233042,37.45659 v -2.837499 q 0.02895,-0.21233 0.228415,-0.228416 h 1.557086 q 0.22359,0.01769 0.22359,0.228416 0,0.209112 -0.226807,0.22359 h -1.330279 v 0.879882 h 1.037521 q 0.221981,0.01608 0.225198,0.217155 0.0032,0.20107 -0.225198,0.23485 h -1.037521 v 1.282022 q -0.01609,0.221981 -0.218764,0.225198 -0.20107,0.0032 -0.233241,-0.225198 z"
         style="stroke-width:0.264583"
         id="path1159" />
    </g>
    <g
       aria-label="off"
       id="text1058"
       style="font-size:3.29433px;line-height:1.25;font-family:'MS 33558';-inkscape-font-specification:'MS 33558, Normal';stroke-width:0.264583">
      <path
         d="m 126.4485,35.338117 q 0.14798,0.445571 0.11099,0.924922 -0.0354,0.47935 -0.2622,0.875056 -0.14316,0.24611 -0.39088,0.418225 -0.24772,0.172116 -0.54691,0.120642 -0.48739,-0.08525 -0.74637,-0.508304 -0.25898,-0.423052 -0.29758,-0.941008 -0.037,-0.519564 0.13994,-1.011784 0.17855,-0.492219 0.56782,-0.715809 0.18981,-0.109382 0.39732,-0.109382 0.3957,0 0.64664,0.299192 0.25093,0.297584 0.38123,0.64825 z m -1.015,-0.490611 q -0.29598,0 -0.44879,0.318495 -0.15121,0.318495 -0.19142,0.543693 -0.0306,0.164073 -0.0225,0.397314 0.008,0.233241 0.0676,0.461657 0.0595,0.226807 0.17855,0.410183 0.11903,0.181767 0.31206,0.241283 0.2252,0.07078 0.38766,-0.08847 0.16408,-0.160856 0.24772,-0.341015 0.0853,-0.184984 0.11582,-0.485785 0.0322,-0.300801 -0.0145,-0.599993 -0.045,-0.3008 -0.17855,-0.540476 -0.13351,-0.241283 -0.37962,-0.307234 -0.0322,-0.0097 -0.074,-0.0097 z"
         style="stroke-width:0.264583"
         id="path1162" />
      <path
         d="m 126.99219,37.45659 v -2.837499 q 0.029,-0.21233 0.22842,-0.228416 h 1.55708 q 0.22359,0.01769 0.22359,0.228416 0,0.209112 -0.22681,0.22359 h -1.33027 v 0.879882 h 1.03752 q 0.22198,0.01608 0.22519,0.217155 0.003,0.20107 -0.22519,0.23485 h -1.03752 v 1.282022 q -0.0161,0.221981 -0.21877,0.225198 -0.20107,0.0032 -0.23324,-0.225198 z"
         style="stroke-width:0.264583"
         id="path1164" />
      <path
         d="m 129.45168,37.45659 v -2.837499 q 0.0289,-0.21233 0.22841,-0.228416 h 1.55709 q 0.22359,0.01769 0.22359,0.228416 0,0.209112 -0.22681,0.22359 h -1.33028 v 0.879882 h 1.03752 q 0.22198,0.01608 0.2252,0.217155 0.003,0.20107 -0.2252,0.23485 h -1.03752 v 1.282022 q -0.0161,0.221981 -0.21876,0.225198 -0.20107,0.0032 -0.23324,-0.225198 z"
         style="stroke-width:0.264583"
         id="path1166" />
    </g>
  </g>
</svg>
