999
dxfrw 0.6.3
  0
SECTION
  2
HEADER
  9
$ACADVER
  1
AC1021
  9
$DWGCODEPAGE
  3
ANSI_1252
  9
$INSBASE
 10
0
 20
0
 30
0
  9
$EXTMIN
 10
0
 20
-8.881784197001252e-016
 30
0
  9
$EXTMAX
 10
470
 20
195
 30
0
  9
$LIMMIN
 10
0
 20
0
  9
$LIMMAX
 10
420
 20
297
  9
$ORTHOMODE
 70
    0
  9
$REGENMODE
 70
    1
  9
$FILLMODE
 70
    1
  9
$QTEXTMODE
 70
    0
  9
$MIRRTEXT
 70
    0
  9
$LTSCALE
 40
1
  9
$ATTMODE
 70
    0
  9
$TEXTSIZE
 40
2.5
  9
$TRACEWID
 40
15.68
  9
$TEXTSTYLE
  7
STANDARD
  9
$CLAYER
  8
right_frame
  9
$CELTYPE
  6
BYLAYER
  9
$CECOLOR
 62
  256
  9
$CELTSCALE
 40
1
  9
$DISPSILH
 70
    0
  9
$DIMSCALE
 40
1
  9
$DIMASZ
 40
2.5
  9
$DIMEXO
 40
0.625
  9
$DIMDLI
 40
3.75
  9
$DIMRND
 40
0
  9
$DIMDLE
 40
0
  9
$DIMEXE
 40
1.25
  9
$DIMTP
 40
0
  9
$DIMTM
 40
0
  9
$DIMTXT
 40
2.5
  9
$DIMCEN
 40
2.5
  9
$DIMTSZ
 40
0
  9
$DIMTOL
 70
    0
  9
$DIMLIM
 70
    0
  9
$DIMTIH
 70
    0
  9
$DIMTOH
 70
    0
  9
$DIMSE1
 70
    0
  9
$DIMSE2
 70
    0
  9
$DIMTAD
 70
    1
  9
$DIMZIN
 70
    8
  9
$DIMBLK
  1

  9
$DIMASO
 70
    1
  9
$DIMSHO
 70
    1
  9
$DIMPOST
  1

  9
$DIMAPOST
  1

  9
$DIMALT
 70
    0
  9
$DIMALTD
 70
    3
  9
$DIMALTF
 40
0.03937
  9
$DIMLFAC
 40
1
  9
$DIMTOFL
 70
    1
  9
$DIMTVP
 40
0
  9
$DIMTIX
 70
    0
  9
$DIMSOXD
 70
    0
  9
$DIMSAH
 70
    0
  9
$DIMBLK1
  1

  9
$DIMBLK2
  1

  9
$DIMSTYLE
  2
STANDARD
  9
$DIMCLRD
 70
    0
  9
$DIMCLRE
 70
    0
  9
$DIMCLRT
 70
    0
  9
$DIMTFAC
 40
1
  9
$DIMGAP
 40
0.625
  9
$DIMJUST
 70
    0
  9
$DIMSD1
 70
    0
  9
$DIMSD2
 70
    0
  9
$DIMTOLJ
 70
    0
  9
$DIMTZIN
 70
    8
  9
$DIMALTZ
 70
    0
  9
$DIMALTTZ
 70
    0
  9
$DIMUPT
 70
    0
  9
$DIMDEC
 70
    2
  9
$DIMTDEC
 70
    2
  9
$DIMALTU
 70
    2
  9
$DIMALTTD
 70
    3
  9
$DIMTXSTY
  7
STANDARD
  9
$DIMAUNIT
 70
    0
  9
$DIMADEC
 70
    0
  9
$DIMALTRND
 40
0
  9
$DIMAZIN
 70
    0
  9
$DIMDSEP
 70
   44
  9
$DIMATFIT
 70
    3
  9
$DIMFRAC
 70
    0
  9
$DIMLDRBLK
  1
STANDARD
  9
$DIMLUNIT
 70
    2
  9
$DIMLWD
 70
   -2
  9
$DIMLWE
 70
   -2
  9
$DIMTMOVE
 70
    0
  9
$DIMFXL
 40
1
  9
$DIMFXLON
 70
    0
  9
$DIMJOGANG
 40
0.7854
  9
$DIMTFILL
 70
    0
  9
$DIMTFILLCLR
 70
    0
  9
$DIMARCSYM
 70
    0
  9
$DIMLTYPE
  6

  9
$DIMLTEX1
  6

  9
$DIMLTEX2
  6

  9
$LUNITS
 70
    2
  9
$LUPREC
 70
    4
  9
$SKETCHINC
 40
1
  9
$FILLETRAD
 40
0
  9
$AUNITS
 70
    0
  9
$AUPREC
 70
    2
  9
$MENU
  1
.
  9
$ELEVATION
 40
0
  9
$PELEVATION
 40
0
  9
$THICKNESS
 40
0
  9
$LIMCHECK
 70
    0
  9
$CHAMFERA
 40
0
  9
$CHAMFERB
 40
0
  9
$CHAMFERC
 40
0
  9
$CHAMFERD
 40
0
  9
$SKPOLY
 70
    0
  9
$USRTIMER
 70
    1
  9
$ANGBASE
 50
0
  9
$ANGDIR
 70
    0
  9
$PDMODE
 70
   34
  9
$PDSIZE
 40
0
  9
$PLINEWID
 40
0
  9
$SPLFRAME
 70
    0
  9
$SPLINETYPE
 70
    2
  9
$SPLINESEGS
 70
    8
  9
$HANDSEED
  5
20000
  9
$SURFTAB1
 70
    6
  9
$SURFTAB2
 70
    6
  9
$SURFTYPE
 70
    6
  9
$SURFU
 70
    6
  9
$SURFV
 70
    6
  9
$UCSBASE
  2

  9
$UCSNAME
  2

  9
$UCSORG
 10
0
 20
0
 30
0
  9
$UCSXDIR
 10
1
 20
0
 30
0
  9
$UCSYDIR
 10
0
 20
1
 30
0
  9
$UCSORTHOREF
  2

  9
$UCSORTHOVIEW
 70
    0
  9
$UCSORGTOP
 10
0
 20
0
 30
0
  9
$UCSORGBOTTOM
 10
0
 20
0
 30
0
  9
$UCSORGLEFT
 10
0
 20
0
 30
0
  9
$UCSORGRIGHT
 10
0
 20
0
 30
0
  9
$UCSORGFRONT
 10
0
 20
0
 30
0
  9
$UCSORGBACK
 10
0
 20
0
 30
0
  9
$PUCSBASE
  2

  9
$PUCSNAME
  2

  9
$PUCSORG
 10
0
 20
0
 30
0
  9
$PUCSXDIR
 10
1
 20
0
 30
0
  9
$PUCSYDIR
 10
0
 20
1
 30
0
  9
$PUCSORTHOREF
  2

  9
$PUCSORTHOVIEW
 70
    0
  9
$PUCSORGTOP
 10
0
 20
0
 30
0
  9
$PUCSORGBOTTOM
 10
0
 20
0
 30
0
  9
$PUCSORGLEFT
 10
0
 20
0
 30
0
  9
$PUCSORGRIGHT
 10
0
 20
0
 30
0
  9
$PUCSORGFRONT
 10
0
 20
0
 30
0
  9
$PUCSORGBACK
 10
0
 20
0
 30
0
  9
$USERI1
 70
    0
  9
$USERI2
 70
    0
  9
$USERI3
 70
    0
  9
$USERI4
 70
    0
  9
$USERI5
 70
    0
  9
$USERR1
 40
0
  9
$USERR2
 40
0
  9
$USERR3
 40
0
  9
$USERR4
 40
0
  9
$USERR5
 40
0
  9
$WORLDVIEW
 70
    1
  9
$SHADEDGE
 70
    3
  9
$SHADEDIF
 70
   70
  9
$TILEMODE
 70
    1
  9
$MAXACTVP
 70
   64
  9
$PINSBASE
 10
0
 20
0
 30
0
  9
$PLIMCHECK
 70
    0
  9
$PEXTMIN
 10
0
 20
0
 30
0
  9
$PEXTMAX
 10
0
 20
0
 30
0
  9
$SNAPSTYLE
 70
    0
  9
$PLIMMIN
 10
0
 20
0
  9
$PLIMMAX
 10
297
 20
210
  9
$UNITMODE
 70
    0
  9
$VISRETAIN
 70
    1
  9
$PLINEGEN
 70
    0
  9
$PSLTSCALE
 70
    1
  9
$TREEDEPTH
 70
 3020
  9
$CMLSTYLE
  2
Standard
  9
$CMLJUST
 70
    0
  9
$CMLSCALE
 40
20
  9
$PROXYGRAPHICS
 70
    1
  9
$MEASUREMENT
 70
    1
  9
$CELWEIGHT
370
   -1
  9
$ENDCAPS
280
    0
  9
$JOINSTYLE
280
    0
  9
$LWDISPLAY
290
    0
  9
$INSUNITS
 70
    4
  9
$HYPERLINKBASE
  1

  9
$STYLESHEET
  1

  9
$XEDIT
290
    1
  9
$CEPSNTYPE
380
    0
  9
$PSTYLEMODE
290
    1
  9
$EXTNAMES
290
    1
  9
$PSVPSCALE
 40
1
  9
$OLESTARTUP
290
    0
  9
$SORTENTS
280
  127
  9
$INDEXCTL
280
    0
  9
$HIDETEXT
280
    1
  9
$XCLIPFRAME
290
    0
  9
$HALOGAP
280
    0
  9
$OBSCOLOR
 70
  257
  9
$OBSLTYPE
280
    0
  9
$INTERSECTIONDISPLAY
280
    0
  9
$INTERSECTIONCOLOR
 70
  257
  9
$DIMASSOC
280
    1
  9
$PROJECTNAME
  1

  9
$CAMERADISPLAY
290
    0
  9
$LENSLENGTH
 40
50
  9
$CAMERAHEIGHT
 40
0
  9
$STEPSPERSEC
 40
2
  9
$STEPSIZE
 40
50
  9
$3DDWFPREC
 40
2
  9
$PSOLWIDTH
 40
5
  9
$PSOLHEIGHT
 40
80
  9
$LOFTANG1
 40
1.570796326794897
  9
$LOFTANG2
 40
1.570796326794897
  9
$LOFTMAG1
 40
0
  9
$LOFTMAG2
 40
0
  9
$LOFTPARAM
 70
    7
  9
$LOFTNORMALS
280
    1
  9
$LATITUDE
 40
1
  9
$LONGITUDE
 40
1
  9
$NORTHDIRECTION
 40
0
  9
$TIMEZONE
 70
-8000
  9
$LIGHTGLYPHDISPLAY
280
    1
  9
$TILEMODELIGHTSYNCH
280
    1
  9
$SOLIDHIST
280
    1
  9
$SHOWHIST
280
    1
  9
$DWFFRAME
280
    2
  9
$DGNFRAME
280
    0
  9
$REALWORLDSCALE
290
    1
  9
$INTERFERECOLOR
 62
    1
  9
$CSHADOW
280
    0
  9
$SHADOWPLANELOCATION
 40
0
  0
ENDSEC
  0
SECTION
  2
CLASSES
  0
ENDSEC
  0
SECTION
  2
TABLES
  0
TABLE
  2
VPORT
  5
8
330
0
100
AcDbSymbolTable
 70
    1
  0
VPORT
  5
31
330
2
100
AcDbSymbolTableRecord
100
AcDbViewportTableRecord
  2
*ACTIVE
 70
    0
 10
0
 20
0
 11
1
 21
1
 12
252.2369394714408
 22
119.8163427109975
 13
0
 23
0
 14
10
 24
10
 15
10
 25
10
 16
0
 26
0
 36
1
 17
0
 27
0
 37
0
 40
285.0383716965047
 41
1.885455514118274
 42
50
 43
0
 44
0
 50
0
 51
0
 71
    0
 72
  100
 73
    1
 74
    3
 75
    0
 76
    1
 77
    0
 78
    0
281
    0
 65
    1
110
0
120
0
130
0
111
1
121
0
131
0
112
0
122
1
132
0
 79
    0
146
0
348
10020
 60
    7
 61
    5
292
1
282
    1
141
0
142
0
 63
  250
421
3358443
  0
ENDTAB
  0
TABLE
  2
LTYPE
  5
5
330
0
100
AcDbSymbolTable
 70
    4
  0
LTYPE
  5
14
330
5
100
AcDbSymbolTableRecord
100
AcDbLinetypeTableRecord
  2
ByBlock
 70
    0
  3

 72
   65
 73
    0
 40
0
  0
LTYPE
  5
15
330
5
100
AcDbSymbolTableRecord
100
AcDbLinetypeTableRecord
  2
ByLayer
 70
    0
  3

 72
   65
 73
    0
 40
0
  0
LTYPE
  5
16
330
5
100
AcDbSymbolTableRecord
100
AcDbLinetypeTableRecord
  2
Continuous
 70
    0
  3
Solid line
 72
   65
 73
    0
 40
0
  0
LTYPE
  5
32
330
5
100
AcDbSymbolTableRecord
100
AcDbLinetypeTableRecord
  2
DOT
 70
    0
  3
Dot . . . . . . . . . . . . . . . . . . . . . .
 72
   65
 73
    2
 40
6.35
 49
0
 74
    0
 49
-6.35
 74
    0
  0
LTYPE
  5
33
330
5
100
AcDbSymbolTableRecord
100
AcDbLinetypeTableRecord
  2
DOTTINY
 70
    0
  3
Dot (.15x) .....................................
 72
   65
 73
    2
 40
0.9525
 49
0
 74
    0
 49
-0.9525
 74
    0
  0
LTYPE
  5
34
330
5
100
AcDbSymbolTableRecord
100
AcDbLinetypeTableRecord
  2
DOT2
 70
    0
  3
Dot (.5x) .....................................
 72
   65
 73
    2
 40
3.175
 49
0
 74
    0
 49
-3.175
 74
    0
  0
LTYPE
  5
35
330
5
100
AcDbSymbolTableRecord
100
AcDbLinetypeTableRecord
  2
DOTX2
 70
    0
  3
Dot (2x) .  .  .  .  .  .  .  .  .  .  .  .  .
 72
   65
 73
    2
 40
12.7
 49
0
 74
    0
 49
-12.7
 74
    0
  0
LTYPE
  5
36
330
5
100
AcDbSymbolTableRecord
100
AcDbLinetypeTableRecord
  2
DASHED
 70
    0
  3
Dashed _ _ _ _ _ _ _ _ _ _ _ _ _ _ _ _ _
 72
   65
 73
    2
 40
19.05
 49
12.7
 74
    0
 49
-6.35
 74
    0
  0
LTYPE
  5
37
330
5
100
AcDbSymbolTableRecord
100
AcDbLinetypeTableRecord
  2
DASHEDTINY
 70
    0
  3
Dashed (.15x) _ _ _ _ _ _ _ _ _ _ _ _ _ _ _ _ _
 72
   65
 73
    2
 40
2.8575
 49
1.905
 74
    0
 49
-0.9525
 74
    0
  0
LTYPE
  5
38
330
5
100
AcDbSymbolTableRecord
100
AcDbLinetypeTableRecord
  2
DASHED2
 70
    0
  3
Dashed (.5x) _ _ _ _ _ _ _ _ _ _ _ _ _ _ _ _ _
 72
   65
 73
    2
 40
9.524999999999999
 49
6.35
 74
    0
 49
-3.175
 74
    0
  0
LTYPE
  5
39
330
5
100
AcDbSymbolTableRecord
100
AcDbLinetypeTableRecord
  2
DASHEDX2
 70
    0
  3
Dashed (2x) ____  ____  ____  ____  ____  ___
 72
   65
 73
    2
 40
38.09999999999999
 49
25.4
 74
    0
 49
-12.7
 74
    0
  0
LTYPE
  5
3A
330
5
100
AcDbSymbolTableRecord
100
AcDbLinetypeTableRecord
  2
DASHDOT
 70
    0
  3
Dash dot __ . __ . __ . __ . __ . __ . __ . __
 72
   65
 73
    4
 40
25.4
 49
12.7
 74
    0
 49
-6.35
 74
    0
 49
0
 74
    0
 49
-6.35
 74
    0
  0
LTYPE
  5
3B
330
5
100
AcDbSymbolTableRecord
100
AcDbLinetypeTableRecord
  2
DASHDOTTINY
 70
    0
  3
Dash dot (.15x) _._._._._._._._._._._._._._._.
 72
   65
 73
    4
 40
3.81
 49
1.905
 74
    0
 49
-0.9525
 74
    0
 49
0
 74
    0
 49
-0.9525
 74
    0
  0
LTYPE
  5
3C
330
5
100
AcDbSymbolTableRecord
100
AcDbLinetypeTableRecord
  2
DASHDOT2
 70
    0
  3
Dash dot (.5x) _._._._._._._._._._._._._._._.
 72
   65
 73
    4
 40
12.7
 49
6.35
 74
    0
 49
-3.175
 74
    0
 49
0
 74
    0
 49
-3.175
 74
    0
  0
LTYPE
  5
3D
330
5
100
AcDbSymbolTableRecord
100
AcDbLinetypeTableRecord
  2
DASHDOTX2
 70
    0
  3
Dash dot (2x) ____  .  ____  .  ____  .  ___
 72
   65
 73
    4
 40
50.8
 49
25.4
 74
    0
 49
-12.7
 74
    0
 49
0
 74
    0
 49
-12.7
 74
    0
  0
LTYPE
  5
3E
330
5
100
AcDbSymbolTableRecord
100
AcDbLinetypeTableRecord
  2
DIVIDE
 70
    0
  3
Divide ____ . . ____ . . ____ . . ____ . . ____
 72
   65
 73
    6
 40
31.75
 49
12.7
 74
    0
 49
-6.35
 74
    0
 49
0
 74
    0
 49
-6.35
 74
    0
 49
0
 74
    0
 49
-6.35
 74
    0
  0
LTYPE
  5
3F
330
5
100
AcDbSymbolTableRecord
100
AcDbLinetypeTableRecord
  2
DIVIDETINY
 70
    0
  3
Divide (.15x) __..__..__..__..__..__..__..__.._
 72
   65
 73
    6
 40
4.7625
 49
1.905
 74
    0
 49
-0.9525
 74
    0
 49
0
 74
    0
 49
-0.9525
 74
    0
 49
0
 74
    0
 49
-0.9525
 74
    0
  0
LTYPE
  5
40
330
5
100
AcDbSymbolTableRecord
100
AcDbLinetypeTableRecord
  2
DIVIDE2
 70
    0
  3
Divide (.5x) __..__..__..__..__..__..__..__.._
 72
   65
 73
    6
 40
15.875
 49
6.35
 74
    0
 49
-3.175
 74
    0
 49
0
 74
    0
 49
-3.175
 74
    0
 49
0
 74
    0
 49
-3.175
 74
    0
  0
LTYPE
  5
41
330
5
100
AcDbSymbolTableRecord
100
AcDbLinetypeTableRecord
  2
DIVIDEX2
 70
    0
  3
Divide (2x) ________  .  .  ________  .  .  _
 72
   65
 73
    6
 40
63.5
 49
25.4
 74
    0
 49
-12.7
 74
    0
 49
0
 74
    0
 49
-12.7
 74
    0
 49
0
 74
    0
 49
-12.7
 74
    0
  0
LTYPE
  5
42
330
5
100
AcDbSymbolTableRecord
100
AcDbLinetypeTableRecord
  2
BORDER
 70
    0
  3
Border __ __ . __ __ . __ __ . __ __ . __ __ .
 72
   65
 73
    6
 40
44.45
 49
12.7
 74
    0
 49
-6.35
 74
    0
 49
12.7
 74
    0
 49
-6.35
 74
    0
 49
0
 74
    0
 49
-6.35
 74
    0
  0
LTYPE
  5
43
330
5
100
AcDbSymbolTableRecord
100
AcDbLinetypeTableRecord
  2
BORDERTINY
 70
    0
  3
Border (.15x) __.__.__.__.__.__.__.__.__.__.__.
 72
   65
 73
    6
 40
6.6675
 49
1.905
 74
    0
 49
-0.9525
 74
    0
 49
1.905
 74
    0
 49
-0.9525
 74
    0
 49
0
 74
    0
 49
-0.9525
 74
    0
  0
LTYPE
  5
44
330
5
100
AcDbSymbolTableRecord
100
AcDbLinetypeTableRecord
  2
BORDER2
 70
    0
  3
Border (.5x) __.__.__.__.__.__.__.__.__.__.__.
 72
   65
 73
    6
 40
22.225
 49
6.35
 74
    0
 49
-3.175
 74
    0
 49
6.35
 74
    0
 49
-3.175
 74
    0
 49
0
 74
    0
 49
-3.175
 74
    0
  0
LTYPE
  5
45
330
5
100
AcDbSymbolTableRecord
100
AcDbLinetypeTableRecord
  2
BORDERX2
 70
    0
  3
Border (2x) ____  ____  .  ____  ____  .  ___
 72
   65
 73
    6
 40
88.89999999999999
 49
25.4
 74
    0
 49
-12.7
 74
    0
 49
25.4
 74
    0
 49
-12.7
 74
    0
 49
0
 74
    0
 49
-12.7
 74
    0
  0
LTYPE
  5
46
330
5
100
AcDbSymbolTableRecord
100
AcDbLinetypeTableRecord
  2
CENTER
 70
    0
  3
Center ____ _ ____ _ ____ _ ____ _ ____ _ ____
 72
   65
 73
    4
 40
50.8
 49
31.75
 74
    0
 49
-6.35
 74
    0
 49
6.35
 74
    0
 49
-6.35
 74
    0
  0
LTYPE
  5
47
330
5
100
AcDbSymbolTableRecord
100
AcDbLinetypeTableRecord
  2
CENTERTINY
 70
    0
  3
Center (.15x) ___ _ ___ _ ___ _ ___ _ ___ _ ___
 72
   65
 73
    4
 40
7.62
 49
4.7625
 74
    0
 49
-0.9525
 74
    0
 49
0.9525
 74
    0
 49
-0.9525
 74
    0
  0
LTYPE
  5
48
330
5
100
AcDbSymbolTableRecord
100
AcDbLinetypeTableRecord
  2
CENTER2
 70
    0
  3
Center (.5x) ___ _ ___ _ ___ _ ___ _ ___ _ ___
 72
   65
 73
    4
 40
28.575
 49
19.05
 74
    0
 49
-3.175
 74
    0
 49
3.175
 74
    0
 49
-3.175
 74
    0
  0
LTYPE
  5
49
330
5
100
AcDbSymbolTableRecord
100
AcDbLinetypeTableRecord
  2
CENTERX2
 70
    0
  3
Center (2x) ________  __  ________  __  _____
 72
   65
 73
    4
 40
101.6
 49
63.5
 74
    0
 49
-12.7
 74
    0
 49
12.7
 74
    0
 49
-12.7
 74
    0
  0
ENDTAB
  0
TABLE
  2
LAYER
  5
2
330
0
100
AcDbSymbolTable
 70
    1
  0
LAYER
  5
10
330
2
100
AcDbSymbolTableRecord
100
AcDbLayerTableRecord
  2
0
 70
    0
 62
    7
  6
CONTINUOUS
370
    0
390
F
  0
LAYER
  5
4A
330
2
100
AcDbSymbolTableRecord
100
AcDbLayerTableRecord
  2
clear
 70
    1
 62
    7
  6
CONTINUOUS
370
    0
390
F
  0
LAYER
  5
4B
330
2
100
AcDbSymbolTableRecord
100
AcDbLayerTableRecord
  2
digger
 70
    5
 62
    7
  6
CONTINUOUS
370
    5
390
F
  0
LAYER
  5
4C
330
2
100
AcDbSymbolTableRecord
100
AcDbLayerTableRecord
  2
light
 70
    0
 62
    7
  6
CONTINUOUS
370
    0
390
F
  0
LAYER
  5
4D
330
2
100
AcDbSymbolTableRecord
100
AcDbLayerTableRecord
  2
right_frame
 70
    1
 62
    7
  6
CONTINUOUS
370
    0
390
F
  0
ENDTAB
  0
TABLE
  2
STYLE
  5
3
330
0
100
AcDbSymbolTable
 70
    3
  0
STYLE
  5
4E
330
2
100
AcDbSymbolTableRecord
100
AcDbTextStyleTableRecord
  2
Standard
 70
    0
 40
0
 41
1
 50
0
 71
    0
 42
1
  3
txt
  4

  0
ENDTAB
  0
TABLE
  2
VIEW
  5
6
330
0
100
AcDbSymbolTable
 70
    0
  0
ENDTAB
  0
TABLE
  2
UCS
  5
7
330
0
100
AcDbSymbolTable
 70
    0
  0
ENDTAB
  0
TABLE
  2
APPID
  5
9
330
0
100
AcDbSymbolTable
 70
    1
  0
APPID
  5
12
330
9
100
AcDbSymbolTableRecord
100
AcDbRegAppTableRecord
  2
ACAD
 70
    0
  0
APPID
  5
4F
330
9
100
AcDbSymbolTableRecord
100
AcDbRegAppTableRecord
  2
LibreCad
 70
    0
  0
ENDTAB
  0
TABLE
  2
DIMSTYLE
  5
A
330
0
100
AcDbSymbolTable
 70
    1
100
AcDbDimStyleTable
 71
    1
  0
DIMSTYLE
105
50
330
A
100
AcDbSymbolTableRecord
100
AcDbDimStyleTableRecord
  2
Standard
 70
    0
 40
1
 41
2.5
 42
0.625
 43
0.38
 44
1.25
 45
0
 46
0
 47
0
 48
0
 49
1
140
2.5
141
0.09
142
0
143
25.4
144
1
145
0
146
1
147
0.625
148
0
 71
    0
 72
    0
 73
    0
 74
    1
 75
    0
 76
    0
 77
    0
 78
    1
 79
    0
170
    0
171
    2
172
    0
173
    0
174
    0
175
    0
176
    0
177
    0
178
    0
179
    0
271
    2
272
    4
273
    2
274
    2
275
    0
276
    0
277
    2
278
    0
279
    0
280
    0
281
    0
282
    0
283
    1
284
    0
285
    0
286
    0
288
    0
289
    3
340
standard
341

371
   -2
372
   -2
  0
ENDTAB
  0
TABLE
  2
BLOCK_RECORD
  5
1
330
0
100
AcDbSymbolTable
 70
    2
  0
BLOCK_RECORD
  5
1F
330
1
100
AcDbSymbolTableRecord
100
AcDbBlockTableRecord
  2
*Model_Space
 70
    0
280
    1
281
    0
  0
BLOCK_RECORD
  5
1E
330
1
100
AcDbSymbolTableRecord
100
AcDbBlockTableRecord
  2
*Paper_Space
 70
    0
280
    1
281
    0
  0
BLOCK_RECORD
  5
51
330
1
100
AcDbSymbolTableRecord
100
AcDbBlockTableRecord
  2
*D9
 70
    0
280
    1
281
    0
  0
BLOCK_RECORD
  5
54
330
1
100
AcDbSymbolTableRecord
100
AcDbBlockTableRecord
  2
*D15
 70
    0
280
    1
281
    0
  0
BLOCK_RECORD
  5
57
330
1
100
AcDbSymbolTableRecord
100
AcDbBlockTableRecord
  2
*D16
 70
    0
280
    1
281
    0
  0
BLOCK_RECORD
  5
5A
330
1
100
AcDbSymbolTableRecord
100
AcDbBlockTableRecord
  2
*D5
 70
    0
280
    1
281
    0
  0
BLOCK_RECORD
  5
5D
330
1
100
AcDbSymbolTableRecord
100
AcDbBlockTableRecord
  2
*D7
 70
    0
280
    1
281
    0
  0
BLOCK_RECORD
  5
60
330
1
100
AcDbSymbolTableRecord
100
AcDbBlockTableRecord
  2
*D21
 70
    0
280
    1
281
    0
  0
BLOCK_RECORD
  5
63
330
1
100
AcDbSymbolTableRecord
100
AcDbBlockTableRecord
  2
*D1
 70
    0
280
    1
281
    0
  0
BLOCK_RECORD
  5
66
330
1
100
AcDbSymbolTableRecord
100
AcDbBlockTableRecord
  2
*D18
 70
    0
280
    1
281
    0
  0
BLOCK_RECORD
  5
69
330
1
100
AcDbSymbolTableRecord
100
AcDbBlockTableRecord
  2
*D20
 70
    0
280
    1
281
    0
  0
BLOCK_RECORD
  5
6C
330
1
100
AcDbSymbolTableRecord
100
AcDbBlockTableRecord
  2
*D6
 70
    0
280
    1
281
    0
  0
BLOCK_RECORD
  5
6F
330
1
100
AcDbSymbolTableRecord
100
AcDbBlockTableRecord
  2
*D19
 70
    0
280
    1
281
    0
  0
BLOCK_RECORD
  5
72
330
1
100
AcDbSymbolTableRecord
100
AcDbBlockTableRecord
  2
*D14
 70
    0
280
    1
281
    0
  0
BLOCK_RECORD
  5
75
330
1
100
AcDbSymbolTableRecord
100
AcDbBlockTableRecord
  2
*D3
 70
    0
280
    1
281
    0
  0
BLOCK_RECORD
  5
78
330
1
100
AcDbSymbolTableRecord
100
AcDbBlockTableRecord
  2
*D10
 70
    0
280
    1
281
    0
  0
BLOCK_RECORD
  5
7B
330
1
100
AcDbSymbolTableRecord
100
AcDbBlockTableRecord
  2
*D4
 70
    0
280
    1
281
    0
  0
BLOCK_RECORD
  5
7E
330
1
100
AcDbSymbolTableRecord
100
AcDbBlockTableRecord
  2
*D8
 70
    0
280
    1
281
    0
  0
BLOCK_RECORD
  5
81
330
1
100
AcDbSymbolTableRecord
100
AcDbBlockTableRecord
  2
*D12
 70
    0
280
    1
281
    0
  0
BLOCK_RECORD
  5
84
330
1
100
AcDbSymbolTableRecord
100
AcDbBlockTableRecord
  2
*D13
 70
    0
280
    1
281
    0
  0
BLOCK_RECORD
  5
87
330
1
100
AcDbSymbolTableRecord
100
AcDbBlockTableRecord
  2
*D11
 70
    0
280
    1
281
    0
  0
BLOCK_RECORD
  5
8A
330
1
100
AcDbSymbolTableRecord
100
AcDbBlockTableRecord
  2
*D2
 70
    0
280
    1
281
    0
  0
BLOCK_RECORD
  5
8D
330
1
100
AcDbSymbolTableRecord
100
AcDbBlockTableRecord
  2
*D17
 70
    0
280
    1
281
    0
  0
ENDTAB
  0
ENDSEC
  0
SECTION
  2
BLOCKS
  0
BLOCK
  5
20
330
1F
100
AcDbEntity
  8
0
100
AcDbBlockBegin
  2
*Model_Space
 70
    0
 10
0
 20
0
 30
0
  3
*Model_Space
  1

  0
ENDBLK
  5
21
330
1F
100
AcDbEntity
  8
0
100
AcDbBlockEnd
  0
BLOCK
  5
1C
330
1B
100
AcDbEntity
  8
0
100
AcDbBlockBegin
  2
*Paper_Space
 70
    0
 10
0
 20
0
 30
0
  3
*Paper_Space
  1

  0
ENDBLK
  5
1D
330
1F
100
AcDbEntity
  8
0
100
AcDbBlockEnd
  0
BLOCK
  5
52
330
51
100
AcDbEntity
  8
0
100
AcDbBlockBegin
  2
*D9
 70
    1
 10
0
 20
0
  3
*D9
  1

  0
LINE
  5
90
100
AcDbEntity
  8
light
  6
ByBlock
 62
    0
370
   -2
100
AcDbLine
 10
129
 20
178
 11
147
 21
178
  0
SOLID
  5
91
100
AcDbEntity
  8
light
  6
ByBlock
 62
    0
370
   -2
100
AcDbTrace
 10
129
 20
178
 30
0
 11
131.5
 21
178.4162846577728
 31
0
 12
131.5
 22
177.5837153422272
 32
0
 13
131.5
 23
177.5837153422272
 33
0
  0
SOLID
  5
92
100
AcDbEntity
  8
light
  6
ByBlock
 62
    0
370
   -2
100
AcDbTrace
 10
147
 20
178
 30
0
 11
144.5
 21
177.5837153422272
 31
0
 12
144.5
 22
178.4162846577728
 32
0
 13
144.5
 23
178.4162846577728
 33
0
  0
MTEXT
  5
93
100
AcDbEntity
  8
light
  6
CONTINUOUS
 62
    0
370
   -2
100
AcDbMText
 10
138
 20
179.875
 30
0
 40
2.5
 41
11.11111111111111
 71
    5
 72
    1
  1
18.0000
  7
standard
210
0
220
0
230
1
 50
0
 73
    2
 44
1
  0
ENDBLK
  5
53
330
51
100
AcDbEntity
  8
0
100
AcDbBlockEnd
  0
BLOCK
  5
55
330
54
100
AcDbEntity
  8
0
100
AcDbBlockBegin
  2
*D15
 70
    1
 10
0
 20
0
  3
*D15
  1

  0
LINE
  5
94
100
AcDbEntity
  8
light
  6
ByBlock
 62
    0
370
   -2
100
AcDbLine
 10
115
 20
17
 11
133
 21
17
  0
SOLID
  5
95
100
AcDbEntity
  8
light
  6
ByBlock
 62
    0
370
   -2
100
AcDbTrace
 10
115
 20
17
 30
0
 11
117.5
 21
17.41628465777284
 31
0
 12
117.5
 22
16.58371534222716
 32
0
 13
117.5
 23
16.58371534222716
 33
0
  0
SOLID
  5
96
100
AcDbEntity
  8
light
  6
ByBlock
 62
    0
370
   -2
100
AcDbTrace
 10
133
 20
17
 30
0
 11
130.5
 21
16.58371534222716
 31
0
 12
130.5
 22
17.41628465777284
 32
0
 13
130.5
 23
17.41628465777284
 33
0
  0
MTEXT
  5
97
100
AcDbEntity
  8
light
  6
CONTINUOUS
 62
    0
370
   -2
100
AcDbMText
 10
124
 20
18.875
 30
0
 40
2.5
 41
11.11111111111111
 71
    5
 72
    1
  1
18.0000
  7
standard
210
0
220
0
230
1
 50
0
 73
    2
 44
1
  0
ENDBLK
  5
56
330
54
100
AcDbEntity
  8
0
100
AcDbBlockEnd
  0
BLOCK
  5
58
330
57
100
AcDbEntity
  8
0
100
AcDbBlockBegin
  2
*D16
 70
    1
 10
0
 20
0
  3
*D16
  1

  0
LINE
  5
98
100
AcDbEntity
  8
light
  6
ByBlock
 62
    0
370
   -2
100
AcDbLine
 10
140
 20
58
 11
140
 21
40
  0
SOLID
  5
99
100
AcDbEntity
  8
light
  6
ByBlock
 62
    0
370
   -2
100
AcDbTrace
 10
140
 20
58
 30
0
 11
140.4162846577728
 21
55.5
 31
0
 12
139.5837153422272
 22
55.5
 32
0
 13
139.5837153422272
 23
55.5
 33
0
  0
SOLID
  5
9A
100
AcDbEntity
  8
light
  6
ByBlock
 62
    0
370
   -2
100
AcDbTrace
 10
140
 20
40
 30
0
 11
139.5837153422272
 21
42.5
 31
0
 12
140.4162846577728
 22
42.5
 32
0
 13
140.4162846577728
 23
42.5
 33
0
  0
MTEXT
  5
9B
100
AcDbEntity
  8
light
  6
CONTINUOUS
 62
    0
370
   -2
100
AcDbMText
 10
138.125
 20
49
 30
0
 40
2.5
 41
11.11111111111111
 71
    5
 72
    1
  1
18.0000
  7
standard
210
0
220
0
230
1
 50
90
 73
    2
 44
1
  0
LINE
  5
9C
100
AcDbEntity
  8
light
  6
ByBlock
 62
    0
370
   -2
100
AcDbLine
 10
128.625
 20
58
 11
141.25
 21
58
  0
LINE
  5
9D
100
AcDbEntity
  8
light
  6
ByBlock
 62
    0
370
   -2
100
AcDbLine
 10
128.625
 20
40
 11
141.25
 21
40
  0
ENDBLK
  5
59
330
57
100
AcDbEntity
  8
0
100
AcDbBlockEnd
  0
BLOCK
  5
5B
330
5A
100
AcDbEntity
  8
0
100
AcDbBlockBegin
  2
*D5
 70
    1
 10
0
 20
0
  3
*D5
  1

  0
LINE
  5
9E
100
AcDbEntity
  8
light
  6
ByBlock
 62
    0
370
   -2
100
AcDbLine
 10
51.5
 20
120
 11
58.5
 21
120
  0
SOLID
  5
9F
100
AcDbEntity
  8
light
  6
ByBlock
 62
    0
370
   -2
100
AcDbTrace
 10
51.5
 20
120
 30
0
 11
54
 21
120.4162846577728
 31
0
 12
54
 22
119.5837153422272
 32
0
 13
54
 23
119.5837153422272
 33
0
  0
SOLID
  5
A0
100
AcDbEntity
  8
light
  6
ByBlock
 62
    0
370
   -2
100
AcDbTrace
 10
58.5
 20
120
 30
0
 11
56
 21
119.5837153422272
 31
0
 12
56
 22
120.4162846577728
 32
0
 13
56
 23
120.4162846577728
 33
0
  0
MTEXT
  5
A1
100
AcDbEntity
  8
light
  6
CONTINUOUS
 62
    0
370
   -2
100
AcDbMText
 10
63.98611111111111
 20
121.875
 30
0
 40
2.5
 41
9.722222222222221
 71
    5
 72
    1
  1
7.0000
  7
standard
210
0
220
0
230
1
 50
0
 73
    2
 44
1
  0
ENDBLK
  5
5C
330
5A
100
AcDbEntity
  8
0
100
AcDbBlockEnd
  0
BLOCK
  5
5E
330
5D
100
AcDbEntity
  8
0
100
AcDbBlockBegin
  2
*D7
 70
    1
 10
0
 20
0
  3
*D7
  1

  0
LINE
  5
A2
100
AcDbEntity
  8
light
  6
ByBlock
 62
    0
370
   -2
100
AcDbLine
 10
52
 20
150
 11
64
 21
150
  0
SOLID
  5
A3
100
AcDbEntity
  8
light
  6
ByBlock
 62
    0
370
   -2
100
AcDbTrace
 10
52
 20
150
 30
0
 11
54.5
 21
150.4162846577728
 31
0
 12
54.5
 22
149.5837153422272
 32
0
 13
54.5
 23
149.5837153422272
 33
0
  0
SOLID
  5
A4
100
AcDbEntity
  8
light
  6
ByBlock
 62
    0
370
   -2
100
AcDbTrace
 10
64
 20
150
 30
0
 11
61.5
 21
149.5837153422272
 31
0
 12
61.5
 22
150.4162846577728
 32
0
 13
61.5
 23
150.4162846577728
 33
0
  0
MTEXT
  5
A5
100
AcDbEntity
  8
light
  6
CONTINUOUS
 62
    0
370
   -2
100
AcDbMText
 10
58
 20
151.875
 30
0
 40
2.5
 41
11.11111111111111
 71
    5
 72
    1
  1
12.0000
  7
standard
210
0
220
0
230
1
 50
0
 73
    2
 44
1
  0
ENDBLK
  5
5F
330
5D
100
AcDbEntity
  8
0
100
AcDbBlockEnd
  0
BLOCK
  5
61
330
60
100
AcDbEntity
  8
0
100
AcDbBlockBegin
  2
*D21
 70
    1
 10
0
 20
0
  3
*D21
  1

  0
LINE
  5
A6
100
AcDbEntity
  8
right_frame
  6
ByBlock
 62
    0
370
   -2
100
AcDbLine
 10
252
 20
36
 11
296
 21
36
  0
SOLID
  5
A7
100
AcDbEntity
  8
right_frame
  6
ByBlock
 62
    0
370
   -2
100
AcDbTrace
 10
252
 20
36
 30
0
 11
254.5
 21
36.41628465777284
 31
0
 12
254.5
 22
35.58371534222716
 32
0
 13
254.5
 23
35.58371534222716
 33
0
  0
SOLID
  5
A8
100
AcDbEntity
  8
right_frame
  6
ByBlock
 62
    0
370
   -2
100
AcDbTrace
 10
296
 20
36
 30
0
 11
293.5
 21
35.58371534222716
 31
0
 12
293.5
 22
36.41628465777284
 32
0
 13
293.5
 23
36.41628465777284
 33
0
  0
MTEXT
  5
A9
100
AcDbEntity
  8
right_frame
  6
CONTINUOUS
 62
    0
370
   -2
100
AcDbMText
 10
274
 20
37.875
 30
0
 40
2.5
 41
12.22222222222222
 71
    5
 72
    1
  1
44.0000
  7
standard
210
0
220
0
230
1
 50
0
 73
    2
 44
1
  0
ENDBLK
  5
62
330
60
100
AcDbEntity
  8
0
100
AcDbBlockEnd
  0
BLOCK
  5
64
330
63
100
AcDbEntity
  8
0
100
AcDbBlockBegin
  2
*D1
 70
    1
 10
0
 20
0
  3
*D1
  1

  0
LINE
  5
AA
100
AcDbEntity
  8
light
  6
ByBlock
 62
    0
370
   -2
100
AcDbLine
 10
10
 20
17
 11
22
 21
17
  0
SOLID
  5
AB
100
AcDbEntity
  8
light
  6
ByBlock
 62
    0
370
   -2
100
AcDbTrace
 10
10
 20
17
 30
0
 11
12.5
 21
17.41628465777284
 31
0
 12
12.5
 22
16.58371534222716
 32
0
 13
12.5
 23
16.58371534222716
 33
0
  0
SOLID
  5
AC
100
AcDbEntity
  8
light
  6
ByBlock
 62
    0
370
   -2
100
AcDbTrace
 10
22
 20
17
 30
0
 11
19.5
 21
16.58371534222716
 31
0
 12
19.5
 22
17.41628465777284
 32
0
 13
19.5
 23
17.41628465777284
 33
0
  0
MTEXT
  5
AD
100
AcDbEntity
  8
light
  6
CONTINUOUS
 62
    0
370
   -2
100
AcDbMText
 10
16
 20
18.875
 30
0
 40
2.5
 41
11.11111111111111
 71
    5
 72
    1
  1
12.0000
  7
standard
210
0
220
0
230
1
 50
0
 73
    2
 44
1
  0
ENDBLK
  5
65
330
63
100
AcDbEntity
  8
0
100
AcDbBlockEnd
  0
BLOCK
  5
67
330
66
100
AcDbEntity
  8
0
100
AcDbBlockBegin
  2
*D18
 70
    1
 10
0
 20
0
  3
*D18
  1

  0
LINE
  5
AE
100
AcDbEntity
  8
right_frame
  6
ByBlock
 62
    0
370
   -2
100
AcDbLine
 10
244
 20
90
 11
284
 21
90
  0
SOLID
  5
AF
100
AcDbEntity
  8
right_frame
  6
ByBlock
 62
    0
370
   -2
100
AcDbTrace
 10
244
 20
90
 30
0
 11
246.5
 21
90.41628465777283
 31
0
 12
246.5
 22
89.58371534222717
 32
0
 13
246.5
 23
89.58371534222717
 33
0
  0
SOLID
  5
B0
100
AcDbEntity
  8
right_frame
  6
ByBlock
 62
    0
370
   -2
100
AcDbTrace
 10
284
 20
90
 30
0
 11
281.5
 21
89.58371534222717
 31
0
 12
281.5
 22
90.41628465777283
 32
0
 13
281.5
 23
90.41628465777283
 33
0
  0
MTEXT
  5
B1
100
AcDbEntity
  8
right_frame
  6
CONTINUOUS
 62
    0
370
   -2
100
AcDbMText
 10
264
 20
91.875
 30
0
 40
2.5
 41
11.94444444444445
 71
    5
 72
    1
  1
40.0000
  7
standard
210
0
220
0
230
1
 50
0
 73
    2
 44
1
  0
ENDBLK
  5
68
330
66
100
AcDbEntity
  8
0
100
AcDbBlockEnd
  0
BLOCK
  5
6A
330
69
100
AcDbEntity
  8
0
100
AcDbBlockBegin
  2
*D20
 70
    1
 10
0
 20
0
  3
*D20
  1

  0
LINE
  5
B2
100
AcDbEntity
  8
right_frame
  6
ByBlock
 62
    0
370
   -2
100
AcDbLine
 10
244
 20
176
 11
268
 21
176
  0
SOLID
  5
B3
100
AcDbEntity
  8
right_frame
  6
ByBlock
 62
    0
370
   -2
100
AcDbTrace
 10
244
 20
176
 30
0
 11
246.5
 21
176.4162846577728
 31
0
 12
246.5
 22
175.5837153422272
 32
0
 13
246.5
 23
175.5837153422272
 33
0
  0
SOLID
  5
B4
100
AcDbEntity
  8
right_frame
  6
ByBlock
 62
    0
370
   -2
100
AcDbTrace
 10
268
 20
176
 30
0
 11
265.5
 21
175.5837153422272
 31
0
 12
265.5
 22
176.4162846577728
 32
0
 13
265.5
 23
176.4162846577728
 33
0
  0
MTEXT
  5
B5
100
AcDbEntity
  8
right_frame
  6
CONTINUOUS
 62
    0
370
   -2
100
AcDbMText
 10
256
 20
177.875
 30
0
 40
2.5
 41
11.94444444444445
 71
    5
 72
    1
  1
24.0000
  7
standard
210
0
220
0
230
1
 50
0
 73
    2
 44
1
  0
ENDBLK
  5
6B
330
69
100
AcDbEntity
  8
0
100
AcDbBlockEnd
  0
BLOCK
  5
6D
330
6C
100
AcDbEntity
  8
0
100
AcDbBlockBegin
  2
*D6
 70
    1
 10
0
 20
0
  3
*D6
  1

  0
LINE
  5
B6
100
AcDbEntity
  8
light
  6
ByBlock
 62
    0
370
   -2
100
AcDbLine
 10
34
 20
140
 11
46
 21
140
  0
SOLID
  5
B7
100
AcDbEntity
  8
light
  6
ByBlock
 62
    0
370
   -2
100
AcDbTrace
 10
34
 20
140
 30
0
 11
36.5
 21
140.4162846577728
 31
0
 12
36.5
 22
139.5837153422272
 32
0
 13
36.5
 23
139.5837153422272
 33
0
  0
SOLID
  5
B8
100
AcDbEntity
  8
light
  6
ByBlock
 62
    0
370
   -2
100
AcDbTrace
 10
46
 20
140
 30
0
 11
43.5
 21
139.5837153422272
 31
0
 12
43.5
 22
140.4162846577728
 32
0
 13
43.5
 23
140.4162846577728
 33
0
  0
MTEXT
  5
B9
100
AcDbEntity
  8
light
  6
CONTINUOUS
 62
    0
370
   -2
100
AcDbMText
 10
40
 20
141.875
 30
0
 40
2.5
 41
11.11111111111111
 71
    5
 72
    1
  1
12.0000
  7
standard
210
0
220
0
230
1
 50
0
 73
    2
 44
1
  0
ENDBLK
  5
6E
330
6C
100
AcDbEntity
  8
0
100
AcDbBlockEnd
  0
BLOCK
  5
70
330
6F
100
AcDbEntity
  8
0
100
AcDbBlockBegin
  2
*D19
 70
    1
 10
0
 20
0
  3
*D19
  1

  0
LINE
  5
BA
100
AcDbEntity
  8
right_frame
  6
ByBlock
 62
    0
370
   -2
100
AcDbLine
 10
245
 20
138
 11
277
 21
138
  0
SOLID
  5
BB
100
AcDbEntity
  8
right_frame
  6
ByBlock
 62
    0
370
   -2
100
AcDbTrace
 10
245
 20
138
 30
0
 11
247.5
 21
138.4162846577728
 31
0
 12
247.5
 22
137.5837153422272
 32
0
 13
247.5
 23
137.5837153422272
 33
0
  0
SOLID
  5
BC
100
AcDbEntity
  8
right_frame
  6
ByBlock
 62
    0
370
   -2
100
AcDbTrace
 10
277
 20
138
 30
0
 11
274.5
 21
137.5837153422272
 31
0
 12
274.5
 22
138.4162846577728
 32
0
 13
274.5
 23
138.4162846577728
 33
0
  0
MTEXT
  5
BD
100
AcDbEntity
  8
right_frame
  6
CONTINUOUS
 62
    0
370
   -2
100
AcDbMText
 10
261
 20
139.875
 30
0
 40
2.5
 41
11.66666666666682
 71
    5
 72
    1
  1
32.0000
  7
standard
210
0
220
0
230
1
 50
0
 73
    2
 44
1
  0
ENDBLK
  5
71
330
6F
100
AcDbEntity
  8
0
100
AcDbBlockEnd
  0
BLOCK
  5
73
330
72
100
AcDbEntity
  8
0
100
AcDbBlockBegin
  2
*D14
 70
    1
 10
0
 20
0
  3
*D14
  1

  0
LINE
  5
BE
100
AcDbEntity
  8
light
  6
ByBlock
 62
    0
370
   -2
100
AcDbLine
 10
87
 20
17
 11
105
 21
17
  0
SOLID
  5
BF
100
AcDbEntity
  8
light
  6
ByBlock
 62
    0
370
   -2
100
AcDbTrace
 10
87
 20
17
 30
0
 11
89.5
 21
17.41628465777284
 31
0
 12
89.5
 22
16.58371534222716
 32
0
 13
89.5
 23
16.58371534222716
 33
0
  0
SOLID
  5
C0
100
AcDbEntity
  8
light
  6
ByBlock
 62
    0
370
   -2
100
AcDbTrace
 10
105
 20
17
 30
0
 11
102.5
 21
16.58371534222716
 31
0
 12
102.5
 22
17.41628465777284
 32
0
 13
102.5
 23
17.41628465777284
 33
0
  0
MTEXT
  5
C1
100
AcDbEntity
  8
light
  6
CONTINUOUS
 62
    0
370
   -2
100
AcDbMText
 10
96
 20
18.875
 30
0
 40
2.5
 41
11.11111111111111
 71
    5
 72
    1
  1
18.0000
  7
standard
210
0
220
0
230
1
 50
0
 73
    2
 44
1
  0
ENDBLK
  5
74
330
72
100
AcDbEntity
  8
0
100
AcDbBlockEnd
  0
BLOCK
  5
76
330
75
100
AcDbEntity
  8
0
100
AcDbBlockBegin
  2
*D3
 70
    1
 10
0
 20
0
  3
*D3
  1

  0
LINE
  5
C2
100
AcDbEntity
  8
light
  6
ByBlock
 62
    0
370
   -2
100
AcDbLine
 10
31
 20
49
 11
47
 21
49
  0
SOLID
  5
C3
100
AcDbEntity
  8
light
  6
ByBlock
 62
    0
370
   -2
100
AcDbTrace
 10
31
 20
49
 30
0
 11
33.5
 21
49.41628465777284
 31
0
 12
33.5
 22
48.58371534222716
 32
0
 13
33.5
 23
48.58371534222716
 33
0
  0
SOLID
  5
C4
100
AcDbEntity
  8
light
  6
ByBlock
 62
    0
370
   -2
100
AcDbTrace
 10
47
 20
49
 30
0
 11
44.5
 21
48.58371534222716
 31
0
 12
44.5
 22
49.41628465777284
 32
0
 13
44.5
 23
49.41628465777284
 33
0
  0
MTEXT
  5
C5
100
AcDbEntity
  8
light
  6
CONTINUOUS
 62
    0
370
   -2
100
AcDbMText
 10
39
 20
50.875
 30
0
 40
2.5
 41
11.11111111111127
 71
    5
 72
    1
  1
16.0000
  7
standard
210
0
220
0
230
1
 50
0
 73
    2
 44
1
  0
ENDBLK
  5
77
330
75
100
AcDbEntity
  8
0
100
AcDbBlockEnd
  0
BLOCK
  5
79
330
78
100
AcDbEntity
  8
0
100
AcDbBlockBegin
  2
*D10
 70
    1
 10
0
 20
0
  3
*D10
  1

  0
LINE
  5
C6
100
AcDbEntity
  8
light
  6
ByBlock
 62
    0
370
   -2
100
AcDbLine
 10
129
 20
150
 11
147
 21
150
  0
SOLID
  5
C7
100
AcDbEntity
  8
light
  6
ByBlock
 62
    0
370
   -2
100
AcDbTrace
 10
129
 20
150
 30
0
 11
131.5
 21
150.4162846577728
 31
0
 12
131.5
 22
149.5837153422272
 32
0
 13
131.5
 23
149.5837153422272
 33
0
  0
SOLID
  5
C8
100
AcDbEntity
  8
light
  6
ByBlock
 62
    0
370
   -2
100
AcDbTrace
 10
147
 20
150
 30
0
 11
144.5
 21
149.5837153422272
 31
0
 12
144.5
 22
150.4162846577728
 32
0
 13
144.5
 23
150.4162846577728
 33
0
  0
MTEXT
  5
C9
100
AcDbEntity
  8
light
  6
CONTINUOUS
 62
    0
370
   -2
100
AcDbMText
 10
138
 20
151.875
 30
0
 40
2.5
 41
11.11111111111111
 71
    5
 72
    1
  1
18.0000
  7
standard
210
0
220
0
230
1
 50
0
 73
    2
 44
1
  0
ENDBLK
  5
7A
330
78
100
AcDbEntity
  8
0
100
AcDbBlockEnd
  0
BLOCK
  5
7C
330
7B
100
AcDbEntity
  8
0
100
AcDbBlockBegin
  2
*D4
 70
    1
 10
0
 20
0
  3
*D4
  1

  0
LINE
  5
CA
100
AcDbEntity
  8
light
  6
ByBlock
 62
    0
370
   -2
100
AcDbLine
 10
40
 20
81
 11
52
 21
81
  0
SOLID
  5
CB
100
AcDbEntity
  8
light
  6
ByBlock
 62
    0
370
   -2
100
AcDbTrace
 10
40
 20
81
 30
0
 11
42.5
 21
81.41628465777283
 31
0
 12
42.5
 22
80.58371534222717
 32
0
 13
42.5
 23
80.58371534222717
 33
0
  0
SOLID
  5
CC
100
AcDbEntity
  8
light
  6
ByBlock
 62
    0
370
   -2
100
AcDbTrace
 10
52
 20
81
 30
0
 11
49.5
 21
80.58371534222717
 31
0
 12
49.5
 22
81.41628465777283
 32
0
 13
49.5
 23
81.41628465777283
 33
0
  0
MTEXT
  5
CD
100
AcDbEntity
  8
light
  6
CONTINUOUS
 62
    0
370
   -2
100
AcDbMText
 10
46
 20
82.875
 30
0
 40
2.5
 41
11.11111111111111
 71
    5
 72
    1
  1
12.0000
  7
standard
210
0
220
0
230
1
 50
0
 73
    2
 44
1
  0
ENDBLK
  5
7D
330
7B
100
AcDbEntity
  8
0
100
AcDbBlockEnd
  0
BLOCK
  5
7F
330
7E
100
AcDbEntity
  8
0
100
AcDbBlockBegin
  2
*D8
 70
    1
 10
0
 20
0
  3
*D8
  1

  0
LINE
  5
CE
100
AcDbEntity
  8
light
  6
ByBlock
 62
    0
370
   -2
100
AcDbLine
 10
52
 20
178
 11
64
 21
178
  0
SOLID
  5
CF
100
AcDbEntity
  8
light
  6
ByBlock
 62
    0
370
   -2
100
AcDbTrace
 10
52
 20
178
 30
0
 11
54.5
 21
178.4162846577728
 31
0
 12
54.5
 22
177.5837153422272
 32
0
 13
54.5
 23
177.5837153422272
 33
0
  0
SOLID
  5
D0
100
AcDbEntity
  8
light
  6
ByBlock
 62
    0
370
   -2
100
AcDbTrace
 10
64
 20
178
 30
0
 11
61.5
 21
177.5837153422272
 31
0
 12
61.5
 22
178.4162846577728
 32
0
 13
61.5
 23
178.4162846577728
 33
0
  0
MTEXT
  5
D1
100
AcDbEntity
  8
light
  6
CONTINUOUS
 62
    0
370
   -2
100
AcDbMText
 10
58
 20
179.875
 30
0
 40
2.5
 41
11.11111111111111
 71
    5
 72
    1
  1
12.0000
  7
standard
210
0
220
0
230
1
 50
0
 73
    2
 44
1
  0
ENDBLK
  5
80
330
7E
100
AcDbEntity
  8
0
100
AcDbBlockEnd
  0
BLOCK
  5
82
330
81
100
AcDbEntity
  8
0
100
AcDbBlockBegin
  2
*D12
 70
    1
 10
0
 20
0
  3
*D12
  1

  0
LINE
  5
D2
100
AcDbEntity
  8
light
  6
ByBlock
 62
    0
370
   -2
100
AcDbLine
 10
128.5
 20
120
 11
141.5
 21
120
  0
SOLID
  5
D3
100
AcDbEntity
  8
light
  6
ByBlock
 62
    0
370
   -2
100
AcDbTrace
 10
128.5
 20
120
 30
0
 11
131
 21
120.4162846577728
 31
0
 12
131
 22
119.5837153422272
 32
0
 13
131
 23
119.5837153422272
 33
0
  0
SOLID
  5
D4
100
AcDbEntity
  8
light
  6
ByBlock
 62
    0
370
   -2
100
AcDbTrace
 10
141.5
 20
120
 30
0
 11
139
 21
119.5837153422272
 31
0
 12
139
 22
120.4162846577728
 32
0
 13
139
 23
120.4162846577728
 33
0
  0
MTEXT
  5
D5
100
AcDbEntity
  8
light
  6
CONTINUOUS
 62
    0
370
   -2
100
AcDbMText
 10
135
 20
121.875
 30
0
 40
2.5
 41
11.11111111111127
 71
    5
 72
    1
  1
13.0000
  7
standard
210
0
220
0
230
1
 50
0
 73
    2
 44
1
  0
ENDBLK
  5
83
330
81
100
AcDbEntity
  8
0
100
AcDbBlockEnd
  0
BLOCK
  5
85
330
84
100
AcDbEntity
  8
0
100
AcDbBlockBegin
  2
*D13
 70
    1
 10
0
 20
0
  3
*D13
  1

  0
LINE
  5
D6
100
AcDbEntity
  8
light
  6
ByBlock
 62
    0
370
   -2
100
AcDbLine
 10
117
 20
81
 11
135
 21
81
  0
SOLID
  5
D7
100
AcDbEntity
  8
light
  6
ByBlock
 62
    0
370
   -2
100
AcDbTrace
 10
117
 20
81
 30
0
 11
119.5
 21
81.41628465777283
 31
0
 12
119.5
 22
80.58371534222717
 32
0
 13
119.5
 23
80.58371534222717
 33
0
  0
SOLID
  5
D8
100
AcDbEntity
  8
light
  6
ByBlock
 62
    0
370
   -2
100
AcDbTrace
 10
135
 20
81
 30
0
 11
132.5
 21
80.58371534222717
 31
0
 12
132.5
 22
81.41628465777283
 32
0
 13
132.5
 23
81.41628465777283
 33
0
  0
MTEXT
  5
D9
100
AcDbEntity
  8
light
  6
CONTINUOUS
 62
    0
370
   -2
100
AcDbMText
 10
126
 20
82.875
 30
0
 40
2.5
 41
11.11111111111111
 71
    5
 72
    1
  1
18.0000
  7
standard
210
0
220
0
230
1
 50
0
 73
    2
 44
1
  0
ENDBLK
  5
86
330
84
100
AcDbEntity
  8
0
100
AcDbBlockEnd
  0
BLOCK
  5
88
330
87
100
AcDbEntity
  8
0
100
AcDbBlockBegin
  2
*D11
 70
    1
 10
0
 20
0
  3
*D11
  1

  0
LINE
  5
DA
100
AcDbEntity
  8
light
  6
ByBlock
 62
    0
370
   -2
100
AcDbLine
 10
111
 20
140
 11
129
 21
140
  0
SOLID
  5
DB
100
AcDbEntity
  8
light
  6
ByBlock
 62
    0
370
   -2
100
AcDbTrace
 10
111
 20
140
 30
0
 11
113.5
 21
140.4162846577728
 31
0
 12
113.5
 22
139.5837153422272
 32
0
 13
113.5
 23
139.5837153422272
 33
0
  0
SOLID
  5
DC
100
AcDbEntity
  8
light
  6
ByBlock
 62
    0
370
   -2
100
AcDbTrace
 10
129
 20
140
 30
0
 11
126.5
 21
139.5837153422272
 31
0
 12
126.5
 22
140.4162846577728
 32
0
 13
126.5
 23
140.4162846577728
 33
0
  0
MTEXT
  5
DD
100
AcDbEntity
  8
light
  6
CONTINUOUS
 62
    0
370
   -2
100
AcDbMText
 10
120
 20
141.875
 30
0
 40
2.5
 41
11.11111111111111
 71
    5
 72
    1
  1
18.0000
  7
standard
210
0
220
0
230
1
 50
0
 73
    2
 44
1
  0
ENDBLK
  5
89
330
87
100
AcDbEntity
  8
0
100
AcDbBlockEnd
  0
BLOCK
  5
8B
330
8A
100
AcDbEntity
  8
0
100
AcDbBlockBegin
  2
*D2
 70
    1
 10
0
 20
0
  3
*D2
  1

  0
LINE
  5
DE
100
AcDbEntity
  8
light
  6
ByBlock
 62
    0
370
   -2
100
AcDbLine
 10
38
 20
17
 11
50
 21
17
  0
SOLID
  5
DF
100
AcDbEntity
  8
light
  6
ByBlock
 62
    0
370
   -2
100
AcDbTrace
 10
38
 20
17
 30
0
 11
40.5
 21
17.41628465777284
 31
0
 12
40.5
 22
16.58371534222716
 32
0
 13
40.5
 23
16.58371534222716
 33
0
  0
SOLID
  5
E0
100
AcDbEntity
  8
light
  6
ByBlock
 62
    0
370
   -2
100
AcDbTrace
 10
50
 20
17
 30
0
 11
47.5
 21
16.58371534222716
 31
0
 12
47.5
 22
17.41628465777284
 32
0
 13
47.5
 23
17.41628465777284
 33
0
  0
MTEXT
  5
E1
100
AcDbEntity
  8
light
  6
CONTINUOUS
 62
    0
370
   -2
100
AcDbMText
 10
44
 20
18.875
 30
0
 40
2.5
 41
11.11111111111111
 71
    5
 72
    1
  1
12.0000
  7
standard
210
0
220
0
230
1
 50
0
 73
    2
 44
1
  0
ENDBLK
  5
8C
330
8A
100
AcDbEntity
  8
0
100
AcDbBlockEnd
  0
BLOCK
  5
8E
330
8D
100
AcDbEntity
  8
0
100
AcDbBlockBegin
  2
*D17
 70
    1
 10
0
 20
0
  3
*D17
  1

  0
LINE
  5
E2
100
AcDbEntity
  8
light
  6
ByBlock
 62
    0
370
   -2
100
AcDbLine
 10
110
 20
60
 11
128
 21
60
  0
SOLID
  5
E3
100
AcDbEntity
  8
light
  6
ByBlock
 62
    0
370
   -2
100
AcDbTrace
 10
110
 20
60
 30
0
 11
112.5
 21
60.41628465777284
 31
0
 12
112.5
 22
59.58371534222716
 32
0
 13
112.5
 23
59.58371534222716
 33
0
  0
SOLID
  5
E4
100
AcDbEntity
  8
light
  6
ByBlock
 62
    0
370
   -2
100
AcDbTrace
 10
128
 20
60
 30
0
 11
125.5
 21
59.58371534222716
 31
0
 12
125.5
 22
60.41628465777284
 32
0
 13
125.5
 23
60.41628465777284
 33
0
  0
MTEXT
  5
E5
100
AcDbEntity
  8
light
  6
CONTINUOUS
 62
    0
370
   -2
100
AcDbMText
 10
119
 20
61.875
 30
0
 40
2.5
 41
11.11111111111111
 71
    5
 72
    1
  1
18.0000
  7
standard
210
0
220
0
230
1
 50
0
 73
    2
 44
1
  0
LINE
  5
E6
100
AcDbEntity
  8
light
  6
ByBlock
 62
    0
370
   -2
100
AcDbLine
 10
110
 20
58.625
 11
110
 21
61.25
  0
LINE
  5
E7
100
AcDbEntity
  8
light
  6
ByBlock
 62
    0
370
   -2
100
AcDbLine
 10
128
 20
58.625
 11
128
 21
61.25
  0
ENDBLK
  5
8F
330
8D
100
AcDbEntity
  8
0
100
AcDbBlockEnd
  0
ENDSEC
  0
SECTION
  2
ENTITIES
  0
LINE
  5
E8
100
AcDbEntity
  8
0
  6
ByLayer
 62
  256
370
   -1
100
AcDbLine
 10
0
 20
0
 11
60
 21
0
  0
ARC
  5
E9
100
AcDbEntity
  8
0
  6
ByLayer
 62
  256
370
   -1
100
AcDbCircle
 10
170.4545454545454
 20
-6.363636363636363
 40
110.6377082162264
100
AcDbArc
 50
155.2248594311681
 51
176.702653632979
  0
LINE
  5
EA
100
AcDbEntity
  8
0
  6
ByLayer
 62
  256
370
   -1
100
AcDbLine
 10
0
 20
0
 11
0
 21
30
  0
LINE
  5
EB
100
AcDbEntity
  8
0
  6
ByLayer
 62
  256
370
   -1
100
AcDbLine
 10
50
 20
195
 11
45
 21
195
  0
LINE
  5
EC
100
AcDbEntity
  8
0
  6
ByLayer
 62
  256
370
   -1
100
AcDbLine
 10
30
 20
170
 11
10
 21
46
  0
ARC
  5
ED
100
AcDbEntity
  8
0
  6
ByLayer
 62
  256
370
   -1
100
AcDbCircle
 10
-18.03030303030303
 20
52.39393939393939
 40
28.75031041474136
100
AcDbArc
 50
308.8390043464769
 51
347.1502292373563
  0
ARC
  5
EE
100
AcDbEntity
  8
0
  6
ByLayer
 62
  256
370
   -1
100
AcDbCircle
 10
65.74074074074073
 20
165.5555555555555
 40
36.01601914588282
100
AcDbArc
 50
125.1609626139996
 51
172.911524321854
  0
LINE
  5
EF
100
AcDbEntity
  8
0
  6
ByLayer
 62
  256
370
   -1
100
AcDbLine
 10
69
 20
195
 11
44.99999999999953
 21
195
  0
LINE
  5
F0
100
AcDbEntity
  8
0
  6
ByLayer
 62
  256
370
   -1
100
AcDbLine
 10
70
 20
195
 11
69
 21
195
  0
LINE
  5
F1
100
AcDbEntity
  8
0
  6
ByLayer
 62
  256
370
   -1
100
AcDbLine
 10
70
 20
195
 11
69.99999999999999
 21
40.00000000000003
  0
CIRCLE
  5
F2
100
AcDbEntity
  8
0
  6
ByLayer
 62
  256
370
   -1
100
AcDbCircle
 10
16
 20
17
 40
6
  0
CIRCLE
  5
F3
100
AcDbEntity
  8
0
  6
ByLayer
 62
  256
370
   -1
100
AcDbCircle
 10
44
 20
17
 40
6
  0
CIRCLE
  5
F4
100
AcDbEntity
  8
0
  6
ByLayer
 62
  256
370
   -1
100
AcDbCircle
 10
46
 20
81
 40
6
  0
CIRCLE
  5
F5
100
AcDbEntity
  8
0
  6
ByLayer
 62
  256
370
   -1
100
AcDbCircle
 10
40
 20
140
 40
6
  0
CIRCLE
  5
F6
100
AcDbEntity
  8
0
  6
ByLayer
 62
  256
370
   -1
100
AcDbCircle
 10
58
 20
178
 40
6
  0
CIRCLE
  5
F7
100
AcDbEntity
  8
0
  6
ByLayer
 62
  256
370
   -1
100
AcDbCircle
 10
58
 20
150
 40
6
  0
CIRCLE
  5
F8
100
AcDbEntity
  8
light
  6
ByLayer
 62
  256
370
   -1
100
AcDbCircle
 10
39
 20
49
 40
8
  0
CIRCLE
  5
F9
100
AcDbEntity
  8
0
  6
ByLayer
 62
  256
370
   -1
100
AcDbCircle
 10
35
 20
172
 40
1.5
  0
CIRCLE
  5
FA
100
AcDbEntity
  8
0
  6
ByLayer
 62
  256
370
   -1
100
AcDbCircle
 10
65.5
 20
40
 40
1.5
  0
CIRCLE
  5
FB
100
AcDbEntity
  8
0
  6
ByLayer
 62
  256
370
   -1
100
AcDbCircle
 10
55
 20
120
 40
3.5
  0
DIMENSION
  5
FC
100
AcDbEntity
  8
light
  6
ByLayer
 62
  256
370
   -1
100
AcDbDimension
  2
*D1
 10
10
 20
17
 30
0
 11
16
 21
18.875
 31
0
 70
   35
 71
    5
  3
Standard
 53
0
210
0
220
0
230
1
100
AcDbDiametricDimension
 15
22
 25
17
 35
0
 40
0
  0
DIMENSION
  5
FD
100
AcDbEntity
  8
light
  6
ByLayer
 62
  256
370
   -1
100
AcDbDimension
  2
*D2
 10
38
 20
17
 30
0
 11
44
 21
18.875
 31
0
 70
   35
 71
    5
  3
Standard
 53
0
210
0
220
0
230
1
100
AcDbDiametricDimension
 15
50
 25
17
 35
0
 40
0
  0
DIMENSION
  5
FE
100
AcDbEntity
  8
light
  6
ByLayer
 62
  256
370
   -1
100
AcDbDimension
  2
*D3
 10
31
 20
49
 30
0
 11
39
 21
50.875
 31
0
 70
   35
 71
    5
  3
Standard
 53
0
210
0
220
0
230
1
100
AcDbDiametricDimension
 15
47
 25
49
 35
0
 40
0
  0
DIMENSION
  5
FF
100
AcDbEntity
  8
light
  6
ByLayer
 62
  256
370
   -1
100
AcDbDimension
  2
*D4
 10
40
 20
81
 30
0
 11
46
 21
82.875
 31
0
 70
   35
 71
    5
  3
Standard
 53
0
210
0
220
0
230
1
100
AcDbDiametricDimension
 15
52
 25
81
 35
0
 40
0
  0
DIMENSION
  5
100
100
AcDbEntity
  8
light
  6
ByLayer
 62
  256
370
   -1
100
AcDbDimension
  2
*D5
 10
51.5
 20
120
 30
0
 11
55
 21
121.875
 31
0
 70
   35
 71
    5
  3
Standard
 53
0
210
0
220
0
230
1
100
AcDbDiametricDimension
 15
58.5
 25
120
 35
0
 40
0
  0
DIMENSION
  5
101
100
AcDbEntity
  8
light
  6
ByLayer
 62
  256
370
   -1
100
AcDbDimension
  2
*D6
 10
34
 20
140
 30
0
 11
40
 21
141.875
 31
0
 70
   35
 71
    5
  3
Standard
 53
0
210
0
220
0
230
1
100
AcDbDiametricDimension
 15
46
 25
140
 35
0
 40
0
  0
DIMENSION
  5
102
100
AcDbEntity
  8
light
  6
ByLayer
 62
  256
370
   -1
100
AcDbDimension
  2
*D7
 10
52
 20
150
 30
0
 11
58
 21
151.875
 31
0
 70
   35
 71
    5
  3
Standard
 53
0
210
0
220
0
230
1
100
AcDbDiametricDimension
 15
64
 25
150
 35
0
 40
0
  0
DIMENSION
  5
103
100
AcDbEntity
  8
light
  6
ByLayer
 62
  256
370
   -1
100
AcDbDimension
  2
*D8
 10
52
 20
178
 30
0
 11
58
 21
179.875
 31
0
 70
   35
 71
    5
  3
Standard
 53
0
210
0
220
0
230
1
100
AcDbDiametricDimension
 15
64
 25
178
 35
0
 40
0
  0
LINE
  5
104
100
AcDbEntity
  8
light
  6
ByLayer
 62
  256
370
   -1
100
AcDbLine
 10
80
 20
0
 11
140
 21
0
  0
ARC
  5
105
100
AcDbEntity
  8
light
  6
ByLayer
 62
  256
370
   -1
100
AcDbCircle
 10
250.4545454545454
 20
-6.363636363636363
 40
110.6377082162264
100
AcDbArc
 50
155.2248594311681
 51
176.702653632979
  0
LINE
  5
106
100
AcDbEntity
  8
light
  6
ByLayer
 62
  256
370
   -1
100
AcDbLine
 10
80
 20
0
 11
80
 21
30
  0
LINE
  5
107
100
AcDbEntity
  8
light
  6
ByLayer
 62
  256
370
   -1
100
AcDbLine
 10
130
 20
195
 11
125
 21
195
  0
LINE
  5
108
100
AcDbEntity
  8
light
  6
ByLayer
 62
  256
370
   -1
100
AcDbLine
 10
110
 20
170
 11
90
 21
46
  0
ARC
  5
109
100
AcDbEntity
  8
light
  6
ByLayer
 62
  256
370
   -1
100
AcDbCircle
 10
61.96969696969697
 20
52.39393939393939
 40
28.75031041474136
100
AcDbArc
 50
308.8390043464769
 51
347.1502292373563
  0
ARC
  5
10A
100
AcDbEntity
  8
light
  6
ByLayer
 62
  256
370
   -1
100
AcDbCircle
 10
145.7407407407408
 20
165.5555555555555
 40
36.01601914588282
100
AcDbArc
 50
125.1609626139996
 51
172.911524321854
  0
LINE
  5
10B
100
AcDbEntity
  8
light
  6
ByLayer
 62
  256
370
   -1
100
AcDbLine
 10
149
 20
195
 11
124.9999999999995
 21
195
  0
LINE
  5
10C
100
AcDbEntity
  8
light
  6
ByLayer
 62
  256
370
   -1
100
AcDbLine
 10
150
 20
195
 11
149
 21
195
  0
LINE
  5
10D
100
AcDbEntity
  8
light
  6
ByLayer
 62
  256
370
   -1
100
AcDbLine
 10
150
 20
195
 11
150
 21
40.00000000000003
  0
LWPOLYLINE
  5
10E
100
AcDbEntity
  8
light
  6
ByLayer
 62
  256
370
   -1
100
AcDbPolyline
 90
    4
 70
    1
 43
0
 10
110
 20
40
 10
128
 20
40
 10
128
 20
58
 10
110
 20
58
  0
CIRCLE
  5
10F
100
AcDbEntity
  8
light
  6
ByLayer
 62
  256
370
   -1
100
AcDbCircle
 10
138
 20
178
 40
9
  0
CIRCLE
  5
110
100
AcDbEntity
  8
light
  6
ByLayer
 62
  256
370
   -1
100
AcDbCircle
 10
138
 20
150
 40
9
  0
CIRCLE
  5
111
100
AcDbEntity
  8
light
  6
ByLayer
 62
  256
370
   -1
100
AcDbCircle
 10
120
 20
140
 40
9
  0
CIRCLE
  5
112
100
AcDbEntity
  8
light
  6
ByLayer
 62
  256
370
   -1
100
AcDbCircle
 10
96
 20
17
 40
9
  0
CIRCLE
  5
113
100
AcDbEntity
  8
light
  6
ByLayer
 62
  256
370
   -1
100
AcDbCircle
 10
124
 20
17
 40
9
  0
CIRCLE
  5
114
100
AcDbEntity
  8
light
  6
ByLayer
 62
  256
370
   -1
100
AcDbCircle
 10
126
 20
81
 40
9
  0
CIRCLE
  5
115
100
AcDbEntity
  8
light
  6
ByLayer
 62
  256
370
   -1
100
AcDbCircle
 10
135
 20
120
 40
6.5
  0
CIRCLE
  5
116
100
AcDbEntity
  8
light
  6
ByLayer
 62
  256
370
   -1
100
AcDbCircle
 10
115
 20
172
 40
1.5
  0
CIRCLE
  5
117
100
AcDbEntity
  8
light
  6
ByLayer
 62
  256
370
   -1
100
AcDbCircle
 10
145.5
 20
40
 40
1.5
  0
DIMENSION
  5
118
100
AcDbEntity
  8
light
  6
ByLayer
 62
  256
370
   -1
100
AcDbDimension
  2
*D9
 10
129
 20
178
 30
0
 11
138
 21
179.875
 31
0
 70
   35
 71
    5
  3
Standard
 53
0
210
0
220
0
230
1
100
AcDbDiametricDimension
 15
147
 25
178
 35
0
 40
0
  0
DIMENSION
  5
119
100
AcDbEntity
  8
light
  6
ByLayer
 62
  256
370
   -1
100
AcDbDimension
  2
*D10
 10
129
 20
150
 30
0
 11
138
 21
151.875
 31
0
 70
   35
 71
    5
  3
Standard
 53
0
210
0
220
0
230
1
100
AcDbDiametricDimension
 15
147
 25
150
 35
0
 40
0
  0
DIMENSION
  5
11A
100
AcDbEntity
  8
light
  6
ByLayer
 62
  256
370
   -1
100
AcDbDimension
  2
*D11
 10
111
 20
140
 30
0
 11
120
 21
141.875
 31
0
 70
   35
 71
    5
  3
Standard
 53
0
210
0
220
0
230
1
100
AcDbDiametricDimension
 15
129
 25
140
 35
0
 40
0
  0
DIMENSION
  5
11B
100
AcDbEntity
  8
light
  6
ByLayer
 62
  256
370
   -1
100
AcDbDimension
  2
*D12
 10
128.5
 20
120
 30
0
 11
135
 21
121.875
 31
0
 70
   35
 71
    5
  3
Standard
 53
0
210
0
220
0
230
1
100
AcDbDiametricDimension
 15
141.5
 25
120
 35
0
 40
0
  0
DIMENSION
  5
11C
100
AcDbEntity
  8
light
  6
ByLayer
 62
  256
370
   -1
100
AcDbDimension
  2
*D13
 10
117
 20
81
 30
0
 11
126
 21
82.875
 31
0
 70
   35
 71
    5
  3
Standard
 53
0
210
0
220
0
230
1
100
AcDbDiametricDimension
 15
135
 25
81
 35
0
 40
0
  0
DIMENSION
  5
11D
100
AcDbEntity
  8
light
  6
ByLayer
 62
  256
370
   -1
100
AcDbDimension
  2
*D14
 10
87
 20
17
 30
0
 11
96
 21
18.875
 31
0
 70
   35
 71
    5
  3
Standard
 53
0
210
0
220
0
230
1
100
AcDbDiametricDimension
 15
105
 25
17
 35
0
 40
0
  0
DIMENSION
  5
11E
100
AcDbEntity
  8
light
  6
ByLayer
 62
  256
370
   -1
100
AcDbDimension
  2
*D15
 10
115
 20
17
 30
0
 11
124
 21
18.875
 31
0
 70
   35
 71
    5
  3
Standard
 53
0
210
0
220
0
230
1
100
AcDbDiametricDimension
 15
133
 25
17
 35
0
 40
0
  0
DIMENSION
  5
11F
100
AcDbEntity
  8
light
  6
ByLayer
 62
  256
370
   -1
100
AcDbDimension
  2
*D16
 10
140
 20
40
 30
0
 11
138.125
 21
49
 31
0
 70
   32
 71
    5
  3
Standard
 53
0
210
0
220
0
230
1
100
AcDbAlignedDimension
 13
128
 23
58
 33
0
 14
128
 24
40
 34
0
 50
90
100
AcDbRotatedDimension
  0
DIMENSION
  5
120
100
AcDbEntity
  8
light
  6
ByLayer
 62
  256
370
   -1
100
AcDbDimension
  2
*D17
 10
128
 20
60
 30
0
 11
119
 21
61.875
 31
0
 70
   32
 71
    5
  3
Standard
 53
0
210
0
220
0
230
1
100
AcDbAlignedDimension
 13
110
 23
58
 33
0
 14
128
 24
58
 34
0
100
AcDbRotatedDimension
  0
LINE
  5
121
100
AcDbEntity
  8
digger
  6
ByLayer
 62
  256
370
   -1
100
AcDbLine
 10
160
 20
0
 11
220
 21
0
  0
ARC
  5
122
100
AcDbEntity
  8
digger
  6
ByLayer
 62
  256
370
   -1
100
AcDbCircle
 10
330.4545454545454
 20
-6.363636363636363
 40
110.6377082162264
100
AcDbArc
 50
155.2248594311681
 51
176.702653632979
  0
LINE
  5
123
100
AcDbEntity
  8
digger
  6
ByLayer
 62
  256
370
   -1
100
AcDbLine
 10
160
 20
0
 11
160
 21
30
  0
LINE
  5
124
100
AcDbEntity
  8
digger
  6
ByLayer
 62
  256
370
   -1
100
AcDbLine
 10
210
 20
195
 11
205
 21
195
  0
LINE
  5
125
100
AcDbEntity
  8
digger
  6
ByLayer
 62
  256
370
   -1
100
AcDbLine
 10
190
 20
170
 11
170
 21
46
  0
ARC
  5
126
100
AcDbEntity
  8
digger
  6
ByLayer
 62
  256
370
   -1
100
AcDbCircle
 10
141.969696969697
 20
52.39393939393939
 40
28.75031041474136
100
AcDbArc
 50
308.8390043464769
 51
347.1502292373563
  0
ARC
  5
127
100
AcDbEntity
  8
digger
  6
ByLayer
 62
  256
370
   -1
100
AcDbCircle
 10
225.7407407407408
 20
165.5555555555555
 40
36.01601914588282
100
AcDbArc
 50
125.1609626139996
 51
172.911524321854
  0
LINE
  5
128
100
AcDbEntity
  8
digger
  6
ByLayer
 62
  256
370
   -1
100
AcDbLine
 10
229
 20
195
 11
204.9999999999995
 21
195
  0
LINE
  5
129
100
AcDbEntity
  8
digger
  6
ByLayer
 62
  256
370
   -1
100
AcDbLine
 10
230
 20
195
 11
229
 21
195
  0
LINE
  5
12A
100
AcDbEntity
  8
digger
  6
ByLayer
 62
  256
370
   -1
100
AcDbLine
 10
230
 20
195
 11
230
 21
40.00000000000003
  0
CIRCLE
  5
12B
100
AcDbEntity
  8
digger
  6
ByLayer
 62
  256
370
   -1
100
AcDbCircle
 10
176
 20
17
 40
6
  0
CIRCLE
  5
12C
100
AcDbEntity
  8
digger
  6
ByLayer
 62
  256
370
   -1
100
AcDbCircle
 10
204
 20
17
 40
6
  0
CIRCLE
  5
12D
100
AcDbEntity
  8
digger
  6
ByLayer
 62
  256
370
   -1
100
AcDbCircle
 10
206
 20
81
 40
6
  0
CIRCLE
  5
12E
100
AcDbEntity
  8
digger
  6
ByLayer
 62
  256
370
   -1
100
AcDbCircle
 10
200
 20
140
 40
6
  0
CIRCLE
  5
12F
100
AcDbEntity
  8
digger
  6
ByLayer
 62
  256
370
   -1
100
AcDbCircle
 10
218
 20
178
 40
6
  0
CIRCLE
  5
130
100
AcDbEntity
  8
digger
  6
ByLayer
 62
  256
370
   -1
100
AcDbCircle
 10
218
 20
150
 40
6
  0
CIRCLE
  5
131
100
AcDbEntity
  8
digger
  6
ByLayer
 62
  256
370
   -1
100
AcDbCircle
 10
195
 20
172
 40
1.5
  0
CIRCLE
  5
132
100
AcDbEntity
  8
digger
  6
ByLayer
 62
  256
370
   -1
100
AcDbCircle
 10
225.5
 20
40
 40
1.5
  0
CIRCLE
  5
133
100
AcDbEntity
  8
digger
  6
ByLayer
 62
  256
370
   -1
100
AcDbCircle
 10
215
 20
120
 40
3.5
  0
LWPOLYLINE
  5
134
100
AcDbEntity
  8
digger
  6
ByLayer
 62
  256
370
   -1
100
AcDbPolyline
 90
    4
 70
    1
 43
0
 10
190
 20
40
 10
208
 20
40
 10
208
 20
58
 10
190
 20
58
  0
LINE
  5
135
100
AcDbEntity
  8
clear
  6
ByLayer
 62
  256
370
   -1
100
AcDbLine
 10
390
 20
0
 11
330
 21
0
  0
ARC
  5
136
100
AcDbEntity
  8
clear
  6
ByLayer
 62
  256
370
   -1
100
AcDbCircle
 10
219.5454545454546
 20
-6.363636363636363
 40
110.6377082162264
100
AcDbArc
 50
3.297346367021036
 51
24.77514056883193
  0
LINE
  5
137
100
AcDbEntity
  8
clear
  6
ByLayer
 62
  256
370
   -1
100
AcDbLine
 10
390
 20
0
 11
390
 21
30
  0
LINE
  5
138
100
AcDbEntity
  8
clear
  6
ByLayer
 62
  256
370
   -1
100
AcDbLine
 10
340
 20
195
 11
345
 21
195
  0
LINE
  5
139
100
AcDbEntity
  8
clear
  6
ByLayer
 62
  256
370
   -1
100
AcDbLine
 10
360
 20
170
 11
380
 21
46
  0
ARC
  5
13A
100
AcDbEntity
  8
clear
  6
ByLayer
 62
  256
370
   -1
100
AcDbCircle
 10
408.030303030303
 20
52.39393939393939
 40
28.75031041474136
100
AcDbArc
 50
192.8497707626437
 51
231.1609956535231
  0
ARC
  5
13B
100
AcDbEntity
  8
clear
  6
ByLayer
 62
  256
370
   -1
100
AcDbCircle
 10
324.2592592592592
 20
165.5555555555555
 40
36.01601914588282
100
AcDbArc
 50
7.08847567814603
 51
54.83903738600044
  0
LINE
  5
13C
100
AcDbEntity
  8
clear
  6
ByLayer
 62
  256
370
   -1
100
AcDbLine
 10
321
 20
195
 11
345.0000000000005
 21
195
  0
LINE
  5
13D
100
AcDbEntity
  8
clear
  6
ByLayer
 62
  256
370
   -1
100
AcDbLine
 10
320
 20
40
 11
320
 21
195
  0
LINE
  5
13E
100
AcDbEntity
  8
clear
  6
ByLayer
 62
  256
370
   -1
100
AcDbLine
 10
320
 20
195
 11
321
 21
195
  0
LINE
  5
13F
100
AcDbEntity
  8
digger
  6
ByLayer
 62
  256
370
   -1
100
AcDbLine
 10
470
 20
0
 11
410
 21
0
  0
ARC
  5
140
100
AcDbEntity
  8
digger
  6
ByLayer
 62
  256
370
   -1
100
AcDbCircle
 10
299.5454545454546
 20
-6.363636363636363
 40
110.6377082162264
100
AcDbArc
 50
3.297346367021036
 51
24.77514056883193
  0
LINE
  5
141
100
AcDbEntity
  8
digger
  6
ByLayer
 62
  256
370
   -1
100
AcDbLine
 10
470
 20
0
 11
470
 21
30
  0
LINE
  5
142
100
AcDbEntity
  8
digger
  6
ByLayer
 62
  256
370
   -1
100
AcDbLine
 10
420
 20
195
 11
425
 21
195
  0
LINE
  5
143
100
AcDbEntity
  8
digger
  6
ByLayer
 62
  256
370
   -1
100
AcDbLine
 10
440
 20
170
 11
460
 21
46
  0
ARC
  5
144
100
AcDbEntity
  8
digger
  6
ByLayer
 62
  256
370
   -1
100
AcDbCircle
 10
488.030303030303
 20
52.39393939393939
 40
28.75031041474136
100
AcDbArc
 50
192.8497707626437
 51
231.1609956535231
  0
ARC
  5
145
100
AcDbEntity
  8
digger
  6
ByLayer
 62
  256
370
   -1
100
AcDbCircle
 10
404.2592592592592
 20
165.5555555555555
 40
36.01601914588282
100
AcDbArc
 50
7.08847567814603
 51
54.83903738600044
  0
LINE
  5
146
100
AcDbEntity
  8
digger
  6
ByLayer
 62
  256
370
   -1
100
AcDbLine
 10
401
 20
195
 11
425.0000000000005
 21
195
  0
LINE
  5
147
100
AcDbEntity
  8
digger
  6
ByLayer
 62
  256
370
   -1
100
AcDbLine
 10
400
 20
40
 11
400
 21
195
  0
LINE
  5
148
100
AcDbEntity
  8
digger
  6
ByLayer
 62
  256
370
   -1
100
AcDbLine
 10
400
 20
195
 11
401
 21
195
  0
LINE
  5
149
100
AcDbEntity
  8
right_frame
  6
ByLayer
 62
  256
370
   -1
100
AcDbLine
 10
310
 20
0
 11
250
 21
0
  0
ARC
  5
14A
100
AcDbEntity
  8
right_frame
  6
ByLayer
 62
  256
370
   -1
100
AcDbCircle
 10
139.5454545454546
 20
-6.363636363636363
 40
110.6377082162264
100
AcDbArc
 50
3.297346367021036
 51
24.77514056883193
  0
LINE
  5
14B
100
AcDbEntity
  8
right_frame
  6
ByLayer
 62
  256
370
   -1
100
AcDbLine
 10
310
 20
0
 11
310
 21
30
  0
LINE
  5
14C
100
AcDbEntity
  8
right_frame
  6
ByLayer
 62
  256
370
   -1
100
AcDbLine
 10
260
 20
195
 11
265
 21
195
  0
LINE
  5
14D
100
AcDbEntity
  8
right_frame
  6
ByLayer
 62
  256
370
   -1
100
AcDbLine
 10
280
 20
170
 11
300
 21
46
  0
ARC
  5
14E
100
AcDbEntity
  8
right_frame
  6
ByLayer
 62
  256
370
   -1
100
AcDbCircle
 10
328.030303030303
 20
52.39393939393939
 40
28.75031041474136
100
AcDbArc
 50
192.8497707626437
 51
231.1609956535231
  0
ARC
  5
14F
100
AcDbEntity
  8
right_frame
  6
ByLayer
 62
  256
370
   -1
100
AcDbCircle
 10
244.2592592592592
 20
165.5555555555555
 40
36.01601914588282
100
AcDbArc
 50
7.08847567814603
 51
54.83903738600044
  0
LINE
  5
150
100
AcDbEntity
  8
right_frame
  6
ByLayer
 62
  256
370
   -1
100
AcDbLine
 10
241
 20
195
 11
265.0000000000005
 21
195
  0
LINE
  5
151
100
AcDbEntity
  8
right_frame
  6
ByLayer
 62
  256
370
   -1
100
AcDbLine
 10
240
 20
40
 11
240
 21
195
  0
LINE
  5
152
100
AcDbEntity
  8
right_frame
  6
ByLayer
 62
  256
370
   -1
100
AcDbLine
 10
240
 20
195
 11
241
 21
195
  0
CIRCLE
  5
153
100
AcDbEntity
  8
right_frame
  6
ByLayer
 62
  256
370
   -1
100
AcDbCircle
 10
256
 20
176
 40
12
  0
CIRCLE
  5
154
100
AcDbEntity
  8
right_frame
  6
ByLayer
 62
  256
370
   -1
100
AcDbCircle
 10
261
 20
138
 40
16
  0
CIRCLE
  5
155
100
AcDbEntity
  8
right_frame
  6
ByLayer
 62
  256
370
   -1
100
AcDbCircle
 10
264
 20
90
 40
20
  0
CIRCLE
  5
156
100
AcDbEntity
  8
right_frame
  6
ByLayer
 62
  256
370
   -1
100
AcDbCircle
 10
274
 20
36
 40
22
  0
DIMENSION
  5
157
100
AcDbEntity
  8
right_frame
  6
ByLayer
 62
  256
370
   -1
100
AcDbDimension
  2
*D18
 10
244
 20
90
 30
0
 11
264
 21
91.875
 31
0
 70
   35
 71
    5
  3
Standard
 53
0
210
0
220
0
230
1
100
AcDbDiametricDimension
 15
284
 25
90
 35
0
 40
0
  0
DIMENSION
  5
158
100
AcDbEntity
  8
right_frame
  6
ByLayer
 62
  256
370
   -1
100
AcDbDimension
  2
*D19
 10
245
 20
138
 30
0
 11
261
 21
139.875
 31
0
 70
   35
 71
    5
  3
Standard
 53
0
210
0
220
0
230
1
100
AcDbDiametricDimension
 15
277
 25
138
 35
0
 40
0
  0
DIMENSION
  5
159
100
AcDbEntity
  8
right_frame
  6
ByLayer
 62
  256
370
   -1
100
AcDbDimension
  2
*D20
 10
244
 20
176
 30
0
 11
256
 21
177.875
 31
0
 70
   35
 71
    5
  3
Standard
 53
0
210
0
220
0
230
1
100
AcDbDiametricDimension
 15
268
 25
176
 35
0
 40
0
  0
DIMENSION
  5
15A
100
AcDbEntity
  8
right_frame
  6
ByLayer
 62
  256
370
   -1
100
AcDbDimension
  2
*D21
 10
252
 20
36
 30
0
 11
274
 21
37.875
 31
0
 70
   35
 71
    5
  3
Standard
 53
0
210
0
220
0
230
1
100
AcDbDiametricDimension
 15
296
 25
36
 35
0
 40
0
  0
ENDSEC
  0
SECTION
  2
OBJECTS
  0
DICTIONARY
  5
C
330
0
100
AcDbDictionary
281
    1
  3
ACAD_GROUP
350
D
  0
DICTIONARY
  5
D
330
C
100
AcDbDictionary
281
    1
  0
ENDSEC
  0
EOF
