<?xml version="1.0"?>
<svg xmlns="http://www.w3.org/2000/svg" xmlns:lc="http://www.librecad.org" xmlns:xlink="http://www.w3.org/1999/xlink" width="70mm" height="195mm" viewBox="0 0 70 195">
    <defs>
        <g id="68589" lc:blockname="misc_left_back_invert">
            <g lc:layername="0" lc:is_locked="false" lc:is_construction="false" fill="none" stroke="black" stroke-width="1">
                <line x1="-390" y1="395" x2="-450" y2="395"/>
                <path d="M-450,395 A110.63770822,110.63770822 0 0,0 -460,355 "/>
                <line x1="-390" y1="395" x2="-390" y2="365"/>
                <line x1="-440" y1="200" x2="-435" y2="200"/>
                <line x1="-420" y1="225" x2="-400" y2="349"/>
                <path d="M-400,349 A28.75031041,28.75031041 0 0,0 -390,365 "/>
                <path d="M-420,225 A36.01601915,36.01601915 0 0,0 -435,200 "/>
                <line x1="-459" y1="200" x2="-435" y2="200"/>
                <line x1="-460" y1="200" x2="-459" y2="200"/>
                <line x1="-460" y1="200" x2="-460" y2="355"/>
                <circle cx="-406" cy="378" r="6"/>
                <circle cx="-434" cy="378" r="6"/>
                <circle cx="-436" cy="314" r="6"/>
                <circle cx="-430" cy="255" r="6"/>
                <circle cx="-448" cy="217" r="6"/>
                <circle cx="-448" cy="245" r="6"/>
                <circle cx="-429" cy="346" r="8"/>
                <circle cx="-425" cy="223" r="1.5"/>
                <circle cx="-455.5" cy="355" r="1.5"/>
                <circle cx="-445" cy="275" r="3.5"/>
                <circle cx="-420" cy="389" r="1.5"/>
                <circle cx="-395" cy="389" r="1.5"/>
                <circle cx="-420" cy="378" r="1.5"/>
                <circle cx="-395" cy="378" r="1.5"/>
                <circle cx="-420" cy="367" r="1.5"/>
                <circle cx="-395" cy="367" r="1.5"/>
                <circle cx="-444.5" cy="389" r="1.5"/>
                <circle cx="-444.5" cy="378" r="1.5"/>
                <circle cx="-444.5" cy="367" r="1.5"/>
                <circle cx="-443" cy="346" r="1.5"/>
                <circle cx="-425" cy="314" r="1.5"/>
                <circle cx="-447" cy="314" r="1.5"/>
                <circle cx="-447" cy="304" r="1.5"/>
                <circle cx="-447" cy="324" r="1.5"/>
                <circle cx="-425" cy="304" r="1.5"/>
                <circle cx="-425" cy="324" r="1.5"/>
                <circle cx="-450" cy="265" r="1.5"/>
                <circle cx="-439" cy="255" r="1.5"/>
                <circle cx="-439" cy="245" r="1.5"/>
                <circle cx="-439" cy="235" r="1.5"/>
                <circle cx="-439" cy="225" r="1.5"/>
                <circle cx="-455" cy="255" r="1.5"/>
                <circle cx="-455" cy="235" r="1.5"/>
                <circle cx="-455" cy="225" r="1.5"/>
                <circle cx="-455" cy="207" r="1.5"/>
                <circle cx="-439" cy="207" r="1.5"/>
                <circle cx="-421.5" cy="265" r="1.5"/>
                <circle cx="-421.5" cy="245" r="1.5"/>
                <circle cx="-439" cy="265" r="1.5"/>
            </g>
        </g>
    </defs>
    <g lc:layername="0" lc:is_locked="false" lc:is_construction="false" fill="none" stroke="black" stroke-width="1">
        <line x1="70" y1="195" x2="10" y2="195"/>
        <path d="M10,195 A110.63770822,110.63770822 0 0,0 0,155 "/>
        <line x1="70" y1="195" x2="70" y2="165"/>
        <line x1="20" y1="0" x2="25" y2="0"/>
        <line x1="40" y1="25" x2="60" y2="149"/>
        <path d="M60,149 A28.75031041,28.75031041 0 0,0 70,165 "/>
        <path d="M40,25 A36.01601915,36.01601915 0 0,0 25,0 "/>
        <line x1="1" y1="0" x2="25" y2="0"/>
        <line x1="0" y1="0" x2="1" y2="0"/>
        <line x1="0" y1="0" x2="0" y2="155"/>
        <circle cx="5" cy="150" r="1.5"/>
        <circle cx="53" cy="137" r="1.5"/>
        <circle cx="5" cy="87" r="1.5"/>
        <circle cx="38" cy="42" r="1.5"/>
        <circle cx="19" cy="25" r="16"/>
        <circle cx="23" cy="64" r="20"/>
        <circle cx="27" cy="112" r="24"/>
        <circle cx="34" cy="164" r="24"/>
    </g>
</svg>
