999
dxfrw 0.6.3
  0
SECTION
  2
HEADER
  9
$ACADVER
  1
AC1021
  9
$DWGCODEPAGE
  3
ANSI_1252
  9
$INSBASE
 10
0
 20
0
 30
0
  9
$EXTMIN
 10
0
 20
-2.842170943040401e-014
 30
0
  9
$EXTMAX
 10
350
 20
521.5
 30
0
  9
$LIMMIN
 10
0
 20
0
  9
$LIMMAX
 10
420
 20
297
  9
$ORTHOMODE
 70
    0
  9
$REGENMODE
 70
    1
  9
$FILLMODE
 70
    1
  9
$QTEXTMODE
 70
    0
  9
$MIRRTEXT
 70
    0
  9
$LTSCALE
 40
1
  9
$ATTMODE
 70
    0
  9
$TEXTSIZE
 40
2.5
  9
$TRACEWID
 40
15.68
  9
$TEXTSTYLE
  7
STANDARD
  9
$CLAYER
  8
0
  9
$CELTYPE
  6
BYLAYER
  9
$CECOLOR
 62
  256
  9
$CELTSCALE
 40
1
  9
$DISPSILH
 70
    0
  9
$DIMSCALE
 40
2.5
  9
$DIMASZ
 40
2.5
  9
$DIMEXO
 40
0.625
  9
$DIMDLI
 40
3.75
  9
$DIMRND
 40
0
  9
$DIMDLE
 40
0
  9
$DIMEXE
 40
1.25
  9
$DIMTP
 40
0
  9
$DIMTM
 40
0
  9
$DIMTXT
 40
2.5
  9
$DIMCEN
 40
2.5
  9
$DIMTSZ
 40
0
  9
$DIMTOL
 70
    0
  9
$DIMLIM
 70
    0
  9
$DIMTIH
 70
    0
  9
$DIMTOH
 70
    0
  9
$DIMSE1
 70
    0
  9
$DIMSE2
 70
    0
  9
$DIMTAD
 70
    1
  9
$DIMZIN
 70
    8
  9
$DIMBLK
  1

  9
$DIMASO
 70
    1
  9
$DIMSHO
 70
    1
  9
$DIMPOST
  1

  9
$DIMAPOST
  1

  9
$DIMALT
 70
    0
  9
$DIMALTD
 70
    3
  9
$DIMALTF
 40
0.03937
  9
$DIMLFAC
 40
1
  9
$DIMTOFL
 70
    1
  9
$DIMTVP
 40
0
  9
$DIMTIX
 70
    0
  9
$DIMSOXD
 70
    0
  9
$DIMSAH
 70
    0
  9
$DIMBLK1
  1

  9
$DIMBLK2
  1

  9
$DIMSTYLE
  2
STANDARD
  9
$DIMCLRD
 70
    0
  9
$DIMCLRE
 70
    0
  9
$DIMCLRT
 70
    0
  9
$DIMTFAC
 40
1
  9
$DIMGAP
 40
0.625
  9
$DIMJUST
 70
    0
  9
$DIMSD1
 70
    0
  9
$DIMSD2
 70
    0
  9
$DIMTOLJ
 70
    0
  9
$DIMTZIN
 70
    8
  9
$DIMALTZ
 70
    0
  9
$DIMALTTZ
 70
    0
  9
$DIMUPT
 70
    0
  9
$DIMDEC
 70
    2
  9
$DIMTDEC
 70
    2
  9
$DIMALTU
 70
    2
  9
$DIMALTTD
 70
    3
  9
$DIMTXSTY
  7
STANDARD
  9
$DIMAUNIT
 70
    0
  9
$DIMADEC
 70
    0
  9
$DIMALTRND
 40
0
  9
$DIMAZIN
 70
    0
  9
$DIMDSEP
 70
   44
  9
$DIMATFIT
 70
    3
  9
$DIMFRAC
 70
    0
  9
$DIMLDRBLK
  1
STANDARD
  9
$DIMLUNIT
 70
    2
  9
$DIMLWD
 70
   -2
  9
$DIMLWE
 70
   -2
  9
$DIMTMOVE
 70
    0
  9
$DIMFXL
 40
1
  9
$DIMFXLON
 70
    0
  9
$DIMJOGANG
 40
0.7854
  9
$DIMTFILL
 70
    0
  9
$DIMTFILLCLR
 70
    0
  9
$DIMARCSYM
 70
    0
  9
$DIMLTYPE
  6

  9
$DIMLTEX1
  6

  9
$DIMLTEX2
  6

  9
$LUNITS
 70
    2
  9
$LUPREC
 70
    4
  9
$SKETCHINC
 40
1
  9
$FILLETRAD
 40
0
  9
$AUNITS
 70
    0
  9
$AUPREC
 70
    2
  9
$MENU
  1
.
  9
$ELEVATION
 40
0
  9
$PELEVATION
 40
0
  9
$THICKNESS
 40
0
  9
$LIMCHECK
 70
    0
  9
$CHAMFERA
 40
0
  9
$CHAMFERB
 40
0
  9
$CHAMFERC
 40
0
  9
$CHAMFERD
 40
0
  9
$SKPOLY
 70
    0
  9
$USRTIMER
 70
    1
  9
$ANGBASE
 50
0
  9
$ANGDIR
 70
    0
  9
$PDMODE
 70
   34
  9
$PDSIZE
 40
0
  9
$PLINEWID
 40
0
  9
$SPLFRAME
 70
    0
  9
$SPLINETYPE
 70
    2
  9
$SPLINESEGS
 70
    8
  9
$HANDSEED
  5
20000
  9
$SURFTAB1
 70
    6
  9
$SURFTAB2
 70
    6
  9
$SURFTYPE
 70
    6
  9
$SURFU
 70
    6
  9
$SURFV
 70
    6
  9
$UCSBASE
  2

  9
$UCSNAME
  2

  9
$UCSORG
 10
0
 20
0
 30
0
  9
$UCSXDIR
 10
1
 20
0
 30
0
  9
$UCSYDIR
 10
0
 20
1
 30
0
  9
$UCSORTHOREF
  2

  9
$UCSORTHOVIEW
 70
    0
  9
$UCSORGTOP
 10
0
 20
0
 30
0
  9
$UCSORGBOTTOM
 10
0
 20
0
 30
0
  9
$UCSORGLEFT
 10
0
 20
0
 30
0
  9
$UCSORGRIGHT
 10
0
 20
0
 30
0
  9
$UCSORGFRONT
 10
0
 20
0
 30
0
  9
$UCSORGBACK
 10
0
 20
0
 30
0
  9
$PUCSBASE
  2

  9
$PUCSNAME
  2

  9
$PUCSORG
 10
0
 20
0
 30
0
  9
$PUCSXDIR
 10
1
 20
0
 30
0
  9
$PUCSYDIR
 10
0
 20
1
 30
0
  9
$PUCSORTHOREF
  2

  9
$PUCSORTHOVIEW
 70
    0
  9
$PUCSORGTOP
 10
0
 20
0
 30
0
  9
$PUCSORGBOTTOM
 10
0
 20
0
 30
0
  9
$PUCSORGLEFT
 10
0
 20
0
 30
0
  9
$PUCSORGRIGHT
 10
0
 20
0
 30
0
  9
$PUCSORGFRONT
 10
0
 20
0
 30
0
  9
$PUCSORGBACK
 10
0
 20
0
 30
0
  9
$USERI1
 70
    0
  9
$USERI2
 70
    0
  9
$USERI3
 70
    0
  9
$USERI4
 70
    0
  9
$USERI5
 70
    0
  9
$USERR1
 40
0
  9
$USERR2
 40
0
  9
$USERR3
 40
0
  9
$USERR4
 40
0
  9
$USERR5
 40
0
  9
$WORLDVIEW
 70
    1
  9
$SHADEDGE
 70
    3
  9
$SHADEDIF
 70
   70
  9
$TILEMODE
 70
    1
  9
$MAXACTVP
 70
   64
  9
$PINSBASE
 10
0
 20
0
 30
0
  9
$PLIMCHECK
 70
    0
  9
$PEXTMIN
 10
0
 20
0
 30
0
  9
$PEXTMAX
 10
0
 20
0
 30
0
  9
$SNAPSTYLE
 70
    0
  9
$PLIMMIN
 10
0
 20
0
  9
$PLIMMAX
 10
297
 20
210
  9
$UNITMODE
 70
    0
  9
$VISRETAIN
 70
    1
  9
$PLINEGEN
 70
    0
  9
$PSLTSCALE
 70
    1
  9
$TREEDEPTH
 70
 3020
  9
$CMLSTYLE
  2
Standard
  9
$CMLJUST
 70
    0
  9
$CMLSCALE
 40
20
  9
$PROXYGRAPHICS
 70
    1
  9
$MEASUREMENT
 70
    1
  9
$CELWEIGHT
370
   -1
  9
$ENDCAPS
280
    0
  9
$JOINSTYLE
280
    0
  9
$LWDISPLAY
290
    0
  9
$INSUNITS
 70
    4
  9
$HYPERLINKBASE
  1

  9
$STYLESHEET
  1

  9
$XEDIT
290
    1
  9
$CEPSNTYPE
380
    0
  9
$PSTYLEMODE
290
    1
  9
$EXTNAMES
290
    1
  9
$PSVPSCALE
 40
1
  9
$OLESTARTUP
290
    0
  9
$SORTENTS
280
  127
  9
$INDEXCTL
280
    0
  9
$HIDETEXT
280
    1
  9
$XCLIPFRAME
290
    0
  9
$HALOGAP
280
    0
  9
$OBSCOLOR
 70
  257
  9
$OBSLTYPE
280
    0
  9
$INTERSECTIONDISPLAY
280
    0
  9
$INTERSECTIONCOLOR
 70
  257
  9
$DIMASSOC
280
    1
  9
$PROJECTNAME
  1

  9
$CAMERADISPLAY
290
    0
  9
$LENSLENGTH
 40
50
  9
$CAMERAHEIGHT
 40
0
  9
$STEPSPERSEC
 40
2
  9
$STEPSIZE
 40
50
  9
$3DDWFPREC
 40
2
  9
$PSOLWIDTH
 40
5
  9
$PSOLHEIGHT
 40
80
  9
$LOFTANG1
 40
1.570796326794897
  9
$LOFTANG2
 40
1.570796326794897
  9
$LOFTMAG1
 40
0
  9
$LOFTMAG2
 40
0
  9
$LOFTPARAM
 70
    7
  9
$LOFTNORMALS
280
    1
  9
$LATITUDE
 40
1
  9
$LONGITUDE
 40
1
  9
$NORTHDIRECTION
 40
0
  9
$TIMEZONE
 70
-8000
  9
$LIGHTGLYPHDISPLAY
280
    1
  9
$TILEMODELIGHTSYNCH
280
    1
  9
$SOLIDHIST
280
    1
  9
$SHOWHIST
280
    1
  9
$DWFFRAME
280
    2
  9
$DGNFRAME
280
    0
  9
$REALWORLDSCALE
290
    1
  9
$INTERFERECOLOR
 62
    1
  9
$CSHADOW
280
    0
  9
$SHADOWPLANELOCATION
 40
0
  0
ENDSEC
  0
SECTION
  2
CLASSES
  0
ENDSEC
  0
SECTION
  2
TABLES
  0
TABLE
  2
VPORT
  5
8
330
0
100
AcDbSymbolTable
 70
    1
  0
VPORT
  5
31
330
2
100
AcDbSymbolTableRecord
100
AcDbViewportTableRecord
  2
*ACTIVE
 70
    0
 10
0
 20
0
 11
1
 21
1
 12
238.8552323625
 22
270.6413517461251
 13
0
 23
0
 14
10
 24
10
 15
10
 25
10
 16
0
 26
0
 36
1
 17
0
 27
0
 37
0
 40
686.0657212627501
 41
0.8344938403856454
 42
50
 43
0
 44
0
 50
0
 51
0
 71
    0
 72
  100
 73
    1
 74
    3
 75
    0
 76
    1
 77
    0
 78
    0
281
    0
 65
    1
110
0
120
0
130
0
111
1
121
0
131
0
112
0
122
1
132
0
 79
    0
146
0
348
10020
 60
    7
 61
    5
292
1
282
    1
141
0
142
0
 63
  250
421
3358443
  0
ENDTAB
  0
TABLE
  2
LTYPE
  5
5
330
0
100
AcDbSymbolTable
 70
    4
  0
LTYPE
  5
14
330
5
100
AcDbSymbolTableRecord
100
AcDbLinetypeTableRecord
  2
ByBlock
 70
    0
  3

 72
   65
 73
    0
 40
0
  0
LTYPE
  5
15
330
5
100
AcDbSymbolTableRecord
100
AcDbLinetypeTableRecord
  2
ByLayer
 70
    0
  3

 72
   65
 73
    0
 40
0
  0
LTYPE
  5
16
330
5
100
AcDbSymbolTableRecord
100
AcDbLinetypeTableRecord
  2
Continuous
 70
    0
  3
Solid line
 72
   65
 73
    0
 40
0
  0
LTYPE
  5
32
330
5
100
AcDbSymbolTableRecord
100
AcDbLinetypeTableRecord
  2
DOT
 70
    0
  3
Dot . . . . . . . . . . . . . . . . . . . . . .
 72
   65
 73
    2
 40
6.35
 49
0
 74
    0
 49
-6.35
 74
    0
  0
LTYPE
  5
33
330
5
100
AcDbSymbolTableRecord
100
AcDbLinetypeTableRecord
  2
DOTTINY
 70
    0
  3
Dot (.15x) .....................................
 72
   65
 73
    2
 40
0.9525
 49
0
 74
    0
 49
-0.9525
 74
    0
  0
LTYPE
  5
34
330
5
100
AcDbSymbolTableRecord
100
AcDbLinetypeTableRecord
  2
DOT2
 70
    0
  3
Dot (.5x) .....................................
 72
   65
 73
    2
 40
3.175
 49
0
 74
    0
 49
-3.175
 74
    0
  0
LTYPE
  5
35
330
5
100
AcDbSymbolTableRecord
100
AcDbLinetypeTableRecord
  2
DOTX2
 70
    0
  3
Dot (2x) .  .  .  .  .  .  .  .  .  .  .  .  .
 72
   65
 73
    2
 40
12.7
 49
0
 74
    0
 49
-12.7
 74
    0
  0
LTYPE
  5
36
330
5
100
AcDbSymbolTableRecord
100
AcDbLinetypeTableRecord
  2
DASHED
 70
    0
  3
Dashed _ _ _ _ _ _ _ _ _ _ _ _ _ _ _ _ _
 72
   65
 73
    2
 40
19.05
 49
12.7
 74
    0
 49
-6.35
 74
    0
  0
LTYPE
  5
37
330
5
100
AcDbSymbolTableRecord
100
AcDbLinetypeTableRecord
  2
DASHEDTINY
 70
    0
  3
Dashed (.15x) _ _ _ _ _ _ _ _ _ _ _ _ _ _ _ _ _
 72
   65
 73
    2
 40
2.8575
 49
1.905
 74
    0
 49
-0.9525
 74
    0
  0
LTYPE
  5
38
330
5
100
AcDbSymbolTableRecord
100
AcDbLinetypeTableRecord
  2
DASHED2
 70
    0
  3
Dashed (.5x) _ _ _ _ _ _ _ _ _ _ _ _ _ _ _ _ _
 72
   65
 73
    2
 40
9.524999999999999
 49
6.35
 74
    0
 49
-3.175
 74
    0
  0
LTYPE
  5
39
330
5
100
AcDbSymbolTableRecord
100
AcDbLinetypeTableRecord
  2
DASHEDX2
 70
    0
  3
Dashed (2x) ____  ____  ____  ____  ____  ___
 72
   65
 73
    2
 40
38.09999999999999
 49
25.4
 74
    0
 49
-12.7
 74
    0
  0
LTYPE
  5
3A
330
5
100
AcDbSymbolTableRecord
100
AcDbLinetypeTableRecord
  2
DASHDOT
 70
    0
  3
Dash dot __ . __ . __ . __ . __ . __ . __ . __
 72
   65
 73
    4
 40
25.4
 49
12.7
 74
    0
 49
-6.35
 74
    0
 49
0
 74
    0
 49
-6.35
 74
    0
  0
LTYPE
  5
3B
330
5
100
AcDbSymbolTableRecord
100
AcDbLinetypeTableRecord
  2
DASHDOTTINY
 70
    0
  3
Dash dot (.15x) _._._._._._._._._._._._._._._.
 72
   65
 73
    4
 40
3.81
 49
1.905
 74
    0
 49
-0.9525
 74
    0
 49
0
 74
    0
 49
-0.9525
 74
    0
  0
LTYPE
  5
3C
330
5
100
AcDbSymbolTableRecord
100
AcDbLinetypeTableRecord
  2
DASHDOT2
 70
    0
  3
Dash dot (.5x) _._._._._._._._._._._._._._._.
 72
   65
 73
    4
 40
12.7
 49
6.35
 74
    0
 49
-3.175
 74
    0
 49
0
 74
    0
 49
-3.175
 74
    0
  0
LTYPE
  5
3D
330
5
100
AcDbSymbolTableRecord
100
AcDbLinetypeTableRecord
  2
DASHDOTX2
 70
    0
  3
Dash dot (2x) ____  .  ____  .  ____  .  ___
 72
   65
 73
    4
 40
50.8
 49
25.4
 74
    0
 49
-12.7
 74
    0
 49
0
 74
    0
 49
-12.7
 74
    0
  0
LTYPE
  5
3E
330
5
100
AcDbSymbolTableRecord
100
AcDbLinetypeTableRecord
  2
DIVIDE
 70
    0
  3
Divide ____ . . ____ . . ____ . . ____ . . ____
 72
   65
 73
    6
 40
31.75
 49
12.7
 74
    0
 49
-6.35
 74
    0
 49
0
 74
    0
 49
-6.35
 74
    0
 49
0
 74
    0
 49
-6.35
 74
    0
  0
LTYPE
  5
3F
330
5
100
AcDbSymbolTableRecord
100
AcDbLinetypeTableRecord
  2
DIVIDETINY
 70
    0
  3
Divide (.15x) __..__..__..__..__..__..__..__.._
 72
   65
 73
    6
 40
4.7625
 49
1.905
 74
    0
 49
-0.9525
 74
    0
 49
0
 74
    0
 49
-0.9525
 74
    0
 49
0
 74
    0
 49
-0.9525
 74
    0
  0
LTYPE
  5
40
330
5
100
AcDbSymbolTableRecord
100
AcDbLinetypeTableRecord
  2
DIVIDE2
 70
    0
  3
Divide (.5x) __..__..__..__..__..__..__..__.._
 72
   65
 73
    6
 40
15.875
 49
6.35
 74
    0
 49
-3.175
 74
    0
 49
0
 74
    0
 49
-3.175
 74
    0
 49
0
 74
    0
 49
-3.175
 74
    0
  0
LTYPE
  5
41
330
5
100
AcDbSymbolTableRecord
100
AcDbLinetypeTableRecord
  2
DIVIDEX2
 70
    0
  3
Divide (2x) ________  .  .  ________  .  .  _
 72
   65
 73
    6
 40
63.5
 49
25.4
 74
    0
 49
-12.7
 74
    0
 49
0
 74
    0
 49
-12.7
 74
    0
 49
0
 74
    0
 49
-12.7
 74
    0
  0
LTYPE
  5
42
330
5
100
AcDbSymbolTableRecord
100
AcDbLinetypeTableRecord
  2
BORDER
 70
    0
  3
Border __ __ . __ __ . __ __ . __ __ . __ __ .
 72
   65
 73
    6
 40
44.45
 49
12.7
 74
    0
 49
-6.35
 74
    0
 49
12.7
 74
    0
 49
-6.35
 74
    0
 49
0
 74
    0
 49
-6.35
 74
    0
  0
LTYPE
  5
43
330
5
100
AcDbSymbolTableRecord
100
AcDbLinetypeTableRecord
  2
BORDERTINY
 70
    0
  3
Border (.15x) __.__.__.__.__.__.__.__.__.__.__.
 72
   65
 73
    6
 40
6.6675
 49
1.905
 74
    0
 49
-0.9525
 74
    0
 49
1.905
 74
    0
 49
-0.9525
 74
    0
 49
0
 74
    0
 49
-0.9525
 74
    0
  0
LTYPE
  5
44
330
5
100
AcDbSymbolTableRecord
100
AcDbLinetypeTableRecord
  2
BORDER2
 70
    0
  3
Border (.5x) __.__.__.__.__.__.__.__.__.__.__.
 72
   65
 73
    6
 40
22.225
 49
6.35
 74
    0
 49
-3.175
 74
    0
 49
6.35
 74
    0
 49
-3.175
 74
    0
 49
0
 74
    0
 49
-3.175
 74
    0
  0
LTYPE
  5
45
330
5
100
AcDbSymbolTableRecord
100
AcDbLinetypeTableRecord
  2
BORDERX2
 70
    0
  3
Border (2x) ____  ____  .  ____  ____  .  ___
 72
   65
 73
    6
 40
88.89999999999999
 49
25.4
 74
    0
 49
-12.7
 74
    0
 49
25.4
 74
    0
 49
-12.7
 74
    0
 49
0
 74
    0
 49
-12.7
 74
    0
  0
LTYPE
  5
46
330
5
100
AcDbSymbolTableRecord
100
AcDbLinetypeTableRecord
  2
CENTER
 70
    0
  3
Center ____ _ ____ _ ____ _ ____ _ ____ _ ____
 72
   65
 73
    4
 40
50.8
 49
31.75
 74
    0
 49
-6.35
 74
    0
 49
6.35
 74
    0
 49
-6.35
 74
    0
  0
LTYPE
  5
47
330
5
100
AcDbSymbolTableRecord
100
AcDbLinetypeTableRecord
  2
CENTERTINY
 70
    0
  3
Center (.15x) ___ _ ___ _ ___ _ ___ _ ___ _ ___
 72
   65
 73
    4
 40
7.62
 49
4.7625
 74
    0
 49
-0.9525
 74
    0
 49
0.9525
 74
    0
 49
-0.9525
 74
    0
  0
LTYPE
  5
48
330
5
100
AcDbSymbolTableRecord
100
AcDbLinetypeTableRecord
  2
CENTER2
 70
    0
  3
Center (.5x) ___ _ ___ _ ___ _ ___ _ ___ _ ___
 72
   65
 73
    4
 40
28.575
 49
19.05
 74
    0
 49
-3.175
 74
    0
 49
3.175
 74
    0
 49
-3.175
 74
    0
  0
LTYPE
  5
49
330
5
100
AcDbSymbolTableRecord
100
AcDbLinetypeTableRecord
  2
CENTERX2
 70
    0
  3
Center (2x) ________  __  ________  __  _____
 72
   65
 73
    4
 40
101.6
 49
63.5
 74
    0
 49
-12.7
 74
    0
 49
12.7
 74
    0
 49
-12.7
 74
    0
  0
ENDTAB
  0
TABLE
  2
LAYER
  5
2
330
0
100
AcDbSymbolTable
 70
    1
  0
LAYER
  5
10
330
2
100
AcDbSymbolTableRecord
100
AcDbLayerTableRecord
  2
0
 70
    0
 62
    7
  6
CONTINUOUS
370
    0
390
F
  0
ENDTAB
  0
TABLE
  2
STYLE
  5
3
330
0
100
AcDbSymbolTable
 70
    3
  0
STYLE
  5
4A
330
2
100
AcDbSymbolTableRecord
100
AcDbTextStyleTableRecord
  2
Standard
 70
    0
 40
0
 41
1
 50
0
 71
    0
 42
1
  3
txt
  4

  0
ENDTAB
  0
TABLE
  2
VIEW
  5
6
330
0
100
AcDbSymbolTable
 70
    0
  0
ENDTAB
  0
TABLE
  2
UCS
  5
7
330
0
100
AcDbSymbolTable
 70
    0
  0
ENDTAB
  0
TABLE
  2
APPID
  5
9
330
0
100
AcDbSymbolTable
 70
    1
  0
APPID
  5
12
330
9
100
AcDbSymbolTableRecord
100
AcDbRegAppTableRecord
  2
ACAD
 70
    0
  0
APPID
  5
4B
330
9
100
AcDbSymbolTableRecord
100
AcDbRegAppTableRecord
  2
LibreCad
 70
    0
  0
ENDTAB
  0
TABLE
  2
DIMSTYLE
  5
A
330
0
100
AcDbSymbolTable
 70
    1
100
AcDbDimStyleTable
 71
    1
  0
DIMSTYLE
105
4C
330
A
100
AcDbSymbolTableRecord
100
AcDbDimStyleTableRecord
  2
Standard
 70
    0
 40
1
 41
2.5
 42
0.625
 43
0.38
 44
1.25
 45
0
 46
0
 47
0
 48
0
 49
1
140
2.5
141
0.09
142
2.5
143
25.4
144
1
145
0
146
1
147
0.625
148
0
 71
    0
 72
    0
 73
    0
 74
    1
 75
    0
 76
    0
 77
    0
 78
    1
 79
    0
170
    0
171
    2
172
    0
173
    0
174
    0
175
    0
176
    0
177
    0
178
    0
179
    0
271
    2
272
    4
273
    2
274
    2
275
    0
276
    0
277
    2
278
    0
279
    0
280
    0
281
    0
282
    0
283
    1
284
    0
285
    0
286
    0
288
    0
289
    3
340
standard
341

371
   -2
372
   -2
  0
ENDTAB
  0
TABLE
  2
BLOCK_RECORD
  5
1
330
0
100
AcDbSymbolTable
 70
    2
  0
BLOCK_RECORD
  5
1F
330
1
100
AcDbSymbolTableRecord
100
AcDbBlockTableRecord
  2
*Model_Space
 70
    0
280
    1
281
    0
  0
BLOCK_RECORD
  5
1E
330
1
100
AcDbSymbolTableRecord
100
AcDbBlockTableRecord
  2
*Paper_Space
 70
    0
280
    1
281
    0
  0
BLOCK_RECORD
  5
4D
330
1
100
AcDbSymbolTableRecord
100
AcDbBlockTableRecord
  2
icp_back
 70
    0
280
    1
281
    0
  0
BLOCK_RECORD
  5
50
330
1
100
AcDbSymbolTableRecord
100
AcDbBlockTableRecord
  2
icp_glass
 70
    0
280
    1
281
    0
  0
BLOCK_RECORD
  5
53
330
1
100
AcDbSymbolTableRecord
100
AcDbBlockTableRecord
  2
icp_buttons
 70
    0
280
    1
281
    0
  0
ENDTAB
  0
ENDSEC
  0
SECTION
  2
BLOCKS
  0
BLOCK
  5
20
330
1F
100
AcDbEntity
  8
0
100
AcDbBlockBegin
  2
*Model_Space
 70
    0
 10
0
 20
0
 30
0
  3
*Model_Space
  1

  0
ENDBLK
  5
21
330
1F
100
AcDbEntity
  8
0
100
AcDbBlockEnd
  0
BLOCK
  5
1C
330
1B
100
AcDbEntity
  8
0
100
AcDbBlockBegin
  2
*Paper_Space
 70
    0
 10
0
 20
0
 30
0
  3
*Paper_Space
  1

  0
ENDBLK
  5
1D
330
1F
100
AcDbEntity
  8
0
100
AcDbBlockEnd
  0
BLOCK
  5
4E
330
4D
100
AcDbEntity
  8
0
100
AcDbBlockBegin
  2
icp_back
 70
    0
 10
0
 20
0
  3
icp_back
  1

  0
LINE
  5
56
100
AcDbEntity
  8
0
  6
ByLayer
 62
  256
370
   -1
100
AcDbLine
 10
1.4210854715202e-014
 20
128
 11
0
 21
12.00000000000001
  0
LINE
  5
57
100
AcDbEntity
  8
0
  6
ByLayer
 62
  256
370
   -1
100
AcDbLine
 10
100
 20
12
 11
100
 21
128
  0
LINE
  5
58
100
AcDbEntity
  8
0
  6
ByLayer
 62
  256
370
   -1
100
AcDbLine
 10
44
 20
10
 11
17
 21
10.00000000000001
  0
LINE
  5
59
100
AcDbEntity
  8
0
  6
ByLayer
 62
  256
370
   -1
100
AcDbLine
 10
56
 20
10
 11
90
 21
10
  0
LINE
  5
5A
100
AcDbEntity
  8
0
  6
ByLayer
 62
  256
370
   -1
100
AcDbLine
 10
56.00000000000001
 20
130
 11
90
 21
130
  0
LINE
  5
5B
100
AcDbEntity
  8
0
  6
ByLayer
 62
  256
370
   -1
100
AcDbLine
 10
17
 20
10.00000000000001
 11
10
 21
10.00000000000001
  0
LINE
  5
5C
100
AcDbEntity
  8
0
  6
ByLayer
 62
  256
370
   -1
100
AcDbLine
 10
17.00000000000001
 20
130
 11
44.00000000000001
 21
130
  0
LINE
  5
5D
100
AcDbEntity
  8
0
  6
ByLayer
 62
  256
370
   -1
100
AcDbLine
 10
17.00000000000001
 20
130
 11
10.00000000000001
 21
130
  0
LINE
  5
5E
100
AcDbEntity
  8
0
  6
ByLayer
 62
  256
370
   -1
100
AcDbLine
 10
0
 20
10.00000000000001
 11
0
 21
12.00000000000001
  0
CIRCLE
  5
5F
100
AcDbEntity
  8
0
  6
ByLayer
 62
  256
370
   -1
100
AcDbCircle
 10
5
 20
5.000000000000006
 40
2
  0
CIRCLE
  5
60
100
AcDbEntity
  8
0
  6
ByLayer
 62
  256
370
   -1
100
AcDbCircle
 10
95
 20
5
 40
2
  0
CIRCLE
  5
61
100
AcDbEntity
  8
0
  6
ByLayer
 62
  256
370
   -1
100
AcDbCircle
 10
95.00000000000001
 20
135
 40
2
  0
CIRCLE
  5
62
100
AcDbEntity
  8
0
  6
ByLayer
 62
  256
370
   -1
100
AcDbCircle
 10
5.000000000000014
 20
135
 40
2
  0
LINE
  5
63
100
AcDbEntity
  8
0
  6
ByLayer
 62
  256
370
   -1
100
AcDbLine
 10
48.00000000000001
 20
130
 11
48.00000000000001
 21
140
  0
LINE
  5
64
100
AcDbEntity
  8
0
  6
ByLayer
 62
  256
370
   -1
100
AcDbLine
 10
52.00000000000001
 20
130
 11
52.00000000000001
 21
140
  0
LINE
  5
65
100
AcDbEntity
  8
0
  6
ByLayer
 62
  256
370
   -1
100
AcDbLine
 10
55.00000000000001
 20
130
 11
52.00000000000001
 21
130
  0
LINE
  5
66
100
AcDbEntity
  8
0
  6
ByLayer
 62
  256
370
   -1
100
AcDbLine
 10
48.00000000000001
 20
130
 11
44.00000000000001
 21
130
  0
LINE
  5
67
100
AcDbEntity
  8
0
  6
ByLayer
 62
  256
370
   -1
100
AcDbLine
 10
48.00000000000001
 20
140
 11
51.00000000000001
 21
140
  0
LINE
  5
68
100
AcDbEntity
  8
0
  6
ByLayer
 62
  256
370
   -1
100
AcDbLine
 10
51.00000000000001
 20
140
 11
52.00000000000001
 21
140
  0
LINE
  5
69
100
AcDbEntity
  8
0
  6
ByLayer
 62
  256
370
   -1
100
AcDbLine
 10
56.00000000000001
 20
130
 11
55.00000000000001
 21
130
  0
LINE
  5
6A
100
AcDbEntity
  8
0
  6
ByLayer
 62
  256
370
   -1
100
AcDbLine
 10
48
 20
10
 11
48
 21
3.552713678800501e-015
  0
LINE
  5
6B
100
AcDbEntity
  8
0
  6
ByLayer
 62
  256
370
   -1
100
AcDbLine
 10
52
 20
10
 11
52
 21
3.552713678800501e-015
  0
LINE
  5
6C
100
AcDbEntity
  8
0
  6
ByLayer
 62
  256
370
   -1
100
AcDbLine
 10
48
 20
10
 11
44
 21
10
  0
LINE
  5
6D
100
AcDbEntity
  8
0
  6
ByLayer
 62
  256
370
   -1
100
AcDbLine
 10
52
 20
10
 11
56
 21
10
  0
LINE
  5
6E
100
AcDbEntity
  8
0
  6
ByLayer
 62
  256
370
   -1
100
AcDbLine
 10
52
 20
3.552713678800501e-015
 11
48
 21
3.552713678800501e-015
  0
LINE
  5
6F
100
AcDbEntity
  8
0
  6
ByLayer
 62
  256
370
   -1
100
AcDbLine
 10
0
 20
10.00000000000001
 11
0
 21
5.000000000000006
  0
ARC
  5
70
100
AcDbEntity
  8
0
  6
ByLayer
 62
  256
370
   -1
100
AcDbCircle
 10
5
 20
5.000000000000006
 40
5
100
AcDbArc
 50
180
 51
270
  0
LINE
  5
71
100
AcDbEntity
  8
0
  6
ByLayer
 62
  256
370
   -1
100
AcDbLine
 10
5
 20
5.329070518200751e-015
 11
5
 21
5.329070518200751e-015
  0
LINE
  5
72
100
AcDbEntity
  8
0
  6
ByLayer
 62
  256
370
   -1
100
AcDbLine
 10
10
 20
5.000000000000005
 11
10
 21
10.00000000000001
  0
ARC
  5
73
100
AcDbEntity
  8
0
  6
ByLayer
 62
  256
370
   -1
100
AcDbCircle
 10
5
 20
5.000000000000006
 40
5
100
AcDbArc
 50
270
 51
360
  0
LINE
  5
74
100
AcDbEntity
  8
0
  6
ByLayer
 62
  256
370
   -1
100
AcDbLine
 10
1.4210854715202e-014
 20
128
 11
1.4210854715202e-014
 21
135
  0
ARC
  5
75
100
AcDbEntity
  8
0
  6
ByLayer
 62
  256
370
   -1
100
AcDbCircle
 10
5.000000000000014
 20
135
 40
5
100
AcDbArc
 50
90
 51
180
  0
LINE
  5
76
100
AcDbEntity
  8
0
  6
ByLayer
 62
  256
370
   -1
100
AcDbLine
 10
5.000000000000014
 20
140
 11
5.000000000000014
 21
140
  0
LINE
  5
77
100
AcDbEntity
  8
0
  6
ByLayer
 62
  256
370
   -1
100
AcDbLine
 10
10.00000000000001
 20
135
 11
10.00000000000001
 21
130
  0
ARC
  5
78
100
AcDbEntity
  8
0
  6
ByLayer
 62
  256
370
   -1
100
AcDbCircle
 10
5.000000000000014
 20
135
 40
5
100
AcDbArc
 50
360
 51
90
  0
LINE
  5
79
100
AcDbEntity
  8
0
  6
ByLayer
 62
  256
370
   -1
100
AcDbLine
 10
90
 20
130
 11
90
 21
135
  0
ARC
  5
7A
100
AcDbEntity
  8
0
  6
ByLayer
 62
  256
370
   -1
100
AcDbCircle
 10
95.00000000000001
 20
135
 40
5
100
AcDbArc
 50
90
 51
180
  0
LINE
  5
7B
100
AcDbEntity
  8
0
  6
ByLayer
 62
  256
370
   -1
100
AcDbLine
 10
95.00000000000001
 20
140
 11
95.00000000000001
 21
140
  0
LINE
  5
7C
100
AcDbEntity
  8
0
  6
ByLayer
 62
  256
370
   -1
100
AcDbLine
 10
100
 20
135
 11
100
 21
128
  0
ARC
  5
7D
100
AcDbEntity
  8
0
  6
ByLayer
 62
  256
370
   -1
100
AcDbCircle
 10
95.00000000000001
 20
135
 40
5
100
AcDbArc
 50
360
 51
90
  0
LINE
  5
7E
100
AcDbEntity
  8
0
  6
ByLayer
 62
  256
370
   -1
100
AcDbLine
 10
100
 20
5
 11
100
 21
12
  0
ARC
  5
7F
100
AcDbEntity
  8
0
  6
ByLayer
 62
  256
370
   -1
100
AcDbCircle
 10
95
 20
5
 40
5
100
AcDbArc
 50
270
 51
360
  0
LINE
  5
80
100
AcDbEntity
  8
0
  6
ByLayer
 62
  256
370
   -1
100
AcDbLine
 10
95
 20
0
 11
95
 21
0
  0
LINE
  5
81
100
AcDbEntity
  8
0
  6
ByLayer
 62
  256
370
   -1
100
AcDbLine
 10
90
 20
10
 11
90
 21
5.000000000000001
  0
ARC
  5
82
100
AcDbEntity
  8
0
  6
ByLayer
 62
  256
370
   -1
100
AcDbCircle
 10
95
 20
5
 40
5
100
AcDbArc
 50
180
 51
270
  0
LWPOLYLINE
  5
83
100
AcDbEntity
  8
0
  6
ByLayer
 62
  256
370
   -1
100
AcDbPolyline
 90
    8
 70
    1
 43
0
 10
22
 20
21.00000000000001
 10
22
 20
32
 42
-0.414213562373095
 10
23
 20
33
 10
34
 20
33
 42
-0.414213562373095
 10
35
 20
32
 10
35
 20
21
 42
-0.414213562373095
 10
34
 20
20
 10
23
 20
20.00000000000001
 42
-0.414213562373095
  0
LWPOLYLINE
  5
84
100
AcDbEntity
  8
0
  6
ByLayer
 62
  256
370
   -1
100
AcDbPolyline
 90
    8
 70
    1
 43
0
 10
40.5000006875531
 20
21
 10
40.5000006875531
 20
32
 42
-0.414213562373095
 10
41.5000006875531
 20
33
 10
52.5000006875531
 20
33
 42
-0.414213562373095
 10
53.5000006875531
 20
32
 10
53.5000006875531
 20
21
 42
-0.414213562373095
 10
52.5000006875531
 20
20
 10
41.5000006875531
 20
20
 42
-0.414213562373095
  0
LWPOLYLINE
  5
85
100
AcDbEntity
  8
0
  6
ByLayer
 62
  256
370
   -1
100
AcDbPolyline
 90
    8
 70
    1
 43
0
 10
22
 20
83
 10
22
 20
94
 42
-0.414213562373095
 10
23
 20
95
 10
34
 20
95
 42
-0.414213562373095
 10
35
 20
94
 10
35
 20
83
 42
-0.414213562373095
 10
34
 20
82
 10
23
 20
82
 42
-0.414213562373095
  0
LWPOLYLINE
  5
86
100
AcDbEntity
  8
0
  6
ByLayer
 62
  256
370
   -1
100
AcDbPolyline
 90
    8
 70
    1
 43
0
 10
40.5000006875531
 20
83
 10
40.5000006875531
 20
94
 42
-0.414213562373095
 10
41.5000006875531
 20
95
 10
52.5000006875531
 20
95
 42
-0.414213562373095
 10
53.5000006875531
 20
94
 10
53.5000006875531
 20
83
 42
-0.414213562373095
 10
52.5000006875531
 20
82
 10
41.5000006875531
 20
82
 42
-0.414213562373095
  0
LWPOLYLINE
  5
87
100
AcDbEntity
  8
0
  6
ByLayer
 62
  256
370
   -1
100
AcDbPolyline
 90
    8
 70
    1
 43
0
 10
59
 20
40.5
 10
59
 20
51.5
 42
-0.414213562373095
 10
60
 20
52.5
 10
71
 20
52.5
 42
-0.414213562373095
 10
72
 20
51.5
 10
72
 20
40.5
 42
-0.414213562373095
 10
71
 20
39.5
 10
60
 20
39.5
 42
-0.414213562373095
  0
LWPOLYLINE
  5
88
100
AcDbEntity
  8
0
  6
ByLayer
 62
  256
370
   -1
100
AcDbPolyline
 90
    8
 70
    1
 43
0
 10
22
 20
40.5
 10
22
 20
51.50000000000001
 42
-0.414213562373095
 10
23
 20
52.50000000000001
 10
34
 20
52.50000000000001
 42
-0.414213562373095
 10
35
 20
51.50000000000001
 10
35
 20
40.5
 42
-0.414213562373095
 10
34
 20
39.5
 10
23
 20
39.5
 42
-0.414213562373095
  0
LWPOLYLINE
  5
89
100
AcDbEntity
  8
0
  6
ByLayer
 62
  256
370
   -1
100
AcDbPolyline
 90
    8
 70
    1
 43
0
 10
40.5000006875531
 20
40.5
 10
40.5000006875531
 20
51.50000000000001
 42
-0.414213562373095
 10
41.5000006875531
 20
52.50000000000001
 10
52.5000006875531
 20
52.5
 42
-0.414213562373095
 10
53.5000006875531
 20
51.5
 10
53.5000006875531
 20
40.5
 42
-0.414213562373095
 10
52.5000006875531
 20
39.5
 10
41.5000006875531
 20
39.5
 42
-0.414213562373095
  0
LWPOLYLINE
  5
8A
100
AcDbEntity
  8
0
  6
ByLayer
 62
  256
370
   -1
100
AcDbPolyline
 90
    8
 70
    1
 43
0
 10
59
 20
59
 10
59.00000000000001
 20
70
 42
-0.414213562373095
 10
60.00000000000001
 20
71
 10
71
 20
71
 42
-0.414213562373095
 10
72
 20
70
 10
72
 20
59
 42
-0.414213562373095
 10
71
 20
58
 10
60
 20
58
 42
-0.414213562373095
  0
LWPOLYLINE
  5
8B
100
AcDbEntity
  8
0
  6
ByLayer
 62
  256
370
   -1
100
AcDbPolyline
 90
    8
 70
    1
 43
0
 10
22
 20
59.00000000000001
 10
22
 20
70
 42
-0.414213562373095
 10
23
 20
71
 10
34
 20
71
 42
-0.414213562373095
 10
35
 20
70
 10
35
 20
59.00000000000001
 42
-0.414213562373095
 10
34
 20
58.00000000000001
 10
23
 20
58.00000000000001
 42
-0.414213562373095
  0
LWPOLYLINE
  5
8C
100
AcDbEntity
  8
0
  6
ByLayer
 62
  256
370
   -1
100
AcDbPolyline
 90
    8
 70
    1
 43
0
 10
40.5000006875531
 20
59.00000000000001
 10
40.5000006875531
 20
70
 42
-0.414213562373095
 10
41.5000006875531
 20
71
 10
52.5000006875531
 20
71
 42
-0.414213562373095
 10
53.5000006875531
 20
70
 10
53.5000006875531
 20
59
 42
-0.414213562373095
 10
52.5000006875531
 20
58
 10
41.5000006875531
 20
58.00000000000001
 42
-0.414213562373095
  0
LWPOLYLINE
  5
8D
100
AcDbEntity
  8
0
  6
ByLayer
 62
  256
370
   -1
100
AcDbPolyline
 90
    8
 70
    1
 43
0
 10
59.00000000000001
 20
77.5
 10
59.00000000000001
 20
88.5
 42
-0.414213562373095
 10
60.00000000000001
 20
89.5
 10
71
 20
89.5
 42
-0.414213562373095
 10
72
 20
88.5
 10
72
 20
77.5
 42
-0.414213562373095
 10
71
 20
76.5
 10
60.00000000000001
 20
76.5
 42
-0.414213562373095
  0
CIRCLE
  5
8E
100
AcDbEntity
  8
0
  6
ByLayer
 62
  256
370
   -1
100
AcDbCircle
 10
32
 20
115
 40
3.5
  0
CIRCLE
  5
8F
100
AcDbEntity
  8
0
  6
ByLayer
 62
  256
370
   -1
100
AcDbCircle
 10
88
 20
55
 40
3.5
  0
CIRCLE
  5
90
100
AcDbEntity
  8
0
  6
ByLayer
 62
  256
370
   -1
100
AcDbCircle
 10
20
 20
14.00000000000001
 40
1.5
  0
CIRCLE
  5
91
100
AcDbEntity
  8
0
  6
ByLayer
 62
  256
370
   -1
100
AcDbCircle
 10
20
 20
126
 40
1.5
  0
CIRCLE
  5
92
100
AcDbEntity
  8
0
  6
ByLayer
 62
  256
370
   -1
100
AcDbCircle
 10
96
 20
124
 40
1.5
  0
CIRCLE
  5
93
100
AcDbEntity
  8
0
  6
ByLayer
 62
  256
370
   -1
100
AcDbCircle
 10
96
 20
16
 40
1.5
  0
CIRCLE
  5
94
100
AcDbEntity
  8
0
  6
ByLayer
 62
  256
370
   -1
100
AcDbCircle
 10
50
 20
14
 40
1.5
  0
CIRCLE
  5
95
100
AcDbEntity
  8
0
  6
ByLayer
 62
  256
370
   -1
100
AcDbCircle
 10
50.00000000000001
 20
126
 40
1.5
  0
CIRCLE
  5
96
100
AcDbEntity
  8
0
  6
ByLayer
 62
  256
370
   -1
100
AcDbCircle
 10
3
 20
30.00000000000001
 40
1.5
  0
CIRCLE
  5
97
100
AcDbEntity
  8
0
  6
ByLayer
 62
  256
370
   -1
100
AcDbCircle
 10
3
 20
70
 40
1.5
  0
CIRCLE
  5
98
100
AcDbEntity
  8
0
  6
ByLayer
 62
  256
370
   -1
100
AcDbCircle
 10
3
 20
110
 40
1.5
  0
CIRCLE
  5
99
100
AcDbEntity
  8
0
  6
ByLayer
 62
  256
370
   -1
100
AcDbCircle
 10
56
 20
50
 40
1.5
  0
CIRCLE
  5
9A
100
AcDbEntity
  8
0
  6
ByLayer
 62
  256
370
   -1
100
AcDbCircle
 10
56.00000000000001
 20
90
 40
1.5
  0
CIRCLE
  5
9B
100
AcDbEntity
  8
0
  6
ByLayer
 62
  256
370
   -1
100
AcDbCircle
 10
96
 20
70
 40
1.5
  0
CIRCLE
  5
9C
100
AcDbEntity
  8
0
  6
ByLayer
 62
  256
370
   -1
100
AcDbCircle
 10
88
 20
83
 40
3.5
  0
CIRCLE
  5
9D
100
AcDbEntity
  8
0
  6
ByLayer
 62
  256
370
   -1
100
AcDbCircle
 10
80
 20
115
 40
3.5
  0
LWPOLYLINE
  5
9E
100
AcDbEntity
  8
0
  6
ByLayer
 62
  256
370
   -1
100
AcDbPolyline
 90
    8
 70
    1
 43
0
 10
2.499999999999986
 20
14.50000000000001
 10
2.499999999999986
 20
25.50000000000001
 42
-0.414213562373095
 10
3.499999999999986
 20
26.50000000000001
 10
14.49999999999999
 20
26.50000000000001
 42
-0.414213562373095
 10
15.49999999999999
 20
25.50000000000001
 10
15.49999999999999
 20
14.50000000000001
 42
-0.414213562373095
 10
14.49999999999999
 20
13.50000000000001
 10
3.499999999999986
 20
13.50000000000001
 42
-0.414213562373095
  0
LWPOLYLINE
  5
9F
100
AcDbEntity
  8
0
  6
ByLayer
 62
  256
370
   -1
100
AcDbPolyline
 90
    8
 70
    1
 43
0
 10
2.499999999999986
 20
34.50000000000001
 10
2.499999999999986
 20
45.50000000000001
 42
-0.414213562373095
 10
3.499999999999986
 20
46.50000000000001
 10
14.49999999999999
 20
46.50000000000001
 42
-0.414213562373095
 10
15.49999999999999
 20
45.50000000000001
 10
15.49999999999999
 20
34.5
 42
-0.414213562373095
 10
14.49999999999999
 20
33.5
 10
3.499999999999986
 20
33.50000000000001
 42
-0.414213562373095
  0
LWPOLYLINE
  5
A0
100
AcDbEntity
  8
0
  6
ByLayer
 62
  256
370
   -1
100
AcDbPolyline
 90
    8
 70
    1
 43
0
 10
2.499999999999986
 20
54.50000000000001
 10
2.499999999999986
 20
65.5
 42
-0.414213562373095
 10
3.499999999999986
 20
66.5
 10
14.49999999999999
 20
66.5
 42
-0.414213562373095
 10
15.49999999999999
 20
65.5
 10
15.49999999999999
 20
54.50000000000001
 42
-0.414213562373095
 10
14.49999999999999
 20
53.50000000000001
 10
3.499999999999986
 20
53.50000000000001
 42
-0.414213562373095
  0
LWPOLYLINE
  5
A1
100
AcDbEntity
  8
0
  6
ByLayer
 62
  256
370
   -1
100
AcDbPolyline
 90
    8
 70
    1
 43
0
 10
2.499999999999986
 20
74.5
 10
2.499999999999986
 20
85.5
 42
-0.414213562373095
 10
3.499999999999986
 20
86.5
 10
14.49999999999999
 20
86.5
 42
-0.414213562373095
 10
15.49999999999999
 20
85.5
 10
15.49999999999999
 20
74.5
 42
-0.414213562373095
 10
14.49999999999999
 20
73.5
 10
3.499999999999986
 20
73.5
 42
-0.414213562373095
  0
LWPOLYLINE
  5
A2
100
AcDbEntity
  8
0
  6
ByLayer
 62
  256
370
   -1
100
AcDbPolyline
 90
    8
 70
    1
 43
0
 10
2.499999999999986
 20
94.5
 10
2.499999999999986
 20
105.5
 42
-0.414213562373095
 10
3.499999999999986
 20
106.5
 10
14.49999999999999
 20
106.5
 42
-0.414213562373095
 10
15.49999999999999
 20
105.5
 10
15.49999999999999
 20
94.5
 42
-0.414213562373095
 10
14.49999999999999
 20
93.5
 10
3.499999999999986
 20
93.5
 42
-0.414213562373095
  0
LWPOLYLINE
  5
A3
100
AcDbEntity
  8
0
  6
ByLayer
 62
  256
370
   -1
100
AcDbPolyline
 90
    8
 70
    1
 43
0
 10
2.499999999999986
 20
114.5
 10
2.499999999999986
 20
125.5
 42
-0.4142135623730909
 10
3.5
 20
126.5
 10
14.49999999999999
 20
126.5
 42
-0.414213562373095
 10
15.49999999999999
 20
125.5
 10
15.49999999999999
 20
114.5
 42
-0.414213562373095
 10
14.49999999999999
 20
113.5
 10
3.499999999999986
 20
113.5
 42
-0.414213562373095
  0
LWPOLYLINE
  5
A4
100
AcDbEntity
  8
0
  6
ByLayer
 62
  256
370
   -1
100
AcDbPolyline
 90
    8
 70
    1
 43
0
 10
41.00000000000001
 20
109
 10
41.00000000000001
 20
121
 42
-0.414213562373095
 10
42.00000000000001
 20
122
 10
65
 20
122
 42
-0.414213562373095
 10
66
 20
121
 10
66
 20
109
 42
-0.414213562373095
 10
65
 20
108
 10
42.00000000000001
 20
108
 42
-0.414213562373095
  0
LWPOLYLINE
  5
A5
100
AcDbEntity
  8
0
  6
ByLayer
 62
  256
370
   -1
100
AcDbPolyline
 90
   12
 70
    1
 43
0
 10
60
 20
20
 10
71
 20
20
 10
72
 20
20
 10
97
 20
20
 42
0.414213562373095
 10
98
 20
21
 10
98
 20
33
 42
0.414213562373095
 10
97
 20
34
 10
72
 20
34
 10
71
 20
33
 10
60
 20
33
 42
0.414213562373095
 10
59
 20
32
 10
59
 20
21
 42
0.414213562373095
  0
ENDBLK
  5
4F
330
4D
100
AcDbEntity
  8
0
100
AcDbBlockEnd
  0
BLOCK
  5
51
330
50
100
AcDbEntity
  8
0
100
AcDbBlockBegin
  2
icp_glass
 70
    0
 10
0
 20
0
  3
icp_glass
  1

  0
LINE
  5
A6
100
AcDbEntity
  8
0
  6
ByLayer
 62
  256
370
   -1
100
AcDbLine
 10
110
 20
128
 11
110
 21
12.00000000000001
  0
LINE
  5
A7
100
AcDbEntity
  8
0
  6
ByLayer
 62
  256
370
   -1
100
AcDbLine
 10
210
 20
12
 11
210
 21
128
  0
LINE
  5
A8
100
AcDbEntity
  8
0
  6
ByLayer
 62
  256
370
   -1
100
AcDbLine
 10
154
 20
10
 11
127
 21
10.00000000000001
  0
LINE
  5
A9
100
AcDbEntity
  8
0
  6
ByLayer
 62
  256
370
   -1
100
AcDbLine
 10
127
 20
130
 11
154
 21
130
  0
LINE
  5
AA
100
AcDbEntity
  8
0
  6
ByLayer
 62
  256
370
   -1
100
AcDbLine
 10
163
 20
10
 11
163
 21
3.552713678800501e-015
  0
LINE
  5
AB
100
AcDbEntity
  8
0
  6
ByLayer
 62
  256
370
   -1
100
AcDbLine
 10
156
 20
10
 11
154
 21
10
  0
LINE
  5
AC
100
AcDbEntity
  8
0
  6
ByLayer
 62
  256
370
   -1
100
AcDbLine
 10
166
 20
10
 11
163
 21
10
  0
LINE
  5
AD
100
AcDbEntity
  8
0
  6
ByLayer
 62
  256
370
   -1
100
AcDbLine
 10
157
 20
130
 11
157
 21
140
  0
LINE
  5
AE
100
AcDbEntity
  8
0
  6
ByLayer
 62
  256
370
   -1
100
AcDbLine
 10
163
 20
130
 11
163
 21
140
  0
LINE
  5
AF
100
AcDbEntity
  8
0
  6
ByLayer
 62
  256
370
   -1
100
AcDbLine
 10
166
 20
130
 11
163
 21
130
  0
LINE
  5
B0
100
AcDbEntity
  8
0
  6
ByLayer
 62
  256
370
   -1
100
AcDbLine
 10
157
 20
130
 11
154
 21
130
  0
LINE
  5
B1
100
AcDbEntity
  8
0
  6
ByLayer
 62
  256
370
   -1
100
AcDbLine
 10
157
 20
140
 11
163
 21
140
  0
LINE
  5
B2
100
AcDbEntity
  8
0
  6
ByLayer
 62
  256
370
   -1
100
AcDbLine
 10
157
 20
3.552713678800501e-015
 11
157
 21
10
  0
LINE
  5
B3
100
AcDbEntity
  8
0
  6
ByLayer
 62
  256
370
   -1
100
AcDbLine
 10
157
 20
10
 11
156
 21
10
  0
LINE
  5
B4
100
AcDbEntity
  8
0
  6
ByLayer
 62
  256
370
   -1
100
AcDbLine
 10
163
 20
3.552713678800501e-015
 11
157
 21
3.552713678800501e-015
  0
LINE
  5
B5
100
AcDbEntity
  8
0
  6
ByLayer
 62
  256
370
   -1
100
AcDbLine
 10
114.8196601125011
 20
12.00000000000001
 11
110
 21
12.00000000000001
  0
ARC
  5
B6
100
AcDbEntity
  8
0
  6
ByLayer
 62
  256
370
   -1
100
AcDbCircle
 10
114.8196601125011
 20
7.000000000000005
 40
5
100
AcDbArc
 50
63.43494882292201
 51
90
  0
LINE
  5
B7
100
AcDbEntity
  8
0
  6
ByLayer
 62
  256
370
   -1
100
AcDbLine
 10
114.819660112501
 20
128
 11
110
 21
128
  0
ARC
  5
B8
100
AcDbEntity
  8
0
  6
ByLayer
 62
  256
370
   -1
100
AcDbCircle
 10
114.819660112501
 20
133
 40
5
100
AcDbArc
 50
270
 51
296.565051177078
  0
LINE
  5
B9
100
AcDbEntity
  8
0
  6
ByLayer
 62
  256
370
   -1
100
AcDbLine
 10
127
 20
10.00000000000001
 11
121.1803398874989
 21
10.00000000000001
  0
LINE
  5
BA
100
AcDbEntity
  8
0
  6
ByLayer
 62
  256
370
   -1
100
AcDbLine
 10
118.9442719099991
 20
10.5278640450004
 11
117.0557280900009
 21
11.47213595499961
  0
ARC
  5
BB
100
AcDbEntity
  8
0
  6
ByLayer
 62
  256
370
   -1
100
AcDbCircle
 10
121.1803398874989
 20
15.00000000000001
 40
5
100
AcDbArc
 50
243.4349488229219
 51
270
  0
LINE
  5
BC
100
AcDbEntity
  8
0
  6
ByLayer
 62
  256
370
   -1
100
AcDbLine
 10
127
 20
130
 11
121.1803398874989
 21
130
  0
LINE
  5
BD
100
AcDbEntity
  8
0
  6
ByLayer
 62
  256
370
   -1
100
AcDbLine
 10
118.9442719099992
 20
129.4721359549996
 11
117.0557280900008
 21
128.5278640450004
  0
ARC
  5
BE
100
AcDbEntity
  8
0
  6
ByLayer
 62
  256
370
   -1
100
AcDbCircle
 10
121.1803398874989
 20
125
 40
5
100
AcDbArc
 50
90
 51
116.5650511770777
  0
LINE
  5
BF
100
AcDbEntity
  8
0
  6
ByLayer
 62
  256
370
   -1
100
AcDbLine
 10
205.1803398874989
 20
12
 11
210
 21
12
  0
ARC
  5
C0
100
AcDbEntity
  8
0
  6
ByLayer
 62
  256
370
   -1
100
AcDbCircle
 10
205.1803398874989
 20
7
 40
5
100
AcDbArc
 50
90
 51
116.565051177078
  0
LINE
  5
C1
100
AcDbEntity
  8
0
  6
ByLayer
 62
  256
370
   -1
100
AcDbLine
 10
201.0557280900009
 20
10.5278640450004
 11
202.9442719099991
 21
11.4721359549996
  0
LINE
  5
C2
100
AcDbEntity
  8
0
  6
ByLayer
 62
  256
370
   -1
100
AcDbLine
 10
166
 20
10
 11
198.8196601125011
 21
10
  0
ARC
  5
C3
100
AcDbEntity
  8
0
  6
ByLayer
 62
  256
370
   -1
100
AcDbCircle
 10
198.8196601125011
 20
15
 40
5
100
AcDbArc
 50
270
 51
296.5650511770781
  0
LINE
  5
C4
100
AcDbEntity
  8
0
  6
ByLayer
 62
  256
370
   -1
100
AcDbLine
 10
205.180339887499
 20
128
 11
210
 21
128
  0
ARC
  5
C5
100
AcDbEntity
  8
0
  6
ByLayer
 62
  256
370
   -1
100
AcDbCircle
 10
205.180339887499
 20
133
 40
5
100
AcDbArc
 50
243.4349488229221
 51
270
  0
LINE
  5
C6
100
AcDbEntity
  8
0
  6
ByLayer
 62
  256
370
   -1
100
AcDbLine
 10
201.0557280900009
 20
129.4721359549995
 11
202.9442719099992
 21
128.5278640450004
  0
LINE
  5
C7
100
AcDbEntity
  8
0
  6
ByLayer
 62
  256
370
   -1
100
AcDbLine
 10
166
 20
130
 11
198.8196601125011
 21
130
  0
ARC
  5
C8
100
AcDbEntity
  8
0
  6
ByLayer
 62
  256
370
   -1
100
AcDbCircle
 10
198.8196601125011
 20
125
 40
5
100
AcDbArc
 50
63.43494882292179
 51
90.00000000000003
  0
LWPOLYLINE
  5
C9
100
AcDbEntity
  8
0
  6
ByLayer
 62
  256
370
   -1
100
AcDbPolyline
 90
    8
 70
    1
 43
0
 10
132
 20
21.00000000000001
 10
132
 20
32
 42
-0.414213562373095
 10
133
 20
33
 10
144
 20
33
 42
-0.414213562373095
 10
145
 20
32
 10
145
 20
21
 42
-0.414213562373095
 10
144
 20
20
 10
133
 20
20.00000000000001
 42
-0.414213562373095
  0
LWPOLYLINE
  5
CA
100
AcDbEntity
  8
0
  6
ByLayer
 62
  256
370
   -1
100
AcDbPolyline
 90
    8
 70
    1
 43
0
 10
150.5000006875531
 20
21
 10
150.5000006875531
 20
32
 42
-0.414213562373095
 10
151.5000006875531
 20
33
 10
162.5000006875531
 20
33
 42
-0.414213562373095
 10
163.5000006875531
 20
32
 10
163.5000006875531
 20
21
 42
-0.414213562373095
 10
162.5000006875531
 20
20
 10
151.5000006875531
 20
20
 42
-0.414213562373095
  0
LWPOLYLINE
  5
CB
100
AcDbEntity
  8
0
  6
ByLayer
 62
  256
370
   -1
100
AcDbPolyline
 90
    8
 70
    1
 43
0
 10
132
 20
83
 10
132
 20
94
 42
-0.414213562373095
 10
133
 20
95
 10
144
 20
95
 42
-0.414213562373095
 10
145
 20
94
 10
145
 20
83
 42
-0.414213562373095
 10
144
 20
82
 10
133
 20
82
 42
-0.414213562373095
  0
LWPOLYLINE
  5
CC
100
AcDbEntity
  8
0
  6
ByLayer
 62
  256
370
   -1
100
AcDbPolyline
 90
    8
 70
    1
 43
0
 10
150.5000006875531
 20
83
 10
150.5000006875531
 20
94
 42
-0.414213562373095
 10
151.5000006875531
 20
95
 10
162.5000006875531
 20
95
 42
-0.414213562373095
 10
163.5000006875531
 20
94
 10
163.5000006875531
 20
83
 42
-0.414213562373095
 10
162.5000006875531
 20
82
 10
151.5000006875531
 20
82
 42
-0.414213562373095
  0
LWPOLYLINE
  5
CD
100
AcDbEntity
  8
0
  6
ByLayer
 62
  256
370
   -1
100
AcDbPolyline
 90
    8
 70
    1
 43
0
 10
169
 20
40.5
 10
169
 20
51.5
 42
-0.414213562373095
 10
170
 20
52.5
 10
181
 20
52.5
 42
-0.414213562373095
 10
182
 20
51.5
 10
182
 20
40.5
 42
-0.414213562373095
 10
181
 20
39.5
 10
170
 20
39.5
 42
-0.414213562373095
  0
LWPOLYLINE
  5
CE
100
AcDbEntity
  8
0
  6
ByLayer
 62
  256
370
   -1
100
AcDbPolyline
 90
    8
 70
    1
 43
0
 10
132
 20
40.5
 10
132
 20
51.50000000000001
 42
-0.414213562373095
 10
133
 20
52.50000000000001
 10
144
 20
52.50000000000001
 42
-0.414213562373095
 10
145
 20
51.50000000000001
 10
145
 20
40.5
 42
-0.414213562373095
 10
144
 20
39.5
 10
133
 20
39.5
 42
-0.414213562373095
  0
LWPOLYLINE
  5
CF
100
AcDbEntity
  8
0
  6
ByLayer
 62
  256
370
   -1
100
AcDbPolyline
 90
    8
 70
    1
 43
0
 10
150.5000006875531
 20
40.5
 10
150.5000006875531
 20
51.50000000000001
 42
-0.414213562373095
 10
151.5000006875531
 20
52.50000000000001
 10
162.5000006875531
 20
52.5
 42
-0.414213562373095
 10
163.5000006875531
 20
51.5
 10
163.5000006875531
 20
40.5
 42
-0.414213562373095
 10
162.5000006875531
 20
39.5
 10
151.5000006875531
 20
39.5
 42
-0.414213562373095
  0
LWPOLYLINE
  5
D0
100
AcDbEntity
  8
0
  6
ByLayer
 62
  256
370
   -1
100
AcDbPolyline
 90
    8
 70
    1
 43
0
 10
169
 20
59
 10
169
 20
70
 42
-0.414213562373095
 10
170
 20
71
 10
181
 20
71
 42
-0.414213562373095
 10
182
 20
70
 10
182
 20
59
 42
-0.414213562373095
 10
181
 20
58
 10
170
 20
58
 42
-0.414213562373095
  0
LWPOLYLINE
  5
D1
100
AcDbEntity
  8
0
  6
ByLayer
 62
  256
370
   -1
100
AcDbPolyline
 90
    8
 70
    1
 43
0
 10
132
 20
59.00000000000001
 10
132
 20
70
 42
-0.414213562373095
 10
133
 20
71
 10
144
 20
71
 42
-0.414213562373095
 10
145
 20
70
 10
145
 20
59.00000000000001
 42
-0.414213562373095
 10
144
 20
58.00000000000001
 10
133
 20
58.00000000000001
 42
-0.414213562373095
  0
LWPOLYLINE
  5
D2
100
AcDbEntity
  8
0
  6
ByLayer
 62
  256
370
   -1
100
AcDbPolyline
 90
    8
 70
    1
 43
0
 10
150.5000006875531
 20
59.00000000000001
 10
150.5000006875531
 20
70
 42
-0.414213562373095
 10
151.5000006875531
 20
71
 10
162.5000006875531
 20
71
 42
-0.414213562373095
 10
163.5000006875531
 20
70
 10
163.5000006875531
 20
59
 42
-0.414213562373095
 10
162.5000006875531
 20
58
 10
151.5000006875531
 20
58.00000000000001
 42
-0.414213562373095
  0
LWPOLYLINE
  5
D3
100
AcDbEntity
  8
0
  6
ByLayer
 62
  256
370
   -1
100
AcDbPolyline
 90
    8
 70
    1
 43
0
 10
169
 20
77.5
 10
169
 20
88.5
 42
-0.414213562373095
 10
170
 20
89.5
 10
181
 20
89.5
 42
-0.414213562373095
 10
182
 20
88.5
 10
182
 20
77.5
 42
-0.414213562373095
 10
181
 20
76.5
 10
170
 20
76.5
 42
-0.414213562373095
  0
CIRCLE
  5
D4
100
AcDbEntity
  8
0
  6
ByLayer
 62
  256
370
   -1
100
AcDbCircle
 10
142
 20
115
 40
7
  0
CIRCLE
  5
D5
100
AcDbEntity
  8
0
  6
ByLayer
 62
  256
370
   -1
100
AcDbCircle
 10
198
 20
55
 40
7
  0
CIRCLE
  5
D6
100
AcDbEntity
  8
0
  6
ByLayer
 62
  256
370
   -1
100
AcDbCircle
 10
198
 20
83
 40
7
  0
CIRCLE
  5
D7
100
AcDbEntity
  8
0
  6
ByLayer
 62
  256
370
   -1
100
AcDbCircle
 10
190
 20
115
 40
7
  0
LWPOLYLINE
  5
D8
100
AcDbEntity
  8
0
  6
ByLayer
 62
  256
370
   -1
100
AcDbPolyline
 90
    8
 70
    1
 43
0
 10
112.5
 20
14.50000000000001
 10
112.5
 20
25.50000000000001
 42
-0.414213562373095
 10
113.5
 20
26.50000000000001
 10
124.5
 20
26.50000000000001
 42
-0.414213562373095
 10
125.5
 20
25.50000000000001
 10
125.5
 20
14.50000000000001
 42
-0.414213562373095
 10
124.5
 20
13.50000000000001
 10
113.5
 20
13.50000000000001
 42
-0.414213562373095
  0
LWPOLYLINE
  5
D9
100
AcDbEntity
  8
0
  6
ByLayer
 62
  256
370
   -1
100
AcDbPolyline
 90
    8
 70
    1
 43
0
 10
112.5
 20
34.50000000000001
 10
112.5
 20
45.50000000000001
 42
-0.414213562373095
 10
113.5
 20
46.50000000000001
 10
124.5
 20
46.50000000000001
 42
-0.414213562373095
 10
125.5
 20
45.50000000000001
 10
125.5
 20
34.5
 42
-0.414213562373095
 10
124.5
 20
33.5
 10
113.5
 20
33.50000000000001
 42
-0.414213562373095
  0
LWPOLYLINE
  5
DA
100
AcDbEntity
  8
0
  6
ByLayer
 62
  256
370
   -1
100
AcDbPolyline
 90
    8
 70
    1
 43
0
 10
112.5
 20
54.50000000000001
 10
112.5
 20
65.5
 42
-0.414213562373095
 10
113.5
 20
66.5
 10
124.5
 20
66.5
 42
-0.414213562373095
 10
125.5
 20
65.5
 10
125.5
 20
54.50000000000001
 42
-0.414213562373095
 10
124.5
 20
53.50000000000001
 10
113.5
 20
53.50000000000001
 42
-0.414213562373095
  0
LWPOLYLINE
  5
DB
100
AcDbEntity
  8
0
  6
ByLayer
 62
  256
370
   -1
100
AcDbPolyline
 90
    8
 70
    1
 43
0
 10
112.5
 20
74.5
 10
112.5
 20
85.5
 42
-0.414213562373095
 10
113.5
 20
86.5
 10
124.5
 20
86.5
 42
-0.414213562373095
 10
125.5
 20
85.5
 10
125.5
 20
74.5
 42
-0.414213562373095
 10
124.5
 20
73.5
 10
113.5
 20
73.5
 42
-0.414213562373095
  0
LWPOLYLINE
  5
DC
100
AcDbEntity
  8
0
  6
ByLayer
 62
  256
370
   -1
100
AcDbPolyline
 90
    8
 70
    1
 43
0
 10
112.5
 20
94.5
 10
112.5
 20
105.5
 42
-0.414213562373095
 10
113.5
 20
106.5
 10
124.5
 20
106.5
 42
-0.414213562373095
 10
125.5
 20
105.5
 10
125.5
 20
94.5
 42
-0.414213562373095
 10
124.5
 20
93.5
 10
113.5
 20
93.5
 42
-0.414213562373095
  0
LWPOLYLINE
  5
DD
100
AcDbEntity
  8
0
  6
ByLayer
 62
  256
370
   -1
100
AcDbPolyline
 90
    8
 70
    1
 43
0
 10
112.5
 20
114.5
 10
112.5
 20
125.5
 42
-0.414213562373095
 10
113.5
 20
126.5
 10
124.5
 20
126.5
 42
-0.414213562373095
 10
125.5
 20
125.5
 10
125.5
 20
114.5
 42
-0.414213562373095
 10
124.5
 20
113.5
 10
113.5
 20
113.5
 42
-0.414213562373095
  0
LWPOLYLINE
  5
DE
100
AcDbEntity
  8
0
  6
ByLayer
 62
  256
370
   -1
100
AcDbPolyline
 90
    8
 70
    1
 43
0
 10
151
 20
109
 10
151
 20
121
 42
-0.414213562373095
 10
152
 20
122
 10
175
 20
122
 42
-0.414213562373095
 10
176
 20
121
 10
176
 20
109
 42
-0.414213562373095
 10
175
 20
108
 10
152
 20
108
 42
-0.414213562373095
  0
LWPOLYLINE
  5
DF
100
AcDbEntity
  8
0
  6
ByLayer
 62
  256
370
   -1
100
AcDbPolyline
 90
   12
 70
    1
 43
0
 10
170
 20
20
 10
181
 20
20
 10
182
 20
20
 10
207
 20
20
 42
0.414213562373095
 10
208
 20
21
 10
208
 20
33
 42
0.414213562373095
 10
207
 20
34
 10
182
 20
34
 10
181
 20
33
 10
170
 20
33
 42
0.414213562373095
 10
169
 20
32
 10
169
 20
21
 42
0.414213562373095
  0
CIRCLE
  5
E0
100
AcDbEntity
  8
0
  6
ByLayer
 62
  256
370
   -1
100
AcDbCircle
 10
113
 20
110
 40
2.5
  0
CIRCLE
  5
E1
100
AcDbEntity
  8
0
  6
ByLayer
 62
  256
370
   -1
100
AcDbCircle
 10
160
 20
126
 40
2.5
  0
CIRCLE
  5
E2
100
AcDbEntity
  8
0
  6
ByLayer
 62
  256
370
   -1
100
AcDbCircle
 10
206
 20
70
 40
2.5
  0
CIRCLE
  5
E3
100
AcDbEntity
  8
0
  6
ByLayer
 62
  256
370
   -1
100
AcDbCircle
 10
166
 20
90
 40
2.5
  0
CIRCLE
  5
E4
100
AcDbEntity
  8
0
  6
ByLayer
 62
  256
370
   -1
100
AcDbCircle
 10
113
 20
70
 40
2.5
  0
CIRCLE
  5
E5
100
AcDbEntity
  8
0
  6
ByLayer
 62
  256
370
   -1
100
AcDbCircle
 10
113
 20
30.00000000000001
 40
2.5
  0
CIRCLE
  5
E6
100
AcDbEntity
  8
0
  6
ByLayer
 62
  256
370
   -1
100
AcDbCircle
 10
166
 20
50
 40
2.5
  0
CIRCLE
  5
E7
100
AcDbEntity
  8
0
  6
ByLayer
 62
  256
370
   -1
100
AcDbCircle
 10
130
 20
14.00000000000001
 40
1.5
  0
CIRCLE
  5
E8
100
AcDbEntity
  8
0
  6
ByLayer
 62
  256
370
   -1
100
AcDbCircle
 10
206
 20
16
 40
1.5
  0
CIRCLE
  5
E9
100
AcDbEntity
  8
0
  6
ByLayer
 62
  256
370
   -1
100
AcDbCircle
 10
206
 20
124
 40
1.5
  0
CIRCLE
  5
EA
100
AcDbEntity
  8
0
  6
ByLayer
 62
  256
370
   -1
100
AcDbCircle
 10
130
 20
126
 40
1.5
  0
ENDBLK
  5
52
330
50
100
AcDbEntity
  8
0
100
AcDbBlockEnd
  0
BLOCK
  5
54
330
53
100
AcDbEntity
  8
0
100
AcDbBlockBegin
  2
icp_buttons
 70
    0
 10
0
 20
0
  3
icp_buttons
  1

  0
LWPOLYLINE
  5
EB
100
AcDbEntity
  8
0
  6
ByLayer
 62
  256
370
   -1
100
AcDbPolyline
 90
    8
 70
    1
 43
0
 10
-5.864086801921076e-006
 20
1.000000000000014
 10
-5.86408680214312e-006
 20
10.00000000000001
 42
-0.414213562373095
 10
0.9999941359131982
 20
11.00000000000001
 10
9.999994135913198
 20
11.00000000000001
 42
-0.414213562373095
 10
10.9999941359132
 20
10.00000000000001
 10
10.9999941359132
 20
1.000000000000013
 42
-0.4142135623730945
 10
9.999994135913198
 20
1.4210854715202e-014
 10
0.9999941359131979
 20
1.398881011027697e-014
 42
-0.414213562373095
  0
LWPOLYLINE
  5
EC
100
AcDbEntity
  8
0
  6
ByLayer
 62
  256
370
   -1
100
AcDbPolyline
 90
    8
 70
    1
 43
0
 10
13.9999941359132
 20
1.000000000000014
 10
13.9999941359132
 20
10.00000000000001
 42
-0.414213562373095
 10
14.9999941359132
 20
11.00000000000001
 10
23.9999941359132
 20
11.00000000000001
 42
-0.414213562373095
 10
24.9999941359132
 20
10.00000000000001
 10
24.9999941359132
 20
1.000000000000014
 42
-0.414213562373095
 10
23.9999941359132
 20
1.4210854715202e-014
 10
14.9999941359132
 20
1.398881011027697e-014
 42
-0.414213562373095
  0
LWPOLYLINE
  5
ED
100
AcDbEntity
  8
0
  6
ByLayer
 62
  256
370
   -1
100
AcDbPolyline
 90
    8
 70
    1
 43
0
 10
27.9999941359132
 20
1.000000000000014
 10
27.9999941359132
 20
10.00000000000001
 42
-0.414213562373095
 10
28.9999941359132
 20
11.00000000000001
 10
37.9999941359132
 20
11.00000000000001
 42
-0.414213562373095
 10
38.9999941359132
 20
10.00000000000001
 10
38.9999941359132
 20
1.000000000000014
 42
-0.414213562373095
 10
37.9999941359132
 20
1.4210854715202e-014
 10
28.9999941359132
 20
1.398881011027697e-014
 42
-0.414213562373095
  0
LWPOLYLINE
  5
EE
100
AcDbEntity
  8
0
  6
ByLayer
 62
  256
370
   -1
100
AcDbPolyline
 90
    8
 70
    1
 43
0
 10
-5.864086801921076e-006
 20
15.00000000000001
 10
-5.86408680214312e-006
 20
24.00000000000001
 42
-0.414213562373095
 10
0.9999941359131982
 20
25.00000000000001
 10
9.999994135913198
 20
25.00000000000001
 42
-0.414213562373095
 10
10.9999941359132
 20
24.00000000000001
 10
10.9999941359132
 20
15.00000000000001
 42
-0.4142135623730945
 10
9.999994135913198
 20
14.00000000000001
 10
0.9999941359131979
 20
14.00000000000001
 42
-0.414213562373095
  0
LWPOLYLINE
  5
EF
100
AcDbEntity
  8
0
  6
ByLayer
 62
  256
370
   -1
100
AcDbPolyline
 90
    8
 70
    1
 43
0
 10
13.9999941359132
 20
15.00000000000001
 10
13.9999941359132
 20
24.00000000000001
 42
-0.414213562373095
 10
14.9999941359132
 20
25.00000000000001
 10
23.9999941359132
 20
25.00000000000001
 42
-0.414213562373095
 10
24.9999941359132
 20
24.00000000000001
 10
24.9999941359132
 20
15.00000000000001
 42
-0.414213562373095
 10
23.9999941359132
 20
14.00000000000001
 10
14.9999941359132
 20
14.00000000000001
 42
-0.414213562373095
  0
LWPOLYLINE
  5
F0
100
AcDbEntity
  8
0
  6
ByLayer
 62
  256
370
   -1
100
AcDbPolyline
 90
    8
 70
    1
 43
0
 10
27.9999941359132
 20
15.00000000000001
 10
27.9999941359132
 20
24.00000000000001
 42
-0.414213562373095
 10
28.9999941359132
 20
25.00000000000001
 10
37.9999941359132
 20
25.00000000000001
 42
-0.414213562373095
 10
38.9999941359132
 20
24.00000000000001
 10
38.9999941359132
 20
15.00000000000001
 42
-0.414213562373095
 10
37.9999941359132
 20
14.00000000000001
 10
28.9999941359132
 20
14.00000000000001
 42
-0.414213562373095
  0
LWPOLYLINE
  5
F1
100
AcDbEntity
  8
0
  6
ByLayer
 62
  256
370
   -1
100
AcDbPolyline
 90
    8
 70
    1
 43
0
 10
-5.864086801921076e-006
 20
29.00000000000001
 10
-5.86408680214312e-006
 20
38.00000000000001
 42
-0.414213562373095
 10
0.9999941359131982
 20
39.00000000000001
 10
9.999994135913198
 20
39.00000000000001
 42
-0.414213562373095
 10
10.9999941359132
 20
38.00000000000001
 10
10.9999941359132
 20
29.00000000000001
 42
-0.414213562373095
 10
9.999994135913198
 20
28.00000000000001
 10
0.9999941359131979
 20
28.00000000000001
 42
-0.414213562373095
  0
LWPOLYLINE
  5
F2
100
AcDbEntity
  8
0
  6
ByLayer
 62
  256
370
   -1
100
AcDbPolyline
 90
    8
 70
    1
 43
0
 10
13.9999941359132
 20
29.00000000000001
 10
13.9999941359132
 20
38.00000000000001
 42
-0.414213562373095
 10
14.9999941359132
 20
39.00000000000001
 10
23.9999941359132
 20
39.00000000000001
 42
-0.414213562373095
 10
24.9999941359132
 20
38.00000000000001
 10
24.9999941359132
 20
29.00000000000001
 42
-0.414213562373095
 10
23.9999941359132
 20
28.00000000000001
 10
14.9999941359132
 20
28.00000000000001
 42
-0.414213562373095
  0
LWPOLYLINE
  5
F3
100
AcDbEntity
  8
0
  6
ByLayer
 62
  256
370
   -1
100
AcDbPolyline
 90
    8
 70
    1
 43
0
 10
27.9999941359132
 20
29.00000000000001
 10
27.9999941359132
 20
38.00000000000001
 42
-0.414213562373095
 10
28.9999941359132
 20
39.00000000000001
 10
37.9999941359132
 20
39.00000000000001
 42
-0.414213562373095
 10
38.9999941359132
 20
38.00000000000001
 10
38.9999941359132
 20
29.00000000000001
 42
-0.414213562373095
 10
37.9999941359132
 20
28.00000000000001
 10
28.9999941359132
 20
28.00000000000001
 42
-0.414213562373095
  0
LWPOLYLINE
  5
F4
100
AcDbEntity
  8
0
  6
ByLayer
 62
  256
370
   -1
100
AcDbPolyline
 90
    8
 70
    1
 43
0
 10
-5.864086801921076e-006
 20
43.00000000000001
 10
-5.86408680214312e-006
 20
52.00000000000001
 42
-0.414213562373095
 10
0.9999941359131982
 20
53.00000000000001
 10
9.999994135913198
 20
53.00000000000001
 42
-0.414213562373095
 10
10.9999941359132
 20
52.00000000000001
 10
10.9999941359132
 20
43.00000000000001
 42
-0.414213562373095
 10
9.999994135913198
 20
42.00000000000001
 10
0.9999941359131979
 20
42.00000000000001
 42
-0.414213562373095
  0
LWPOLYLINE
  5
F5
100
AcDbEntity
  8
0
  6
ByLayer
 62
  256
370
   -1
100
AcDbPolyline
 90
    8
 70
    1
 43
0
 10
13.9999941359132
 20
43.00000000000001
 10
13.9999941359132
 20
52.00000000000001
 42
-0.414213562373095
 10
14.9999941359132
 20
53.00000000000001
 10
23.9999941359132
 20
53.00000000000001
 42
-0.414213562373095
 10
24.9999941359132
 20
52.00000000000001
 10
24.9999941359132
 20
43.00000000000001
 42
-0.414213562373095
 10
23.9999941359132
 20
42.00000000000001
 10
14.9999941359132
 20
42.00000000000001
 42
-0.414213562373095
  0
LWPOLYLINE
  5
F6
100
AcDbEntity
  8
0
  6
ByLayer
 62
  256
370
   -1
100
AcDbPolyline
 90
    8
 70
    1
 43
0
 10
27.9999941359132
 20
43.00000000000001
 10
27.9999941359132
 20
52.00000000000001
 42
-0.414213562373095
 10
28.9999941359132
 20
53.00000000000001
 10
37.9999941359132
 20
53.00000000000001
 42
-0.414213562373095
 10
38.9999941359132
 20
52.00000000000001
 10
38.9999941359132
 20
43.00000000000001
 42
-0.414213562373095
 10
37.9999941359132
 20
42.00000000000001
 10
28.9999941359132
 20
42.00000000000001
 42
-0.414213562373095
  0
LWPOLYLINE
  5
F7
100
AcDbEntity
  8
0
  6
ByLayer
 62
  256
370
   -1
100
AcDbPolyline
 90
    8
 70
    1
 43
0
 10
42
 20
0.9999948629751287
 10
42
 20
9.999994862975129
 42
-0.414213562373095
 10
43
 20
10.99999486297513
 10
52
 20
10.99999486297513
 42
-0.414213562373095
 10
53
 20
9.999994862975129
 10
53
 20
0.9999948629751285
 42
-0.414213562373095
 10
52
 20
-5.137024871482154e-006
 10
43
 20
-5.137024871482154e-006
 42
-0.414213562373095
  0
LWPOLYLINE
  5
F8
100
AcDbEntity
  8
0
  6
ByLayer
 62
  256
370
   -1
100
AcDbPolyline
 90
    8
 70
    1
 43
0
 10
56
 20
0.9999948629751287
 10
56
 20
9.999994862975129
 42
-0.414213562373095
 10
57
 20
10.99999486297513
 10
66
 20
10.99999486297513
 42
-0.414213562373095
 10
67
 20
9.999994862975129
 10
67
 20
0.9999948629751285
 42
-0.414213562373095
 10
66
 20
-5.137024871482154e-006
 10
57
 20
-5.137024871482154e-006
 42
-0.414213562373095
  0
LWPOLYLINE
  5
F9
100
AcDbEntity
  8
0
  6
ByLayer
 62
  256
370
   -1
100
AcDbPolyline
 90
    8
 70
    1
 43
0
 10
70
 20
0.9999948629751287
 10
70
 20
9.999994862975129
 42
-0.414213562373095
 10
71
 20
10.99999486297513
 10
80
 20
10.99999486297513
 42
-0.414213562373095
 10
81
 20
9.999994862975129
 10
81
 20
0.9999948629751285
 42
-0.414213562373095
 10
80
 20
-5.137024871482154e-006
 10
71
 20
-5.137024871482154e-006
 42
-0.414213562373095
  0
LWPOLYLINE
  5
FA
100
AcDbEntity
  8
0
  6
ByLayer
 62
  256
370
   -1
100
AcDbPolyline
 90
    8
 70
    1
 43
0
 10
42
 20
14.99999486297513
 10
42
 20
23.99999486297513
 42
-0.414213562373095
 10
43
 20
24.99999486297513
 10
52
 20
24.99999486297513
 42
-0.414213562373095
 10
53
 20
23.99999486297513
 10
53
 20
14.99999486297513
 42
-0.414213562373095
 10
52
 20
13.99999486297513
 10
43
 20
13.99999486297513
 42
-0.414213562373095
  0
LWPOLYLINE
  5
FB
100
AcDbEntity
  8
0
  6
ByLayer
 62
  256
370
   -1
100
AcDbPolyline
 90
    8
 70
    1
 43
0
 10
56
 20
14.99999486297513
 10
56
 20
23.99999486297513
 42
-0.414213562373095
 10
57
 20
24.99999486297513
 10
66
 20
24.99999486297513
 42
-0.414213562373095
 10
67
 20
23.99999486297513
 10
67
 20
14.99999486297513
 42
-0.414213562373095
 10
66
 20
13.99999486297513
 10
57
 20
13.99999486297513
 42
-0.414213562373095
  0
LWPOLYLINE
  5
FC
100
AcDbEntity
  8
0
  6
ByLayer
 62
  256
370
   -1
100
AcDbPolyline
 90
    8
 70
    1
 43
0
 10
70
 20
14.99999486297513
 10
70
 20
23.99999486297513
 42
-0.414213562373095
 10
71
 20
24.99999486297513
 10
80
 20
24.99999486297513
 42
-0.414213562373095
 10
81
 20
23.99999486297513
 10
81
 20
14.99999486297513
 42
-0.414213562373095
 10
80
 20
13.99999486297513
 10
71
 20
13.99999486297513
 42
-0.414213562373095
  0
LWPOLYLINE
  5
FD
100
AcDbEntity
  8
0
  6
ByLayer
 62
  256
370
   -1
100
AcDbPolyline
 90
    8
 70
    1
 43
0
 10
42
 20
28.99999486297513
 10
42
 20
37.99999486297513
 42
-0.414213562373095
 10
43
 20
38.99999486297513
 10
52
 20
38.99999486297513
 42
-0.414213562373095
 10
53
 20
37.99999486297513
 10
53
 20
28.99999486297513
 42
-0.414213562373095
 10
52
 20
27.99999486297513
 10
43
 20
27.99999486297513
 42
-0.414213562373095
  0
LWPOLYLINE
  5
FE
100
AcDbEntity
  8
0
  6
ByLayer
 62
  256
370
   -1
100
AcDbPolyline
 90
    8
 70
    1
 43
0
 10
56
 20
28.99999486297513
 10
56
 20
37.99999486297513
 42
-0.414213562373095
 10
57
 20
38.99999486297513
 10
66
 20
38.99999486297513
 42
-0.414213562373095
 10
67
 20
37.99999486297513
 10
67
 20
28.99999486297513
 42
-0.414213562373095
 10
66
 20
27.99999486297513
 10
57
 20
27.99999486297513
 42
-0.414213562373095
  0
LWPOLYLINE
  5
FF
100
AcDbEntity
  8
0
  6
ByLayer
 62
  256
370
   -1
100
AcDbPolyline
 90
    8
 70
    1
 43
0
 10
70
 20
28.99999486297513
 10
70
 20
37.99999486297513
 42
-0.414213562373095
 10
71
 20
38.99999486297513
 10
80
 20
38.99999486297513
 42
-0.414213562373095
 10
81
 20
37.99999486297513
 10
81
 20
28.99999486297513
 42
-0.414213562373095
 10
80
 20
27.99999486297513
 10
71
 20
27.99999486297513
 42
-0.414213562373095
  0
LWPOLYLINE
  5
100
100
AcDbEntity
  8
0
  6
ByLayer
 62
  256
370
   -1
100
AcDbPolyline
 90
    8
 70
    1
 43
0
 10
42
 20
42.99999486297513
 10
42
 20
51.99999486297513
 42
-0.414213562373095
 10
43
 20
52.99999486297513
 10
52
 20
52.99999486297513
 42
-0.414213562373095
 10
53
 20
51.99999486297513
 10
53
 20
42.99999486297513
 42
-0.414213562373095
 10
52
 20
41.99999486297513
 10
43
 20
41.99999486297513
 42
-0.414213562373095
  0
LWPOLYLINE
  5
101
100
AcDbEntity
  8
0
  6
ByLayer
 62
  256
370
   -1
100
AcDbPolyline
 90
    8
 70
    1
 43
0
 10
56
 20
42.99999486297513
 10
56
 20
51.99999486297513
 42
-0.414213562373095
 10
57
 20
52.99999486297513
 10
66
 20
52.99999486297513
 42
-0.414213562373095
 10
67
 20
51.99999486297513
 10
67
 20
42.99999486297513
 42
-0.414213562373095
 10
66
 20
41.99999486297513
 10
57
 20
41.99999486297513
 42
-0.414213562373095
  0
LWPOLYLINE
  5
102
100
AcDbEntity
  8
0
  6
ByLayer
 62
  256
370
   -1
100
AcDbPolyline
 90
    8
 70
    1
 43
0
 10
70
 20
42.99999486297513
 10
70
 20
51.99999486297513
 42
-0.414213562373095
 10
71
 20
52.99999486297513
 10
80
 20
52.99999486297513
 42
-0.414213562373095
 10
81
 20
51.99999486297513
 10
81
 20
42.99999486297513
 42
-0.414213562373095
 10
80
 20
41.99999486297513
 10
71
 20
41.99999486297513
 42
-0.414213562373095
  0
LWPOLYLINE
  5
103
100
AcDbEntity
  8
0
  6
ByLayer
 62
  256
370
   -1
100
AcDbPolyline
 90
    8
 70
    1
 43
0
 10
83.9999941359132
 20
1.000000000000007
 10
83.9999941359132
 20
10.00000000000001
 42
-0.414213562373095
 10
84.9999941359132
 20
11.00000000000001
 10
93.9999941359132
 20
11.00000000000001
 42
-0.414213562373095
 10
94.9999941359132
 20
10.00000000000001
 10
94.9999941359132
 20
1.000000000000007
 42
-0.414213562373095
 10
93.9999941359132
 20
6.883382752675971e-015
 10
84.9999941359132
 20
6.883382752675971e-015
 42
-0.414213562373095
  0
LWPOLYLINE
  5
104
100
AcDbEntity
  8
0
  6
ByLayer
 62
  256
370
   -1
100
AcDbPolyline
 90
    8
 70
    1
 43
0
 10
97.9999941359132
 20
1.000000000000007
 10
97.9999941359132
 20
10.00000000000001
 42
-0.414213562373095
 10
98.9999941359132
 20
11.00000000000001
 10
107.9999941359132
 20
11.00000000000001
 42
-0.414213562373095
 10
108.9999941359132
 20
10.00000000000001
 10
108.9999941359132
 20
1.000000000000007
 42
-0.414213562373095
 10
107.9999941359132
 20
6.883382752675971e-015
 10
98.9999941359132
 20
6.883382752675971e-015
 42
-0.414213562373095
  0
LWPOLYLINE
  5
105
100
AcDbEntity
  8
0
  6
ByLayer
 62
  256
370
   -1
100
AcDbPolyline
 90
    8
 70
    1
 43
0
 10
111.9999941359132
 20
1.000000000000007
 10
111.9999941359132
 20
10.00000000000001
 42
-0.414213562373095
 10
112.9999941359132
 20
11.00000000000001
 10
121.9999941359132
 20
11.00000000000001
 42
-0.414213562373095
 10
122.9999941359132
 20
10.00000000000001
 10
122.9999941359132
 20
1.000000000000007
 42
-0.414213562373095
 10
121.9999941359132
 20
6.883382752675971e-015
 10
112.9999941359132
 20
6.883382752675971e-015
 42
-0.414213562373095
  0
LWPOLYLINE
  5
106
100
AcDbEntity
  8
0
  6
ByLayer
 62
  256
370
   -1
100
AcDbPolyline
 90
    8
 70
    1
 43
0
 10
83.9999941359132
 20
15.00000000000001
 10
83.9999941359132
 20
24.00000000000001
 42
-0.414213562373095
 10
84.9999941359132
 20
25.00000000000001
 10
93.9999941359132
 20
25.00000000000001
 42
-0.414213562373095
 10
94.9999941359132
 20
24.00000000000001
 10
94.9999941359132
 20
15.00000000000001
 42
-0.414213562373095
 10
93.9999941359132
 20
14.00000000000001
 10
84.9999941359132
 20
14.00000000000001
 42
-0.414213562373095
  0
LWPOLYLINE
  5
107
100
AcDbEntity
  8
0
  6
ByLayer
 62
  256
370
   -1
100
AcDbPolyline
 90
    8
 70
    1
 43
0
 10
97.9999941359132
 20
15.00000000000001
 10
97.9999941359132
 20
24.00000000000001
 42
-0.414213562373095
 10
98.9999941359132
 20
25.00000000000001
 10
107.9999941359132
 20
25.00000000000001
 42
-0.414213562373095
 10
108.9999941359132
 20
24.00000000000001
 10
108.9999941359132
 20
15.00000000000001
 42
-0.414213562373095
 10
107.9999941359132
 20
14.00000000000001
 10
98.9999941359132
 20
14.00000000000001
 42
-0.414213562373095
  0
LWPOLYLINE
  5
108
100
AcDbEntity
  8
0
  6
ByLayer
 62
  256
370
   -1
100
AcDbPolyline
 90
    8
 70
    1
 43
0
 10
111.9999941359132
 20
15.00000000000001
 10
111.9999941359132
 20
24.00000000000001
 42
-0.414213562373095
 10
112.9999941359132
 20
25.00000000000001
 10
121.9999941359132
 20
25.00000000000001
 42
-0.414213562373095
 10
122.9999941359132
 20
24.00000000000001
 10
122.9999941359132
 20
15.00000000000001
 42
-0.414213562373095
 10
121.9999941359132
 20
14.00000000000001
 10
112.9999941359132
 20
14.00000000000001
 42
-0.414213562373095
  0
LWPOLYLINE
  5
109
100
AcDbEntity
  8
0
  6
ByLayer
 62
  256
370
   -1
100
AcDbPolyline
 90
    8
 70
    1
 43
0
 10
83.9999941359132
 20
29.00000000000001
 10
83.9999941359132
 20
38.00000000000001
 42
-0.414213562373095
 10
84.9999941359132
 20
39.00000000000001
 10
93.9999941359132
 20
39.00000000000001
 42
-0.414213562373095
 10
94.9999941359132
 20
38.00000000000001
 10
94.9999941359132
 20
29.00000000000001
 42
-0.414213562373095
 10
93.9999941359132
 20
28.00000000000001
 10
84.9999941359132
 20
28.00000000000001
 42
-0.414213562373095
  0
LWPOLYLINE
  5
10A
100
AcDbEntity
  8
0
  6
ByLayer
 62
  256
370
   -1
100
AcDbPolyline
 90
    8
 70
    1
 43
0
 10
97.9999941359132
 20
29.00000000000001
 10
97.9999941359132
 20
38.00000000000001
 42
-0.414213562373095
 10
98.9999941359132
 20
39.00000000000001
 10
107.9999941359132
 20
39.00000000000001
 42
-0.414213562373095
 10
108.9999941359132
 20
38.00000000000001
 10
108.9999941359132
 20
29.00000000000001
 42
-0.414213562373095
 10
107.9999941359132
 20
28.00000000000001
 10
98.9999941359132
 20
28.00000000000001
 42
-0.414213562373095
  0
LWPOLYLINE
  5
10B
100
AcDbEntity
  8
0
  6
ByLayer
 62
  256
370
   -1
100
AcDbPolyline
 90
    8
 70
    1
 43
0
 10
111.9999941359132
 20
29.00000000000001
 10
111.9999941359132
 20
38.00000000000001
 42
-0.414213562373095
 10
112.9999941359132
 20
39.00000000000001
 10
121.9999941359132
 20
39.00000000000001
 42
-0.414213562373095
 10
122.9999941359132
 20
38.00000000000001
 10
122.9999941359132
 20
29.00000000000001
 42
-0.414213562373095
 10
121.9999941359132
 20
28.00000000000001
 10
112.9999941359132
 20
28.00000000000001
 42
-0.414213562373095
  0
LWPOLYLINE
  5
10C
100
AcDbEntity
  8
0
  6
ByLayer
 62
  256
370
   -1
100
AcDbPolyline
 90
    8
 70
    1
 43
0
 10
83.9999941359132
 20
43
 10
83.9999941359132
 20
52
 42
-0.414213562373095
 10
84.9999941359132
 20
53
 10
93.9999941359132
 20
53
 42
-0.414213562373095
 10
94.9999941359132
 20
52
 10
94.9999941359132
 20
43
 42
-0.414213562373095
 10
93.9999941359132
 20
42
 10
84.9999941359132
 20
42
 42
-0.414213562373095
  0
LWPOLYLINE
  5
10D
100
AcDbEntity
  8
0
  6
ByLayer
 62
  256
370
   -1
100
AcDbPolyline
 90
    8
 70
    1
 43
0
 10
97.9999941359132
 20
43
 10
97.9999941359132
 20
52
 42
-0.414213562373095
 10
98.9999941359132
 20
53
 10
107.9999941359132
 20
53
 42
-0.414213562373095
 10
108.9999941359132
 20
52
 10
108.9999941359132
 20
43
 42
-0.414213562373095
 10
107.9999941359132
 20
42
 10
98.9999941359132
 20
42
 42
-0.414213562373095
  0
LWPOLYLINE
  5
10E
100
AcDbEntity
  8
0
  6
ByLayer
 62
  256
370
   -1
100
AcDbPolyline
 90
    8
 70
    1
 43
0
 10
111.9999941359132
 20
43
 10
111.9999941359132
 20
52
 42
-0.414213562373095
 10
112.9999941359132
 20
53
 10
121.9999941359132
 20
53
 42
-0.414213562373095
 10
122.9999941359132
 20
52
 10
122.9999941359132
 20
43
 42
-0.414213562373095
 10
121.9999941359132
 20
42
 10
112.9999941359132
 20
42
 42
-0.414213562373095
  0
LINE
  5
10F
100
AcDbEntity
  8
0
  6
ByLayer
 62
  256
370
   -1
100
AcDbLine
 10
0
 20
60
 11
120
 21
60
  0
CIRCLE
  5
110
100
AcDbEntity
  8
0
  6
ByLayer
 62
  256
370
   -1
100
AcDbCircle
 10
10
 20
68
 40
6.5
  0
CIRCLE
  5
111
100
AcDbEntity
  8
0
  6
ByLayer
 62
  256
370
   -1
100
AcDbCircle
 10
110
 20
68
 40
6.5
  0
CIRCLE
  5
112
100
AcDbEntity
  8
0
  6
ByLayer
 62
  256
370
   -1
100
AcDbCircle
 10
30
 20
68
 40
6.5
  0
CIRCLE
  5
113
100
AcDbEntity
  8
0
  6
ByLayer
 62
  256
370
   -1
100
AcDbCircle
 10
50
 20
68
 40
6.5
  0
CIRCLE
  5
114
100
AcDbEntity
  8
0
  6
ByLayer
 62
  256
370
   -1
100
AcDbCircle
 10
70
 20
68
 40
6.5
  0
CIRCLE
  5
115
100
AcDbEntity
  8
0
  6
ByLayer
 62
  256
370
   -1
100
AcDbCircle
 10
90
 20
68
 40
6.5
  0
LINE
  5
116
100
AcDbEntity
  8
0
  6
ByLayer
 62
  256
370
   -1
100
AcDbLine
 10
118
 20
77
 11
2
 21
77
  0
LINE
  5
117
100
AcDbEntity
  8
0
  6
ByLayer
 62
  256
370
   -1
100
AcDbLine
 10
120
 20
60
 11
120
 21
65.81966011250111
  0
ARC
  5
118
100
AcDbEntity
  8
0
  6
ByLayer
 62
  256
370
   -1
100
AcDbCircle
 10
115
 20
65.81966011250111
 40
5
100
AcDbArc
 50
0
 51
26.56505117707799
  0
LINE
  5
119
100
AcDbEntity
  8
0
  6
ByLayer
 62
  256
370
   -1
100
AcDbLine
 10
0
 20
60
 11
0
 21
65.81966011250111
  0
ARC
  5
11A
100
AcDbEntity
  8
0
  6
ByLayer
 62
  256
370
   -1
100
AcDbCircle
 10
5
 20
65.81966011250111
 40
5
100
AcDbArc
 50
153.434948822922
 51
180
  0
LINE
  5
11B
100
AcDbEntity
  8
0
  6
ByLayer
 62
  256
370
   -1
100
AcDbLine
 10
0.5278640450004011
 20
68.0557280900008
 11
1.472135954999599
 21
69.9442719099992
  0
LINE
  5
11C
100
AcDbEntity
  8
0
  6
ByLayer
 62
  256
370
   -1
100
AcDbLine
 10
2
 20
72.180339887499
 11
2
 21
77
  0
ARC
  5
11D
100
AcDbEntity
  8
0
  6
ByLayer
 62
  256
370
   -1
100
AcDbCircle
 10
-3
 20
72.180339887499
 40
5
100
AcDbArc
 50
333.4349488229221
 51
0
  0
LINE
  5
11E
100
AcDbEntity
  8
0
  6
ByLayer
 62
  256
370
   -1
100
AcDbLine
 10
119.4721359549996
 20
68.05572809000091
 11
118.5278640450004
 21
69.94427190999909
  0
LINE
  5
11F
100
AcDbEntity
  8
0
  6
ByLayer
 62
  256
370
   -1
100
AcDbLine
 10
118
 20
72.18033988749889
 11
118
 21
77
  0
ARC
  5
120
100
AcDbEntity
  8
0
  6
ByLayer
 62
  256
370
   -1
100
AcDbCircle
 10
123
 20
72.18033988749889
 40
5
100
AcDbArc
 50
180
 51
206.5650511770781
  0
LWPOLYLINE
  5
121
100
AcDbEntity
  8
0
  6
ByLayer
 62
  256
370
   -1
100
AcDbPolyline
 90
    8
 70
    1
 43
0
 10
7.000002535771301
 20
112
 10
1.000002535771301
 20
112
 42
-0.414213562373095
 10
2.535771301381828e-006
 20
113
 10
2.535771301159784e-006
 20
130
 42
-0.414213562373095
 10
1.000002535771301
 20
131
 10
7.000002535771301
 20
131
 42
-0.414213562373095
 10
8.000002535771301
 20
130
 10
8.000002535771301
 20
113
 42
-0.414213562373095
  0
CIRCLE
  5
122
100
AcDbEntity
  8
0
  6
ByLayer
 62
  256
370
   -1
100
AcDbCircle
 10
6
 20
86
 40
5.5
  0
CIRCLE
  5
123
100
AcDbEntity
  8
0
  6
ByLayer
 62
  256
370
   -1
100
AcDbCircle
 10
6
 20
100
 40
5.5
  0
CIRCLE
  5
124
100
AcDbEntity
  8
0
  6
ByLayer
 62
  256
370
   -1
100
AcDbCircle
 10
20
 20
100
 40
5.5
  0
CIRCLE
  5
125
100
AcDbEntity
  8
0
  6
ByLayer
 62
  256
370
   -1
100
AcDbCircle
 10
20
 20
86
 40
5.5
  0
CIRCLE
  5
126
100
AcDbEntity
  8
0
  6
ByLayer
 62
  256
370
   -1
100
AcDbCircle
 10
34
 20
86
 40
5.5
  0
CIRCLE
  5
127
100
AcDbEntity
  8
0
  6
ByLayer
 62
  256
370
   -1
100
AcDbCircle
 10
34
 20
100
 40
5.5
  0
CIRCLE
  5
128
100
AcDbEntity
  8
0
  6
ByLayer
 62
  256
370
   -1
100
AcDbCircle
 10
49
 20
86
 40
5.5
  0
CIRCLE
  5
129
100
AcDbEntity
  8
0
  6
ByLayer
 62
  256
370
   -1
100
AcDbCircle
 10
49
 20
100
 40
5.5
  0
CIRCLE
  5
12A
100
AcDbEntity
  8
0
  6
ByLayer
 62
  256
370
   -1
100
AcDbCircle
 10
63
 20
100
 40
5.5
  0
CIRCLE
  5
12B
100
AcDbEntity
  8
0
  6
ByLayer
 62
  256
370
   -1
100
AcDbCircle
 10
63
 20
86
 40
5.5
  0
CIRCLE
  5
12C
100
AcDbEntity
  8
0
  6
ByLayer
 62
  256
370
   -1
100
AcDbCircle
 10
77
 20
86
 40
5.5
  0
CIRCLE
  5
12D
100
AcDbEntity
  8
0
  6
ByLayer
 62
  256
370
   -1
100
AcDbCircle
 10
77
 20
100
 40
5.5
  0
CIRCLE
  5
12E
100
AcDbEntity
  8
0
  6
ByLayer
 62
  256
370
   -1
100
AcDbCircle
 10
91
 20
100
 40
5.5
  0
CIRCLE
  5
12F
100
AcDbEntity
  8
0
  6
ByLayer
 62
  256
370
   -1
100
AcDbCircle
 10
91
 20
86
 40
5.5
  0
CIRCLE
  5
130
100
AcDbEntity
  8
0
  6
ByLayer
 62
  256
370
   -1
100
AcDbCircle
 10
105
 20
86
 40
5.5
  0
CIRCLE
  5
131
100
AcDbEntity
  8
0
  6
ByLayer
 62
  256
370
   -1
100
AcDbCircle
 10
105
 20
100
 40
5.5
  0
CIRCLE
  5
132
100
AcDbEntity
  8
0
  6
ByLayer
 62
  256
370
   -1
100
AcDbCircle
 10
119
 20
86
 40
5.5
  0
CIRCLE
  5
133
100
AcDbEntity
  8
0
  6
ByLayer
 62
  256
370
   -1
100
AcDbCircle
 10
119
 20
100
 40
5.5
  0
LWPOLYLINE
  5
134
100
AcDbEntity
  8
0
  6
ByLayer
 62
  256
370
   -1
100
AcDbPolyline
 90
    8
 70
    1
 43
0
 10
18.0000025357713
 20
112
 10
12.0000025357713
 20
112
 42
-0.414213562373095
 10
11.0000025357713
 20
113
 10
11.0000025357713
 20
130
 42
-0.414213562373095
 10
12.0000025357713
 20
131
 10
18.0000025357713
 20
131
 42
-0.414213562373095
 10
19.0000025357713
 20
130
 10
19.0000025357713
 20
113
 42
-0.414213562373095
  0
LWPOLYLINE
  5
135
100
AcDbEntity
  8
0
  6
ByLayer
 62
  256
370
   -1
100
AcDbPolyline
 90
    8
 70
    1
 43
0
 10
29.0000025357713
 20
112
 10
23.0000025357713
 20
112
 42
-0.414213562373095
 10
22.0000025357713
 20
113
 10
22.0000025357713
 20
130
 42
-0.414213562373095
 10
23.0000025357713
 20
131
 10
29.0000025357713
 20
131
 42
-0.414213562373095
 10
30.0000025357713
 20
130
 10
30.0000025357713
 20
113
 42
-0.414213562373095
  0
LWPOLYLINE
  5
136
100
AcDbEntity
  8
0
  6
ByLayer
 62
  256
370
   -1
100
AcDbPolyline
 90
    8
 70
    1
 43
0
 10
96
 20
112.0000011625386
 10
96
 20
133.0000011625386
 42
-0.414213562373095
 10
97
 20
134.0000011625386
 10
107
 20
134.0000011625386
 42
-0.414213562373095
 10
108
 20
133.0000011625386
 10
108
 20
112.0000011625386
 42
-0.414213562373095
 10
107
 20
111.0000011625386
 10
97
 20
111.0000011625386
 42
-0.414213562373095
  0
LWPOLYLINE
  5
137
100
AcDbEntity
  8
0
  6
ByLayer
 62
  256
370
   -1
100
AcDbPolyline
 90
    8
 70
    1
 43
0
 10
111.0000006900609
 20
112.0000023250772
 10
111.0000006900609
 20
133.0000023250772
 42
-0.414213562373095
 10
112.0000006900609
 20
134.0000023250772
 10
122.0000006900609
 20
134.0000023250772
 42
-0.414213562373095
 10
123.0000006900609
 20
133.0000023250772
 10
123.0000006900609
 20
112.0000023250772
 42
-0.414213562373095
 10
122.0000006900609
 20
111.0000023250772
 10
112.0000006900609
 20
111.0000023250772
 42
-0.414213562373095
  0
LWPOLYLINE
  5
138
100
AcDbEntity
  8
0
  6
ByLayer
 62
  256
370
   -1
100
AcDbPolyline
 90
    8
 70
    1
 43
0
 10
81
 20
112.0000011625386
 10
81
 20
133.0000011625386
 42
-0.414213562373095
 10
82
 20
134.0000011625386
 10
92
 20
134.0000011625386
 42
-0.414213562373095
 10
93
 20
133.0000011625386
 10
93
 20
112.0000011625386
 42
-0.414213562373095
 10
92
 20
111.0000011625386
 10
82
 20
111.0000011625386
 42
-0.414213562373095
  0
LWPOLYLINE
  5
139
100
AcDbEntity
  8
0
  6
ByLayer
 62
  256
370
   -1
100
AcDbPolyline
 90
    8
 70
    1
 43
0
 10
66
 20
112.0000011625386
 10
66
 20
133.0000011625386
 42
-0.414213562373095
 10
67
 20
134.0000011625386
 10
77
 20
134.0000011625386
 42
-0.414213562373095
 10
78
 20
133.0000011625386
 10
78
 20
112.0000011625386
 42
-0.414213562373095
 10
77
 20
111.0000011625386
 10
67
 20
111.0000011625386
 42
-0.414213562373095
  0
LWPOLYLINE
  5
13A
100
AcDbEntity
  8
0
  6
ByLayer
 62
  256
370
   -1
100
AcDbPolyline
 90
    8
 70
    1
 43
0
 10
40.0000025357713
 20
112
 10
34.0000025357713
 20
112
 42
-0.414213562373095
 10
33.0000025357713
 20
113
 10
33.0000025357713
 20
130
 42
-0.414213562373095
 10
34.0000025357713
 20
131
 10
40.0000025357713
 20
131
 42
-0.414213562373095
 10
41.0000025357713
 20
130
 10
41.0000025357713
 20
113
 42
-0.414213562373095
  0
LWPOLYLINE
  5
13B
100
AcDbEntity
  8
0
  6
ByLayer
 62
  256
370
   -1
100
AcDbPolyline
 90
    8
 70
    1
 43
0
 10
51.0000025357713
 20
112
 10
45.0000025357713
 20
112
 42
-0.414213562373095
 10
44.0000025357713
 20
113
 10
44.0000025357713
 20
130
 42
-0.414213562373095
 10
45.0000025357713
 20
131
 10
51.0000025357713
 20
131
 42
-0.414213562373095
 10
52.0000025357713
 20
130
 10
52.0000025357713
 20
113
 42
-0.414213562373095
  0
LWPOLYLINE
  5
13C
100
AcDbEntity
  8
0
  6
ByLayer
 62
  256
370
   -1
100
AcDbPolyline
 90
    8
 70
    1
 43
0
 10
62.0000025357713
 20
112
 10
56.0000025357713
 20
112
 42
-0.414213562373095
 10
55.0000025357713
 20
113
 10
55.0000025357713
 20
130
 42
-0.414213562373095
 10
56.0000025357713
 20
131
 10
62.0000025357713
 20
131
 42
-0.414213562373095
 10
63.0000025357713
 20
130
 10
63.0000025357713
 20
113
 42
-0.414213562373095
  0
CIRCLE
  5
13D
100
AcDbEntity
  8
0
  6
ByLayer
 62
  256
370
   -1
100
AcDbCircle
 10
6
 20
146
 40
5.5
  0
CIRCLE
  5
13E
100
AcDbEntity
  8
0
  6
ByLayer
 62
  256
370
   -1
100
AcDbCircle
 10
20
 20
146
 40
5.5
  0
CIRCLE
  5
13F
100
AcDbEntity
  8
0
  6
ByLayer
 62
  256
370
   -1
100
AcDbCircle
 10
34
 20
146
 40
5.5
  0
CIRCLE
  5
140
100
AcDbEntity
  8
0
  6
ByLayer
 62
  256
370
   -1
100
AcDbCircle
 10
49
 20
146
 40
5.5
  0
CIRCLE
  5
141
100
AcDbEntity
  8
0
  6
ByLayer
 62
  256
370
   -1
100
AcDbCircle
 10
63
 20
146
 40
5.5
  0
CIRCLE
  5
142
100
AcDbEntity
  8
0
  6
ByLayer
 62
  256
370
   -1
100
AcDbCircle
 10
77
 20
146
 40
5.5
  0
CIRCLE
  5
143
100
AcDbEntity
  8
0
  6
ByLayer
 62
  256
370
   -1
100
AcDbCircle
 10
91
 20
146
 40
5.5
  0
CIRCLE
  5
144
100
AcDbEntity
  8
0
  6
ByLayer
 62
  256
370
   -1
100
AcDbCircle
 10
105
 20
146
 40
5.5
  0
CIRCLE
  5
145
100
AcDbEntity
  8
0
  6
ByLayer
 62
  256
370
   -1
100
AcDbCircle
 10
119
 20
146
 40
5.5
  0
ENDBLK
  5
55
330
53
100
AcDbEntity
  8
0
100
AcDbBlockEnd
  0
ENDSEC
  0
SECTION
  2
ENTITIES
  0
LINE
  5
146
100
AcDbEntity
  8
0
  6
ByLayer
 62
  256
370
   -1
100
AcDbLine
 10
128
 20
100
 11
12.00000000000003
 21
100
  0
LINE
  5
147
100
AcDbEntity
  8
0
  6
ByLayer
 62
  256
370
   -1
100
AcDbLine
 10
12
 20
0
 11
128
 21
-2.842170943040401e-014
  0
LINE
  5
148
100
AcDbEntity
  8
0
  6
ByLayer
 62
  256
370
   -1
100
AcDbLine
 10
10
 20
56
 11
10.00000000000003
 21
83
  0
LINE
  5
149
100
AcDbEntity
  8
0
  6
ByLayer
 62
  256
370
   -1
100
AcDbLine
 10
130
 20
83
 11
130
 21
56
  0
LINE
  5
14A
100
AcDbEntity
  8
0
  6
ByLayer
 62
  256
370
   -1
100
AcDbLine
 10
10
 20
47
 11
0
 21
47
  0
LINE
  5
14B
100
AcDbEntity
  8
0
  6
ByLayer
 62
  256
370
   -1
100
AcDbLine
 10
10
 20
54
 11
10
 21
56
  0
LINE
  5
14C
100
AcDbEntity
  8
0
  6
ByLayer
 62
  256
370
   -1
100
AcDbLine
 10
10
 20
44
 11
10
 21
47
  0
LINE
  5
14D
100
AcDbEntity
  8
0
  6
ByLayer
 62
  256
370
   -1
100
AcDbLine
 10
130
 20
53
 11
140
 21
53
  0
LINE
  5
14E
100
AcDbEntity
  8
0
  6
ByLayer
 62
  256
370
   -1
100
AcDbLine
 10
130
 20
47
 11
140
 21
47
  0
LINE
  5
14F
100
AcDbEntity
  8
0
  6
ByLayer
 62
  256
370
   -1
100
AcDbLine
 10
130
 20
43.99999999999997
 11
130
 21
47
  0
LINE
  5
150
100
AcDbEntity
  8
0
  6
ByLayer
 62
  256
370
   -1
100
AcDbLine
 10
130
 20
53
 11
130
 21
56
  0
LINE
  5
151
100
AcDbEntity
  8
0
  6
ByLayer
 62
  256
370
   -1
100
AcDbLine
 10
140
 20
53
 11
140
 21
47
  0
LINE
  5
152
100
AcDbEntity
  8
0
  6
ByLayer
 62
  256
370
   -1
100
AcDbLine
 10
0
 20
53
 11
10
 21
53
  0
LINE
  5
153
100
AcDbEntity
  8
0
  6
ByLayer
 62
  256
370
   -1
100
AcDbLine
 10
10
 20
53
 11
10
 21
54
  0
LINE
  5
154
100
AcDbEntity
  8
0
  6
ByLayer
 62
  256
370
   -1
100
AcDbLine
 10
0
 20
47
 11
0
 21
53
  0
LINE
  5
155
100
AcDbEntity
  8
0
  6
ByLayer
 62
  256
370
   -1
100
AcDbLine
 10
12.00000000000003
 20
95.18033988749892
 11
12.00000000000003
 21
100
  0
ARC
  5
156
100
AcDbEntity
  8
0
  6
ByLayer
 62
  256
370
   -1
100
AcDbCircle
 10
7.000000000000028
 20
95.18033988749892
 40
5
100
AcDbArc
 50
333.434948822922
 51
360
  0
LINE
  5
157
100
AcDbEntity
  8
0
  6
ByLayer
 62
  256
370
   -1
100
AcDbLine
 10
128
 20
95.18033988749897
 11
128
 21
100
  0
ARC
  5
158
100
AcDbEntity
  8
0
  6
ByLayer
 62
  256
370
   -1
100
AcDbCircle
 10
133
 20
95.18033988749897
 40
5
100
AcDbArc
 50
180
 51
206.5650511770779
  0
LINE
  5
159
100
AcDbEntity
  8
0
  6
ByLayer
 62
  256
370
   -1
100
AcDbLine
 10
10.00000000000003
 20
83
 11
10.00000000000003
 21
88.81966011250108
  0
LINE
  5
15A
100
AcDbEntity
  8
0
  6
ByLayer
 62
  256
370
   -1
100
AcDbLine
 10
10.52786404500043
 20
91.05572809000091
 11
11.47213595499963
 21
92.94427190999909
  0
ARC
  5
15B
100
AcDbEntity
  8
0
  6
ByLayer
 62
  256
370
   -1
100
AcDbCircle
 10
15.00000000000003
 20
88.81966011250108
 40
5
100
AcDbArc
 50
153.4349488229219
 51
180
  0
LINE
  5
15C
100
AcDbEntity
  8
0
  6
ByLayer
 62
  256
370
   -1
100
AcDbLine
 10
130
 20
83
 11
130
 21
88.81966011250108
  0
LINE
  5
15D
100
AcDbEntity
  8
0
  6
ByLayer
 62
  256
370
   -1
100
AcDbLine
 10
129.4721359549996
 20
91.0557280900008
 11
128.5278640450004
 21
92.9442719099992
  0
ARC
  5
15E
100
AcDbEntity
  8
0
  6
ByLayer
 62
  256
370
   -1
100
AcDbCircle
 10
125
 20
88.81966011250108
 40
5
100
AcDbArc
 50
360
 51
26.56505117707774
  0
LINE
  5
15F
100
AcDbEntity
  8
0
  6
ByLayer
 62
  256
370
   -1
100
AcDbLine
 10
12
 20
4.819660112501111
 11
12
 21
0
  0
ARC
  5
160
100
AcDbEntity
  8
0
  6
ByLayer
 62
  256
370
   -1
100
AcDbCircle
 10
7
 20
4.819660112501111
 40
5
100
AcDbArc
 50
360
 51
26.56505117707799
  0
LINE
  5
161
100
AcDbEntity
  8
0
  6
ByLayer
 62
  256
370
   -1
100
AcDbLine
 10
10.5278640450004
 20
8.944271909999088
 11
11.4721359549996
 21
7.055728090000912
  0
LINE
  5
162
100
AcDbEntity
  8
0
  6
ByLayer
 62
  256
370
   -1
100
AcDbLine
 10
10
 20
44
 11
10
 21
11.18033988749889
  0
ARC
  5
163
100
AcDbEntity
  8
0
  6
ByLayer
 62
  256
370
   -1
100
AcDbCircle
 10
15
 20
11.18033988749889
 40
5
100
AcDbArc
 50
180
 51
206.5650511770781
  0
LINE
  5
164
100
AcDbEntity
  8
0
  6
ByLayer
 62
  256
370
   -1
100
AcDbLine
 10
128
 20
4.819660112500969
 11
128
 21
-2.842170943040401e-014
  0
ARC
  5
165
100
AcDbEntity
  8
0
  6
ByLayer
 62
  256
370
   -1
100
AcDbCircle
 10
133
 20
4.819660112500969
 40
5
100
AcDbArc
 50
153.4349488229221
 51
180
  0
LINE
  5
166
100
AcDbEntity
  8
0
  6
ByLayer
 62
  256
370
   -1
100
AcDbLine
 10
129.4721359549995
 20
8.94427190999906
 11
128.5278640450004
 21
7.05572809000077
  0
LINE
  5
167
100
AcDbEntity
  8
0
  6
ByLayer
 62
  256
370
   -1
100
AcDbLine
 10
130
 20
43.99999999999997
 11
130
 21
11.18033988749886
  0
ARC
  5
168
100
AcDbEntity
  8
0
  6
ByLayer
 62
  256
370
   -1
100
AcDbCircle
 10
125
 20
11.18033988749886
 40
5
100
AcDbArc
 50
333.4349488229218
 51
360
  0
LWPOLYLINE
  5
169
100
AcDbEntity
  8
0
  6
ByLayer
 62
  256
370
   -1
100
AcDbPolyline
 90
    8
 70
    1
 43
0
 10
21.00000000000003
 20
78
 10
32.00000000000003
 20
78
 42
-0.414213562373095
 10
33.00000000000003
 20
77
 10
33
 20
66
 42
-0.414213562373095
 10
32
 20
65
 10
21
 20
65
 42
-0.414213562373095
 10
20
 20
66
 10
20.00000000000003
 20
77
 42
-0.414213562373095
  0
LWPOLYLINE
  5
16A
100
AcDbEntity
  8
0
  6
ByLayer
 62
  256
370
   -1
100
AcDbPolyline
 90
    8
 70
    1
 43
0
 10
21
 20
59.4999993124469
 10
32
 20
59.4999993124469
 42
-0.414213562373095
 10
33
 20
58.4999993124469
 10
33
 20
47.4999993124469
 42
-0.414213562373095
 10
32
 20
46.4999993124469
 10
21
 20
46.4999993124469
 42
-0.414213562373095
 10
20
 20
47.4999993124469
 10
20
 20
58.4999993124469
 42
-0.414213562373095
  0
LWPOLYLINE
  5
16B
100
AcDbEntity
  8
0
  6
ByLayer
 62
  256
370
   -1
100
AcDbPolyline
 90
    8
 70
    1
 43
0
 10
83
 20
78
 10
94
 20
78
 42
-0.414213562373095
 10
95
 20
77
 10
95
 20
66
 42
-0.414213562373095
 10
94
 20
65
 10
83
 20
65
 42
-0.414213562373095
 10
82
 20
66
 10
82
 20
77
 42
-0.414213562373095
  0
LWPOLYLINE
  5
16C
100
AcDbEntity
  8
0
  6
ByLayer
 62
  256
370
   -1
100
AcDbPolyline
 90
    8
 70
    1
 43
0
 10
83
 20
59.4999993124469
 10
94
 20
59.4999993124469
 42
-0.414213562373095
 10
95
 20
58.4999993124469
 10
95
 20
47.4999993124469
 42
-0.414213562373095
 10
94
 20
46.4999993124469
 10
83
 20
46.4999993124469
 42
-0.414213562373095
 10
82
 20
47.4999993124469
 10
82
 20
58.4999993124469
 42
-0.414213562373095
  0
LWPOLYLINE
  5
16D
100
AcDbEntity
  8
0
  6
ByLayer
 62
  256
370
   -1
100
AcDbPolyline
 90
    8
 70
    1
 43
0
 10
40.5
 20
41
 10
51.5
 20
41
 42
-0.414213562373095
 10
52.5
 20
40
 10
52.5
 20
29
 42
-0.414213562373095
 10
51.5
 20
28
 10
40.5
 20
28
 42
-0.414213562373095
 10
39.5
 20
29
 10
39.5
 20
40
 42
-0.414213562373095
  0
LWPOLYLINE
  5
16E
100
AcDbEntity
  8
0
  6
ByLayer
 62
  256
370
   -1
100
AcDbPolyline
 90
    8
 70
    1
 43
0
 10
40.50000000000003
 20
78
 10
51.5
 20
78
 42
-0.414213562373095
 10
52.5
 20
77
 10
52.5
 20
66
 42
-0.414213562373095
 10
51.5
 20
65
 10
40.5
 20
65
 42
-0.414213562373095
 10
39.5
 20
66
 10
39.50000000000003
 20
77
 42
-0.414213562373095
  0
LWPOLYLINE
  5
16F
100
AcDbEntity
  8
0
  6
ByLayer
 62
  256
370
   -1
100
AcDbPolyline
 90
    8
 70
    1
 43
0
 10
40.5
 20
59.4999993124469
 10
51.5
 20
59.4999993124469
 42
-0.414213562373095
 10
52.5
 20
58.4999993124469
 10
52.5
 20
47.4999993124469
 42
-0.414213562373095
 10
51.5
 20
46.4999993124469
 10
40.5
 20
46.4999993124469
 42
-0.414213562373095
 10
39.5
 20
47.4999993124469
 10
39.5
 20
58.4999993124469
 42
-0.414213562373095
  0
LWPOLYLINE
  5
170
100
AcDbEntity
  8
0
  6
ByLayer
 62
  256
370
   -1
100
AcDbPolyline
 90
    8
 70
    1
 43
0
 10
59
 20
41
 10
70
 20
41
 42
-0.414213562373095
 10
71
 20
40
 10
71
 20
29
 42
-0.414213562373095
 10
70
 20
28
 10
59
 20
28
 42
-0.414213562373095
 10
58
 20
29
 10
58
 20
40
 42
-0.414213562373095
  0
LWPOLYLINE
  5
171
100
AcDbEntity
  8
0
  6
ByLayer
 62
  256
370
   -1
100
AcDbPolyline
 90
    8
 70
    1
 43
0
 10
59
 20
78
 10
70
 20
78
 42
-0.414213562373095
 10
71
 20
77
 10
71
 20
66
 42
-0.414213562373095
 10
70
 20
65
 10
59
 20
65
 42
-0.414213562373095
 10
58
 20
66
 10
58
 20
77
 42
-0.414213562373095
  0
LWPOLYLINE
  5
172
100
AcDbEntity
  8
0
  6
ByLayer
 62
  256
370
   -1
100
AcDbPolyline
 90
    8
 70
    1
 43
0
 10
59
 20
59.4999993124469
 10
70
 20
59.4999993124469
 42
-0.414213562373095
 10
71
 20
58.4999993124469
 10
71
 20
47.4999993124469
 42
-0.414213562373095
 10
70
 20
46.4999993124469
 10
59
 20
46.4999993124469
 42
-0.414213562373095
 10
58
 20
47.4999993124469
 10
58
 20
58.4999993124469
 42
-0.414213562373095
  0
LWPOLYLINE
  5
173
100
AcDbEntity
  8
0
  6
ByLayer
 62
  256
370
   -1
100
AcDbPolyline
 90
    8
 70
    1
 43
0
 10
77.5
 20
41
 10
88.5
 20
40.99999999999997
 42
-0.414213562373095
 10
89.5
 20
39.99999999999997
 10
89.5
 20
28.99999999999997
 42
-0.414213562373095
 10
88.5
 20
27.99999999999997
 10
77.5
 20
28
 42
-0.414213562373095
 10
76.5
 20
29
 10
76.5
 20
40
 42
-0.414213562373095
  0
CIRCLE
  5
174
100
AcDbEntity
  8
0
  6
ByLayer
 62
  256
370
   -1
100
AcDbCircle
 10
115
 20
68
 40
7
  0
CIRCLE
  5
175
100
AcDbEntity
  8
0
  6
ByLayer
 62
  256
370
   -1
100
AcDbCircle
 10
55
 20
12
 40
7
  0
CIRCLE
  5
176
100
AcDbEntity
  8
0
  6
ByLayer
 62
  256
370
   -1
100
AcDbCircle
 10
83
 20
12
 40
7
  0
CIRCLE
  5
177
100
AcDbEntity
  8
0
  6
ByLayer
 62
  256
370
   -1
100
AcDbCircle
 10
115
 20
19.99999999999997
 40
7
  0
LWPOLYLINE
  5
178
100
AcDbEntity
  8
0
  6
ByLayer
 62
  256
370
   -1
100
AcDbPolyline
 90
    8
 70
    1
 43
0
 10
14.50000000000003
 20
97.5
 10
25.50000000000003
 20
97.5
 42
-0.414213562373095
 10
26.50000000000003
 20
96.5
 10
26.50000000000003
 20
85.5
 42
-0.414213562373095
 10
25.50000000000003
 20
84.5
 10
14.50000000000003
 20
84.5
 42
-0.414213562373095
 10
13.50000000000003
 20
85.5
 10
13.50000000000003
 20
96.5
 42
-0.414213562373095
  0
LWPOLYLINE
  5
179
100
AcDbEntity
  8
0
  6
ByLayer
 62
  256
370
   -1
100
AcDbPolyline
 90
    8
 70
    1
 43
0
 10
34.50000000000003
 20
97.5
 10
45.50000000000003
 20
97.5
 42
-0.414213562373095
 10
46.5
 20
96.5
 10
46.50000000000003
 20
85.5
 42
-0.414213562373095
 10
45.50000000000003
 20
84.5
 10
34.50000000000003
 20
84.5
 42
-0.414213562373095
 10
33.50000000000003
 20
85.5
 10
33.50000000000003
 20
96.5
 42
-0.414213562373095
  0
LWPOLYLINE
  5
17A
100
AcDbEntity
  8
0
  6
ByLayer
 62
  256
370
   -1
100
AcDbPolyline
 90
    8
 70
    1
 43
0
 10
54.5
 20
97.5
 10
65.5
 20
97.5
 42
-0.414213562373095
 10
66.5
 20
96.5
 10
66.5
 20
85.5
 42
-0.414213562373095
 10
65.5
 20
84.5
 10
54.5
 20
84.5
 42
-0.414213562373095
 10
53.5
 20
85.5
 10
53.5
 20
96.5
 42
-0.414213562373095
  0
LWPOLYLINE
  5
17B
100
AcDbEntity
  8
0
  6
ByLayer
 62
  256
370
   -1
100
AcDbPolyline
 90
    8
 70
    1
 43
0
 10
74.5
 20
97.5
 10
85.5
 20
97.5
 42
-0.414213562373095
 10
86.5
 20
96.5
 10
86.5
 20
85.5
 42
-0.414213562373095
 10
85.5
 20
84.5
 10
74.5
 20
84.5
 42
-0.414213562373095
 10
73.5
 20
85.5
 10
73.5
 20
96.5
 42
-0.414213562373095
  0
LWPOLYLINE
  5
17C
100
AcDbEntity
  8
0
  6
ByLayer
 62
  256
370
   -1
100
AcDbPolyline
 90
    8
 70
    1
 43
0
 10
94.5
 20
97.5
 10
105.5
 20
97.5
 42
-0.414213562373095
 10
106.5
 20
96.5
 10
106.5
 20
85.5
 42
-0.414213562373095
 10
105.5
 20
84.5
 10
94.5
 20
84.5
 42
-0.414213562373095
 10
93.5
 20
85.5
 10
93.5
 20
96.5
 42
-0.414213562373095
  0
LWPOLYLINE
  5
17D
100
AcDbEntity
  8
0
  6
ByLayer
 62
  256
370
   -1
100
AcDbPolyline
 90
    8
 70
    1
 43
0
 10
114.5
 20
97.5
 10
125.5
 20
97.5
 42
-0.414213562373095
 10
126.5
 20
96.5
 10
126.5
 20
85.5
 42
-0.414213562373095
 10
125.5
 20
84.5
 10
114.5
 20
84.5
 42
-0.414213562373095
 10
113.5
 20
85.5
 10
113.5
 20
96.5
 42
-0.414213562373095
  0
LWPOLYLINE
  5
17E
100
AcDbEntity
  8
0
  6
ByLayer
 62
  256
370
   -1
100
AcDbPolyline
 90
    8
 70
    1
 43
0
 10
109
 20
59
 10
121
 20
59
 42
-0.414213562373095
 10
122
 20
58
 10
122
 20
34.99999999999997
 42
-0.414213562373095
 10
121
 20
33.99999999999997
 10
109
 20
33.99999999999997
 42
-0.414213562373095
 10
108
 20
34.99999999999997
 10
108
 20
58
 42
-0.414213562373095
  0
LWPOLYLINE
  5
17F
100
AcDbEntity
  8
0
  6
ByLayer
 62
  256
370
   -1
100
AcDbPolyline
 90
   12
 70
    1
 43
0
 10
20
 20
40
 10
20
 20
29
 10
20
 20
28
 10
20
 20
3
 42
0.414213562373095
 10
21
 20
2
 10
33
 20
2
 42
0.414213562373095
 10
34
 20
3
 10
34
 20
28
 10
33
 20
29
 10
33
 20
40
 42
0.414213562373095
 10
32
 20
41
 10
21
 20
41
 42
0.414213562373095
  0
CIRCLE
  5
180
100
AcDbEntity
  8
0
  6
ByLayer
 62
  256
370
   -1
100
AcDbCircle
 10
110
 20
97
 40
2.5
  0
CIRCLE
  5
181
100
AcDbEntity
  8
0
  6
ByLayer
 62
  256
370
   -1
100
AcDbCircle
 10
126
 20
50
 40
2.5
  0
CIRCLE
  5
182
100
AcDbEntity
  8
0
  6
ByLayer
 62
  256
370
   -1
100
AcDbCircle
 10
70
 20
4
 40
2.5
  0
CIRCLE
  5
183
100
AcDbEntity
  8
0
  6
ByLayer
 62
  256
370
   -1
100
AcDbCircle
 10
90
 20
44
 40
2.5
  0
CIRCLE
  5
184
100
AcDbEntity
  8
0
  6
ByLayer
 62
  256
370
   -1
100
AcDbCircle
 10
70
 20
97
 40
2.5
  0
CIRCLE
  5
185
100
AcDbEntity
  8
0
  6
ByLayer
 62
  256
370
   -1
100
AcDbCircle
 10
30.00000000000003
 20
97
 40
2.5
  0
CIRCLE
  5
186
100
AcDbEntity
  8
0
  6
ByLayer
 62
  256
370
   -1
100
AcDbCircle
 10
50
 20
44
 40
2.5
  0
CIRCLE
  5
187
100
AcDbEntity
  8
0
  6
ByLayer
 62
  256
370
   -1
100
AcDbCircle
 10
14.00000000000003
 20
80
 40
1.5
  0
CIRCLE
  5
188
100
AcDbEntity
  8
0
  6
ByLayer
 62
  256
370
   -1
100
AcDbCircle
 10
16
 20
4
 40
1.5
  0
CIRCLE
  5
189
100
AcDbEntity
  8
0
  6
ByLayer
 62
  256
370
   -1
100
AcDbCircle
 10
124
 20
3.999999999999972
 40
1.5
  0
CIRCLE
  5
18A
100
AcDbEntity
  8
0
  6
ByLayer
 62
  256
370
   -1
100
AcDbCircle
 10
126
 20
80
 40
1.5
  0
LINE
  5
18B
100
AcDbEntity
  8
0
  6
ByLayer
 62
  256
370
   -1
100
AcDbLine
 10
10
 20
110
 11
130
 21
110
  0
CIRCLE
  5
18C
100
AcDbEntity
  8
0
  6
ByLayer
 62
  256
370
   -1
100
AcDbCircle
 10
20
 20
118
 40
6.5
  0
CIRCLE
  5
18D
100
AcDbEntity
  8
0
  6
ByLayer
 62
  256
370
   -1
100
AcDbCircle
 10
120
 20
118
 40
6.5
  0
CIRCLE
  5
18E
100
AcDbEntity
  8
0
  6
ByLayer
 62
  256
370
   -1
100
AcDbCircle
 10
40
 20
118
 40
6.5
  0
CIRCLE
  5
18F
100
AcDbEntity
  8
0
  6
ByLayer
 62
  256
370
   -1
100
AcDbCircle
 10
60
 20
118
 40
6.5
  0
CIRCLE
  5
190
100
AcDbEntity
  8
0
  6
ByLayer
 62
  256
370
   -1
100
AcDbCircle
 10
80
 20
118
 40
6.5
  0
CIRCLE
  5
191
100
AcDbEntity
  8
0
  6
ByLayer
 62
  256
370
   -1
100
AcDbCircle
 10
100
 20
118
 40
6.5
  0
LINE
  5
192
100
AcDbEntity
  8
0
  6
ByLayer
 62
  256
370
   -1
100
AcDbLine
 10
128
 20
127
 11
12
 21
127
  0
LINE
  5
193
100
AcDbEntity
  8
0
  6
ByLayer
 62
  256
370
   -1
100
AcDbLine
 10
130
 20
110
 11
130
 21
115.8196601125011
  0
ARC
  5
194
100
AcDbEntity
  8
0
  6
ByLayer
 62
  256
370
   -1
100
AcDbCircle
 10
125
 20
115.8196601125011
 40
5
100
AcDbArc
 50
0
 51
26.56505117707799
  0
LINE
  5
195
100
AcDbEntity
  8
0
  6
ByLayer
 62
  256
370
   -1
100
AcDbLine
 10
10
 20
110
 11
10
 21
115.8196601125011
  0
ARC
  5
196
100
AcDbEntity
  8
0
  6
ByLayer
 62
  256
370
   -1
100
AcDbCircle
 10
15
 20
115.8196601125011
 40
5
100
AcDbArc
 50
153.434948822922
 51
180
  0
LINE
  5
197
100
AcDbEntity
  8
0
  6
ByLayer
 62
  256
370
   -1
100
AcDbLine
 10
10.5278640450004
 20
118.0557280900008
 11
11.4721359549996
 21
119.9442719099992
  0
LINE
  5
198
100
AcDbEntity
  8
0
  6
ByLayer
 62
  256
370
   -1
100
AcDbLine
 10
12
 20
122.180339887499
 11
12
 21
127
  0
ARC
  5
199
100
AcDbEntity
  8
0
  6
ByLayer
 62
  256
370
   -1
100
AcDbCircle
 10
7
 20
122.180339887499
 40
5
100
AcDbArc
 50
333.4349488229221
 51
0
  0
LINE
  5
19A
100
AcDbEntity
  8
0
  6
ByLayer
 62
  256
370
   -1
100
AcDbLine
 10
129.4721359549996
 20
118.0557280900009
 11
128.5278640450004
 21
119.9442719099991
  0
LINE
  5
19B
100
AcDbEntity
  8
0
  6
ByLayer
 62
  256
370
   -1
100
AcDbLine
 10
128
 20
122.1803398874989
 11
128
 21
127
  0
ARC
  5
19C
100
AcDbEntity
  8
0
  6
ByLayer
 62
  256
370
   -1
100
AcDbCircle
 10
133
 20
122.1803398874989
 40
5
100
AcDbArc
 50
180
 51
206.5650511770781
  0
ENDSEC
  0
SECTION
  2
OBJECTS
  0
DICTIONARY
  5
C
330
0
100
AcDbDictionary
281
    1
  3
ACAD_GROUP
350
D
  0
DICTIONARY
  5
D
330
C
100
AcDbDictionary
281
    1
  0
ENDSEC
  0
EOF
