<?xml version="1.0" encoding="UTF-8" standalone="no"?>
<svg
   xmlns:lc="https://librecad.org"
   xmlns:dc="http://purl.org/dc/elements/1.1/"
   xmlns:cc="http://creativecommons.org/ns#"
   xmlns:rdf="http://www.w3.org/1999/02/22-rdf-syntax-ns#"
   xmlns:svg="http://www.w3.org/2000/svg"
   xmlns="http://www.w3.org/2000/svg"
   xmlns:sodipodi="http://sodipodi.sourceforge.net/DTD/sodipodi-0.dtd"
   xmlns:inkscape="http://www.inkscape.org/namespaces/inkscape"
   width="210mm"
   height="297mm"
   viewBox="0 0 210 297"
   version="1.1"
   id="svg8"
   inkscape:version="1.0.2-2 (e86c870879, 2021-01-15)"
   sodipodi:docname="engrave.svg">
  <defs
     id="defs2" />
  <sodipodi:namedview
     id="base"
     pagecolor="#ffffff"
     bordercolor="#666666"
     borderopacity="1.0"
     inkscape:pageopacity="0.0"
     inkscape:pageshadow="2"
     inkscape:zoom="2.4921854"
     inkscape:cx="184.41095"
     inkscape:cy="100.3095"
     inkscape:document-units="mm"
     inkscape:current-layer="layer1"
     inkscape:document-rotation="0"
     showgrid="true"
     inkscape:window-width="1918"
     inkscape:window-height="2083"
     inkscape:window-x="-8"
     inkscape:window-y="38"
     inkscape:window-maximized="0">
    <inkscape:grid
       type="xygrid"
       id="grid991" />
  </sodipodi:namedview>
  <metadata
     id="metadata5">
    <rdf:RDF>
      <cc:Work
         rdf:about="">
        <dc:format>image/svg+xml</dc:format>
        <dc:type
           rdf:resource="http://purl.org/dc/dcmitype/StillImage" />
        <dc:title></dc:title>
      </cc:Work>
    </rdf:RDF>
  </metadata>
  <g
     inkscape:label="Lag 1"
     inkscape:groupmode="layer"
     id="layer1">
    <g
       id="g989"
       transform="translate(6.4770843,4.9791667)"
       style="stroke:#ff0000;stroke-width:0.2;stroke-miterlimit:4;stroke-dasharray:none">
      <g
         lc:layername="0"
         lc:is_locked="false"
         lc:is_construction="false"
         fill="none"
         stroke="#000000"
         stroke-width="1"
         id="g949"
         style="stroke:#ff0000;stroke-width:0.2;stroke-miterlimit:4;stroke-dasharray:none">
        <path
           id="circle897"
           style="stroke:#ff0000;stroke-width:0.2;stroke-miterlimit:4;stroke-dasharray:none"
           d="m 3.8499993,2.999999 a 1.6,1.6 0 0 1 -1.6,1.6000001 1.6,1.6 0 0 1 -1.60000004,-1.6000001 1.6,1.6 0 0 1 1.60000004,-1.6 1.6,1.6 0 0 1 1.6,1.6 z" />
        <path
           id="circle899"
           style="stroke:#ff0000;stroke-width:0.2;stroke-miterlimit:4;stroke-dasharray:none"
           d="m 3.8499993,83 a 1.6,1.6 0 0 1 -1.6,1.6 1.6,1.6 0 0 1 -1.60000004,-1.6 1.6,1.6 0 0 1 1.60000004,-1.6 1.6,1.6 0 0 1 1.6,1.6 z" />
        <path
           id="circle901"
           style="stroke:#ff0000;stroke-width:0.2;stroke-miterlimit:4;stroke-dasharray:none"
           d="m 79.35,2.999999 a 1.6,1.6 0 0 1 -1.6,1.6000001 1.6,1.6 0 0 1 -1.6,-1.6000001 1.6,1.6 0 0 1 1.6,-1.6 1.6,1.6 0 0 1 1.6,1.6 z" />
        <path
           id="circle903"
           style="stroke:#ff0000;stroke-width:0.2;stroke-miterlimit:4;stroke-dasharray:none"
           d="m 79.35,83 a 1.6,1.6 0 0 1 -1.6,1.6 1.6,1.6 0 0 1 -1.6,-1.6 1.6,1.6 0 0 1 1.6,-1.6 1.6,1.6 0 0 1 1.6,1.6 z" />
        <path
           id="circle905"
           style="stroke:#ff0000;stroke-width:0.2;stroke-miterlimit:4;stroke-dasharray:none"
           d="m 72.449997,73.685997 a 3.5,3.5 0 0 1 -3.5,3.5 3.5,3.5 0 0 1 -3.5,-3.5 3.5,3.5 0 0 1 3.5,-3.5 3.5,3.5 0 0 1 3.5,3.5 z" />
        <path
           id="circle907"
           style="stroke:#ff0000;stroke-width:0.2;stroke-miterlimit:4;stroke-dasharray:none"
           d="m 14.550001,73.685997 a 3.5,3.5 0 0 1 -3.5,3.5 3.5,3.5 0 0 1 -3.4999999,-3.5 3.5,3.5 0 0 1 3.4999999,-3.5 3.5,3.5 0 0 1 3.5,3.5 z" />
        <path
           d="M 80,83 V 3 A 3,3 0 0 0 77,0 H 3 A 3,3 0 0 0 0,3 v 80 a 3,3 0 0 0 3,3 h 74 a 3,3 0 0 0 3,-3"
           id="path909"
           style="stroke:#ff0000;stroke-width:0.2;stroke-miterlimit:4;stroke-dasharray:none" />
        <path
           d="M 74.249999,53.999999 V 53.671542"
           id="path911"
           style="stroke:#ff0000;stroke-width:0.2;stroke-miterlimit:4;stroke-dasharray:none" />
        <path
           id="line913"
           style="stroke:#ff0000;stroke-width:0.2;stroke-miterlimit:4;stroke-dasharray:none"
           d="M 6.2499995,57 27.25,82" />
        <path
           id="line915"
           style="stroke:#ff0000;stroke-width:0.2;stroke-miterlimit:4;stroke-dasharray:none"
           d="M 74.25,56.671543 V 20.999998" />
        <path
           id="line917"
           style="stroke:#ff0000;stroke-width:0.2;stroke-miterlimit:4;stroke-dasharray:none"
           d="m 74.25,20.999998 v -2" />
        <path
           d="m 74.249999,18.999999 a 50.961538,50.961538 0 0 0 -67.9999997,0"
           id="path919"
           style="stroke:#ff0000;stroke-width:0.2;stroke-miterlimit:4;stroke-dasharray:none" />
        <path
           id="line921"
           style="stroke:#ff0000;stroke-width:0.2;stroke-miterlimit:4;stroke-dasharray:none"
           d="M 6.2499995,18.999998 V 57" />
        <path
           id="line923"
           style="stroke:#ff0000;stroke-width:0.2;stroke-miterlimit:4;stroke-dasharray:none"
           d="m 73.75,57 -21,25" />
        <path
           id="line925"
           style="stroke:#ff0000;stroke-width:0.2;stroke-miterlimit:4;stroke-dasharray:none"
           d="m 27.25,82 h 25.5" />
        <path
           id="line927"
           style="stroke:#ff0000;stroke-width:0.2;stroke-miterlimit:4;stroke-dasharray:none"
           d="M 69.25,56 V 52.209705" />
        <path
           id="line929"
           style="stroke:#ff0000;stroke-width:0.2;stroke-miterlimit:4;stroke-dasharray:none"
           d="M 69.25,52.209705 V 23.303957" />
        <path
           id="line931"
           style="stroke:#ff0000;stroke-width:0.2;stroke-miterlimit:4;stroke-dasharray:none"
           d="m 69.25,23.303957 v -2" />
        <path
           d="m 69.249999,21.303957 a 45.961538,45.961538 0 0 0 -58,0"
           id="path933"
           style="stroke:#ff0000;stroke-width:0.2;stroke-miterlimit:4;stroke-dasharray:none" />
        <path
           id="line935"
           style="stroke:#ff0000;stroke-width:0.2;stroke-miterlimit:4;stroke-dasharray:none"
           d="m 11.249999,21.303957 v 2" />
        <path
           id="line937"
           style="stroke:#ff0000;stroke-width:0.2;stroke-miterlimit:4;stroke-dasharray:none"
           d="M 11.249999,23.303957 V 52.333332" />
        <path
           id="line939"
           style="stroke:#ff0000;stroke-width:0.2;stroke-miterlimit:4;stroke-dasharray:none"
           d="m 11.249999,52.333332 v 4" />
        <path
           id="line941"
           style="stroke:#ff0000;stroke-width:0.2;stroke-miterlimit:4;stroke-dasharray:none"
           d="M 11.249999,56.333332 32.25,73" />
        <path
           id="line943"
           style="stroke:#ff0000;stroke-width:0.2;stroke-miterlimit:4;stroke-dasharray:none"
           d="M 11.249999,40 H 69.25" />
        <path
           id="line945"
           style="stroke:#ff0000;stroke-width:0.2;stroke-miterlimit:4;stroke-dasharray:none"
           d="M 68.75,56.333332 47.75,73" />
        <path
           id="line947"
           style="stroke:#ff0000;stroke-width:0.2;stroke-miterlimit:4;stroke-dasharray:none"
           d="m 32.25,73 h 15.5" />
      </g>
      <g
         lc:layername="dimensions"
         lc:is_locked="false"
         lc:is_construction="false"
         fill="none"
         stroke="#000000"
         stroke-width="1"
         id="g951"
         style="stroke:#ff0000;stroke-width:0.2;stroke-miterlimit:4;stroke-dasharray:none" />
    </g>
    <path
       style="fill:none;stroke:#000000;stroke-width:1.1418;stroke-linecap:butt;stroke-linejoin:miter;stroke-miterlimit:4;stroke-dasharray:none;stroke-opacity:1"
       d="m 13.493751,44.979167 h 3.704166"
       id="path993" />
    <path
       id="path995"
       style="fill:#000000;stroke:none;stroke-width:5.99127;stroke-miterlimit:4;stroke-dasharray:none"
       d="m 16.18147,32.011192 a 0.83563602,0.80729437 0 0 1 -0.835636,0.807295 0.83563602,0.80729437 0 0 1 -0.835636,-0.807295 0.83563602,0.80729437 0 0 1 0.835636,-0.807294 0.83563602,0.80729437 0 0 1 0.835636,0.807294 z" />
    <path
       id="path995-4"
       style="fill:#000000;stroke:none;stroke-width:5.99127;stroke-miterlimit:4;stroke-dasharray:none"
       d="m 16.18147,38.495178 a 0.83563602,0.80729437 0 0 1 -0.835636,0.807295 0.83563602,0.80729437 0 0 1 -0.835636,-0.807295 0.83563602,0.80729437 0 0 1 0.835636,-0.807294 0.83563602,0.80729437 0 0 1 0.835636,0.807294 z" />
    <path
       id="path995-6"
       style="fill:#000000;stroke:none;stroke-width:5.99127;stroke-miterlimit:4;stroke-dasharray:none"
       d="m 16.18147,51.463158 a 0.83563602,0.80729437 0 0 1 -0.835636,0.807294 0.83563602,0.80729437 0 0 1 -0.835636,-0.807294 0.83563602,0.80729437 0 0 1 0.835636,-0.807295 0.83563602,0.80729437 0 0 1 0.835636,0.807295 z" />
    <path
       id="path995-4-1"
       style="fill:#000000;stroke:none;stroke-width:5.99127;stroke-miterlimit:4;stroke-dasharray:none"
       d="m 16.18147,57.947144 a 0.83563602,0.80729437 0 0 1 -0.835636,0.807294 0.83563602,0.80729437 0 0 1 -0.835636,-0.807294 0.83563602,0.80729437 0 0 1 0.835636,-0.807295 0.83563602,0.80729437 0 0 1 0.835636,0.807295 z" />
    <path
       style="fill:none;stroke:#000000;stroke-width:1.1418;stroke-linecap:butt;stroke-linejoin:miter;stroke-miterlimit:4;stroke-dasharray:none;stroke-opacity:1"
       d="m 76.200001,44.979167 h 3.704166"
       id="path993-6" />
  </g>
</svg>
