<?xml version="1.0"?>
<svg xmlns="http://www.w3.org/2000/svg" xmlns:lc="https://librecad.org" xmlns:xlink="http://www.w3.org/1999/xlink" width="74mm" height="62mm" viewBox="0 0 74 62">
    <g lc:layername="0" lc:is_locked="false" lc:is_construction="false" fill="none" stroke="black" stroke-width="1">
        <path d="M57.84743113,5 A0,0 0 1,0 57.84743113,5 L74,5 L74,19 L66,19 A0,0 0 0,0 66,19 L66,36.57536329 L74,36.57536329 L74,50.57536329 L58.89504225,50.57536329 A0,0 0 1,0 58.89504225,50.57536329 L44.5,62 L29,62 L14.60495775,50.57536329 L0,50.57536329 L0,36.57536329 L8,36.57536329 L8,19 A0,0 0 1,0 8,19 L0,19 L0,5 L16.15256887,5 A45.96153846,45.96153846 0 0,1 57.84743113,5 "/>
        <path d="M67,50.57536329 L67.21398708,50.57536329 "/>
    </g>
    <g lc:layername="dimensions" lc:is_locked="false" lc:is_construction="false" fill="none" stroke="black" stroke-width="1"/>
</svg>
