<?xml version="1.0"?>
<svg xmlns="http://www.w3.org/2000/svg" xmlns:lc="https://librecad.org" xmlns:xlink="http://www.w3.org/1999/xlink" width="80mm" height="86mm" viewBox="0 0 80 86">
    <g lc:layername="0" lc:is_locked="false" lc:is_construction="false" fill="none" stroke="black" stroke-width="1">
        <circle cx="39.99999933" cy="39.99999897" r="25"/>
        <circle cx="10" cy="10" r="1.5"/>
        <circle cx="70" cy="10" r="1.5"/>
        <circle cx="23.99999933" cy="79.99999897" r="1.5"/>
        <circle cx="55.99999933" cy="79.99999897" r="1.5"/>
        <path d="M6,0 L74,0 L74,3 A3,3 0 0,0 77,6 L80,6 L80,80 L77,80 A3,3 0 0,0 74,83 L74,86 L6,86 L6,83 A3,3 0 0,0 3,80 L0,80 L0,6 L3,6 A3,3 0 0,0 6,3 L6,0 Z "/>
        <path d="M11.05000056,83.58549273 L20.9494955,73.68599779 L11.05000078,63.78650263 L1.15050585,73.68599757 L11.05000056,83.58549273 "/>
        <path d="M68.94999809,83.58549273 L59.05050315,73.68599779 L68.94999787,63.78650263 L78.8494928,73.68599757 L68.94999809,83.58549273 "/>
        <path d="M3.24999933,32.99999897 L10.24999933,32.99999897 L10.24999933,12.99999897 L3.24999933,12.99999897 L3.24999933,32.99999897 Z "/>
        <path d="M77.24999933,32.99999897 L70.24999933,32.99999897 L70.24999933,12.99999897 L77.24999933,12.99999897 L77.24999933,32.99999897 Z "/>
        <path d="M10.24999933,64.57536226 L3.24999933,64.57536226 L3.24999933,44.57536226 L10.24999933,44.57536226 L10.24999933,64.57536226 Z "/>
        <path d="M77.24999933,64.57536226 L77.24999933,44.57536226 L70.24999933,44.57536226 L70.24999933,64.57536226 L77.24999933,64.57536226 Z "/>
        <path d="M70.24999933,64.57536226 Z "/>
    </g>
    <g lc:layername="dimensions" lc:is_locked="false" lc:is_construction="false" fill="none" stroke="black" stroke-width="1"/>
</svg>
