999
dxfrw 0.6.3
  0
SECTION
  2
HEADER
  9
$ACADVER
  1
AC1021
  9
$DWGCODEPAGE
  3
ANSI_1252
  9
$INSBASE
 10
0
 20
0
 30
0
  9
$EXTMIN
 10
-43.1249999999999
 20
-0.009114750468998206
 30
0
  9
$EXTMAX
 10
281.2500000000002
 20
544.9036075025008
 30
0
  9
$LIMMIN
 10
0
 20
0
  9
$LIMMAX
 10
420
 20
297
  9
$ORTHOMODE
 70
    0
  9
$REGENMODE
 70
    1
  9
$FILLMODE
 70
    1
  9
$QTEXTMODE
 70
    0
  9
$MIRRTEXT
 70
    0
  9
$LTSCALE
 40
1
  9
$ATTMODE
 70
    0
  9
$TEXTSIZE
 40
2.5
  9
$TRACEWID
 40
15.68
  9
$TEXTSTYLE
  7
STANDARD
  9
$CLAYER
  8
measure
  9
$CELTYPE
  6
BYLAYER
  9
$CECOLOR
 62
  256
  9
$CELTSCALE
 40
1
  9
$DISPSILH
 70
    0
  9
$DIMSCALE
 40
1
  9
$DIMASZ
 40
2.5
  9
$DIMEXO
 40
5
  9
$DIMDLI
 40
3.75
  9
$DIMRND
 40
0
  9
$DIMDLE
 40
0
  9
$DIMEXE
 40
1.25
  9
$DIMTP
 40
0
  9
$DIMTM
 40
0
  9
$DIMTXT
 40
2.5
  9
$DIMCEN
 40
2.5
  9
$DIMTSZ
 40
0
  9
$DIMTOL
 70
    0
  9
$DIMLIM
 70
    0
  9
$DIMTIH
 70
    0
  9
$DIMTOH
 70
    0
  9
$DIMSE1
 70
    0
  9
$DIMSE2
 70
    0
  9
$DIMTAD
 70
    1
  9
$DIMZIN
 70
    1
  9
$DIMBLK
  1

  9
$DIMASO
 70
    1
  9
$DIMSHO
 70
    1
  9
$DIMPOST
  1

  9
$DIMAPOST
  1

  9
$DIMALT
 70
    0
  9
$DIMALTD
 70
    3
  9
$DIMALTF
 40
0.03937
  9
$DIMLFAC
 40
1
  9
$DIMTOFL
 70
    1
  9
$DIMTVP
 40
0
  9
$DIMTIX
 70
    0
  9
$DIMSOXD
 70
    0
  9
$DIMSAH
 70
    0
  9
$DIMBLK1
  1

  9
$DIMBLK2
  1

  9
$DIMSTYLE
  2
STANDARD
  9
$DIMCLRD
 70
    0
  9
$DIMCLRE
 70
    0
  9
$DIMCLRT
 70
    0
  9
$DIMTFAC
 40
1
  9
$DIMGAP
 40
0.625
  9
$DIMJUST
 70
    0
  9
$DIMSD1
 70
    0
  9
$DIMSD2
 70
    0
  9
$DIMTOLJ
 70
    0
  9
$DIMTZIN
 70
    8
  9
$DIMALTZ
 70
    0
  9
$DIMALTTZ
 70
    0
  9
$DIMUPT
 70
    0
  9
$DIMDEC
 70
    1
  9
$DIMTDEC
 70
    2
  9
$DIMALTU
 70
    2
  9
$DIMALTTD
 70
    3
  9
$DIMTXSTY
  7
STANDARD
  9
$DIMAUNIT
 70
    0
  9
$DIMADEC
 70
    2
  9
$DIMALTRND
 40
0
  9
$DIMAZIN
 70
    0
  9
$DIMDSEP
 70
    0
  9
$DIMATFIT
 70
    3
  9
$DIMFRAC
 70
    0
  9
$DIMLDRBLK
  1
STANDARD
  9
$DIMLUNIT
 70
    2
  9
$DIMLWD
 70
   -2
  9
$DIMLWE
 70
   -2
  9
$DIMTMOVE
 70
    0
  9
$DIMFXL
 40
1
  9
$DIMFXLON
 70
    0
  9
$DIMJOGANG
 40
0.7854
  9
$DIMTFILL
 70
    0
  9
$DIMTFILLCLR
 70
    0
  9
$DIMARCSYM
 70
    0
  9
$DIMLTYPE
  6

  9
$DIMLTEX1
  6

  9
$DIMLTEX2
  6

  9
$LUNITS
 70
    2
  9
$LUPREC
 70
    4
  9
$SKETCHINC
 40
1
  9
$FILLETRAD
 40
0
  9
$AUNITS
 70
    0
  9
$AUPREC
 70
    2
  9
$MENU
  1
.
  9
$ELEVATION
 40
0
  9
$PELEVATION
 40
0
  9
$THICKNESS
 40
0
  9
$LIMCHECK
 70
    0
  9
$CHAMFERA
 40
0
  9
$CHAMFERB
 40
0
  9
$CHAMFERC
 40
0
  9
$CHAMFERD
 40
0
  9
$SKPOLY
 70
    0
  9
$USRTIMER
 70
    1
  9
$ANGBASE
 50
0
  9
$ANGDIR
 70
    0
  9
$PDMODE
 70
   34
  9
$PDSIZE
 40
0
  9
$PLINEWID
 40
0
  9
$SPLFRAME
 70
    0
  9
$SPLINETYPE
 70
    2
  9
$SPLINESEGS
 70
    8
  9
$HANDSEED
  5
20000
  9
$SURFTAB1
 70
    6
  9
$SURFTAB2
 70
    6
  9
$SURFTYPE
 70
    6
  9
$SURFU
 70
    6
  9
$SURFV
 70
    6
  9
$UCSBASE
  2

  9
$UCSNAME
  2

  9
$UCSORG
 10
0
 20
0
 30
0
  9
$UCSXDIR
 10
1
 20
0
 30
0
  9
$UCSYDIR
 10
0
 20
1
 30
0
  9
$UCSORTHOREF
  2

  9
$UCSORTHOVIEW
 70
    0
  9
$UCSORGTOP
 10
0
 20
0
 30
0
  9
$UCSORGBOTTOM
 10
0
 20
0
 30
0
  9
$UCSORGLEFT
 10
0
 20
0
 30
0
  9
$UCSORGRIGHT
 10
0
 20
0
 30
0
  9
$UCSORGFRONT
 10
0
 20
0
 30
0
  9
$UCSORGBACK
 10
0
 20
0
 30
0
  9
$PUCSBASE
  2

  9
$PUCSNAME
  2

  9
$PUCSORG
 10
0
 20
0
 30
0
  9
$PUCSXDIR
 10
1
 20
0
 30
0
  9
$PUCSYDIR
 10
0
 20
1
 30
0
  9
$PUCSORTHOREF
  2

  9
$PUCSORTHOVIEW
 70
    0
  9
$PUCSORGTOP
 10
0
 20
0
 30
0
  9
$PUCSORGBOTTOM
 10
0
 20
0
 30
0
  9
$PUCSORGLEFT
 10
0
 20
0
 30
0
  9
$PUCSORGRIGHT
 10
0
 20
0
 30
0
  9
$PUCSORGFRONT
 10
0
 20
0
 30
0
  9
$PUCSORGBACK
 10
0
 20
0
 30
0
  9
$USERI1
 70
    0
  9
$USERI2
 70
    0
  9
$USERI3
 70
    0
  9
$USERI4
 70
    0
  9
$USERI5
 70
    0
  9
$USERR1
 40
0
  9
$USERR2
 40
0
  9
$USERR3
 40
0
  9
$USERR4
 40
0
  9
$USERR5
 40
0
  9
$WORLDVIEW
 70
    1
  9
$SHADEDGE
 70
    3
  9
$SHADEDIF
 70
   70
  9
$TILEMODE
 70
    1
  9
$MAXACTVP
 70
   64
  9
$PINSBASE
 10
0
 20
0
 30
0
  9
$PLIMCHECK
 70
    0
  9
$PEXTMIN
 10
0
 20
0
 30
0
  9
$PEXTMAX
 10
0
 20
0
 30
0
  9
$GRIDMODE
 70
    1
  9
$SNAPSTYLE
 70
    0
  9
$GRIDUNIT
 10
0
 20
0
  9
$PLIMMIN
 10
0
 20
0
  9
$PLIMMAX
 10
297
 20
210
  9
$UNITMODE
 70
    0
  9
$VISRETAIN
 70
    1
  9
$PLINEGEN
 70
    0
  9
$PSLTSCALE
 70
    1
  9
$TREEDEPTH
 70
 3020
  9
$CMLSTYLE
  2
Standard
  9
$CMLJUST
 70
    0
  9
$CMLSCALE
 40
20
  9
$PROXYGRAPHICS
 70
    1
  9
$MEASUREMENT
 70
    1
  9
$CELWEIGHT
370
   -1
  9
$ENDCAPS
280
    0
  9
$JOINSTYLE
280
    0
  9
$LWDISPLAY
290
    0
  9
$INSUNITS
 70
    4
  9
$HYPERLINKBASE
  1

  9
$STYLESHEET
  1

  9
$XEDIT
290
    1
  9
$CEPSNTYPE
380
    0
  9
$PSTYLEMODE
290
    1
  9
$EXTNAMES
290
    1
  9
$PSVPSCALE
 40
0
  9
$OLESTARTUP
290
    0
  9
$SORTENTS
280
  127
  9
$INDEXCTL
280
    0
  9
$HIDETEXT
280
    1
  9
$XCLIPFRAME
290
    0
  9
$HALOGAP
280
    0
  9
$OBSCOLOR
 70
  257
  9
$OBSLTYPE
280
    0
  9
$INTERSECTIONDISPLAY
280
    0
  9
$INTERSECTIONCOLOR
 70
  257
  9
$DIMASSOC
280
    1
  9
$PROJECTNAME
  1

  9
$CAMERADISPLAY
290
    0
  9
$LENSLENGTH
 40
50
  9
$CAMERAHEIGHT
 40
0
  9
$STEPSPERSEC
 40
2
  9
$STEPSIZE
 40
50
  9
$3DDWFPREC
 40
2
  9
$PSOLWIDTH
 40
5
  9
$PSOLHEIGHT
 40
80
  9
$LOFTANG1
 40
1.570796326794897
  9
$LOFTANG2
 40
1.570796326794897
  9
$LOFTMAG1
 40
0
  9
$LOFTMAG2
 40
0
  9
$LOFTPARAM
 70
    7
  9
$LOFTNORMALS
280
    1
  9
$LATITUDE
 40
1
  9
$LONGITUDE
 40
1
  9
$NORTHDIRECTION
 40
0
  9
$TIMEZONE
 70
-8000
  9
$LIGHTGLYPHDISPLAY
280
    1
  9
$TILEMODELIGHTSYNCH
280
    1
  9
$SOLIDHIST
280
    1
  9
$SHOWHIST
280
    1
  9
$DWFFRAME
280
    2
  9
$DGNFRAME
280
    0
  9
$REALWORLDSCALE
290
    1
  9
$INTERFERECOLOR
 62
    1
  9
$CSHADOW
280
    0
  9
$SHADOWPLANELOCATION
 40
0
  0
ENDSEC
  0
SECTION
  2
CLASSES
  0
ENDSEC
  0
SECTION
  2
TABLES
  0
TABLE
  2
VPORT
  5
8
330
0
100
AcDbSymbolTable
 70
    1
  0
VPORT
  5
31
330
2
100
AcDbSymbolTableRecord
100
AcDbViewportTableRecord
  2
*ACTIVE
 70
    0
 10
0
 20
0
 11
1
 21
1
 12
435.4143732653335
 22
334.2705688763085
 13
0
 23
0
 14
10
 24
10
 15
10
 25
10
 16
0
 26
0
 36
1
 17
0
 27
0
 37
0
 40
809.581751975266
 41
1.848161960575386
 42
50
 43
0
 44
0
 50
0
 51
0
 71
    0
 72
  100
 73
    1
 74
    3
 75
    0
 76
    1
 77
    0
 78
    0
281
    0
 65
    1
110
0
120
0
130
0
111
1
121
0
131
0
112
0
122
1
132
0
 79
    0
146
0
348
10020
 60
    7
 61
    5
292
1
282
    1
141
0
142
0
 63
  250
421
3358443
  0
ENDTAB
  0
TABLE
  2
LTYPE
  5
5
330
0
100
AcDbSymbolTable
 70
    4
  0
LTYPE
  5
14
330
5
100
AcDbSymbolTableRecord
100
AcDbLinetypeTableRecord
  2
ByBlock
 70
    0
  3

 72
   65
 73
    0
 40
0
  0
LTYPE
  5
15
330
5
100
AcDbSymbolTableRecord
100
AcDbLinetypeTableRecord
  2
ByLayer
 70
    0
  3

 72
   65
 73
    0
 40
0
  0
LTYPE
  5
16
330
5
100
AcDbSymbolTableRecord
100
AcDbLinetypeTableRecord
  2
Continuous
 70
    0
  3
Solid line
 72
   65
 73
    0
 40
0
  0
LTYPE
  5
32
330
5
100
AcDbSymbolTableRecord
100
AcDbLinetypeTableRecord
  2
DOT
 70
    0
  3
Dot . . . . . . . . . . . . . . . . . . . . . .
 72
   65
 73
    2
 40
6.35
 49
0
 74
    0
 49
-6.35
 74
    0
  0
LTYPE
  5
33
330
5
100
AcDbSymbolTableRecord
100
AcDbLinetypeTableRecord
  2
DOTTINY
 70
    0
  3
Dot (.15x) .....................................
 72
   65
 73
    2
 40
0.9525
 49
0
 74
    0
 49
-0.9525
 74
    0
  0
LTYPE
  5
34
330
5
100
AcDbSymbolTableRecord
100
AcDbLinetypeTableRecord
  2
DOT2
 70
    0
  3
Dot (.5x) .....................................
 72
   65
 73
    2
 40
3.175
 49
0
 74
    0
 49
-3.175
 74
    0
  0
LTYPE
  5
35
330
5
100
AcDbSymbolTableRecord
100
AcDbLinetypeTableRecord
  2
DOTX2
 70
    0
  3
Dot (2x) .  .  .  .  .  .  .  .  .  .  .  .  .
 72
   65
 73
    2
 40
12.7
 49
0
 74
    0
 49
-12.7
 74
    0
  0
LTYPE
  5
36
330
5
100
AcDbSymbolTableRecord
100
AcDbLinetypeTableRecord
  2
DASHED
 70
    0
  3
Dashed _ _ _ _ _ _ _ _ _ _ _ _ _ _ _ _ _
 72
   65
 73
    2
 40
19.05
 49
12.7
 74
    0
 49
-6.35
 74
    0
  0
LTYPE
  5
37
330
5
100
AcDbSymbolTableRecord
100
AcDbLinetypeTableRecord
  2
DASHEDTINY
 70
    0
  3
Dashed (.15x) _ _ _ _ _ _ _ _ _ _ _ _ _ _ _ _ _
 72
   65
 73
    2
 40
2.8575
 49
1.905
 74
    0
 49
-0.9525
 74
    0
  0
LTYPE
  5
38
330
5
100
AcDbSymbolTableRecord
100
AcDbLinetypeTableRecord
  2
DASHED2
 70
    0
  3
Dashed (.5x) _ _ _ _ _ _ _ _ _ _ _ _ _ _ _ _ _
 72
   65
 73
    2
 40
9.524999999999999
 49
6.35
 74
    0
 49
-3.175
 74
    0
  0
LTYPE
  5
39
330
5
100
AcDbSymbolTableRecord
100
AcDbLinetypeTableRecord
  2
DASHEDX2
 70
    0
  3
Dashed (2x) ____  ____  ____  ____  ____  ___
 72
   65
 73
    2
 40
38.09999999999999
 49
25.4
 74
    0
 49
-12.7
 74
    0
  0
LTYPE
  5
3A
330
5
100
AcDbSymbolTableRecord
100
AcDbLinetypeTableRecord
  2
DASHDOT
 70
    0
  3
Dash dot __ . __ . __ . __ . __ . __ . __ . __
 72
   65
 73
    4
 40
25.4
 49
12.7
 74
    0
 49
-6.35
 74
    0
 49
0
 74
    0
 49
-6.35
 74
    0
  0
LTYPE
  5
3B
330
5
100
AcDbSymbolTableRecord
100
AcDbLinetypeTableRecord
  2
DASHDOTTINY
 70
    0
  3
Dash dot (.15x) _._._._._._._._._._._._._._._.
 72
   65
 73
    4
 40
3.81
 49
1.905
 74
    0
 49
-0.9525
 74
    0
 49
0
 74
    0
 49
-0.9525
 74
    0
  0
LTYPE
  5
3C
330
5
100
AcDbSymbolTableRecord
100
AcDbLinetypeTableRecord
  2
DASHDOT2
 70
    0
  3
Dash dot (.5x) _._._._._._._._._._._._._._._.
 72
   65
 73
    4
 40
12.7
 49
6.35
 74
    0
 49
-3.175
 74
    0
 49
0
 74
    0
 49
-3.175
 74
    0
  0
LTYPE
  5
3D
330
5
100
AcDbSymbolTableRecord
100
AcDbLinetypeTableRecord
  2
DASHDOTX2
 70
    0
  3
Dash dot (2x) ____  .  ____  .  ____  .  ___
 72
   65
 73
    4
 40
50.8
 49
25.4
 74
    0
 49
-12.7
 74
    0
 49
0
 74
    0
 49
-12.7
 74
    0
  0
LTYPE
  5
3E
330
5
100
AcDbSymbolTableRecord
100
AcDbLinetypeTableRecord
  2
DIVIDE
 70
    0
  3
Divide ____ . . ____ . . ____ . . ____ . . ____
 72
   65
 73
    6
 40
31.75
 49
12.7
 74
    0
 49
-6.35
 74
    0
 49
0
 74
    0
 49
-6.35
 74
    0
 49
0
 74
    0
 49
-6.35
 74
    0
  0
LTYPE
  5
3F
330
5
100
AcDbSymbolTableRecord
100
AcDbLinetypeTableRecord
  2
DIVIDETINY
 70
    0
  3
Divide (.15x) __..__..__..__..__..__..__..__.._
 72
   65
 73
    6
 40
4.7625
 49
1.905
 74
    0
 49
-0.9525
 74
    0
 49
0
 74
    0
 49
-0.9525
 74
    0
 49
0
 74
    0
 49
-0.9525
 74
    0
  0
LTYPE
  5
40
330
5
100
AcDbSymbolTableRecord
100
AcDbLinetypeTableRecord
  2
DIVIDE2
 70
    0
  3
Divide (.5x) __..__..__..__..__..__..__..__.._
 72
   65
 73
    6
 40
15.875
 49
6.35
 74
    0
 49
-3.175
 74
    0
 49
0
 74
    0
 49
-3.175
 74
    0
 49
0
 74
    0
 49
-3.175
 74
    0
  0
LTYPE
  5
41
330
5
100
AcDbSymbolTableRecord
100
AcDbLinetypeTableRecord
  2
DIVIDEX2
 70
    0
  3
Divide (2x) ________  .  .  ________  .  .  _
 72
   65
 73
    6
 40
63.5
 49
25.4
 74
    0
 49
-12.7
 74
    0
 49
0
 74
    0
 49
-12.7
 74
    0
 49
0
 74
    0
 49
-12.7
 74
    0
  0
LTYPE
  5
42
330
5
100
AcDbSymbolTableRecord
100
AcDbLinetypeTableRecord
  2
BORDER
 70
    0
  3
Border __ __ . __ __ . __ __ . __ __ . __ __ .
 72
   65
 73
    6
 40
44.45
 49
12.7
 74
    0
 49
-6.35
 74
    0
 49
12.7
 74
    0
 49
-6.35
 74
    0
 49
0
 74
    0
 49
-6.35
 74
    0
  0
LTYPE
  5
43
330
5
100
AcDbSymbolTableRecord
100
AcDbLinetypeTableRecord
  2
BORDERTINY
 70
    0
  3
Border (.15x) __.__.__.__.__.__.__.__.__.__.__.
 72
   65
 73
    6
 40
6.6675
 49
1.905
 74
    0
 49
-0.9525
 74
    0
 49
1.905
 74
    0
 49
-0.9525
 74
    0
 49
0
 74
    0
 49
-0.9525
 74
    0
  0
LTYPE
  5
44
330
5
100
AcDbSymbolTableRecord
100
AcDbLinetypeTableRecord
  2
BORDER2
 70
    0
  3
Border (.5x) __.__.__.__.__.__.__.__.__.__.__.
 72
   65
 73
    6
 40
22.225
 49
6.35
 74
    0
 49
-3.175
 74
    0
 49
6.35
 74
    0
 49
-3.175
 74
    0
 49
0
 74
    0
 49
-3.175
 74
    0
  0
LTYPE
  5
45
330
5
100
AcDbSymbolTableRecord
100
AcDbLinetypeTableRecord
  2
BORDERX2
 70
    0
  3
Border (2x) ____  ____  .  ____  ____  .  ___
 72
   65
 73
    6
 40
88.89999999999999
 49
25.4
 74
    0
 49
-12.7
 74
    0
 49
25.4
 74
    0
 49
-12.7
 74
    0
 49
0
 74
    0
 49
-12.7
 74
    0
  0
LTYPE
  5
46
330
5
100
AcDbSymbolTableRecord
100
AcDbLinetypeTableRecord
  2
CENTER
 70
    0
  3
Center ____ _ ____ _ ____ _ ____ _ ____ _ ____
 72
   65
 73
    4
 40
50.8
 49
31.75
 74
    0
 49
-6.35
 74
    0
 49
6.35
 74
    0
 49
-6.35
 74
    0
  0
LTYPE
  5
47
330
5
100
AcDbSymbolTableRecord
100
AcDbLinetypeTableRecord
  2
CENTERTINY
 70
    0
  3
Center (.15x) ___ _ ___ _ ___ _ ___ _ ___ _ ___
 72
   65
 73
    4
 40
7.62
 49
4.7625
 74
    0
 49
-0.9525
 74
    0
 49
0.9525
 74
    0
 49
-0.9525
 74
    0
  0
LTYPE
  5
48
330
5
100
AcDbSymbolTableRecord
100
AcDbLinetypeTableRecord
  2
CENTER2
 70
    0
  3
Center (.5x) ___ _ ___ _ ___ _ ___ _ ___ _ ___
 72
   65
 73
    4
 40
28.575
 49
19.05
 74
    0
 49
-3.175
 74
    0
 49
3.175
 74
    0
 49
-3.175
 74
    0
  0
LTYPE
  5
49
330
5
100
AcDbSymbolTableRecord
100
AcDbLinetypeTableRecord
  2
CENTERX2
 70
    0
  3
Center (2x) ________  __  ________  __  _____
 72
   65
 73
    4
 40
101.6
 49
63.5
 74
    0
 49
-12.7
 74
    0
 49
12.7
 74
    0
 49
-12.7
 74
    0
  0
ENDTAB
  0
TABLE
  2
LAYER
  5
2
330
0
100
AcDbSymbolTable
 70
    1
  0
LAYER
  5
10
330
2
100
AcDbSymbolTableRecord
100
AcDbLayerTableRecord
  2
0
 70
    0
 62
    7
  6
CONTINUOUS
370
    0
390
F
  0
LAYER
  5
4A
330
2
100
AcDbSymbolTableRecord
100
AcDbLayerTableRecord
  2
Frame
 70
    0
 62
    7
  6
CONTINUOUS
370
    0
390
F
  0
LAYER
  5
4B
330
2
100
AcDbSymbolTableRecord
100
AcDbLayerTableRecord
  2
Text
 70
    0
 62
    5
  6
CONTINUOUS
370
    0
390
F
  0
LAYER
  5
4C
330
2
100
AcDbSymbolTableRecord
100
AcDbLayerTableRecord
  2
measure
 70
    0
 62
    3
  6
DASHEDTINY
370
    0
390
F
  0
LAYER
  5
4D
330
2
100
AcDbSymbolTableRecord
100
AcDbLayerTableRecord
  2
panels
 70
    0
 62
   56
420
8421376
  6
CONTINUOUS
370
    0
390
F
  0
ENDTAB
  0
TABLE
  2
STYLE
  5
3
330
0
100
AcDbSymbolTable
 70
    3
  0
STYLE
  5
4E
330
2
100
AcDbSymbolTableRecord
100
AcDbTextStyleTableRecord
  2
Standard
 70
    0
 40
0
 41
1
 50
0
 71
    0
 42
1
  3
txt
  4

  0
ENDTAB
  0
TABLE
  2
VIEW
  5
6
330
0
100
AcDbSymbolTable
 70
    0
  0
ENDTAB
  0
TABLE
  2
UCS
  5
7
330
0
100
AcDbSymbolTable
 70
    0
  0
ENDTAB
  0
TABLE
  2
APPID
  5
9
330
0
100
AcDbSymbolTable
 70
    1
  0
APPID
  5
12
330
9
100
AcDbSymbolTableRecord
100
AcDbRegAppTableRecord
  2
ACAD
 70
    0
  0
APPID
  5
4F
330
9
100
AcDbSymbolTableRecord
100
AcDbRegAppTableRecord
  2
LibreCad
 70
    0
  0
ENDTAB
  0
TABLE
  2
DIMSTYLE
  5
A
330
0
100
AcDbSymbolTable
 70
    1
100
AcDbDimStyleTable
 71
    1
  0
DIMSTYLE
105
50
330
A
100
AcDbSymbolTableRecord
100
AcDbDimStyleTableRecord
  2
Standard
 70
    0
 40
1
 41
2.5
 42
5
 43
0.38
 44
1.25
 45
0
 46
0
 47
0
 48
0
 49
1
140
2.5
141
0.09
142
0
143
25.4
144
1
145
0
146
1
147
0.625
148
0
 71
    0
 72
    0
 73
    0
 74
    1
 75
    0
 76
    0
 77
    0
 78
    1
 79
    0
170
    0
171
    2
172
    0
173
    0
174
    0
175
    0
176
    0
177
    0
178
    0
179
    2
271
    1
272
    4
273
    2
274
    2
275
    0
276
    0
277
    2
278
    0
279
    0
280
    0
281
    0
282
    0
283
    1
284
    0
285
    0
286
    0
288
    0
289
    3
340
STANDARD
341

371
   -2
372
   -2
  0
ENDTAB
  0
TABLE
  2
BLOCK_RECORD
  5
1
330
0
100
AcDbSymbolTable
 70
    2
  0
BLOCK_RECORD
  5
1F
330
1
100
AcDbSymbolTableRecord
100
AcDbBlockTableRecord
  2
*Model_Space
 70
    0
280
    1
281
    0
  0
BLOCK_RECORD
  5
1E
330
1
100
AcDbSymbolTableRecord
100
AcDbBlockTableRecord
  2
*Paper_Space
 70
    0
280
    1
281
    0
  0
BLOCK_RECORD
  5
51
330
1
100
AcDbSymbolTableRecord
100
AcDbBlockTableRecord
  2
*D6
 70
    0
280
    1
281
    0
  0
BLOCK_RECORD
  5
54
330
1
100
AcDbSymbolTableRecord
100
AcDbBlockTableRecord
  2
*D3
 70
    0
280
    1
281
    0
  0
BLOCK_RECORD
  5
57
330
1
100
AcDbSymbolTableRecord
100
AcDbBlockTableRecord
  2
*D7
 70
    0
280
    1
281
    0
  0
BLOCK_RECORD
  5
5A
330
1
100
AcDbSymbolTableRecord
100
AcDbBlockTableRecord
  2
*D8
 70
    0
280
    1
281
    0
  0
BLOCK_RECORD
  5
5D
330
1
100
AcDbSymbolTableRecord
100
AcDbBlockTableRecord
  2
*D2
 70
    0
280
    1
281
    0
  0
BLOCK_RECORD
  5
60
330
1
100
AcDbSymbolTableRecord
100
AcDbBlockTableRecord
  2
*D4
 70
    0
280
    1
281
    0
  0
BLOCK_RECORD
  5
63
330
1
100
AcDbSymbolTableRecord
100
AcDbBlockTableRecord
  2
*D5
 70
    0
280
    1
281
    0
  0
BLOCK_RECORD
  5
66
330
1
100
AcDbSymbolTableRecord
100
AcDbBlockTableRecord
  2
*D1
 70
    0
280
    1
281
    0
  0
BLOCK_RECORD
  5
69
330
1
100
AcDbSymbolTableRecord
100
AcDbBlockTableRecord
  2
snsr_pwr_styrene
 70
    0
280
    1
281
    0
  0
BLOCK_RECORD
  5
6C
330
1
100
AcDbSymbolTableRecord
100
AcDbBlockTableRecord
  2
hud_sw_styrene
 70
    0
280
    1
281
    0
  0
BLOCK_RECORD
  5
6F
330
1
100
AcDbSymbolTableRecord
100
AcDbBlockTableRecord
  2
int_lighting_styrene
 70
    0
280
    1
281
    0
  0
BLOCK_RECORD
  5
72
330
1
100
AcDbSymbolTableRecord
100
AcDbBlockTableRecord
  2
nucelar_consent_styrene
 70
    0
280
    1
281
    0
  0
BLOCK_RECORD
  5
75
330
1
100
AcDbSymbolTableRecord
100
AcDbBlockTableRecord
  2
zeroize_styrene
 70
    0
280
    1
281
    0
  0
BLOCK_RECORD
  5
78
330
1
100
AcDbSymbolTableRecord
100
AcDbBlockTableRecord
  2
aircond_styrene
 70
    0
280
    1
281
    0
  0
BLOCK_RECORD
  5
7B
330
1
100
AcDbSymbolTableRecord
100
AcDbBlockTableRecord
  2
antiice_styrene
 70
    0
280
    1
281
    0
  0
BLOCK_RECORD
  5
7E
330
1
100
AcDbSymbolTableRecord
100
AcDbBlockTableRecord
  2
oxygen_styrene
 70
    0
280
    1
281
    0
  0
BLOCK_RECORD
  5
81
330
1
100
AcDbSymbolTableRecord
100
AcDbBlockTableRecord
  2
ky58_styrene
 70
    0
280
    1
281
    0
  0
BLOCK_RECORD
  5
84
330
1
100
AcDbSymbolTableRecord
100
AcDbBlockTableRecord
  2
oxygen_styrene-0
 70
    0
280
    1
281
    0
  0
BLOCK_RECORD
  5
87
330
1
100
AcDbSymbolTableRecord
100
AcDbBlockTableRecord
  2
antiice_styrene-0
 70
    0
280
    1
281
    0
  0
BLOCK_RECORD
  5
8A
330
1
100
AcDbSymbolTableRecord
100
AcDbBlockTableRecord
  2
corner_mounts
 70
    0
280
    1
281
    0
  0
BLOCK_RECORD
  5
8D
330
1
100
AcDbSymbolTableRecord
100
AcDbBlockTableRecord
  2
avi_power_styrene
 70
    0
280
    1
281
    0
  0
ENDTAB
  0
ENDSEC
  0
SECTION
  2
BLOCKS
  0
BLOCK
  5
20
330
1F
100
AcDbEntity
  8
0
100
AcDbBlockBegin
  2
*Model_Space
 70
    0
 10
0
 20
0
 30
0
  3
*Model_Space
  1

  0
ENDBLK
  5
21
330
1F
100
AcDbEntity
  8
0
100
AcDbBlockEnd
  0
BLOCK
  5
1C
330
1B
100
AcDbEntity
  8
0
100
AcDbBlockBegin
  2
*Paper_Space
 70
    0
 10
0
 20
0
 30
0
  3
*Paper_Space
  1

  0
ENDBLK
  5
1D
330
1F
100
AcDbEntity
  8
0
100
AcDbBlockEnd
  0
BLOCK
  5
52
330
51
100
AcDbEntity
  8
0
100
AcDbBlockBegin
  2
*D6
 70
    1
 10
0
 20
0
  3
*D6
  1

  0
LINE
  5
90
100
AcDbEntity
  8
measure
  6
ByBlock
 62
    0
370
   -2
100
AcDbLine
 10
280.0000000000002
 20
47.990885249531
 11
280.0000000000002
 21
440.0979896686512
  0
SOLID
  5
91
100
AcDbEntity
  8
measure
  6
ByBlock
 62
    0
370
   -2
100
AcDbTrace
 10
280.0000000000002
 20
47.990885249531
 30
0
 11
279.5837153422273
 21
50.490885249531
 31
0
 12
280.416284657773
 22
50.490885249531
 32
0
 13
280.416284657773
 23
50.490885249531
 33
0
  0
SOLID
  5
92
100
AcDbEntity
  8
measure
  6
ByBlock
 62
    0
370
   -2
100
AcDbTrace
 10
280.0000000000002
 20
440.0979896686512
 30
0
 11
280.416284657773
 21
437.5979896686512
 31
0
 12
279.5837153422273
 22
437.5979896686512
 32
0
 13
279.5837153422273
 23
437.5979896686512
 33
0
  0
MTEXT
  5
93
100
AcDbEntity
  8
measure
  6
CONTINUOUS
 62
    0
370
   -2
100
AcDbMText
 10
278.1250000000001
 20
244.044437459091
 30
0
 40
2.5
 41
7.222222222222378
 71
    5
 72
    1
  1
392.1
  7
STANDARD
210
0
220
0
230
1
 50
90
 73
    2
 44
1
  0
LINE
  5
94
100
AcDbEntity
  8
measure
  6
ByBlock
 62
    0
370
   -2
100
AcDbLine
 10
260.4181350735707
 20
47.99088524953102
 11
281.2500000000002
 21
47.990885249531
  0
LINE
  5
95
100
AcDbEntity
  8
measure
  6
ByBlock
 62
    0
370
   -2
100
AcDbLine
 10
260.4181350735707
 20
440.0979896686512
 11
281.2500000000002
 21
440.0979896686512
  0
ENDBLK
  5
53
330
51
100
AcDbEntity
  8
0
100
AcDbBlockEnd
  0
BLOCK
  5
55
330
54
100
AcDbEntity
  8
0
100
AcDbBlockBegin
  2
*D3
 70
    1
 10
0
 20
0
  3
*D3
  1

  0
LINE
  5
96
100
AcDbEntity
  8
measure
  6
ByBlock
 62
    0
370
   -2
100
AcDbLine
 10
-39.99999999999986
 20
48.58408201218754
 11
-39.99999999999983
 21
407.3509853220633
  0
SOLID
  5
97
100
AcDbEntity
  8
measure
  6
ByBlock
 62
    0
370
   -2
100
AcDbTrace
 10
-39.99999999999986
 20
48.58408201218754
 30
0
 11
-40.4162846577727
 21
51.08408201218754
 31
0
 12
-39.58371534222702
 22
51.08408201218754
 32
0
 13
-39.58371534222702
 23
51.08408201218754
 33
0
  0
SOLID
  5
98
100
AcDbEntity
  8
measure
  6
ByBlock
 62
    0
370
   -2
100
AcDbTrace
 10
-39.99999999999983
 20
407.3509853220633
 30
0
 11
-39.58371534222699
 21
404.8509853220633
 31
0
 12
-40.41628465777267
 22
404.8509853220633
 32
0
 13
-40.41628465777267
 23
404.8509853220633
 33
0
  0
MTEXT
  5
99
100
AcDbEntity
  8
measure
  6
CONTINUOUS
 62
    0
370
   -2
100
AcDbMText
 10
-41.87499999999989
 20
227.9675336671254
 30
0
 40
2.5
 41
7.777777777778088
 71
    5
 72
    1
  1
358.8
  7
STANDARD
210
0
220
0
230
1
 50
90
 73
    2
 44
1
  0
LINE
  5
9A
100
AcDbEntity
  8
measure
  6
ByBlock
 62
    0
370
   -2
100
AcDbLine
 10
-5
 20
48.58408201218756
 11
-41.24999999999986
 21
48.58408201218754
  0
LINE
  5
9B
100
AcDbEntity
  8
measure
  6
ByBlock
 62
    0
370
   -2
100
AcDbLine
 10
-4.999999999999829
 20
407.3509853220633
 11
-41.24999999999983
 21
407.3509853220633
  0
ENDBLK
  5
56
330
54
100
AcDbEntity
  8
0
100
AcDbBlockEnd
  0
BLOCK
  5
58
330
57
100
AcDbEntity
  8
0
100
AcDbBlockBegin
  2
*D7
 70
    1
 10
0
 20
0
  3
*D7
  1

  0
LINE
  5
9C
100
AcDbEntity
  8
measure
  6
ByBlock
 62
    0
370
   -2
100
AcDbLine
 10
-19.99999999999998
 20
-0.009114750468881994
 11
-19.99999999999994
 21
455.7438809029431
  0
SOLID
  5
9D
100
AcDbEntity
  8
measure
  6
ByBlock
 62
    0
370
   -2
100
AcDbTrace
 10
-19.99999999999998
 20
-0.009114750468881994
 30
0
 11
-20.41628465777282
 21
2.490885249531118
 31
0
 12
-19.58371534222713
 22
2.490885249531118
 32
0
 13
-19.58371534222713
 23
2.490885249531118
 33
0
  0
SOLID
  5
9E
100
AcDbEntity
  8
measure
  6
ByBlock
 62
    0
370
   -2
100
AcDbTrace
 10
-19.99999999999994
 20
455.7438809029431
 30
0
 11
-19.5837153422271
 21
453.2438809029431
 31
0
 12
-20.41628465777278
 22
453.2438809029431
 32
0
 13
-20.41628465777278
 23
453.2438809029431
 33
0
  0
MTEXT
  5
9F
100
AcDbEntity
  8
measure
  6
CONTINUOUS
 62
    0
370
   -2
100
AcDbMText
 10
-21.875
 20
227.8673830762371
 30
0
 40
2.5
 41
8.055555555555866
 71
    5
 72
    1
  1
455.8
  7
STANDARD
210
0
220
0
230
1
 50
90
 73
    2
 44
1
  0
LINE
  5
A0
100
AcDbEntity
  8
measure
  6
ByBlock
 62
    0
370
   -2
100
AcDbLine
 10
-4.009075121162482
 20
-0.009114750468862285
 11
-21.24999999999998
 21
-0.009114750468882951
  0
LINE
  5
A1
100
AcDbEntity
  8
measure
  6
ByBlock
 62
    0
370
   -2
100
AcDbLine
 10
-4.999999999999829
 20
455.7438809029431
 11
-21.24999999999994
 21
455.7438809029431
  0
ENDBLK
  5
59
330
57
100
AcDbEntity
  8
0
100
AcDbBlockEnd
  0
BLOCK
  5
5B
330
5A
100
AcDbEntity
  8
0
100
AcDbBlockBegin
  2
*D8
 70
    1
 10
0
 20
0
  3
*D8
  1

  0
LINE
  5
A2
100
AcDbEntity
  8
measure
  6
ByBlock
 62
    0
370
   -2
100
AcDbLine
 10
270.0000000000001
 20
-0.00911475046899568
 11
270.0000000000001
 21
488.4908852495313
  0
SOLID
  5
A3
100
AcDbEntity
  8
measure
  6
ByBlock
 62
    0
370
   -2
100
AcDbTrace
 10
270.0000000000001
 20
-0.00911475046899568
 30
0
 11
269.5837153422272
 21
2.490885249531004
 31
0
 12
270.4162846577729
 22
2.490885249531004
 32
0
 13
270.4162846577729
 23
2.490885249531004
 33
0
  0
SOLID
  5
A4
100
AcDbEntity
  8
measure
  6
ByBlock
 62
    0
370
   -2
100
AcDbTrace
 10
270.0000000000001
 20
488.4908852495313
 30
0
 11
270.4162846577729
 21
485.9908852495313
 31
0
 12
269.5837153422272
 22
485.9908852495313
 32
0
 13
269.5837153422272
 23
485.9908852495313
 33
0
  0
MTEXT
  5
A5
100
AcDbEntity
  8
measure
  6
CONTINUOUS
 62
    0
370
   -2
100
AcDbMText
 10
268.125
 20
244.2408852495311
 30
0
 40
2.5
 41
8.05555555555571
 71
    5
 72
    1
  1
488.5
  7
STANDARD
210
0
220
0
230
1
 50
90
 73
    2
 44
1
  0
LINE
  5
A6
100
AcDbEntity
  8
measure
  6
ByBlock
 62
    0
370
   -2
100
AcDbLine
 10
260.4181350735707
 20
-0.00911475046898225
 11
271.2500000000001
 21
-0.009114750468998206
  0
LINE
  5
A7
100
AcDbEntity
  8
measure
  6
ByBlock
 62
    0
370
   -2
100
AcDbLine
 10
260.4181350735707
 20
488.4908852495313
 11
271.2500000000001
 21
488.4908852495313
  0
ENDBLK
  5
5C
330
5A
100
AcDbEntity
  8
0
100
AcDbBlockEnd
  0
BLOCK
  5
5E
330
5D
100
AcDbEntity
  8
0
100
AcDbBlockBegin
  2
*D2
 70
    1
 10
0
 20
0
  3
*D2
  1

  0
LINE
  5
A8
100
AcDbEntity
  8
measure
  6
ByBlock
 62
    0
370
   -2
100
AcDbLine
 10
-0.6358423942377437
 20
460.7032865578266
 11
-7.23264094105423
 21
512.1566031559128
  0
LINE
  5
A9
100
AcDbEntity
  8
measure
  6
ByBlock
 62
    0
370
   -2
100
AcDbLine
 10
254.7822926793327
 20
493.4502909044146
 11
248.1854941325163
 21
544.9036075025008
  0
LINE
  5
AA
100
AcDbEntity
  8
measure
  6
ByBlock
 62
    0
370
   -2
100
AcDbLine
 10
-7.073680342494751
 20
510.9167517421919
 11
248.3444547310757
 21
543.6637560887799
  0
SOLID
  5
AB
100
AcDbEntity
  8
measure
  6
ByBlock
 62
    0
370
   -2
100
AcDbTrace
 10
-7.073680342494751
 20
510.9167517421919
 30
0
 11
-4.646915801749591
 21
511.6475778364708
 31
0
 12
-4.541039228356475
 22
510.8217680421508
 32
0
 13
-4.541039228356475
 23
510.8217680421508
 33
0
  0
SOLID
  5
AC
100
AcDbEntity
  8
measure
  6
ByBlock
 62
    0
370
   -2
100
AcDbTrace
 10
248.3444547310757
 20
543.6637560887799
 30
0
 11
245.9176901903306
 21
542.932929994501
 31
0
 12
245.8118136169375
 22
543.7587397888209
 32
0
 13
245.8118136169375
 23
543.7587397888209
 33
0
  0
MTEXT
  5
AD
100
AcDbEntity
  8
measure
  6
CONTINUOUS
 62
    0
370
   -2
100
AcDbMText
 10
120.222089638036
 20
530.5138675911601
 30
0
 40
2.5
 41
7.777777777778089
 71
    5
 72
    1
  1
257.5
  7
STANDARD
210
0
220
0
230
1
 50
7.30599999999992
 73
    2
 44
1
  0
ENDBLK
  5
5F
330
5D
100
AcDbEntity
  8
0
100
AcDbBlockEnd
  0
BLOCK
  5
61
330
60
100
AcDbEntity
  8
0
100
AcDbBlockBegin
  2
*D4
 70
    1
 10
0
 20
0
  3
*D4
  1

  0
LINE
  5
AE
100
AcDbEntity
  8
measure
  6
ByBlock
 62
    0
370
   -2
100
AcDbLine
 10
80.00000000000014
 20
47.99088524953112
 11
80.00000000000014
 21
413.5050362401136
  0
SOLID
  5
AF
100
AcDbEntity
  8
measure
  6
ByBlock
 62
    0
370
   -2
100
AcDbTrace
 10
80.00000000000014
 20
47.99088524953112
 30
0
 11
79.58371534222731
 21
50.49088524953112
 31
0
 12
80.41628465777298
 22
50.49088524953112
 32
0
 13
80.41628465777298
 23
50.49088524953112
 33
0
  0
SOLID
  5
B0
100
AcDbEntity
  8
measure
  6
ByBlock
 62
    0
370
   -2
100
AcDbTrace
 10
80.00000000000014
 20
413.5050362401136
 30
0
 11
80.41628465777298
 21
411.0050362401136
 31
0
 12
79.58371534222731
 22
411.0050362401136
 32
0
 13
79.58371534222731
 23
411.0050362401136
 33
0
  0
MTEXT
  5
B1
100
AcDbEntity
  8
measure
  6
CONTINUOUS
 62
    0
370
   -2
100
AcDbMText
 10
78.12500000000014
 20
230.7479607448223
 30
0
 40
2.5
 41
7.777777777778397
 71
    5
 72
    1
  1
365.5
  7
STANDARD
210
0
220
0
230
1
 50
90
 73
    2
 44
1
  0
LINE
  5
B2
100
AcDbEntity
  8
measure
  6
ByBlock
 62
    0
370
   -2
100
AcDbLine
 10
53
 20
47.99088524953113
 11
81.25000000000014
 21
47.99088524953112
  0
LINE
  5
B3
100
AcDbEntity
  8
measure
  6
ByBlock
 62
    0
370
   -2
100
AcDbLine
 10
53.00000000000014
 20
413.5050362401136
 11
81.25000000000014
 21
413.5050362401136
  0
ENDBLK
  5
62
330
60
100
AcDbEntity
  8
0
100
AcDbBlockEnd
  0
BLOCK
  5
64
330
63
100
AcDbEntity
  8
0
100
AcDbBlockBegin
  2
*D5
 70
    1
 10
0
 20
0
  3
*D5
  1

  0
LINE
  5
B4
100
AcDbEntity
  8
measure
  6
ByBlock
 62
    0
370
   -2
100
AcDbLine
 10
170.0000000000001
 20
47.99088524953112
 11
170.0000000000001
 21
433.9439387506008
  0
SOLID
  5
B5
100
AcDbEntity
  8
measure
  6
ByBlock
 62
    0
370
   -2
100
AcDbTrace
 10
170.0000000000001
 20
47.99088524953112
 30
0
 11
169.5837153422273
 21
50.49088524953112
 31
0
 12
170.416284657773
 22
50.49088524953112
 32
0
 13
170.416284657773
 23
50.49088524953112
 33
0
  0
SOLID
  5
B6
100
AcDbEntity
  8
measure
  6
ByBlock
 62
    0
370
   -2
100
AcDbTrace
 10
170.0000000000001
 20
433.9439387506008
 30
0
 11
170.416284657773
 21
431.4439387506008
 31
0
 12
169.5837153422273
 22
431.4439387506008
 32
0
 13
169.5837153422273
 23
431.4439387506008
 33
0
  0
MTEXT
  5
B7
100
AcDbEntity
  8
measure
  6
CONTINUOUS
 62
    0
370
   -2
100
AcDbMText
 10
168.1250000000001
 20
240.9674120000659
 30
0
 40
2.5
 41
7.777777777778088
 71
    5
 72
    1
  1
386.0
  7
STANDARD
210
0
220
0
230
1
 50
90
 73
    2
 44
1
  0
LINE
  5
B8
100
AcDbEntity
  8
measure
  6
ByBlock
 62
    0
370
   -2
100
AcDbLine
 10
202.4181350735707
 20
47.99088524953114
 11
168.7500000000001
 21
47.99088524953112
  0
LINE
  5
B9
100
AcDbEntity
  8
measure
  6
ByBlock
 62
    0
370
   -2
100
AcDbLine
 10
202.4181350735707
 20
433.9439387506008
 11
168.7500000000001
 21
433.9439387506008
  0
ENDBLK
  5
65
330
63
100
AcDbEntity
  8
0
100
AcDbBlockEnd
  0
BLOCK
  5
67
330
66
100
AcDbEntity
  8
0
100
AcDbBlockBegin
  2
*D1
 70
    1
 10
0
 20
0
  3
*D1
  1

  0
LINE
  5
BA
100
AcDbEntity
  8
measure
  6
ByBlock
 62
    0
370
   -2
100
AcDbLine
 10
255.4181350735707
 20
8.490885249531109
 11
-3.733759852086649e-015
 21
8.490885249531141
  0
SOLID
  5
BB
100
AcDbEntity
  8
measure
  6
ByBlock
 62
    0
370
   -2
100
AcDbTrace
 10
255.4181350735707
 20
8.490885249531109
 30
0
 11
252.9181350735707
 21
8.074600591758269
 31
0
 12
252.9181350735707
 22
8.907169907303951
 32
0
 13
252.9181350735707
 23
8.907169907303951
 33
0
  0
SOLID
  5
BC
100
AcDbEntity
  8
measure
  6
ByBlock
 62
    0
370
   -2
100
AcDbTrace
 10
-3.733759852086649e-015
 20
8.490885249531141
 30
0
 11
2.499999999999996
 21
8.907169907303981
 31
0
 12
2.499999999999996
 22
8.074600591758299
 32
0
 13
2.499999999999996
 23
8.074600591758299
 33
0
  0
MTEXT
  5
BD
100
AcDbEntity
  8
measure
  6
CONTINUOUS
 62
    0
370
   -2
100
AcDbMText
 10
127.7090675367854
 20
11.74088524953114
 30
0
 40
2.5
 41
8.055555555555866
 71
    5
 72
    1
  1
255.4
  7
STANDARD
210
0
220
0
230
1
 50
360
 73
    2
 44
1
  0
LINE
  5
BE
100
AcDbEntity
  8
measure
  6
ByBlock
 62
    0
370
   -2
100
AcDbLine
 10
255.4181350735707
 20
33.49088524953103
 11
255.4181350735707
 21
7.240885249531109
  0
LINE
  5
BF
100
AcDbEntity
  8
measure
  6
ByBlock
 62
    0
370
   -2
100
AcDbLine
 10
-9.218652547129051e-016
 20
33.49088524953114
 11
-3.963373543428344e-015
 21
7.240885249531141
  0
ENDBLK
  5
68
330
66
100
AcDbEntity
  8
0
100
AcDbBlockEnd
  0
BLOCK
  5
6A
330
69
100
AcDbEntity
  8
0
100
AcDbBlockBegin
  2
snsr_pwr_styrene
 70
    0
 10
0
 20
0
  3
snsr_pwr_styrene
  1

  0
CIRCLE
  5
C0
100
AcDbEntity
  8
0
  6
ByLayer
 62
  256
370
   -1
100
AcDbCircle
 10
25
 20
17
 40
6
  0
CIRCLE
  5
C1
100
AcDbEntity
  8
0
  6
ByLayer
 62
  256
370
   -1
100
AcDbCircle
 10
89
 20
17
 40
6
  0
CIRCLE
  5
C2
100
AcDbEntity
  8
0
  6
ByLayer
 62
  256
370
   -1
100
AcDbCircle
 10
57
 20
17
 40
6
  0
CIRCLE
  5
C3
100
AcDbEntity
  8
0
  6
ByLayer
 62
  256
370
   -1
100
AcDbCircle
 10
121
 20
17
 40
6
  0
LINE
  5
C4
100
AcDbEntity
  8
0
  6
ByLayer
 62
  256
370
   -1
100
AcDbLine
 10
5
 20
15
 11
0
 21
15
  0
LINE
  5
C5
100
AcDbEntity
  8
0
  6
ByLayer
 62
  256
370
   -1
100
AcDbLine
 10
10
 20
0
 11
10
 21
10
  0
ARC
  5
C6
100
AcDbEntity
  8
0
  6
ByLayer
 62
  256
370
   -1
100
AcDbCircle
 10
5
 20
10
 40
5
100
AcDbArc
 50
0
 51
90
  0
LINE
  5
C7
100
AcDbEntity
  8
0
  6
ByLayer
 62
  256
370
   -1
100
AcDbLine
 10
140
 20
23
 11
145
 21
23
  0
LINE
  5
C8
100
AcDbEntity
  8
0
  6
ByLayer
 62
  256
370
   -1
100
AcDbLine
 10
135
 20
38
 11
135
 21
28
  0
ARC
  5
C9
100
AcDbEntity
  8
0
  6
ByLayer
 62
  256
370
   -1
100
AcDbCircle
 10
140
 20
28
 40
5
100
AcDbArc
 50
180
 51
270
  0
LINE
  5
CA
100
AcDbEntity
  8
0
  6
ByLayer
 62
  256
370
   -1
100
AcDbLine
 10
0
 20
38
 11
0
 21
15
  0
LINE
  5
CB
100
AcDbEntity
  8
0
  6
ByLayer
 62
  256
370
   -1
100
AcDbLine
 10
10
 20
0
 11
145
 21
0
  0
LINE
  5
CC
100
AcDbEntity
  8
0
  6
ByLayer
 62
  256
370
   -1
100
AcDbLine
 10
135
 20
38
 11
0
 21
38
  0
LINE
  5
CD
100
AcDbEntity
  8
0
  6
ByLayer
 62
  256
370
   -1
100
AcDbLine
 10
145
 20
0
 11
145
 21
23
  0
ENDBLK
  5
6B
330
69
100
AcDbEntity
  8
0
100
AcDbBlockEnd
  0
BLOCK
  5
6D
330
6C
100
AcDbEntity
  8
0
100
AcDbBlockBegin
  2
hud_sw_styrene
 70
    0
 10
0
 20
0
  3
hud_sw_styrene
  1

  0
LINE
  5
CE
100
AcDbEntity
  8
0
  6
ByLayer
 62
  256
370
   -1
100
AcDbLine
 10
5
 20
15
 11
0
 21
15
  0
LINE
  5
CF
100
AcDbEntity
  8
0
  6
ByLayer
 62
  256
370
   -1
100
AcDbLine
 10
10
 20
0
 11
10
 21
10
  0
ARC
  5
D0
100
AcDbEntity
  8
0
  6
ByLayer
 62
  256
370
   -1
100
AcDbCircle
 10
5
 20
10
 40
5
100
AcDbArc
 50
0
 51
90
  0
LINE
  5
D1
100
AcDbEntity
  8
0
  6
ByLayer
 62
  256
370
   -1
100
AcDbLine
 10
5
 20
52
 11
0
 21
52
  0
LINE
  5
D2
100
AcDbEntity
  8
0
  6
ByLayer
 62
  256
370
   -1
100
AcDbLine
 10
10
 20
67
 11
10
 21
57
  0
ARC
  5
D3
100
AcDbEntity
  8
0
  6
ByLayer
 62
  256
370
   -1
100
AcDbCircle
 10
5
 20
57
 40
5
100
AcDbArc
 50
270
 51
360
  0
LINE
  5
D4
100
AcDbEntity
  8
0
  6
ByLayer
 62
  256
370
   -1
100
AcDbLine
 10
140
 20
15
 11
145
 21
15
  0
LINE
  5
D5
100
AcDbEntity
  8
0
  6
ByLayer
 62
  256
370
   -1
100
AcDbLine
 10
135
 20
0
 11
135
 21
10
  0
ARC
  5
D6
100
AcDbEntity
  8
0
  6
ByLayer
 62
  256
370
   -1
100
AcDbCircle
 10
140
 20
10
 40
5
100
AcDbArc
 50
90
 51
180
  0
LINE
  5
D7
100
AcDbEntity
  8
0
  6
ByLayer
 62
  256
370
   -1
100
AcDbLine
 10
10
 20
0
 11
135
 21
0
  0
LINE
  5
D8
100
AcDbEntity
  8
0
  6
ByLayer
 62
  256
370
   -1
100
AcDbLine
 10
140
 20
52
 11
145
 21
52
  0
LINE
  5
D9
100
AcDbEntity
  8
0
  6
ByLayer
 62
  256
370
   -1
100
AcDbLine
 10
135
 20
67
 11
135
 21
57
  0
ARC
  5
DA
100
AcDbEntity
  8
0
  6
ByLayer
 62
  256
370
   -1
100
AcDbCircle
 10
140
 20
57
 40
5
100
AcDbArc
 50
180
 51
270
  0
LINE
  5
DB
100
AcDbEntity
  8
0
  6
ByLayer
 62
  256
370
   -1
100
AcDbLine
 10
145
 20
15
 11
145
 21
52
  0
LINE
  5
DC
100
AcDbEntity
  8
0
  6
ByLayer
 62
  256
370
   -1
100
AcDbLine
 10
135
 20
67
 11
10
 21
67
  0
LINE
  5
DD
100
AcDbEntity
  8
0
  6
ByLayer
 62
  256
370
   -1
100
AcDbLine
 10
0
 20
52
 11
0
 21
15
  0
CIRCLE
  5
DE
100
AcDbEntity
  8
0
  6
ByLayer
 62
  256
370
   -1
100
AcDbCircle
 10
25
 20
51
 40
6
  0
CIRCLE
  5
DF
100
AcDbEntity
  8
0
  6
ByLayer
 62
  256
370
   -1
100
AcDbCircle
 10
89
 20
51
 40
6
  0
CIRCLE
  5
E0
100
AcDbEntity
  8
0
  6
ByLayer
 62
  256
370
   -1
100
AcDbCircle
 10
57
 20
51
 40
6
  0
CIRCLE
  5
E1
100
AcDbEntity
  8
0
  6
ByLayer
 62
  256
370
   -1
100
AcDbCircle
 10
121
 20
51
 40
6
  0
CIRCLE
  5
E2
100
AcDbEntity
  8
0
  6
ByLayer
 62
  256
370
   -1
100
AcDbCircle
 10
25
 20
16
 40
6
  0
CIRCLE
  5
E3
100
AcDbEntity
  8
0
  6
ByLayer
 62
  256
370
   -1
100
AcDbCircle
 10
89
 20
16
 40
6
  0
CIRCLE
  5
E4
100
AcDbEntity
  8
0
  6
ByLayer
 62
  256
370
   -1
100
AcDbCircle
 10
57
 20
16
 40
6
  0
CIRCLE
  5
E5
100
AcDbEntity
  8
0
  6
ByLayer
 62
  256
370
   -1
100
AcDbCircle
 10
121
 20
16
 40
6
  0
ENDBLK
  5
6E
330
6C
100
AcDbEntity
  8
0
100
AcDbBlockEnd
  0
BLOCK
  5
70
330
6F
100
AcDbEntity
  8
0
100
AcDbBlockBegin
  2
int_lighting_styrene
 70
    0
 10
0
 20
0
  3
int_lighting_styrene
  1

  0
LINE
  5
E6
100
AcDbEntity
  8
0
  6
ByLayer
 62
  256
370
   -1
100
AcDbLine
 10
0
 20
100
 11
5
 21
100
  0
LINE
  5
E7
100
AcDbEntity
  8
0
  6
ByLayer
 62
  256
370
   -1
100
AcDbLine
 10
10
 20
105
 11
10
 21
115
  0
ARC
  5
E8
100
AcDbEntity
  8
0
  6
ByLayer
 62
  256
370
   -1
100
AcDbCircle
 10
5
 20
105
 40
5
100
AcDbArc
 50
270
 51
0
  0
LINE
  5
E9
100
AcDbEntity
  8
0
  6
ByLayer
 62
  256
370
   -1
100
AcDbLine
 10
135
 20
115
 11
135
 21
105
  0
LINE
  5
EA
100
AcDbEntity
  8
0
  6
ByLayer
 62
  256
370
   -1
100
AcDbLine
 10
140
 20
100
 11
145
 21
100
  0
ARC
  5
EB
100
AcDbEntity
  8
0
  6
ByLayer
 62
  256
370
   -1
100
AcDbCircle
 10
140
 20
105
 40
5
100
AcDbArc
 50
180
 51
270
  0
LINE
  5
EC
100
AcDbEntity
  8
0
  6
ByLayer
 62
  256
370
   -1
100
AcDbLine
 10
140
 20
15
 11
145
 21
15
  0
LINE
  5
ED
100
AcDbEntity
  8
0
  6
ByLayer
 62
  256
370
   -1
100
AcDbLine
 10
135
 20
0
 11
135
 21
10
  0
ARC
  5
EE
100
AcDbEntity
  8
0
  6
ByLayer
 62
  256
370
   -1
100
AcDbCircle
 10
140
 20
10
 40
5
100
AcDbArc
 50
90
 51
180
  0
LINE
  5
EF
100
AcDbEntity
  8
0
  6
ByLayer
 62
  256
370
   -1
100
AcDbLine
 10
5
 20
15
 11
0
 21
15
  0
LINE
  5
F0
100
AcDbEntity
  8
0
  6
ByLayer
 62
  256
370
   -1
100
AcDbLine
 10
10
 20
0
 11
10
 21
10
  0
ARC
  5
F1
100
AcDbEntity
  8
0
  6
ByLayer
 62
  256
370
   -1
100
AcDbCircle
 10
5
 20
10
 40
5
100
AcDbArc
 50
0
 51
90
  0
LINE
  5
F2
100
AcDbEntity
  8
0
  6
ByLayer
 62
  256
370
   -1
100
AcDbLine
 10
0
 20
15
 11
0
 21
100
  0
LINE
  5
F3
100
AcDbEntity
  8
0
  6
ByLayer
 62
  256
370
   -1
100
AcDbLine
 10
10
 20
115
 11
135
 21
115
  0
LINE
  5
F4
100
AcDbEntity
  8
0
  6
ByLayer
 62
  256
370
   -1
100
AcDbLine
 10
10
 20
0
 11
135
 21
0
  0
LINE
  5
F5
100
AcDbEntity
  8
0
  6
ByLayer
 62
  256
370
   -1
100
AcDbLine
 10
145
 20
15
 11
145
 21
100
  0
CIRCLE
  5
F6
100
AcDbEntity
  8
0
  6
ByLayer
 62
  256
370
   -1
100
AcDbCircle
 10
25
 20
85
 40
3.5
  0
CIRCLE
  5
F7
100
AcDbEntity
  8
0
  6
ByLayer
 62
  256
370
   -1
100
AcDbCircle
 10
70
 20
85
 40
3.5
  0
CIRCLE
  5
F8
100
AcDbEntity
  8
0
  6
ByLayer
 62
  256
370
   -1
100
AcDbCircle
 10
120
 20
85
 40
3.5
  0
CIRCLE
  5
F9
100
AcDbEntity
  8
0
  6
ByLayer
 62
  256
370
   -1
100
AcDbCircle
 10
25
 20
25
 40
3.5
  0
CIRCLE
  5
FA
100
AcDbEntity
  8
0
  6
ByLayer
 62
  256
370
   -1
100
AcDbCircle
 10
75
 20
25
 40
3.5
  0
CIRCLE
  5
FB
100
AcDbEntity
  8
0
  6
ByLayer
 62
  256
370
   -1
100
AcDbCircle
 10
120
 20
25
 40
3
  0
ENDBLK
  5
71
330
6F
100
AcDbEntity
  8
0
100
AcDbBlockEnd
  0
BLOCK
  5
73
330
72
100
AcDbEntity
  8
0
100
AcDbBlockBegin
  2
nucelar_consent_styrene
 70
    0
 10
0
 20
0
  3
nucelar_consent_styrene
  1

  0
LINE
  5
FC
100
AcDbEntity
  8
0
  6
ByLayer
 62
  256
370
   -1
100
AcDbLine
 10
0
 20
136
 11
10
 21
136
  0
LINE
  5
FD
100
AcDbEntity
  8
0
  6
ByLayer
 62
  256
370
   -1
100
AcDbLine
 10
15
 20
146
 11
15
 21
141
  0
ARC
  5
FE
100
AcDbEntity
  8
0
  6
ByLayer
 62
  256
370
   -1
100
AcDbCircle
 10
10
 20
141
 40
5
100
AcDbArc
 50
270
 51
0
  0
LINE
  5
FF
100
AcDbEntity
  8
0
  6
ByLayer
 62
  256
370
   -1
100
AcDbLine
 10
25
 20
5
 11
25
 21
0
  0
LINE
  5
100
100
AcDbEntity
  8
0
  6
ByLayer
 62
  256
370
   -1
100
AcDbLine
 10
40
 20
10
 11
30
 21
10
  0
ARC
  5
101
100
AcDbEntity
  8
0
  6
ByLayer
 62
  256
370
   -1
100
AcDbCircle
 10
30
 20
5
 40
5
100
AcDbArc
 50
90
 51
180
  0
CIRCLE
  5
102
100
AcDbEntity
  8
0
  6
ByLayer
 62
  256
370
   -1
100
AcDbCircle
 10
20
 20
35
 40
6
  0
CIRCLE
  5
103
100
AcDbEntity
  8
0
  6
ByLayer
 62
  256
370
   -1
100
AcDbCircle
 10
17
 20
100
 40
6
  0
LINE
  5
104
100
AcDbEntity
  8
0
  6
ByLayer
 62
  256
370
   -1
100
AcDbLine
 10
0
 20
0
 11
25
 21
0
  0
LINE
  5
105
100
AcDbEntity
  8
0
  6
ByLayer
 62
  256
370
   -1
100
AcDbLine
 10
40
 20
10
 11
40
 21
146
  0
LINE
  5
106
100
AcDbEntity
  8
0
  6
ByLayer
 62
  256
370
   -1
100
AcDbLine
 10
40
 20
146
 11
15
 21
146
  0
LINE
  5
107
100
AcDbEntity
  8
0
  6
ByLayer
 62
  256
370
   -1
100
AcDbLine
 10
0
 20
136
 11
0
 21
0
  0
CIRCLE
  5
108
100
AcDbEntity
  8
0
  6
ByLayer
 62
  256
370
   -1
100
AcDbCircle
 10
10
 20
15
 40
1.5
  0
CIRCLE
  5
109
100
AcDbEntity
  8
0
  6
ByLayer
 62
  256
370
   -1
100
AcDbCircle
 10
30
 20
130
 40
1.5
  0
ENDBLK
  5
74
330
72
100
AcDbEntity
  8
0
100
AcDbBlockEnd
  0
BLOCK
  5
76
330
75
100
AcDbEntity
  8
0
100
AcDbBlockBegin
  2
zeroize_styrene
 70
    0
 10
0
 20
0
  3
zeroize_styrene
  1

  0
LWPOLYLINE
  5
10A
100
AcDbEntity
  8
0
  6
ByLayer
 62
  256
370
   -1
100
AcDbPolyline
 90
    8
 70
    1
 43
0
 10
5
 20
0
 10
71
 20
-8.881784197001252e-016
 42
0.414213562373095
 10
76
 20
5
 10
76
 20
196.5
 42
0.414213562373095
 10
71
 20
201.5
 10
5
 20
201.5
 42
0.414213562373095
 10
-8.881784197001252e-016
 20
196.5
 10
0
 20
5.000000000000003
 42
0.414213562373095
  0
CIRCLE
  5
10B
100
AcDbEntity
  8
0
  6
ByLayer
 62
  256
370
   -1
100
AcDbCircle
 10
5
 20
5
 40
2
  0
CIRCLE
  5
10C
100
AcDbEntity
  8
0
  6
ByLayer
 62
  256
370
   -1
100
AcDbCircle
 10
71
 20
5
 40
2
  0
CIRCLE
  5
10D
100
AcDbEntity
  8
0
  6
ByLayer
 62
  256
370
   -1
100
AcDbCircle
 10
5
 20
196.5
 40
2
  0
CIRCLE
  5
10E
100
AcDbEntity
  8
0
  6
ByLayer
 62
  256
370
   -1
100
AcDbCircle
 10
71
 20
196.5
 40
2
  0
CIRCLE
  5
10F
100
AcDbEntity
  8
0
  6
ByLayer
 62
  256
370
   -1
100
AcDbCircle
 10
48
 20
40
 40
6
  0
CIRCLE
  5
110
100
AcDbEntity
  8
0
  6
ByLayer
 62
  256
370
   -1
100
AcDbCircle
 10
48
 20
170
 40
6
  0
ENDBLK
  5
77
330
75
100
AcDbEntity
  8
0
100
AcDbBlockEnd
  0
BLOCK
  5
79
330
78
100
AcDbEntity
  8
0
100
AcDbBlockBegin
  2
aircond_styrene
 70
    0
 10
0
 20
0
  3
aircond_styrene
  1

  0
LINE
  5
111
100
AcDbEntity
  8
0
  6
ByLayer
 62
  256
370
   -1
100
AcDbLine
 10
135
 20
0
 11
135
 21
10
  0
LINE
  5
112
100
AcDbEntity
  8
0
  6
ByLayer
 62
  256
370
   -1
100
AcDbLine
 10
140
 20
15
 11
145
 21
15
  0
ARC
  5
113
100
AcDbEntity
  8
0
  6
ByLayer
 62
  256
370
   -1
100
AcDbCircle
 10
140
 20
10
 40
5
100
AcDbArc
 50
90
 51
180
  0
LINE
  5
114
100
AcDbEntity
  8
0
  6
ByLayer
 62
  256
370
   -1
100
AcDbLine
 10
140
 20
42
 11
145
 21
42
  0
LINE
  5
115
100
AcDbEntity
  8
0
  6
ByLayer
 62
  256
370
   -1
100
AcDbLine
 10
135
 20
47
 11
135
 21
57
  0
ARC
  5
116
100
AcDbEntity
  8
0
  6
ByLayer
 62
  256
370
   -1
100
AcDbCircle
 10
140
 20
47
 40
5
100
AcDbArc
 50
180
 51
270
  0
LINE
  5
117
100
AcDbEntity
  8
0
  6
ByLayer
 62
  256
370
   -1
100
AcDbLine
 10
1
 20
15
 11
0
 21
15
  0
LINE
  5
118
100
AcDbEntity
  8
0
  6
ByLayer
 62
  256
370
   -1
100
AcDbLine
 10
5
 20
15
 11
1
 21
15
  0
LINE
  5
119
100
AcDbEntity
  8
0
  6
ByLayer
 62
  256
370
   -1
100
AcDbLine
 10
10
 20
0
 11
10
 21
10
  0
ARC
  5
11A
100
AcDbEntity
  8
0
  6
ByLayer
 62
  256
370
   -1
100
AcDbCircle
 10
5
 20
10
 40
5
100
AcDbArc
 50
0
 51
90
  0
LINE
  5
11B
100
AcDbEntity
  8
0
  6
ByLayer
 62
  256
370
   -1
100
AcDbLine
 10
5
 20
42
 11
0
 21
42
  0
LINE
  5
11C
100
AcDbEntity
  8
0
  6
ByLayer
 62
  256
370
   -1
100
AcDbLine
 10
10
 20
57
 11
10
 21
47
  0
ARC
  5
11D
100
AcDbEntity
  8
0
  6
ByLayer
 62
  256
370
   -1
100
AcDbCircle
 10
5
 20
47
 40
5
100
AcDbArc
 50
270
 51
0
  0
LINE
  5
11E
100
AcDbEntity
  8
0
  6
ByLayer
 62
  256
370
   -1
100
AcDbLine
 10
0
 20
15
 11
0
 21
42
  0
LINE
  5
11F
100
AcDbEntity
  8
0
  6
ByLayer
 62
  256
370
   -1
100
AcDbLine
 10
10
 20
57
 11
135
 21
57
  0
LINE
  5
120
100
AcDbEntity
  8
0
  6
ByLayer
 62
  256
370
   -1
100
AcDbLine
 10
145
 20
42
 11
145
 21
15
  0
LINE
  5
121
100
AcDbEntity
  8
0
  6
ByLayer
 62
  256
370
   -1
100
AcDbLine
 10
10
 20
0
 11
135
 21
0
  0
CIRCLE
  5
122
100
AcDbEntity
  8
0
  6
ByLayer
 62
  256
370
   -1
100
AcDbCircle
 10
109
 20
28
 40
5
  0
CIRCLE
  5
123
100
AcDbEntity
  8
0
  6
ByLayer
 62
  256
370
   -1
100
AcDbCircle
 10
43
 20
28
 40
5
  0
ENDBLK
  5
7A
330
78
100
AcDbEntity
  8
0
100
AcDbBlockEnd
  0
BLOCK
  5
7C
330
7B
100
AcDbEntity
  8
0
100
AcDbBlockBegin
  2
antiice_styrene
 70
    0
 10
0
 20
0
  3
antiice_styrene
  1

  0
CIRCLE
  5
124
100
AcDbEntity
  8
0
  6
ByLayer
 62
  256
370
   -1
100
AcDbCircle
 10
40
 20
20
 40
6
  0
CIRCLE
  5
125
100
AcDbEntity
  8
0
  6
ByLayer
 62
  256
370
   -1
100
AcDbCircle
 10
86
 20
20
 40
6
  0
CIRCLE
  5
126
100
AcDbEntity
  8
0
  6
ByLayer
 62
  256
370
   -1
100
AcDbCircle
 10
116
 20
20
 40
6
  0
LWPOLYLINE
  5
127
100
AcDbEntity
  8
0
  6
ByLayer
 62
  256
370
   -1
100
AcDbPolyline
 90
    4
 70
    0
 43
0
 10
10
 20
0
 10
10
 20
10
 42
0.414213562373095
 10
5.000000000000002
 20
15
 10
0
 20
15
  0
LWPOLYLINE
  5
128
100
AcDbEntity
  8
0
  6
ByLayer
 62
  256
370
   -1
100
AcDbPolyline
 90
    4
 70
    0
 43
0
 10
135
 20
39
 10
135
 20
29
 42
0.414213562373095
 10
140
 20
24
 10
145
 20
24
  0
LINE
  5
129
100
AcDbEntity
  8
0
  6
ByLayer
 62
  256
370
   -1
100
AcDbLine
 10
10
 20
0
 11
145
 21
0
  0
LINE
  5
12A
100
AcDbEntity
  8
0
  6
ByLayer
 62
  256
370
   -1
100
AcDbLine
 10
145
 20
0
 11
145
 21
24
  0
LINE
  5
12B
100
AcDbEntity
  8
0
  6
ByLayer
 62
  256
370
   -1
100
AcDbLine
 10
135
 20
39
 11
0
 21
39
  0
LINE
  5
12C
100
AcDbEntity
  8
0
  6
ByLayer
 62
  256
370
   -1
100
AcDbLine
 10
0
 20
39
 11
0
 21
15
  0
ENDBLK
  5
7D
330
7B
100
AcDbEntity
  8
0
100
AcDbBlockEnd
  0
BLOCK
  5
7F
330
7E
100
AcDbEntity
  8
0
100
AcDbBlockBegin
  2
oxygen_styrene
 70
    0
 10
0
 20
0
  3
oxygen_styrene
  1

  0
LINE
  5
12D
100
AcDbEntity
  8
0
  6
ByLayer
 62
  256
370
   -1
100
AcDbLine
 10
135
 20
76
 11
135
 21
66
  0
LINE
  5
12E
100
AcDbEntity
  8
0
  6
ByLayer
 62
  256
370
   -1
100
AcDbLine
 10
140
 20
61
 11
145
 21
61
  0
ARC
  5
12F
100
AcDbEntity
  8
0
  6
ByLayer
 62
  256
370
   -1
100
AcDbCircle
 10
140
 20
66
 40
5
100
AcDbArc
 50
180
 51
270
  0
LINE
  5
130
100
AcDbEntity
  8
0
  6
ByLayer
 62
  256
370
   -1
100
AcDbLine
 10
10
 20
0
 11
10
 21
10
  0
LINE
  5
131
100
AcDbEntity
  8
0
  6
ByLayer
 62
  256
370
   -1
100
AcDbLine
 10
5
 20
15
 11
0
 21
15
  0
ARC
  5
132
100
AcDbEntity
  8
0
  6
ByLayer
 62
  256
370
   -1
100
AcDbCircle
 10
5
 20
10
 40
5
100
AcDbArc
 50
0
 51
90
  0
CIRCLE
  5
133
100
AcDbEntity
  8
0
  6
ByLayer
 62
  256
370
   -1
100
AcDbCircle
 10
24
 20
19
 40
6
  0
CIRCLE
  5
134
100
AcDbEntity
  8
0
  6
ByLayer
 62
  256
370
   -1
100
AcDbCircle
 10
73
 20
18
 40
6
  0
CIRCLE
  5
135
100
AcDbEntity
  8
0
  6
ByLayer
 62
  256
370
   -1
100
AcDbCircle
 10
119
 20
18
 40
6
  0
LINE
  5
136
100
AcDbEntity
  8
0
  6
ByLayer
 62
  256
370
   -1
100
AcDbLine
 10
140
 20
15
 11
145
 21
15
  0
LINE
  5
137
100
AcDbEntity
  8
0
  6
ByLayer
 62
  256
370
   -1
100
AcDbLine
 10
135
 20
0
 11
135
 21
10
  0
ARC
  5
138
100
AcDbEntity
  8
0
  6
ByLayer
 62
  256
370
   -1
100
AcDbCircle
 10
140
 20
10
 40
5
100
AcDbArc
 50
90
 51
180
  0
LINE
  5
139
100
AcDbEntity
  8
0
  6
ByLayer
 62
  256
370
   -1
100
AcDbLine
 10
5
 20
61
 11
0
 21
61
  0
LINE
  5
13A
100
AcDbEntity
  8
0
  6
ByLayer
 62
  256
370
   -1
100
AcDbLine
 10
10
 20
76
 11
10
 21
66
  0
ARC
  5
13B
100
AcDbEntity
  8
0
  6
ByLayer
 62
  256
370
   -1
100
AcDbCircle
 10
5
 20
66
 40
5
100
AcDbArc
 50
270
 51
0
  0
CIRCLE
  5
13C
100
AcDbEntity
  8
0
  6
ByLayer
 62
  256
370
   -1
100
AcDbCircle
 10
113
 20
52
 40
18
  0
LWPOLYLINE
  5
13D
100
AcDbEntity
  8
0
  6
ByLayer
 62
  256
370
   -1
100
AcDbPolyline
 90
    8
 70
    1
 43
0
 10
33
 20
56
 10
43
 20
56
 42
-0.414213562373095
 10
46
 20
53
 10
46
 20
53
 42
-0.414213562373095
 10
43
 20
50
 10
33
 20
50
 42
-0.414213562373095
 10
30
 20
53
 10
30
 20
53
 42
-0.414213562373095
  0
LINE
  5
13E
100
AcDbEntity
  8
0
  6
ByLayer
 62
  256
370
   -1
100
AcDbLine
 10
10
 20
76
 11
135
 21
76
  0
LINE
  5
13F
100
AcDbEntity
  8
0
  6
ByLayer
 62
  256
370
   -1
100
AcDbLine
 10
145
 20
61
 11
145
 21
15
  0
LINE
  5
140
100
AcDbEntity
  8
0
  6
ByLayer
 62
  256
370
   -1
100
AcDbLine
 10
135
 20
0
 11
10
 21
0
  0
LINE
  5
141
100
AcDbEntity
  8
0
  6
ByLayer
 62
  256
370
   -1
100
AcDbLine
 10
0
 20
15
 11
0
 21
61
  0
ENDBLK
  5
80
330
7E
100
AcDbEntity
  8
0
100
AcDbBlockEnd
  0
BLOCK
  5
82
330
81
100
AcDbEntity
  8
0
100
AcDbBlockBegin
  2
ky58_styrene
 70
    0
 10
0
 20
0
  3
ky58_styrene
  1

  0
LINE
  5
142
100
AcDbEntity
  8
0
  6
ByLayer
 62
  256
370
   -1
100
AcDbLine
 10
130
 20
0
 11
140
 21
18
  0
LINE
  5
143
100
AcDbEntity
  8
0
  6
ByLayer
 62
  256
370
   -1
100
AcDbLine
 10
15
 20
0
 11
5
 21
18
  0
LINE
  5
144
100
AcDbEntity
  8
0
  6
ByLayer
 62
  256
370
   -1
100
AcDbLine
 10
0
 20
109
 11
5
 21
109
  0
LINE
  5
145
100
AcDbEntity
  8
0
  6
ByLayer
 62
  256
370
   -1
100
AcDbLine
 10
15
 20
120
 11
15
 21
124
  0
LINE
  5
146
100
AcDbEntity
  8
0
  6
ByLayer
 62
  256
370
   -1
100
AcDbLine
 10
145
 20
109
 11
140
 21
109
  0
LINE
  5
147
100
AcDbEntity
  8
0
  6
ByLayer
 62
  256
370
   -1
100
AcDbLine
 10
130
 20
120
 11
130
 21
124
  0
LINE
  5
148
100
AcDbEntity
  8
0
  6
ByLayer
 62
  256
370
   -1
100
AcDbLine
 10
5
 20
109
 11
15
 21
119
  0
LINE
  5
149
100
AcDbEntity
  8
0
  6
ByLayer
 62
  256
370
   -1
100
AcDbLine
 10
15
 20
119
 11
15
 21
120
  0
LINE
  5
14A
100
AcDbEntity
  8
0
  6
ByLayer
 62
  256
370
   -1
100
AcDbLine
 10
130
 20
120
 11
130
 21
119
  0
LINE
  5
14B
100
AcDbEntity
  8
0
  6
ByLayer
 62
  256
370
   -1
100
AcDbLine
 10
130
 20
119
 11
140
 21
109
  0
LINE
  5
14C
100
AcDbEntity
  8
0
  6
ByLayer
 62
  256
370
   -1
100
AcDbLine
 10
140
 20
67
 11
145
 21
67
  0
ARC
  5
14D
100
AcDbEntity
  8
0
  6
ByLayer
 62
  256
370
   -1
100
AcDbCircle
 10
140
 20
62
 40
5
100
AcDbArc
 50
90
 51
180
  0
LINE
  5
14E
100
AcDbEntity
  8
0
  6
ByLayer
 62
  256
370
   -1
100
AcDbLine
 10
145
 20
57
 11
140
 21
57
  0
LINE
  5
14F
100
AcDbEntity
  8
0
  6
ByLayer
 62
  256
370
   -1
100
AcDbLine
 10
135
 20
62
 11
135
 21
62
  0
ARC
  5
150
100
AcDbEntity
  8
0
  6
ByLayer
 62
  256
370
   -1
100
AcDbCircle
 10
140
 20
62
 40
5
100
AcDbArc
 50
180
 51
270
  0
LINE
  5
151
100
AcDbEntity
  8
0
  6
ByLayer
 62
  256
370
   -1
100
AcDbLine
 10
5
 20
67
 11
0
 21
67
  0
ARC
  5
152
100
AcDbEntity
  8
0
  6
ByLayer
 62
  256
370
   -1
100
AcDbCircle
 10
5
 20
62
 40
5
100
AcDbArc
 50
0
 51
90
  0
LINE
  5
153
100
AcDbEntity
  8
0
  6
ByLayer
 62
  256
370
   -1
100
AcDbLine
 10
0
 20
57
 11
5
 21
57
  0
LINE
  5
154
100
AcDbEntity
  8
0
  6
ByLayer
 62
  256
370
   -1
100
AcDbLine
 10
10
 20
62
 11
10
 21
62
  0
ARC
  5
155
100
AcDbEntity
  8
0
  6
ByLayer
 62
  256
370
   -1
100
AcDbCircle
 10
5
 20
62
 40
5
100
AcDbArc
 50
270
 51
0
  0
LWPOLYLINE
  5
156
100
AcDbEntity
  8
0
  6
ByLayer
 62
  256
370
   -1
100
AcDbPolyline
 90
    8
 70
    1
 43
0
 10
17
 20
10
 10
47
 20
10
 42
0.414213562373095
 10
50
 20
13
 10
50
 20
13
 42
0.414213562373095
 10
47
 20
16
 10
17
 20
16
 42
0.414213562373095
 10
14
 20
13
 10
14
 20
13
 42
0.414213562373095
  0
LWPOLYLINE
  5
157
100
AcDbEntity
  8
0
  6
ByLayer
 62
  256
370
   -1
100
AcDbPolyline
 90
    8
 70
    1
 43
0
 10
58
 20
10
 10
88
 20
10
 42
0.414213562373095
 10
91
 20
13
 10
91
 20
13
 42
0.414213562373095
 10
88
 20
16
 10
58
 20
16
 42
0.414213562373095
 10
55
 20
13
 10
55
 20
13
 42
0.414213562373095
  0
LWPOLYLINE
  5
158
100
AcDbEntity
  8
0
  6
ByLayer
 62
  256
370
   -1
100
AcDbPolyline
 90
    8
 70
    1
 43
0
 10
98
 20
10
 10
128
 20
10
 42
0.414213562373095
 10
131
 20
13
 10
131
 20
13
 42
0.414213562373095
 10
128
 20
16
 10
98
 20
16
 42
0.414213562373095
 10
95
 20
13
 10
95
 20
13
 42
0.414213562373095
  0
LWPOLYLINE
  5
159
100
AcDbEntity
  8
0
  6
ByLayer
 62
  256
370
   -1
100
AcDbPolyline
 90
    8
 70
    1
 43
0
 10
17
 20
30
 10
47
 20
30
 42
0.414213562373095
 10
50
 20
33
 10
50
 20
33
 42
0.414213562373095
 10
47
 20
36
 10
17
 20
36
 42
0.414213562373095
 10
14
 20
33
 10
14
 20
33
 42
0.414213562373095
  0
LWPOLYLINE
  5
15A
100
AcDbEntity
  8
0
  6
ByLayer
 62
  256
370
   -1
100
AcDbPolyline
 90
    8
 70
    1
 43
0
 10
58
 20
30
 10
88
 20
30
 42
0.414213562373095
 10
91
 20
33
 10
91
 20
33
 42
0.414213562373095
 10
88
 20
36
 10
58
 20
36
 42
0.414213562373095
 10
55
 20
33
 10
55
 20
33
 42
0.414213562373095
  0
LWPOLYLINE
  5
15B
100
AcDbEntity
  8
0
  6
ByLayer
 62
  256
370
   -1
100
AcDbPolyline
 90
    8
 70
    1
 43
0
 10
98
 20
30
 10
128
 20
30
 42
0.414213562373095
 10
131
 20
33
 10
131
 20
33
 42
0.414213562373095
 10
128
 20
36
 10
98
 20
36
 42
0.414213562373095
 10
95
 20
33
 10
95
 20
33
 42
0.414213562373095
  0
LWPOLYLINE
  5
15C
100
AcDbEntity
  8
0
  6
ByLayer
 62
  256
370
   -1
100
AcDbPolyline
 90
    8
 70
    1
 43
0
 10
62
 20
20
 10
92
 20
20
 42
0.414213562373095
 10
95
 20
23
 10
95
 20
23
 42
0.414213562373095
 10
92
 20
26
 10
62
 20
26
 42
0.414213562373095
 10
59
 20
23
 10
59
 20
23
 42
0.414213562373095
  0
CIRCLE
  5
15D
100
AcDbEntity
  8
0
  6
ByLayer
 62
  256
370
   -1
100
AcDbCircle
 10
114
 20
23
 40
1.75
  0
CIRCLE
  5
15E
100
AcDbEntity
  8
0
  6
ByLayer
 62
  256
370
   -1
100
AcDbCircle
 10
72
 20
77
 40
10
  0
LINE
  5
15F
100
AcDbEntity
  8
0
  6
ByLayer
 62
  256
370
   -1
100
AcDbLine
 10
15
 20
124
 11
130
 21
124
  0
LINE
  5
160
100
AcDbEntity
  8
0
  6
ByLayer
 62
  256
370
   -1
100
AcDbLine
 10
0
 20
109
 11
0
 21
67
  0
LINE
  5
161
100
AcDbEntity
  8
0
  6
ByLayer
 62
  256
370
   -1
100
AcDbLine
 10
0
 20
50
 11
0
 21
57
  0
LINE
  5
162
100
AcDbEntity
  8
0
  6
ByLayer
 62
  256
370
   -1
100
AcDbLine
 10
15
 20
0
 11
130
 21
0
  0
LINE
  5
163
100
AcDbEntity
  8
0
  6
ByLayer
 62
  256
370
   -1
100
AcDbLine
 10
145
 20
50
 11
145
 21
57
  0
LINE
  5
164
100
AcDbEntity
  8
0
  6
ByLayer
 62
  256
370
   -1
100
AcDbLine
 10
145
 20
67
 11
145
 21
109
  0
CIRCLE
  5
165
100
AcDbEntity
  8
0
  6
ByLayer
 62
  256
370
   -1
100
AcDbCircle
 10
30
 20
95
 40
5
  0
CIRCLE
  5
166
100
AcDbEntity
  8
0
  6
ByLayer
 62
  256
370
   -1
100
AcDbCircle
 10
115
 20
95
 40
5
  0
CIRCLE
  5
167
100
AcDbEntity
  8
0
  6
ByLayer
 62
  256
370
   -1
100
AcDbCircle
 10
115
 20
54
 40
5
  0
CIRCLE
  5
168
100
AcDbEntity
  8
0
  6
ByLayer
 62
  256
370
   -1
100
AcDbCircle
 10
30
 20
54
 40
3.5
  0
LINE
  5
169
100
AcDbEntity
  8
0
  6
ByLayer
 62
  256
370
   -1
100
AcDbLine
 10
0
 20
50
 11
0
 21
47
  0
LINE
  5
16A
100
AcDbEntity
  8
0
  6
ByLayer
 62
  256
370
   -1
100
AcDbLine
 10
0
 20
47
 11
5
 21
47
  0
LINE
  5
16B
100
AcDbEntity
  8
0
  6
ByLayer
 62
  256
370
   -1
100
AcDbLine
 10
5
 20
47
 11
5
 21
18
  0
LINE
  5
16C
100
AcDbEntity
  8
0
  6
ByLayer
 62
  256
370
   -1
100
AcDbLine
 10
145
 20
50
 11
145
 21
47
  0
LINE
  5
16D
100
AcDbEntity
  8
0
  6
ByLayer
 62
  256
370
   -1
100
AcDbLine
 10
145
 20
47
 11
140
 21
47
  0
LINE
  5
16E
100
AcDbEntity
  8
0
  6
ByLayer
 62
  256
370
   -1
100
AcDbLine
 10
140
 20
47
 11
140
 21
18
  0
CIRCLE
  5
16F
100
AcDbEntity
  8
0
  6
ByLayer
 62
  256
370
   -1
100
AcDbCircle
 10
5
 20
52
 40
1
  0
CIRCLE
  5
170
100
AcDbEntity
  8
0
  6
ByLayer
 62
  256
370
   -1
100
AcDbCircle
 10
140
 20
52
 40
1
  0
CIRCLE
  5
171
100
AcDbEntity
  8
0
  6
ByLayer
 62
  256
370
   -1
100
AcDbCircle
 10
5
 20
104
 40
1
  0
CIRCLE
  5
172
100
AcDbEntity
  8
0
  6
ByLayer
 62
  256
370
   -1
100
AcDbCircle
 10
140
 20
104
 40
1
  0
ENDBLK
  5
83
330
81
100
AcDbEntity
  8
0
100
AcDbBlockEnd
  0
BLOCK
  5
85
330
84
100
AcDbEntity
  8
0
100
AcDbBlockBegin
  2
oxygen_styrene-0
 70
    0
 10
0
 20
0
  3
oxygen_styrene-0
  1

  0
LINE
  5
173
100
AcDbEntity
  8
0
  6
ByLayer
 62
  256
370
   -1
100
AcDbLine
 10
135
 20
76
 11
135
 21
66
  0
LINE
  5
174
100
AcDbEntity
  8
0
  6
ByLayer
 62
  256
370
   -1
100
AcDbLine
 10
140
 20
61
 11
145
 21
61
  0
ARC
  5
175
100
AcDbEntity
  8
0
  6
ByLayer
 62
  256
370
   -1
100
AcDbCircle
 10
140
 20
66
 40
5
100
AcDbArc
 50
180
 51
270
  0
LINE
  5
176
100
AcDbEntity
  8
0
  6
ByLayer
 62
  256
370
   -1
100
AcDbLine
 10
10
 20
0
 11
10
 21
10
  0
LINE
  5
177
100
AcDbEntity
  8
0
  6
ByLayer
 62
  256
370
   -1
100
AcDbLine
 10
5
 20
15
 11
0
 21
15
  0
ARC
  5
178
100
AcDbEntity
  8
0
  6
ByLayer
 62
  256
370
   -1
100
AcDbCircle
 10
5
 20
10
 40
5
100
AcDbArc
 50
0
 51
90
  0
CIRCLE
  5
179
100
AcDbEntity
  8
0
  6
ByLayer
 62
  256
370
   -1
100
AcDbCircle
 10
24
 20
19
 40
6
  0
CIRCLE
  5
17A
100
AcDbEntity
  8
0
  6
ByLayer
 62
  256
370
   -1
100
AcDbCircle
 10
73
 20
18
 40
6
  0
CIRCLE
  5
17B
100
AcDbEntity
  8
0
  6
ByLayer
 62
  256
370
   -1
100
AcDbCircle
 10
119
 20
18
 40
6
  0
LINE
  5
17C
100
AcDbEntity
  8
0
  6
ByLayer
 62
  256
370
   -1
100
AcDbLine
 10
140
 20
15
 11
145
 21
15
  0
LINE
  5
17D
100
AcDbEntity
  8
0
  6
ByLayer
 62
  256
370
   -1
100
AcDbLine
 10
135
 20
0
 11
135
 21
10
  0
ARC
  5
17E
100
AcDbEntity
  8
0
  6
ByLayer
 62
  256
370
   -1
100
AcDbCircle
 10
140
 20
10
 40
5
100
AcDbArc
 50
90
 51
180
  0
LINE
  5
17F
100
AcDbEntity
  8
0
  6
ByLayer
 62
  256
370
   -1
100
AcDbLine
 10
5
 20
61
 11
0
 21
61
  0
LINE
  5
180
100
AcDbEntity
  8
0
  6
ByLayer
 62
  256
370
   -1
100
AcDbLine
 10
10
 20
76
 11
10
 21
66
  0
ARC
  5
181
100
AcDbEntity
  8
0
  6
ByLayer
 62
  256
370
   -1
100
AcDbCircle
 10
5
 20
66
 40
5
100
AcDbArc
 50
270
 51
0
  0
CIRCLE
  5
182
100
AcDbEntity
  8
0
  6
ByLayer
 62
  256
370
   -1
100
AcDbCircle
 10
113
 20
52
 40
18
  0
LWPOLYLINE
  5
183
100
AcDbEntity
  8
0
  6
ByLayer
 62
  256
370
   -1
100
AcDbPolyline
 90
    8
 70
    1
 43
0
 10
33
 20
56
 10
43
 20
56
 42
-0.414213562373095
 10
46
 20
53
 10
46
 20
53
 42
-0.414213562373095
 10
43
 20
50
 10
33
 20
50
 42
-0.414213562373095
 10
30
 20
53
 10
30
 20
53
 42
-0.414213562373095
  0
LINE
  5
184
100
AcDbEntity
  8
0
  6
ByLayer
 62
  256
370
   -1
100
AcDbLine
 10
10
 20
76
 11
135
 21
76
  0
LINE
  5
185
100
AcDbEntity
  8
0
  6
ByLayer
 62
  256
370
   -1
100
AcDbLine
 10
145
 20
61
 11
145
 21
15
  0
LINE
  5
186
100
AcDbEntity
  8
0
  6
ByLayer
 62
  256
370
   -1
100
AcDbLine
 10
135
 20
0
 11
10
 21
0
  0
LINE
  5
187
100
AcDbEntity
  8
0
  6
ByLayer
 62
  256
370
   -1
100
AcDbLine
 10
0
 20
15
 11
0
 21
61
  0
ENDBLK
  5
86
330
84
100
AcDbEntity
  8
0
100
AcDbBlockEnd
  0
BLOCK
  5
88
330
87
100
AcDbEntity
  8
0
100
AcDbBlockBegin
  2
antiice_styrene-0
 70
    0
 10
0
 20
0
  3
antiice_styrene-0
  1

  0
CIRCLE
  5
188
100
AcDbEntity
  8
0
  6
ByLayer
 62
  256
370
   -1
100
AcDbCircle
 10
40
 20
20
 40
6
  0
CIRCLE
  5
189
100
AcDbEntity
  8
0
  6
ByLayer
 62
  256
370
   -1
100
AcDbCircle
 10
86
 20
20
 40
6
  0
CIRCLE
  5
18A
100
AcDbEntity
  8
0
  6
ByLayer
 62
  256
370
   -1
100
AcDbCircle
 10
116
 20
20
 40
6
  0
LWPOLYLINE
  5
18B
100
AcDbEntity
  8
0
  6
ByLayer
 62
  256
370
   -1
100
AcDbPolyline
 90
    4
 70
    0
 43
0
 10
10
 20
0
 10
10
 20
10
 42
0.414213562373095
 10
5.000000000000002
 20
15
 10
0
 20
15
  0
LWPOLYLINE
  5
18C
100
AcDbEntity
  8
0
  6
ByLayer
 62
  256
370
   -1
100
AcDbPolyline
 90
    4
 70
    0
 43
0
 10
135
 20
39
 10
135
 20
29
 42
0.414213562373095
 10
140
 20
24
 10
145
 20
24
  0
LINE
  5
18D
100
AcDbEntity
  8
0
  6
ByLayer
 62
  256
370
   -1
100
AcDbLine
 10
10
 20
0
 11
145
 21
0
  0
LINE
  5
18E
100
AcDbEntity
  8
0
  6
ByLayer
 62
  256
370
   -1
100
AcDbLine
 10
145
 20
0
 11
145
 21
24
  0
LINE
  5
18F
100
AcDbEntity
  8
0
  6
ByLayer
 62
  256
370
   -1
100
AcDbLine
 10
135
 20
39
 11
0
 21
39
  0
LINE
  5
190
100
AcDbEntity
  8
0
  6
ByLayer
 62
  256
370
   -1
100
AcDbLine
 10
0
 20
39
 11
0
 21
15
  0
ENDBLK
  5
89
330
87
100
AcDbEntity
  8
0
100
AcDbBlockEnd
  0
BLOCK
  5
8B
330
8A
100
AcDbEntity
  8
0
100
AcDbBlockBegin
  2
corner_mounts
 70
    0
 10
0
 20
0
  3
corner_mounts
  1

  0
LINE
  5
191
100
AcDbEntity
  8
0
  6
ByLayer
 62
  256
370
   -1
100
AcDbLine
 10
10
 20
0
 11
10
 21
10
  0
ARC
  5
192
100
AcDbEntity
  8
0
  6
ByLayer
 62
  256
370
   -1
100
AcDbCircle
 10
5
 20
10
 40
5
100
AcDbArc
 50
0
 51
90
  0
LINE
  5
193
100
AcDbEntity
  8
0
  6
ByLayer
 62
  256
370
   -1
100
AcDbLine
 10
5
 20
15
 11
0
 21
15
  0
LINE
  5
194
100
AcDbEntity
  8
0
  6
ByLayer
 62
  256
370
   -1
100
AcDbLine
 10
0
 20
20
 11
5
 21
20
  0
ARC
  5
195
100
AcDbEntity
  8
0
  6
ByLayer
 62
  256
370
   -1
100
AcDbCircle
 10
5
 20
25
 40
5
100
AcDbArc
 50
270
 51
0
  0
LINE
  5
196
100
AcDbEntity
  8
0
  6
ByLayer
 62
  256
370
   -1
100
AcDbLine
 10
10
 20
25
 11
10
 21
35
  0
LINE
  5
197
100
AcDbEntity
  8
0
  6
ByLayer
 62
  256
370
   -1
100
AcDbLine
 10
30
 20
20
 11
25
 21
20
  0
ARC
  5
198
100
AcDbEntity
  8
0
  6
ByLayer
 62
  256
370
   -1
100
AcDbCircle
 10
25
 20
25
 40
5
100
AcDbArc
 50
180
 51
270
  0
LINE
  5
199
100
AcDbEntity
  8
0
  6
ByLayer
 62
  256
370
   -1
100
AcDbLine
 10
20
 20
25
 11
20
 21
35
  0
LINE
  5
19A
100
AcDbEntity
  8
0
  6
ByLayer
 62
  256
370
   -1
100
AcDbLine
 10
25
 20
15
 11
30
 21
15
  0
LINE
  5
19B
100
AcDbEntity
  8
0
  6
ByLayer
 62
  256
370
   -1
100
AcDbLine
 10
20
 20
0
 11
20
 21
10
  0
ARC
  5
19C
100
AcDbEntity
  8
0
  6
ByLayer
 62
  256
370
   -1
100
AcDbCircle
 10
25
 20
10
 40
5
100
AcDbArc
 50
90
 51
180
  0
ENDBLK
  5
8C
330
8A
100
AcDbEntity
  8
0
100
AcDbBlockEnd
  0
BLOCK
  5
8E
330
8D
100
AcDbEntity
  8
0
100
AcDbBlockBegin
  2
avi_power_styrene
 70
    0
 10
0
 20
0
  3
avi_power_styrene
  1

  0
LINE
  5
19D
100
AcDbEntity
  8
0
  6
ByLayer
 62
  256
370
   -1
100
AcDbLine
 10
135
 20
0
 11
135
 21
10
  0
ARC
  5
19E
100
AcDbEntity
  8
0
  6
ByLayer
 62
  256
370
   -1
100
AcDbCircle
 10
140
 20
10
 40
5.000000000000001
100
AcDbArc
 50
90
 51
180
  0
LINE
  5
19F
100
AcDbEntity
  8
0
  6
ByLayer
 62
  256
370
   -1
100
AcDbLine
 10
140
 20
15
 11
145
 21
15
  0
LINE
  5
1A0
100
AcDbEntity
  8
0
  6
ByLayer
 62
  256
370
   -1
100
AcDbLine
 10
145
 20
79
 11
140
 21
79
  0
ARC
  5
1A1
100
AcDbEntity
  8
0
  6
ByLayer
 62
  256
370
   -1
100
AcDbCircle
 10
140
 20
84
 40
5.000000000000001
100
AcDbArc
 50
180
 51
270
  0
LINE
  5
1A2
100
AcDbEntity
  8
0
  6
ByLayer
 62
  256
370
   -1
100
AcDbLine
 10
135
 20
84
 11
135
 21
94
  0
LINE
  5
1A3
100
AcDbEntity
  8
0
  6
ByLayer
 62
  256
370
   -1
100
AcDbLine
 10
0
 20
79
 11
5
 21
79
  0
ARC
  5
1A4
100
AcDbEntity
  8
0
  6
ByLayer
 62
  256
370
   -1
100
AcDbCircle
 10
5
 20
84
 40
5.000000000000001
100
AcDbArc
 50
270
 51
0
  0
LINE
  5
1A5
100
AcDbEntity
  8
0
  6
ByLayer
 62
  256
370
   -1
100
AcDbLine
 10
10
 20
84
 11
10
 21
94
  0
LINE
  5
1A6
100
AcDbEntity
  8
0
  6
ByLayer
 62
  256
370
   -1
100
AcDbLine
 10
135
 20
94
 11
10
 21
94
  0
LINE
  5
1A7
100
AcDbEntity
  8
0
  6
ByLayer
 62
  256
370
   -1
100
AcDbLine
 10
145
 20
15
 11
145
 21
79
  0
LINE
  5
1A8
100
AcDbEntity
  8
0
  6
ByLayer
 62
  256
370
   -1
100
AcDbLine
 10
10
 20
0
 11
135
 21
0
  0
LINE
  5
1A9
100
AcDbEntity
  8
0
  6
ByLayer
 62
  256
370
   -1
100
AcDbLine
 10
0
 20
79
 11
0
 21
15
  0
CIRCLE
  5
1AA
100
AcDbEntity
  8
0
  6
ByLayer
 62
  256
370
   -1
100
AcDbCircle
 10
21
 20
77
 40
6
  0
CIRCLE
  5
1AB
100
AcDbEntity
  8
0
  6
ByLayer
 62
  256
370
   -1
100
AcDbCircle
 10
47
 20
77
 40
6
  0
CIRCLE
  5
1AC
100
AcDbEntity
  8
0
  6
ByLayer
 62
  256
370
   -1
100
AcDbCircle
 10
73
 20
77
 40
6
  0
CIRCLE
  5
1AD
100
AcDbEntity
  8
0
  6
ByLayer
 62
  256
370
   -1
100
AcDbCircle
 10
99
 20
77
 40
6
  0
CIRCLE
  5
1AE
100
AcDbEntity
  8
0
  6
ByLayer
 62
  256
370
   -1
100
AcDbCircle
 10
125
 20
77
 40
6
  0
CIRCLE
  5
1AF
100
AcDbEntity
  8
0
  6
ByLayer
 62
  256
370
   -1
100
AcDbCircle
 10
70
 20
36
 40
6
  0
CIRCLE
  5
1B0
100
AcDbEntity
  8
0
  6
ByLayer
 62
  256
370
   -1
100
AcDbCircle
 10
90
 20
36
 40
6
  0
CIRCLE
  5
1B1
100
AcDbEntity
  8
0
  6
ByLayer
 62
  256
370
   -1
100
AcDbCircle
 10
120
 20
20
 40
4.5
  0
ENDBLK
  5
8F
330
8D
100
AcDbEntity
  8
0
100
AcDbBlockEnd
  0
ENDSEC
  0
SECTION
  2
ENTITIES
  0
DIMENSION
  5
1B2
100
AcDbEntity
  8
measure
  6
ByLayer
 62
  256
370
   -1
100
AcDbDimension
  2
*D1
 10
-3.41048934612212e-018
 20
8.490885249531141
 30
0
 11
127.7090675367854
 21
11.74088524953114
 31
0
 70
   32
 71
    5
  3
Standard
 53
0
210
0
220
0
230
1
100
AcDbAlignedDimension
 13
255.4181350735707
 23
38.49088524953103
 33
0
 14
-3.41048934612212e-018
 24
38.49088524953114
 34
0
 50
180
100
AcDbRotatedDimension
  0
DIMENSION
  5
1B3
100
AcDbEntity
  8
measure
  6
ByLayer
 62
  256
370
   -1
100
AcDbDimension
  2
*D2
 10
248.3444547310757
 20
543.6637560887799
 30
0
 11
120.222089638036
 21
530.5138675911601
 31
0
 70
   33
 71
    5
  3
Standard
 53
0
210
0
220
0
230
1
100
AcDbAlignedDimension
 13
1.705268460930779e-013
 23
455.7438809029431
 33
0
 14
255.4181350735707
 24
488.4908852495312
 34
0
  0
LWPOLYLINE
  5
1B4
100
AcDbEntity
  8
Frame
  6
ByLayer
 62
  256
370
   -1
100
AcDbPolyline
 90
    3
 70
    0
 43
0
 10
1.705268460930779e-013
 20
455.7438809029431
 10
219.4181350735707
 20
483.8753470609934
 10
255.4181350735707
 20
488.4908852495312
  0
LINE
  5
1B5
100
AcDbEntity
  8
Frame
  6
ByLayer
 62
  256
370
   -1
100
AcDbLine
 10
0.2655806445775966
 20
-0.009114750468858457
 11
47.68371571814819
 21
-0.009114750468858457
  0
LINE
  5
1B6
100
AcDbEntity
  8
Frame
  6
ByLayer
 62
  256
370
   -1
100
AcDbLine
 10
47.68371571814819
 20
-0.009114750468858457
 11
219.6837157181482
 21
-0.009114750468858457
  0
LINE
  5
1B7
100
AcDbEntity
  8
Frame
  6
ByLayer
 62
  256
370
   -1
100
AcDbLine
 10
-3.41048934612212e-018
 20
-0.009114750468858457
 11
1.705268460930779e-013
 21
455.7438809029431
  0
LINE
  5
1B8
100
AcDbEntity
  8
Frame
  6
ByLayer
 62
  256
370
   -1
100
AcDbLine
 10
255.4181350735707
 20
-0.009114750468972144
 11
255.4181350735707
 21
488.4908852495312
  0
LINE
  5
1B9
100
AcDbEntity
  8
Frame
  6
ByLayer
 62
  256
370
   -1
100
AcDbLine
 10
219.6837157181482
 20
-0.009114750468858457
 11
255.4181350735707
 21
-0.009114750468972144
  0
LINE
  5
1BA
100
AcDbEntity
  8
Frame
  6
ByLayer
 62
  256
370
   -1
100
AcDbLine
 10
207.4181350735707
 20
47.99088524953114
 11
207.4181350735707
 21
433.9439387506008
  0
LINE
  5
1BB
100
AcDbEntity
  8
Frame
  6
ByLayer
 62
  256
370
   -1
100
AcDbLine
 10
48
 20
47.99088524953114
 11
48.00000000000014
 21
413.5050362401136
  0
DIMENSION
  5
1BC
100
AcDbEntity
  8
measure
  6
ByLayer
 62
  256
370
   -1
100
AcDbDimension
  2
*D3
 10
-39.99999999999983
 20
407.3509853220633
 30
0
 11
-41.87499999999989
 21
227.9675336671254
 31
0
 70
   32
 71
    5
 72
    0
  3
Standard
 53
0
210
0
220
0
230
1
100
AcDbAlignedDimension
 13
-3.41048934612212e-018
 23
48.58408201218756
 33
0
 14
1.705268460930779e-013
 24
407.3509853220633
 34
0
 50
90
100
AcDbRotatedDimension
  0
DIMENSION
  5
1BD
100
AcDbEntity
  8
measure
  6
ByLayer
 62
  256
370
   -1
100
AcDbDimension
  2
*D4
 10
80.00000000000014
 20
413.5050362401136
 30
0
 11
78.12500000000014
 21
230.7479607448223
 31
0
 70
   32
 71
    5
 72
    0
  3
Standard
 53
0
210
0
220
0
230
1
100
AcDbAlignedDimension
 13
48
 23
47.99088524953114
 33
0
 14
48.00000000000014
 24
413.5050362401136
 34
0
 50
90
100
AcDbRotatedDimension
  0
DIMENSION
  5
1BE
100
AcDbEntity
  8
measure
  6
ByLayer
 62
  256
370
   -1
100
AcDbDimension
  2
*D5
 10
170.0000000000001
 20
433.9439387506008
 30
0
 11
168.1250000000001
 21
240.9674120000659
 31
0
 70
   32
 71
    5
 72
    0
  3
Standard
 53
0
210
0
220
0
230
1
100
AcDbAlignedDimension
 13
207.4181350735707
 23
47.99088524953114
 33
0
 14
207.4181350735707
 24
433.9439387506008
 34
0
 50
90
100
AcDbRotatedDimension
  0
DIMENSION
  5
1BF
100
AcDbEntity
  8
measure
  6
ByLayer
 62
  256
370
   -1
100
AcDbDimension
  2
*D6
 10
280.0000000000002
 20
440.0979896686512
 30
0
 11
278.1250000000001
 21
244.044437459091
 31
0
 70
   32
 71
    5
 72
    0
  3
Standard
 53
0
210
0
220
0
230
1
100
AcDbAlignedDimension
 13
255.4181350735707
 23
47.99088524953103
 33
0
 14
255.4181350735707
 24
440.0979896686512
 34
0
 50
90
100
AcDbRotatedDimension
  0
LINE
  5
1C0
100
AcDbEntity
  8
Frame
  6
ByLayer
 62
  256
370
   -1
100
AcDbLine
 10
0.2655806445775966
 20
47.99088524953114
 11
255.4181350735707
 21
47.99088524953103
  0
LINE
  5
1C1
100
AcDbEntity
  8
Frame
  6
ByLayer
 62
  256
370
   -1
100
AcDbLine
 10
1.705268460930779e-013
 20
407.3509853220633
 11
255.4181350735707
 21
440.0979896686512
  0
DIMENSION
  5
1C2
100
AcDbEntity
  8
measure
  6
ByLayer
 62
  256
370
   -1
100
AcDbDimension
  2
*D7
 10
-19.99999999999994
 20
455.7438809029431
 30
0
 11
-21.875
 21
227.8673830762371
 31
0
 70
   32
 71
    5
  3
Standard
 53
0
210
0
220
0
230
1
100
AcDbAlignedDimension
 13
0.990924878837518
 23
-0.009114750468858457
 33
0
 14
1.705268460930779e-013
 24
455.7438809029431
 34
0
 50
90
100
AcDbRotatedDimension
  0
DIMENSION
  5
1C3
100
AcDbEntity
  8
measure
  6
ByLayer
 62
  256
370
   -1
100
AcDbDimension
  2
*D8
 10
270.0000000000001
 20
488.4908852495313
 30
0
 11
268.125
 21
244.2408852495311
 31
0
 70
   32
 71
    5
  3
Standard
 53
0
210
0
220
0
230
1
100
AcDbAlignedDimension
 13
255.4181350735707
 23
-0.009114750468972144
 33
0
 14
255.4181350735707
 24
488.4908852495313
 34
0
 50
90
100
AcDbRotatedDimension
  0
ENDSEC
  0
SECTION
  2
OBJECTS
  0
DICTIONARY
  5
C
330
0
100
AcDbDictionary
281
    1
  3
ACAD_GROUP
350
D
  0
DICTIONARY
  5
D
330
C
100
AcDbDictionary
281
    1
  0
ENDSEC
  0
EOF
