<?xml version="1.0"?>
<svg xmlns="http://www.w3.org/2000/svg" xmlns:lc="http://www.librecad.org" xmlns:xlink="http://www.w3.org/1999/xlink" width="150mm" height="83mm" viewBox="0 0 150 83">
    <defs>
        <g id="9" lc:blockname="icp_opal">
            <g lc:layername="0" lc:is_locked="false" lc:is_construction="false" fill="none" stroke="black" stroke-width="1">
                <line x1="5" y1="355" x2="5" y2="471"/>
                <line x1="105" y1="471" x2="105" y2="355"/>
                <line x1="49" y1="473" x2="22" y2="473"/>
                <line x1="61" y1="473" x2="95" y2="473"/>
                <line x1="61" y1="353" x2="95" y2="353"/>
                <line x1="22" y1="473" x2="15" y2="473"/>
                <line x1="22" y1="353" x2="49" y2="353"/>
                <line x1="22" y1="353" x2="15" y2="353"/>
                <line x1="5" y1="473" x2="5" y2="471"/>
                <circle cx="10" cy="478" r="2"/>
                <circle cx="100" cy="478" r="2"/>
                <circle cx="100" cy="348" r="2"/>
                <circle cx="10" cy="348" r="2"/>
                <line x1="53" y1="353" x2="53" y2="343"/>
                <line x1="57" y1="353" x2="57" y2="343"/>
                <line x1="60" y1="353" x2="57" y2="353"/>
                <line x1="53" y1="353" x2="49" y2="353"/>
                <line x1="53" y1="343" x2="56" y2="343"/>
                <line x1="56" y1="343" x2="57" y2="343"/>
                <line x1="61" y1="353" x2="60" y2="353"/>
                <line x1="53" y1="473" x2="53" y2="483"/>
                <line x1="57" y1="473" x2="57" y2="483"/>
                <line x1="53" y1="473" x2="49" y2="473"/>
                <line x1="57" y1="473" x2="61" y2="473"/>
                <line x1="57" y1="483" x2="53" y2="483"/>
                <line x1="5" y1="473" x2="5" y2="478"/>
                <path d="M5,478 A5,5 0 0,0 10,483 "/>
                <line x1="10" y1="483" x2="10" y2="483"/>
                <line x1="15" y1="478" x2="15" y2="473"/>
                <path d="M10,483 A5,5 0 0,0 15,478 "/>
                <line x1="5" y1="355" x2="5" y2="348"/>
                <path d="M10,343 A5,5 0 0,0 5,348 "/>
                <line x1="10" y1="343" x2="10" y2="343"/>
                <line x1="15" y1="348" x2="15" y2="353"/>
                <path d="M15,348 A5,5 0 0,0 10,343 "/>
                <line x1="95" y1="353" x2="95" y2="348"/>
                <path d="M100,343 A5,5 0 0,0 95,348 "/>
                <line x1="100" y1="343" x2="100" y2="343"/>
                <line x1="105" y1="348" x2="105" y2="355"/>
                <path d="M105,348 A5,5 0 0,0 100,343 "/>
                <line x1="105" y1="478" x2="105" y2="471"/>
                <path d="M100,483 A5,5 0 0,0 105,478 "/>
                <line x1="100" y1="483" x2="100" y2="483"/>
                <line x1="95" y1="473" x2="95" y2="478"/>
                <path d="M95,478 A5,5 0 0,0 100,483 "/>
                <path d="M27,462 L27,451 A1,1 0 0,1 28,450 L39,450 A1,1 0 0,1 40,451 L40,462 A1,1 0 0,1 39,463 L28,463 A1,1 0 0,1 27,462 Z "/>
                <path d="M45.50000069,462 L45.50000069,451 A1,1 0 0,1 46.50000069,450 L57.50000069,450 A1,1 0 0,1 58.50000069,451 L58.50000069,462 A1,1 0 0,1 57.50000069,463 L46.50000069,463 A1,1 0 0,1 45.50000069,462 Z "/>
                <path d="M27,400 L27,389 A1,1 0 0,1 28,388 L39,388 A1,1 0 0,1 40,389 L40,400 A1,1 0 0,1 39,401 L28,401 A1,1 0 0,1 27,400 Z "/>
                <path d="M45.50000069,400 L45.50000069,389 A1,1 0 0,1 46.50000069,388 L57.50000069,388 A1,1 0 0,1 58.50000069,389 L58.50000069,400 A1,1 0 0,1 57.50000069,401 L46.50000069,401 A1,1 0 0,1 45.50000069,400 Z "/>
                <path d="M64,442.5 L64,431.5 A1,1 0 0,1 65,430.5 L76,430.5 A1,1 0 0,1 77,431.5 L77,442.5 A1,1 0 0,1 76,443.5 L65,443.5 A1,1 0 0,1 64,442.5 Z "/>
                <path d="M27,442.5 L27,431.5 A1,1 0 0,1 28,430.5 L39,430.5 A1,1 0 0,1 40,431.5 L40,442.5 A1,1 0 0,1 39,443.5 L28,443.5 A1,1 0 0,1 27,442.5 Z "/>
                <path d="M45.50000069,442.5 L45.50000069,431.5 A1,1 0 0,1 46.50000069,430.5 L57.50000069,430.5 A1,1 0 0,1 58.50000069,431.5 L58.50000069,442.5 A1,1 0 0,1 57.50000069,443.5 L46.50000069,443.5 A1,1 0 0,1 45.50000069,442.5 Z "/>
                <path d="M64,424 L64,413 A1,1 0 0,1 65,412 L76,412 A1,1 0 0,1 77,413 L77,424 A1,1 0 0,1 76,425 L65,425 A1,1 0 0,1 64,424 Z "/>
                <path d="M27,424 L27,413 A1,1 0 0,1 28,412 L39,412 A1,1 0 0,1 40,413 L40,424 A1,1 0 0,1 39,425 L28,425 A1,1 0 0,1 27,424 Z "/>
                <path d="M45.50000069,424 L45.50000069,413 A1,1 0 0,1 46.50000069,412 L57.50000069,412 A1,1 0 0,1 58.50000069,413 L58.50000069,424 A1,1 0 0,1 57.50000069,425 L46.50000069,425 A1,1 0 0,1 45.50000069,424 Z "/>
                <path d="M64,405.5 L64,394.5 A1,1 0 0,1 65,393.5 L76,393.5 A1,1 0 0,1 77,394.5 L77,405.5 A1,1 0 0,1 76,406.5 L65,406.5 A1,1 0 0,1 64,405.5 Z "/>
                <circle cx="37" cy="368" r="3.5"/>
                <circle cx="93" cy="428" r="3.5"/>
                <circle cx="25" cy="469" r="1.5"/>
                <circle cx="25" cy="357" r="1.5"/>
                <circle cx="101" cy="359" r="1.5"/>
                <circle cx="101" cy="467" r="1.5"/>
                <circle cx="55" cy="469" r="1.5"/>
                <circle cx="55" cy="357" r="1.5"/>
                <circle cx="8" cy="453" r="1.5"/>
                <circle cx="8" cy="413" r="1.5"/>
                <circle cx="8" cy="373" r="1.5"/>
                <circle cx="61" cy="433" r="1.5"/>
                <circle cx="61" cy="393" r="1.5"/>
                <circle cx="101" cy="413" r="1.5"/>
                <circle cx="93" cy="400" r="3.5"/>
                <circle cx="85" cy="368" r="3.5"/>
                <path d="M7.5,468.5 L7.5,457.5 A1,1 0 0,1 8.5,456.5 L19.5,456.5 A1,1 0 0,1 20.5,457.5 L20.5,468.5 A1,1 0 0,1 19.5,469.5 L8.5,469.5 A1,1 0 0,1 7.5,468.5 Z "/>
                <path d="M7.5,448.5 L7.5,437.5 A1,1 0 0,1 8.5,436.5 L19.5,436.5 A1,1 0 0,1 20.5,437.5 L20.5,448.5 A1,1 0 0,1 19.5,449.5 L8.5,449.5 A1,1 0 0,1 7.5,448.5 Z "/>
                <path d="M7.5,428.5 L7.5,417.5 A1,1 0 0,1 8.5,416.5 L19.5,416.5 A1,1 0 0,1 20.5,417.5 L20.5,428.5 A1,1 0 0,1 19.5,429.5 L8.5,429.5 A1,1 0 0,1 7.5,428.5 Z "/>
                <path d="M7.5,408.5 L7.5,397.5 A1,1 0 0,1 8.5,396.5 L19.5,396.5 A1,1 0 0,1 20.5,397.5 L20.5,408.5 A1,1 0 0,1 19.5,409.5 L8.5,409.5 A1,1 0 0,1 7.5,408.5 Z "/>
                <path d="M7.5,388.5 L7.5,377.5 A1,1 0 0,1 8.5,376.5 L19.5,376.5 A1,1 0 0,1 20.5,377.5 L20.5,388.5 A1,1 0 0,1 19.5,389.5 L8.5,389.5 A1,1 0 0,1 7.5,388.5 Z "/>
                <path d="M7.5,368.5 L7.5,357.5 A1,1 0 0,1 8.5,356.5 L19.5,356.5 A1,1 0 0,1 20.5,357.5 L20.5,368.5 A1,1 0 0,1 19.5,369.5 L8.5,369.5 A1,1 0 0,1 7.5,368.5 Z "/>
                <path d="M46,374 L46,362 A1,1 0 0,1 47,361 L70,361 A1,1 0 0,1 71,362 L71,374 A1,1 0 0,1 70,375 L47,375 A1,1 0 0,1 46,374 Z "/>
                <path d="M65,463 L76,463 L77,463 L102,463 A1,1 0 0,0 103,462 L103,450 A1,1 0 0,0 102,449 L77,449 L76,450 L65,450 A1,1 0 0,0 64,451 L64,462 A1,1 0 0,0 65,463 Z "/>
                <line x1="115" y1="355" x2="115" y2="471"/>
                <line x1="215" y1="471" x2="215" y2="355"/>
                <line x1="159" y1="473" x2="132" y2="473"/>
                <line x1="132" y1="353" x2="159" y2="353"/>
                <line x1="168" y1="473" x2="168" y2="483"/>
                <line x1="161" y1="473" x2="159" y2="473"/>
                <line x1="171" y1="473" x2="168" y2="473"/>
                <line x1="162" y1="353" x2="162" y2="343"/>
                <line x1="168" y1="353" x2="168" y2="343"/>
                <line x1="171" y1="353" x2="168" y2="353"/>
                <line x1="162" y1="353" x2="159" y2="353"/>
                <line x1="162" y1="343" x2="168" y2="343"/>
                <line x1="162" y1="483" x2="162" y2="473"/>
                <line x1="162" y1="473" x2="161" y2="473"/>
                <line x1="168" y1="483" x2="162" y2="483"/>
                <line x1="119.81966011" y1="471" x2="115" y2="471"/>
                <path d="M122.05572809,471.52786405 A5,5 0 0,0 119.81966011,471 "/>
                <line x1="119.81966011" y1="355" x2="115" y2="355"/>
                <path d="M119.81966011,355 A5,5 0 0,0 122.05572809,354.47213595 "/>
                <line x1="132" y1="473" x2="126.18033989" y2="473"/>
                <line x1="123.94427191" y1="472.47213595" x2="122.05572809" y2="471.52786405"/>
                <path d="M123.94427191,472.47213595 A5,5 0 0,0 126.18033989,473 "/>
                <line x1="132" y1="353" x2="126.18033989" y2="353"/>
                <line x1="123.94427191" y1="353.52786405" x2="122.05572809" y2="354.47213595"/>
                <path d="M126.18033989,353 A5,5 0 0,0 123.94427191,353.52786405 "/>
                <line x1="210.18033989" y1="471" x2="215" y2="471"/>
                <path d="M210.18033989,471 A5,5 0 0,0 207.94427191,471.52786405 "/>
                <line x1="206.05572809" y1="472.47213595" x2="207.94427191" y2="471.52786405"/>
                <line x1="171" y1="473" x2="203.81966011" y2="473"/>
                <path d="M203.81966011,473 A5,5 0 0,0 206.05572809,472.47213595 "/>
                <line x1="210.18033989" y1="355" x2="215" y2="355"/>
                <path d="M207.94427191,354.47213595 A5,5 0 0,0 210.18033989,355 "/>
                <line x1="206.05572809" y1="353.52786405" x2="207.94427191" y2="354.47213595"/>
                <line x1="171" y1="353" x2="203.81966011" y2="353"/>
                <path d="M206.05572809,353.52786405 A5,5 0 0,0 203.81966011,353 "/>
                <path d="M137,462 L137,451 A1,1 0 0,1 138,450 L149,450 A1,1 0 0,1 150,451 L150,462 A1,1 0 0,1 149,463 L138,463 A1,1 0 0,1 137,462 Z "/>
                <path d="M155.50000069,462 L155.50000069,451 A1,1 0 0,1 156.50000069,450 L167.50000069,450 A1,1 0 0,1 168.50000069,451 L168.50000069,462 A1,1 0 0,1 167.50000069,463 L156.50000069,463 A1,1 0 0,1 155.50000069,462 Z "/>
                <path d="M137,400 L137,389 A1,1 0 0,1 138,388 L149,388 A1,1 0 0,1 150,389 L150,400 A1,1 0 0,1 149,401 L138,401 A1,1 0 0,1 137,400 Z "/>
                <path d="M155.50000069,400 L155.50000069,389 A1,1 0 0,1 156.50000069,388 L167.50000069,388 A1,1 0 0,1 168.50000069,389 L168.50000069,400 A1,1 0 0,1 167.50000069,401 L156.50000069,401 A1,1 0 0,1 155.50000069,400 Z "/>
                <path d="M174,442.5 L174,431.5 A1,1 0 0,1 175,430.5 L186,430.5 A1,1 0 0,1 187,431.5 L187,442.5 A1,1 0 0,1 186,443.5 L175,443.5 A1,1 0 0,1 174,442.5 Z "/>
                <path d="M137,442.5 L137,431.5 A1,1 0 0,1 138,430.5 L149,430.5 A1,1 0 0,1 150,431.5 L150,442.5 A1,1 0 0,1 149,443.5 L138,443.5 A1,1 0 0,1 137,442.5 Z "/>
                <path d="M155.50000069,442.5 L155.50000069,431.5 A1,1 0 0,1 156.50000069,430.5 L167.50000069,430.5 A1,1 0 0,1 168.50000069,431.5 L168.50000069,442.5 A1,1 0 0,1 167.50000069,443.5 L156.50000069,443.5 A1,1 0 0,1 155.50000069,442.5 Z "/>
                <path d="M174,424 L174,413 A1,1 0 0,1 175,412 L186,412 A1,1 0 0,1 187,413 L187,424 A1,1 0 0,1 186,425 L175,425 A1,1 0 0,1 174,424 Z "/>
                <path d="M137,424 L137,413 A1,1 0 0,1 138,412 L149,412 A1,1 0 0,1 150,413 L150,424 A1,1 0 0,1 149,425 L138,425 A1,1 0 0,1 137,424 Z "/>
                <path d="M155.50000069,424 L155.50000069,413 A1,1 0 0,1 156.50000069,412 L167.50000069,412 A1,1 0 0,1 168.50000069,413 L168.50000069,424 A1,1 0 0,1 167.50000069,425 L156.50000069,425 A1,1 0 0,1 155.50000069,424 Z "/>
                <path d="M174,405.5 L174,394.5 A1,1 0 0,1 175,393.5 L186,393.5 A1,1 0 0,1 187,394.5 L187,405.5 A1,1 0 0,1 186,406.5 L175,406.5 A1,1 0 0,1 174,405.5 Z "/>
                <circle cx="147" cy="368" r="7"/>
                <circle cx="203" cy="428" r="7"/>
                <circle cx="211" cy="467" r="1.5"/>
                <circle cx="135" cy="469" r="1.5"/>
                <circle cx="211" cy="359" r="1.5"/>
                <circle cx="135" cy="357" r="1.5"/>
                <circle cx="203" cy="400" r="7"/>
                <circle cx="195" cy="368" r="7"/>
                <path d="M117.5,468.5 L117.5,457.5 A1,1 0 0,1 118.5,456.5 L129.5,456.5 A1,1 0 0,1 130.5,457.5 L130.5,468.5 A1,1 0 0,1 129.5,469.5 L118.5,469.5 A1,1 0 0,1 117.5,468.5 Z "/>
                <path d="M117.5,448.5 L117.5,437.5 A1,1 0 0,1 118.5,436.5 L129.5,436.5 A1,1 0 0,1 130.5,437.5 L130.5,448.5 A1,1 0 0,1 129.5,449.5 L118.5,449.5 A1,1 0 0,1 117.5,448.5 Z "/>
                <path d="M117.5,428.5 L117.5,417.5 A1,1 0 0,1 118.5,416.5 L129.5,416.5 A1,1 0 0,1 130.5,417.5 L130.5,428.5 A1,1 0 0,1 129.5,429.5 L118.5,429.5 A1,1 0 0,1 117.5,428.5 Z "/>
                <path d="M117.5,408.5 L117.5,397.5 A1,1 0 0,1 118.5,396.5 L129.5,396.5 A1,1 0 0,1 130.5,397.5 L130.5,408.5 A1,1 0 0,1 129.5,409.5 L118.5,409.5 A1,1 0 0,1 117.5,408.5 Z "/>
                <path d="M117.5,388.5 L117.5,377.5 A1,1 0 0,1 118.5,376.5 L129.5,376.5 A1,1 0 0,1 130.5,377.5 L130.5,388.5 A1,1 0 0,1 129.5,389.5 L118.5,389.5 A1,1 0 0,1 117.5,388.5 Z "/>
                <path d="M117.5,368.5 L117.5,357.5 A1,1 0 0,1 118.5,356.5 L129.5,356.5 A1,1 0 0,1 130.5,357.5 L130.5,368.5 A1,1 0 0,1 129.5,369.5 L118.5,369.5 A1,1 0 0,1 117.5,368.5 Z "/>
                <path d="M156,374 L156,362 A1,1 0 0,1 157,361 L180,361 A1,1 0 0,1 181,362 L181,374 A1,1 0 0,1 180,375 L157,375 A1,1 0 0,1 156,374 Z "/>
                <path d="M175,463 L186,463 L187,463 L212,463 A1,1 0 0,0 213,462 L213,450 A1,1 0 0,0 212,449 L187,449 L186,450 L175,450 A1,1 0 0,0 174,451 L174,462 A1,1 0 0,0 175,463 Z "/>
                <line x1="15" y1="333" x2="135" y2="333"/>
                <circle cx="25" cy="325" r="6.5"/>
                <circle cx="125" cy="325" r="6.5"/>
                <circle cx="45" cy="325" r="6.5"/>
                <circle cx="65" cy="325" r="6.5"/>
                <circle cx="85" cy="325" r="6.5"/>
                <circle cx="105" cy="325" r="6.5"/>
                <line x1="133" y1="316" x2="17" y2="316"/>
                <line x1="135" y1="333" x2="135" y2="327.18033989"/>
                <path d="M135,327.18033989 A5,5 0 0,0 134.47213595,324.94427191 "/>
                <line x1="15" y1="333" x2="15" y2="327.18033989"/>
                <path d="M15.52786405,324.94427191 A5,5 0 0,0 15,327.18033989 "/>
                <line x1="15.52786405" y1="324.94427191" x2="16.47213595" y2="323.05572809"/>
                <line x1="17" y1="320.81966011" x2="17" y2="316"/>
                <path d="M16.47213595,323.05572809 A5,5 0 0,0 17,320.81966011 "/>
                <line x1="134.47213595" y1="324.94427191" x2="133.52786405" y2="323.05572809"/>
                <line x1="133" y1="320.81966011" x2="133" y2="316"/>
                <path d="M133,320.81966011 A5,5 0 0,0 133.52786405,323.05572809 "/>
                <path d="M223.99999414,482 L223.99999414,473 A1,1 0 0,1 224.99999414,472 L233.99999414,472 A1,1 0 0,1 234.99999414,473 L234.99999414,482 A1,1 0 0,1 233.99999414,483 L224.99999414,483 A1,1 0 0,1 223.99999414,482 Z "/>
                <path d="M237.99999414,482 L237.99999414,473 A1,1 0 0,1 238.99999414,472 L247.99999414,472 A1,1 0 0,1 248.99999414,473 L248.99999414,482 A1,1 0 0,1 247.99999414,483 L238.99999414,483 A1,1 0 0,1 237.99999414,482 Z "/>
                <path d="M251.99999414,482 L251.99999414,473 A1,1 0 0,1 252.99999414,472 L261.99999414,472 A1,1 0 0,1 262.99999414,473 L262.99999414,482 A1,1 0 0,1 261.99999414,483 L252.99999414,483 A1,1 0 0,1 251.99999414,482 Z "/>
                <path d="M223.99999414,468 L223.99999414,459 A1,1 0 0,1 224.99999414,458 L233.99999414,458 A1,1 0 0,1 234.99999414,459 L234.99999414,468 A1,1 0 0,1 233.99999414,469 L224.99999414,469 A1,1 0 0,1 223.99999414,468 Z "/>
                <path d="M237.99999414,468 L237.99999414,459 A1,1 0 0,1 238.99999414,458 L247.99999414,458 A1,1 0 0,1 248.99999414,459 L248.99999414,468 A1,1 0 0,1 247.99999414,469 L238.99999414,469 A1,1 0 0,1 237.99999414,468 Z "/>
                <path d="M251.99999414,468 L251.99999414,459 A1,1 0 0,1 252.99999414,458 L261.99999414,458 A1,1 0 0,1 262.99999414,459 L262.99999414,468 A1,1 0 0,1 261.99999414,469 L252.99999414,469 A1,1 0 0,1 251.99999414,468 Z "/>
                <path d="M223.99999414,454 L223.99999414,445 A1,1 0 0,1 224.99999414,444 L233.99999414,444 A1,1 0 0,1 234.99999414,445 L234.99999414,454 A1,1 0 0,1 233.99999414,455 L224.99999414,455 A1,1 0 0,1 223.99999414,454 Z "/>
                <path d="M237.99999414,454 L237.99999414,445 A1,1 0 0,1 238.99999414,444 L247.99999414,444 A1,1 0 0,1 248.99999414,445 L248.99999414,454 A1,1 0 0,1 247.99999414,455 L238.99999414,455 A1,1 0 0,1 237.99999414,454 Z "/>
                <path d="M251.99999414,454 L251.99999414,445 A1,1 0 0,1 252.99999414,444 L261.99999414,444 A1,1 0 0,1 262.99999414,445 L262.99999414,454 A1,1 0 0,1 261.99999414,455 L252.99999414,455 A1,1 0 0,1 251.99999414,454 Z "/>
                <path d="M223.99999414,440 L223.99999414,431 A1,1 0 0,1 224.99999414,430 L233.99999414,430 A1,1 0 0,1 234.99999414,431 L234.99999414,440 A1,1 0 0,1 233.99999414,441 L224.99999414,441 A1,1 0 0,1 223.99999414,440 Z "/>
                <path d="M237.99999414,440 L237.99999414,431 A1,1 0 0,1 238.99999414,430 L247.99999414,430 A1,1 0 0,1 248.99999414,431 L248.99999414,440 A1,1 0 0,1 247.99999414,441 L238.99999414,441 A1,1 0 0,1 237.99999414,440 Z "/>
                <path d="M251.99999414,440 L251.99999414,431 A1,1 0 0,1 252.99999414,430 L261.99999414,430 A1,1 0 0,1 262.99999414,431 L262.99999414,440 A1,1 0 0,1 261.99999414,441 L252.99999414,441 A1,1 0 0,1 251.99999414,440 Z "/>
                <path d="M223.99999414,422 L223.99999414,413 A1,1 0 0,1 224.99999414,412 L233.99999414,412 A1,1 0 0,1 234.99999414,413 L234.99999414,422 A1,1 0 0,1 233.99999414,423 L224.99999414,423 A1,1 0 0,1 223.99999414,422 Z "/>
                <path d="M237.99999414,422 L237.99999414,413 A1,1 0 0,1 238.99999414,412 L247.99999414,412 A1,1 0 0,1 248.99999414,413 L248.99999414,422 A1,1 0 0,1 247.99999414,423 L238.99999414,423 A1,1 0 0,1 237.99999414,422 Z "/>
                <path d="M251.99999414,422 L251.99999414,413 A1,1 0 0,1 252.99999414,412 L261.99999414,412 A1,1 0 0,1 262.99999414,413 L262.99999414,422 A1,1 0 0,1 261.99999414,423 L252.99999414,423 A1,1 0 0,1 251.99999414,422 Z "/>
                <path d="M223.99999414,408 L223.99999414,399 A1,1 0 0,1 224.99999414,398 L233.99999414,398 A1,1 0 0,1 234.99999414,399 L234.99999414,408 A1,1 0 0,1 233.99999414,409 L224.99999414,409 A1,1 0 0,1 223.99999414,408 Z "/>
                <path d="M237.99999414,408 L237.99999414,399 A1,1 0 0,1 238.99999414,398 L247.99999414,398 A1,1 0 0,1 248.99999414,399 L248.99999414,408 A1,1 0 0,1 247.99999414,409 L238.99999414,409 A1,1 0 0,1 237.99999414,408 Z "/>
                <path d="M251.99999414,408 L251.99999414,399 A1,1 0 0,1 252.99999414,398 L261.99999414,398 A1,1 0 0,1 262.99999414,399 L262.99999414,408 A1,1 0 0,1 261.99999414,409 L252.99999414,409 A1,1 0 0,1 251.99999414,408 Z "/>
                <path d="M223.99999414,394 L223.99999414,385 A1,1 0 0,1 224.99999414,384 L233.99999414,384 A1,1 0 0,1 234.99999414,385 L234.99999414,394 A1,1 0 0,1 233.99999414,395 L224.99999414,395 A1,1 0 0,1 223.99999414,394 Z "/>
                <path d="M237.99999414,394 L237.99999414,385 A1,1 0 0,1 238.99999414,384 L247.99999414,384 A1,1 0 0,1 248.99999414,385 L248.99999414,394 A1,1 0 0,1 247.99999414,395 L238.99999414,395 A1,1 0 0,1 237.99999414,394 Z "/>
                <path d="M251.99999414,394 L251.99999414,385 A1,1 0 0,1 252.99999414,384 L261.99999414,384 A1,1 0 0,1 262.99999414,385 L262.99999414,394 A1,1 0 0,1 261.99999414,395 L252.99999414,395 A1,1 0 0,1 251.99999414,394 Z "/>
                <path d="M223.99999414,380 L223.99999414,371 A1,1 0 0,1 224.99999414,370 L233.99999414,370 A1,1 0 0,1 234.99999414,371 L234.99999414,380 A1,1 0 0,1 233.99999414,381 L224.99999414,381 A1,1 0 0,1 223.99999414,380 Z "/>
                <path d="M237.99999414,380 L237.99999414,371 A1,1 0 0,1 238.99999414,370 L247.99999414,370 A1,1 0 0,1 248.99999414,371 L248.99999414,380 A1,1 0 0,1 247.99999414,381 L238.99999414,381 A1,1 0 0,1 237.99999414,380 Z "/>
                <path d="M251.99999414,380 L251.99999414,371 A1,1 0 0,1 252.99999414,370 L261.99999414,370 A1,1 0 0,1 262.99999414,371 L262.99999414,380 A1,1 0 0,1 261.99999414,381 L252.99999414,381 A1,1 0 0,1 251.99999414,380 Z "/>
                <path d="M223.99999414,362 L223.99999414,353 A1,1 0 0,1 224.99999414,352 L233.99999414,352 A1,1 0 0,1 234.99999414,353 L234.99999414,362 A1,1 0 0,1 233.99999414,363 L224.99999414,363 A1,1 0 0,1 223.99999414,362 Z "/>
                <path d="M237.99999414,362 L237.99999414,353 A1,1 0 0,1 238.99999414,352 L247.99999414,352 A1,1 0 0,1 248.99999414,353 L248.99999414,362 A1,1 0 0,1 247.99999414,363 L238.99999414,363 A1,1 0 0,1 237.99999414,362 Z "/>
                <path d="M251.99999414,362 L251.99999414,353 A1,1 0 0,1 252.99999414,352 L261.99999414,352 A1,1 0 0,1 262.99999414,353 L262.99999414,362 A1,1 0 0,1 261.99999414,363 L252.99999414,363 A1,1 0 0,1 251.99999414,362 Z "/>
                <path d="M223.99999414,348 L223.99999414,339 A1,1 0 0,1 224.99999414,338 L233.99999414,338 A1,1 0 0,1 234.99999414,339 L234.99999414,348 A1,1 0 0,1 233.99999414,349 L224.99999414,349 A1,1 0 0,1 223.99999414,348 Z "/>
                <path d="M237.99999414,348 L237.99999414,339 A1,1 0 0,1 238.99999414,338 L247.99999414,338 A1,1 0 0,1 248.99999414,339 L248.99999414,348 A1,1 0 0,1 247.99999414,349 L238.99999414,349 A1,1 0 0,1 237.99999414,348 Z "/>
                <path d="M251.99999414,348 L251.99999414,339 A1,1 0 0,1 252.99999414,338 L261.99999414,338 A1,1 0 0,1 262.99999414,339 L262.99999414,348 A1,1 0 0,1 261.99999414,349 L252.99999414,349 A1,1 0 0,1 251.99999414,348 Z "/>
                <path d="M223.99999414,334 L223.99999414,325 A1,1 0 0,1 224.99999414,324 L233.99999414,324 A1,1 0 0,1 234.99999414,325 L234.99999414,334 A1,1 0 0,1 233.99999414,335 L224.99999414,335 A1,1 0 0,1 223.99999414,334 Z "/>
                <path d="M237.99999414,334 L237.99999414,325 A1,1 0 0,1 238.99999414,324 L247.99999414,324 A1,1 0 0,1 248.99999414,325 L248.99999414,334 A1,1 0 0,1 247.99999414,335 L238.99999414,335 A1,1 0 0,1 237.99999414,334 Z "/>
                <path d="M251.99999414,334 L251.99999414,325 A1,1 0 0,1 252.99999414,324 L261.99999414,324 A1,1 0 0,1 262.99999414,325 L262.99999414,334 A1,1 0 0,1 261.99999414,335 L252.99999414,335 A1,1 0 0,1 251.99999414,334 Z "/>
                <path d="M223.99999414,320 L223.99999414,311 A1,1 0 0,1 224.99999414,310 L233.99999414,310 A1,1 0 0,1 234.99999414,311 L234.99999414,320 A1,1 0 0,1 233.99999414,321 L224.99999414,321 A1,1 0 0,1 223.99999414,320 Z "/>
                <path d="M237.99999414,320 L237.99999414,311 A1,1 0 0,1 238.99999414,310 L247.99999414,310 A1,1 0 0,1 248.99999414,311 L248.99999414,320 A1,1 0 0,1 247.99999414,321 L238.99999414,321 A1,1 0 0,1 237.99999414,320 Z "/>
                <path d="M251.99999414,320 L251.99999414,311 A1,1 0 0,1 252.99999414,310 L261.99999414,310 A1,1 0 0,1 262.99999414,311 L262.99999414,320 A1,1 0 0,1 261.99999414,321 L252.99999414,321 A1,1 0 0,1 251.99999414,320 Z "/>
                <path d="M173,345.99999884 L173,324.99999884 A1,1 0 0,1 174,323.99999884 L184,323.99999884 A1,1 0 0,1 185,324.99999884 L185,345.99999884 A1,1 0 0,1 184,346.99999884 L174,346.99999884 A1,1 0 0,1 173,345.99999884 Z "/>
                <path d="M191,345.99999884 L191,324.99999884 A1,1 0 0,1 192,323.99999884 L202,323.99999884 A1,1 0 0,1 203,324.99999884 L203,345.99999884 A1,1 0 0,1 202,346.99999884 L192,346.99999884 A1,1 0 0,1 191,345.99999884 Z "/>
                <path d="M207,345.99999884 L207,324.99999884 A1,1 0 0,1 208,323.99999884 L218,323.99999884 A1,1 0 0,1 219,324.99999884 L219,345.99999884 A1,1 0 0,1 218,346.99999884 L208,346.99999884 A1,1 0 0,1 207,345.99999884 Z "/>
                <path d="M173,319.99999884 L173,298.99999884 A1,1 0 0,1 174,297.99999884 L184,297.99999884 A1,1 0 0,1 185,298.99999884 L185,319.99999884 A1,1 0 0,1 184,320.99999884 L174,320.99999884 A1,1 0 0,1 173,319.99999884 Z "/>
                <path d="M191,319.99999884 L191,298.99999884 A1,1 0 0,1 192,297.99999884 L202,297.99999884 A1,1 0 0,1 203,298.99999884 L203,319.99999884 A1,1 0 0,1 202,320.99999884 L192,320.99999884 A1,1 0 0,1 191,319.99999884 Z "/>
                <path d="M207,319.99999884 L207,298.99999884 A1,1 0 0,1 208,297.99999884 L218,297.99999884 A1,1 0 0,1 219,298.99999884 L219,319.99999884 A1,1 0 0,1 218,320.99999884 L208,320.99999884 A1,1 0 0,1 207,319.99999884 Z "/>
                <path d="M148.00000254,318 L142.00000254,318 A1,1 0 0,1 141.00000254,317 L141.00000254,300 A1,1 0 0,1 142.00000254,299 L148.00000254,299 A1,1 0 0,1 149.00000254,300 L149.00000254,317 A1,1 0 0,1 148.00000254,318 Z "/>
                <path d="M148.00000254,340 L142.00000254,340 A1,1 0 0,1 141.00000254,339 L141.00000254,322 A1,1 0 0,1 142.00000254,321 L148.00000254,321 A1,1 0 0,1 149.00000254,322 L149.00000254,339 A1,1 0 0,1 148.00000254,340 Z "/>
                <path d="M160.00000254,318 L154.00000254,318 A1,1 0 0,1 153.00000254,317 L153.00000254,300 A1,1 0 0,1 154.00000254,299 L160.00000254,299 A1,1 0 0,1 161.00000254,300 L161.00000254,317 A1,1 0 0,1 160.00000254,318 Z "/>
                <path d="M160.00000254,340 L154.00000254,340 A1,1 0 0,1 153.00000254,339 L153.00000254,322 A1,1 0 0,1 154.00000254,321 L160.00000254,321 A1,1 0 0,1 161.00000254,322 L161.00000254,339 A1,1 0 0,1 160.00000254,340 Z "/>
            </g>
            <g lc:layername="noname" lc:is_locked="false" lc:is_construction="false" fill="none" stroke="black" stroke-width="1"/>
        </g>
    </defs>
    <g lc:layername="0" lc:is_locked="false" lc:is_construction="false" fill="none" stroke="black" stroke-width="1">
        <path d="M26,42 L37,42 A1,1 0 0,1 38,43 L38,54 A1,1 0 0,1 37,55 L26,55 A1,1 0 0,1 25,54 L25,43 A1,1 0 0,1 26,42 Z "/>
        <path d="M26,5 L37,5 A1,1 0 0,1 38,6 L38,17 A1,1 0 0,1 37,18 L26,18 A1,1 0 0,1 25,17 L25,6 A1,1 0 0,1 26,5 Z "/>
        <path d="M26,23.50000069 L37,23.50000069 A1,1 0 0,1 38,24.50000069 L38,35.50000069 A1,1 0 0,1 37,36.50000069 L26,36.50000069 A1,1 0 0,1 25,35.50000069 L25,24.50000069 A1,1 0 0,1 26,23.50000069 Z "/>
        <path d="M88,5 L99,5 A1,1 0 0,1 100,6 L100,17 A1,1 0 0,1 99,18 L88,18 A1,1 0 0,1 87,17 L87,6 A1,1 0 0,1 88,5 Z "/>
        <path d="M88,23.50000069 L99,23.50000069 A1,1 0 0,1 100,24.50000069 L100,35.50000069 A1,1 0 0,1 99,36.50000069 L88,36.50000069 A1,1 0 0,1 87,35.50000069 L87,24.50000069 A1,1 0 0,1 88,23.50000069 Z "/>
        <path d="M45.5,42 L56.5,42 A1,1 0 0,1 57.5,43 L57.5,54 A1,1 0 0,1 56.5,55 L45.5,55 A1,1 0 0,1 44.5,54 L44.5,43 A1,1 0 0,1 45.5,42 Z "/>
        <path d="M45.5,5 L56.5,5 A1,1 0 0,1 57.5,6 L57.5,17 A1,1 0 0,1 56.5,18 L45.5,18 A1,1 0 0,1 44.5,17 L44.5,6 A1,1 0 0,1 45.5,5 Z "/>
        <path d="M45.5,23.50000069 L56.5,23.50000069 A1,1 0 0,1 57.5,24.50000069 L57.5,35.50000069 A1,1 0 0,1 56.5,36.50000069 L45.5,36.50000069 A1,1 0 0,1 44.5,35.50000069 L44.5,24.50000069 A1,1 0 0,1 45.5,23.50000069 Z "/>
        <path d="M64,42 L75,42 A1,1 0 0,1 76,43 L76,54 A1,1 0 0,1 75,55 L64,55 A1,1 0 0,1 63,54 L63,43 A1,1 0 0,1 64,42 Z "/>
        <path d="M64,5 L75,5 A1,1 0 0,1 76,6 L76,17 A1,1 0 0,1 75,18 L64,18 A1,1 0 0,1 63,17 L63,6 A1,1 0 0,1 64,5 Z "/>
        <path d="M64,23.50000069 L75,23.50000069 A1,1 0 0,1 76,24.50000069 L76,35.50000069 A1,1 0 0,1 75,36.50000069 L64,36.50000069 A1,1 0 0,1 63,35.50000069 L63,24.50000069 A1,1 0 0,1 64,23.50000069 Z "/>
        <path d="M82.5,42 L93.5,42 A1,1 0 0,1 94.5,43 L94.5,54 A1,1 0 0,1 93.5,55 L82.5,55 A1,1 0 0,1 81.5,54 L81.5,43 A1,1 0 0,1 82.5,42 Z "/>
        <line x1="17" y1="83" x2="133" y2="83"/>
        <path d="M28,58 A1,1 0 0,0 27,59 "/>
        <line x1="36" y1="58" x2="28" y2="58"/>
        <path d="M37,59 A1,1 0 0,0 36,58 "/>
        <line x1="37" y1="78" x2="37" y2="59"/>
        <path d="M36,79 A1,1 0 0,0 37,78 "/>
        <line x1="28" y1="79" x2="36" y2="79"/>
        <line x1="27" y1="59" x2="27" y2="78"/>
        <path d="M27,78 A1,1 0 0,0 28,79 "/>
        <path d="M116,26 A1,1 0 0,0 115,27 "/>
        <line x1="124" y1="26" x2="116" y2="26"/>
        <path d="M125,27 A1,1 0 0,0 124,26 "/>
        <line x1="125" y1="46" x2="125" y2="27"/>
        <path d="M124,47 A1,1 0 0,0 125,46 "/>
        <line x1="116" y1="47" x2="124" y2="47"/>
        <line x1="115" y1="27" x2="115" y2="46"/>
        <path d="M115,46 A1,1 0 0,0 116,47 "/>
        <line x1="15" y1="0" x2="135" y2="0"/>
        <circle cx="120" cy="15" r="3.5"/>
        <circle cx="60" cy="71" r="3.5"/>
        <circle cx="88" cy="71" r="3.5"/>
        <circle cx="120" cy="63" r="3.5"/>
        <line x1="10" y1="27" x2="10" y2="0"/>
        <line x1="12" y1="78.18033989" x2="12" y2="83"/>
        <path d="M12,78.18033989 A5,5 0 0,0 11.47213595,75.94427191 "/>
        <line x1="10.52786405" y1="74.05572809" x2="11.47213595" y2="75.94427191"/>
        <line x1="10" y1="39" x2="10" y2="71.81966011"/>
        <path d="M10,71.81966011 A5,5 0 0,0 10.52786405,74.05572809 "/>
        <line x1="0" y1="28" x2="10" y2="28"/>
        <line x1="0" y1="38" x2="10" y2="38"/>
        <line x1="10" y1="39" x2="10" y2="38"/>
        <line x1="10" y1="28" x2="10" y2="27"/>
        <line x1="0" y1="38" x2="0" y2="28"/>
        <line x1="140" y1="0" x2="140" y2="27"/>
        <line x1="138" y1="78.18033989" x2="138" y2="83"/>
        <path d="M138.52786405,75.94427191 A5,5 0 0,0 138,78.18033989 "/>
        <line x1="139.47213595" y1="74.05572809" x2="138.52786405" y2="75.94427191"/>
        <line x1="140" y1="39" x2="140" y2="71.81966011"/>
        <path d="M139.47213595,74.05572809 A5,5 0 0,0 140,71.81966011 "/>
        <line x1="140" y1="28" x2="150" y2="28"/>
        <line x1="140" y1="38" x2="150" y2="38"/>
        <line x1="140" y1="28" x2="140" y2="27"/>
        <line x1="140" y1="39" x2="140" y2="38"/>
        <line x1="150" y1="28" x2="150" y2="38"/>
    </g>
    <g lc:layername="noname" lc:is_locked="false" lc:is_construction="false" fill="none" stroke="black" stroke-width="1">
        <line x1="135" y1="0" x2="140" y2="0"/>
        <line x1="138" y1="83" x2="133" y2="83"/>
        <line x1="17" y1="83" x2="12" y2="83"/>
        <line x1="10" y1="0" x2="15" y2="0"/>
    </g>
</svg>
