<?xml version="1.0" encoding="UTF-8" standalone="no"?>
<svg
   xmlns:dc="http://purl.org/dc/elements/1.1/"
   xmlns:cc="http://creativecommons.org/ns#"
   xmlns:rdf="http://www.w3.org/1999/02/22-rdf-syntax-ns#"
   xmlns:svg="http://www.w3.org/2000/svg"
   xmlns="http://www.w3.org/2000/svg"
   xmlns:sodipodi="http://sodipodi.sourceforge.net/DTD/sodipodi-0.dtd"
   xmlns:inkscape="http://www.inkscape.org/namespaces/inkscape"
   width="210mm"
   height="297mm"
   viewBox="0 0 210 297"
   version="1.1"
   id="svg8"
   inkscape:version="1.0.1 (3bc2e813f5, 2020-09-07)"
   sodipodi:docname="aircond_engrave.svg">
  <defs
     id="defs2">
    <inkscape:path-effect
       effect="skeletal"
       id="path-effect2259"
       is_visible="true"
       lpeversion="1"
       pattern="m 17,310 v 45 z m 15.875,0 v 45 z m 15.875,0 v 45 z m 15.875,0 v 45 z m 15.875,0 v 45 z m 15.875,0 v 45 z m 15.875,0 v 45 z m 15.875,0 v 45 z M 144,310 v 45 z"
       copytype="single_stretched"
       prop_scale="0.54"
       scale_y_rel="false"
       spacing="0"
       normal_offset="0"
       tang_offset="0"
       prop_units="false"
       vertical_pattern="false"
       hide_knot="false"
       fuse_tolerance="0" />
    <inkscape:path-effect
       effect="skeletal"
       id="path-effect2197"
       is_visible="true"
       lpeversion="1"
       pattern="m 17,310 v 45 z"
       copytype="single_stretched"
       prop_scale="0.5"
       scale_y_rel="false"
       spacing="0"
       normal_offset="0"
       tang_offset="0"
       prop_units="false"
       vertical_pattern="false"
       hide_knot="false"
       fuse_tolerance="0" />
    <marker
       id="DistanceX"
       orient="auto"
       refX="0.0"
       refY="0.0"
       style="overflow:visible">
      <path
         d="M 3,-3 L -3,3 M 0,-5 L  0,5"
         style="stroke:#000000; stroke-width:0.5"
         id="path833" />
    </marker>
    <pattern
       id="Hatch"
       patternUnits="userSpaceOnUse"
       width="8"
       height="8"
       x="0"
       y="0">
      <path
         d="M8 4 l-4,4"
         stroke="#000000"
         stroke-width="0.25"
         linecap="square"
         id="path836" />
      <path
         d="M6 2 l-4,4"
         stroke="#000000"
         stroke-width="0.25"
         linecap="square"
         id="path838" />
      <path
         d="M4 0 l-4,4"
         stroke="#000000"
         stroke-width="0.25"
         linecap="square"
         id="path840" />
    </pattern>
    <symbol
       id="*Model_Space" />
    <symbol
       id="*Paper_Space" />
  </defs>
  <sodipodi:namedview
     id="base"
     pagecolor="#ffffff"
     bordercolor="#666666"
     borderopacity="1.0"
     inkscape:pageopacity="0.0"
     inkscape:pageshadow="2"
     inkscape:zoom="2"
     inkscape:cx="386.35702"
     inkscape:cy="264.38292"
     inkscape:document-units="mm"
     inkscape:current-layer="layer1"
     inkscape:document-rotation="0"
     showgrid="true"
     inkscape:snap-grids="false"
     inkscape:window-width="1918"
     inkscape:window-height="2071"
     inkscape:window-x="-8"
     inkscape:window-y="0"
     inkscape:window-maximized="0">
    <inkscape:grid
       type="xygrid"
       id="grid2108" />
  </sodipodi:namedview>
  <metadata
     id="metadata5">
    <rdf:RDF>
      <cc:Work
         rdf:about="">
        <dc:format>image/svg+xml</dc:format>
        <dc:type
           rdf:resource="http://purl.org/dc/dcmitype/StillImage" />
        <dc:title></dc:title>
      </cc:Work>
    </rdf:RDF>
  </metadata>
  <g
     inkscape:label="Lag 1"
     inkscape:groupmode="layer"
     id="layer1">
    <g
       inkscape:label="0"
       id="g885"
       transform="matrix(0.26458333,0,0,0.26458333,10.520835,-233.38541)"
       style="stroke:#fe0000;stroke-opacity:1">
      <path
         d="m 510.23622,1122.5197 v -37.7953"
         style="fill:none;stroke:#fe0000;stroke-linecap:round;stroke-opacity:1"
         id="path847" />
      <path
         d="M 529.13386,1065.8268 H 548.0315"
         style="fill:none;stroke:#fe0000;stroke-linecap:round;stroke-opacity:1"
         id="path849" />
      <path
         d="m 529.13386,1065.8268 a 18.897638,18.897638 0 0 0 -18.89764,18.8976"
         style="fill:none;stroke:#fe0000;stroke-linecap:round;stroke-opacity:1"
         id="path851" />
      <path
         d="M 529.13386,963.77953 H 548.0315"
         style="fill:none;stroke:#fe0000;stroke-linecap:round;stroke-opacity:1"
         id="path853" />
      <path
         d="M 510.23622,944.88189 V 907.08661"
         style="fill:none;stroke:#fe0000;stroke-linecap:round;stroke-opacity:1"
         id="path855" />
      <path
         d="m 510.23622,944.88189 a 18.897638,18.897638 0 0 0 18.89764,18.89764"
         style="fill:none;stroke:#fe0000;stroke-linecap:round;stroke-opacity:1"
         id="path857" />
      <path
         d="M 3.779528,1065.8268 H 0"
         style="fill:none;stroke:#fe0000;stroke-linecap:round;stroke-opacity:1"
         id="path859" />
      <path
         d="M 18.897638,1065.8268 H 3.779528"
         style="fill:none;stroke:#fe0000;stroke-linecap:round;stroke-opacity:1"
         id="path861" />
      <path
         d="m 37.795276,1122.5197 v -37.7953"
         style="fill:none;stroke:#fe0000;stroke-linecap:round;stroke-opacity:1"
         id="path863" />
      <path
         d="M 37.795276,1084.7244 A 18.897638,18.897638 0 0 0 18.897638,1065.8268"
         style="fill:none;stroke:#fe0000;stroke-linecap:round;stroke-opacity:1"
         id="path865" />
      <path
         d="M 18.897638,963.77953 H 0"
         style="fill:none;stroke:#fe0000;stroke-linecap:round;stroke-opacity:1"
         id="path867" />
      <path
         d="m 37.795276,907.08661 v 37.79528"
         style="fill:none;stroke:#fe0000;stroke-linecap:round;stroke-opacity:1"
         id="path869" />
      <path
         d="M 18.897638,963.77953 A 18.897638,18.897638 0 0 0 37.795276,944.88189"
         style="fill:none;stroke:#fe0000;stroke-linecap:round;stroke-opacity:1"
         id="path871" />
      <path
         d="M 0,1065.8268 V 963.77953"
         style="fill:none;stroke:#fe0000;stroke-linecap:round;stroke-opacity:1"
         id="path873" />
      <path
         d="M 37.795276,907.08661 H 510.23622"
         style="fill:none;stroke:#fe0000;stroke-linecap:round;stroke-opacity:1"
         id="path875" />
      <path
         d="M 548.0315,963.77953 V 1065.8268"
         style="fill:none;stroke:#fe0000;stroke-linecap:round;stroke-opacity:1"
         id="path877" />
      <path
         d="M 37.795276,1122.5197 H 510.23622"
         style="fill:none;stroke:#fe0000;stroke-linecap:round;stroke-opacity:1"
         id="path879" />
      <path
         d="m 430.86614,1016.6929 a 18.897638,18.897638 0 1 0 -37.79527,0 18.897638,18.897638 0 1 0 37.79527,0 z"
         style="fill:none;stroke:#fe0000;stroke-linecap:round;stroke-opacity:1"
         id="path881" />
      <path
         d="m 181.41732,1016.6929 a 18.897638,18.897638 0 1 0 -37.79527,0 18.897638,18.897638 0 1 0 37.79527,0 z"
         style="fill:none;stroke:#fe0000;stroke-linecap:round;stroke-opacity:1"
         id="path883" />
    </g>
    <g
       aria-label="A
I
R"
       id="text2092"
       style="font-style:normal;font-variant:normal;font-weight:normal;font-stretch:normal;font-size:4.93889px;line-height:1.25;font-family:'MS 33558';-inkscape-font-specification:'MS 33558, Normal';font-variant-ligatures:normal;font-variant-caps:normal;font-variant-numeric:normal;font-variant-east-asian:normal;text-align:center;text-anchor:middle;stroke-width:0.264583">
      <path
         d="m 16.682749,29.819777 -0.733117,-2.025717 -0.737939,2.025717 z m -0.733117,-2.025717 0.733117,2.025717 z m -1.86173,3.144684 q 0.385851,-1.063501 0.771702,-2.124591 0.388262,-1.063501 0.776525,-2.127002 0.07958,-0.219453 0.315915,-0.221864 0.236334,-0.0024 0.318327,0.221864 l 1.545814,4.263651 q 0.07235,0.340031 -0.207394,0.438905 -0.279742,0.09887 -0.431671,-0.202571 l -0.248391,-0.689709 h -1.965428 l -0.241156,0.672828 q -0.154341,0.303857 -0.438906,0.20016 -0.284565,-0.106109 -0.195337,-0.431671 z"
         style="font-style:normal;font-variant:normal;font-weight:normal;font-stretch:normal;font-size:4.93889px;font-family:'MS 33558';-inkscape-font-specification:'MS 33558, Normal';font-variant-ligatures:normal;font-variant-caps:normal;font-variant-numeric:normal;font-variant-east-asian:normal;text-align:center;text-anchor:middle;stroke-width:0.264583"
         id="path2231" />
      <path
         d="m 16.181143,37.244993 q -0.05305,0.340031 -0.344854,0.337619 -0.289388,0 -0.340031,-0.337619 v -4.263651 q 0.05064,-0.340031 0.340031,-0.340031 0.291799,-0.0024 0.344854,0.340031 z"
         style="font-style:normal;font-variant:normal;font-weight:normal;font-stretch:normal;font-size:4.93889px;font-family:'MS 33558';-inkscape-font-specification:'MS 33558, Normal';font-variant-ligatures:normal;font-variant-caps:normal;font-variant-numeric:normal;font-variant-east-asian:normal;text-align:center;text-anchor:middle;stroke-width:0.264583"
         id="path2233" />
      <path
         d="m 17.261525,43.228092 q 0.15434,0.272507 -0.08682,0.458197 -0.115756,0.08199 -0.267684,0.05547 -0.149518,-0.02653 -0.219453,-0.149517 l -1.188903,-1.878611 h -0.602892 v 1.697744 q 0,0.209806 -0.190513,0.303857 -0.190514,0.09164 -0.356912,-0.03617 -0.132637,-0.09887 -0.132637,-0.267684 v -4.26124 q 0,-0.139871 0.09646,-0.238745 0.09887,-0.09887 0.241157,-0.09887 h 1.497583 q 0.540191,0 0.9381,0.344854 0.397908,0.342442 0.494371,0.870576 0.101286,0.566718 -0.241157,1.061089 -0.340031,0.49196 -0.904337,0.598069 l -0.04582,0.0072 z m -1.210607,-2.192115 q 0.24598,0 0.453375,-0.149517 0.209806,-0.149518 0.282153,-0.390674 0.113344,-0.371382 -0.103697,-0.670416 -0.217041,-0.301446 -0.598069,-0.332796 h -1.188903 v 1.543403 z"
         style="font-style:normal;font-variant:normal;font-weight:normal;font-stretch:normal;font-size:4.93889px;font-family:'MS 33558';-inkscape-font-specification:'MS 33558, Normal';font-variant-ligatures:normal;font-variant-caps:normal;font-variant-numeric:normal;font-variant-east-asian:normal;text-align:center;text-anchor:middle;stroke-width:0.264583"
         id="path2235" />
    </g>
    <g
       aria-label="C
o
N
D"
       id="text2100"
       style="font-style:normal;font-variant:normal;font-weight:normal;font-stretch:normal;font-size:4.93889px;line-height:1.25;font-family:'MS 33558';-inkscape-font-specification:'MS 33558, Normal';font-variant-ligatures:normal;font-variant-caps:normal;font-variant-numeric:normal;font-variant-east-asian:normal;text-align:center;text-anchor:middle;stroke-width:0.264583">
      <path
         d="m 21.588925,27.959776 -0.0217,0.03135 q -0.0072,0.0096 -0.01206,0.01688 -0.0048,0.0072 -0.0096,0.01447 -0.330385,0.44614 -0.868164,0.636654 -0.535368,0.188102 -1.056267,-0.06994 -0.605303,-0.301446 -0.889868,-1.022504 -0.282153,-0.721059 -0.243568,-1.497584 0.041,-0.778936 0.409966,-1.430059 0.371382,-0.651123 1.075559,-0.81511 0.405144,-0.09405 0.807875,0.07958 0.402732,0.171221 0.66077,0.482313 0.0024,0 0.01206,0.01688 0.110932,0.144694 0.04582,0.318327 -0.06511,0.171221 -0.238745,0.21463 -0.18569,0.04823 -0.342442,-0.110932 -0.32315,-0.376205 -0.622185,-0.361736 -0.299034,0.01447 -0.535368,0.24598 -0.236333,0.231511 -0.393085,0.593246 -0.156752,0.361735 -0.192926,0.67765 -0.04341,0.352089 0.0072,0.709001 0.05306,0.354501 0.219453,0.668004 0.289388,0.549838 0.728293,0.689709 0.441317,0.137459 0.86093,-0.422025 0.01929,-0.02411 0.04582,-0.0627 0.226688,-0.250803 0.477491,-0.05064 0.253214,0.197748 0.07476,0.448551 z"
         style="font-style:normal;font-variant:normal;font-weight:normal;font-stretch:normal;font-size:4.93889px;font-family:'MS 33558';-inkscape-font-specification:'MS 33558, Normal';font-variant-ligatures:normal;font-variant-caps:normal;font-variant-numeric:normal;font-variant-east-asian:normal;text-align:center;text-anchor:middle;stroke-width:0.264583"
         id="path2222" />
      <path
         d="m 21.568427,31.386613 q 0.221864,0.668005 0.166398,1.386652 -0.05305,0.718647 -0.393085,1.311892 -0.21463,0.36897 -0.586011,0.627008 -0.371382,0.258038 -0.819933,0.180867 -0.730705,-0.127813 -1.118967,-0.762055 -0.388263,-0.634242 -0.44614,-1.410767 -0.05547,-0.778936 0.209806,-1.516876 0.267684,-0.737939 0.851283,-1.073147 0.284565,-0.163987 0.595658,-0.163987 0.593245,0 0.96945,0.448552 0.376204,0.44614 0.571541,0.971861 z m -1.521699,-0.735528 q -0.443728,0 -0.672827,0.477491 -0.226688,0.47749 -0.286977,0.815109 -0.04582,0.24598 -0.03376,0.595658 0.01206,0.349677 0.101286,0.692119 0.08923,0.340031 0.267684,0.61495 0.178456,0.272507 0.467844,0.361735 0.33762,0.106109 0.581188,-0.132636 0.24598,-0.241157 0.371381,-0.511252 0.127813,-0.27733 0.173633,-0.728294 0.04823,-0.450963 -0.0217,-0.899514 -0.06752,-0.450963 -0.267684,-0.810287 -0.20016,-0.361735 -0.56913,-0.460609 -0.04823,-0.01447 -0.110932,-0.01447 z"
         style="font-style:normal;font-variant:normal;font-weight:normal;font-stretch:normal;font-size:4.93889px;font-family:'MS 33558';-inkscape-font-specification:'MS 33558, Normal';font-variant-ligatures:normal;font-variant-caps:normal;font-variant-numeric:normal;font-variant-east-asian:normal;text-align:center;text-anchor:middle;stroke-width:0.264583"
         id="path2224" />
      <path
         d="m 21.691417,40.745906 q 0,0.253215 -0.24598,0.32315 -0.243568,0.06752 -0.378616,-0.144694 l -2.025717,-3.248381 v 3.069925 q -0.05305,0.33762 -0.342442,0.33762 -0.286977,0 -0.33762,-0.33762 v -4.258828 q 0.03617,-0.250803 0.255627,-0.330384 0.221864,-0.07958 0.368969,0.149517 l 2.025717,3.253204 v -3.072337 q 0.04582,-0.344854 0.349677,-0.340031 0.306269,0.0024 0.330385,0.340031 z"
         style="font-style:normal;font-variant:normal;font-weight:normal;font-stretch:normal;font-size:4.93889px;font-family:'MS 33558';-inkscape-font-specification:'MS 33558, Normal';font-variant-ligatures:normal;font-variant-caps:normal;font-variant-numeric:normal;font-variant-east-asian:normal;text-align:center;text-anchor:middle;stroke-width:0.264583"
         id="path2226" />
      <path
         d="m 18.820446,42.313425 h 1.135848 q 0.84646,0 1.268485,0.771702 0.422024,0.771701 0.422024,1.697743 0,0.926042 -0.424436,1.697744 -0.422024,0.771701 -1.266073,0.771701 h -1.135848 0.0048 -0.0048 q -0.07958,-0.01206 -0.08682,-0.01447 -0.250803,-0.06029 -0.248392,-0.327973 h -0.0024 l 0.0024,-4.258828 q -0.0024,-0.0072 -0.0024,-0.01929 0.0072,-0.132636 0.103697,-0.224276 0.09887,-0.09405 0.236334,-0.09405 z m 1.135848,4.258828 q 0.0048,0 0.0096,0 0.0048,0 0.01206,0 0.0048,0 0.0072,0 0.0048,-0.0024 0.01206,-0.0024 0.0048,0 0.0096,0 0.0072,-0.0024 0.01447,-0.0024 0.0048,0 0.0096,0 0.0048,-0.0024 0.01206,-0.0024 0.0048,0 0.0096,0 0.0048,-0.0024 0.01206,-0.0024 0.0096,-0.0048 0.01929,-0.0048 0.0048,0 0.0096,-0.0024 0.0048,-0.0048 0.01206,-0.0072 0.0048,0 0.0096,0 0.0072,-0.0024 0.01447,-0.0048 0.0048,0 0.0096,-0.0024 0.0048,-0.0024 0.01206,-0.0048 0.01447,-0.0048 0.0217,-0.0096 0.04341,-0.01447 0.02412,-0.0096 0.0048,0 0.0096,-0.0024 0.0048,-0.0048 0.01206,-0.0072 0.0217,-0.01447 0.01929,-0.01206 0.02411,-0.01206 0.02411,-0.01206 0.0048,-0.0024 0.0096,-0.0048 0.0048,-0.0048 0.01206,-0.0096 0.02171,-0.01447 0.02171,-0.01447 0.0048,-0.0024 0.0096,-0.0048 0.0072,-0.0048 0.01447,-0.0096 0.0048,-0.0024 0.0096,-0.0072 0.0048,-0.0048 0.01206,-0.0096 0.0048,-0.0024 0.0096,-0.0048 0.0048,-0.0048 0.01206,-0.0096 0.0048,-0.0048 0.02412,-0.01929 0.01929,-0.01929 0.01929,-0.01929 0.0048,-0.0048 0.0096,-0.0096 0.0048,-0.0048 0.01206,-0.01206 0.0048,-0.0048 0.0096,-0.0096 0.0048,-0.0048 0.01206,-0.01206 0.0072,-0.0048 0.0217,-0.01929 0.0048,-0.0048 0.0096,-0.0096 0.0048,-0.0048 0.01206,-0.01206 0.0048,-0.0048 0.0096,-0.0096 0.0048,-0.0072 0.01206,-0.01447 0.02894,-0.03859 0.01929,-0.02412 0.01688,-0.01688 0.0217,-0.02653 0.0217,-0.02894 0.01929,-0.02653 0.0048,-0.0072 0.0096,-0.01206 0.0048,-0.0072 0.01206,-0.01447 0.0048,-0.0072 0.0072,-0.01447 0.0048,-0.0072 0.01206,-0.01447 0.0024,-0.0072 0.0072,-0.01447 0.0072,-0.0096 0.01206,-0.01688 0.01447,-0.01929 0.01929,-0.02894 0.0048,-0.0072 0.0072,-0.01447 0.0048,-0.0096 0.01206,-0.01688 0.0048,-0.0072 0.0072,-0.01447 0.0048,-0.0096 0.01206,-0.01688 0.0048,-0.01206 0.01447,-0.03135 0.0048,-0.0072 0.0072,-0.01688 0.0048,-0.0096 0.01206,-0.01929 0.0048,-0.0072 0.0072,-0.01447 0.0048,-0.0096 0.01206,-0.01929 0.0024,-0.0072 0.0048,-0.01688 0.0048,-0.0096 0.0096,-0.01929 0.0072,-0.01206 0.01688,-0.03617 0.02412,-0.06029 0.01688,-0.03858 0.0024,-0.0072 0.0048,-0.01688 0.0048,-0.01206 0.0096,-0.0217 0.0024,-0.0096 0.0048,-0.01929 0.0048,-0.0096 0.0096,-0.0217 0.0072,-0.0217 0.01206,-0.03858 0.0024,-0.0096 0.0048,-0.01929 0.0048,-0.0096 0.0096,-0.02171 -0.0096,0.02412 0.01206,-0.041 0.0048,-0.01206 0.01447,-0.041 0,-0.0096 0.0024,-0.01929 0.0048,-0.01206 0.0072,-0.02412 0.0024,-0.0096 0.0048,-0.01929 0.0024,-0.01206 0.0072,-0.02411 0,-0.0072 0.0024,-0.01688 0.0048,-0.01206 0.0072,-0.02412 0.0024,-0.01688 0.0072,-0.04582 0,-0.0096 0.0024,-0.01929 0.0048,-0.01206 0.0072,-0.02412 0,-0.0096 0.0024,-0.01929 0.0024,-0.01206 0.0048,-0.02412 0.0024,-0.01688 0.0072,-0.04582 0,-0.0096 0.0024,-0.0217 0.0048,-0.01206 0.0072,-0.02412 0,-0.01688 0.0048,-0.04582 0,-0.0096 0,-0.01929 0.0024,-0.01206 0.0048,-0.02653 0.0048,-0.02894 0.0048,-0.04582 0.0024,-0.01688 0.0024,-0.04582 0.0024,-0.01688 0.0024,-0.04823 0.0024,-0.01688 0.0024,-0.04582 0,-0.01206 0,-0.0217 0.0024,-0.01206 0.0048,-0.02653 0,-0.0096 0,-0.01929 0.0024,-0.01206 0.0024,-0.02653 0,-0.0096 0,-0.0217 0,-0.01206 0,-0.02412 0,-0.01206 0,-0.0217 0,-0.01206 0,-0.02412 0,-0.01206 -0.0024,-0.0217 0,-0.01206 0,-0.02653 0,-0.0096 0,-0.0217 0,-0.01206 0,-0.02412 0,-0.01447 -0.0048,-0.04823 0,-0.02894 -0.0024,-0.04341 0,-0.01688 -0.0048,-0.05064 0,-0.02894 -0.0024,-0.04341 0,-0.01688 -0.0048,-0.04582 -0.0024,-0.0096 -0.0048,-0.0217 0,-0.01206 0,-0.02412 -0.0048,-0.02894 -0.0096,-0.04582 -0.0024,-0.0096 -0.0048,-0.01929 -0.0024,-0.01206 -0.0024,-0.02412 -0.0024,-0.01688 -0.0072,-0.04582 -0.0024,-0.01688 -0.0072,-0.04582 -0.0096,-0.02894 -0.01206,-0.04341 -0.0048,-0.02894 -0.0072,-0.041 -0.0048,-0.0096 -0.0072,-0.01929 -0.0024,-0.01206 -0.0048,-0.02412 -0.0024,-0.0096 -0.0072,-0.01929 -0.0048,-0.01206 -0.0048,-0.02412 -0.0217,-0.06511 -0.01206,-0.041 -0.0048,-0.01688 -0.01206,-0.041 -0.0048,-0.0072 -0.0096,-0.01688 -0.0024,-0.01206 -0.0048,-0.0217 -0.0024,-0.0072 -0.01447,-0.041 -0.0096,-0.02412 -0.01447,-0.03858 -0.0048,-0.0072 -0.0096,-0.01688 -0.0024,-0.01206 -0.0048,-0.0217 -0.0048,-0.0072 -0.0096,-0.01688 -0.0048,-0.0096 -0.0072,-0.01929 -0.0096,-0.02412 -0.01688,-0.03617 -0.0096,-0.02412 -0.01447,-0.03376 -0.0096,-0.02412 -0.01688,-0.03617 -0.0048,-0.0072 -0.0096,-0.01447 -0.0048,-0.0096 -0.0072,-0.01688 -0.01447,-0.02412 -0.01929,-0.03376 -0.0217,-0.03376 -0.01929,-0.03135 -0.0072,-0.0072 -0.01206,-0.01447 -0.0024,-0.0096 -0.0072,-0.01688 -0.0048,-0.0096 -0.01929,-0.02894 -0.0048,-0.0072 -0.0096,-0.01447 -0.0048,-0.0072 -0.0072,-0.01447 -0.01206,-0.0217 -0.041,-0.05547 -0.0048,-0.0048 -0.03859,-0.05306 -0.02894,-0.03376 -0.04341,-0.04823 -0.01447,-0.01688 -0.04341,-0.04582 -0.01929,-0.0217 -0.041,-0.041 -0.01688,-0.01206 -0.04582,-0.03617 -0.02412,-0.01929 -0.04582,-0.03617 -0.05547,-0.03617 -0.04582,-0.03135 -0.04823,-0.02894 -0.04341,-0.02653 0,0 -0.04341,-0.0217 -0.0096,-0.0048 -0.04582,-0.01688 -0.03135,-0.01206 -0.04582,-0.01688 -0.01206,-0.0024 -0.0217,-0.0048 -0.0096,-0.0048 -0.01929,-0.0096 -0.04341,-0.0072 -0.04341,-0.0072 -0.01447,-0.0024 -0.04341,-0.0024 -0.0072,0 -0.01206,0 -0.0048,0 -0.0096,0 h -0.795817 v 3.578766 0 z"
         style="font-style:normal;font-variant:normal;font-weight:normal;font-stretch:normal;font-size:4.93889px;font-family:'MS 33558';-inkscape-font-specification:'MS 33558, Normal';font-variant-ligatures:normal;font-variant-caps:normal;font-variant-numeric:normal;font-variant-east-asian:normal;text-align:center;text-anchor:middle;stroke-width:0.264583"
         id="path2228" />
    </g>
    <path
       style="fill:#000000;stroke:#000000;stroke-width:1;stroke-linecap:round;stroke-miterlimit:4;stroke-dasharray:none"
       d="m 127.97786,15.874996 -7.30661,16.987829 z"
       id="path2279" />
    <path
       style="fill:#000000;stroke:#000000;stroke-width:1;stroke-linecap:round;stroke-miterlimit:4;stroke-dasharray:none"
       d="m 111.68034,15.852246 6.82458,17.125876 z"
       id="path2277" />
    <path
       style="fill:#000000;stroke:#000000;stroke-width:1;stroke-linecap:round;stroke-miterlimit:4;stroke-dasharray:none"
       d="m 99.865202,27.077755 16.987828,7.306612 z"
       id="path2275" />
    <path
       style="fill:#000000;stroke:#000000;stroke-width:1;stroke-linecap:round;stroke-miterlimit:4;stroke-dasharray:none"
       d="M 99.842452,43.375273 116.96833,36.550699 Z"
       id="path2273" />
    <path
       style="fill:none;stroke:#000000;stroke-width:1;stroke-linecap:butt;stroke-linejoin:miter;stroke-miterlimit:4;stroke-dasharray:none;stroke-opacity:1"
       d="m 100.07511,27.119792 c -2.645841,0 -2.645841,0 -2.645841,0"
       id="path2285" />
    <path
       style="fill:none;stroke:#000000;stroke-width:1;stroke-linecap:butt;stroke-linejoin:miter;stroke-miterlimit:4;stroke-dasharray:none;stroke-opacity:1"
       d="m 100.04557,43.337332 c -2.645835,0 -2.645835,0 -2.645835,0"
       id="path2285-6" />
    <path
       style="fill:none;stroke:#000000;stroke-width:1;stroke-linecap:butt;stroke-linejoin:miter;stroke-miterlimit:4;stroke-dasharray:none;stroke-opacity:1"
       d="m 112.13979,16.167326 c -2.64584,0 -2.64584,0 -2.64584,0"
       id="path2285-6-4" />
    <path
       style="fill:none;stroke:#000000;stroke-width:1;stroke-linecap:butt;stroke-linejoin:miter;stroke-miterlimit:4;stroke-dasharray:none;stroke-opacity:1"
       d="m 130.15965,16.1762 c -2.64584,0 -2.64584,0 -2.64584,0"
       id="path2285-6-4-5" />
    <g
       aria-label="AIR SOURCE"
       id="text2334"
       style="font-size:3.29433px;line-height:1.25;font-family:'MS 33558';-inkscape-font-specification:'MS 33558, Normal';stroke-width:0.264583">
      <path
         d="m 109.85259,11.501548 -0.489,-1.35119 -0.49222,1.35119 z m -0.489,-1.35119 0.489,1.35119 z m -1.24181,2.097562 q 0.25737,-0.709375 0.51474,-1.417141 0.25898,-0.709375 0.51795,-1.4187499 0.0531,-0.1463789 0.21073,-0.1479874 0.15763,-0.00161 0.21233,0.1479874 l 1.03108,2.8439329 q 0.0483,0.226807 -0.13833,0.292758 -0.1866,0.06595 -0.28794,-0.135119 l -0.16568,-0.460048 h -1.31097 l -0.16086,0.448788 q -0.10295,0.202679 -0.29276,0.133511 -0.18981,-0.07078 -0.13029,-0.287932 z"
         style="stroke-width:0.264583"
         id="path2739" />
      <path
         d="m 111.38233,12.33639 q -0.0354,0.226807 -0.23002,0.225199 -0.19303,0 -0.22681,-0.225199 V 9.4924571 q 0.0338,-0.2268069 0.22681,-0.2268069 0.19463,-0.00161 0.23002,0.2268069 z"
         style="stroke-width:0.264583"
         id="path2741" />
      <path
         d="m 113.87077,12.209314 q 0.10295,0.181767 -0.0579,0.305626 -0.0772,0.05469 -0.17855,0.037 -0.0997,-0.01769 -0.14638,-0.09973 l -0.79302,-1.253068 h -0.40214 v 1.132426 q 0,0.139944 -0.12707,0.202678 -0.12708,0.06113 -0.23807,-0.02413 -0.0885,-0.06595 -0.0885,-0.17855 V 9.48924 q 0,-0.093297 0.0643,-0.1592474 0.066,-0.065951 0.16086,-0.065951 h 0.99891 q 0.36032,0 0.62573,0.230024 0.26542,0.2284154 0.32976,0.5806903 0.0676,0.378011 -0.16086,0.707766 -0.2268,0.328146 -0.60321,0.398923 l -0.0306,0.0048 z m -0.8075,-1.46218 q 0.16408,0 0.30241,-0.09973 0.13995,-0.09973 0.1882,-0.260587 0.0756,-0.247718 -0.0692,-0.4471793 -0.14477,-0.20107 -0.39893,-0.2219813 h -0.79302 v 1.0294786 z"
         style="stroke-width:0.264583"
         id="path2743" />
      <path
         d="m 117.37365,10.805042 0.0257,0.01126 0.029,0.01448 0.0257,0.01448 q 0.0113,0.008 0.0241,0.01609 0.0145,0.0064 0.0273,0.01448 0.3185,0.209113 0.3941,0.579082 0.029,0.14477 0.0129,0.297583 -0.0257,0.218764 -0.15442,0.405357 -0.12708,0.184985 -0.3201,0.286324 -0.20751,0.109382 -0.42949,0.109382 -0.37319,0 -0.71259,-0.09491 -0.33941,-0.09651 -0.48418,-0.513131 -0.0193,-0.05308 -0.0289,-0.109382 -0.01,-0.0563 -0.0225,-0.112599 -0.0241,-0.115816 0.0563,-0.204287 0.082,-0.08847 0.20268,-0.06756 0.12707,0.02574 0.17694,0.157638 l 0.005,0.01448 q 0.0772,0.349058 0.26863,0.416617 0.19303,0.06756 0.53565,0.06113 0.31528,0 0.43271,-0.295975 0.0515,-0.131902 0.0161,-0.273455 -0.0354,-0.143162 -0.13994,-0.238067 -0.0466,-0.04021 -0.12225,-0.0756 l -0.74477,-0.326537 -0.0241,-0.01287 q -0.36514,-0.193027 -0.45361,-0.548518 -0.10777,-0.4117916 0.1496,-0.7383292 0.25897,-0.3281461 0.67881,-0.3281461 l 0.17694,0.00483 q 0.0869,0.016086 0.16729,0.032171 0.0804,0.014477 0.16246,0.051474 0.20268,0.094905 0.31046,0.2605867 0.10777,0.1656816 0.19463,0.3587087 0.008,0.017694 0.0145,0.041822 0.0177,0.07882 -0.0161,0.143162 -0.0193,0.04021 -0.0402,0.06113 -0.0209,0.02091 -0.0338,0.02895 -0.0836,0.05952 -0.18338,0.03539 -0.0997,-0.02252 -0.15281,-0.128685 -0.0418,-0.0933 -0.0901,-0.1898099 -0.0466,-0.098122 -0.1319,-0.1624646 -0.0354,-0.025737 -0.0692,-0.036997 -0.0322,-0.012868 -0.0724,-0.027345 l -0.10456,-0.017694 -0.14799,-0.00483 q -0.21554,0.00322 -0.32975,0.1865929 -0.0772,0.1174248 -0.0579,0.2621948 0.0225,0.178551 0.16729,0.276673 0.006,0.0048 0.0145,0.01126 0.008,0.0048 0.0177,0.0097 l 0.0177,0.008 0.0193,0.008 z"
         style="stroke-width:0.264583"
         id="path2745" />
      <path
         d="m 120.45565,10.211483 q 0.14799,0.445571 0.11099,0.924922 -0.0354,0.479351 -0.26219,0.875056 -0.14316,0.24611 -0.39088,0.418226 -0.24772,0.172116 -0.54691,0.120642 -0.4874,-0.08525 -0.74637,-0.508305 -0.25898,-0.423051 -0.29759,-0.941007 -0.037,-0.519565 0.13995,-1.011784 0.17855,-0.4922195 0.56782,-0.7158093 0.18981,-0.109382 0.39731,-0.109382 0.39571,0 0.64664,0.299192 0.25094,0.2975835 0.38123,0.6482493 z m -1.015,-0.4906104 q -0.29597,0 -0.44879,0.3184944 -0.1512,0.318495 -0.19141,0.543693 -0.0306,0.164074 -0.0225,0.397315 0.008,0.233241 0.0676,0.461656 0.0595,0.226807 0.17855,0.410183 0.11903,0.181767 0.31206,0.241284 0.22519,0.07078 0.38766,-0.08847 0.16407,-0.160856 0.24772,-0.341015 0.0853,-0.184984 0.11581,-0.485785 0.0322,-0.3008 -0.0145,-0.599992 -0.045,-0.300801 -0.17855,-0.540476 -0.13351,-0.2412841 -0.37962,-0.3072351 -0.0322,-0.00965 -0.074,-0.00965 z"
         style="stroke-width:0.264583"
         id="path2747" />
      <path
         d="m 123.16768,11.472594 v 0.03217 q -0.005,0.08043 -0.006,0.09651 -0.0676,0.492219 -0.40375,0.727069 -0.33619,0.233241 -0.71742,0.218764 -0.38122,-0.01609 -0.69811,-0.278281 -0.31528,-0.262195 -0.34262,-0.764066 V 11.472594 9.48924 q 0,-0.048257 0.0177,-0.086862 0.0772,-0.1688988 0.25576,-0.1335105 0.18016,0.035388 0.18016,0.2203727 v 1.983354 q 0.0241,0.369969 0.32493,0.553344 0.30241,0.183376 0.63538,-0.01609 0.1496,-0.08847 0.21876,-0.228416 0.0708,-0.139944 0.0837,-0.308843 V 9.48924 q 0,-0.028954 0.003,-0.043431 0.037,-0.1978528 0.24289,-0.1785501 0.20589,0.019303 0.20589,0.2219812 z"
         style="stroke-width:0.264583"
         id="path2749" />
      <path
         d="m 125.59178,12.209314 q 0.10295,0.181767 -0.0579,0.305626 -0.0772,0.05469 -0.17855,0.037 -0.0997,-0.01769 -0.14638,-0.09973 l -0.79302,-1.253068 h -0.40214 v 1.132426 q 0,0.139944 -0.12708,0.202678 -0.12708,0.06113 -0.23807,-0.02413 -0.0885,-0.06595 -0.0885,-0.17855 V 9.48924 q 0,-0.093297 0.0644,-0.1592474 0.066,-0.065951 0.16085,-0.065951 h 0.99892 q 0.36031,0 0.62573,0.230024 0.26541,0.2284154 0.32975,0.5806903 0.0676,0.378011 -0.16085,0.707766 -0.22681,0.328146 -0.60321,0.398923 l -0.0306,0.0048 z m -0.80749,-1.46218 q 0.16407,0 0.30241,-0.09973 0.13994,-0.09973 0.1882,-0.260587 0.0756,-0.247718 -0.0692,-0.4471793 -0.14477,-0.20107 -0.39892,-0.2219813 h -0.79302 v 1.0294786 z"
         style="stroke-width:0.264583"
         id="path2751" />
      <path
         d="m 128.25395,12.043632 -0.0145,0.02091 q -0.005,0.0064 -0.008,0.01126 -0.003,0.0048 -0.006,0.0097 -0.22038,0.297584 -0.57909,0.42466 -0.3571,0.125467 -0.70454,-0.04665 -0.40375,-0.20107 -0.59356,-0.68203 -0.1882,-0.480959 -0.16247,-0.998915 0.0273,-0.519565 0.27346,-0.9538759 0.24772,-0.4343111 0.71741,-0.5436932 0.27024,-0.062734 0.53887,0.053083 0.26863,0.1142077 0.44075,0.3217119 0.002,0 0.008,0.01126 0.074,0.096514 0.0306,0.2123299 -0.0434,0.1142077 -0.15924,0.1431619 -0.12386,0.03217 -0.22842,-0.073994 -0.21555,-0.2509353 -0.41501,-0.2412839 -0.19946,0.00965 -0.3571,0.1640731 -0.15764,0.1544217 -0.26219,0.3957057 -0.10456,0.241284 -0.12869,0.452005 -0.029,0.23485 0.005,0.472917 0.0354,0.236458 0.14638,0.445571 0.19302,0.366751 0.48578,0.460048 0.29437,0.09169 0.57426,-0.281498 0.0129,-0.01609 0.0306,-0.04182 0.1512,-0.16729 0.31849,-0.03378 0.1689,0.131902 0.0499,0.299192 z"
         style="stroke-width:0.264583"
         id="path2753" />
      <path
         d="m 130.48824,9.7128298 h -1.3335 v 0.8798822 h 1.01661 q 0.22842,0.03378 0.22681,0.230024 0,0.194636 -0.22681,0.226807 h -1.01661 v 1.056823 h 1.3335 q 0.22681,0.03378 0.22681,0.226807 0,0.193027 -0.22681,0.225199 h -1.55709 q -0.20107,-0.02574 -0.22841,-0.228416 V 9.48924 q 0.0306,-0.2123299 0.22841,-0.2251983 h 1.55709 q 0.22681,0.017694 0.2252,0.2268069 0,0.2075041 -0.2252,0.2219812 z"
         style="stroke-width:0.264583"
         id="path2755" />
    </g>
    <g
       aria-label="TEMP"
       id="text2338"
       style="font-size:3.29433px;line-height:1.25;font-family:'MS 33558';-inkscape-font-specification:'MS 33558, Normal';stroke-width:0.264583"
       transform="translate(0.52916667)">
      <path
         d="M 49.330333,12.335818 V 9.7203 h -0.590341 q -0.225199,-0.017694 -0.225199,-0.2251983 0.0016,-0.2091128 0.225199,-0.2284155 h 1.632688 q 0.221981,0.017694 0.221981,0.2284155 0.0016,0.2091127 -0.221981,0.2251983 h -0.588733 v 2.615518 q -0.037,0.228415 -0.238067,0.225198 -0.199461,-0.0032 -0.215547,-0.225198 z"
         style="stroke-width:0.264583"
         id="path2730" />
      <path
         d="m 52.861121,9.7154743 h -1.333496 v 0.8798817 h 1.01661 q 0.228415,0.03378 0.226807,0.230024 0,0.194636 -0.226807,0.226807 h -1.01661 v 1.056824 h 1.333496 q 0.226807,0.03378 0.226807,0.226807 0,0.193027 -0.226807,0.225198 h -1.557085 q -0.20107,-0.02574 -0.228416,-0.228415 V 9.4918845 q 0.03056,-0.2123298 0.228416,-0.2251983 h 1.557085 q 0.226807,0.017694 0.225199,0.2268069 0,0.2075042 -0.225199,0.2219812 z"
         style="stroke-width:0.264583"
         id="path2732" />
      <path
         d="m 55.93347,12.335818 q -0.03539,0.225198 -0.228416,0.225198 -0.191418,-0.0016 -0.225198,-0.225198 v -2.009091 l -0.551736,0.944224 q -0.08847,0.106165 -0.197853,0.110991 -0.107773,0.0048 -0.193027,-0.110991 l -0.548519,-0.939398 0.0016,2.004265 q -0.02574,0.22359 -0.233241,0.22359 -0.205896,-0.0016 -0.221981,-0.22359 V 9.4951017 q 0.01287,-0.1849844 0.162464,-0.2203727 0.149596,-0.036997 0.260587,0.1013392 l 0.773717,1.3302788 0.78176,-1.3302788 q 0.11099,-0.1383361 0.257369,-0.1013392 0.147988,0.036997 0.162465,0.2203727 z"
         style="stroke-width:0.264583"
         id="path2734" />
      <path
         d="m 57.556506,9.2666862 h 0.03056 q 0.205895,0.014477 0.37962,0.093296 0.332972,0.1560302 0.471308,0.5131304 0.138336,0.3571004 -0.0032,0.6965064 -0.114208,0.26863 -0.337798,0.421443 -0.22359,0.151205 -0.509913,0.168899 l -0.03056,0.0016 h -0.78176 v 1.17264 q -0.02895,0.226807 -0.228415,0.226807 -0.199462,0 -0.226807,-0.226807 V 9.4918845 q 0.02413,-0.1994613 0.21233,-0.2251983 h 0.01448 z m 0,0.4536138 h -0.78176 v 0.986047 h 0.78176 q 0.183376,0 0.323321,-0.122251 0.141553,-0.12225 0.165681,-0.305626 0.02895,-0.221981 -0.119033,-0.3892713 Q 57.778487,9.7203 57.556506,9.7203 Z"
         style="stroke-width:0.264583"
         id="path2736" />
    </g>
    <path
       id="path2340"
       style="fill:none;stroke:#000000;stroke-width:1;stroke-linecap:round;stroke-miterlimit:4;stroke-dasharray:none"
       d="M 70.086359,35.610306 A 16.546068,16.546068 0 0 1 53.540291,52.156374 16.546068,16.546068 0 0 1 36.994223,35.610306 16.546068,16.546068 0 0 1 53.540291,19.064238 16.546068,16.546068 0 0 1 70.086359,35.610306 Z" />
    <path
       id="rect2521-2"
       style="fill:#ffffff;stroke:#ffffff;stroke-width:0.866343;stroke-linecap:round;stroke-miterlimit:4;stroke-dasharray:none;stroke-opacity:1"
       d="m 66.277435,25.829264 h 11.643033 v 3.440949 H 66.277435 Z" />
    <path
       style="fill:none;stroke:#ffffff;stroke-width:0.264583px;stroke-linecap:butt;stroke-linejoin:miter;stroke-opacity:1"
       d="m 75.229816,31.628293 c 0,0 0,0 -20.439062,3.96875 20.439063,4.233334 20.439063,4.233334 20.439063,4.233334"
       id="path2346-4" />
    <path
       style="fill:none;stroke:#ffffff;stroke-width:0.264583px;stroke-linecap:butt;stroke-linejoin:miter;stroke-opacity:1"
       d="M 52.035815,35.591623 C 31.530607,31.82131 31.530607,31.755165 31.530607,31.755165"
       id="path2348-8" />
    <path
       style="fill:none;stroke:#ffffff;stroke-width:0.264583px;stroke-linecap:butt;stroke-linejoin:miter;stroke-opacity:1"
       d="m 52.035815,35.591623 c -20.306771,3.96875 -20.108333,3.96875 -20.108333,3.96875"
       id="path2350-5" />
    <path
       id="rect2389"
       style="fill:none;stroke:#ffffff;stroke-width:1;stroke-linecap:round;stroke-miterlimit:4;stroke-dasharray:none"
       transform="rotate(9.6921582)"
       d="m 41.948578,26.657887 h 0.611849 v 0.562239 h -0.611849 z" />
    <path
       id="rect2391"
       style="fill:none;stroke:#ffffff;stroke-width:1;stroke-linecap:round;stroke-miterlimit:4;stroke-dasharray:none"
       transform="rotate(-7.8570627)"
       d="m 31.010639,41.666935 h 1.30638 v 1.02526 h -1.30638 z" />
    <path
       id="rect2395"
       style="fill:#ffffff;stroke:#ffffff;stroke-width:1.06641;stroke-linecap:round;stroke-miterlimit:4;stroke-dasharray:none"
       d="m 36.3638,34.180988 h 1.653384 v 2.992837 H 36.3638 Z" />
    <path
       style="fill:none;stroke:#000000;stroke-width:1;stroke-linecap:butt;stroke-linejoin:miter;stroke-miterlimit:4;stroke-dasharray:none;stroke-opacity:1"
       d="m 36.611719,35.71875 c 3.96875,0 3.96875,0 3.96875,0"
       id="path2344" />
    <path
       style="fill:none;stroke:#000000;stroke-width:1;stroke-linecap:butt;stroke-linejoin:miter;stroke-miterlimit:4;stroke-dasharray:none;stroke-opacity:1"
       d="m 36.860985,32.159898 c 3.900166,0.734632 3.900166,0.734632 3.900166,0.734632"
       id="path2344-5" />
    <path
       style="fill:none;stroke:#000000;stroke-width:1;stroke-linecap:butt;stroke-linejoin:miter;stroke-miterlimit:4;stroke-dasharray:none;stroke-opacity:1"
       d="m 36.892151,39.184645 c 3.90398,-0.714082 3.90398,-0.714082 3.90398,-0.714082"
       id="path2344-9" />
    <path
       style="fill:none;stroke:#000000;stroke-width:1;stroke-linecap:butt;stroke-linejoin:miter;stroke-miterlimit:4;stroke-dasharray:none;stroke-opacity:1"
       d="m 66.274517,32.703386 c 3.90398,-0.714082 3.90398,-0.714082 3.90398,-0.714082"
       id="path2344-9-8" />
    <path
       style="fill:none;stroke:#000000;stroke-width:1;stroke-linecap:butt;stroke-linejoin:miter;stroke-miterlimit:4;stroke-dasharray:none;stroke-opacity:1"
       d="m 66.23091,38.672425 c 3.900166,0.734632 3.900166,0.734632 3.900166,0.734632"
       id="path2344-5-5" />
    <path
       id="rect2457"
       style="fill:#ffffff;stroke:#ffffff;stroke-width:1;stroke-linecap:round;stroke-miterlimit:4;stroke-dasharray:none;stroke-opacity:1"
       d="m 69.363129,33.500565 h 1.648718 v 4.034099 h -1.648718 z" />
    <path
       id="rect2459"
       style="fill:#ffffff;stroke:#ffffff;stroke-width:1;stroke-linecap:round;stroke-miterlimit:4;stroke-dasharray:none;stroke-opacity:1"
       transform="rotate(16.098108)"
       d="m 76.812088,16.622734 h 1.333007 v 0.678196 h -1.333007 z" />
    <path
       id="rect2459-5"
       style="fill:#ffffff;stroke:#ffffff;stroke-width:1;stroke-linecap:round;stroke-miterlimit:4;stroke-dasharray:none;stroke-opacity:1"
       transform="rotate(-13.730694)"
       d="m 57.121651,49.916115 h 1.333007 v 0.678196 h -1.333007 z" />
    <path
       id="rect2459-9"
       style="fill:#ffffff;stroke:#ffffff;stroke-width:1;stroke-linecap:round;stroke-miterlimit:4;stroke-dasharray:none;stroke-opacity:1"
       transform="rotate(-7.8251684)"
       d="m 64.004517,42.411335 h 1.333006 v 0.678196 h -1.333006 z" />
    <path
       id="rect2521"
       style="fill:#ffffff;stroke:#ffffff;stroke-width:0.84869;stroke-linecap:round;stroke-miterlimit:4;stroke-dasharray:none;stroke-opacity:1"
       d="m 66.070168,41.662365 h 11.792976 v 3.260164 H 66.070168 Z" />
    <g
       aria-label="WARM"
       id="text2497"
       style="font-size:3.29433px;line-height:1.25;font-family:'MS 33558';-inkscape-font-specification:'MS 33558, Normal';stroke-width:0.264583">
      <path
         d="m 67.966718,41.966435 0.562995,1.923837 0.376403,-1.923837 q 0.06756,-0.217156 0.263804,-0.176942 0.197853,0.04021 0.181767,0.262195 l -0.556561,2.840716 q -0.05147,0.178551 -0.210722,0.184985 -0.157638,0.0064 -0.228415,-0.162465 l -0.608035,-2.075042 -0.60321,2.075042 q -0.07399,0.173725 -0.226807,0.162465 -0.152813,-0.01126 -0.215547,-0.184985 l -0.556562,-2.840716 q 0,-0.230024 0.183376,-0.263803 0.183376,-0.03539 0.267021,0.17855 l 0.371577,1.927054 0.562996,-1.927054 q 0.06917,-0.159248 0.220373,-0.164073 0.152813,-0.0048 0.215547,0.164073 z"
         style="stroke-width:0.264583"
         id="path2711" />
      <path
         d="m 71.405818,44.020565 -0.489002,-1.35119 -0.49222,1.35119 z m -0.489002,-1.35119 0.489002,1.35119 z m -1.241808,2.097562 q 0.257369,-0.709375 0.514739,-1.417141 0.258978,-0.709375 0.517956,-1.41875 0.05308,-0.146379 0.210721,-0.147987 0.157639,-0.0016 0.21233,0.147987 l 1.031087,2.843934 q 0.04826,0.226806 -0.138336,0.292757 -0.186593,0.06595 -0.287933,-0.135119 L 71.569891,44.47257 h -1.310976 l -0.160856,0.448788 q -0.102948,0.202679 -0.292758,0.133511 -0.18981,-0.07078 -0.130293,-0.287932 z"
         style="stroke-width:0.264583"
         id="path2713" />
      <path
         d="m 74.510338,44.728331 q 0.102947,0.181768 -0.05791,0.305627 -0.07721,0.05469 -0.17855,0.037 -0.09973,-0.01769 -0.146379,-0.09973 l -0.793019,-1.253068 h -0.40214 v 1.132426 q 0,0.139945 -0.127077,0.202678 -0.127076,0.06113 -0.238066,-0.02413 -0.08847,-0.06595 -0.08847,-0.17855 v -2.842325 q 0,-0.0933 0.06434,-0.159247 0.06595,-0.06595 0.160856,-0.06595 h 0.998916 q 0.360317,0 0.625729,0.230024 0.265413,0.228415 0.329755,0.58069 0.06756,0.378011 -0.160856,0.707766 -0.226807,0.328146 -0.60321,0.398923 l -0.03056,0.0048 z m -0.807497,-1.46218 q 0.164073,0 0.302409,-0.09973 0.139945,-0.09973 0.188201,-0.260587 0.0756,-0.247718 -0.06917,-0.447179 -0.14477,-0.20107 -0.398923,-0.221981 h -0.793019 v 1.029478 z"
         style="stroke-width:0.264583"
         id="path2715" />
      <path
         d="m 77.499042,44.85219 q -0.03539,0.225199 -0.228416,0.225199 -0.191418,-0.0016 -0.225198,-0.225199 V 42.8431 l -0.551736,0.944224 q -0.08847,0.106165 -0.197853,0.110991 -0.107773,0.0048 -0.193027,-0.110991 l -0.548519,-0.939399 0.0016,2.004265 q -0.02574,0.22359 -0.233241,0.22359 -0.205896,-0.0016 -0.221982,-0.22359 v -2.840716 q 0.01287,-0.184984 0.162465,-0.220372 0.149596,-0.037 0.260587,0.101339 l 0.773717,1.330279 0.78176,-1.330279 q 0.11099,-0.138336 0.257369,-0.101339 0.147988,0.037 0.162465,0.220372 z"
         style="stroke-width:0.264583"
         id="path2717" />
    </g>
    <g
       aria-label="WARM"
       id="text2501"
       style="font-size:3.29433px;line-height:1.25;font-family:'MS 33558';-inkscape-font-specification:'MS 33558, Normal';stroke-width:0.264583">
      <path
         d="m 67.966718,26.2568 0.562995,1.923837 0.376403,-1.923837 q 0.06756,-0.217156 0.263804,-0.176942 0.197853,0.04021 0.181767,0.262196 l -0.556561,2.840716 q -0.05147,0.17855 -0.210722,0.184984 -0.157638,0.0064 -0.228415,-0.162465 l -0.608035,-2.075041 -0.60321,2.075041 q -0.07399,0.173725 -0.226807,0.162465 -0.152813,-0.01126 -0.215547,-0.184984 l -0.556562,-2.840716 q 0,-0.230024 0.183376,-0.263804 0.183376,-0.03539 0.267021,0.17855 l 0.371577,1.927054 0.562996,-1.927054 q 0.06917,-0.159248 0.220373,-0.164073 0.152813,-0.0048 0.215547,0.164073 z"
         style="stroke-width:0.264583"
         id="path2702" />
      <path
         d="m 71.405818,28.31093 -0.489002,-1.35119 -0.49222,1.35119 z m -0.489002,-1.35119 0.489002,1.35119 z m -1.241808,2.097562 q 0.257369,-0.709375 0.514739,-1.417141 0.258978,-0.709375 0.517956,-1.418749 0.05308,-0.146379 0.210721,-0.147988 0.157639,-0.0016 0.21233,0.147988 l 1.031087,2.843933 q 0.04826,0.226807 -0.138336,0.292758 -0.186593,0.06595 -0.287933,-0.135119 l -0.165681,-0.460048 h -1.310976 l -0.160856,0.448788 q -0.102948,0.202678 -0.292758,0.13351 -0.18981,-0.07078 -0.130293,-0.287932 z"
         style="stroke-width:0.264583"
         id="path2704" />
      <path
         d="m 74.510338,29.018697 q 0.102947,0.181767 -0.05791,0.305626 -0.07721,0.05469 -0.17855,0.037 -0.09973,-0.01769 -0.146379,-0.09973 l -0.793019,-1.253068 h -0.40214 v 1.132426 q 0,0.139945 -0.127077,0.202679 -0.127076,0.06113 -0.238066,-0.02413 -0.08847,-0.06595 -0.08847,-0.17855 v -2.842325 q 0,-0.0933 0.06434,-0.159247 0.06595,-0.06595 0.160856,-0.06595 h 0.998916 q 0.360317,0 0.625729,0.230024 0.265413,0.228416 0.329755,0.58069 0.06756,0.378012 -0.160856,0.707766 -0.226807,0.328146 -0.60321,0.398923 l -0.03056,0.0048 z m -0.807497,-1.462181 q 0.164073,0 0.302409,-0.09973 0.139945,-0.09973 0.188201,-0.260586 0.0756,-0.247719 -0.06917,-0.44718 -0.14477,-0.20107 -0.398923,-0.221981 h -0.793019 v 1.029478 z"
         style="stroke-width:0.264583"
         id="path2706" />
      <path
         d="m 77.499042,29.142556 q -0.03539,0.225198 -0.228416,0.225198 -0.191418,-0.0016 -0.225198,-0.225198 v -2.009091 l -0.551736,0.944224 q -0.08847,0.106165 -0.197853,0.110991 -0.107773,0.0048 -0.193027,-0.110991 l -0.548519,-0.939399 0.0016,2.004266 q -0.02574,0.223589 -0.233241,0.223589 -0.205896,-0.0016 -0.221982,-0.223589 V 26.30184 q 0.01287,-0.184985 0.162465,-0.220373 0.149596,-0.037 0.260587,0.101339 l 0.773717,1.330279 0.78176,-1.330279 q 0.11099,-0.138336 0.257369,-0.101339 0.147988,0.037 0.162465,0.220373 z"
         style="stroke-width:0.264583"
         id="path2708" />
    </g>
    <path
       id="rect2521-2-0"
       style="fill:#ffffff;stroke:#ffffff;stroke-width:0.824817;stroke-linecap:round;stroke-miterlimit:4;stroke-dasharray:none;stroke-opacity:1"
       d="m 48.265011,17.143398 h 10.427788 v 3.482475 H 48.265011 Z" />
    <g
       aria-label="AUTO"
       id="text2505"
       style="font-size:3.29433px;line-height:1.25;font-family:'MS 33558';-inkscape-font-specification:'MS 33558, Normal';stroke-width:0.264583">
      <path
         d="m 50.160821,19.448383 -0.489002,-1.35119 -0.49222,1.35119 z m -0.489002,-1.35119 0.489002,1.35119 z m -1.241808,2.097562 q 0.257369,-0.709375 0.514739,-1.417141 0.258978,-0.709375 0.517956,-1.418749 0.05308,-0.146379 0.210721,-0.147988 0.157639,-0.0016 0.21233,0.147988 l 1.031087,2.843933 q 0.04826,0.226807 -0.138336,0.292758 -0.186593,0.06595 -0.287933,-0.135119 l -0.165681,-0.460048 h -1.310976 l -0.160856,0.448788 q -0.102948,0.202678 -0.292758,0.13351 -0.18981,-0.07078 -0.130293,-0.287932 z"
         style="stroke-width:0.264583"
         id="path2692" />
      <path
         d="m 53.402068,19.419429 v 0.03217 q -0.0048,0.08043 -0.0064,0.09651 -0.06756,0.492219 -0.403749,0.727069 -0.336189,0.233241 -0.717417,0.218764 -0.381229,-0.01609 -0.698115,-0.278281 -0.315278,-0.262195 -0.342623,-0.764065 v -0.03217 -1.983353 q 0,-0.04826 0.01769,-0.08686 0.07721,-0.168898 0.255761,-0.13351 0.180159,0.03539 0.180159,0.220373 v 1.983353 q 0.02413,0.369969 0.324929,0.553345 0.302409,0.183376 0.635381,-0.01609 0.149596,-0.08847 0.218764,-0.228415 0.07078,-0.139945 0.08364,-0.308844 v -1.983353 q 0,-0.02895 0.0032,-0.04343 0.037,-0.197852 0.242892,-0.17855 0.205896,0.0193 0.205896,0.221982 z"
         style="stroke-width:0.264583"
         id="path2694" />
      <path
         d="m 54.610096,20.280009 v -2.615518 h -0.590341 q -0.225198,-0.01769 -0.225198,-0.225198 0.0016,-0.209113 0.225198,-0.228416 h 1.632688 q 0.221981,0.01769 0.221981,0.228416 0.0016,0.209112 -0.221981,0.225198 H 55.06371 v 2.615518 q -0.037,0.228415 -0.238067,0.225198 -0.199461,-0.0032 -0.215547,-0.225198 z"
         style="stroke-width:0.264583"
         id="path2696" />
      <path
         d="m 58.494768,18.158319 q 0.147987,0.445571 0.11099,0.924921 -0.03539,0.479351 -0.262195,0.875057 -0.143162,0.246109 -0.39088,0.418225 -0.247718,0.172116 -0.54691,0.120642 -0.487394,-0.08525 -0.746372,-0.508305 -0.258978,-0.423051 -0.297583,-0.941007 -0.037,-0.519565 0.139944,-1.011784 0.17855,-0.492219 0.567822,-0.715809 0.18981,-0.109382 0.397314,-0.109382 0.395706,0 0.646641,0.299192 0.250935,0.297584 0.381229,0.64825 z m -1.015002,-0.490611 q -0.295974,0 -0.448788,0.318495 -0.151204,0.318495 -0.191418,0.543693 -0.03056,0.164073 -0.02252,0.397314 0.008,0.233241 0.06756,0.461657 0.05952,0.226807 0.178551,0.410182 0.119033,0.181768 0.31206,0.241284 0.225198,0.07078 0.387663,-0.08847 0.164073,-0.160856 0.247718,-0.341015 0.08525,-0.184984 0.115816,-0.485785 0.03217,-0.300801 -0.01448,-0.599993 -0.04504,-0.3008 -0.17855,-0.540476 -0.13351,-0.241284 -0.37962,-0.307235 -0.03217,-0.0097 -0.07399,-0.0097 z"
         style="stroke-width:0.264583"
         id="path2698" />
    </g>
    <path
       id="rect2521-2-0-5"
       style="fill:#ffffff;stroke:#ffffff;stroke-width:0.824817;stroke-linecap:round;stroke-miterlimit:4;stroke-dasharray:none;stroke-opacity:1"
       d="m 32.092354,25.973867 h 10.427789 v 3.482475 H 32.092354 Z" />
    <g
       aria-label="COOL"
       id="text2509"
       style="font-size:3.29433px;line-height:1.25;font-family:'MS 33558';-inkscape-font-specification:'MS 33558, Normal';stroke-width:0.264583">
      <path
         d="m 34.317918,28.854478 -0.01448,0.02091 q -0.0048,0.0064 -0.008,0.01126 -0.0032,0.0048 -0.0064,0.0097 -0.220372,0.297584 -0.579081,0.42466 -0.3571,0.125468 -0.704549,-0.04665 -0.403749,-0.20107 -0.593559,-0.682029 -0.188201,-0.48096 -0.162464,-0.998916 0.02735,-0.519565 0.273455,-0.953876 0.247718,-0.434311 0.717418,-0.543693 0.270238,-0.06273 0.538867,0.05308 0.268629,0.114208 0.440745,0.321712 0.0016,0 0.008,0.01126 0.07399,0.09651 0.03056,0.212329 -0.04343,0.114208 -0.159248,0.143162 -0.123859,0.03217 -0.228415,-0.07399 -0.215547,-0.250936 -0.415008,-0.241284 -0.199462,0.0097 -0.357101,0.164073 -0.157639,0.154421 -0.262195,0.395705 -0.104556,0.241284 -0.128685,0.452006 -0.02895,0.234849 0.0048,0.472916 0.03539,0.236458 0.146379,0.445571 0.193027,0.366752 0.485785,0.460048 0.294366,0.09169 0.574256,-0.281498 0.01287,-0.01609 0.03056,-0.04182 0.151205,-0.167291 0.318495,-0.03378 0.168899,0.131902 0.04986,0.299192 z"
         style="stroke-width:0.264583"
         id="path2682" />
      <path
         d="m 36.906091,27.022329 q 0.147987,0.445571 0.11099,0.924921 -0.03539,0.479351 -0.262195,0.875057 -0.143162,0.246109 -0.39088,0.418225 -0.247718,0.172116 -0.54691,0.120642 -0.487394,-0.08525 -0.746372,-0.508305 -0.258978,-0.423051 -0.297583,-0.941007 -0.037,-0.519565 0.139944,-1.011784 0.17855,-0.492219 0.567822,-0.715809 0.18981,-0.109382 0.397314,-0.109382 0.395706,0 0.646641,0.299192 0.250935,0.297584 0.381229,0.64825 z M 35.89109,26.531718 q -0.295975,0 -0.448789,0.318495 -0.151204,0.318495 -0.191418,0.543693 -0.03056,0.164073 -0.02252,0.397314 0.008,0.233241 0.06756,0.461657 0.05952,0.226807 0.17855,0.410182 0.119033,0.181768 0.31206,0.241284 0.225199,0.07078 0.387663,-0.08847 0.164073,-0.160856 0.247718,-0.341014 0.08525,-0.184985 0.115816,-0.485785 0.03217,-0.300801 -0.01448,-0.599993 -0.04504,-0.3008 -0.17855,-0.540476 -0.13351,-0.241284 -0.37962,-0.307235 -0.03217,-0.0097 -0.07399,-0.0097 z"
         style="stroke-width:0.264583"
         id="path2684" />
      <path
         d="m 39.589168,27.022329 q 0.147987,0.445571 0.110991,0.924921 -0.03539,0.479351 -0.262196,0.875057 -0.143161,0.246109 -0.39088,0.418225 -0.247718,0.172116 -0.54691,0.120642 -0.487393,-0.08525 -0.746371,-0.508305 -0.258979,-0.423051 -0.297584,-0.941007 -0.037,-0.519565 0.139945,-1.011784 0.17855,-0.492219 0.567821,-0.715809 0.18981,-0.109382 0.397314,-0.109382 0.395706,0 0.646641,0.299192 0.250936,0.297584 0.381229,0.64825 z m -1.015001,-0.490611 q -0.295975,0 -0.448788,0.318495 -0.151205,0.318495 -0.191419,0.543693 -0.03056,0.164073 -0.02252,0.397314 0.008,0.233241 0.06756,0.461657 0.05952,0.226807 0.17855,0.410182 0.119033,0.181768 0.312061,0.241284 0.225198,0.07078 0.387662,-0.08847 0.164073,-0.160856 0.247719,-0.341014 0.08525,-0.184985 0.115816,-0.485785 0.03217,-0.300801 -0.01448,-0.599993 -0.04504,-0.3008 -0.17855,-0.540476 -0.133511,-0.241284 -0.37962,-0.307235 -0.03217,-0.0097 -0.07399,-0.0097 z"
         style="stroke-width:0.264583"
         id="path2686" />
      <path
         d="m 40.361277,29.370825 q -0.197853,-0.01287 -0.228416,-0.223589 v -2.843934 q 0.03378,-0.231632 0.23485,-0.226806 0.20107,0.0032 0.218764,0.226806 v 2.618735 l 1.4847,-0.0016 q 0.228416,0.02574 0.225199,0.231632 -0.0016,0.204287 -0.226807,0.218764 z"
         style="stroke-width:0.264583"
         id="path2688" />
    </g>
    <path
       id="rect2521-2-0-5-5"
       style="fill:#ffffff;stroke:#ffffff;stroke-width:0.824817;stroke-linecap:round;stroke-miterlimit:4;stroke-dasharray:none;stroke-opacity:1"
       d="m 32.423084,41.650429 h 10.42779 v 3.482474 h -10.42779 z" />
    <g
       aria-label="COOL"
       id="text2513"
       style="font-size:3.29433px;line-height:1.25;font-family:'MS 33558';-inkscape-font-specification:'MS 33558, Normal';stroke-width:0.264583">
      <path
         d="m 34.317918,44.564111 -0.01448,0.02091 q -0.0048,0.0064 -0.008,0.01126 -0.0032,0.0048 -0.0064,0.0097 -0.220372,0.297584 -0.579081,0.42466 -0.3571,0.125468 -0.704549,-0.04665 -0.403749,-0.20107 -0.593559,-0.682029 -0.188201,-0.48096 -0.162464,-0.998916 0.02735,-0.519565 0.273455,-0.953876 0.247718,-0.434311 0.717418,-0.543693 0.270238,-0.06273 0.538867,0.05308 0.268629,0.114207 0.440745,0.321712 0.0016,0 0.008,0.01126 0.07399,0.09651 0.03056,0.21233 -0.04343,0.114208 -0.159248,0.143162 -0.123859,0.03217 -0.228415,-0.07399 -0.215547,-0.250935 -0.415008,-0.241284 -0.199462,0.0097 -0.357101,0.164074 -0.157639,0.154421 -0.262195,0.395705 -0.104556,0.241284 -0.128685,0.452005 -0.02895,0.23485 0.0048,0.472917 0.03539,0.236458 0.146379,0.445571 0.193027,0.366751 0.485785,0.460048 0.294366,0.09169 0.574256,-0.281498 0.01287,-0.01609 0.03056,-0.04182 0.151205,-0.16729 0.318495,-0.03378 0.168899,0.131902 0.04986,0.299192 z"
         style="stroke-width:0.264583"
         id="path2672" />
      <path
         d="m 36.906091,42.731961 q 0.147987,0.445571 0.11099,0.924922 -0.03539,0.479351 -0.262195,0.875057 -0.143162,0.246109 -0.39088,0.418225 -0.247718,0.172116 -0.54691,0.120642 -0.487394,-0.08525 -0.746372,-0.508305 -0.258978,-0.423051 -0.297583,-0.941007 -0.037,-0.519565 0.139944,-1.011784 0.17855,-0.492219 0.567822,-0.715809 0.18981,-0.109382 0.397314,-0.109382 0.395706,0 0.646641,0.299192 0.250935,0.297583 0.381229,0.648249 z m -1.015001,-0.49061 q -0.295975,0 -0.448789,0.318495 -0.151204,0.318494 -0.191418,0.543693 -0.03056,0.164073 -0.02252,0.397314 0.008,0.233241 0.06756,0.461656 0.05952,0.226807 0.17855,0.410183 0.119033,0.181767 0.31206,0.241284 0.225199,0.07078 0.387663,-0.08847 0.164073,-0.160856 0.247718,-0.341014 0.08525,-0.184985 0.115816,-0.485785 0.03217,-0.300801 -0.01448,-0.599993 -0.04504,-0.300801 -0.17855,-0.540476 -0.13351,-0.241284 -0.37962,-0.307235 -0.03217,-0.0097 -0.07399,-0.0097 z"
         style="stroke-width:0.264583"
         id="path2674" />
      <path
         d="m 39.589168,42.731961 q 0.147987,0.445571 0.110991,0.924922 -0.03539,0.479351 -0.262196,0.875057 -0.143161,0.246109 -0.39088,0.418225 -0.247718,0.172116 -0.54691,0.120642 -0.487393,-0.08525 -0.746371,-0.508305 -0.258979,-0.423051 -0.297584,-0.941007 -0.037,-0.519565 0.139945,-1.011784 0.17855,-0.492219 0.567821,-0.715809 0.18981,-0.109382 0.397314,-0.109382 0.395706,0 0.646641,0.299192 0.250936,0.297583 0.381229,0.648249 z m -1.015001,-0.49061 q -0.295975,0 -0.448788,0.318495 -0.151205,0.318494 -0.191419,0.543693 -0.03056,0.164073 -0.02252,0.397314 0.008,0.233241 0.06756,0.461656 0.05952,0.226807 0.17855,0.410183 0.119033,0.181767 0.312061,0.241284 0.225198,0.07078 0.387662,-0.08847 0.164073,-0.160856 0.247719,-0.341014 0.08525,-0.184985 0.115816,-0.485785 0.03217,-0.300801 -0.01448,-0.599993 -0.04504,-0.300801 -0.17855,-0.540476 -0.133511,-0.241284 -0.37962,-0.307235 -0.03217,-0.0097 -0.07399,-0.0097 z"
         style="stroke-width:0.264583"
         id="path2676" />
      <path
         d="m 40.361277,45.080458 q -0.197853,-0.01287 -0.228416,-0.223589 v -2.843934 q 0.03378,-0.231632 0.23485,-0.226807 0.20107,0.0032 0.218764,0.226807 v 2.618735 l 1.4847,-0.0016 q 0.228416,0.02574 0.225199,0.231632 -0.0016,0.204287 -0.226807,0.218764 z"
         style="stroke-width:0.264583"
         id="path2678" />
    </g>
    <g
       aria-label="TEMP
OFF"
       id="text2517"
       style="font-size:3.29433px;line-height:1.25;font-family:'MS 33558';-inkscape-font-specification:'MS 33558, Normal';text-align:center;text-anchor:middle;stroke-width:0.264583">
      <path
         d="M 26.781282,35.361258 V 32.74574 H 26.19094 q -0.225198,-0.01769 -0.225198,-0.225198 0.0016,-0.209113 0.225198,-0.228416 h 1.632688 q 0.221981,0.01769 0.221981,0.228416 0.0016,0.209113 -0.221981,0.225198 h -0.588733 v 2.615518 q -0.037,0.228415 -0.238066,0.225198 -0.199462,-0.0032 -0.215547,-0.225198 z"
         style="text-align:center;text-anchor:middle;stroke-width:0.264583"
         id="path2657" />
      <path
         d="m 30.31207,32.740915 h -1.333496 v 0.879882 h 1.01661 q 0.228415,0.03378 0.226806,0.230024 0,0.194635 -0.226806,0.226806 h -1.01661 v 1.056824 h 1.333496 q 0.226807,0.03378 0.226807,0.226807 0,0.193027 -0.226807,0.225198 h -1.557086 q -0.20107,-0.02574 -0.228415,-0.228415 v -2.840716 q 0.03056,-0.21233 0.228415,-0.225199 h 1.557086 q 0.226807,0.01769 0.225198,0.226807 0,0.207504 -0.225198,0.221982 z"
         style="text-align:center;text-anchor:middle;stroke-width:0.264583"
         id="path2659" />
      <path
         d="m 33.384418,35.361258 q -0.03539,0.225198 -0.228415,0.225198 -0.191419,-0.0016 -0.225198,-0.225198 v -2.009091 l -0.551736,0.944225 q -0.08847,0.106164 -0.197853,0.11099 -0.107774,0.0048 -0.193027,-0.11099 l -0.548519,-0.939399 0.0016,2.004265 q -0.02574,0.22359 -0.233241,0.22359 -0.205895,-0.0016 -0.221981,-0.22359 v -2.840716 q 0.01287,-0.184984 0.162465,-0.220373 0.149596,-0.037 0.260586,0.101339 l 0.773717,1.330279 0.78176,-1.330279 q 0.110991,-0.138336 0.25737,-0.101339 0.147987,0.037 0.162464,0.220373 z"
         style="text-align:center;text-anchor:middle;stroke-width:0.264583"
         id="path2661" />
      <path
         d="m 35.007455,32.292126 h 0.03056 q 0.205896,0.01448 0.37962,0.0933 0.332972,0.15603 0.471308,0.51313 0.138336,0.357101 -0.0032,0.696507 -0.114208,0.268629 -0.337797,0.421442 -0.22359,0.151205 -0.509914,0.168899 l -0.03056,0.0016 h -0.78176 v 1.172639 q -0.02895,0.226807 -0.228416,0.226807 -0.199461,0 -0.226807,-0.226807 v -2.842324 q 0.02413,-0.199462 0.21233,-0.225199 h 0.01448 z m 0,0.453614 h -0.78176 v 0.986047 h 0.78176 q 0.183375,0 0.32332,-0.12225 0.141553,-0.122251 0.165682,-0.305627 0.02895,-0.221981 -0.119034,-0.389271 -0.147987,-0.168899 -0.369968,-0.168899 z"
         style="text-align:center;text-anchor:middle;stroke-width:0.264583"
         id="path2663" />
      <path
         d="m 29.527897,37.35748 q 0.147987,0.445571 0.110991,0.924922 -0.03539,0.479351 -0.262196,0.875056 -0.143161,0.24611 -0.39088,0.418226 -0.247718,0.172116 -0.54691,0.120642 -0.487393,-0.08525 -0.746371,-0.508305 -0.258979,-0.423051 -0.297584,-0.941007 -0.037,-0.519565 0.139945,-1.011784 0.17855,-0.492219 0.567821,-0.715809 0.18981,-0.109382 0.397314,-0.109382 0.395706,0 0.646641,0.299192 0.250936,0.297583 0.381229,0.648249 z m -1.015001,-0.49061 q -0.295975,0 -0.448788,0.318494 -0.151205,0.318495 -0.191419,0.543694 -0.03056,0.164073 -0.02252,0.397314 0.008,0.233241 0.06756,0.461656 0.05952,0.226807 0.17855,0.410183 0.119033,0.181767 0.312061,0.241284 0.225198,0.07078 0.387662,-0.08847 0.164073,-0.160856 0.247719,-0.341014 0.08525,-0.184985 0.115816,-0.485785 0.03217,-0.300801 -0.01448,-0.599993 -0.04504,-0.300801 -0.17855,-0.540476 -0.133511,-0.241284 -0.37962,-0.307235 -0.03217,-0.0097 -0.07399,-0.0097 z"
         style="text-align:center;text-anchor:middle;stroke-width:0.264583"
         id="path2665" />
      <path
         d="m 30.07159,39.475953 v -2.837499 q 0.02895,-0.21233 0.228416,-0.228415 h 1.557085 q 0.22359,0.01769 0.22359,0.228415 0,0.209113 -0.226807,0.22359 h -1.330279 v 0.879882 h 1.037521 q 0.221981,0.01609 0.225199,0.217156 0.0032,0.20107 -0.225199,0.234849 h -1.037521 v 1.282022 q -0.01609,0.221981 -0.218764,0.225199 -0.20107,0.0032 -0.233241,-0.225199 z"
         style="text-align:center;text-anchor:middle;stroke-width:0.264583"
         id="path2667" />
      <path
         d="m 32.531078,39.475953 v -2.837499 q 0.02895,-0.21233 0.228415,-0.228415 h 1.557086 q 0.223589,0.01769 0.223589,0.228415 0,0.209113 -0.226806,0.22359 h -1.330279 v 0.879882 h 1.037521 q 0.221981,0.01609 0.225198,0.217156 0.0032,0.20107 -0.225198,0.234849 h -1.037521 v 1.282022 q -0.01609,0.221981 -0.218764,0.225199 -0.20107,0.0032 -0.233241,-0.225199 z"
         style="text-align:center;text-anchor:middle;stroke-width:0.264583"
         id="path2669" />
    </g>
    <path
       id="rect2521-2-0-5-5-4"
       style="fill:#ffffff;stroke:#ffffff;stroke-width:0.700175;stroke-linecap:round;stroke-miterlimit:4;stroke-dasharray:none;stroke-opacity:1"
       d="m 49.227951,50.253212 h 8.501912 v 3.07795 h -8.501912 z" />
    <g
       aria-label="MAN"
       id="text2493"
       style="font-size:3.29433px;line-height:1.25;font-family:'MS 33558';-inkscape-font-specification:'MS 33558, Normal';stroke-width:0.264583">
      <path
         d="m 52.002435,53.28678 q -0.03539,0.225198 -0.228416,0.225198 -0.191418,-0.0016 -0.225198,-0.225198 v -2.009091 l -0.551736,0.944224 q -0.08847,0.106165 -0.197853,0.110991 -0.107773,0.0048 -0.193027,-0.110991 l -0.548519,-0.939398 0.0016,2.004265 q -0.02574,0.22359 -0.233241,0.22359 -0.205896,-0.0016 -0.221981,-0.22359 v -2.840716 q 0.01287,-0.184985 0.162464,-0.220373 0.149596,-0.037 0.260587,0.101339 l 0.773717,1.330279 0.78176,-1.330279 q 0.11099,-0.138336 0.257369,-0.101339 0.147988,0.037 0.162465,0.220373 z"
         style="stroke-width:0.264583"
         id="path2649" />
      <path
         d="m 54.130559,52.455155 -0.489002,-1.35119 -0.492219,1.35119 z m -0.489002,-1.35119 0.489002,1.35119 z m -1.241808,2.097561 q 0.257369,-0.709375 0.514739,-1.417141 0.258978,-0.709375 0.517956,-1.418749 0.05308,-0.146379 0.210721,-0.147988 0.157639,-0.0016 0.21233,0.147988 l 1.031087,2.843933 q 0.04826,0.226807 -0.138336,0.292758 -0.186593,0.06595 -0.287932,-0.135119 L 54.294632,52.90716 H 52.983656 L 52.8228,53.355948 q -0.102948,0.202678 -0.292758,0.13351 -0.18981,-0.07078 -0.130293,-0.287932 z"
         style="stroke-width:0.264583"
         id="path2651" />
      <path
         d="m 57.424889,53.289997 q 0,0.168899 -0.164073,0.215547 -0.162465,0.04504 -0.252544,-0.09651 l -1.35119,-2.166729 v 2.047696 q -0.03539,0.225198 -0.228415,0.225198 -0.191419,0 -0.225199,-0.225198 v -2.840716 q 0.02413,-0.16729 0.170508,-0.220373 0.147987,-0.05308 0.246109,0.09973 l 1.35119,2.169947 v -2.049305 q 0.03056,-0.230024 0.233241,-0.226807 0.204287,0.0016 0.220373,0.226807 z"
         style="stroke-width:0.264583"
         id="path2653" />
    </g>
    <path
       id="path2598"
       style="fill:#ffffff;stroke:#ffffff;stroke-width:1;stroke-linecap:round;stroke-miterlimit:4;stroke-dasharray:none;stroke-opacity:1"
       d="m 123.95728,35.652603 a 4.4317708,4.4317708 0 0 1 -4.43177,4.431771 4.4317708,4.4317708 0 0 1 -4.43177,-4.431771 4.4317708,4.4317708 0 0 1 4.43177,-4.431771 4.4317708,4.4317708 0 0 1 4.43177,4.431771 z" />
    <g
       aria-label="OFF"
       id="text2602"
       style="font-size:3.29433px;line-height:1.25;font-family:'MS 33558';-inkscape-font-specification:'MS 33558, Normal';stroke-width:0.264583">
      <path
         d="m 91.700839,42.301549 q 0.147987,0.445571 0.110991,0.924922 -0.03539,0.479351 -0.262196,0.875056 -0.143161,0.24611 -0.39088,0.418226 -0.247718,0.172116 -0.54691,0.120642 -0.487393,-0.08525 -0.746371,-0.508305 -0.258979,-0.423051 -0.297584,-0.941007 -0.037,-0.519565 0.139945,-1.011784 0.17855,-0.49222 0.567821,-0.715809 0.18981,-0.109382 0.397314,-0.109382 0.395706,0 0.646641,0.299192 0.250936,0.297583 0.381229,0.648249 z m -1.015001,-0.49061 q -0.295975,0 -0.448788,0.318494 -0.151205,0.318495 -0.191419,0.543693 -0.03056,0.164073 -0.02252,0.397315 0.008,0.233241 0.06756,0.461656 0.05952,0.226807 0.17855,0.410183 0.119033,0.181767 0.312061,0.241284 0.225198,0.07078 0.387662,-0.08847 0.164073,-0.160856 0.247719,-0.341015 0.08525,-0.184984 0.115816,-0.485785 0.03217,-0.3008 -0.01448,-0.599992 -0.04504,-0.300801 -0.17855,-0.540476 -0.133511,-0.241284 -0.37962,-0.307235 -0.03217,-0.0097 -0.07399,-0.0097 z"
         style="stroke-width:0.264583"
         id="path2641" />
      <path
         d="m 92.244532,44.420022 v -2.837499 q 0.02895,-0.21233 0.228416,-0.228415 h 1.557085 q 0.22359,0.01769 0.22359,0.228415 0,0.209113 -0.226807,0.22359 h -1.330279 v 0.879882 h 1.037521 q 0.221981,0.01609 0.225199,0.217155 0.0032,0.20107 -0.225199,0.23485 h -1.037521 v 1.282022 q -0.01609,0.221981 -0.218764,0.225198 -0.20107,0.0032 -0.233241,-0.225198 z"
         style="stroke-width:0.264583"
         id="path2643" />
      <path
         d="m 94.70402,44.420022 v -2.837499 q 0.02895,-0.21233 0.228415,-0.228415 h 1.557086 q 0.223589,0.01769 0.223589,0.228415 0,0.209113 -0.226807,0.22359 h -1.330278 v 0.879882 h 1.037521 q 0.221981,0.01609 0.225198,0.217155 0.0032,0.20107 -0.225198,0.23485 h -1.037521 v 1.282022 q -0.01609,0.221981 -0.218764,0.225198 -0.20107,0.0032 -0.233241,-0.225198 z"
         style="stroke-width:0.264583"
         id="path2645" />
    </g>
    <g
       aria-label="NORM"
       id="text2606"
       style="font-size:3.29433px;line-height:1.25;font-family:'MS 33558';-inkscape-font-specification:'MS 33558, Normal';stroke-width:0.264583">
      <path
         d="m 88.541733,28.286875 q 0,0.168898 -0.164073,0.215547 -0.162464,0.04504 -0.252544,-0.09651 l -1.35119,-2.16673 v 2.047697 q -0.03539,0.225198 -0.228415,0.225198 -0.191419,0 -0.225199,-0.225198 v -2.840716 q 0.02413,-0.167291 0.170508,-0.220373 0.147987,-0.05308 0.246109,0.09973 l 1.35119,2.169946 v -2.049304 q 0.03056,-0.230025 0.233242,-0.226807 0.204287,0.0016 0.220372,0.226807 z"
         style="stroke-width:0.264583"
         id="path2632" />
      <path
         d="m 91.142774,26.161967 q 0.147987,0.445571 0.110991,0.924922 -0.03539,0.479351 -0.262196,0.875057 -0.143161,0.246109 -0.39088,0.418225 -0.247718,0.172116 -0.54691,0.120642 -0.487393,-0.08525 -0.746371,-0.508305 -0.258978,-0.423051 -0.297584,-0.941007 -0.037,-0.519565 0.139945,-1.011784 0.17855,-0.492219 0.567821,-0.715809 0.18981,-0.109382 0.397314,-0.109382 0.395706,0 0.646641,0.299192 0.250936,0.297584 0.381229,0.648249 z m -1.015001,-0.49061 q -0.295975,0 -0.448788,0.318495 -0.151205,0.318494 -0.191419,0.543693 -0.03056,0.164073 -0.02252,0.397314 0.008,0.233241 0.06756,0.461657 0.05952,0.226806 0.17855,0.410182 0.119033,0.181767 0.312061,0.241284 0.225198,0.07078 0.387662,-0.08847 0.164073,-0.160856 0.247719,-0.341014 0.08525,-0.184985 0.115816,-0.485785 0.03217,-0.300801 -0.01448,-0.599993 -0.04504,-0.300801 -0.17855,-0.540476 -0.133511,-0.241284 -0.37962,-0.307235 -0.03217,-0.0097 -0.07399,-0.0097 z"
         style="stroke-width:0.264583"
         id="path2634" />
      <path
         d="m 93.718078,28.159798 q 0.102948,0.181768 -0.05791,0.305627 -0.07721,0.05469 -0.17855,0.037 -0.09973,-0.01769 -0.146379,-0.09973 l -0.79302,-1.253068 h -0.40214 v 1.132426 q 0,0.139945 -0.127076,0.202678 -0.127076,0.06113 -0.238067,-0.02413 -0.08847,-0.06595 -0.08847,-0.17855 v -2.842325 q 0,-0.0933 0.06434,-0.159247 0.06595,-0.06595 0.160856,-0.06595 h 0.998915 q 0.360317,0 0.62573,0.230024 0.265412,0.228415 0.329754,0.58069 0.06756,0.378011 -0.160856,0.707766 -0.226807,0.328146 -0.603209,0.398923 l -0.03056,0.0048 z m -0.807497,-1.46218 q 0.164073,0 0.302409,-0.09973 0.139945,-0.09973 0.188202,-0.260587 0.0756,-0.247718 -0.06917,-0.447179 -0.144771,-0.20107 -0.398923,-0.221981 h -0.79302 v 1.029478 z"
         style="stroke-width:0.264583"
         id="path2636" />
      <path
         d="m 96.706781,28.283657 q -0.03539,0.225199 -0.228415,0.225199 -0.191419,-0.0016 -0.225198,-0.225199 v -2.00909 l -0.551736,0.944224 q -0.08847,0.106165 -0.197853,0.110991 -0.107774,0.0048 -0.193027,-0.110991 l -0.548519,-0.939399 0.0016,2.004265 q -0.02574,0.22359 -0.233242,0.22359 -0.205895,-0.0016 -0.221981,-0.22359 v -2.840716 q 0.01287,-0.184984 0.162465,-0.220372 0.149596,-0.037 0.260586,0.101339 l 0.773718,1.330279 0.781759,-1.330279 q 0.110991,-0.138336 0.25737,-0.101339 0.147987,0.037 0.162464,0.220372 z"
         style="stroke-width:0.264583"
         id="path2638" />
    </g>
    <g
       aria-label="DUMP"
       id="text2610"
       style="font-size:3.29433px;line-height:1.25;font-family:'MS 33558';-inkscape-font-specification:'MS 33558, Normal';stroke-width:0.264583"
       transform="translate(0,0.20507374)">
      <path
         d="m 98.980928,14.234315 h 0.757632 q 0.5646,0 0.8461,0.514739 0.2815,0.514739 0.2815,1.132426 0,0.617686 -0.28311,1.132426 -0.28149,0.514739 -0.84449,0.514739 h -0.757632 0.0032 -0.0032 q -0.05308,-0.008 -0.05791,-0.0097 -0.16729,-0.04021 -0.165682,-0.218764 h -0.0016 l 0.0016,-2.840716 q -0.0016,-0.0048 -0.0016,-0.01287 0.0048,-0.08847 0.06917,-0.149596 0.06595,-0.06273 0.157639,-0.06273 z m 0.757632,2.840716 q 0.0032,0 0.0064,0 0.0032,0 0.008,0 0.0032,0 0.0048,0 0.0032,-0.0016 0.008,-0.0016 0.0032,0 0.0064,0 0.0048,-0.0016 0.0097,-0.0016 0.0032,0 0.0064,0 0.0032,-0.0016 0.008,-0.0016 0.0032,0 0.0064,0 0.0032,-0.0016 0.008,-0.0016 0.0064,-0.0032 0.01287,-0.0032 0.0032,0 0.0064,-0.0016 0.0032,-0.0032 0.008,-0.0048 0.0032,0 0.0064,0 0.0048,-0.0016 0.0097,-0.0032 0.0032,0 0.0064,-0.0016 0.0032,-0.0016 0.008,-0.0032 0.0097,-0.0032 0.01448,-0.0064 0.02895,-0.0097 0.01609,-0.0064 0.0032,0 0.0064,-0.0016 0.0032,-0.0032 0.008,-0.0048 0.01448,-0.0097 0.01287,-0.008 0.01609,-0.008 0.01609,-0.008 0.0032,-0.0016 0.0064,-0.0032 0.0032,-0.0032 0.008,-0.0064 0.01448,-0.0097 0.01448,-0.0097 0.0032,-0.0016 0.0064,-0.0032 0.0048,-0.0032 0.0097,-0.0064 0.0032,-0.0016 0.0064,-0.0048 0.0032,-0.0032 0.008,-0.0064 0.003,-0.0016 0.006,-0.0032 0.003,-0.0032 0.008,-0.0064 0.003,-0.0032 0.0161,-0.01287 0.0129,-0.01287 0.0129,-0.01287 0.003,-0.0032 0.006,-0.0064 0.003,-0.0032 0.008,-0.008 0.003,-0.0032 0.006,-0.0064 0.003,-0.0032 0.008,-0.008 0.005,-0.0032 0.0145,-0.01287 0.003,-0.0032 0.006,-0.0064 0.003,-0.0032 0.008,-0.008 0.003,-0.0032 0.006,-0.0064 0.003,-0.0048 0.008,-0.0097 0.0193,-0.02574 0.0129,-0.01609 0.0113,-0.01126 0.0145,-0.01769 0.0145,-0.0193 0.0129,-0.01769 0.003,-0.0048 0.006,-0.008 0.003,-0.0048 0.008,-0.0097 0.003,-0.0048 0.005,-0.0097 0.003,-0.0048 0.008,-0.0097 0.002,-0.0048 0.005,-0.0097 0.005,-0.0064 0.008,-0.01126 0.01,-0.01287 0.0129,-0.0193 0.003,-0.0048 0.005,-0.0097 0.003,-0.0064 0.008,-0.01126 0.003,-0.0048 0.005,-0.0097 0.003,-0.0064 0.008,-0.01126 0.003,-0.008 0.01,-0.02091 0.003,-0.0048 0.005,-0.01126 0.003,-0.0064 0.008,-0.01287 0.003,-0.0048 0.005,-0.0097 0.003,-0.0064 0.008,-0.01287 0.002,-0.0048 0.003,-0.01126 0.003,-0.0064 0.006,-0.01287 0.005,-0.008 0.0113,-0.02413 0.0161,-0.04021 0.0113,-0.02574 0.002,-0.0048 0.003,-0.01126 0.003,-0.008 0.006,-0.01448 0.002,-0.0064 0.003,-0.01287 0.003,-0.0064 0.006,-0.01448 0.005,-0.01448 0.008,-0.02574 0.002,-0.0064 0.003,-0.01287 0.003,-0.0064 0.006,-0.01448 -0.006,0.01609 0.008,-0.02734 0.003,-0.008 0.01,-0.02735 0,-0.0064 0.002,-0.01287 0.003,-0.008 0.005,-0.01609 0.002,-0.0064 0.003,-0.01287 0.002,-0.008 0.005,-0.01609 0,-0.0048 0.002,-0.01126 0.003,-0.008 0.005,-0.01609 0.002,-0.01126 0.005,-0.03056 0,-0.0064 0.002,-0.01287 0.003,-0.008 0.005,-0.01609 0,-0.0064 0.002,-0.01287 0.002,-0.008 0.003,-0.01609 0.002,-0.01126 0.005,-0.03056 0,-0.0064 0.002,-0.01448 0.003,-0.008 0.005,-0.01609 0,-0.01126 0.003,-0.03056 0,-0.0064 0,-0.01287 0.002,-0.008 0.003,-0.01769 0.003,-0.0193 0.003,-0.03056 0.002,-0.01126 0.002,-0.03056 0.002,-0.01126 0.002,-0.03217 0.002,-0.01126 0.002,-0.03056 0,-0.008 0,-0.01448 0.002,-0.008 0.003,-0.01769 0,-0.0064 0,-0.01287 0.002,-0.008 0.002,-0.01769 0,-0.0064 0,-0.01448 0,-0.008 0,-0.01609 0,-0.008 0,-0.01448 0,-0.008 0,-0.01609 0,-0.008 -0.002,-0.01448 0,-0.008 0,-0.01769 0,-0.0064 0,-0.01448 0,-0.008 0,-0.01609 0,-0.0097 -0.003,-0.03217 0,-0.0193 -0.002,-0.02895 0,-0.01126 -0.003,-0.03378 0,-0.0193 -0.002,-0.02895 0,-0.01126 -0.003,-0.03056 -0.002,-0.0064 -0.003,-0.01448 0,-0.008 0,-0.01609 -0.003,-0.0193 -0.006,-0.03056 -0.002,-0.0064 -0.003,-0.01287 -0.002,-0.008 -0.002,-0.01609 -0.002,-0.01126 -0.005,-0.03056 -0.002,-0.01126 -0.005,-0.03056 -0.006,-0.0193 -0.008,-0.02895 -0.003,-0.0193 -0.005,-0.02735 -0.003,-0.0064 -0.005,-0.01287 -0.002,-0.008 -0.003,-0.01609 -0.002,-0.0064 -0.005,-0.01287 -0.003,-0.008 -0.003,-0.01609 -0.0145,-0.04343 -0.008,-0.02735 -0.003,-0.01126 -0.008,-0.02735 -0.003,-0.0048 -0.006,-0.01126 -0.002,-0.008 -0.003,-0.01448 -0.002,-0.0048 -0.01,-0.02735 -0.006,-0.01609 -0.01,-0.02574 -0.003,-0.0048 -0.006,-0.01126 -0.002,-0.008 -0.003,-0.01448 -0.003,-0.0048 -0.006,-0.01126 -0.003,-0.0064 -0.005,-0.01287 -0.006,-0.01608 -0.0113,-0.02413 -0.006,-0.01609 -0.01,-0.02252 -0.006,-0.01609 -0.0113,-0.02413 -0.003,-0.0048 -0.006,-0.0097 -0.003,-0.0064 -0.005,-0.01126 -0.01,-0.01609 -0.0129,-0.02252 -0.0145,-0.02252 -0.0129,-0.02091 -0.005,-0.0048 -0.008,-0.0097 -0.002,-0.0064 -0.005,-0.01126 -0.003,-0.0064 -0.0129,-0.0193 -0.003,-0.0048 -0.006,-0.0097 -0.003,-0.0048 -0.005,-0.0097 -0.008,-0.01448 -0.0273,-0.037 -0.003,-0.0032 -0.0257,-0.03539 -0.0193,-0.02252 -0.029,-0.03217 -0.01,-0.01126 -0.029,-0.03056 -0.0129,-0.01448 -0.0273,-0.02735 -0.0113,-0.008 -0.0306,-0.02413 -0.0161,-0.01287 -0.03056,-0.02413 -0.037,-0.02413 -0.03056,-0.02091 -0.03217,-0.0193 -0.02895,-0.01769 0,0 -0.02895,-0.01448 -0.0064,-0.0032 -0.03056,-0.01126 -0.02091,-0.008 -0.03056,-0.01126 -0.008,-0.0016 -0.01448,-0.0032 -0.0064,-0.0032 -0.01287,-0.0064 -0.02895,-0.0048 -0.02895,-0.0048 -0.0097,-0.0016 -0.02895,-0.0016 -0.0048,0 -0.008,0 -0.0032,0 -0.0064,0 h -0.530825 v 2.387103 0 z"
         style="stroke-width:0.264583"
         id="path2623" />
      <path
         d="m 103.44468,16.442867 v 0.03217 q -0.005,0.08043 -0.006,0.09651 -0.0676,0.492219 -0.40375,0.727069 -0.33619,0.233241 -0.71742,0.218764 -0.38123,-0.01609 -0.69811,-0.278281 -0.31528,-0.262195 -0.34263,-0.764066 v -0.03217 -1.983354 q 0,-0.04826 0.0177,-0.08686 0.0772,-0.168899 0.25576,-0.133511 0.18016,0.03539 0.18016,0.220373 v 1.983354 q 0.0241,0.369969 0.32493,0.553344 0.3024,0.183376 0.63538,-0.01609 0.14959,-0.08847 0.21876,-0.228416 0.0708,-0.139944 0.0836,-0.308843 v -1.983354 q 0,-0.02895 0.003,-0.04343 0.037,-0.197853 0.24289,-0.17855 0.2059,0.0193 0.2059,0.221981 z"
         style="stroke-width:0.264583"
         id="path2625" />
      <path
         d="m 106.23553,17.303446 q -0.0354,0.225199 -0.22841,0.225199 -0.19142,-0.0016 -0.2252,-0.225199 v -2.009091 l -0.55174,0.944225 q -0.0885,0.106165 -0.19785,0.11099 -0.10777,0.0048 -0.19303,-0.11099 l -0.54852,-0.939399 0.002,2.004265 q -0.0257,0.22359 -0.23324,0.22359 -0.2059,-0.0016 -0.22198,-0.22359 V 14.46273 q 0.0129,-0.184984 0.16246,-0.220373 0.1496,-0.037 0.26059,0.10134 l 0.77372,1.330278 0.78176,-1.330278 q 0.11099,-0.138336 0.25737,-0.10134 0.14798,0.037 0.16246,0.220373 z"
         style="stroke-width:0.264583"
         id="path2627" />
      <path
         d="m 107.85857,14.234315 h 0.0306 q 0.2059,0.01448 0.37962,0.0933 0.33297,0.15603 0.47131,0.513131 0.13833,0.3571 -0.003,0.696506 -0.11421,0.268629 -0.3378,0.421442 -0.22359,0.151205 -0.50991,0.168899 l -0.0306,0.0016 h -0.78176 v 1.17264 q -0.029,0.226807 -0.22842,0.226807 -0.19946,0 -0.2268,-0.226807 v -2.842325 q 0.0241,-0.199461 0.21233,-0.225198 h 0.0145 z m 0,0.453613 h -0.78176 v 0.986047 h 0.78176 q 0.18337,0 0.32332,-0.12225 0.14155,-0.122251 0.16568,-0.305626 0.0289,-0.221982 -0.11903,-0.389272 -0.14799,-0.168899 -0.36997,-0.168899 z"
         style="stroke-width:0.264583"
         id="path2629" />
    </g>
    <g
       aria-label="RAM"
       id="text2614"
       style="font-size:3.29433px;line-height:1.25;font-family:'MS 33558';-inkscape-font-specification:'MS 33558, Normal';stroke-width:0.264583">
      <path
         d="m 133.39724,17.378024 q 0.10295,0.181767 -0.0579,0.305626 -0.0772,0.05469 -0.17855,0.037 -0.0997,-0.01769 -0.14638,-0.09973 l -0.79302,-1.253067 h -0.40214 v 1.132425 q 0,0.139945 -0.12707,0.202679 -0.12708,0.06113 -0.23807,-0.02413 -0.0885,-0.06595 -0.0885,-0.178551 V 14.65795 q 0,-0.0933 0.0643,-0.159248 0.066,-0.06595 0.16086,-0.06595 h 0.99891 q 0.36032,0 0.62573,0.230024 0.26542,0.228416 0.32976,0.58069 0.0676,0.378012 -0.16086,0.707767 -0.2268,0.328146 -0.60321,0.398922 l -0.0306,0.0048 z m -0.8075,-1.462181 q 0.16408,0 0.30241,-0.09973 0.13995,-0.09973 0.18821,-0.260587 0.0756,-0.247718 -0.0692,-0.44718 -0.14477,-0.20107 -0.39893,-0.221981 h -0.79302 v 1.029478 z"
         style="stroke-width:0.264583"
         id="path2616" />
      <path
         d="m 135.72965,16.670258 -0.489,-1.35119 -0.49222,1.35119 z m -0.489,-1.35119 0.489,1.35119 z m -1.24181,2.097561 q 0.25737,-0.709374 0.51474,-1.417141 0.25898,-0.709374 0.51796,-1.418749 0.0531,-0.146379 0.21072,-0.147988 0.15764,-0.0016 0.21233,0.147988 l 1.03109,2.843933 q 0.0482,0.226807 -0.13834,0.292758 -0.18659,0.06595 -0.28793,-0.135119 l -0.16568,-0.460048 h -1.31098 l -0.16086,0.448788 q -0.10294,0.202679 -0.29275,0.13351 -0.18981,-0.07078 -0.1303,-0.287932 z"
         style="stroke-width:0.264583"
         id="path2618" />
      <path
         d="m 139.20092,17.501883 q -0.0354,0.225198 -0.22841,0.225198 -0.19142,-0.0016 -0.2252,-0.225198 v -2.009091 l -0.55174,0.944225 q -0.0885,0.106164 -0.19785,0.11099 -0.10777,0.0048 -0.19303,-0.11099 l -0.54851,-0.939399 0.002,2.004265 q -0.0257,0.22359 -0.23324,0.22359 -0.20589,-0.0016 -0.22198,-0.22359 v -2.840716 q 0.0129,-0.184984 0.16247,-0.220373 0.14959,-0.037 0.26058,0.101339 l 0.77372,1.330279 0.78176,-1.330279 q 0.11099,-0.138336 0.25737,-0.101339 0.14799,0.037 0.16246,0.220373 z"
         style="stroke-width:0.264583"
         id="path2620" />
    </g>
  </g>
</svg>
