<?xml version="1.0" encoding="UTF-8" standalone="no"?>
<svg
   xmlns:dc="http://purl.org/dc/elements/1.1/"
   xmlns:cc="http://creativecommons.org/ns#"
   xmlns:rdf="http://www.w3.org/1999/02/22-rdf-syntax-ns#"
   xmlns:svg="http://www.w3.org/2000/svg"
   xmlns="http://www.w3.org/2000/svg"
   xmlns:sodipodi="http://sodipodi.sourceforge.net/DTD/sodipodi-0.dtd"
   xmlns:inkscape="http://www.inkscape.org/namespaces/inkscape"
   width="210mm"
   height="297mm"
   viewBox="0 0 210 297"
   version="1.1"
   id="svg8"
   inkscape:version="1.0.1 (3bc2e813f5, 2020-09-07)"
   sodipodi:docname="nuclear_consent_engrave.svg">
  <defs
     id="defs2">
    <marker
       id="DistanceX"
       orient="auto"
       refX="0.0"
       refY="0.0"
       style="overflow:visible">
      <path
         d="M 3,-3 L -3,3 M 0,-5 L  0,5"
         style="stroke:#000000; stroke-width:0.5"
         id="path833" />
    </marker>
    <pattern
       id="Hatch"
       patternUnits="userSpaceOnUse"
       width="8"
       height="8"
       x="0"
       y="0">
      <path
         d="M8 4 l-4,4"
         stroke="#000000"
         stroke-width="0.25"
         linecap="square"
         id="path836" />
      <path
         d="M6 2 l-4,4"
         stroke="#000000"
         stroke-width="0.25"
         linecap="square"
         id="path838" />
      <path
         d="M4 0 l-4,4"
         stroke="#000000"
         stroke-width="0.25"
         linecap="square"
         id="path840" />
    </pattern>
    <symbol
       id="*Model_Space" />
    <symbol
       id="*Paper_Space" />
  </defs>
  <sodipodi:namedview
     id="base"
     pagecolor="#ffffff"
     bordercolor="#666666"
     borderopacity="1.0"
     inkscape:pageopacity="0.0"
     inkscape:pageshadow="2"
     inkscape:zoom="1.979899"
     inkscape:cx="151.59403"
     inkscape:cy="399.14732"
     inkscape:document-units="mm"
     inkscape:current-layer="layer1"
     inkscape:document-rotation="0"
     showgrid="true"
     inkscape:window-width="1918"
     inkscape:window-height="2071"
     inkscape:window-x="-8"
     inkscape:window-y="0"
     inkscape:window-maximized="0">
    <inkscape:grid
       type="xygrid"
       id="grid952" />
  </sodipodi:namedview>
  <metadata
     id="metadata5">
    <rdf:RDF>
      <cc:Work
         rdf:about="">
        <dc:format>image/svg+xml</dc:format>
        <dc:type
           rdf:resource="http://purl.org/dc/dcmitype/StillImage" />
        <dc:title></dc:title>
      </cc:Work>
    </rdf:RDF>
  </metadata>
  <g
     inkscape:label="Lag 1"
     inkscape:groupmode="layer"
     id="layer1">
    <g
       aria-label="ARM/REL"
       id="text922"
       style="font-size:3.29433px;line-height:1.25;font-family:'MS 33558';-inkscape-font-specification:'MS 33558, Normal';stroke-width:0.264583">
      <path
         d="m 15.19457,37.383354 -0.489002,-1.35119 -0.492219,1.35119 z m -0.489002,-1.35119 0.489002,1.35119 z m -1.241808,2.097562 q 0.25737,-0.709375 0.514739,-1.417141 0.258978,-0.709375 0.517956,-1.418749 0.05308,-0.146379 0.210722,-0.147988 0.157639,-0.0016 0.21233,0.147988 l 1.031086,2.843933 q 0.04826,0.226807 -0.138336,0.292758 -0.186593,0.06595 -0.287932,-0.135119 L 15.358643,37.83536 h -1.310976 l -0.160856,0.448788 q -0.102947,0.202678 -0.292757,0.13351 -0.18981,-0.07078 -0.130294,-0.287932 z"
         style="stroke-width:0.264583"
         id="path1040" />
      <path
         d="m 18.29909,38.091121 q 0.102948,0.181767 -0.05791,0.305626 -0.07721,0.05469 -0.17855,0.037 -0.09973,-0.01769 -0.146379,-0.09973 l -0.79302,-1.253068 h -0.40214 v 1.132426 q 0,0.139945 -0.127076,0.202679 -0.127076,0.06113 -0.238067,-0.02413 -0.08847,-0.06595 -0.08847,-0.17855 v -2.842325 q 0,-0.0933 0.06434,-0.159247 0.06595,-0.06595 0.160856,-0.06595 h 0.998915 q 0.360318,0 0.62573,0.230024 0.265412,0.228415 0.329755,0.58069 0.06756,0.378012 -0.160856,0.707766 -0.226807,0.328146 -0.60321,0.398923 l -0.03056,0.0048 z M 17.491593,36.62894 q 0.164073,0 0.302409,-0.09973 0.139945,-0.09973 0.188202,-0.260586 0.0756,-0.247719 -0.06917,-0.44718 -0.144771,-0.20107 -0.398923,-0.221981 h -0.79302 v 1.029478 z"
         style="stroke-width:0.264583"
         id="path1042" />
      <path
         d="m 21.287794,38.21498 q -0.03539,0.225198 -0.228416,0.225198 -0.191418,-0.0016 -0.225198,-0.225198 v -2.009091 l -0.551736,0.944224 q -0.08847,0.106165 -0.197853,0.110991 -0.107773,0.0048 -0.193027,-0.110991 l -0.548519,-0.939399 0.0016,2.004266 q -0.02574,0.223589 -0.233241,0.223589 -0.205896,-0.0016 -0.221982,-0.223589 v -2.840717 q 0.01287,-0.184984 0.162465,-0.220372 0.149596,-0.037 0.260587,0.101339 l 0.773717,1.330279 0.78176,-1.330279 q 0.11099,-0.138336 0.257369,-0.101339 0.147988,0.037 0.162465,0.220372 z"
         style="stroke-width:0.264583"
         id="path1044" />
      <path
         d="m 23.222891,35.263273 q 0.04826,-0.08686 0.115816,-0.101339 0.06917,-0.01609 0.07721,-0.01609 0.115816,0 0.191419,0.09973 0.0756,0.09973 0.008,0.234849 l -1.51848,2.843934 q -0.0193,0.037 -0.06917,0.07721 -0.04987,0.03861 -0.131902,0.03861 -0.115816,0 -0.184984,-0.09973 -0.06756,-0.09973 -0.01287,-0.239675 z"
         style="stroke-width:0.264583"
         id="path1046" />
      <path
         d="m 26.185857,38.091121 q 0.102948,0.181767 -0.05791,0.305626 -0.07721,0.05469 -0.17855,0.037 -0.09973,-0.01769 -0.146379,-0.09973 L 25.01,37.080945 h -0.40214 v 1.132426 q 0,0.139945 -0.127076,0.202679 -0.127076,0.06113 -0.238067,-0.02413 -0.08847,-0.06595 -0.08847,-0.17855 v -2.842325 q 0,-0.0933 0.06434,-0.159247 0.06595,-0.06595 0.160856,-0.06595 h 0.998915 q 0.360317,0 0.62573,0.230024 0.265412,0.228415 0.329754,0.58069 0.06756,0.378012 -0.160855,0.707766 -0.226807,0.328146 -0.60321,0.398923 l -0.03056,0.0048 z M 25.37836,36.62894 q 0.164073,0 0.302409,-0.09973 0.139945,-0.09973 0.188202,-0.260586 0.0756,-0.247719 -0.06917,-0.44718 -0.144771,-0.20107 -0.398923,-0.221981 h -0.79302 v 1.029478 z"
         style="stroke-width:0.264583"
         id="path1048" />
      <path
         d="m 28.561699,35.594636 h -1.333495 v 0.879882 h 1.016609 q 0.228416,0.03378 0.226807,0.230024 0,0.194636 -0.226807,0.226807 h -1.016609 v 1.056824 h 1.333495 q 0.226807,0.03378 0.226807,0.226807 0,0.193027 -0.226807,0.225198 h -1.557085 q -0.20107,-0.02574 -0.228416,-0.228416 v -2.840716 q 0.03056,-0.212329 0.228416,-0.225198 h 1.557085 q 0.226807,0.01769 0.225199,0.226807 0,0.207504 -0.225199,0.221981 z"
         style="stroke-width:0.264583"
         id="path1050" />
      <path
         d="m 29.464102,38.441786 q -0.197853,-0.01287 -0.228416,-0.223589 v -2.843934 q 0.03378,-0.231632 0.23485,-0.226806 0.20107,0.0032 0.218764,0.226806 v 2.618735 l 1.484701,-0.0016 q 0.228415,0.02574 0.225198,0.231632 -0.0016,0.204287 -0.226807,0.218764 z"
         style="stroke-width:0.264583"
         id="path1052" />
    </g>
    <g
       inkscape:label="0"
       id="g875"
       transform="matrix(0.26458333,0,0,0.26458333,4.9464286,-149.16071)"
       style="stroke:#ff0000">
      <path
         d="M 0,608.50394 H 37.795276"
         style="fill:none;stroke:#ff0000;stroke-linecap:round"
         id="path847" />
      <path
         d="M 56.692913,570.70866 V 589.6063"
         style="fill:none;stroke:#ff0000;stroke-linecap:round"
         id="path849" />
      <path
         d="M 37.795276,608.50394 A 18.897638,18.897638 0 0 0 56.692913,589.6063"
         style="fill:none;stroke:#ff0000;stroke-linecap:round"
         id="path851" />
      <path
         d="m 94.488189,1103.622 v 18.8977"
         style="fill:none;stroke:#ff0000;stroke-linecap:round"
         id="path853" />
      <path
         d="M 151.1811,1084.7244 H 113.38583"
         style="fill:none;stroke:#ff0000;stroke-linecap:round"
         id="path855" />
      <path
         d="M 113.38583,1084.7244 A 18.897638,18.897638 0 0 0 94.488189,1103.622"
         style="fill:none;stroke:#ff0000;stroke-linecap:round"
         id="path857" />
      <path
         d="m 98.267717,990.23622 a 22.677165,22.677165 0 1 0 -45.354331,0 22.677165,22.677165 0 1 0 45.354331,0 z"
         style="fill:none;stroke:#ff0000;stroke-linecap:round"
         id="path859" />
      <path
         d="m 86.929134,744.56693 a 22.677165,22.677165 0 1 0 -45.354331,0 22.677165,22.677165 0 1 0 45.354331,0 z"
         style="fill:none;stroke:#ff0000;stroke-linecap:round"
         id="path861" />
      <path
         d="M 0,1122.5197 H 94.488189"
         style="fill:none;stroke:#ff0000;stroke-linecap:round"
         id="path863" />
      <path
         d="M 151.1811,1084.7244 V 570.70866"
         style="fill:none;stroke:#ff0000;stroke-linecap:round"
         id="path865" />
      <path
         d="M 151.1811,570.70866 H 56.692913"
         style="fill:none;stroke:#ff0000;stroke-linecap:round"
         id="path867" />
      <path
         d="M 0,608.50394 V 1122.5197"
         style="fill:none;stroke:#ff0000;stroke-linecap:round"
         id="path869" />
      <path
         d="m 43.464567,1065.8268 a 5.6692915,5.6692915 0 1 0 -11.338583,0 5.6692915,5.6692915 0 1 0 11.338583,0 z"
         style="fill:none;stroke:#ff0000;stroke-linecap:round"
         id="path871" />
      <path
         d="m 119.05512,631.1811 a 5.669295,5.669295 0 1 0 -11.33859,0 5.669295,5.669295 0 1 0 11.33859,0 z"
         style="fill:none;stroke:#ff0000;stroke-linecap:round"
         id="path873" />
    </g>
    <g
       aria-label="NUCLEAR
CONSENT"
       id="text916"
       style="font-style:normal;font-variant:normal;font-weight:normal;font-stretch:normal;font-size:4.23333px;line-height:1.25;font-family:'MS 33558';-inkscape-font-specification:'MS 33558, Normal';font-variant-ligatures:normal;font-variant-caps:normal;font-variant-numeric:normal;font-variant-east-asian:normal;stroke-width:0.264583">
      <path
         d="m 8.9967173,18.046592 q 0,0.217041 -0.2108399,0.276986 -0.2087727,0.05788 -0.3245279,-0.124023 L 6.7250214,15.415229 v 2.631363 q -0.045475,0.289388 -0.2935221,0.289388 -0.2459798,0 -0.289388,-0.289388 v -3.650423 q 0.031006,-0.214974 0.2191081,-0.283186 0.1901692,-0.06821 0.3162597,0.128157 l 1.736328,2.78846 v -2.633431 q 0.039274,-0.295589 0.2997233,-0.291455 0.2625163,0.0021 0.2831869,0.291455 z"
         style="font-style:normal;font-variant:normal;font-weight:normal;font-stretch:normal;font-size:4.23333px;font-family:'MS 33558';-inkscape-font-specification:'MS 33558, Normal';font-variant-ligatures:normal;font-variant-caps:normal;font-variant-numeric:normal;font-variant-east-asian:normal;stroke-width:0.264583"
         id="path1011" />
      <path
         d="m 12.376356,16.936583 v 0.04134 q -0.0062,0.103353 -0.0083,0.124023 -0.08682,0.63252 -0.518832,0.93431 -0.432015,0.299723 -0.921907,0.28112 -0.489893,-0.02067 -0.897103,-0.357601 -0.4051433,-0.33693 -0.4402833,-0.981852 v -0.04134 -2.548682 q 0,-0.06201 0.022738,-0.111621 0.099219,-0.217041 0.3286621,-0.171566 0.2315106,0.04548 0.2315106,0.283187 v 2.548682 q 0.03101,0.475423 0.417545,0.711067 0.388607,0.235645 0.816488,-0.02067 0.192236,-0.113688 0.28112,-0.293522 0.09095,-0.179834 0.107487,-0.396875 v -2.548682 q 0,-0.03721 0.0041,-0.05581 0.04754,-0.254248 0.312125,-0.229444 0.264584,0.02481 0.264584,0.285254 z"
         style="font-style:normal;font-variant:normal;font-weight:normal;font-stretch:normal;font-size:4.23333px;font-family:'MS 33558';-inkscape-font-specification:'MS 33558, Normal';font-variant-ligatures:normal;font-variant-caps:normal;font-variant-numeric:normal;font-variant-east-asian:normal;stroke-width:0.264583"
         id="path1013" />
      <path
         d="m 15.543087,17.670388 -0.0186,0.02687 q -0.0062,0.0083 -0.01033,0.01447 -0.0041,0.0062 -0.0083,0.0124 -0.283186,0.382406 -0.74414,0.545704 -0.458887,0.16123 -0.905371,-0.05994 -0.518832,-0.258382 -0.762744,-0.876432 -0.241846,-0.61805 -0.208773,-1.283643 0.03514,-0.667659 0.3514,-1.225765 0.318326,-0.558105 0.921907,-0.698665 0.347266,-0.08061 0.692464,0.06821 0.345199,0.146761 0.566374,0.413411 0.0021,0 0.01033,0.01447 0.09509,0.124023 0.03927,0.272851 -0.05581,0.146761 -0.204638,0.183968 -0.159164,0.04134 -0.293522,-0.09508 -0.276986,-0.322461 -0.533301,-0.310059 -0.256315,0.0124 -0.458887,0.21084 -0.202572,0.198437 -0.33693,0.508496 -0.134359,0.310059 -0.165365,0.580843 -0.03721,0.30179 0.0062,0.607715 0.04548,0.303857 0.188103,0.572575 0.248046,0.471289 0.624251,0.591178 0.378271,0.117822 0.737939,-0.361735 0.01654,-0.02067 0.03927,-0.05374 0.194304,-0.214974 0.409278,-0.04341 0.217041,0.169499 0.06408,0.384473 z"
         style="font-style:normal;font-variant:normal;font-weight:normal;font-stretch:normal;font-size:4.23333px;font-family:'MS 33558';-inkscape-font-specification:'MS 33558, Normal';font-variant-ligatures:normal;font-variant-caps:normal;font-variant-numeric:normal;font-variant-east-asian:normal;stroke-width:0.264583"
         id="path1015" />
      <path
         d="m 16.413318,18.333913 q -0.254248,-0.01654 -0.293522,-0.287321 v -3.654557 q 0.04341,-0.297656 0.301791,-0.291455 0.258382,0.0041 0.281119,0.291455 v 3.365169 l 1.907894,-0.0021 q 0.293522,0.03307 0.289388,0.297657 -0.0021,0.262516 -0.291455,0.281119 z"
         style="font-style:normal;font-variant:normal;font-weight:normal;font-stretch:normal;font-size:4.23333px;font-family:'MS 33558';-inkscape-font-specification:'MS 33558, Normal';font-variant-ligatures:normal;font-variant-caps:normal;font-variant-numeric:normal;font-variant-east-asian:normal;stroke-width:0.264583"
         id="path1017" />
      <path
         d="m 21.783533,14.675222 h -1.71359 v 1.13068 h 1.30638 q 0.293522,0.04341 0.291455,0.29559 0,0.250113 -0.291455,0.291455 h -1.30638 v 1.358056 h 1.71359 q 0.291456,0.04341 0.291456,0.291455 0,0.248047 -0.291456,0.289388 H 19.782622 Q 19.52424,18.298773 19.4891,18.038324 v -3.650423 q 0.03927,-0.272851 0.293522,-0.289388 h 2.000911 q 0.291456,0.02274 0.289388,0.291455 0,0.266651 -0.289388,0.285254 z"
         style="font-style:normal;font-variant:normal;font-weight:normal;font-stretch:normal;font-size:4.23333px;font-family:'MS 33558';-inkscape-font-specification:'MS 33558, Normal';font-variant-ligatures:normal;font-variant-caps:normal;font-variant-numeric:normal;font-variant-east-asian:normal;stroke-width:0.264583"
         id="path1019" />
      <path
         d="m 24.888253,16.97379 -0.628385,-1.736328 -0.63252,1.736328 z m -0.628385,-1.736328 0.628385,1.736328 z m -1.595769,2.695442 q 0.33073,-0.911572 0.661459,-1.821077 0.332796,-0.911572 0.665592,-1.823145 0.06821,-0.188102 0.270785,-0.190169 0.202571,-0.0021 0.272851,0.190169 l 1.324984,3.654557 q 0.06201,0.291456 -0.177767,0.376205 -0.239779,0.08475 -0.370003,-0.173633 l -0.212907,-0.591178 h -1.684652 l -0.206705,0.576709 q -0.132292,0.260449 -0.376205,0.171565 -0.243913,-0.09095 -0.167432,-0.370003 z"
         style="font-style:normal;font-variant:normal;font-weight:normal;font-stretch:normal;font-size:4.23333px;font-family:'MS 33558';-inkscape-font-specification:'MS 33558, Normal';font-variant-ligatures:normal;font-variant-caps:normal;font-variant-numeric:normal;font-variant-east-asian:normal;stroke-width:0.264583"
         id="path1021" />
      <path
         d="m 28.877673,17.883295 q 0.132292,0.233577 -0.07441,0.392741 -0.09922,0.07028 -0.229443,0.04754 -0.128158,-0.02274 -0.188103,-0.128158 L 27.366654,16.585183 H 26.84989 v 1.455208 q 0,0.179834 -0.163298,0.260449 -0.163297,0.07855 -0.305924,-0.03101 -0.113688,-0.08475 -0.113688,-0.229444 v -3.65249 q 0,-0.119889 0.08268,-0.204639 0.08475,-0.08475 0.206706,-0.08475 h 1.283642 q 0.463021,0 0.804085,0.295589 0.341065,0.293522 0.423747,0.746208 0.08682,0.485758 -0.206706,0.909505 -0.291455,0.42168 -0.775146,0.51263 l -0.03927,0.0062 z M 27.84001,16.00434 q 0.21084,0 0.388607,-0.128158 0.179834,-0.128157 0.241846,-0.334863 0.09715,-0.318327 -0.08888,-0.574642 -0.186035,-0.258382 -0.51263,-0.285254 H 26.84989 v 1.322917 z"
         style="font-style:normal;font-variant:normal;font-weight:normal;font-stretch:normal;font-size:4.23333px;font-family:'MS 33558';-inkscape-font-specification:'MS 33558, Normal';font-variant-ligatures:normal;font-variant-caps:normal;font-variant-numeric:normal;font-variant-east-asian:normal;stroke-width:0.264583"
         id="path1023" />
      <path
         d="m 8.804481,22.962054 -0.018604,0.02687 q -0.0062,0.0083 -0.010335,0.01447 -0.00413,0.0062 -0.00827,0.0124 -0.2831868,0.382405 -0.7441406,0.545703 -0.4588867,0.16123 -0.905371,-0.05994 -0.5188314,-0.258382 -0.7627441,-0.876432 -0.2418457,-0.61805 -0.2087728,-1.283643 0.03514,-0.667659 0.3513997,-1.225764 0.3183268,-0.558106 0.9219075,-0.698666 0.3472656,-0.08062 0.6924642,0.06821 0.3451985,0.146761 0.5663737,0.413412 0.00207,0 0.010335,0.01447 0.095085,0.124023 0.039274,0.272852 -0.05581,0.146761 -0.2046386,0.183968 -0.1591634,0.04134 -0.2935221,-0.09509 -0.2769857,-0.322461 -0.5333008,-0.310059 -0.2563151,0.0124 -0.4588867,0.21084 Q 7.03508,20.374099 6.9007213,20.684157 6.7663626,20.994216 6.7353567,21.265 q -0.037207,0.301791 0.0062,0.607715 0.045475,0.303858 0.1881022,0.572575 0.2480469,0.471289 0.6242513,0.591178 0.3782714,0.117823 0.7379394,-0.361735 0.016536,-0.02067 0.039274,-0.05374 0.1943033,-0.214974 0.4092773,-0.04341 0.217041,0.169498 0.064079,0.384472 z"
         style="font-style:normal;font-variant:normal;font-weight:normal;font-stretch:normal;font-size:4.23333px;font-family:'MS 33558';-inkscape-font-specification:'MS 33558, Normal';font-variant-ligatures:normal;font-variant-caps:normal;font-variant-numeric:normal;font-variant-east-asian:normal;stroke-width:0.264583"
         id="path1025" />
      <path
         d="m 12.130376,20.607676 q 0.190169,0.572575 0.142627,1.188558 -0.04547,0.615983 -0.33693,1.124479 -0.183969,0.31626 -0.502295,0.537435 -0.318327,0.221175 -0.7028,0.155029 -0.626318,-0.109554 -0.9591144,-0.65319 -0.3327962,-0.543636 -0.3824055,-1.209228 -0.047542,-0.66766 0.1798339,-1.300179 0.2294434,-0.63252 0.729671,-0.919841 0.243913,-0.140559 0.510563,-0.140559 0.508496,0 0.830957,0.384472 0.322461,0.382406 0.489893,0.833024 z m -1.304313,-0.630452 q -0.380339,0 -0.576709,0.409277 -0.194304,0.409277 -0.24598,0.698665 -0.039274,0.21084 -0.028939,0.510564 0.010335,0.299723 0.086817,0.593245 0.07648,0.291455 0.229443,0.5271 0.152962,0.233577 0.401009,0.310058 0.289388,0.09095 0.498161,-0.113688 0.21084,-0.206706 0.318327,-0.438216 0.109554,-0.237712 0.148828,-0.624251 0.04134,-0.38654 -0.0186,-0.771013 -0.05788,-0.386539 -0.229443,-0.694531 -0.171566,-0.310059 -0.487826,-0.394808 -0.04134,-0.0124 -0.09508,-0.0124 z"
         style="font-style:normal;font-variant:normal;font-weight:normal;font-stretch:normal;font-size:4.23333px;font-family:'MS 33558';-inkscape-font-specification:'MS 33558, Normal';font-variant-ligatures:normal;font-variant-caps:normal;font-variant-numeric:normal;font-variant-east-asian:normal;stroke-width:0.264583"
         id="path1027" />
      <path
         d="m 15.683647,23.338259 q 0,0.217041 -0.21084,0.276985 -0.208773,0.05788 -0.324528,-0.124023 l -1.736328,-2.784326 v 2.631364 q -0.04547,0.289388 -0.293522,0.289388 -0.24598,0 -0.289388,-0.289388 v -3.650423 q 0.03101,-0.214974 0.219108,-0.283187 0.190169,-0.06821 0.31626,0.128157 l 1.736328,2.788461 v -2.633431 q 0.03927,-0.295589 0.299723,-0.291455 0.262516,0.0021 0.283187,0.291455 z"
         style="font-style:normal;font-variant:normal;font-weight:normal;font-stretch:normal;font-size:4.23333px;font-family:'MS 33558';-inkscape-font-specification:'MS 33558, Normal';font-variant-ligatures:normal;font-variant-caps:normal;font-variant-numeric:normal;font-variant-east-asian:normal;stroke-width:0.264583"
         id="path1029" />
      <path
         d="m 18.356352,21.37042 0.03307,0.01447 0.03721,0.0186 0.03307,0.0186 q 0.01447,0.01033 0.03101,0.02067 0.0186,0.0083 0.03514,0.0186 0.409278,0.268717 0.506429,0.74414 0.03721,0.186036 0.01654,0.382406 -0.03307,0.28112 -0.198438,0.520898 -0.163297,0.237712 -0.411344,0.367937 -0.26665,0.140559 -0.551904,0.140559 -0.479558,0 -0.915707,-0.121956 -0.436149,-0.124023 -0.622184,-0.659391 -0.0248,-0.06821 -0.03721,-0.14056 -0.0124,-0.07235 -0.02894,-0.144694 -0.03101,-0.148828 0.07235,-0.262516 0.10542,-0.113688 0.26045,-0.08682 0.163297,0.03307 0.227376,0.202572 l 0.0062,0.0186 q 0.09922,0.448552 0.345199,0.535368 0.248046,0.08682 0.68833,0.07855 0.405143,0 0.556038,-0.380338 0.06615,-0.169499 0.02067,-0.3514 -0.04548,-0.183968 -0.179834,-0.305924 -0.05994,-0.05168 -0.157097,-0.09715 l -0.957047,-0.419613 -0.03101,-0.01654 q -0.469222,-0.248047 -0.58291,-0.704867 -0.138493,-0.529166 0.192236,-0.948779 0.332796,-0.421679 0.872298,-0.421679 l 0.227377,0.0062 q 0.111621,0.02067 0.214973,0.04134 0.103353,0.0186 0.208773,0.06615 0.260449,0.121956 0.398942,0.334863 0.138493,0.212907 0.250114,0.460954 0.01034,0.02274 0.0186,0.05374 0.02274,0.101286 -0.02067,0.183968 -0.0248,0.05168 -0.05168,0.07855 -0.02687,0.02687 -0.04341,0.03721 -0.107487,0.07648 -0.235645,0.04548 -0.128158,-0.02894 -0.19637,-0.165365 -0.05374,-0.119889 -0.115756,-0.243913 -0.05994,-0.12609 -0.169498,-0.208772 -0.04548,-0.03307 -0.08888,-0.04754 -0.04134,-0.01654 -0.09302,-0.03514 l -0.134359,-0.02274 -0.190169,-0.0062 q -0.276986,0.0041 -0.423747,0.239778 -0.09922,0.150895 -0.07441,0.33693 0.02894,0.229444 0.214974,0.355534 0.0083,0.0062 0.0186,0.01447 0.01034,0.0062 0.02274,0.0124 l 0.02274,0.01033 0.0248,0.01034 z"
         style="font-style:normal;font-variant:normal;font-weight:normal;font-stretch:normal;font-size:4.23333px;font-family:'MS 33558';-inkscape-font-specification:'MS 33558, Normal';font-variant-ligatures:normal;font-variant-caps:normal;font-variant-numeric:normal;font-variant-east-asian:normal;stroke-width:0.264583"
         id="path1031" />
      <path
         d="m 21.862081,19.966888 h -1.71359 v 1.130681 h 1.30638 q 0.293522,0.04341 0.291455,0.295589 0,0.250114 -0.291455,0.291455 h -1.30638 v 1.358057 h 1.71359 q 0.291455,0.04341 0.291455,0.291455 0,0.248046 -0.291455,0.289388 H 19.86117 q -0.258383,-0.03307 -0.293523,-0.293522 v -3.650423 q 0.03927,-0.272852 0.293523,-0.289388 h 2.000911 q 0.291455,0.02274 0.289388,0.291455 0,0.26665 -0.289388,0.285253 z"
         style="font-style:normal;font-variant:normal;font-weight:normal;font-stretch:normal;font-size:4.23333px;font-family:'MS 33558';-inkscape-font-specification:'MS 33558, Normal';font-variant-ligatures:normal;font-variant-caps:normal;font-variant-numeric:normal;font-variant-east-asian:normal;stroke-width:0.264583"
         id="path1033" />
      <path
         d="m 25.582784,23.338259 q 0,0.217041 -0.210839,0.276985 -0.208773,0.05788 -0.324528,-0.124023 l -1.736328,-2.784326 v 2.631364 q -0.04548,0.289388 -0.293522,0.289388 -0.24598,0 -0.289388,-0.289388 v -3.650423 q 0.03101,-0.214974 0.219108,-0.283187 0.190169,-0.06821 0.316259,0.128157 l 1.736328,2.788461 v -2.633431 q 0.03927,-0.295589 0.299724,-0.291455 0.262516,0.0021 0.283186,0.291455 z"
         style="font-style:normal;font-variant:normal;font-weight:normal;font-stretch:normal;font-size:4.23333px;font-family:'MS 33558';-inkscape-font-specification:'MS 33558, Normal';font-variant-ligatures:normal;font-variant-caps:normal;font-variant-numeric:normal;font-variant-east-asian:normal;stroke-width:0.264583"
         id="path1035" />
      <path
         d="M 27.224028,23.334125 V 19.97309 h -0.75861 q -0.289388,-0.02274 -0.289388,-0.289388 0.0021,-0.268718 0.289388,-0.293522 h 2.098063 q 0.285254,0.02274 0.285254,0.293522 0.0021,0.268717 -0.285254,0.289388 h -0.756543 v 3.361035 q -0.04754,0.293522 -0.305925,0.289388 -0.256315,-0.0041 -0.276985,-0.289388 z"
         style="font-style:normal;font-variant:normal;font-weight:normal;font-stretch:normal;font-size:4.23333px;font-family:'MS 33558';-inkscape-font-specification:'MS 33558, Normal';font-variant-ligatures:normal;font-variant-caps:normal;font-variant-numeric:normal;font-variant-east-asian:normal;stroke-width:0.264583"
         id="path1037" />
    </g>
    <g
       aria-label="OFF"
       id="text926"
       style="font-size:3.29433px;line-height:1.25;font-family:'MS 33558';-inkscape-font-specification:'MS 33558, Normal';stroke-width:0.264583">
      <path
         d="m 9.1319445,46.695523 q 0.1479875,0.445571 0.1109906,0.924922 -0.035388,0.479351 -0.2621952,0.875057 -0.1431618,0.246109 -0.3908799,0.418225 -0.2477182,0.172116 -0.5469103,0.120642 -0.4873935,-0.08525 -0.7463716,-0.508305 -0.258978,-0.423051 -0.2975835,-0.941007 -0.036997,-0.519565 0.1399447,-1.011784 0.1785501,-0.492219 0.5678215,-0.715809 0.18981,-0.109382 0.3973142,-0.109382 0.3957056,0 0.6466409,0.299192 0.2509353,0.297584 0.3812286,0.648249 z m -1.015001,-0.49061 q -0.295975,0 -0.4487881,0.318495 -0.1512046,0.318494 -0.1914186,0.543693 -0.030563,0.164073 -0.02252,0.397314 0.00804,0.233241 0.067559,0.461657 0.059517,0.226806 0.1785501,0.410182 0.1190334,0.181767 0.3120605,0.241284 0.2251983,0.07078 0.3876629,-0.08847 0.164073,-0.160856 0.2477181,-0.341014 0.085254,-0.184985 0.1158163,-0.485785 0.032171,-0.300801 -0.014477,-0.599993 -0.04504,-0.300801 -0.1785501,-0.540476 -0.1335105,-0.241284 -0.3796201,-0.307235 -0.032171,-0.0097 -0.073994,-0.0097 z"
         style="stroke-width:0.264583"
         id="path1004" />
      <path
         d="m 9.6756377,48.813996 v -2.837499 q 0.028954,-0.212329 0.2284155,-0.228415 h 1.5570858 q 0.22359,0.01769 0.22359,0.228415 0,0.209113 -0.226807,0.22359 h -1.330279 v 0.879882 h 1.037521 q 0.221981,0.01609 0.225198,0.217156 0.0032,0.20107 -0.225198,0.234849 h -1.037521 v 1.282022 q -0.01609,0.221982 -0.2187641,0.225199 -0.20107,0.0032 -0.2332412,-0.225199 z"
         style="stroke-width:0.264583"
         id="path1006" />
      <path
         d="m 12.135125,48.813996 v -2.837499 q 0.02895,-0.212329 0.228416,-0.228415 h 1.557085 q 0.22359,0.01769 0.22359,0.228415 0,0.209113 -0.226807,0.22359 H 12.58713 v 0.879882 h 1.037521 q 0.221981,0.01609 0.225199,0.217156 0.0032,0.20107 -0.225199,0.234849 H 12.58713 v 1.282022 q -0.01609,0.221982 -0.218764,0.225199 -0.20107,0.0032 -0.233241,-0.225199 z"
         style="stroke-width:0.264583"
         id="path1008" />
    </g>
    <g
       aria-label="REL ONLY"
       id="text930"
       style="font-size:3.29433px;line-height:1.25;font-family:'MS 33558';-inkscape-font-specification:'MS 33558, Normal';stroke-width:0.264583">
      <path
         d="m 14.788305,59.560168 q 0.102948,0.181767 -0.05791,0.305626 -0.07721,0.05469 -0.17855,0.037 -0.09973,-0.01769 -0.146379,-0.09973 l -0.79302,-1.253068 h -0.402139 v 1.132426 q 0,0.139944 -0.127077,0.202678 -0.127076,0.06112 -0.238066,-0.02413 -0.08847,-0.06595 -0.08847,-0.17855 v -2.842325 q 0,-0.0933 0.06434,-0.159247 0.06595,-0.06595 0.160856,-0.06595 h 0.998916 q 0.360317,0 0.625729,0.230024 0.265413,0.228415 0.329755,0.58069 0.06756,0.378011 -0.160856,0.707766 -0.226807,0.328146 -0.60321,0.398923 l -0.03056,0.0048 z m -0.807496,-1.462181 q 0.164073,0 0.302409,-0.09973 0.139944,-0.09973 0.188201,-0.260587 0.0756,-0.247718 -0.06917,-0.447179 -0.14477,-0.20107 -0.398923,-0.221982 h -0.793019 v 1.029478 z"
         style="stroke-width:0.264583"
         id="path989" />
      <path
         d="m 17.164148,57.063684 h -1.333496 v 0.879882 h 1.01661 q 0.228415,0.03378 0.226807,0.230024 0,0.194635 -0.226807,0.226807 h -1.01661 v 1.056823 h 1.333496 q 0.226807,0.03378 0.226807,0.226807 0,0.193027 -0.226807,0.225198 h -1.557086 q -0.20107,-0.02574 -0.228415,-0.228415 v -2.840716 q 0.03056,-0.21233 0.228415,-0.225198 h 1.557086 q 0.226807,0.01769 0.225198,0.226806 0,0.207505 -0.225198,0.221982 z"
         style="stroke-width:0.264583"
         id="path991" />
      <path
         d="m 18.06655,59.910834 q -0.197853,-0.01287 -0.228416,-0.22359 v -2.843933 q 0.03378,-0.231633 0.23485,-0.226807 0.20107,0.0032 0.218764,0.226807 v 2.618735 l 1.484701,-0.0016 q 0.228415,0.02574 0.225198,0.231633 -0.0016,0.204287 -0.226807,0.218764 z"
         style="stroke-width:0.264583"
         id="path993" />
      <path
         d="m 23.893801,57.562337 q 0.147987,0.445571 0.11099,0.924922 -0.03539,0.479351 -0.262195,0.875056 -0.143162,0.24611 -0.39088,0.418226 -0.247718,0.172116 -0.54691,0.120642 -0.487394,-0.08525 -0.746372,-0.508305 -0.258978,-0.423051 -0.297583,-0.941007 -0.037,-0.519565 0.139944,-1.011784 0.17855,-0.49222 0.567822,-0.715809 0.18981,-0.109382 0.397314,-0.109382 0.395706,0 0.646641,0.299192 0.250935,0.297583 0.381229,0.648249 z M 22.8788,57.071726 q -0.295975,0 -0.448789,0.318495 -0.151204,0.318495 -0.191418,0.543693 -0.03056,0.164073 -0.02252,0.397315 0.008,0.233241 0.06756,0.461656 0.05952,0.226807 0.17855,0.410183 0.119033,0.181767 0.31206,0.241284 0.225199,0.07078 0.387663,-0.08847 0.164073,-0.160856 0.247718,-0.341015 0.08525,-0.184984 0.115816,-0.485785 0.03217,-0.3008 -0.01448,-0.599992 -0.04504,-0.300801 -0.17855,-0.540476 -0.13351,-0.241284 -0.37962,-0.307235 -0.03217,-0.0097 -0.07399,-0.0097 z"
         style="stroke-width:0.264583"
         id="path995" />
      <path
         d="m 26.658914,59.687244 q 0,0.168899 -0.164073,0.215547 -0.162465,0.04504 -0.252544,-0.09651 l -1.35119,-2.16673 v 2.047696 q -0.03539,0.225199 -0.228415,0.225199 -0.191419,0 -0.225199,-0.225199 v -2.840716 q 0.02413,-0.16729 0.170508,-0.220373 0.147987,-0.05308 0.246109,0.09973 l 1.35119,2.169947 v -2.049305 q 0.03056,-0.230024 0.233241,-0.226807 0.204287,0.0016 0.220373,0.226807 z"
         style="stroke-width:0.264583"
         id="path997" />
      <path
         d="m 27.348987,59.910834 q -0.197853,-0.01287 -0.228416,-0.22359 v -2.843933 q 0.03378,-0.231633 0.23485,-0.226807 0.20107,0.0032 0.218764,0.226807 v 2.618735 l 1.4847,-0.0016 q 0.228416,0.02574 0.225199,0.231633 -0.0016,0.204287 -0.226807,0.218764 z"
         style="stroke-width:0.264583"
         id="path999" />
      <path
         d="m 31.669577,56.73232 q 0.125468,-0.188201 0.30241,-0.09008 0.17855,0.09812 0.09169,0.307235 l -0.924922,1.651991 v 1.076126 q -0.01448,0.228415 -0.225198,0.228415 -0.209113,0 -0.22359,-0.228415 v -1.076126 l -0.923313,-1.651991 q -0.08525,-0.207504 0.08686,-0.304018 0.172116,-0.09812 0.307235,0.08686 l 0.754414,1.347973 z"
         style="stroke-width:0.264583"
         id="path1001" />
    </g>
    <g
       aria-label="CRAD 1"
       id="text934"
       style="font-size:3.29433px;line-height:1.25;font-family:'MS 33558';-inkscape-font-specification:'MS 33558, Normal';stroke-width:0.264583">
      <path
         d="m 20.945863,101.72781 -0.01448,0.0209 q -0.0048,0.006 -0.008,0.0113 -0.0032,0.005 -0.0064,0.01 -0.220372,0.29758 -0.579081,0.42466 -0.3571,0.12546 -0.704549,-0.0466 -0.403749,-0.20107 -0.593559,-0.68203 -0.188201,-0.48096 -0.162464,-0.99892 0.02735,-0.519561 0.273455,-0.953872 0.247718,-0.434311 0.717417,-0.543693 0.270238,-0.06273 0.538868,0.05308 0.268629,0.114207 0.440745,0.321711 0.0016,0 0.008,0.01126 0.07399,0.09651 0.03056,0.21233 -0.04343,0.114208 -0.159248,0.143162 -0.123859,0.03217 -0.228415,-0.07399 -0.215547,-0.250935 -0.415009,-0.241284 -0.199461,0.0097 -0.3571,0.164073 -0.157639,0.154422 -0.262195,0.395706 -0.104556,0.241288 -0.128685,0.452008 -0.02895,0.23485 0.0048,0.47291 0.03539,0.23646 0.146379,0.44557 0.193027,0.36676 0.485785,0.46005 0.294366,0.0917 0.574256,-0.2815 0.01287,-0.0161 0.03056,-0.0418 0.151205,-0.16729 0.318495,-0.0338 0.168899,0.1319 0.04987,0.29919 z"
         style="stroke-width:0.264583"
         id="path978" />
      <path
         d="m 23.426262,101.8935 q 0.102948,0.18176 -0.05791,0.30562 -0.07721,0.0547 -0.17855,0.037 -0.09973,-0.0177 -0.146379,-0.0997 l -0.79302,-1.25307 h -0.40214 v 1.13243 q 0,0.13994 -0.127076,0.20268 -0.127076,0.0611 -0.238067,-0.0241 -0.08847,-0.066 -0.08847,-0.17855 v -2.842328 q 0,-0.0933 0.06434,-0.159247 0.06595,-0.06595 0.160856,-0.06595 h 0.998915 q 0.360318,0 0.62573,0.230024 0.265412,0.228415 0.329755,0.58069 0.06756,0.378012 -0.160856,0.707762 -0.226807,0.32815 -0.60321,0.39893 l -0.03056,0.005 z m -0.807497,-1.46218 q 0.164073,0 0.302409,-0.0997 0.139945,-0.0997 0.188202,-0.26059 0.0756,-0.24772 -0.06917,-0.447181 -0.144771,-0.20107 -0.398923,-0.221981 h -0.79302 v 1.029482 z"
         style="stroke-width:0.264583"
         id="path980" />
      <path
         d="m 25.758673,101.18573 -0.489002,-1.35119 -0.492219,1.35119 z m -0.489002,-1.35119 0.489002,1.35119 z m -1.241808,2.09756 q 0.25737,-0.70937 0.514739,-1.41714 0.258979,-0.709374 0.517957,-1.418749 0.05308,-0.146379 0.210721,-0.147987 0.157639,-0.0016 0.21233,0.147987 l 1.031086,2.843929 q 0.04826,0.22681 -0.138336,0.29276 -0.186593,0.066 -0.287932,-0.13512 l -0.165682,-0.46004 H 24.61177 l -0.160855,0.44878 q -0.102948,0.20268 -0.292758,0.13351 -0.18981,-0.0708 -0.130294,-0.28793 z"
         style="stroke-width:0.264583"
         id="path982" />
      <path
         d="m 27.056781,98.948224 h 0.757631 q 0.564605,0 0.846103,0.514739 0.281498,0.514739 0.281498,1.132427 0,0.61769 -0.283107,1.13242 -0.281498,0.51474 -0.844494,0.51474 h -0.757631 0.0032 -0.0032 q -0.05308,-0.008 -0.05791,-0.01 -0.16729,-0.0402 -0.165682,-0.21876 h -0.0016 l 0.0016,-2.840718 q -0.0016,-0.0048 -0.0016,-0.01287 0.0048,-0.08847 0.06917,-0.149596 0.06595,-0.06273 0.157638,-0.06273 z m 0.757631,2.840716 q 0.0032,0 0.0064,0 0.0032,0 0.008,0 0.0032,0 0.0048,0 0.0032,-0.002 0.008,-0.002 0.0032,0 0.0064,0 0.0048,-0.002 0.0097,-0.002 0.0032,0 0.0064,0 0.0032,-0.002 0.008,-0.002 0.0032,0 0.0064,0 0.0032,-0.002 0.008,-0.002 0.0064,-0.003 0.01287,-0.003 0.0032,0 0.0064,-0.002 0.0032,-0.003 0.008,-0.005 0.0032,0 0.0064,0 0.0048,-0.002 0.0097,-0.003 0.0032,0 0.0064,-0.002 0.0032,-0.002 0.008,-0.003 0.0097,-0.003 0.01448,-0.006 0.02895,-0.01 0.01609,-0.006 0.0032,0 0.0064,-0.002 0.0032,-0.003 0.008,-0.005 0.01448,-0.01 0.01287,-0.008 0.01609,-0.008 0.01609,-0.008 0.0032,-0.002 0.0064,-0.003 0.0032,-0.003 0.008,-0.006 0.01448,-0.01 0.01448,-0.01 0.0032,-0.002 0.0064,-0.003 0.0048,-0.003 0.0097,-0.006 0.0032,-0.002 0.0064,-0.005 0.0032,-0.003 0.008,-0.006 0.0032,-0.002 0.0064,-0.003 0.0032,-0.003 0.008,-0.006 0.0032,-0.003 0.01609,-0.0129 0.01287,-0.0129 0.01287,-0.0129 0.0032,-0.003 0.0064,-0.006 0.0032,-0.003 0.008,-0.008 0.0032,-0.003 0.0064,-0.006 0.0032,-0.003 0.008,-0.008 0.0048,-0.003 0.01448,-0.0129 0.0032,-0.003 0.0064,-0.006 0.0032,-0.003 0.008,-0.008 0.0032,-0.003 0.0064,-0.006 0.0032,-0.005 0.008,-0.01 0.0193,-0.0257 0.01287,-0.0161 0.01126,-0.0113 0.01448,-0.0177 0.01448,-0.0193 0.01287,-0.0177 0.0032,-0.005 0.0064,-0.008 0.0032,-0.005 0.008,-0.01 0.0032,-0.005 0.0048,-0.01 0.0032,-0.005 0.008,-0.01 0.0016,-0.005 0.0048,-0.01 0.0048,-0.006 0.008,-0.0113 0.0097,-0.0129 0.01287,-0.0193 0.0032,-0.005 0.0048,-0.01 0.0032,-0.006 0.008,-0.0113 0.0032,-0.005 0.0048,-0.01 0.0032,-0.006 0.008,-0.0113 0.0032,-0.008 0.0097,-0.0209 0.0032,-0.005 0.0048,-0.0113 0.0032,-0.006 0.008,-0.0129 0.0032,-0.005 0.0048,-0.01 0.0032,-0.006 0.008,-0.0129 0.0016,-0.005 0.0032,-0.0113 0.0032,-0.006 0.0064,-0.0129 0.0048,-0.008 0.01126,-0.0241 0.01609,-0.0402 0.01126,-0.0257 0.0016,-0.005 0.0032,-0.0113 0.0032,-0.008 0.0064,-0.0145 0.0016,-0.006 0.0032,-0.0129 0.0032,-0.006 0.0064,-0.0145 0.0048,-0.0145 0.008,-0.0257 0.0016,-0.006 0.0032,-0.0129 0.0032,-0.006 0.0064,-0.0145 -0.0064,0.0161 0.008,-0.0274 0.0032,-0.008 0.0097,-0.0273 0,-0.006 0.0016,-0.0129 0.0032,-0.008 0.0048,-0.0161 0.0016,-0.006 0.0032,-0.0129 0.0016,-0.008 0.0048,-0.0161 0,-0.005 0.0016,-0.0113 0.0032,-0.008 0.0048,-0.0161 0.0016,-0.0113 0.0048,-0.0306 0,-0.006 0.0016,-0.0129 0.0032,-0.008 0.0048,-0.0161 0,-0.006 0.0016,-0.0129 0.0016,-0.008 0.0032,-0.0161 0.0016,-0.0113 0.0048,-0.0306 0,-0.006 0.0016,-0.0145 0.0032,-0.008 0.0048,-0.0161 0,-0.0113 0.0032,-0.0306 0,-0.006 0,-0.0129 0.0016,-0.008 0.0032,-0.0177 0.0032,-0.0193 0.0032,-0.0306 0.0016,-0.0113 0.0016,-0.0306 0.0016,-0.0113 0.0016,-0.0322 0.0016,-0.0113 0.0016,-0.0306 0,-0.008 0,-0.0145 0.0016,-0.008 0.0032,-0.0177 0,-0.006 0,-0.0129 0.0016,-0.008 0.0016,-0.0177 0,-0.006 0,-0.0145 0,-0.008 0,-0.0161 0,-0.008 0,-0.0145 0,-0.008 0,-0.0161 0,-0.008 -0.0016,-0.0145 0,-0.008 0,-0.0177 0,-0.006 0,-0.0145 0,-0.008 0,-0.0161 0,-0.01 -0.0032,-0.0322 0,-0.0193 -0.0016,-0.029 0,-0.0113 -0.0032,-0.0338 0,-0.0193 -0.0016,-0.029 0,-0.0113 -0.0032,-0.0306 -0.0016,-0.006 -0.0032,-0.0145 0,-0.008 0,-0.0161 -0.0032,-0.0193 -0.0064,-0.0306 -0.0016,-0.006 -0.0032,-0.0129 -0.0016,-0.008 -0.0016,-0.0161 -0.0016,-0.0113 -0.0048,-0.0306 -0.0016,-0.0113 -0.0048,-0.0306 -0.0064,-0.0193 -0.008,-0.029 -0.0032,-0.0193 -0.0048,-0.0273 -0.0032,-0.006 -0.0048,-0.0129 -0.0016,-0.008 -0.0032,-0.0161 -0.0016,-0.006 -0.0048,-0.0129 -0.0032,-0.008 -0.0032,-0.0161 -0.01448,-0.0434 -0.008,-0.0273 -0.0032,-0.0113 -0.008,-0.0273 -0.0032,-0.005 -0.0064,-0.0113 -0.0016,-0.008 -0.0032,-0.0145 -0.0016,-0.0048 -0.0097,-0.02734 -0.0064,-0.01609 -0.0097,-0.02574 -0.0032,-0.0048 -0.0064,-0.01126 -0.0016,-0.008 -0.0032,-0.01448 -0.0032,-0.0048 -0.0064,-0.01126 -0.0032,-0.0064 -0.0048,-0.01287 -0.0064,-0.01609 -0.01126,-0.02413 -0.0064,-0.01608 -0.0097,-0.02252 -0.0064,-0.01608 -0.01126,-0.02413 -0.0032,-0.0048 -0.0064,-0.0097 -0.0032,-0.0064 -0.0048,-0.01126 -0.0097,-0.01609 -0.01287,-0.02252 -0.01448,-0.02252 -0.01287,-0.02091 -0.0048,-0.0048 -0.008,-0.0097 -0.0016,-0.0064 -0.0048,-0.01126 -0.0032,-0.0064 -0.01287,-0.0193 -0.0032,-0.0048 -0.0064,-0.0097 -0.0032,-0.0048 -0.0048,-0.0097 -0.008,-0.01448 -0.02735,-0.037 -0.0032,-0.0032 -0.02574,-0.03539 -0.0193,-0.02252 -0.02895,-0.03217 -0.0097,-0.01126 -0.02895,-0.03056 -0.01287,-0.01448 -0.02735,-0.02735 -0.01126,-0.008 -0.03056,-0.02413 -0.01609,-0.01287 -0.03056,-0.02413 -0.037,-0.02413 -0.03056,-0.02091 -0.03217,-0.0193 -0.02895,-0.01769 0,0 -0.02895,-0.01448 -0.0064,-0.0032 -0.03056,-0.01126 -0.02091,-0.008 -0.03056,-0.01126 -0.008,-0.0016 -0.01448,-0.0032 -0.0064,-0.0032 -0.01287,-0.0064 -0.02895,-0.0048 -0.02895,-0.0048 -0.0097,-0.0016 -0.02895,-0.0016 -0.0048,0 -0.008,0 -0.0032,0 -0.0064,0 h -0.530824 v 2.387102 0 z"
         style="stroke-width:0.264583"
         id="path984" />
      <path
         d="m 31.103356,102.01414 q 0,0.0209 -0.0048,0.045 -0.03861,0.18177 -0.225199,0.18177 -0.136727,0 -0.202678,-0.12708 -0.01448,-0.0241 -0.02413,-0.0997 v -2.837501 q 0.0048,-0.0386 0.01126,-0.07238 0.008,-0.03539 0.03539,-0.06756 0.06434,-0.07882 0.165681,-0.08525 0.101339,-0.008 0.175333,0.06434 0.03861,0.03861 0.04987,0.07399 0.01126,0.03539 0.0193,0.08686 z"
         style="stroke-width:0.264583"
         id="path986" />
    </g>
    <g
       aria-label="CRAD 2"
       id="text938"
       style="font-size:3.29433px;line-height:1.25;font-family:'MS 33558';-inkscape-font-specification:'MS 33558, Normal';stroke-width:0.264583">
      <path
         d="m 20.214683,125.91829 -0.01448,0.0209 q -0.0048,0.006 -0.008,0.0113 -0.0032,0.005 -0.0064,0.01 -0.220373,0.29759 -0.579081,0.42466 -0.357101,0.12547 -0.704549,-0.0466 -0.403749,-0.20107 -0.593559,-0.68203 -0.188201,-0.48095 -0.162464,-0.99891 0.02735,-0.51957 0.273455,-0.95388 0.247718,-0.43431 0.717417,-0.54369 0.270238,-0.0627 0.538868,0.0531 0.268629,0.11421 0.440745,0.32171 0.0016,0 0.008,0.0113 0.07399,0.0965 0.03056,0.21233 -0.04343,0.11421 -0.159247,0.14317 -0.123859,0.0322 -0.228415,-0.074 -0.215547,-0.25093 -0.415009,-0.24128 -0.199461,0.01 -0.3571,0.16407 -0.157639,0.15442 -0.262195,0.39571 -0.104557,0.24128 -0.128685,0.452 -0.02895,0.23485 0.0048,0.47292 0.03539,0.23646 0.146379,0.44557 0.193027,0.36675 0.485785,0.46005 0.294366,0.0917 0.574255,-0.2815 0.01287,-0.0161 0.03056,-0.0418 0.151205,-0.16729 0.318495,-0.0338 0.168899,0.1319 0.04987,0.29919 z"
         style="stroke-width:0.264583"
         id="path967" />
      <path
         d="m 22.695082,126.08397 q 0.102948,0.18177 -0.05791,0.30563 -0.07721,0.0547 -0.17855,0.037 -0.09973,-0.0177 -0.146379,-0.0997 l -0.79302,-1.25306 h -0.40214 v 1.13242 q 0,0.13995 -0.127076,0.20268 -0.127076,0.0611 -0.238067,-0.0241 -0.08847,-0.066 -0.08847,-0.17855 v -2.84232 q 0,-0.0933 0.06434,-0.15925 0.06595,-0.066 0.160856,-0.066 h 0.998915 q 0.360317,0 0.62573,0.23002 0.265412,0.22842 0.329754,0.58069 0.06756,0.37801 -0.160856,0.70777 -0.226806,0.32815 -0.603209,0.39892 l -0.03056,0.005 z m -0.807497,-1.46218 q 0.164073,0 0.302409,-0.0997 0.139945,-0.0997 0.188202,-0.26059 0.0756,-0.24771 -0.06917,-0.44718 -0.144771,-0.20107 -0.398923,-0.22198 h -0.79302 v 1.02948 z"
         style="stroke-width:0.264583"
         id="path969" />
      <path
         d="m 25.027493,125.37621 -0.489002,-1.35119 -0.492219,1.35119 z m -0.489002,-1.35119 0.489002,1.35119 z m -1.241808,2.09756 q 0.25737,-0.70938 0.514739,-1.41714 0.258978,-0.70938 0.517956,-1.41875 0.05308,-0.14638 0.210722,-0.14799 0.157639,-0.002 0.21233,0.14799 l 1.031086,2.84393 q 0.04826,0.22681 -0.138336,0.29276 -0.186593,0.066 -0.287932,-0.13512 l -0.165682,-0.46005 H 23.88059 l -0.160856,0.44879 q -0.102947,0.20268 -0.292757,0.13351 -0.189811,-0.0708 -0.130294,-0.28793 z"
         style="stroke-width:0.264583"
         id="path971" />
      <path
         d="m 26.325601,123.1387 h 0.757631 q 0.564605,0 0.846103,0.51474 0.281497,0.51474 0.281497,1.13242 0,0.61769 -0.283106,1.13243 -0.281498,0.51474 -0.844494,0.51474 h -0.757631 0.0032 -0.0032 q -0.05308,-0.008 -0.05791,-0.01 -0.167291,-0.0402 -0.165682,-0.21877 h -0.0016 l 0.0016,-2.84071 q -0.0016,-0.005 -0.0016,-0.0129 0.0048,-0.0885 0.06917,-0.1496 0.06595,-0.0627 0.157639,-0.0627 z m 0.757631,2.84072 q 0.0032,0 0.0064,0 0.0032,0 0.008,0 0.0032,0 0.0048,0 0.0032,-0.002 0.008,-0.002 0.0032,0 0.0064,0 0.0048,-0.002 0.0097,-0.002 0.0032,0 0.0064,0 0.0032,-0.002 0.008,-0.002 0.0032,0 0.0064,0 0.0032,-0.002 0.008,-0.002 0.0064,-0.003 0.01287,-0.003 0.0032,0 0.0064,-0.002 0.0032,-0.003 0.008,-0.005 0.0032,0 0.0064,0 0.0048,-0.002 0.0097,-0.003 0.0032,0 0.0064,-0.002 0.0032,-0.002 0.008,-0.003 0.0097,-0.003 0.01448,-0.006 0.02895,-0.01 0.01609,-0.006 0.0032,0 0.0064,-0.002 0.0032,-0.003 0.008,-0.005 0.01448,-0.01 0.01287,-0.008 0.01609,-0.008 0.01609,-0.008 0.0032,-0.002 0.0064,-0.003 0.0032,-0.003 0.008,-0.006 0.01448,-0.01 0.01448,-0.01 0.0032,-0.002 0.0064,-0.003 0.0048,-0.003 0.0097,-0.006 0.0032,-0.002 0.0064,-0.005 0.0032,-0.003 0.008,-0.006 0.0032,-0.002 0.0064,-0.003 0.0032,-0.003 0.008,-0.006 0.0032,-0.003 0.01609,-0.0129 0.01287,-0.0129 0.01287,-0.0129 0.0032,-0.003 0.0064,-0.006 0.0032,-0.003 0.008,-0.008 0.0032,-0.003 0.0064,-0.006 0.0032,-0.003 0.008,-0.008 0.0048,-0.003 0.01448,-0.0129 0.0032,-0.003 0.0064,-0.006 0.0032,-0.003 0.008,-0.008 0.0032,-0.003 0.0064,-0.006 0.0032,-0.005 0.008,-0.01 0.0193,-0.0257 0.01287,-0.0161 0.01126,-0.0113 0.01448,-0.0177 0.01448,-0.0193 0.01287,-0.0177 0.0032,-0.005 0.0064,-0.008 0.0032,-0.005 0.008,-0.01 0.0032,-0.005 0.0048,-0.01 0.0032,-0.005 0.008,-0.01 0.0016,-0.005 0.0048,-0.01 0.0048,-0.006 0.008,-0.0113 0.0097,-0.0129 0.01287,-0.0193 0.0032,-0.005 0.0048,-0.01 0.0032,-0.006 0.008,-0.0113 0.0032,-0.005 0.0048,-0.01 0.0032,-0.006 0.008,-0.0113 0.0032,-0.008 0.0097,-0.0209 0.0032,-0.005 0.0048,-0.0113 0.0032,-0.006 0.008,-0.0129 0.0032,-0.005 0.0048,-0.01 0.0032,-0.006 0.008,-0.0129 0.0016,-0.005 0.0032,-0.0113 0.0032,-0.006 0.0064,-0.0129 0.0048,-0.008 0.01126,-0.0241 0.01609,-0.0402 0.01126,-0.0257 0.0016,-0.005 0.0032,-0.0113 0.0032,-0.008 0.0064,-0.0145 0.0016,-0.006 0.0032,-0.0129 0.0032,-0.006 0.0064,-0.0145 0.0048,-0.0145 0.008,-0.0257 0.0016,-0.006 0.0032,-0.0129 0.0032,-0.006 0.0064,-0.0145 -0.0064,0.0161 0.008,-0.0273 0.0032,-0.008 0.0097,-0.0273 0,-0.006 0.0016,-0.0129 0.0032,-0.008 0.0048,-0.0161 0.0016,-0.006 0.0032,-0.0129 0.0016,-0.008 0.0048,-0.0161 0,-0.005 0.0016,-0.0113 0.0032,-0.008 0.0048,-0.0161 0.0016,-0.0113 0.0048,-0.0306 0,-0.006 0.0016,-0.0129 0.0032,-0.008 0.0048,-0.0161 0,-0.006 0.0016,-0.0129 0.0016,-0.008 0.0032,-0.0161 0.0016,-0.0113 0.0048,-0.0306 0,-0.006 0.0016,-0.0145 0.0032,-0.008 0.0048,-0.0161 0,-0.0113 0.0032,-0.0306 0,-0.006 0,-0.0129 0.0016,-0.008 0.0032,-0.0177 0.0032,-0.0193 0.0032,-0.0306 0.0016,-0.0113 0.0016,-0.0306 0.0016,-0.0113 0.0016,-0.0322 0.0016,-0.0113 0.0016,-0.0306 0,-0.008 0,-0.0145 0.0016,-0.008 0.0032,-0.0177 0,-0.006 0,-0.0129 0.0016,-0.008 0.0016,-0.0177 0,-0.006 0,-0.0145 0,-0.008 0,-0.0161 0,-0.008 0,-0.0145 0,-0.008 0,-0.0161 0,-0.008 -0.0016,-0.0145 0,-0.008 0,-0.0177 0,-0.006 0,-0.0145 0,-0.008 0,-0.0161 0,-0.01 -0.0032,-0.0322 0,-0.0193 -0.0016,-0.029 0,-0.0113 -0.0032,-0.0338 0,-0.0193 -0.0016,-0.029 0,-0.0113 -0.0032,-0.0306 -0.0016,-0.006 -0.0032,-0.0145 0,-0.008 0,-0.0161 -0.0032,-0.0193 -0.0064,-0.0306 -0.0016,-0.006 -0.0032,-0.0129 -0.0016,-0.008 -0.0016,-0.0161 -0.0016,-0.0113 -0.0048,-0.0306 -0.0016,-0.0113 -0.0048,-0.0306 -0.0064,-0.0193 -0.008,-0.0289 -0.0032,-0.0193 -0.0048,-0.0273 -0.0032,-0.006 -0.0048,-0.0129 -0.0016,-0.008 -0.0032,-0.0161 -0.0016,-0.006 -0.0048,-0.0129 -0.0032,-0.008 -0.0032,-0.0161 -0.01448,-0.0434 -0.008,-0.0273 -0.0032,-0.0113 -0.008,-0.0273 -0.0032,-0.005 -0.0064,-0.0113 -0.0016,-0.008 -0.0032,-0.0145 -0.0016,-0.005 -0.0097,-0.0274 -0.0064,-0.0161 -0.0097,-0.0257 -0.0032,-0.005 -0.0064,-0.0113 -0.0016,-0.008 -0.0032,-0.0145 -0.0032,-0.005 -0.0064,-0.0113 -0.0032,-0.006 -0.0048,-0.0129 -0.0064,-0.0161 -0.01126,-0.0241 -0.0064,-0.0161 -0.0097,-0.0225 -0.0064,-0.0161 -0.01126,-0.0241 -0.0032,-0.005 -0.0064,-0.01 -0.0032,-0.006 -0.0048,-0.0113 -0.0097,-0.0161 -0.01287,-0.0225 -0.01448,-0.0225 -0.01287,-0.0209 -0.0048,-0.005 -0.008,-0.01 -0.0016,-0.006 -0.0048,-0.0113 -0.0032,-0.006 -0.01287,-0.0193 -0.0032,-0.005 -0.0064,-0.01 -0.0032,-0.005 -0.0048,-0.01 -0.008,-0.0145 -0.02735,-0.037 -0.0032,-0.003 -0.02574,-0.0354 -0.0193,-0.0225 -0.02895,-0.0322 -0.0097,-0.0113 -0.02895,-0.0306 -0.01287,-0.0145 -0.02735,-0.0273 -0.01126,-0.008 -0.03056,-0.0241 -0.01609,-0.0129 -0.03056,-0.0241 -0.037,-0.0241 -0.03056,-0.0209 -0.03217,-0.0193 -0.02895,-0.0177 0,0 -0.02895,-0.0145 -0.0064,-0.003 -0.03056,-0.0113 -0.02091,-0.008 -0.03056,-0.0113 -0.008,-0.002 -0.01448,-0.003 -0.0064,-0.003 -0.01287,-0.006 -0.02895,-0.005 -0.02895,-0.005 -0.0097,-0.002 -0.02895,-0.002 -0.0048,0 -0.008,0 -0.0032,0 -0.0064,0 h -0.530824 v 2.38711 0 z"
         style="stroke-width:0.264583"
         id="path973" />
      <path
         d="m 30.143761,126.43142 q -0.09491,0 -0.162465,-0.066 -0.06595,-0.066 -0.06595,-0.16246 0,-0.003 0.01609,-0.10134 0.01769,-0.0997 0.02091,-0.11421 0.08204,-0.3941 0.318495,-0.74959 0.238067,-0.35549 0.574256,-0.5823 0.119033,-0.0804 0.215547,-0.16729 0.09812,-0.0885 0.199461,-0.19785 0.130293,-0.14799 0.112599,-0.33619 -0.01608,-0.1882 -0.186593,-0.29758 -0.209113,-0.1303 -0.42466,-0.006 -0.215546,0.12386 -0.205895,0.36997 0,0.005 0,0.0113 0.0016,0.005 0.0016,0.01 0.0097,0.074 -0.03539,0.14477 -0.04504,0.0692 -0.114208,0.0901 -0.106165,0.0338 -0.197852,-0.0209 -0.09008,-0.0547 -0.102948,-0.16086 -0.0048,-0.0145 -0.0016,-0.11903 0.0048,-0.10456 0.0097,-0.12225 0.07239,-0.39571 0.415008,-0.59517 0.344232,-0.20107 0.72546,-0.0708 0.452005,0.15763 0.551736,0.61607 0.09973,0.45844 -0.215547,0.80107 -0.06434,0.0692 -0.130293,0.13672 -0.06434,0.066 -0.138336,0.12708 -0.115817,0.0965 -0.244501,0.17855 -0.127076,0.082 -0.228416,0.19303 -0.115816,0.12868 -0.218764,0.2831 -0.101339,0.15443 -0.160856,0.31689 -0.0048,0.01 -0.02574,0.0708 -0.0193,0.0611 -0.0193,0.066 h 1.193551 q 0.221981,0.0145 0.215547,0.23485 -0.0064,0.22037 -0.22359,0.22037 z"
         style="stroke-width:0.264583"
         id="path975" />
    </g>
    <g
       aria-label="P
L
A
I
N"
       id="text942"
       style="font-size:3.29433px;line-height:1.25;font-family:'MS 33558';-inkscape-font-specification:'MS 33558, Normal';text-align:center;text-anchor:middle;stroke-width:0.264583">
      <path
         d="m 14.494692,102.25552 h 0.03056 q 0.205895,0.0145 0.37962,0.0933 0.332972,0.15603 0.471308,0.51313 0.138336,0.3571 -0.0032,0.6965 -0.114208,0.26863 -0.337798,0.42145 -0.22359,0.1512 -0.509913,0.1689 l -0.03056,0.002 h -0.78176 v 1.17264 q -0.02895,0.22681 -0.228415,0.22681 -0.199462,0 -0.226807,-0.22681 v -2.84232 q 0.02413,-0.19946 0.21233,-0.2252 h 0.01448 z m 0,0.45361 h -0.78176 v 0.98605 h 0.78176 q 0.183376,0 0.323321,-0.12225 0.141553,-0.12225 0.165681,-0.30563 0.02895,-0.22198 -0.119033,-0.38927 -0.147988,-0.1689 -0.369969,-0.1689 z"
         style="text-align:center;text-anchor:middle;stroke-width:0.264583"
         id="path956" />
      <path
         d="m 13.496581,109.66937 q -0.197853,-0.0129 -0.228415,-0.22359 v -2.84393 q 0.03378,-0.23163 0.234849,-0.22681 0.20107,0.003 0.218764,0.22681 v 2.61873 l 1.484701,-0.002 q 0.228415,0.0257 0.225198,0.23164 -0.0016,0.20428 -0.226807,0.21876 z"
         style="text-align:center;text-anchor:middle;stroke-width:0.264583"
         id="path958" />
      <path
         d="m 14.913722,112.72885 -0.489002,-1.35119 -0.492219,1.35119 z m -0.489002,-1.35119 0.489002,1.35119 z m -1.241808,2.09756 q 0.257369,-0.70937 0.514739,-1.41714 0.258978,-0.70937 0.517956,-1.41875 0.05308,-0.14638 0.210721,-0.14798 0.157639,-0.002 0.21233,0.14798 l 1.031087,2.84394 q 0.04826,0.2268 -0.138336,0.29275 -0.186593,0.066 -0.287932,-0.13512 l -0.165682,-0.46004 h -1.310976 l -0.160856,0.44878 q -0.102948,0.20268 -0.292758,0.13352 -0.18981,-0.0708 -0.130293,-0.28794 z"
         style="text-align:center;text-anchor:middle;stroke-width:0.264583"
         id="path960" />
      <path
         d="m 14.579142,117.68161 q -0.03539,0.2268 -0.230024,0.22519 -0.193028,0 -0.226807,-0.22519 v -2.84394 q 0.03378,-0.2268 0.226807,-0.2268 0.194635,-0.002 0.230024,0.2268 z"
         style="text-align:center;text-anchor:middle;stroke-width:0.264583"
         id="path962" />
      <path
         d="m 15.459024,121.79952 q 0,0.1689 -0.164073,0.21555 -0.162465,0.045 -0.252544,-0.0965 l -1.35119,-2.16673 v 2.0477 q -0.03539,0.2252 -0.228416,0.2252 -0.191418,0 -0.225198,-0.2252 v -2.84072 q 0.02413,-0.16729 0.170507,-0.22037 0.147988,-0.0531 0.24611,0.0997 l 1.35119,2.16995 v -2.04931 q 0.03056,-0.23002 0.233241,-0.2268 0.204287,0.002 0.220373,0.2268 z"
         style="text-align:center;text-anchor:middle;stroke-width:0.264583"
         id="path964" />
    </g>
    <path
       style="fill:none;stroke:#000000;stroke-width:1;stroke-linecap:butt;stroke-linejoin:miter;stroke-opacity:1;stroke-miterlimit:4;stroke-dasharray:none"
       d="m 6.6145832,63.499999 c 37.0416658,0 37.0416658,0 37.0416658,0"
       id="path954" />
  </g>
</svg>
