<?xml version="1.0" encoding="UTF-8" standalone="no"?>
<svg
   xmlns:dc="http://purl.org/dc/elements/1.1/"
   xmlns:cc="http://creativecommons.org/ns#"
   xmlns:rdf="http://www.w3.org/1999/02/22-rdf-syntax-ns#"
   xmlns:svg="http://www.w3.org/2000/svg"
   xmlns="http://www.w3.org/2000/svg"
   xmlns:sodipodi="http://sodipodi.sourceforge.net/DTD/sodipodi-0.dtd"
   xmlns:inkscape="http://www.inkscape.org/namespaces/inkscape"
   width="210mm"
   height="297mm"
   viewBox="0 0 210 297"
   version="1.1"
   id="svg8"
   inkscape:version="1.0.1 (3bc2e813f5, 2020-09-07)"
   sodipodi:docname="oxy_press_engrave.svg">
  <defs
     id="defs2">
    <inkscape:path-effect
       effect="skeletal"
       id="path-effect1821"
       is_visible="true"
       lpeversion="1"
       pattern="m 75,240 v 25 z m 15,0 v 25 z m 15,0 v 25 z m 15,0 v 25 z m 15,0 v 25 z m 15,0 v 25 z m 15,0 v 25 z m 15,0 v 25 z m 15,0 v 25 z m 15,0 v 25 z m 15,0 v 25 z m 15,0 v 25 z m 15,0 v 25 z m 15,0 v 25 z m 15,0 v 25 z m 15,0 v 25 z m 15,0 v 25 z m 15,0 v 25 z m 15,0 v 25 z m 15,0 v 25 z m 15,0 v 25 z m 15,0 v 25 z m 15,0 v 25 z m 15,0 v 25 z m 15,0 v 25 z m 15,0 v 25 z m 15,0 v 25 z m 15,0 v 25 z m 15,0 v 25 z m 15,0 v 25 z m 15,0 v 25 z m 15,0 v 25 z m 15,0 v 25 z m 15,0 v 25 z m 15,0 v 25 z m 15,0 v 25 z m 15,0 v 25 z m 15,0 v 25 z m 15,0 v 25 z m 15,0 v 25 z m 15,0 v 25 z"
       copytype="single_stretched"
       prop_scale="0.2"
       scale_y_rel="false"
       spacing="0"
       normal_offset="0"
       tang_offset="0"
       prop_units="false"
       vertical_pattern="false"
       hide_knot="false"
       fuse_tolerance="0" />
    <inkscape:path-effect
       effect="skeletal"
       id="path-effect1635"
       is_visible="true"
       lpeversion="1"
       pattern="M 0,0 H 1"
       copytype="single_stretched"
       prop_scale="1"
       scale_y_rel="false"
       spacing="0"
       normal_offset="0"
       tang_offset="0"
       prop_units="false"
       vertical_pattern="false"
       hide_knot="false"
       fuse_tolerance="0" />
    <inkscape:path-effect
       effect="skeletal"
       id="path-effect1633"
       is_visible="true"
       lpeversion="1"
       pattern="M 0,0 H 1"
       copytype="single_stretched"
       prop_scale="1"
       scale_y_rel="false"
       spacing="0"
       normal_offset="0"
       tang_offset="0"
       prop_units="false"
       vertical_pattern="false"
       hide_knot="false"
       fuse_tolerance="0" />
    <inkscape:path-effect
       effect="skeletal"
       id="path-effect1493"
       is_visible="true"
       lpeversion="1"
       pattern="M 0,0 H 1"
       copytype="single_stretched"
       prop_scale="1"
       scale_y_rel="false"
       spacing="0"
       normal_offset="0"
       tang_offset="0"
       prop_units="false"
       vertical_pattern="false"
       hide_knot="false"
       fuse_tolerance="0" />
    <inkscape:path-effect
       effect="skeletal"
       id="path-effect1214"
       is_visible="true"
       lpeversion="1"
       pattern="M 0,0 H 1"
       copytype="single_stretched"
       prop_scale="1"
       scale_y_rel="false"
       spacing="0"
       normal_offset="0"
       tang_offset="0"
       prop_units="false"
       vertical_pattern="false"
       hide_knot="false"
       fuse_tolerance="0" />
    <marker
       id="DistanceX"
       orient="auto"
       refX="0.0"
       refY="0.0"
       style="overflow:visible">
      <path
         d="M 3,-3 L -3,3 M 0,-5 L  0,5"
         style="stroke:#000000; stroke-width:0.5"
         id="path833" />
    </marker>
    <pattern
       id="Hatch"
       patternUnits="userSpaceOnUse"
       width="8"
       height="8"
       x="0"
       y="0">
      <path
         d="M8 4 l-4,4"
         stroke="#000000"
         stroke-width="0.25"
         linecap="square"
         id="path836" />
      <path
         d="M6 2 l-4,4"
         stroke="#000000"
         stroke-width="0.25"
         linecap="square"
         id="path838" />
      <path
         d="M4 0 l-4,4"
         stroke="#000000"
         stroke-width="0.25"
         linecap="square"
         id="path840" />
    </pattern>
    <symbol
       id="*Model_Space" />
    <symbol
       id="*Paper_Space" />
  </defs>
  <sodipodi:namedview
     id="base"
     pagecolor="#ffffff"
     bordercolor="#666666"
     borderopacity="1.0"
     inkscape:pageopacity="0.0"
     inkscape:pageshadow="2"
     inkscape:zoom="5.6568542"
     inkscape:cx="116.70901"
     inkscape:cy="155.23386"
     inkscape:document-units="mm"
     inkscape:current-layer="layer1"
     inkscape:document-rotation="0"
     showgrid="true"
     inkscape:snap-grids="false"
     inkscape:snap-to-guides="false"
     inkscape:snap-others="false"
     inkscape:snap-nodes="false"
     inkscape:window-width="1918"
     inkscape:window-height="2071"
     inkscape:window-x="-8"
     inkscape:window-y="0"
     inkscape:window-maximized="0">
    <inkscape:grid
       type="xygrid"
       id="grid886" />
  </sodipodi:namedview>
  <metadata
     id="metadata5">
    <rdf:RDF>
      <cc:Work
         rdf:about="">
        <dc:format>image/svg+xml</dc:format>
        <dc:type
           rdf:resource="http://purl.org/dc/dcmitype/StillImage" />
        <dc:title />
      </cc:Work>
    </rdf:RDF>
  </metadata>
  <g
     inkscape:label="Lag 1"
     inkscape:groupmode="layer"
     id="layer1">
    <g
       aria-label="60"
       id="text2182-4-7-4"
       style="font-style:normal;font-variant:normal;font-weight:normal;font-stretch:normal;font-size:1.41111px;line-height:1.25;font-family:'MS 33558';-inkscape-font-specification:'MS 33558, Normal';font-variant-ligatures:normal;font-variant-caps:normal;font-variant-numeric:normal;font-variant-east-asian:normal;stroke-width:0.264583">
      <path
         d="m 19.67503,16.096178 0.0014,-0.0083 q 0.009,-0.04685 0.0186,-0.09302 0.01034,-0.04616 0.02618,-0.09164 0.02205,-0.06959 0.05099,-0.131602 0.07579,-0.168121 0.181212,-0.292144 0.105419,-0.124712 0.248735,-0.232199 l 0.0069,-0.0048 q 0.07028,-0.04685 0.126779,0.01447 0.0565,0.06132 0.0048,0.126779 -0.009,0.01103 -0.01998,0.01792 -0.08062,0.06063 -0.152963,0.130224 -0.07166,0.06959 -0.126779,0.154341 -0.01102,0.01791 -0.01722,0.02618 l -0.0034,0.0062 -0.0041,0.0069 0.0048,-0.0014 0.0048,-6.89e-4 q 0.08888,-0.0124 0.156407,-0.0069 0.06821,0.0048 0.152962,0.04272 0.121956,0.05581 0.194303,0.183279 0.07304,0.126779 0.0627,0.259071 -0.0021,0.02067 -0.0021,0.01998 -0.01171,0.0689 -0.03514,0.132292 -0.02274,0.06339 -0.07028,0.116444 -0.179834,0.199126 -0.441661,0.157096 -0.194303,-0.03238 -0.295589,-0.192925 -0.100597,-0.161231 -0.07235,-0.338308 z m 0.217041,0.197059 q 0.02136,0.05374 0.08061,0.09646 0.05994,0.04203 0.117133,0.04823 0.104042,0.01102 0.183968,-0.03858 0.122646,-0.07717 0.122646,-0.225998 6.89e-4,-0.148828 -0.122646,-0.225998 -0.121956,-0.0751 -0.250113,-0.01929 -0.10542,0.04685 -0.144694,0.15434 -0.03858,0.107487 0.01309,0.21084 z"
         style="font-style:normal;font-variant:normal;font-weight:normal;font-stretch:normal;font-size:1.41111px;font-family:'MS 33558';-inkscape-font-specification:'MS 33558, Normal';font-variant-ligatures:normal;font-variant-caps:normal;font-variant-numeric:normal;font-variant-east-asian:normal;stroke-width:0.264583"
         id="path908" />
      <path
         d="m 21.192249,15.224569 q 0.15434,0 0.252181,0.128158 0.09784,0.128157 0.135736,0.260449 0.01585,0.05788 0.02756,0.121267 0.03514,0.188102 0,0.412033 -0.03445,0.223931 -0.164675,0.371381 -0.104731,0.117822 -0.242535,0.117822 -0.211528,0 -0.318326,-0.220486 -0.106109,-0.220486 -0.107487,-0.485069 -6.89e-4,-0.264583 0.103353,-0.485069 0.104041,-0.220486 0.314192,-0.220486 z m 0.0048,0.194992 q -0.08199,0.01654 -0.130224,0.09371 -0.04754,0.07717 -0.07028,0.1757 -0.02274,0.09853 -0.02481,0.199126 -0.0021,0.100597 0.0076,0.163297 0.0083,0.05926 0.03927,0.152963 0.03101,0.09302 0.07786,0.160541 0.04754,0.06684 0.108176,0.07717 0.06063,0.0096 0.128847,-0.09784 0.05168,-0.08268 0.07717,-0.21015 0.02549,-0.127469 0.01791,-0.260449 -0.0076,-0.132981 -0.05099,-0.250803 -0.04272,-0.117822 -0.126779,-0.181901 -0.02549,-0.01791 -0.04823,-0.02136 -6.89e-4,0 -0.0021,0 -6.89e-4,0 -0.0034,0 z"
         style="font-style:normal;font-variant:normal;font-weight:normal;font-stretch:normal;font-size:1.41111px;font-family:'MS 33558';-inkscape-font-specification:'MS 33558, Normal';font-variant-ligatures:normal;font-variant-caps:normal;font-variant-numeric:normal;font-variant-east-asian:normal;stroke-width:0.264583"
         id="path910" />
    </g>
    <g
       inkscape:label="0"
       id="g851"
       transform="matrix(0.26458333,0,0,0.26458333,6.9583338,-253.30952)"
       style="stroke:#ff0000">
      <path
         d="M 0,1122.5197 H 147.40157 V 975.11811 H 0 Z"
         style="fill:none;stroke:#ff0000;stroke-linecap:round"
         id="path847" />
      <path
         d="m 137.95276,1048.8189 a 64.25197,64.25197 0 1 0 -128.503941,0 64.25197,64.25197 0 1 0 128.503941,0 z"
         style="fill:none;stroke:#ff0000;stroke-linecap:round"
         id="path849" />
    </g>
    <g
       aria-label="OXYGEN
SUPPLY
PRESSURE"
       id="text880"
       style="font-style:normal;font-variant:normal;font-weight:normal;font-stretch:normal;font-size:1.76389px;line-height:1.25;font-family:'MS 33558';-inkscape-font-specification:'MS 33558, Normal';font-variant-ligatures:normal;font-variant-caps:normal;font-variant-numeric:normal;font-variant-east-asian:normal;text-align:center;text-anchor:middle;stroke-width:0.264583">
      <path
         d="m 23.303114,29.019295 q 0.07924,0.238573 0.05943,0.495233 -0.01895,0.256659 -0.140388,0.468533 -0.07665,0.131775 -0.20929,0.223931 -0.132636,0.09216 -0.292833,0.0646 -0.260966,-0.04565 -0.399631,-0.272163 -0.138666,-0.226515 -0.159336,-0.503845 -0.01981,-0.278192 0.07493,-0.541742 0.0956,-0.26355 0.30403,-0.383267 0.10163,-0.05857 0.212734,-0.05857 0.211874,0 0.346233,0.160197 0.134358,0.159336 0.204122,0.347094 z m -0.543465,-0.262689 q -0.158474,0 -0.240295,0.170532 -0.08096,0.170533 -0.102492,0.291111 -0.01636,0.08785 -0.01206,0.212735 0.0043,0.124885 0.03617,0.247186 0.03187,0.121439 0.0956,0.219625 0.06374,0.09732 0.167088,0.129191 0.120578,0.0379 0.207567,-0.04737 0.08785,-0.08613 0.132636,-0.18259 0.04565,-0.09905 0.06201,-0.260105 0.01722,-0.161059 -0.0078,-0.321256 -0.02412,-0.161058 -0.0956,-0.289388 -0.07149,-0.129191 -0.203261,-0.164503 -0.01722,-0.0052 -0.03962,-0.0052 z"
         style="font-style:normal;font-variant:normal;font-weight:normal;font-stretch:normal;font-size:1.76389px;font-family:'MS 33558';-inkscape-font-specification:'MS 33558, Normal';font-variant-ligatures:normal;font-variant-caps:normal;font-variant-numeric:normal;font-variant-east-asian:normal;text-align:center;text-anchor:middle;stroke-width:0.264583"
         id="path974" />
      <path
         d="m 23.607143,30.095027 0.46595,-0.833714 -0.31781,-0.569303 q -0.04565,-0.112826 0.04737,-0.164503 0.09302,-0.05254 0.165364,0.04651 l 0.24288,0.438389 0.244602,-0.438389 q 0.07235,-0.09905 0.164503,-0.04737 0.09216,0.05168 0.04823,0.166226 l -0.316949,0.568441 0.465088,0.833714 q 0.04651,0.113688 -0.04823,0.166225 -0.09474,0.05168 -0.16278,-0.04909 l -0.394464,-0.7028 -0.390157,0.7028 q -0.07493,0.09819 -0.167949,0.04737 -0.09216,-0.05082 -0.04565,-0.164503 z"
         style="font-style:normal;font-variant:normal;font-weight:normal;font-stretch:normal;font-size:1.76389px;font-family:'MS 33558';-inkscape-font-specification:'MS 33558, Normal';font-variant-ligatures:normal;font-variant-caps:normal;font-variant-numeric:normal;font-variant-east-asian:normal;text-align:center;text-anchor:middle;stroke-width:0.264583"
         id="path976" />
      <path
         d="m 26.052302,28.574877 q 0.06718,-0.100769 0.161919,-0.04823 0.0956,0.05254 0.04909,0.164503 l -0.495233,0.884529 v 0.576193 q -0.0078,0.122301 -0.120578,0.122301 -0.111966,0 -0.119718,-0.122301 v -0.576193 l -0.494371,-0.884529 q -0.04565,-0.111104 0.04651,-0.162781 0.09216,-0.05254 0.164503,0.04651 l 0.403938,0.721748 z"
         style="font-style:normal;font-variant:normal;font-weight:normal;font-stretch:normal;font-size:1.76389px;font-family:'MS 33558';-inkscape-font-specification:'MS 33558, Normal';font-variant-ligatures:normal;font-variant-caps:normal;font-variant-numeric:normal;font-variant-east-asian:normal;text-align:center;text-anchor:middle;stroke-width:0.264583"
         id="path978" />
      <path
         d="m 27.078941,29.565343 -0.0078,-8.62e-4 q -0.105075,-0.01292 -0.105075,-0.119717 0,-0.106798 0.105075,-0.119717 l 0.0078,-0.0017 h 0.0078 0.317811 q 0.04995,0 0.08527,0.03617 0.03617,0.03531 0.03617,0.08527 v 0.436666 l -0.01034,0.02239 -0.006,0.01378 -0.006,0.01292 -0.0069,0.01292 -0.0069,0.01292 -0.006,0.01292 -0.0069,0.01292 -0.0078,0.01292 q -0.167087,0.28422 -0.415134,0.278191 -0.248047,-0.0069 -0.416857,-0.280775 -0.0801,-0.130053 -0.118856,-0.325562 -0.03876,-0.19637 -0.02325,-0.400492 0.0155,-0.204984 0.09474,-0.389297 0.0801,-0.185174 0.238573,-0.293694 0.198093,-0.134359 0.385851,-0.03101 0.187758,0.102492 0.280775,0.288527 l 0.0069,0.01378 0.0052,0.01206 0.0069,0.01292 q 0.02928,0.08182 -0.02239,0.133498 -0.04995,0.04909 -0.10852,0.03703 -0.05857,-0.01292 -0.09043,-0.06976 -0.100769,-0.249769 -0.260105,-0.217902 -0.158474,0.03187 -0.237712,0.260105 -0.07751,0.220486 -0.06115,0.474562 0.01636,0.253215 0.165365,0.441834 0.102491,0.131775 0.208428,0.08441 0.105937,-0.04737 0.167087,-0.176561 l 0.0095,-0.01895 v -0.262688 z"
         style="font-style:normal;font-variant:normal;font-weight:normal;font-stretch:normal;font-size:1.76389px;font-family:'MS 33558';-inkscape-font-specification:'MS 33558, Normal';font-variant-ligatures:normal;font-variant-caps:normal;font-variant-numeric:normal;font-variant-east-asian:normal;text-align:center;text-anchor:middle;stroke-width:0.264583"
         id="path980" />
      <path
         d="m 28.762732,28.7523 h -0.713996 v 0.471117 h 0.544325 q 0.122301,0.01809 0.12144,0.123162 0,0.104214 -0.12144,0.12144 h -0.544325 v 0.565857 h 0.713996 q 0.12144,0.01809 0.12144,0.12144 0,0.103353 -0.12144,0.120578 h -0.833713 q -0.10766,-0.01378 -0.122301,-0.122301 v -1.52101 q 0.01636,-0.113689 0.122301,-0.120579 h 0.833713 q 0.12144,0.0095 0.120579,0.12144 0,0.111104 -0.120579,0.118856 z"
         style="font-style:normal;font-variant:normal;font-weight:normal;font-stretch:normal;font-size:1.76389px;font-family:'MS 33558';-inkscape-font-specification:'MS 33558, Normal';font-variant-ligatures:normal;font-variant-caps:normal;font-variant-numeric:normal;font-variant-east-asian:normal;text-align:center;text-anchor:middle;stroke-width:0.264583"
         id="path982" />
      <path
         d="m 30.313026,30.157038 q 0,0.09043 -0.08785,0.115411 -0.08699,0.02412 -0.13522,-0.05168 l -0.723471,-1.160137 v 1.096402 q -0.01895,0.120579 -0.122301,0.120579 -0.102491,0 -0.120578,-0.120579 v -1.52101 q 0.01292,-0.08957 0.0913,-0.117995 0.07924,-0.02842 0.131775,0.0534 l 0.72347,1.161859 v -1.097263 q 0.01637,-0.123163 0.124885,-0.12144 0.109382,8.61e-4 0.117995,0.12144 z"
         style="font-style:normal;font-variant:normal;font-weight:normal;font-stretch:normal;font-size:1.76389px;font-family:'MS 33558';-inkscape-font-specification:'MS 33558, Normal';font-variant-ligatures:normal;font-variant-caps:normal;font-variant-numeric:normal;font-variant-east-asian:normal;text-align:center;text-anchor:middle;stroke-width:0.264583"
         id="path984" />
      <path
         d="m 23.002529,31.541968 0.01378,0.006 0.0155,0.0078 0.01378,0.0078 q 0.006,0.0043 0.01292,0.0086 0.0078,0.0034 0.01464,0.0078 0.170533,0.111965 0.211013,0.310058 0.0155,0.07752 0.0069,0.159336 -0.01378,0.117134 -0.08268,0.217041 -0.06804,0.09905 -0.171393,0.153307 -0.111105,0.05857 -0.22996,0.05857 -0.199816,0 -0.381545,-0.05082 -0.181729,-0.05168 -0.259244,-0.274747 -0.01034,-0.02842 -0.0155,-0.05857 -0.0052,-0.03014 -0.01206,-0.06029 -0.01292,-0.06201 0.03014,-0.109382 0.04393,-0.04737 0.108521,-0.03617 0.06804,0.01378 0.09474,0.08441 l 0.0026,0.0078 q 0.04134,0.186897 0.143833,0.22307 0.103353,0.03617 0.286804,0.03273 0.16881,0 0.231683,-0.158475 0.02756,-0.07062 0.0086,-0.146416 -0.01895,-0.07665 -0.07493,-0.127469 -0.02498,-0.02153 -0.06546,-0.04048 l -0.39877,-0.174839 -0.01292,-0.0069 q -0.19551,-0.103353 -0.24288,-0.293694 -0.0577,-0.220487 0.0801,-0.395325 0.138665,-0.1757 0.363458,-0.1757 l 0.09474,0.0026 q 0.04651,0.0086 0.08957,0.01723 0.04306,0.0078 0.08699,0.02756 0.108521,0.05082 0.166226,0.139526 0.0577,0.08871 0.104214,0.192064 0.0043,0.0095 0.0078,0.02239 0.0095,0.0422 -0.0086,0.07665 -0.01034,0.02153 -0.02153,0.03273 -0.0112,0.0112 -0.01809,0.0155 -0.04479,0.03187 -0.09819,0.01895 -0.0534,-0.01206 -0.08182,-0.0689 -0.02239,-0.04995 -0.04823,-0.10163 -0.02498,-0.05254 -0.07063,-0.08699 -0.01895,-0.01378 -0.03703,-0.01981 -0.01722,-0.0069 -0.03876,-0.01464 l -0.05598,-0.0095 -0.07924,-0.0026 q -0.115411,0.0017 -0.176561,0.09991 -0.04134,0.06287 -0.03101,0.140388 0.01206,0.0956 0.08957,0.148139 0.0034,0.0026 0.0078,0.006 0.0043,0.0026 0.0095,0.0052 l 0.0095,0.0043 0.01034,0.0043 z"
         style="font-style:normal;font-variant:normal;font-weight:normal;font-stretch:normal;font-size:1.76389px;font-family:'MS 33558';-inkscape-font-specification:'MS 33558, Normal';font-variant-ligatures:normal;font-variant-caps:normal;font-variant-numeric:normal;font-variant-east-asian:normal;text-align:center;text-anchor:middle;stroke-width:0.264583"
         id="path986" />
      <path
         d="m 24.668234,31.899396 v 0.01723 q -0.0026,0.04306 -0.0034,0.05168 -0.03617,0.26355 -0.21618,0.389296 -0.180007,0.124885 -0.384129,0.117134 -0.204122,-0.0086 -0.373793,-0.149001 -0.16881,-0.140387 -0.183451,-0.409105 v -0.01723 -1.061951 q 0,-0.02584 0.0095,-0.04651 0.04134,-0.09043 0.136942,-0.07149 0.09646,0.01895 0.09646,0.117995 v 1.061951 q 0.01292,0.198094 0.173978,0.296279 0.161919,0.09819 0.340203,-0.0086 0.0801,-0.04737 0.117133,-0.122301 0.0379,-0.07493 0.04479,-0.165365 v -1.061951 q 0,-0.0155 0.0017,-0.02325 0.01981,-0.105937 0.130053,-0.0956 0.110243,0.01034 0.110243,0.118856 z"
         style="font-style:normal;font-variant:normal;font-weight:normal;font-stretch:normal;font-size:1.76389px;font-family:'MS 33558';-inkscape-font-specification:'MS 33558, Normal';font-variant-ligatures:normal;font-variant-caps:normal;font-variant-numeric:normal;font-variant-east-asian:normal;text-align:center;text-anchor:middle;stroke-width:0.264583"
         id="path988" />
      <path
         d="m 25.540705,30.716867 h 0.01636 q 0.110243,0.0078 0.203261,0.04995 0.178284,0.08354 0.252353,0.274746 0.07407,0.191203 -0.0017,0.372932 -0.06115,0.143833 -0.180868,0.225654 -0.119717,0.08096 -0.273024,0.09043 l -0.01636,8.61e-4 h -0.41858 v 0.627869 q -0.0155,0.12144 -0.122301,0.12144 -0.106798,0 -0.121439,-0.12144 v -1.521872 q 0.01292,-0.106798 0.113688,-0.120578 h 0.0078 z m 0,0.242879 h -0.41858 v 0.527961 h 0.41858 q 0.09819,0 0.173116,-0.06546 0.07579,-0.06546 0.08871,-0.163642 0.0155,-0.118856 -0.06373,-0.208428 -0.07924,-0.09043 -0.198093,-0.09043 z"
         style="font-style:normal;font-variant:normal;font-weight:normal;font-stretch:normal;font-size:1.76389px;font-family:'MS 33558';-inkscape-font-specification:'MS 33558, Normal';font-variant-ligatures:normal;font-variant-caps:normal;font-variant-numeric:normal;font-variant-east-asian:normal;text-align:center;text-anchor:middle;stroke-width:0.264583"
         id="path990" />
      <path
         d="m 26.955778,30.716867 h 0.01637 q 0.110243,0.0078 0.20326,0.04995 0.178284,0.08354 0.252354,0.274746 0.07407,0.191203 -0.0017,0.372932 -0.06115,0.143833 -0.180867,0.225654 -0.119718,0.08096 -0.273024,0.09043 l -0.01637,8.61e-4 h -0.418579 v 0.627869 q -0.0155,0.12144 -0.122301,0.12144 -0.106798,0 -0.12144,-0.12144 v -1.521872 q 0.01292,-0.106798 0.113689,-0.120578 h 0.0078 z m 0,0.242879 h -0.418579 v 0.527961 h 0.418579 q 0.09819,0 0.173117,-0.06546 0.07579,-0.06546 0.08871,-0.163642 0.0155,-0.118856 -0.06374,-0.208428 -0.07924,-0.09043 -0.198093,-0.09043 z"
         style="font-style:normal;font-variant:normal;font-weight:normal;font-stretch:normal;font-size:1.76389px;font-family:'MS 33558';-inkscape-font-specification:'MS 33558, Normal';font-variant-ligatures:normal;font-variant-caps:normal;font-variant-numeric:normal;font-variant-east-asian:normal;text-align:center;text-anchor:middle;stroke-width:0.264583"
         id="path992" />
      <path
         d="m 27.830834,32.481618 q -0.105937,-0.0069 -0.122301,-0.119717 v -1.522733 q 0.01809,-0.124024 0.125746,-0.12144 0.107659,0.0017 0.117133,0.12144 v 1.402154 l 0.794956,-8.61e-4 q 0.122301,0.01378 0.120579,0.124024 -8.61e-4,0.109382 -0.12144,0.117133 z"
         style="font-style:normal;font-variant:normal;font-weight:normal;font-stretch:normal;font-size:1.76389px;font-family:'MS 33558';-inkscape-font-specification:'MS 33558, Normal';font-variant-ligatures:normal;font-variant-caps:normal;font-variant-numeric:normal;font-variant-east-asian:normal;text-align:center;text-anchor:middle;stroke-width:0.264583"
         id="path994" />
      <path
         d="m 30.144217,30.77974 q 0.06718,-0.100769 0.161919,-0.04823 0.0956,0.05254 0.04909,0.164504 l -0.495233,0.884529 v 0.576192 q -0.0078,0.122301 -0.120578,0.122301 -0.111966,0 -0.119717,-0.122301 v -0.576192 l -0.494372,-0.884529 q -0.04565,-0.111105 0.04651,-0.162781 0.09216,-0.05254 0.164503,0.04651 l 0.403938,0.721748 z"
         style="font-style:normal;font-variant:normal;font-weight:normal;font-stretch:normal;font-size:1.76389px;font-family:'MS 33558';-inkscape-font-specification:'MS 33558, Normal';font-variant-ligatures:normal;font-variant-caps:normal;font-variant-numeric:normal;font-variant-east-asian:normal;text-align:center;text-anchor:middle;stroke-width:0.264583"
         id="path996" />
      <path
         d="m 21.536209,32.921729 h 0.01636 q 0.110244,0.0078 0.203261,0.04995 0.178284,0.08354 0.252354,0.274747 0.07407,0.191203 -0.0017,0.372931 -0.06115,0.143833 -0.180868,0.225654 -0.119717,0.08096 -0.273024,0.09043 l -0.01636,8.61e-4 H 21.11763 v 0.62787 q -0.0155,0.121439 -0.122301,0.121439 -0.106798,0 -0.12144,-0.121439 v -1.521872 q 0.01292,-0.106798 0.113688,-0.120579 h 0.0078 z m 0,0.24288 H 21.11763 v 0.527961 h 0.418579 q 0.09819,0 0.173116,-0.06546 0.07579,-0.06546 0.08871,-0.163642 0.0155,-0.118856 -0.06374,-0.208429 -0.07924,-0.09043 -0.198093,-0.09043 z"
         style="font-style:normal;font-variant:normal;font-weight:normal;font-stretch:normal;font-size:1.76389px;font-family:'MS 33558';-inkscape-font-specification:'MS 33558, Normal';font-variant-ligatures:normal;font-variant-caps:normal;font-variant-numeric:normal;font-variant-east-asian:normal;text-align:center;text-anchor:middle;stroke-width:0.264583"
         id="path998" />
      <path
         d="m 23.376753,34.498723 q 0.05512,0.09732 -0.03101,0.163642 -0.04134,0.02928 -0.0956,0.01981 -0.0534,-0.0095 -0.07838,-0.0534 l -0.424608,-0.670933 h -0.215319 v 0.606338 q 0,0.07493 -0.06804,0.10852 -0.06804,0.03273 -0.127469,-0.01292 -0.04737,-0.03531 -0.04737,-0.0956 v -1.521872 q 0,-0.04995 0.03445,-0.08527 0.03531,-0.03531 0.08613,-0.03531 h 0.534852 q 0.192925,0 0.335036,0.123162 0.14211,0.122301 0.176561,0.310921 0.03617,0.202399 -0.08613,0.37896 -0.121439,0.1757 -0.322977,0.213596 l -0.01637,0.0026 z m -0.43236,-0.782899 q 0.08785,0 0.161919,-0.0534 0.07493,-0.0534 0.10077,-0.139526 0.04048,-0.132637 -0.03703,-0.239435 -0.07752,-0.107659 -0.213596,-0.118855 h -0.424609 v 0.551215 z"
         style="font-style:normal;font-variant:normal;font-weight:normal;font-stretch:normal;font-size:1.76389px;font-family:'MS 33558';-inkscape-font-specification:'MS 33558, Normal';font-variant-ligatures:normal;font-variant-caps:normal;font-variant-numeric:normal;font-variant-east-asian:normal;text-align:center;text-anchor:middle;stroke-width:0.264583"
         id="path1000" />
      <path
         d="m 24.648855,33.162025 h -0.713997 v 0.471117 h 0.544326 q 0.122301,0.01809 0.12144,0.123162 0,0.104214 -0.12144,0.12144 h -0.544326 v 0.565857 h 0.713997 q 0.12144,0.01809 0.12144,0.12144 0,0.103353 -0.12144,0.120578 h -0.833714 q -0.107659,-0.01378 -0.122301,-0.122301 v -1.52101 q 0.01636,-0.113689 0.122301,-0.120579 h 0.833714 q 0.12144,0.0095 0.120578,0.12144 0,0.111104 -0.120578,0.118856 z"
         style="font-style:normal;font-variant:normal;font-weight:normal;font-stretch:normal;font-size:1.76389px;font-family:'MS 33558';-inkscape-font-specification:'MS 33558, Normal';font-variant-ligatures:normal;font-variant-caps:normal;font-variant-numeric:normal;font-variant-east-asian:normal;text-align:center;text-anchor:middle;stroke-width:0.264583"
         id="path1002" />
      <path
         d="m 25.876171,33.74683 0.01378,0.006 0.0155,0.0078 0.01378,0.0078 q 0.006,0.0043 0.01292,0.0086 0.0078,0.0034 0.01464,0.0078 0.170533,0.111966 0.211012,0.310059 0.0155,0.07751 0.0069,0.159336 -0.01378,0.117133 -0.08268,0.217041 -0.06804,0.09905 -0.171393,0.153307 -0.111105,0.05857 -0.229961,0.05857 -0.199815,0 -0.381544,-0.05082 -0.181729,-0.05168 -0.259244,-0.274746 -0.01034,-0.02842 -0.0155,-0.05857 -0.0052,-0.03014 -0.01206,-0.06029 -0.01292,-0.06201 0.03014,-0.109382 0.04393,-0.04737 0.108521,-0.03617 0.06804,0.01378 0.09474,0.0844 l 0.0026,0.0078 q 0.04134,0.186896 0.143832,0.22307 0.103353,0.03617 0.286805,0.03273 0.16881,0 0.231683,-0.158474 0.02756,-0.07062 0.0086,-0.146417 -0.01895,-0.07665 -0.07493,-0.127468 -0.02498,-0.02153 -0.06546,-0.04048 l -0.39877,-0.174839 -0.01292,-0.0069 q -0.195509,-0.103353 -0.242879,-0.293695 -0.0577,-0.220486 0.0801,-0.395325 0.138665,-0.1757 0.363457,-0.1757 l 0.09474,0.0026 q 0.04651,0.0086 0.08957,0.01723 0.04306,0.0078 0.08699,0.02756 0.10852,0.05082 0.166226,0.139527 0.0577,0.08871 0.104214,0.192064 0.0043,0.0095 0.0078,0.02239 0.0095,0.0422 -0.0086,0.07665 -0.01034,0.02153 -0.02153,0.03273 -0.0112,0.0112 -0.01809,0.0155 -0.04479,0.03187 -0.09818,0.01895 -0.0534,-0.01206 -0.08182,-0.0689 -0.02239,-0.04995 -0.04823,-0.10163 -0.02498,-0.05254 -0.07062,-0.08699 -0.01895,-0.01378 -0.03703,-0.01981 -0.01722,-0.0069 -0.03876,-0.01464 l -0.05598,-0.0095 -0.07924,-0.0026 q -0.115411,0.0017 -0.176562,0.09991 -0.04134,0.06287 -0.03101,0.140388 0.01206,0.0956 0.08957,0.148139 0.0034,0.0026 0.0078,0.006 0.0043,0.0026 0.0095,0.0052 l 0.0095,0.0043 0.01034,0.0043 z"
         style="font-style:normal;font-variant:normal;font-weight:normal;font-stretch:normal;font-size:1.76389px;font-family:'MS 33558';-inkscape-font-specification:'MS 33558, Normal';font-variant-ligatures:normal;font-variant-caps:normal;font-variant-numeric:normal;font-variant-east-asian:normal;text-align:center;text-anchor:middle;stroke-width:0.264583"
         id="path1004" />
      <path
         d="m 27.24732,33.74683 0.01378,0.006 0.0155,0.0078 0.01378,0.0078 q 0.006,0.0043 0.01292,0.0086 0.0078,0.0034 0.01464,0.0078 0.170533,0.111966 0.211012,0.310059 0.0155,0.07751 0.0069,0.159336 -0.01378,0.117133 -0.08268,0.217041 -0.06804,0.09905 -0.171393,0.153307 -0.111105,0.05857 -0.229961,0.05857 -0.199815,0 -0.381544,-0.05082 -0.181729,-0.05168 -0.259244,-0.274746 -0.01033,-0.02842 -0.0155,-0.05857 -0.0052,-0.03014 -0.01206,-0.06029 -0.01292,-0.06201 0.03015,-0.109382 0.04392,-0.04737 0.108521,-0.03617 0.06804,0.01378 0.09474,0.0844 l 0.0026,0.0078 q 0.04134,0.186896 0.143833,0.22307 0.103352,0.03617 0.286804,0.03273 0.16881,0 0.231683,-0.158474 0.02756,-0.07062 0.0086,-0.146417 -0.01895,-0.07665 -0.07493,-0.127468 -0.02498,-0.02153 -0.06546,-0.04048 l -0.39877,-0.174839 -0.01292,-0.0069 q -0.19551,-0.103353 -0.24288,-0.293695 -0.0577,-0.220486 0.0801,-0.395325 0.138665,-0.1757 0.363457,-0.1757 l 0.09474,0.0026 q 0.04651,0.0086 0.08957,0.01723 0.04306,0.0078 0.08699,0.02756 0.108521,0.05082 0.166226,0.139527 0.0577,0.08871 0.104214,0.192064 0.0043,0.0095 0.0078,0.02239 0.0095,0.0422 -0.0086,0.07665 -0.01033,0.02153 -0.02153,0.03273 -0.0112,0.0112 -0.01809,0.0155 -0.04479,0.03187 -0.09819,0.01895 -0.0534,-0.01206 -0.08182,-0.0689 -0.02239,-0.04995 -0.04823,-0.10163 -0.02498,-0.05254 -0.07062,-0.08699 -0.01895,-0.01378 -0.03703,-0.01981 -0.01723,-0.0069 -0.03876,-0.01464 l -0.05598,-0.0095 -0.07924,-0.0026 q -0.115411,0.0017 -0.176562,0.09991 -0.04134,0.06287 -0.03101,0.140388 0.01206,0.0956 0.08957,0.148139 0.0034,0.0026 0.0078,0.006 0.0043,0.0026 0.0095,0.0052 l 0.0095,0.0043 0.01034,0.0043 z"
         style="font-style:normal;font-variant:normal;font-weight:normal;font-stretch:normal;font-size:1.76389px;font-family:'MS 33558';-inkscape-font-specification:'MS 33558, Normal';font-variant-ligatures:normal;font-variant-caps:normal;font-variant-numeric:normal;font-variant-east-asian:normal;text-align:center;text-anchor:middle;stroke-width:0.264583"
         id="path1006" />
      <path
         d="m 28.913025,34.104259 v 0.01723 q -0.0026,0.04306 -0.0034,0.05168 -0.03617,0.26355 -0.21618,0.389296 -0.180007,0.124885 -0.384129,0.117133 -0.204122,-0.0086 -0.373793,-0.149 -0.16881,-0.140388 -0.183451,-0.409106 v -0.01723 -1.061951 q 0,-0.02584 0.0095,-0.04651 0.04134,-0.09043 0.136942,-0.07149 0.09646,0.01895 0.09646,0.117995 v 1.061951 q 0.01292,0.198093 0.173978,0.296278 0.161919,0.09819 0.340203,-0.0086 0.0801,-0.04737 0.117133,-0.122301 0.0379,-0.07493 0.04479,-0.165365 v -1.061951 q 0,-0.0155 0.0017,-0.02325 0.01981,-0.105937 0.130053,-0.0956 0.110243,0.01034 0.110243,0.118856 z"
         style="font-style:normal;font-variant:normal;font-weight:normal;font-stretch:normal;font-size:1.76389px;font-family:'MS 33558';-inkscape-font-specification:'MS 33558, Normal';font-variant-ligatures:normal;font-variant-caps:normal;font-variant-numeric:normal;font-variant-east-asian:normal;text-align:center;text-anchor:middle;stroke-width:0.264583"
         id="path1008" />
      <path
         d="m 30.210965,34.498723 q 0.05512,0.09732 -0.03101,0.163642 -0.04134,0.02928 -0.0956,0.01981 -0.0534,-0.0095 -0.07838,-0.0534 l -0.424608,-0.670933 h -0.215319 v 0.606338 q 0,0.07493 -0.06804,0.10852 -0.06804,0.03273 -0.127468,-0.01292 -0.04737,-0.03531 -0.04737,-0.0956 v -1.521872 q 0,-0.04995 0.03445,-0.08527 0.03531,-0.03531 0.08613,-0.03531 h 0.534852 q 0.192925,0 0.335035,0.123162 0.142111,0.122301 0.176562,0.310921 0.03617,0.202399 -0.08613,0.37896 -0.121439,0.1757 -0.322978,0.213596 l -0.01636,0.0026 z m -0.432359,-0.782899 q 0.08785,0 0.161919,-0.0534 0.07493,-0.0534 0.100769,-0.139526 0.04048,-0.132637 -0.03703,-0.239435 -0.07751,-0.107659 -0.213597,-0.118855 h -0.424608 v 0.551215 z"
         style="font-style:normal;font-variant:normal;font-weight:normal;font-stretch:normal;font-size:1.76389px;font-family:'MS 33558';-inkscape-font-specification:'MS 33558, Normal';font-variant-ligatures:normal;font-variant-caps:normal;font-variant-numeric:normal;font-variant-east-asian:normal;text-align:center;text-anchor:middle;stroke-width:0.264583"
         id="path1010" />
      <path
         d="m 31.483068,33.162025 h -0.713997 v 0.471117 h 0.544326 q 0.122301,0.01809 0.121439,0.123162 0,0.104214 -0.121439,0.12144 h -0.544326 v 0.565857 h 0.713997 q 0.121439,0.01809 0.121439,0.12144 0,0.103353 -0.121439,0.120578 h -0.833714 q -0.107659,-0.01378 -0.122301,-0.122301 v -1.52101 q 0.01636,-0.113689 0.122301,-0.120579 h 0.833714 q 0.121439,0.0095 0.120578,0.12144 0,0.111104 -0.120578,0.118856 z"
         style="font-style:normal;font-variant:normal;font-weight:normal;font-stretch:normal;font-size:1.76389px;font-family:'MS 33558';-inkscape-font-specification:'MS 33558, Normal';font-variant-ligatures:normal;font-variant-caps:normal;font-variant-numeric:normal;font-variant-east-asian:normal;text-align:center;text-anchor:middle;stroke-width:0.264583"
         id="path1012" />
    </g>
    <path
       style="fill:#ffffff;stroke:#000000;stroke-width:0.407782;stroke-linecap:round"
       d="m 42.978741,24.189896 -5.000004,-4.5e-5 z"
       id="path2178" />
    <path
       style="fill:#ffffff;stroke:#000000;stroke-width:0.6;stroke-linecap:round;stroke-miterlimit:4;stroke-dasharray:none"
       d="m 42.718758,21.578134 -4.868881,0.868834 z"
       id="path2176" />
    <path
       style="fill:#ffffff;stroke:#000000;stroke-width:0.6;stroke-linecap:round;stroke-miterlimit:4;stroke-dasharray:none"
       d="M 42.052987,19.083196 37.3972,20.738936 Z"
       id="path2174" />
    <path
       style="fill:#ffffff;stroke:#000000;stroke-width:0.6;stroke-linecap:round;stroke-miterlimit:4;stroke-dasharray:none"
       d="m 37.982142,12.660528 -3.52467,3.524626 z"
       id="path2168" />
    <path
       style="fill:#ffffff;stroke:#000000;stroke-width:0.6;stroke-linecap:round;stroke-miterlimit:4;stroke-dasharray:none"
       d="M 31.559527,8.5896021 29.903723,13.245367 Z"
       id="path2162" />
    <path
       style="fill:#ffffff;stroke:#000000;stroke-width:0.6;stroke-linecap:round;stroke-miterlimit:4;stroke-dasharray:none"
       d="m 26.452847,7.6637777 -3.4e-5,4.9999963 z"
       id="path2158" />
    <path
       style="fill:#ffffff;stroke:#000000;stroke-width:0.6;stroke-linecap:round;stroke-miterlimit:4;stroke-dasharray:none"
       d="M 23.841086,7.9237621 24.70993,12.792642 Z"
       id="path2156" />
    <path
       style="fill:#ffffff;stroke:#000000;stroke-width:0.6;stroke-linecap:round;stroke-miterlimit:4;stroke-dasharray:none"
       d="m 21.34615,8.589538 1.655748,4.655784 z"
       id="path2154" />
    <path
       style="fill:#ffffff;stroke:#000000;stroke-width:0.6;stroke-linecap:round;stroke-miterlimit:4;stroke-dasharray:none"
       d="M 19.004158,9.6249819 21.36484,13.985698 Z"
       id="path2152" />
    <path
       style="fill:#ffffff;stroke:#000000;stroke-width:0.6;stroke-linecap:round;stroke-miterlimit:4;stroke-dasharray:none"
       d="m 16.851231,10.993974 2.983643,3.983676 z"
       id="path2150" />
    <path
       style="fill:#ffffff;stroke:#000000;stroke-width:0.6;stroke-linecap:round;stroke-miterlimit:4;stroke-dasharray:none"
       d="m 14.923488,12.660393 3.524633,3.524664 z"
       id="path2148" />
    <path
       style="fill:#ffffff;stroke:#000000;stroke-width:0.6;stroke-linecap:round;stroke-miterlimit:4;stroke-dasharray:none"
       d="m 13.257051,14.58812 3.98365,2.983679 z"
       id="path2146" />
    <path
       style="fill:#ffffff;stroke:#000000;stroke-width:0.6;stroke-linecap:round;stroke-miterlimit:4;stroke-dasharray:none"
       d="m 11.88804,16.741034 4.360694,2.360723 z"
       id="path2144" />
    <path
       style="fill:#ffffff;stroke:#000000;stroke-width:0.6;stroke-linecap:round;stroke-miterlimit:4;stroke-dasharray:none"
       d="m 10.852573,19.083015 4.655768,1.655795 z"
       id="path2142" />
    <path
       style="fill:#ffffff;stroke:#000000;stroke-width:0.6;stroke-linecap:round;stroke-miterlimit:4;stroke-dasharray:none"
       d="m 10.186773,21.577943 4.868869,0.868895 z"
       id="path2140" />
    <path
       style="fill:#ffffff;stroke:#000000;stroke-width:0.6;stroke-linecap:round;stroke-miterlimit:4;stroke-dasharray:none"
       d="m 9.9267581,24.189698 4.9999979,2.2e-5 z"
       id="path2138" />
    <path
       id="path2356"
       style="fill:#ffffff;stroke:#000000;stroke-width:0.6;stroke-linecap:round;stroke-miterlimit:4;stroke-dasharray:none"
       d="m 21.101721,13.399526 a 12.005017,12.005017 0 0 1 11.67382,0.535209 12.005017,12.005017 0 0 1 5.68781,10.208494 H 26.458334 Z" />
    <path
       style="fill:#ffffff;stroke:#000000;stroke-width:0.6;stroke-linecap:round;stroke-miterlimit:4;stroke-dasharray:none"
       d="m 42.978739,24.189764 h -5 z"
       id="path1818" />
    <g
       aria-label="0"
       id="text2182"
       style="font-style:normal;font-variant:normal;font-weight:normal;font-stretch:normal;font-size:1.41111px;line-height:1.25;font-family:'MS 33558';-inkscape-font-specification:'MS 33558, Normal';font-variant-ligatures:normal;font-variant-caps:normal;font-variant-numeric:normal;font-variant-east-asian:normal;stroke-width:0.264583">
      <path
         d="m 15.961817,23.426647 q 0.15434,0 0.252181,0.128158 0.09784,0.128157 0.135736,0.260449 0.01585,0.05788 0.02756,0.121267 0.03514,0.188102 0,0.412033 -0.03445,0.223931 -0.164676,0.371381 -0.10473,0.117822 -0.242534,0.117822 -0.211529,0 -0.318327,-0.220486 -0.106108,-0.220486 -0.107487,-0.485069 -6.89e-4,-0.264583 0.103353,-0.485069 0.104042,-0.220486 0.314193,-0.220486 z m 0.0048,0.194992 q -0.08199,0.01654 -0.130225,0.09371 -0.04754,0.07717 -0.07028,0.1757 -0.02274,0.09853 -0.0248,0.199126 -0.0021,0.100597 0.0076,0.163297 0.0083,0.05926 0.03927,0.152962 0.03101,0.09302 0.07786,0.160542 0.04754,0.06683 0.108176,0.07717 0.06063,0.0096 0.128847,-0.09784 0.05168,-0.08268 0.07717,-0.21015 0.02549,-0.127469 0.01791,-0.260449 -0.0076,-0.132981 -0.05099,-0.250803 -0.04272,-0.117822 -0.12678,-0.181901 -0.02549,-0.01791 -0.04823,-0.02136 -6.89e-4,0 -0.0021,0 -6.89e-4,0 -0.0034,0 z"
         style="font-style:normal;font-variant:normal;font-weight:normal;font-stretch:normal;font-size:1.41111px;font-family:'MS 33558';-inkscape-font-specification:'MS 33558, Normal';font-variant-ligatures:normal;font-variant-caps:normal;font-variant-numeric:normal;font-variant-east-asian:normal;stroke-width:0.264583"
         id="path970" />
    </g>
    <g
       aria-label="20"
       id="text2182-4"
       style="font-style:normal;font-variant:normal;font-weight:normal;font-stretch:normal;font-size:1.41111px;line-height:1.25;font-family:'MS 33558';-inkscape-font-specification:'MS 33558, Normal';font-variant-ligatures:normal;font-variant-caps:normal;font-variant-numeric:normal;font-variant-east-asian:normal;stroke-width:0.264583">
      <path
         d="m 15.83099,21.595926 q -0.04065,0 -0.06959,-0.02825 -0.02825,-0.02825 -0.02825,-0.06959 0,-0.0014 0.0069,-0.04341 0.0076,-0.04272 0.009,-0.04892 0.03514,-0.16881 0.136426,-0.321083 0.101974,-0.152273 0.245979,-0.249425 0.05099,-0.03445 0.09233,-0.07166 0.04203,-0.0379 0.08544,-0.08475 0.05581,-0.06339 0.04823,-0.144005 -0.0069,-0.08061 -0.07993,-0.127468 -0.08957,-0.05581 -0.181901,-0.0028 -0.09233,0.05305 -0.08819,0.158474 0,0.0021 0,0.0048 6.89e-4,0.0021 6.89e-4,0.0041 0.0041,0.03169 -0.01516,0.06201 -0.01929,0.02963 -0.04892,0.03858 -0.04547,0.01447 -0.08475,-0.009 -0.03858,-0.02343 -0.0441,-0.0689 -0.0021,-0.0062 -6.89e-4,-0.05099 0.0021,-0.04479 0.0041,-0.05236 0.03101,-0.169499 0.177767,-0.254937 0.14745,-0.08613 0.310747,-0.03032 0.193614,0.06752 0.236333,0.263894 0.04272,0.196371 -0.09233,0.343132 -0.02756,0.02963 -0.05581,0.05857 -0.02756,0.02825 -0.05925,0.05443 -0.04961,0.04134 -0.104731,0.07648 -0.05443,0.03514 -0.09784,0.08268 -0.04961,0.05512 -0.09371,0.121267 -0.04341,0.06615 -0.0689,0.135737 -0.0021,0.0041 -0.01102,0.03032 -0.0083,0.02618 -0.0083,0.02825 h 0.511252 q 0.09509,0.0062 0.09233,0.100596 -0.0028,0.0944 -0.09577,0.0944 z"
         style="font-style:normal;font-variant:normal;font-weight:normal;font-stretch:normal;font-size:1.41111px;font-family:'MS 33558';-inkscape-font-specification:'MS 33558, Normal';font-variant-ligatures:normal;font-variant-caps:normal;font-variant-numeric:normal;font-variant-east-asian:normal;stroke-width:0.264583"
         id="path965" />
      <path
         d="m 17.160796,20.185505 q 0.15434,0 0.252181,0.128157 0.09784,0.128158 0.135736,0.260449 0.01585,0.05788 0.02756,0.121268 0.03514,0.188102 0,0.412033 -0.03445,0.223931 -0.164675,0.371381 -0.104731,0.117822 -0.242535,0.117822 -0.211528,0 -0.318326,-0.220486 -0.106109,-0.220486 -0.107487,-0.485069 -6.89e-4,-0.264583 0.103353,-0.485069 0.104041,-0.220486 0.314192,-0.220486 z m 0.0048,0.194992 q -0.08199,0.01654 -0.130224,0.09371 -0.04754,0.07717 -0.07028,0.175699 -0.02274,0.09853 -0.02481,0.199127 -0.0021,0.100596 0.0076,0.163297 0.0083,0.05926 0.03927,0.152962 0.03101,0.09302 0.07786,0.160542 0.04754,0.06683 0.108176,0.07717 0.06063,0.0096 0.128847,-0.09784 0.05168,-0.08268 0.07717,-0.210151 0.02549,-0.127468 0.01791,-0.260449 -0.0076,-0.13298 -0.05099,-0.250802 -0.04272,-0.117823 -0.126779,-0.181901 -0.02549,-0.01791 -0.04823,-0.02136 -6.89e-4,0 -0.0021,0 -6.89e-4,0 -0.0034,0 z"
         style="font-style:normal;font-variant:normal;font-weight:normal;font-stretch:normal;font-size:1.41111px;font-family:'MS 33558';-inkscape-font-specification:'MS 33558, Normal';font-variant-ligatures:normal;font-variant-caps:normal;font-variant-numeric:normal;font-variant-east-asian:normal;stroke-width:0.264583"
         id="path967" />
    </g>
    <g
       aria-label="40"
       id="text2182-4-7"
       style="font-style:normal;font-variant:normal;font-weight:normal;font-stretch:normal;font-size:1.41111px;line-height:1.25;font-family:'MS 33558';-inkscape-font-specification:'MS 33558, Normal';font-variant-ligatures:normal;font-variant-caps:normal;font-variant-numeric:normal;font-variant-east-asian:normal;stroke-width:0.264583">
      <path
         d="m 17.384728,18.697913 q -0.04961,0 -0.07855,-0.03996 -0.02825,-0.03996 -0.01378,-0.08751 l 0.309369,-0.963248 q 0,-6.89e-4 0,-0.0021 6.89e-4,-0.0014 0.0014,-0.0028 0.01723,-0.0441 0.05994,-0.05788 0.04272,-0.01378 0.08406,0.01034 0.06408,0.03996 0.03996,0.11231 l -0.268717,0.83578 h 0.33693 v -0.285943 q 0,-0.06201 0.05581,-0.08819 0.05581,-0.02618 0.103353,0.01171 0.03583,0.02894 0.03583,0.07648 v 0.285943 h 0.178456 q 0.04754,0 0.07166,0.03101 0.02412,0.03032 0.02412,0.06683 0,0.03652 -0.02412,0.06684 -0.02412,0.03032 -0.07166,0.03032 H 18.05032 q 0,0.009 0,0.08199 0,0.07304 0,0.07372 0,0.05994 -0.05099,0.08544 -0.04961,0.02343 -0.09715,-0.0028 -0.04685,-0.02618 -0.04616,-0.08268 0,-0.0048 -6.89e-4,-0.07579 0,-0.07097 0,-0.07993 z"
         style="font-style:normal;font-variant:normal;font-weight:normal;font-stretch:normal;font-size:1.41111px;font-family:'MS 33558';-inkscape-font-specification:'MS 33558, Normal';font-variant-ligatures:normal;font-variant-caps:normal;font-variant-numeric:normal;font-variant-east-asian:normal;stroke-width:0.264583"
         id="path960" />
      <path
         d="m 18.915728,17.539673 q 0.15434,0 0.25218,0.128157 0.09784,0.128158 0.135737,0.260449 0.01585,0.05788 0.02756,0.121267 0.03514,0.188103 0,0.412034 -0.03445,0.223931 -0.164676,0.371381 -0.104731,0.117822 -0.242534,0.117822 -0.211529,0 -0.318327,-0.220486 -0.106109,-0.220486 -0.107487,-0.485069 -6.89e-4,-0.264583 0.103353,-0.485069 0.104042,-0.220486 0.314193,-0.220486 z m 0.0048,0.194992 q -0.08199,0.01654 -0.130225,0.09371 -0.04754,0.07717 -0.07028,0.175699 -0.02274,0.09853 -0.0248,0.199127 -0.0021,0.100596 0.0076,0.163297 0.0083,0.05926 0.03927,0.152962 0.03101,0.09302 0.07786,0.160541 0.04754,0.06683 0.108176,0.07717 0.06063,0.0096 0.128846,-0.09784 0.05168,-0.08268 0.07717,-0.210151 0.02549,-0.127468 0.01791,-0.260449 -0.0076,-0.13298 -0.05099,-0.250803 -0.04272,-0.117822 -0.12678,-0.1819 -0.02549,-0.01792 -0.04823,-0.02136 -6.89e-4,0 -0.0021,0 -6.89e-4,0 -0.0034,0 z"
         style="font-style:normal;font-variant:normal;font-weight:normal;font-stretch:normal;font-size:1.41111px;font-family:'MS 33558';-inkscape-font-specification:'MS 33558, Normal';font-variant-ligatures:normal;font-variant-caps:normal;font-variant-numeric:normal;font-variant-east-asian:normal;stroke-width:0.264583"
         id="path962" />
    </g>
    <g
       aria-label="100"
       id="text2182-4-7-4-8-6"
       style="font-style:normal;font-variant:normal;font-weight:normal;font-stretch:normal;font-size:1.41111px;line-height:1.25;font-family:'MS 33558';-inkscape-font-specification:'MS 33558, Normal';font-variant-ligatures:normal;font-variant-caps:normal;font-variant-numeric:normal;font-variant-east-asian:normal;stroke-width:0.264583">
      <path
         d="m 25.529969,14.068337 q 0,0.009 -0.0021,0.01929 -0.01654,0.07786 -0.09646,0.07786 -0.05857,0 -0.08682,-0.05443 -0.0062,-0.01033 -0.01033,-0.04272 v -1.215429 q 0.0021,-0.01654 0.0048,-0.031 0.0034,-0.01516 0.01516,-0.02894 0.02756,-0.03376 0.07097,-0.03652 0.04341,-0.0034 0.0751,0.02756 0.01654,0.01654 0.02136,0.0317 0.0048,0.01516 0.0083,0.03721 z"
         style="font-style:normal;font-variant:normal;font-weight:normal;font-stretch:normal;font-size:1.41111px;font-family:'MS 33558';-inkscape-font-specification:'MS 33558, Normal';font-variant-ligatures:normal;font-variant-caps:normal;font-variant-numeric:normal;font-variant-east-asian:normal;stroke-width:0.264583"
         id="path953" />
      <path
         d="m 26.169378,12.755068 q 0.15434,0 0.252181,0.128157 0.09784,0.128158 0.135737,0.260449 0.01585,0.05788 0.02756,0.121267 0.03514,0.188103 0,0.412034 -0.03445,0.223931 -0.164675,0.371381 -0.104731,0.117822 -0.242535,0.117822 -0.211528,0 -0.318326,-0.220486 -0.106109,-0.220486 -0.107487,-0.485069 -6.89e-4,-0.264583 0.103353,-0.485069 0.104041,-0.220486 0.314192,-0.220486 z m 0.0048,0.194992 q -0.08199,0.01654 -0.130224,0.09371 -0.04754,0.07717 -0.07028,0.1757 -0.02274,0.09853 -0.02481,0.199127 -0.0021,0.100596 0.0076,0.163297 0.0083,0.05926 0.03927,0.152962 0.03101,0.09302 0.07786,0.160541 0.04754,0.06683 0.108175,0.07717 0.06063,0.0096 0.128847,-0.09784 0.05168,-0.08268 0.07717,-0.210151 0.02549,-0.127468 0.01792,-0.260449 -0.0076,-0.13298 -0.05099,-0.250803 -0.04272,-0.117822 -0.126779,-0.1819 -0.02549,-0.01792 -0.04823,-0.02136 -6.89e-4,0 -0.0021,0 -6.89e-4,0 -0.0034,0 z"
         style="font-style:normal;font-variant:normal;font-weight:normal;font-stretch:normal;font-size:1.41111px;font-family:'MS 33558';-inkscape-font-specification:'MS 33558, Normal';font-variant-ligatures:normal;font-variant-caps:normal;font-variant-numeric:normal;font-variant-east-asian:normal;stroke-width:0.264583"
         id="path955" />
      <path
         d="m 27.205662,12.755068 q 0.15434,0 0.252181,0.128157 0.09784,0.128158 0.135737,0.260449 0.01585,0.05788 0.02756,0.121267 0.03514,0.188103 0,0.412034 -0.03445,0.223931 -0.164675,0.371381 -0.104731,0.117822 -0.242535,0.117822 -0.211528,0 -0.318326,-0.220486 -0.106109,-0.220486 -0.107487,-0.485069 -6.89e-4,-0.264583 0.103353,-0.485069 0.104042,-0.220486 0.314192,-0.220486 z m 0.0048,0.194992 q -0.08199,0.01654 -0.130224,0.09371 -0.04754,0.07717 -0.07028,0.1757 -0.02274,0.09853 -0.02481,0.199127 -0.0021,0.100596 0.0076,0.163297 0.0083,0.05926 0.03927,0.152962 0.03101,0.09302 0.07786,0.160541 0.04754,0.06683 0.108176,0.07717 0.06063,0.0096 0.128846,-0.09784 0.05168,-0.08268 0.07717,-0.210151 0.02549,-0.127468 0.01791,-0.260449 -0.0076,-0.13298 -0.05099,-0.250803 -0.04272,-0.117822 -0.126779,-0.1819 -0.02549,-0.01792 -0.04823,-0.02136 -6.89e-4,0 -0.0021,0 -6.89e-4,0 -0.0034,0 z"
         style="font-style:normal;font-variant:normal;font-weight:normal;font-stretch:normal;font-size:1.41111px;font-family:'MS 33558';-inkscape-font-specification:'MS 33558, Normal';font-variant-ligatures:normal;font-variant-caps:normal;font-variant-numeric:normal;font-variant-east-asian:normal;stroke-width:0.264583"
         id="path957" />
    </g>
    <g
       aria-label="200"
       id="text2182-4-7-4-8-6-4"
       style="font-style:normal;font-variant:normal;font-weight:normal;font-stretch:normal;font-size:1.41111px;line-height:1.25;font-family:'MS 33558';-inkscape-font-specification:'MS 33558, Normal';font-variant-ligatures:normal;font-variant-caps:normal;font-variant-numeric:normal;font-variant-east-asian:normal;stroke-width:0.264583">
      <path
         d="m 28.049796,14.860075 q -0.04065,0 -0.06959,-0.02825 -0.02825,-0.02825 -0.02825,-0.06959 0,-0.0014 0.0069,-0.04341 0.0076,-0.04272 0.009,-0.04892 0.03514,-0.168809 0.136426,-0.321082 0.101975,-0.152273 0.24598,-0.249425 0.05099,-0.03445 0.09233,-0.07166 0.04203,-0.0379 0.08544,-0.08475 0.05581,-0.06339 0.04823,-0.144005 -0.0069,-0.08061 -0.07993,-0.127469 -0.08957,-0.05581 -0.1819,-0.0028 -0.09233,0.05306 -0.08819,0.158475 0,0.0021 0,0.0048 6.89e-4,0.0021 6.89e-4,0.0041 0.0041,0.0317 -0.01516,0.06201 -0.01929,0.02963 -0.04892,0.03858 -0.04547,0.01447 -0.08475,-0.009 -0.03859,-0.02343 -0.0441,-0.0689 -0.0021,-0.0062 -6.89e-4,-0.05099 0.0021,-0.04479 0.0041,-0.05236 0.03101,-0.169499 0.177767,-0.254937 0.14745,-0.08613 0.310747,-0.03032 0.193614,0.06752 0.236334,0.263894 0.04272,0.19637 -0.09233,0.343131 -0.02756,0.02963 -0.05581,0.05857 -0.02756,0.02825 -0.05926,0.05443 -0.04961,0.04134 -0.104731,0.07648 -0.05443,0.03514 -0.09784,0.08268 -0.04961,0.05512 -0.09371,0.121267 -0.04341,0.06615 -0.0689,0.135737 -0.0021,0.0041 -0.01102,0.03032 -0.0083,0.02618 -0.0083,0.02825 h 0.511251 q 0.09508,0.0062 0.09233,0.100597 -0.0028,0.0944 -0.09577,0.0944 z"
         style="font-style:normal;font-variant:normal;font-weight:normal;font-stretch:normal;font-size:1.41111px;font-family:'MS 33558';-inkscape-font-specification:'MS 33558, Normal';font-variant-ligatures:normal;font-variant-caps:normal;font-variant-numeric:normal;font-variant-east-asian:normal;stroke-width:0.264583"
         id="path946" />
      <path
         d="m 29.379602,13.449654 q 0.15434,0 0.252181,0.128157 0.09784,0.128157 0.135737,0.260449 0.01585,0.05788 0.02756,0.121267 0.03514,0.188102 0,0.412033 -0.03445,0.223931 -0.164675,0.371381 -0.104731,0.117823 -0.242535,0.117823 -0.211528,0 -0.318326,-0.220486 -0.106109,-0.220486 -0.107487,-0.485069 -6.89e-4,-0.264584 0.103353,-0.48507 0.104042,-0.220485 0.314192,-0.220485 z m 0.0048,0.194992 q -0.08199,0.01654 -0.130224,0.09371 -0.04754,0.07717 -0.07028,0.1757 -0.02274,0.09853 -0.02481,0.199126 -0.0021,0.100597 0.0076,0.163298 0.0083,0.05925 0.03927,0.152962 0.03101,0.09302 0.07786,0.160541 0.04754,0.06684 0.108176,0.07717 0.06063,0.0096 0.128846,-0.09784 0.05168,-0.08268 0.07717,-0.210151 0.02549,-0.127468 0.01792,-0.260449 -0.0076,-0.132981 -0.05099,-0.250803 -0.04272,-0.117822 -0.126779,-0.181901 -0.02549,-0.01791 -0.04823,-0.02136 -6.89e-4,0 -0.0021,0 -6.89e-4,0 -0.0034,0 z"
         style="font-style:normal;font-variant:normal;font-weight:normal;font-stretch:normal;font-size:1.41111px;font-family:'MS 33558';-inkscape-font-specification:'MS 33558, Normal';font-variant-ligatures:normal;font-variant-caps:normal;font-variant-numeric:normal;font-variant-east-asian:normal;stroke-width:0.264583"
         id="path948" />
      <path
         d="m 30.415886,13.449654 q 0.154341,0 0.252181,0.128157 0.09784,0.128157 0.135737,0.260449 0.01585,0.05788 0.02756,0.121267 0.03514,0.188102 0,0.412033 -0.03445,0.223931 -0.164676,0.371381 -0.104731,0.117823 -0.242534,0.117823 -0.211529,0 -0.318327,-0.220486 -0.106109,-0.220486 -0.107487,-0.485069 -6.89e-4,-0.264584 0.103353,-0.48507 0.104042,-0.220485 0.314192,-0.220485 z m 0.0048,0.194992 q -0.08199,0.01654 -0.130224,0.09371 -0.04754,0.07717 -0.07028,0.1757 -0.02274,0.09853 -0.02481,0.199126 -0.0021,0.100597 0.0076,0.163298 0.0083,0.05925 0.03927,0.152962 0.03101,0.09302 0.07786,0.160541 0.04754,0.06684 0.108176,0.07717 0.06063,0.0096 0.128846,-0.09784 0.05168,-0.08268 0.07717,-0.210151 0.02549,-0.127468 0.01791,-0.260449 -0.0076,-0.132981 -0.05099,-0.250803 -0.04272,-0.117822 -0.126779,-0.181901 -0.02549,-0.01791 -0.04823,-0.02136 -6.89e-4,0 -0.0021,0 -6.89e-4,0 -0.0034,0 z"
         style="font-style:normal;font-variant:normal;font-weight:normal;font-stretch:normal;font-size:1.41111px;font-family:'MS 33558';-inkscape-font-specification:'MS 33558, Normal';font-variant-ligatures:normal;font-variant-caps:normal;font-variant-numeric:normal;font-variant-east-asian:normal;stroke-width:0.264583"
         id="path950" />
    </g>
    <g
       aria-label="300"
       id="text2182-4-7-4-8-6-4-7"
       style="font-style:normal;font-variant:normal;font-weight:normal;font-stretch:normal;font-size:1.41111px;line-height:1.25;font-family:'MS 33558';-inkscape-font-specification:'MS 33558, Normal';font-variant-ligatures:normal;font-variant-caps:normal;font-variant-numeric:normal;font-variant-east-asian:normal;stroke-width:0.264583">
      <path
         d="m 32.562181,17.188219 q -6.89e-4,-0.04203 0.0014,-0.07648 0.0028,-0.03514 -0.01516,-0.07786 -0.04479,-0.103353 -0.139182,-0.150207 -0.09371,-0.04685 -0.20326,-0.01585 -0.0014,0.0014 -0.0041,0.0014 -0.0055,0.0028 -0.01309,0.0041 -0.03307,0.0069 -0.06201,-0.0083 -0.03307,-0.01516 -0.04823,-0.05512 -0.0021,-0.0048 -0.0048,-0.01998 -0.0083,-0.04479 0.02067,-0.07372 l 0.263894,-0.325906 h -0.325906 q -0.04547,0 -0.0751,-0.03376 -0.02963,-0.03445 -0.02136,-0.07993 0.01309,-0.0813 0.09577,-0.0813 h 0.531233 q 0.08199,0 0.09646,0.08406 0.0069,0.04616 -0.02067,0.07441 l -0.256315,0.31626 q 0.01033,0.0021 0.02067,0.0055 0.01102,0.0028 0.02136,0.0048 0.0062,0.0021 0.0076,0.0021 0.14056,0.04754 0.226687,0.158474 0.08682,0.110932 0.101286,0.257693 0.01102,0.110243 -0.03445,0.215663 -0.04479,0.104731 -0.12678,0.176389 -0.132291,0.115755 -0.305235,0.115755 -0.1757,0 -0.305924,-0.108176 -0.129536,-0.108176 -0.163297,-0.279052 -6.89e-4,-6.9e-4 -0.0014,-0.01447 0,-0.01378 0,-0.01722 0.01722,-0.08268 0.09853,-0.08268 0.01929,0 0.05237,0.01585 0.0124,0.0069 0.02687,0.02825 0.01516,0.02067 0.01516,0.03514 0,0.0076 0.0096,0.03996 0.01033,0.03238 0.02618,0.05512 0.114377,0.171566 0.316948,0.121267 0.0565,-0.01447 0.110243,-0.06477 0.05443,-0.0503 0.07097,-0.106798 6.89e-4,-0.0028 0.0062,-0.02136 0.0062,-0.0186 0.0062,-0.01929 z"
         style="font-style:normal;font-variant:normal;font-weight:normal;font-stretch:normal;font-size:1.41111px;font-family:'MS 33558';-inkscape-font-specification:'MS 33558, Normal';font-variant-ligatures:normal;font-variant-caps:normal;font-variant-numeric:normal;font-variant-east-asian:normal;stroke-width:0.264583"
         id="path939" />
      <path
         d="m 33.372467,16.195343 q 0.15434,0 0.252181,0.128157 0.09784,0.128158 0.135737,0.260449 0.01585,0.05788 0.02756,0.121268 0.03514,0.188102 0,0.412033 -0.03445,0.223931 -0.164676,0.371381 -0.104731,0.117822 -0.242534,0.117822 -0.211529,0 -0.318327,-0.220486 -0.106109,-0.220486 -0.107487,-0.485069 -6.89e-4,-0.264583 0.103353,-0.485069 0.104042,-0.220486 0.314192,-0.220486 z m 0.0048,0.194992 q -0.08199,0.01654 -0.130224,0.09371 -0.04754,0.07717 -0.07028,0.175699 -0.02274,0.09853 -0.02481,0.199127 -0.0021,0.100596 0.0076,0.163297 0.0083,0.05926 0.03927,0.152962 0.03101,0.09302 0.07786,0.160542 0.04754,0.06683 0.108176,0.07717 0.06063,0.0096 0.128846,-0.09784 0.05168,-0.08268 0.07717,-0.210151 0.02549,-0.127468 0.01792,-0.260449 -0.0076,-0.13298 -0.05099,-0.250802 -0.04272,-0.117823 -0.126779,-0.181901 -0.02549,-0.01792 -0.04823,-0.02136 -6.89e-4,0 -0.0021,0 -6.89e-4,0 -0.0034,0 z"
         style="font-style:normal;font-variant:normal;font-weight:normal;font-stretch:normal;font-size:1.41111px;font-family:'MS 33558';-inkscape-font-specification:'MS 33558, Normal';font-variant-ligatures:normal;font-variant-caps:normal;font-variant-numeric:normal;font-variant-east-asian:normal;stroke-width:0.264583"
         id="path941" />
      <path
         d="m 34.408751,16.195343 q 0.154341,0 0.252181,0.128157 0.09784,0.128158 0.135737,0.260449 0.01585,0.05788 0.02756,0.121268 0.03514,0.188102 0,0.412033 -0.03445,0.223931 -0.164676,0.371381 -0.104731,0.117822 -0.242534,0.117822 -0.211529,0 -0.318327,-0.220486 -0.106109,-0.220486 -0.107487,-0.485069 -6.89e-4,-0.264583 0.103353,-0.485069 0.104042,-0.220486 0.314192,-0.220486 z m 0.0048,0.194992 q -0.08199,0.01654 -0.130225,0.09371 -0.04754,0.07717 -0.07028,0.175699 -0.02274,0.09853 -0.02481,0.199127 -0.0021,0.100596 0.0076,0.163297 0.0083,0.05926 0.03927,0.152962 0.03101,0.09302 0.07786,0.160542 0.04754,0.06683 0.108176,0.07717 0.06063,0.0096 0.128846,-0.09784 0.05168,-0.08268 0.07717,-0.210151 0.02549,-0.127468 0.01792,-0.260449 -0.0076,-0.13298 -0.05099,-0.250802 -0.04272,-0.117823 -0.126779,-0.181901 -0.02549,-0.01792 -0.04823,-0.02136 -6.89e-4,0 -0.0021,0 -6.89e-4,0 -0.0034,0 z"
         style="font-style:normal;font-variant:normal;font-weight:normal;font-stretch:normal;font-size:1.41111px;font-family:'MS 33558';-inkscape-font-specification:'MS 33558, Normal';font-variant-ligatures:normal;font-variant-caps:normal;font-variant-numeric:normal;font-variant-east-asian:normal;stroke-width:0.264583"
         id="path943" />
    </g>
    <g
       aria-label="400"
       id="text2182-4-7-4-8-6-4-7-7"
       style="font-style:normal;font-variant:normal;font-weight:normal;font-stretch:normal;font-size:1.41111px;line-height:1.25;font-family:'MS 33558';-inkscape-font-specification:'MS 33558, Normal';font-variant-ligatures:normal;font-variant-caps:normal;font-variant-numeric:normal;font-variant-east-asian:normal;stroke-width:0.264583">
      <path
         d="m 34.273364,21.387843 q -0.04961,0 -0.07855,-0.03996 -0.02825,-0.03996 -0.01378,-0.08751 l 0.30937,-0.963247 q 0,-6.9e-4 0,-0.0021 6.89e-4,-0.0014 0.0014,-0.0028 0.01723,-0.0441 0.05994,-0.05788 0.04272,-0.01378 0.08406,0.01034 0.06408,0.03996 0.03996,0.11231 l -0.268717,0.83578 h 0.33693 v -0.285943 q 0,-0.06201 0.05581,-0.08819 0.05581,-0.02618 0.103353,0.01171 0.03583,0.02894 0.03583,0.07648 v 0.285943 h 0.178456 q 0.04754,0 0.07166,0.03101 0.02412,0.03032 0.02412,0.06683 0,0.03652 -0.02412,0.06684 -0.02412,0.03032 -0.07166,0.03032 h -0.178456 q 0,0.009 0,0.08199 0,0.07304 0,0.07372 0,0.05994 -0.05099,0.08544 -0.04961,0.02343 -0.09715,-0.0028 -0.04685,-0.02618 -0.04616,-0.08268 0,-0.0048 -6.89e-4,-0.07579 0,-0.07097 0,-0.07993 z"
         style="font-style:normal;font-variant:normal;font-weight:normal;font-stretch:normal;font-size:1.41111px;font-family:'MS 33558';-inkscape-font-specification:'MS 33558, Normal';font-variant-ligatures:normal;font-variant-caps:normal;font-variant-numeric:normal;font-variant-east-asian:normal;stroke-width:0.264583"
         id="path932" />
      <path
         d="m 35.804363,20.229603 q 0.15434,0 0.252181,0.128157 0.09784,0.128158 0.135737,0.260449 0.01585,0.05788 0.02756,0.121267 0.03514,0.188103 0,0.412034 -0.03445,0.223931 -0.164675,0.371381 -0.104731,0.117822 -0.242535,0.117822 -0.211528,0 -0.318326,-0.220486 -0.106109,-0.220486 -0.107487,-0.485069 -6.89e-4,-0.264583 0.103353,-0.485069 0.104042,-0.220486 0.314192,-0.220486 z m 0.0048,0.194992 q -0.08199,0.01654 -0.130224,0.09371 -0.04754,0.07717 -0.07028,0.1757 -0.02274,0.09853 -0.02481,0.199127 -0.0021,0.100596 0.0076,0.163297 0.0083,0.05926 0.03927,0.152962 0.03101,0.09302 0.07786,0.160541 0.04754,0.06683 0.108176,0.07717 0.06063,0.0096 0.128846,-0.09784 0.05168,-0.08268 0.07717,-0.210151 0.02549,-0.127468 0.01792,-0.260449 -0.0076,-0.13298 -0.05099,-0.250803 -0.04272,-0.117822 -0.126779,-0.1819 -0.02549,-0.01792 -0.04823,-0.02136 -6.89e-4,0 -0.0021,0 -6.89e-4,0 -0.0034,0 z"
         style="font-style:normal;font-variant:normal;font-weight:normal;font-stretch:normal;font-size:1.41111px;font-family:'MS 33558';-inkscape-font-specification:'MS 33558, Normal';font-variant-ligatures:normal;font-variant-caps:normal;font-variant-numeric:normal;font-variant-east-asian:normal;stroke-width:0.264583"
         id="path934" />
      <path
         d="m 36.840647,20.229603 q 0.15434,0 0.252181,0.128157 0.09784,0.128158 0.135737,0.260449 0.01585,0.05788 0.02756,0.121267 0.03514,0.188103 0,0.412034 -0.03445,0.223931 -0.164675,0.371381 -0.104731,0.117822 -0.242535,0.117822 -0.211528,0 -0.318326,-0.220486 -0.106109,-0.220486 -0.107487,-0.485069 -6.89e-4,-0.264583 0.103353,-0.485069 0.104041,-0.220486 0.314192,-0.220486 z m 0.0048,0.194992 q -0.08199,0.01654 -0.130224,0.09371 -0.04754,0.07717 -0.07028,0.1757 -0.02274,0.09853 -0.0248,0.199127 -0.0021,0.100596 0.0076,0.163297 0.0083,0.05926 0.03927,0.152962 0.03101,0.09302 0.07786,0.160541 0.04754,0.06683 0.108175,0.07717 0.06063,0.0096 0.128847,-0.09784 0.05168,-0.08268 0.07717,-0.210151 0.02549,-0.127468 0.01792,-0.260449 -0.0076,-0.13298 -0.05099,-0.250803 -0.04272,-0.117822 -0.126779,-0.1819 -0.02549,-0.01792 -0.04823,-0.02136 -6.89e-4,0 -0.0021,0 -6.89e-4,0 -0.0034,0 z"
         style="font-style:normal;font-variant:normal;font-weight:normal;font-stretch:normal;font-size:1.41111px;font-family:'MS 33558';-inkscape-font-specification:'MS 33558, Normal';font-variant-ligatures:normal;font-variant-caps:normal;font-variant-numeric:normal;font-variant-east-asian:normal;stroke-width:0.264583"
         id="path936" />
    </g>
    <path
       style="fill:none;stroke:#ffffff;stroke-width:1.065;stroke-linecap:butt;stroke-linejoin:miter;stroke-miterlimit:4;stroke-dasharray:none;stroke-opacity:1"
       d="m 21.119286,13.728451 c 5.552542,10.967253 5.587621,10.978946 5.587621,10.978946"
       id="path2358" />
    <g
       aria-label="80"
       id="text2182-4-7-4-8"
       style="font-style:normal;font-variant:normal;font-weight:normal;font-stretch:normal;font-size:1.41111px;line-height:1.25;font-family:'MS 33558';-inkscape-font-specification:'MS 33558, Normal';font-variant-ligatures:normal;font-variant-caps:normal;font-variant-numeric:normal;font-variant-east-asian:normal;stroke-width:0.264583">
      <path
         d="m 22.910094,14.116733 q -0.01171,0.01171 -0.01722,0.01516 -0.0055,0.0034 0.01033,0.01585 0.0014,0.0021 0.0028,0.0034 0.0021,0.0014 0.0041,0.0028 0.118511,0.118511 0.118511,0.287321 0,0.191547 -0.150206,0.311436 -0.05168,0.04134 -0.121956,0.06684 -0.106109,0.03721 -0.228065,0.009 -0.09991,-0.0248 -0.175011,-0.09508 -0.0751,-0.07097 -0.107487,-0.168809 -0.04754,-0.148828 0.01516,-0.289388 0.0083,-0.01791 0.01171,-0.02481 0.02549,-0.04685 0.05581,-0.07993 0.0083,-0.009 0.01722,-0.01723 0.0096,-0.009 0.01929,-0.01791 -0.01378,-0.01309 -0.02687,-0.02549 -0.0124,-0.01309 -0.02481,-0.02825 -0.05512,-0.06821 -0.07372,-0.148139 -0.02481,-0.103353 -0.0014,-0.201194 0.02205,-0.09095 0.08268,-0.16123 0.06132,-0.07028 0.146072,-0.108865 0.115755,-0.05236 0.244602,-0.02274 0.129535,0.02894 0.213596,0.123334 0.106797,0.119889 0.102663,0.28043 -0.0041,0.159853 -0.117822,0.273541 z m -0.07648,-0.285254 q 0,-0.124023 -0.117822,-0.185346 -0.117822,-0.06132 -0.214974,0.02136 -0.05168,0.04479 -0.07235,0.106798 -0.01998,0.06201 0.0048,0.128157 0.02963,0.08061 0.09577,0.111621 0.06683,0.03101 0.134359,0.01929 0.06752,-0.0124 0.118511,-0.06408 0.05168,-0.05168 0.05168,-0.137804 z m 0,0.607715 q 0,-0.06959 -0.04341,-0.126091 -0.04272,-0.0565 -0.110932,-0.07372 -0.124023,-0.03101 -0.206706,0.06339 -0.08199,0.09371 -0.03859,0.21084 0.02205,0.05926 0.0751,0.09577 0.05374,0.03583 0.117823,0.03583 0.08544,0 0.146071,-0.05995 0.06063,-0.05994 0.06063,-0.146071 z"
         style="font-style:normal;font-variant:normal;font-weight:normal;font-stretch:normal;font-size:1.41111px;font-family:'MS 33558';-inkscape-font-specification:'MS 33558, Normal';font-variant-ligatures:normal;font-variant-caps:normal;font-variant-numeric:normal;font-variant-east-asian:normal;stroke-width:0.264583"
         id="path927" />
      <path
         d="m 23.644588,13.429092 q 0.15434,0 0.252181,0.128158 0.09784,0.128157 0.135736,0.260449 0.01585,0.05788 0.02756,0.121267 0.03514,0.188102 0,0.412033 -0.03445,0.223931 -0.164675,0.371381 -0.104731,0.117822 -0.242535,0.117822 -0.211529,0 -0.318326,-0.220486 -0.106109,-0.220486 -0.107487,-0.485069 -6.89e-4,-0.264583 0.103352,-0.485069 0.104042,-0.220486 0.314193,-0.220486 z m 0.0048,0.194993 q -0.08199,0.01654 -0.130224,0.09371 -0.04754,0.07717 -0.07028,0.1757 -0.02274,0.09853 -0.0248,0.199126 -0.0021,0.100597 0.0076,0.163298 0.0083,0.05926 0.03927,0.152962 0.03101,0.09302 0.07786,0.160541 0.04754,0.06683 0.108176,0.07717 0.06063,0.0096 0.128847,-0.09784 0.05168,-0.08268 0.07717,-0.21015 0.02549,-0.127469 0.01791,-0.260449 -0.0076,-0.132981 -0.05099,-0.250803 -0.04272,-0.117822 -0.126779,-0.181901 -0.02549,-0.01791 -0.04823,-0.02136 -6.89e-4,0 -0.0021,0 -6.89e-4,0 -0.0034,0 z"
         style="font-style:normal;font-variant:normal;font-weight:normal;font-stretch:normal;font-size:1.41111px;font-family:'MS 33558';-inkscape-font-specification:'MS 33558, Normal';font-variant-ligatures:normal;font-variant-caps:normal;font-variant-numeric:normal;font-variant-east-asian:normal;stroke-width:0.264583"
         id="path929" />
    </g>
    <path
       style="fill:none;stroke:#ffffff;stroke-width:0.965;stroke-linecap:butt;stroke-linejoin:miter;stroke-miterlimit:4;stroke-dasharray:none;stroke-opacity:1"
       d="M 38.160638,24.222924 C 26.640233,24.176388 26.640233,24.176388 26.640233,24.176388"
       id="path2360" />
    <g
       aria-label="500"
       id="text2182-4-7-4-8-6-4-7-7-6"
       style="font-style:normal;font-variant:normal;font-weight:normal;font-stretch:normal;font-size:1.41111px;line-height:1.25;font-family:'MS 33558';-inkscape-font-specification:'MS 33558, Normal';font-variant-ligatures:normal;font-variant-caps:normal;font-variant-numeric:normal;font-variant-east-asian:normal;stroke-width:0.264583">
      <path
         d="m 34.82251,24.653104 q -0.0021,-0.0021 -0.0076,-0.01102 -0.0048,-0.0096 -0.0055,-0.0124 -0.0124,-0.04272 0.0096,-0.0813 0.009,-0.01585 0.02549,-0.02825 0.03032,-0.02274 0.07097,-0.01516 0.04065,0.0069 0.06201,0.0379 0.101974,0.136426 0.269406,0.111621 0.16812,-0.02549 0.21773,-0.192236 0.02412,-0.08062 -0.0041,-0.16881 -0.02756,-0.08888 -0.101286,-0.135047 -0.07993,-0.0503 -0.156407,-0.0503 -0.07993,0 -0.14745,0.04272 -0.0186,0.0124 -0.03514,0.02549 -0.02205,0.01723 -0.0441,0.02067 -0.0441,0.0076 -0.07786,-0.02067 -0.03376,-0.02894 -0.03376,-0.07372 V 23.53276 q 0,-0.0076 0.0021,-0.01723 0.0021,-0.01033 0.0028,-0.01309 0.02136,-0.06477 0.09026,-0.06477 h 0.44924 v 0 q 0.03927,0 0.06821,0.02894 0.0441,0.04479 0.0186,0.103353 -0.02481,0.05857 -0.08682,0.05857 H 35.05471 v 0.312814 q 0,0 0.01033,-0.0034 0.180523,-0.05581 0.349332,0.0317 0.16881,0.08682 0.228755,0.26665 0.01102,0.03514 0.01998,0.08544 0.01723,0.106798 -0.02205,0.213596 -0.03858,0.106109 -0.113688,0.180523 -0.112999,0.112999 -0.276296,0.129535 -0.163297,0.01654 -0.297656,-0.06821 -0.03169,-0.01929 -0.07304,-0.05512 -0.04134,-0.03583 -0.05788,-0.0689 z"
         style="font-style:normal;font-variant:normal;font-weight:normal;font-stretch:normal;font-size:1.41111px;font-family:'MS 33558';-inkscape-font-specification:'MS 33558, Normal';font-variant-ligatures:normal;font-variant-caps:normal;font-variant-numeric:normal;font-variant-east-asian:normal;stroke-width:0.264583"
         id="path920" />
      <path
         d="m 36.284608,23.437675 q 0.15434,0 0.252181,0.128158 0.09784,0.128157 0.135736,0.260449 0.01585,0.05788 0.02756,0.121267 0.03514,0.188102 0,0.412033 -0.03445,0.223931 -0.164675,0.371381 -0.104731,0.117822 -0.242535,0.117822 -0.211529,0 -0.318327,-0.220486 -0.106108,-0.220485 -0.107486,-0.485069 -6.89e-4,-0.264583 0.103352,-0.485069 0.104042,-0.220486 0.314193,-0.220486 z m 0.0048,0.194993 q -0.08199,0.01654 -0.130225,0.09371 -0.04754,0.07717 -0.07028,0.1757 -0.02274,0.09853 -0.02481,0.199126 -0.0021,0.100597 0.0076,0.163298 0.0083,0.05926 0.03927,0.152962 0.03101,0.09302 0.07786,0.160541 0.04754,0.06684 0.108176,0.07717 0.06063,0.0096 0.128847,-0.09784 0.05168,-0.08268 0.07717,-0.210151 0.02549,-0.127469 0.01791,-0.260449 -0.0076,-0.132981 -0.05099,-0.250803 -0.04272,-0.117822 -0.12678,-0.181901 -0.02549,-0.01791 -0.04823,-0.02136 -6.89e-4,0 -0.0021,0 -6.89e-4,0 -0.0034,0 z"
         style="font-style:normal;font-variant:normal;font-weight:normal;font-stretch:normal;font-size:1.41111px;font-family:'MS 33558';-inkscape-font-specification:'MS 33558, Normal';font-variant-ligatures:normal;font-variant-caps:normal;font-variant-numeric:normal;font-variant-east-asian:normal;stroke-width:0.264583"
         id="path922" />
      <path
         d="m 37.320892,23.437675 q 0.15434,0 0.252181,0.128158 0.09784,0.128157 0.135736,0.260449 0.01585,0.05788 0.02756,0.121267 0.03514,0.188102 0,0.412033 -0.03445,0.223931 -0.164675,0.371381 -0.104731,0.117822 -0.242535,0.117822 -0.211529,0 -0.318327,-0.220486 -0.106108,-0.220485 -0.107486,-0.485069 -6.89e-4,-0.264583 0.103352,-0.485069 0.104042,-0.220486 0.314193,-0.220486 z m 0.0048,0.194993 q -0.08199,0.01654 -0.130225,0.09371 -0.04754,0.07717 -0.07028,0.1757 -0.02274,0.09853 -0.02481,0.199126 -0.0021,0.100597 0.0076,0.163298 0.0083,0.05926 0.03927,0.152962 0.03101,0.09302 0.07786,0.160541 0.04754,0.06684 0.108176,0.07717 0.06063,0.0096 0.128847,-0.09784 0.05168,-0.08268 0.07717,-0.210151 0.02549,-0.127469 0.01791,-0.260449 -0.0076,-0.132981 -0.05099,-0.250803 -0.04272,-0.117822 -0.12678,-0.181901 -0.02549,-0.01791 -0.04823,-0.02136 -6.89e-4,0 -0.0021,0 -6.89e-4,0 -0.0034,0 z"
         style="font-style:normal;font-variant:normal;font-weight:normal;font-stretch:normal;font-size:1.41111px;font-family:'MS 33558';-inkscape-font-specification:'MS 33558, Normal';font-variant-ligatures:normal;font-variant-caps:normal;font-variant-numeric:normal;font-variant-east-asian:normal;stroke-width:0.264583"
         id="path924" />
    </g>
    <g
       aria-label="PSI"
       id="text2364"
       style="font-size:3.29433px;line-height:1.25;font-family:'MS 33558';-inkscape-font-specification:'MS 33558, Normal';stroke-width:0.264583">
      <path
         d="m 24.68568,18.302285 h 0.03056 q 0.205896,0.01448 0.37962,0.0933 0.332972,0.156031 0.471308,0.513131 0.138336,0.3571 -0.0032,0.696506 -0.114208,0.26863 -0.337798,0.421443 -0.223589,0.151204 -0.509913,0.168899 l -0.03056,0.0016 h -0.78176 v 1.17264 q -0.02895,0.226807 -0.228415,0.226807 -0.199461,0 -0.226807,-0.226807 v -2.842325 q 0.02413,-0.199461 0.21233,-0.225198 h 0.01448 z m 0,0.453614 h -0.78176 v 0.986047 h 0.78176 q 0.183376,0 0.323321,-0.122251 0.141553,-0.12225 0.165681,-0.305626 0.02895,-0.221981 -0.119033,-0.389272 -0.147987,-0.168898 -0.369969,-0.168898 z"
         style="stroke-width:0.264583"
         id="path913" />
      <path
         d="m 27.709772,19.843285 0.02574,0.01126 0.02895,0.01448 0.02574,0.01448 q 0.01126,0.008 0.02413,0.01609 0.01448,0.0064 0.02735,0.01448 0.318495,0.209112 0.394097,0.579081 0.02895,0.14477 0.01287,0.297584 -0.02574,0.218764 -0.154422,0.405357 -0.127076,0.184984 -0.320103,0.286323 -0.207505,0.109382 -0.429486,0.109382 -0.373186,0 -0.712592,-0.0949 -0.339406,-0.09651 -0.484176,-0.51313 -0.0193,-0.05308 -0.02895,-0.109382 -0.0097,-0.0563 -0.02252,-0.1126 -0.02413,-0.115816 0.0563,-0.204287 0.08204,-0.08847 0.202678,-0.06756 0.127076,0.02574 0.176942,0.157639 l 0.0048,0.01448 q 0.07721,0.349057 0.26863,0.416617 0.193027,0.06756 0.53565,0.06113 0.315278,0 0.432703,-0.295975 0.05147,-0.131902 0.01609,-0.273455 -0.03539,-0.143162 -0.139945,-0.238067 -0.04665,-0.04021 -0.12225,-0.0756 l -0.744763,-0.326538 -0.02413,-0.01287 Q 26.393971,19.724252 26.3055,19.36876 q -0.107774,-0.411791 0.149596,-0.738329 0.258978,-0.328146 0.678812,-0.328146 l 0.176941,0.0048 q 0.08686,0.01609 0.167291,0.03217 0.08043,0.01448 0.162464,0.05147 0.202679,0.09491 0.310452,0.260586 0.107774,0.165682 0.194636,0.358709 0.008,0.01769 0.01448,0.04182 0.01769,0.07882 -0.01609,0.143161 -0.0193,0.04021 -0.04021,0.06113 -0.02091,0.02091 -0.03378,0.02895 -0.08365,0.05952 -0.183376,0.03539 -0.09973,-0.02252 -0.152813,-0.128685 -0.04182,-0.0933 -0.09008,-0.18981 -0.04665,-0.09812 -0.131902,-0.162464 -0.03539,-0.02574 -0.06917,-0.037 -0.03217,-0.01287 -0.07239,-0.02735 l -0.104556,-0.01769 -0.147988,-0.0048 q -0.215547,0.0032 -0.329754,0.186593 -0.07721,0.117424 -0.05791,0.262195 0.02252,0.17855 0.167291,0.276672 0.0064,0.0048 0.01448,0.01126 0.008,0.0048 0.01769,0.0097 l 0.01769,0.008 0.0193,0.008 z"
         style="stroke-width:0.264583"
         id="path915" />
      <path
         d="m 29.109219,21.374634 q -0.03539,0.226807 -0.230024,0.225198 -0.193027,0 -0.226807,-0.225198 V 18.5307 q 0.03378,-0.226806 0.226807,-0.226806 0.194636,-0.0016 0.230024,0.226806 z"
         style="stroke-width:0.264583"
         id="path917" />
    </g>
  </g>
</svg>
