<?xml version="1.0" encoding="UTF-8" standalone="no"?>
<svg
   xmlns:dc="http://purl.org/dc/elements/1.1/"
   xmlns:cc="http://creativecommons.org/ns#"
   xmlns:rdf="http://www.w3.org/1999/02/22-rdf-syntax-ns#"
   xmlns:svg="http://www.w3.org/2000/svg"
   xmlns="http://www.w3.org/2000/svg"
   xmlns:sodipodi="http://sodipodi.sourceforge.net/DTD/sodipodi-0.dtd"
   xmlns:inkscape="http://www.inkscape.org/namespaces/inkscape"
   width="210mm"
   height="297mm"
   viewBox="0 0 210 297"
   version="1.1"
   id="svg8"
   inkscape:version="1.0.1 (3bc2e813f5, 2020-09-07)"
   sodipodi:docname="zeroize_engrave.svg">
  <defs
     id="defs2">
    <marker
       id="DistanceX"
       orient="auto"
       refX="0.0"
       refY="0.0"
       style="overflow:visible">
      <path
         d="M 3,-3 L -3,3 M 0,-5 L  0,5"
         style="stroke:#000000; stroke-width:0.5"
         id="path833" />
    </marker>
    <pattern
       id="Hatch"
       patternUnits="userSpaceOnUse"
       width="8"
       height="8"
       x="0"
       y="0">
      <path
         d="M8 4 l-4,4"
         stroke="#000000"
         stroke-width="0.25"
         linecap="square"
         id="path836" />
      <path
         d="M6 2 l-4,4"
         stroke="#000000"
         stroke-width="0.25"
         linecap="square"
         id="path838" />
      <path
         d="M4 0 l-4,4"
         stroke="#000000"
         stroke-width="0.25"
         linecap="square"
         id="path840" />
    </pattern>
    <symbol
       id="*Model_Space" />
    <symbol
       id="*Paper_Space" />
  </defs>
  <sodipodi:namedview
     id="base"
     pagecolor="#ffffff"
     bordercolor="#666666"
     borderopacity="1.0"
     inkscape:pageopacity="0.0"
     inkscape:pageshadow="2"
     inkscape:zoom="1.979899"
     inkscape:cx="216.52966"
     inkscape:cy="418.72281"
     inkscape:document-units="mm"
     inkscape:current-layer="layer1"
     inkscape:document-rotation="0"
     showgrid="false"
     inkscape:window-width="1918"
     inkscape:window-height="2071"
     inkscape:window-x="-8"
     inkscape:window-y="0"
     inkscape:window-maximized="0" />
  <metadata
     id="metadata5">
    <rdf:RDF>
      <cc:Work
         rdf:about="">
        <dc:format>image/svg+xml</dc:format>
        <dc:type
           rdf:resource="http://purl.org/dc/dcmitype/StillImage" />
        <dc:title></dc:title>
      </cc:Work>
    </rdf:RDF>
  </metadata>
  <g
     inkscape:label="Lag 1"
     inkscape:groupmode="layer"
     id="layer1">
    <g
       inkscape:label="0"
       id="g861"
       transform="matrix(0.26458333,0,0,0.26458333,5.8452367,-90.416669)"
       style="stroke:#ff0000">
      <path
         d="M 18.897638,1122.5197 H 268.34646 a 18.897638,18.897638 0 0 0 18.89763,-18.8977 V 379.84252 A 18.897638,18.897638 0 0 0 268.34646,360.94488 H 18.897638 A 18.897638,18.897638 0 0 0 0,379.84252 V 1103.622 a 18.897638,18.897638 0 0 0 18.897638,18.8977 z"
         style="fill:none;stroke:#ff0000;stroke-linecap:round"
         id="path847" />
      <path
         d="m 26.456693,1103.622 a 7.559055,7.559055 0 1 0 -15.11811,0 7.559055,7.559055 0 1 0 15.11811,0 z"
         style="fill:none;stroke:#ff0000;stroke-linecap:round"
         id="path849" />
      <path
         d="m 275.90551,1103.622 a 7.559055,7.559055 0 1 0 -15.11811,0 7.559055,7.559055 0 1 0 15.11811,0 z"
         style="fill:none;stroke:#ff0000;stroke-linecap:round"
         id="path851" />
      <path
         d="m 26.456693,379.84252 a 7.559055,7.559055 0 1 0 -15.11811,0 7.559055,7.559055 0 1 0 15.11811,0 z"
         style="fill:none;stroke:#ff0000;stroke-linecap:round"
         id="path853" />
      <path
         d="m 275.90551,379.84252 a 7.559055,7.559055 0 1 0 -15.11811,0 7.559055,7.559055 0 1 0 15.11811,0 z"
         style="fill:none;stroke:#ff0000;stroke-linecap:round"
         id="path855" />
      <path
         d="m 204.09449,971.33858 a 22.677165,22.677165 0 1 0 -45.35433,0 22.677165,22.677165 0 1 0 45.35433,0 z"
         style="fill:none;stroke:#ff0000;stroke-linecap:round"
         id="path857" />
      <path
         d="m 204.09449,480 a 22.677165,22.677165 0 1 0 -45.35433,0 22.677165,22.677165 0 1 0 45.35433,0 z"
         style="fill:none;stroke:#ff0000;stroke-linecap:round"
         id="path859" />
    </g>
    <g
       aria-label="ZEROIZE
OFP"
       id="text895"
       style="font-size:3.29433px;line-height:1.25;font-family:'MS 33558';-inkscape-font-specification:'MS 33558, Normal';text-align:center;text-anchor:middle;stroke-width:0.264583">
      <path
         d="m 47.515401,21.480809 h -1.140469 q -0.221981,-0.01769 -0.226807,-0.217155 -0.0032,-0.199461 0.226807,-0.236458 h 1.515263 q 0.135119,0.0193 0.196245,0.112599 0.06273,0.09169 0.0032,0.221981 l -1.335105,2.502919 h 1.238591 q 0.231633,0.03378 0.230024,0.230024 -0.0016,0.194635 -0.230024,0.226807 H 46.37009 q -0.297584,-0.04504 -0.197853,-0.339406 z"
         style="text-align:center;text-anchor:middle;stroke-width:0.264583"
         id="path973" />
      <path
         d="m 50.414025,21.475984 h -1.333496 v 0.879882 h 1.01661 q 0.228415,0.03378 0.226807,0.230024 0,0.194636 -0.226807,0.226807 h -1.01661 v 1.056823 h 1.333496 q 0.226807,0.03378 0.226807,0.226807 0,0.193027 -0.226807,0.225199 H 48.856939 Q 48.65587,24.295789 48.628524,24.09311 v -2.840716 q 0.03056,-0.21233 0.228415,-0.225198 h 1.557086 q 0.226807,0.01769 0.225198,0.226807 0,0.207504 -0.225198,0.221981 z"
         style="text-align:center;text-anchor:middle;stroke-width:0.264583"
         id="path975" />
      <path
         d="m 53.119622,23.972468 q 0.102948,0.181767 -0.05791,0.305626 -0.07721,0.05469 -0.17855,0.037 -0.09973,-0.01769 -0.146379,-0.09973 l -0.79302,-1.253068 h -0.40214 v 1.132426 q 0,0.139944 -0.127076,0.202678 -0.127076,0.06113 -0.238067,-0.02413 -0.08847,-0.06595 -0.08847,-0.17855 v -2.842325 q 0,-0.0933 0.06434,-0.159247 0.06595,-0.06595 0.160856,-0.06595 h 0.998915 q 0.360318,0 0.62573,0.230024 0.265412,0.228415 0.329755,0.58069 0.06756,0.378011 -0.160856,0.707766 -0.226807,0.328146 -0.60321,0.398923 l -0.03056,0.0048 z m -0.807497,-1.46218 q 0.164073,0 0.302409,-0.09973 0.139945,-0.09973 0.188202,-0.260587 0.0756,-0.247718 -0.06917,-0.447179 -0.144771,-0.20107 -0.398923,-0.221982 h -0.79302 v 1.029479 z"
         style="text-align:center;text-anchor:middle;stroke-width:0.264583"
         id="path977" />
      <path
         d="m 55.849348,21.974637 q 0.147987,0.445571 0.11099,0.924922 -0.03539,0.479351 -0.262195,0.875056 -0.143162,0.24611 -0.39088,0.418226 -0.247718,0.172116 -0.54691,0.120642 -0.487394,-0.08525 -0.746372,-0.508305 -0.258978,-0.423051 -0.297583,-0.941007 -0.037,-0.519565 0.139944,-1.011784 0.178551,-0.492219 0.567822,-0.715809 0.18981,-0.109382 0.397314,-0.109382 0.395706,0 0.646641,0.299192 0.250935,0.297583 0.381229,0.648249 z m -1.015001,-0.49061 q -0.295975,0 -0.448788,0.318494 -0.151205,0.318495 -0.191419,0.543693 -0.03056,0.164074 -0.02252,0.397315 0.008,0.233241 0.06756,0.461656 0.05952,0.226807 0.17855,0.410183 0.119033,0.181767 0.31206,0.241284 0.225199,0.07078 0.387663,-0.08847 0.164073,-0.160856 0.247718,-0.341015 0.08525,-0.184984 0.115817,-0.485784 0.03217,-0.300801 -0.01448,-0.599993 -0.04504,-0.300801 -0.178551,-0.540476 -0.13351,-0.241284 -0.37962,-0.307235 -0.03217,-0.0097 -0.07399,-0.0097 z"
         style="text-align:center;text-anchor:middle;stroke-width:0.264583"
         id="path979" />
      <path
         d="m 56.849871,24.099544 q -0.03539,0.226807 -0.230024,0.225199 -0.193027,0 -0.226807,-0.225199 v -2.843933 q 0.03378,-0.226807 0.226807,-0.226807 0.194636,-0.0016 0.230024,0.226807 z"
         style="text-align:center;text-anchor:middle;stroke-width:0.264583"
         id="path981" />
      <path
         d="m 58.673978,21.480809 h -1.140469 q -0.221981,-0.01769 -0.226807,-0.217155 -0.0032,-0.199461 0.226807,-0.236458 h 1.515263 q 0.135119,0.0193 0.196245,0.112599 0.06273,0.09169 0.0032,0.221981 l -1.335105,2.502919 h 1.238591 q 0.231633,0.03378 0.230024,0.230024 -0.0016,0.194635 -0.230024,0.226807 H 57.528684 Q 57.2311,24.276486 57.330831,23.98212 Z"
         style="text-align:center;text-anchor:middle;stroke-width:0.264583"
         id="path983" />
      <path
         d="m 61.572603,21.475984 h -1.333496 v 0.879882 h 1.016609 q 0.228416,0.03378 0.226807,0.230024 0,0.194636 -0.226807,0.226807 h -1.016609 v 1.056823 h 1.333496 q 0.226806,0.03378 0.226806,0.226807 0,0.193027 -0.226806,0.225199 h -1.557086 q -0.20107,-0.02574 -0.228416,-0.228416 v -2.840716 q 0.03056,-0.21233 0.228416,-0.225198 h 1.557086 q 0.226806,0.01769 0.225198,0.226807 0,0.207504 -0.225198,0.221981 z"
         style="text-align:center;text-anchor:middle;stroke-width:0.264583"
         id="path985" />
      <path
         d="m 52.444027,26.09255 q 0.147988,0.445571 0.110991,0.924921 -0.03539,0.479351 -0.262195,0.875057 -0.143162,0.246109 -0.39088,0.418225 -0.247718,0.172116 -0.54691,0.120642 -0.487394,-0.08525 -0.746372,-0.508305 -0.258978,-0.423051 -0.297584,-0.941007 -0.037,-0.519565 0.139945,-1.011784 0.17855,-0.492219 0.567822,-0.715809 0.18981,-0.109382 0.397314,-0.109382 0.395705,0 0.646641,0.299192 0.250935,0.297584 0.381228,0.64825 z m -1.015001,-0.490611 q -0.295975,0 -0.448788,0.318495 -0.151204,0.318495 -0.191418,0.543693 -0.03056,0.164073 -0.02252,0.397314 0.008,0.233241 0.06756,0.461657 0.05952,0.226807 0.17855,0.410182 0.119034,0.181768 0.312061,0.241284 0.225198,0.07078 0.387663,-0.08847 0.164073,-0.160855 0.247718,-0.341014 0.08525,-0.184985 0.115816,-0.485785 0.03217,-0.300801 -0.01448,-0.599993 -0.04504,-0.3008 -0.17855,-0.540476 -0.13351,-0.241284 -0.37962,-0.307235 -0.03217,-0.0097 -0.07399,-0.0097 z"
         style="text-align:center;text-anchor:middle;stroke-width:0.264583"
         id="path987" />
      <path
         d="m 52.98772,28.211022 v -2.837499 q 0.02895,-0.212329 0.228416,-0.228415 h 1.557086 q 0.223589,0.01769 0.223589,0.228415 0,0.209113 -0.226807,0.22359 h -1.330278 v 0.879882 h 1.037521 q 0.221981,0.01609 0.225198,0.217156 0.0032,0.20107 -0.225198,0.23485 h -1.037521 v 1.282021 q -0.01609,0.221982 -0.218764,0.225199 -0.20107,0.0032 -0.233242,-0.225199 z"
         style="text-align:center;text-anchor:middle;stroke-width:0.264583"
         id="path989" />
      <path
         d="m 56.68419,25.145108 h 0.03056 q 0.205895,0.01448 0.37962,0.0933 0.332972,0.156031 0.471308,0.513131 0.138336,0.3571 -0.0032,0.696506 -0.114208,0.26863 -0.337798,0.421443 -0.22359,0.151204 -0.509913,0.168899 l -0.03056,0.0016 h -0.78176 v 1.17264 q -0.02895,0.226807 -0.228415,0.226807 -0.199462,0 -0.226807,-0.226807 v -2.842325 q 0.02413,-0.199461 0.21233,-0.225198 h 0.01448 z m 0,0.453614 h -0.78176 v 0.986047 h 0.78176 q 0.183376,0 0.323321,-0.122251 0.141553,-0.12225 0.165681,-0.305626 0.02895,-0.221981 -0.119033,-0.389271 -0.147988,-0.168899 -0.369969,-0.168899 z"
         style="text-align:center;text-anchor:middle;stroke-width:0.264583"
         id="path991" />
    </g>
    <g
       aria-label="DATA"
       id="text901"
       style="font-size:3.29433px;line-height:1.25;font-family:'MS 33558';-inkscape-font-specification:'MS 33558, Normal';stroke-width:0.264583">
      <path
         d="m 48.996301,44.814183 h 0.757632 q 0.564604,0 0.846102,0.514739 0.281498,0.514739 0.281498,1.132426 0,0.617687 -0.283106,1.132426 -0.281498,0.514739 -0.844494,0.514739 h -0.757632 0.0032 -0.0032 q -0.05308,-0.008 -0.05791,-0.0097 -0.16729,-0.04021 -0.165682,-0.218765 h -0.0016 l 0.0016,-2.840716 q -0.0016,-0.0048 -0.0016,-0.01287 0.0048,-0.08847 0.06917,-0.149596 0.06595,-0.06273 0.157639,-0.06273 z m 0.757632,2.840716 q 0.0032,0 0.0064,0 0.0032,0 0.008,0 0.0032,0 0.0048,0 0.0032,-0.0016 0.008,-0.0016 0.0032,0 0.0064,0 0.0048,-0.0016 0.0097,-0.0016 0.0032,0 0.0064,0 0.0032,-0.0016 0.008,-0.0016 0.0032,0 0.0064,0 0.0032,-0.0016 0.008,-0.0016 0.0064,-0.0032 0.01287,-0.0032 0.0032,0 0.0064,-0.0016 0.0032,-0.0032 0.008,-0.0048 0.0032,0 0.0064,0 0.0048,-0.0016 0.0097,-0.0032 0.0032,0 0.0064,-0.0016 0.0032,-0.0016 0.008,-0.0032 0.0097,-0.0032 0.01448,-0.0064 0.02895,-0.0097 0.01609,-0.0064 0.0032,0 0.0064,-0.0016 0.0032,-0.0032 0.008,-0.0048 0.01448,-0.0097 0.01287,-0.008 0.01609,-0.008 0.01609,-0.008 0.0032,-0.0016 0.0064,-0.0032 0.0032,-0.0032 0.008,-0.0064 0.01448,-0.0097 0.01448,-0.0097 0.0032,-0.0016 0.0064,-0.0032 0.0048,-0.0032 0.0097,-0.0064 0.0032,-0.0016 0.0064,-0.0048 0.0032,-0.0032 0.008,-0.0064 0.0032,-0.0016 0.0064,-0.0032 0.0032,-0.0032 0.008,-0.0064 0.0032,-0.0032 0.01608,-0.01287 0.01287,-0.01287 0.01287,-0.01287 0.0032,-0.0032 0.0064,-0.0064 0.0032,-0.0032 0.008,-0.008 0.0032,-0.0032 0.0064,-0.0064 0.0032,-0.0032 0.008,-0.008 0.0048,-0.0032 0.01448,-0.01287 0.0032,-0.0032 0.0064,-0.0064 0.0032,-0.0032 0.008,-0.008 0.0032,-0.0032 0.0064,-0.0064 0.0032,-0.0048 0.008,-0.0097 0.0193,-0.02574 0.01287,-0.01609 0.01126,-0.01126 0.01448,-0.01769 0.01448,-0.0193 0.01287,-0.01769 0.0032,-0.0048 0.0064,-0.008 0.0032,-0.0048 0.008,-0.0097 0.0032,-0.0048 0.0048,-0.0097 0.0032,-0.0048 0.008,-0.0097 0.0016,-0.0048 0.0048,-0.0097 0.0048,-0.0064 0.008,-0.01126 0.0097,-0.01287 0.01287,-0.0193 0.0032,-0.0048 0.0048,-0.0097 0.0032,-0.0064 0.008,-0.01126 0.0032,-0.0048 0.0048,-0.0097 0.0032,-0.0064 0.008,-0.01126 0.0032,-0.008 0.0097,-0.02091 0.0032,-0.0048 0.0048,-0.01126 0.0032,-0.0064 0.008,-0.01287 0.0032,-0.0048 0.0048,-0.0097 0.0032,-0.0064 0.008,-0.01287 0.0016,-0.0048 0.0032,-0.01126 0.0032,-0.0064 0.0064,-0.01287 0.0048,-0.008 0.01126,-0.02413 0.01608,-0.04021 0.01126,-0.02574 0.0016,-0.0048 0.0032,-0.01126 0.0032,-0.008 0.0064,-0.01448 0.0016,-0.0064 0.0032,-0.01287 0.0032,-0.0064 0.0064,-0.01448 0.0048,-0.01448 0.008,-0.02574 0.0016,-0.0064 0.0032,-0.01287 0.0032,-0.0064 0.0064,-0.01448 -0.0064,0.01609 0.008,-0.02735 0.0032,-0.008 0.0097,-0.02735 0,-0.0064 0.0016,-0.01287 0.0032,-0.008 0.0048,-0.01609 0.0016,-0.0064 0.0032,-0.01287 0.0016,-0.008 0.0048,-0.01609 0,-0.0048 0.0016,-0.01126 0.0032,-0.008 0.0048,-0.01608 0.0016,-0.01126 0.0048,-0.03056 0,-0.0064 0.0016,-0.01287 0.0032,-0.008 0.0048,-0.01609 0,-0.0064 0.0016,-0.01287 0.0016,-0.008 0.0032,-0.01609 0.0016,-0.01126 0.0048,-0.03056 0,-0.0064 0.0016,-0.01448 0.0032,-0.008 0.0048,-0.01608 0,-0.01126 0.0032,-0.03056 0,-0.0064 0,-0.01287 0.0016,-0.008 0.0032,-0.0177 0.0032,-0.0193 0.0032,-0.03056 0.0016,-0.01126 0.0016,-0.03056 0.0016,-0.01126 0.0016,-0.03217 0.0016,-0.01126 0.0016,-0.03056 0,-0.008 0,-0.01448 0.0016,-0.008 0.0032,-0.01769 0,-0.0064 0,-0.01287 0.0016,-0.008 0.0016,-0.01769 0,-0.0064 0,-0.01448 0,-0.008 0,-0.01609 0,-0.008 0,-0.01448 0,-0.008 0,-0.01609 0,-0.008 -0.0016,-0.01448 0,-0.008 0,-0.01769 0,-0.0064 0,-0.01448 0,-0.008 0,-0.01609 0,-0.0097 -0.0032,-0.03217 0,-0.0193 -0.0016,-0.02895 0,-0.01126 -0.0032,-0.03378 0,-0.0193 -0.0016,-0.02895 0,-0.01126 -0.0032,-0.03056 -0.0016,-0.0064 -0.0032,-0.01448 0,-0.008 0,-0.01609 -0.0032,-0.0193 -0.0064,-0.03056 -0.0016,-0.0064 -0.0032,-0.01287 -0.0016,-0.008 -0.0016,-0.01609 -0.0016,-0.01126 -0.0048,-0.03056 -0.0016,-0.01126 -0.0048,-0.03056 -0.0064,-0.0193 -0.008,-0.02895 -0.0032,-0.0193 -0.0048,-0.02734 -0.0032,-0.0064 -0.0048,-0.01287 -0.0016,-0.008 -0.0032,-0.01608 -0.0016,-0.0064 -0.0048,-0.01287 -0.0032,-0.008 -0.0032,-0.01609 -0.01448,-0.04343 -0.008,-0.02734 -0.0032,-0.01126 -0.008,-0.02735 -0.0032,-0.0048 -0.0064,-0.01126 -0.0016,-0.008 -0.0032,-0.01448 -0.0016,-0.0048 -0.0097,-0.02735 -0.0064,-0.01609 -0.0097,-0.02574 -0.0032,-0.0048 -0.0064,-0.01126 -0.0016,-0.008 -0.0032,-0.01448 -0.0032,-0.0048 -0.0064,-0.01126 -0.0032,-0.0064 -0.0048,-0.01287 -0.0064,-0.01609 -0.01126,-0.02413 -0.0064,-0.01608 -0.0097,-0.02252 -0.0064,-0.01608 -0.01126,-0.02413 -0.0032,-0.0048 -0.0064,-0.0097 -0.0032,-0.0064 -0.0048,-0.01126 -0.0097,-0.01609 -0.01287,-0.02252 -0.01448,-0.02252 -0.01287,-0.02091 -0.0048,-0.0048 -0.008,-0.0097 -0.0016,-0.0064 -0.0048,-0.01126 -0.0032,-0.0064 -0.01287,-0.0193 -0.0032,-0.0048 -0.0064,-0.0097 -0.0032,-0.0048 -0.0048,-0.0097 -0.008,-0.01448 -0.02735,-0.037 -0.0032,-0.0032 -0.02574,-0.03539 -0.0193,-0.02252 -0.02895,-0.03217 -0.0097,-0.01126 -0.02895,-0.03056 -0.01287,-0.01448 -0.02734,-0.02735 -0.01126,-0.008 -0.03056,-0.02413 -0.01609,-0.01287 -0.03056,-0.02413 -0.037,-0.02413 -0.03056,-0.02091 -0.03217,-0.0193 -0.02895,-0.01769 0,0 -0.02895,-0.01448 -0.0064,-0.0032 -0.03056,-0.01126 -0.02091,-0.008 -0.03056,-0.01126 -0.008,-0.0016 -0.01448,-0.0032 -0.0064,-0.0032 -0.01287,-0.0064 -0.02895,-0.0048 -0.02895,-0.0048 -0.0097,-0.0016 -0.02895,-0.0016 -0.0048,0 -0.008,0 -0.0032,0 -0.0064,0 h -0.530825 v 2.387102 0 z"
         style="stroke-width:0.264583"
         id="path964" />
      <path
         d="m 53.033786,47.051689 -0.489003,-1.35119 -0.492219,1.35119 z m -0.489003,-1.35119 0.489003,1.35119 z m -1.241807,2.097562 q 0.257369,-0.709375 0.514739,-1.417141 0.258978,-0.709375 0.517956,-1.41875 0.05308,-0.146378 0.210721,-0.147987 0.157639,-0.0016 0.21233,0.147987 l 1.031087,2.843934 q 0.04826,0.226807 -0.138337,0.292758 -0.186592,0.06595 -0.287932,-0.135119 l -0.165681,-0.460048 h -1.310976 l -0.160856,0.448788 q -0.102948,0.202678 -0.292758,0.13351 -0.18981,-0.07078 -0.130293,-0.287932 z"
         style="stroke-width:0.264583"
         id="path966" />
      <path
         d="m 54.922234,47.883315 v -2.615518 h -0.590341 q -0.225198,-0.01769 -0.225198,-0.225199 0.0016,-0.209112 0.225198,-0.228415 h 1.632688 q 0.221981,0.01769 0.221981,0.228415 0.0016,0.209113 -0.221981,0.225199 h -0.588733 v 2.615518 q -0.037,0.228415 -0.238067,0.225198 -0.199461,-0.0032 -0.215547,-0.225198 z"
         style="stroke-width:0.264583"
         id="path968" />
      <path
         d="m 58.409591,47.051689 -0.489002,-1.35119 -0.492219,1.35119 z m -0.489002,-1.35119 0.489002,1.35119 z m -1.241808,2.097562 q 0.25737,-0.709375 0.514739,-1.417141 0.258979,-0.709375 0.517957,-1.41875 0.05308,-0.146378 0.210721,-0.147987 0.157639,-0.0016 0.21233,0.147987 l 1.031086,2.843934 q 0.04826,0.226807 -0.138336,0.292758 -0.186593,0.06595 -0.287932,-0.135119 l -0.165682,-0.460048 h -1.310976 l -0.160855,0.448788 q -0.102948,0.202678 -0.292758,0.13351 -0.18981,-0.07078 -0.130294,-0.287932 z"
         style="stroke-width:0.264583"
         id="path970" />
    </g>
    <g
       aria-label="OFF"
       id="text905"
       style="font-size:3.29433px;line-height:1.25;font-family:'MS 33558';-inkscape-font-specification:'MS 33558, Normal';stroke-width:0.264583">
      <path
         d="m 64.012282,35.739015 q 0.147988,0.445571 0.110991,0.924922 -0.03539,0.47935 -0.262195,0.875056 -0.143162,0.24611 -0.39088,0.418225 -0.247718,0.172116 -0.546911,0.120642 -0.487393,-0.08525 -0.746371,-0.508304 -0.258978,-0.423052 -0.297584,-0.941008 -0.037,-0.519564 0.139945,-1.011784 0.17855,-0.492219 0.567822,-0.715809 0.18981,-0.109382 0.397314,-0.109382 0.395705,0 0.646641,0.299192 0.250935,0.297584 0.381228,0.64825 z m -1.015001,-0.490611 q -0.295975,0 -0.448788,0.318495 -0.151204,0.318495 -0.191418,0.543693 -0.03056,0.164073 -0.02252,0.397314 0.008,0.233241 0.06756,0.461657 0.05952,0.226807 0.17855,0.410183 0.119034,0.181767 0.312061,0.241283 0.225198,0.07078 0.387663,-0.08847 0.164073,-0.160856 0.247718,-0.341015 0.08525,-0.184984 0.115816,-0.485785 0.03217,-0.300801 -0.01448,-0.599993 -0.04504,-0.3008 -0.17855,-0.540476 -0.13351,-0.241284 -0.37962,-0.307234 -0.03217,-0.0097 -0.07399,-0.0097 z"
         style="stroke-width:0.264583"
         id="path957" />
      <path
         d="m 64.555975,37.857488 v -2.837499 q 0.02895,-0.21233 0.228416,-0.228416 h 1.557085 q 0.22359,0.01769 0.22359,0.228416 0,0.209112 -0.226807,0.22359 h -1.330278 v 0.879882 h 1.037521 q 0.221981,0.01609 0.225198,0.217155 0.0032,0.20107 -0.225198,0.23485 h -1.037521 v 1.282022 q -0.01609,0.221981 -0.218764,0.225198 -0.20107,0.0032 -0.233242,-0.225198 z"
         style="stroke-width:0.264583"
         id="path959" />
      <path
         d="m 67.015463,37.857488 v -2.837499 q 0.02895,-0.21233 0.228415,-0.228416 h 1.557086 q 0.22359,0.01769 0.22359,0.228416 0,0.209112 -0.226807,0.22359 h -1.330279 v 0.879882 h 1.037521 q 0.221981,0.01609 0.225198,0.217155 0.0032,0.20107 -0.225198,0.23485 h -1.037521 v 1.282022 q -0.01608,0.221981 -0.218764,0.225198 -0.20107,0.0032 -0.233241,-0.225198 z"
         style="stroke-width:0.264583"
         id="path961" />
    </g>
    <g
       aria-label="VOICE
MESSAGE"
       id="text909"
       style="font-size:3.29433px;line-height:1.25;font-family:'MS 33558';-inkscape-font-specification:'MS 33558, Normal';text-align:center;text-anchor:middle;stroke-width:0.264583">
      <path
         d="m 49.0349,150.28876 q -0.03056,-0.22842 0.162465,-0.27989 0.194635,-0.0515 0.276672,0.16246 l 0.542084,2.00748 0.545302,-2.02678 q 0.08204,-0.21716 0.283107,-0.15764 0.201069,0.0579 0.154421,0.27506 l -0.765674,2.84233 q -0.06434,0.16568 -0.215547,0.16729 -0.151205,0 -0.220373,-0.16086 z"
         style="text-align:center;text-anchor:middle;stroke-width:0.264583"
         id="path932" />
      <path
         d="m 53.590341,150.93218 q 0.147987,0.44557 0.11099,0.92492 -0.03539,0.47935 -0.262195,0.87506 -0.143162,0.24611 -0.39088,0.41822 -0.247718,0.17212 -0.54691,0.12065 -0.487394,-0.0853 -0.746372,-0.50831 -0.258978,-0.42305 -0.297583,-0.94101 -0.037,-0.51956 0.139944,-1.01178 0.178551,-0.49222 0.567822,-0.71581 0.18981,-0.10938 0.397314,-0.10938 0.395706,0 0.646641,0.29919 0.250935,0.29758 0.381229,0.64825 z m -1.015001,-0.49061 q -0.295975,0 -0.448788,0.31849 -0.151205,0.3185 -0.191419,0.5437 -0.03056,0.16407 -0.02252,0.39731 0.008,0.23324 0.06756,0.46166 0.05952,0.2268 0.17855,0.41018 0.119033,0.18177 0.31206,0.24128 0.225199,0.0708 0.387663,-0.0885 0.164073,-0.16085 0.247718,-0.34101 0.08525,-0.18499 0.115817,-0.48579 0.03217,-0.3008 -0.01448,-0.59999 -0.04504,-0.3008 -0.178551,-0.54047 -0.13351,-0.24129 -0.37962,-0.30724 -0.03217,-0.01 -0.07399,-0.01 z"
         style="text-align:center;text-anchor:middle;stroke-width:0.264583"
         id="path934" />
      <path
         d="m 54.590865,153.05709 q -0.03539,0.2268 -0.230024,0.2252 -0.193027,0 -0.226807,-0.2252 v -2.84394 q 0.03378,-0.2268 0.226807,-0.2268 0.194636,-0.002 0.230024,0.2268 z"
         style="text-align:center;text-anchor:middle;stroke-width:0.264583"
         id="path936" />
      <path
         d="m 57.11952,152.76433 -0.01448,0.0209 q -0.0048,0.006 -0.008,0.0113 -0.0032,0.005 -0.0064,0.01 -0.220372,0.29759 -0.579081,0.42466 -0.3571,0.12547 -0.704549,-0.0466 -0.403749,-0.20107 -0.593559,-0.68203 -0.188201,-0.48096 -0.162464,-0.99891 0.02734,-0.51957 0.273455,-0.95388 0.247718,-0.43431 0.717417,-0.54369 0.270238,-0.0627 0.538868,0.0531 0.268629,0.11421 0.440745,0.32171 0.0016,0 0.008,0.0113 0.07399,0.0965 0.03056,0.21233 -0.04343,0.11421 -0.159248,0.14317 -0.123859,0.0322 -0.228415,-0.074 -0.215547,-0.25093 -0.415009,-0.24128 -0.199461,0.01 -0.3571,0.16407 -0.157639,0.15442 -0.262195,0.39571 -0.104556,0.24128 -0.128685,0.452 -0.02895,0.23485 0.0048,0.47292 0.03539,0.23646 0.146379,0.44557 0.193027,0.36675 0.485785,0.46005 0.294366,0.0917 0.574256,-0.2815 0.01287,-0.0161 0.03056,-0.0418 0.151205,-0.16729 0.318495,-0.0338 0.168899,0.1319 0.04987,0.29919 z"
         style="text-align:center;text-anchor:middle;stroke-width:0.264583"
         id="path938" />
      <path
         d="m 59.35381,150.43353 h -1.333496 v 0.87988 h 1.01661 q 0.228415,0.0338 0.226807,0.23002 0,0.19464 -0.226807,0.22681 h -1.01661 v 1.05682 h 1.333496 q 0.226807,0.0338 0.226807,0.22681 0,0.19303 -0.226807,0.2252 h -1.557086 q -0.20107,-0.0257 -0.228415,-0.22842 v -2.84071 q 0.03056,-0.21233 0.228415,-0.2252 h 1.557086 q 0.226807,0.0177 0.225198,0.22681 0,0.2075 -0.225198,0.22198 z"
         style="text-align:center;text-anchor:middle;stroke-width:0.264583"
         id="path940" />
      <path
         d="m 47.878346,157.17178 q -0.03539,0.2252 -0.228416,0.2252 -0.191418,-0.002 -0.225198,-0.2252 v -2.00909 l -0.551736,0.94423 q -0.08847,0.10616 -0.197853,0.11099 -0.107773,0.005 -0.193027,-0.11099 l -0.548519,-0.9394 0.0016,2.00426 q -0.02574,0.22359 -0.233241,0.22359 -0.205896,-0.002 -0.221981,-0.22359 v -2.84071 q 0.01287,-0.18499 0.162464,-0.22038 0.149596,-0.037 0.260587,0.10134 l 0.773717,1.33028 0.78176,-1.33028 q 0.11099,-0.13833 0.257369,-0.10134 0.147988,0.037 0.162465,0.22038 z"
         style="text-align:center;text-anchor:middle;stroke-width:0.264583"
         id="path942" />
      <path
         d="m 50.049901,154.55144 h -1.333496 v 0.87988 h 1.01661 q 0.228415,0.0338 0.226807,0.23002 0,0.19464 -0.226807,0.22681 h -1.01661 v 1.05683 h 1.333496 q 0.226807,0.0338 0.226807,0.2268 0,0.19303 -0.226807,0.2252 h -1.557086 q -0.201069,-0.0257 -0.228415,-0.22842 v -2.84071 q 0.03056,-0.21233 0.228415,-0.2252 h 1.557086 q 0.226807,0.0177 0.225198,0.22681 0,0.2075 -0.225198,0.22198 z"
         style="text-align:center;text-anchor:middle;stroke-width:0.264583"
         id="path944" />
      <path
         d="m 52.342099,155.64365 0.02574,0.0113 0.02896,0.0145 0.02574,0.0145 q 0.01126,0.008 0.02413,0.0161 0.01448,0.006 0.02734,0.0145 0.318495,0.20911 0.394098,0.57908 0.02895,0.14477 0.01287,0.29758 -0.02574,0.21877 -0.154422,0.40536 -0.127076,0.18498 -0.320103,0.28632 -0.207504,0.10938 -0.429485,0.10938 -0.373186,0 -0.712592,-0.0949 -0.339406,-0.0965 -0.484177,-0.51313 -0.0193,-0.0531 -0.02895,-0.10938 -0.0097,-0.0563 -0.02252,-0.1126 -0.02413,-0.11582 0.0563,-0.20429 0.08204,-0.0885 0.202678,-0.0676 0.127077,0.0257 0.176942,0.15764 l 0.0048,0.0145 q 0.07721,0.34905 0.268629,0.41661 0.193027,0.0676 0.53565,0.0611 0.315278,0 0.432703,-0.29598 0.05147,-0.1319 0.01609,-0.27345 -0.03539,-0.14316 -0.139945,-0.23807 -0.04665,-0.0402 -0.122251,-0.0756 l -0.744763,-0.32654 -0.02413,-0.0129 q -0.365143,-0.19302 -0.453614,-0.54851 -0.107773,-0.4118 0.149596,-0.73833 0.258978,-0.32815 0.678812,-0.32815 l 0.176942,0.005 q 0.08686,0.0161 0.16729,0.0322 0.08043,0.0145 0.162464,0.0515 0.202679,0.0949 0.310452,0.26059 0.107774,0.16568 0.194636,0.35871 0.008,0.0177 0.01448,0.0418 0.01769,0.0788 -0.01609,0.14316 -0.0193,0.0402 -0.04021,0.0611 -0.02091,0.0209 -0.03378,0.0289 -0.08364,0.0595 -0.183376,0.0354 -0.09973,-0.0225 -0.152813,-0.12869 -0.04182,-0.0933 -0.09008,-0.18981 -0.04665,-0.0981 -0.131902,-0.16246 -0.03539,-0.0257 -0.06917,-0.037 -0.03217,-0.0129 -0.07239,-0.0273 l -0.104556,-0.0177 -0.147987,-0.005 q -0.215547,0.003 -0.329755,0.18659 -0.07721,0.11742 -0.05791,0.2622 0.02252,0.17855 0.16729,0.27667 0.0064,0.005 0.01448,0.0113 0.008,0.005 0.01769,0.01 l 0.01769,0.008 0.0193,0.008 z"
         style="text-align:center;text-anchor:middle;stroke-width:0.264583"
         id="path946" />
      <path
         d="m 54.902925,155.64365 0.02574,0.0113 0.02895,0.0145 0.02574,0.0145 q 0.01126,0.008 0.02413,0.0161 0.01448,0.006 0.02735,0.0145 0.318495,0.20911 0.394097,0.57908 0.02895,0.14477 0.01287,0.29758 -0.02574,0.21877 -0.154421,0.40536 -0.127077,0.18498 -0.320104,0.28632 -0.207504,0.10938 -0.429485,0.10938 -0.373186,0 -0.712592,-0.0949 -0.339406,-0.0965 -0.484176,-0.51313 -0.0193,-0.0531 -0.02896,-0.10938 -0.0097,-0.0563 -0.02252,-0.1126 -0.02413,-0.11582 0.0563,-0.20429 0.08204,-0.0885 0.202679,-0.0676 0.127076,0.0257 0.176941,0.15764 l 0.0048,0.0145 q 0.07721,0.34905 0.268629,0.41661 0.193028,0.0676 0.535651,0.0611 0.315277,0 0.432702,-0.29598 0.05147,-0.1319 0.01609,-0.27345 -0.03539,-0.14316 -0.139945,-0.23807 -0.04665,-0.0402 -0.12225,-0.0756 l -0.744763,-0.32654 -0.02413,-0.0129 q -0.365143,-0.19302 -0.453614,-0.54851 -0.107773,-0.4118 0.149596,-0.73833 0.258979,-0.32815 0.678813,-0.32815 l 0.176941,0.005 q 0.08686,0.0161 0.16729,0.0322 0.08043,0.0145 0.162465,0.0515 0.202678,0.0949 0.310452,0.26059 0.107773,0.16568 0.194635,0.35871 0.008,0.0177 0.01448,0.0418 0.01769,0.0788 -0.01609,0.14316 -0.0193,0.0402 -0.04021,0.0611 -0.02091,0.0209 -0.03378,0.0289 -0.08364,0.0595 -0.183376,0.0354 -0.09973,-0.0225 -0.152813,-0.12869 -0.04182,-0.0933 -0.09008,-0.18981 -0.04665,-0.0981 -0.131902,-0.16246 -0.03539,-0.0257 -0.06917,-0.037 -0.03217,-0.0129 -0.07238,-0.0273 l -0.104557,-0.0177 -0.147987,-0.005 q -0.215547,0.003 -0.329755,0.18659 -0.07721,0.11742 -0.05791,0.2622 0.02252,0.17855 0.16729,0.27667 0.0064,0.005 0.01448,0.0113 0.008,0.005 0.01769,0.01 l 0.01769,0.008 0.0193,0.008 z"
         style="text-align:center;text-anchor:middle;stroke-width:0.264583"
         id="path948" />
      <path
         d="m 57.587611,156.34016 -0.489002,-1.35119 -0.492219,1.35119 z m -0.489002,-1.35119 0.489002,1.35119 z m -1.241808,2.09756 q 0.25737,-0.70938 0.514739,-1.41714 0.258978,-0.70938 0.517956,-1.41875 0.05308,-0.14638 0.210722,-0.14799 0.157638,-0.002 0.21233,0.14799 l 1.031086,2.84393 q 0.04826,0.22681 -0.138336,0.29276 -0.186593,0.066 -0.287932,-0.13512 l -0.165682,-0.46005 h -1.310976 l -0.160856,0.44879 q -0.102948,0.20268 -0.292758,0.13351 -0.18981,-0.0708 -0.130293,-0.28793 z"
         style="text-align:center;text-anchor:middle;stroke-width:0.264583"
         id="path950" />
      <path
         d="m 59.760775,156.06992 -0.01448,-0.002 q -0.196245,-0.0241 -0.196245,-0.22359 0,-0.19946 0.196245,-0.22359 l 0.01448,-0.003 h 0.01448 0.593558 q 0.0933,0 0.159247,0.0676 0.06756,0.0659 0.06756,0.15925 v 0.81554 l -0.0193,0.0418 -0.01126,0.0257 -0.01126,0.0241 -0.01287,0.0241 -0.01287,0.0241 -0.01126,0.0241 -0.01287,0.0241 -0.01448,0.0241 q -0.312061,0.53082 -0.775326,0.51956 -0.463265,-0.0129 -0.778542,-0.52439 -0.149597,-0.24289 -0.221982,-0.60803 -0.07239,-0.36675 -0.04343,-0.74798 0.02895,-0.38284 0.176942,-0.72707 0.149596,-0.34584 0.445571,-0.54852 0.369968,-0.25093 0.720634,-0.0579 0.350666,0.19142 0.524391,0.53887 l 0.01287,0.0257 0.0097,0.0225 0.01287,0.0241 q 0.05469,0.15281 -0.04182,0.24932 -0.0933,0.0917 -0.202679,0.0692 -0.109382,-0.0241 -0.168899,-0.13029 -0.188201,-0.46649 -0.485785,-0.40697 -0.295975,0.0595 -0.443962,0.48579 -0.14477,0.41179 -0.114208,0.88631 0.03056,0.47292 0.308844,0.82519 0.191418,0.24611 0.389271,0.15764 0.197853,-0.0885 0.312061,-0.32975 l 0.01769,-0.0354 v -0.49061 z"
         style="text-align:center;text-anchor:middle;stroke-width:0.264583"
         id="path952" />
      <path
         d="m 62.905509,154.55144 h -1.333496 v 0.87988 h 1.01661 q 0.228415,0.0338 0.226806,0.23002 0,0.19464 -0.226806,0.22681 h -1.01661 v 1.05683 h 1.333496 q 0.226807,0.0338 0.226807,0.2268 0,0.19303 -0.226807,0.2252 h -1.557086 q -0.20107,-0.0257 -0.228415,-0.22842 v -2.84071 q 0.03056,-0.21233 0.228415,-0.2252 h 1.557086 q 0.226807,0.0177 0.225198,0.22681 0,0.2075 -0.225198,0.22198 z"
         style="text-align:center;text-anchor:middle;stroke-width:0.264583"
         id="path954" />
    </g>
    <g
       aria-label="INHIBIT"
       id="text915"
       style="font-size:3.29433px;line-height:1.25;font-family:'MS 33558';-inkscape-font-specification:'MS 33558, Normal';stroke-width:0.264583"
       transform="translate(0,0.52916667)">
      <path
         d="m 48.429274,177.91317 q -0.03539,0.2268 -0.230024,0.22519 -0.193028,0 -0.226807,-0.22519 v -2.84394 q 0.03378,-0.2268 0.226807,-0.2268 0.194635,-0.002 0.230024,0.2268 z"
         style="stroke-width:0.264583"
         id="path917" />
      <path
         d="m 51.107525,177.91317 q 0,0.16889 -0.164073,0.21554 -0.162464,0.045 -0.252544,-0.0965 l -1.35119,-2.16673 v 2.0477 q -0.03539,0.22519 -0.228415,0.22519 -0.191419,0 -0.225199,-0.22519 v -2.84072 q 0.02413,-0.16729 0.170508,-0.22037 0.147987,-0.0531 0.246109,0.0997 l 1.35119,2.16994 v -2.0493 q 0.03056,-0.23002 0.233241,-0.22681 0.204287,0.002 0.220373,0.22681 z"
         style="stroke-width:0.264583"
         id="path919" />
      <path
         d="m 51.569182,177.91317 v -2.84394 q 0.03378,-0.23163 0.234849,-0.2268 0.20107,0.003 0.218764,0.2268 v 1.06326 h 1.294891 v -1.06326 q 0.03378,-0.2268 0.226807,-0.2268 0.194635,-0.002 0.230024,0.2268 v 2.84394 q -0.03539,0.2268 -0.230024,0.22519 -0.193027,0 -0.226807,-0.22519 v -1.32385 h -1.294891 v 1.32385 q -0.01769,0.22198 -0.218764,0.22519 -0.20107,0.003 -0.234849,-0.22519 z"
         style="stroke-width:0.264583"
         id="path921" />
      <path
         d="m 54.668876,177.91317 q -0.03539,0.2268 -0.230024,0.22519 -0.193027,0 -0.226807,-0.22519 v -2.84394 q 0.03378,-0.2268 0.226807,-0.2268 0.194636,-0.002 0.230024,0.2268 z"
         style="stroke-width:0.264583"
         id="path923" />
      <path
         d="m 56.353038,174.84082 q 0.305626,0.0257 0.51313,0.18498 0.209113,0.15925 0.289541,0.38445 0.08043,0.22359 0.02091,0.47774 -0.05791,0.25254 -0.283106,0.46487 0.247718,0.26059 0.308843,0.563 0.06113,0.30241 -0.0386,0.56621 -0.09812,0.2622 -0.342624,0.44557 -0.244501,0.18338 -0.606427,0.20751 h -0.0048 -0.855754 q -0.197853,-0.0274 -0.228415,-0.22359 v -2.84233 q 0.02735,-0.19946 0.228415,-0.22841 z m -0.143162,2.8391 q 0.273455,-0.0113 0.416617,-0.17694 0.143161,-0.16568 0.147987,-0.36675 0.0064,-0.20268 -0.128685,-0.37962 -0.135119,-0.17694 -0.416617,-0.21394 h -0.648249 v 1.13725 z m 0.143162,-2.38227 h -0.772109 v 0.79302 h 0.776934 q 0.199462,-0.0209 0.295975,-0.14316 0.09812,-0.12386 0.0949,-0.26381 -0.0016,-0.14155 -0.101339,-0.25737 -0.09973,-0.11742 -0.294366,-0.12868 z"
         style="stroke-width:0.264583"
         id="path925" />
      <path
         d="m 58.10315,177.91317 q -0.03539,0.2268 -0.230024,0.22519 -0.193027,0 -0.226807,-0.22519 v -2.84394 q 0.03378,-0.2268 0.226807,-0.2268 0.194636,-0.002 0.230024,0.2268 z"
         style="stroke-width:0.264583"
         id="path927" />
      <path
         d="m 59.375521,177.90995 v -2.61552 H 58.78518 q -0.225199,-0.0177 -0.225199,-0.2252 0.0016,-0.20911 0.225199,-0.22841 h 1.632688 q 0.221981,0.0177 0.221981,0.22841 0.0016,0.20912 -0.221981,0.2252 h -0.588733 v 2.61552 q -0.037,0.22841 -0.238067,0.2252 -0.199461,-0.003 -0.215547,-0.2252 z"
         style="stroke-width:0.264583"
         id="path929" />
    </g>
  </g>
</svg>
