<?xml version="1.0"?>
<svg xmlns="http://www.w3.org/2000/svg" xmlns:lc="http://www.librecad.org" xmlns:xlink="http://www.w3.org/1999/xlink" width="104mm" height="115mm" viewBox="0 0 104 115">
    <g lc:layername="0" lc:is_locked="false" lc:is_construction="false" fill="none" stroke="black" stroke-width="1">
        <line x1="0" y1="115" x2="104" y2="115"/>
        <line x1="104" y1="115" x2="104" y2="0"/>
        <line x1="104" y1="0" x2="0" y2="0"/>
        <line x1="0" y1="0" x2="0" y2="115"/>
        <line x1="5" y1="10" x2="27" y2="10"/>
        <line x1="27" y1="10" x2="27" y2="21"/>
        <line x1="27" y1="21" x2="5" y2="21"/>
        <line x1="5" y1="21" x2="5" y2="10"/>
        <line x1="29" y1="10" x2="51" y2="10"/>
        <line x1="51" y1="10" x2="51" y2="21"/>
        <line x1="51" y1="21" x2="29" y2="21"/>
        <line x1="29" y1="21" x2="29" y2="10"/>
        <line x1="53" y1="10" x2="75" y2="10"/>
        <line x1="75" y1="10" x2="75" y2="21"/>
        <line x1="75" y1="21" x2="53" y2="21"/>
        <line x1="53" y1="21" x2="53" y2="10"/>
        <line x1="77" y1="10" x2="99" y2="10"/>
        <line x1="99" y1="10" x2="99" y2="21"/>
        <line x1="99" y1="21" x2="77" y2="21"/>
        <line x1="77" y1="21" x2="77" y2="10"/>
        <line x1="5" y1="22" x2="27" y2="22"/>
        <line x1="27" y1="22" x2="27" y2="33"/>
        <line x1="27" y1="33" x2="5" y2="33"/>
        <line x1="5" y1="33" x2="5" y2="22"/>
        <line x1="29" y1="22" x2="51" y2="22"/>
        <line x1="51" y1="22" x2="51" y2="33"/>
        <line x1="51" y1="33" x2="29" y2="33"/>
        <line x1="29" y1="33" x2="29" y2="22"/>
        <line x1="53" y1="22" x2="75" y2="22"/>
        <line x1="75" y1="22" x2="75" y2="33"/>
        <line x1="75" y1="33" x2="53" y2="33"/>
        <line x1="53" y1="33" x2="53" y2="22"/>
        <line x1="77" y1="22" x2="99" y2="22"/>
        <line x1="99" y1="22" x2="99" y2="33"/>
        <line x1="99" y1="33" x2="77" y2="33"/>
        <line x1="77" y1="33" x2="77" y2="22"/>
        <line x1="5" y1="34" x2="27" y2="34"/>
        <line x1="27" y1="34" x2="27" y2="45"/>
        <line x1="27" y1="45" x2="5" y2="45"/>
        <line x1="5" y1="45" x2="5" y2="34"/>
        <line x1="29" y1="34" x2="51" y2="34"/>
        <line x1="51" y1="34" x2="51" y2="45"/>
        <line x1="51" y1="45" x2="29" y2="45"/>
        <line x1="29" y1="45" x2="29" y2="34"/>
        <line x1="53" y1="34" x2="75" y2="34"/>
        <line x1="75" y1="34" x2="75" y2="45"/>
        <line x1="75" y1="45" x2="53" y2="45"/>
        <line x1="53" y1="45" x2="53" y2="34"/>
        <line x1="77" y1="34" x2="99" y2="34"/>
        <line x1="99" y1="34" x2="99" y2="45"/>
        <line x1="99" y1="45" x2="77" y2="45"/>
        <line x1="77" y1="45" x2="77" y2="34"/>
        <line x1="5" y1="46" x2="27" y2="46"/>
        <line x1="27" y1="46" x2="27" y2="57"/>
        <line x1="27" y1="57" x2="5" y2="57"/>
        <line x1="5" y1="57" x2="5" y2="46"/>
        <line x1="29" y1="46" x2="51" y2="46"/>
        <line x1="51" y1="46" x2="51" y2="57"/>
        <line x1="51" y1="57" x2="29" y2="57"/>
        <line x1="29" y1="57" x2="29" y2="46"/>
        <line x1="53" y1="46" x2="75" y2="46"/>
        <line x1="75" y1="46" x2="75" y2="57"/>
        <line x1="75" y1="57" x2="53" y2="57"/>
        <line x1="53" y1="57" x2="53" y2="46"/>
        <line x1="77" y1="46" x2="99" y2="46"/>
        <line x1="99" y1="46" x2="99" y2="57"/>
        <line x1="99" y1="57" x2="77" y2="57"/>
        <line x1="77" y1="57" x2="77" y2="46"/>
        <line x1="5" y1="58" x2="27" y2="58"/>
        <line x1="27" y1="58" x2="27" y2="69"/>
        <line x1="27" y1="69" x2="5" y2="69"/>
        <line x1="5" y1="69" x2="5" y2="58"/>
        <line x1="29" y1="58" x2="51" y2="58"/>
        <line x1="51" y1="58" x2="51" y2="69"/>
        <line x1="51" y1="69" x2="29" y2="69"/>
        <line x1="29" y1="69" x2="29" y2="58"/>
        <line x1="53" y1="58" x2="75" y2="58"/>
        <line x1="75" y1="58" x2="75" y2="69"/>
        <line x1="75" y1="69" x2="53" y2="69"/>
        <line x1="53" y1="69" x2="53" y2="58"/>
        <line x1="77" y1="58" x2="99" y2="58"/>
        <line x1="99" y1="58" x2="99" y2="69"/>
        <line x1="99" y1="69" x2="77" y2="69"/>
        <line x1="77" y1="69" x2="77" y2="58"/>
        <line x1="5" y1="70" x2="27" y2="70"/>
        <line x1="27" y1="70" x2="27" y2="81"/>
        <line x1="27" y1="81" x2="5" y2="81"/>
        <line x1="5" y1="81" x2="5" y2="70"/>
        <line x1="29" y1="70" x2="51" y2="70"/>
        <line x1="51" y1="70" x2="51" y2="81"/>
        <line x1="51" y1="81" x2="29" y2="81"/>
        <line x1="29" y1="81" x2="29" y2="70"/>
        <line x1="53" y1="70" x2="75" y2="70"/>
        <line x1="75" y1="70" x2="75" y2="81"/>
        <line x1="75" y1="81" x2="53" y2="81"/>
        <line x1="53" y1="81" x2="53" y2="70"/>
        <line x1="77" y1="70" x2="99" y2="70"/>
        <line x1="99" y1="70" x2="99" y2="81"/>
        <line x1="99" y1="81" x2="77" y2="81"/>
        <line x1="77" y1="81" x2="77" y2="70"/>
        <line x1="5" y1="82" x2="27" y2="82"/>
        <line x1="27" y1="82" x2="27" y2="93"/>
        <line x1="27" y1="93" x2="5" y2="93"/>
        <line x1="5" y1="93" x2="5" y2="82"/>
        <line x1="29" y1="82" x2="51" y2="82"/>
        <line x1="51" y1="82" x2="51" y2="93"/>
        <line x1="51" y1="93" x2="29" y2="93"/>
        <line x1="29" y1="93" x2="29" y2="82"/>
        <line x1="53" y1="82" x2="75" y2="82"/>
        <line x1="75" y1="82" x2="75" y2="93"/>
        <line x1="75" y1="93" x2="53" y2="93"/>
        <line x1="53" y1="93" x2="53" y2="82"/>
        <line x1="77" y1="82" x2="99" y2="82"/>
        <line x1="99" y1="82" x2="99" y2="93"/>
        <line x1="99" y1="93" x2="77" y2="93"/>
        <line x1="77" y1="93" x2="77" y2="82"/>
        <line x1="5" y1="94" x2="27" y2="94"/>
        <line x1="27" y1="94" x2="27" y2="105"/>
        <line x1="27" y1="105" x2="5" y2="105"/>
        <line x1="5" y1="105" x2="5" y2="94"/>
        <line x1="29" y1="94" x2="51" y2="94"/>
        <line x1="51" y1="94" x2="51" y2="105"/>
        <line x1="51" y1="105" x2="29" y2="105"/>
        <line x1="29" y1="105" x2="29" y2="94"/>
        <line x1="53" y1="94" x2="75" y2="94"/>
        <line x1="75" y1="94" x2="75" y2="105"/>
        <line x1="75" y1="105" x2="53" y2="105"/>
        <line x1="53" y1="105" x2="53" y2="94"/>
        <line x1="77" y1="94" x2="99" y2="94"/>
        <line x1="99" y1="94" x2="99" y2="105"/>
        <line x1="99" y1="105" x2="77" y2="105"/>
        <line x1="77" y1="105" x2="77" y2="94"/>
    </g>
</svg>
