<?xml version="1.0"?>
<svg xmlns="http://www.w3.org/2000/svg" xmlns:lc="http://www.librecad.org" xmlns:xlink="http://www.w3.org/1999/xlink" width="145mm" height="124mm" viewBox="0 0 145 124">
    <g lc:layername="0" lc:is_locked="false" lc:is_construction="false" fill="none" stroke="black" stroke-width="1">
        <path d="M50,37 L94,37 L94,50 L50,50 L50,37 Z "/>
        <line x1="135" y1="1" x2="135" y2="0"/>
        <line x1="140" y1="15" x2="145" y2="15"/>
        <line x1="135" y1="1" x2="135" y2="10"/>
        <path d="M135,10 A5,5 0 0,0 140,15 "/>
        <line x1="135" y1="124" x2="135" y2="114"/>
        <line x1="140" y1="109" x2="145" y2="109"/>
        <path d="M140,109 A5,5 0 0,0 135,114 "/>
        <line x1="10" y1="124" x2="10" y2="114"/>
        <line x1="5" y1="109" x2="0" y2="109"/>
        <path d="M10,114 A5,5 0 0,0 5,109 "/>
        <line x1="0" y1="15" x2="5" y2="15"/>
        <line x1="10" y1="10" x2="10" y2="0"/>
        <path d="M5,15 A5,5 0 0,0 10,10 "/>
        <line x1="0" y1="109" x2="0" y2="15"/>
        <line x1="10" y1="0" x2="135" y2="0"/>
        <line x1="145" y1="15" x2="145" y2="109"/>
        <line x1="135" y1="124" x2="10" y2="124"/>
        <circle cx="30" cy="99" r="5"/>
        <circle cx="115" cy="100" r="5"/>
        <circle cx="57" cy="114" r="3.5"/>
        <circle cx="87" cy="114" r="3.5"/>
        <circle cx="26" cy="44" r="3.5"/>
        <circle cx="118" cy="44" r="3.5"/>
        <circle cx="22" cy="67" r="3.5"/>
        <circle cx="47" cy="67" r="3.5"/>
        <circle cx="72" cy="67" r="3.5"/>
        <circle cx="97" cy="67" r="3.5"/>
        <circle cx="122" cy="67" r="3.5"/>
        <circle cx="124" cy="19" r="3.5"/>
        <circle cx="72" cy="89" r="3.5"/>
        <circle cx="20" cy="119" r="1.5"/>
        <circle cx="72" cy="119" r="1.5"/>
        <circle cx="125" cy="119" r="1.5"/>
        <circle cx="125" cy="5" r="1.5"/>
        <circle cx="72" cy="5" r="1.5"/>
        <circle cx="20" cy="5" r="1.5"/>
        <path d="M94.07,12.5 L109.07,12.5 L109.07,26.5 L94.07,26.5 L94.07,12.5 Z "/>
    </g>
</svg>
