<?xml version="1.0" encoding="UTF-8" standalone="no"?>
<svg
   xmlns:dc="http://purl.org/dc/elements/1.1/"
   xmlns:cc="http://creativecommons.org/ns#"
   xmlns:rdf="http://www.w3.org/1999/02/22-rdf-syntax-ns#"
   xmlns:svg="http://www.w3.org/2000/svg"
   xmlns="http://www.w3.org/2000/svg"
   xmlns:sodipodi="http://sodipodi.sourceforge.net/DTD/sodipodi-0.dtd"
   xmlns:inkscape="http://www.inkscape.org/namespaces/inkscape"
   width="210mm"
   height="297mm"
   viewBox="0 0 210 297"
   version="1.1"
   id="svg4461"
   inkscape:version="1.0.1 (3bc2e813f5, 2020-09-07)"
   sodipodi:docname="engstart_engrave.svg">
  <defs
     id="defs4455">
    <marker
       id="DistanceX"
       orient="auto"
       refX="0.0"
       refY="0.0"
       style="overflow:visible">
      <path
         d="M 3,-3 L -3,3 M 0,-5 L  0,5"
         style="stroke:#000000; stroke-width:0.5"
         id="path5024" />
    </marker>
    <pattern
       id="Hatch"
       patternUnits="userSpaceOnUse"
       width="8"
       height="8"
       x="0"
       y="0">
      <path
         d="M8 4 l-4,4"
         stroke="#000000"
         stroke-width="0.25"
         linecap="square"
         id="path5027" />
      <path
         d="M6 2 l-4,4"
         stroke="#000000"
         stroke-width="0.25"
         linecap="square"
         id="path5029" />
      <path
         d="M4 0 l-4,4"
         stroke="#000000"
         stroke-width="0.25"
         linecap="square"
         id="path5031" />
    </pattern>
    <symbol
       id="*Model_Space" />
    <symbol
       id="*Paper_Space" />
  </defs>
  <sodipodi:namedview
     id="base"
     pagecolor="#ffffff"
     bordercolor="#666666"
     borderopacity="1.0"
     inkscape:pageopacity="0.0"
     inkscape:pageshadow="2"
     inkscape:zoom="1.4"
     inkscape:cx="93.790298"
     inkscape:cy="349.66689"
     inkscape:document-units="mm"
     inkscape:current-layer="layer1"
     inkscape:document-rotation="0"
     showgrid="true"
     inkscape:window-width="1918"
     inkscape:window-height="2071"
     inkscape:window-x="-8"
     inkscape:window-y="0"
     inkscape:window-maximized="0">
    <inkscape:grid
       type="xygrid"
       id="grid5188" />
  </sodipodi:namedview>
  <metadata
     id="metadata4458">
    <rdf:RDF>
      <cc:Work
         rdf:about="">
        <dc:format>image/svg+xml</dc:format>
        <dc:type
           rdf:resource="http://purl.org/dc/dcmitype/StillImage" />
        <dc:title></dc:title>
      </cc:Work>
    </rdf:RDF>
  </metadata>
  <g
     inkscape:label="Lag 1"
     inkscape:groupmode="layer"
     id="layer1">
    <g
       inkscape:label="0"
       id="g5052"
       transform="matrix(0.26458333,0,0,0.26458333,5.089287,-87.148812)"
       style="stroke:#ff0000">
      <path
         d="m 249.44882,1122.5197 v -37.7953 a 18.897638,18.897638 0 0 1 18.89764,-18.8976 h 18.89763 V 410.07874 H 268.34646 A 18.897638,18.897638 0 0 1 249.44882,391.1811 V 353.38583 H 37.795276 V 391.1811 A 18.897638,18.897638 0 0 1 18.897638,410.07874 H 0 v 655.74806 h 18.897638 a 18.897638,18.897638 0 0 1 18.897638,18.8976 v 37.7953 z"
         style="fill:none;stroke:#ff0000;stroke-linecap:round"
         id="path5038" />
      <path
         d="m 81.259843,480 a 5.6692915,5.6692915 0 1 0 -11.338583,0 5.6692915,5.6692915 0 1 0 11.338583,0 z"
         style="fill:none;stroke:#ff0000;stroke-linecap:round"
         id="path5040" />
      <path
         d="m 232.44094,706.77165 a 5.6692915,5.6692915 0 1 0 -11.33858,0 5.6692915,5.6692915 0 1 0 11.33858,0 z"
         style="fill:none;stroke:#ff0000;stroke-linecap:round"
         id="path5042" />
      <path
         d="m 166.29921,1046.9291 a 22.677165,22.677165 0 1 0 -45.35433,0 22.677165,22.677165 0 1 0 45.35433,0 z"
         style="fill:none;stroke:#ff0000;stroke-linecap:round"
         id="path5044" />
      <path
         d="m 166.29921,650.07874 a 22.677165,22.677165 0 1 0 -45.35433,0 22.677165,22.677165 0 1 0 45.35433,0 z"
         style="fill:none;stroke:#ff0000;stroke-linecap:round"
         id="path5046" />
      <path
         d="m 166.29921,854.17323 a 22.677165,22.677165 0 1 0 -45.35433,0 22.677165,22.677165 0 1 0 45.35433,0 z"
         style="fill:none;stroke:#ff0000;stroke-linecap:round"
         id="path5048" />
      <path
         d="m 222.99213,480 a 22.67717,22.67717 0 1 0 -45.35434,0 22.67717,22.67717 0 1 0 45.35434,0 z"
         style="fill:none;stroke:#ff0000;stroke-linecap:round"
         id="path5050" />
    </g>
    <g
       aria-label="MAX POWER"
       id="text5086"
       style="font-size:3.29433px;line-height:1.25;font-family:'MS 33558';-inkscape-font-specification:'MS 33558, Normal';text-align:center;text-anchor:middle;stroke-width:0.264583">
      <path
         d="m 33.687346,180.71625 q -0.03539,0.2252 -0.228415,0.2252 -0.191419,-0.002 -0.225198,-0.2252 v -2.00909 l -0.551736,0.94423 q -0.08847,0.10616 -0.197853,0.11099 -0.107774,0.005 -0.193027,-0.11099 l -0.548519,-0.9394 0.0016,2.00426 q -0.02574,0.22359 -0.233242,0.22359 -0.205895,-0.002 -0.221981,-0.22359 v -2.84071 q 0.01287,-0.18499 0.162465,-0.22038 0.149596,-0.037 0.260586,0.10134 l 0.773717,1.33028 0.78176,-1.33028 q 0.110991,-0.13833 0.25737,-0.10134 0.147987,0.037 0.162464,0.22038 z"
         style="stroke-width:0.264583"
         id="path5363" />
      <path
         d="m 35.815471,179.88463 -0.489003,-1.35119 -0.492219,1.35119 z m -0.489003,-1.35119 0.489003,1.35119 z m -1.241807,2.09756 q 0.257369,-0.70937 0.514739,-1.41714 0.258978,-0.70938 0.517956,-1.41875 0.05308,-0.14638 0.210721,-0.14799 0.157639,-0.002 0.21233,0.14799 l 1.031087,2.84393 q 0.04826,0.22681 -0.138337,0.29276 -0.186592,0.0659 -0.287932,-0.13512 l -0.165681,-0.46005 h -1.310976 l -0.160856,0.44879 q -0.102948,0.20268 -0.292758,0.13351 -0.18981,-0.0708 -0.130293,-0.28793 z"
         style="stroke-width:0.264583"
         id="path5365" />
      <path
         d="m 36.912508,180.60365 0.870231,-1.55708 -0.593558,-1.06326 q -0.08525,-0.21072 0.08847,-0.30723 0.173725,-0.0981 0.308844,0.0869 l 0.453614,0.81876 0.45683,-0.81876 q 0.135119,-0.18499 0.307235,-0.0885 0.172116,0.0965 0.09008,0.31045 l -0.59195,1.06165 0.868622,1.55708 q 0.08686,0.21233 -0.09008,0.31046 -0.176942,0.0965 -0.304018,-0.0917 l -0.73672,-1.31259 -0.728678,1.31259 q -0.139945,0.18337 -0.313669,0.0885 -0.172116,-0.0949 -0.08525,-0.30724 z"
         style="stroke-width:0.264583"
         id="path5367" />
      <path
         d="m 42.083466,177.64712 h 0.03056 q 0.205896,0.0145 0.37962,0.0933 0.332972,0.15603 0.471308,0.51313 0.138336,0.3571 -0.0032,0.69651 -0.114208,0.26862 -0.337798,0.42144 -0.223589,0.1512 -0.509913,0.1689 l -0.03056,0.002 h -0.78176 v 1.17264 q -0.02895,0.2268 -0.228415,0.2268 -0.199461,0 -0.226807,-0.2268 v -2.84233 q 0.02413,-0.19946 0.21233,-0.2252 h 0.01448 z m 0,0.45362 h -0.78176 v 0.98604 h 0.78176 q 0.183376,0 0.323321,-0.12225 0.141553,-0.12225 0.165681,-0.30562 0.02895,-0.22199 -0.119033,-0.38928 -0.147987,-0.16889 -0.369969,-0.16889 z"
         style="stroke-width:0.264583"
         id="path5369" />
      <path
         d="m 45.628731,178.59456 q 0.147988,0.44557 0.110991,0.92493 -0.03539,0.47935 -0.262195,0.87505 -0.143162,0.24611 -0.39088,0.41823 -0.247718,0.17211 -0.54691,0.12064 -0.487394,-0.0853 -0.746372,-0.50831 -0.258978,-0.42305 -0.297583,-0.941 -0.037,-0.51957 0.139944,-1.01179 0.17855,-0.49222 0.567822,-0.71581 0.18981,-0.10938 0.397314,-0.10938 0.395706,0 0.646641,0.29919 0.250935,0.29759 0.381228,0.64825 z m -1.015001,-0.49061 q -0.295975,0 -0.448788,0.3185 -0.151204,0.31849 -0.191418,0.54369 -0.03056,0.16407 -0.02252,0.39732 0.008,0.23324 0.06756,0.46165 0.05952,0.22681 0.178551,0.41018 0.119033,0.18177 0.31206,0.24129 0.225198,0.0708 0.387663,-0.0885 0.164073,-0.16086 0.247718,-0.34102 0.08525,-0.18498 0.115816,-0.48578 0.03217,-0.3008 -0.01448,-0.59999 -0.04504,-0.30081 -0.17855,-0.54048 -0.13351,-0.24128 -0.37962,-0.30724 -0.03217,-0.01 -0.07399,-0.01 z"
         style="stroke-width:0.264583"
         id="path5371" />
      <path
         d="m 47.993314,177.8305 0.562995,1.92384 0.376403,-1.92384 q 0.06756,-0.21716 0.263804,-0.17694 0.197853,0.0402 0.181767,0.26219 l -0.556561,2.84072 q -0.05147,0.17855 -0.210722,0.18498 -0.157638,0.006 -0.228415,-0.16246 l -0.608036,-2.07504 -0.603209,2.07504 q -0.07399,0.17372 -0.226807,0.16246 -0.152813,-0.0113 -0.215547,-0.18498 l -0.556562,-2.84072 q 0,-0.23002 0.183376,-0.2638 0.183376,-0.0354 0.267021,0.17855 l 0.371577,1.92705 0.562996,-1.92705 q 0.06917,-0.15925 0.220373,-0.16408 0.152813,-0.005 0.215547,0.16408 z"
         style="stroke-width:0.264583"
         id="path5373" />
      <path
         d="m 51.475845,178.09591 h -1.333496 v 0.87988 h 1.01661 q 0.228415,0.0338 0.226806,0.23003 0,0.19463 -0.226806,0.2268 h -1.01661 v 1.05683 h 1.333496 q 0.226807,0.0338 0.226807,0.2268 0,0.19303 -0.226807,0.2252 h -1.557086 q -0.20107,-0.0257 -0.228415,-0.22841 v -2.84072 q 0.03056,-0.21233 0.228415,-0.2252 h 1.557086 q 0.226807,0.0177 0.225198,0.22681 0,0.2075 -0.225198,0.22198 z"
         style="stroke-width:0.264583"
         id="path5375" />
      <path
         d="m 54.181442,180.59239 q 0.102948,0.18177 -0.05791,0.30563 -0.07721,0.0547 -0.17855,0.037 -0.09973,-0.0177 -0.146379,-0.0997 l -0.79302,-1.25307 h -0.40214 v 1.13243 q 0,0.13994 -0.127076,0.20267 -0.127076,0.0611 -0.238067,-0.0241 -0.08847,-0.066 -0.08847,-0.17855 v -2.84233 q 0,-0.0933 0.06434,-0.15925 0.06595,-0.0659 0.160856,-0.0659 h 0.998915 q 0.360318,0 0.62573,0.23003 0.265412,0.22841 0.329755,0.58069 0.06756,0.37801 -0.160856,0.70776 -0.226807,0.32815 -0.60321,0.39893 l -0.03056,0.005 z m -0.807497,-1.46218 q 0.164073,0 0.30241,-0.0997 0.139944,-0.0997 0.188201,-0.26058 0.0756,-0.24772 -0.06917,-0.44718 -0.14477,-0.20107 -0.398923,-0.22198 h -0.79302 v 1.02947 z"
         style="stroke-width:0.264583"
         id="path5377" />
    </g>
    <g
       aria-label="AB RESET"
       id="text5094"
       style="font-size:3.29433px;line-height:1.25;font-family:'MS 33558';-inkscape-font-specification:'MS 33558, Normal';text-align:center;text-anchor:middle;stroke-width:0.264583">
      <path
         d="m 35.154683,128.71329 -0.489002,-1.35119 -0.492219,1.35119 z m -0.489002,-1.35119 0.489002,1.35119 z m -1.241808,2.09756 q 0.25737,-0.70938 0.514739,-1.41714 0.258979,-0.70938 0.517957,-1.41875 0.05308,-0.14638 0.210721,-0.14799 0.157639,-0.002 0.21233,0.14799 l 1.031086,2.84393 q 0.04826,0.22681 -0.138336,0.29276 -0.186593,0.066 -0.287932,-0.13512 l -0.165682,-0.46005 H 34.00778 l -0.160855,0.44879 q -0.102948,0.20268 -0.292758,0.13351 -0.18981,-0.0708 -0.130294,-0.28793 z"
         style="stroke-width:0.264583"
         id="path5348" />
      <path
         d="m 37.454923,126.47578 q 0.305627,0.0257 0.513131,0.18499 0.209113,0.15924 0.289541,0.38444 0.08043,0.22359 0.02091,0.47774 -0.05791,0.25255 -0.283107,0.46488 0.247719,0.26058 0.308844,0.56299 0.06112,0.30241 -0.03861,0.56622 -0.09812,0.26219 -0.342623,0.44557 -0.244501,0.18337 -0.606427,0.2075 h -0.0048 -0.855754 q -0.197853,-0.0273 -0.228415,-0.22359 v -2.84232 q 0.02735,-0.19946 0.228415,-0.22842 z m -0.143161,2.83911 q 0.273455,-0.0113 0.416617,-0.17694 0.143161,-0.16568 0.147987,-0.36675 0.0064,-0.20268 -0.128685,-0.37962 -0.135119,-0.17695 -0.416617,-0.21394 h -0.648249 v 1.13725 z m 0.143161,-2.38228 h -0.772108 v 0.79302 h 0.776934 q 0.199462,-0.0209 0.295975,-0.14316 0.09812,-0.12386 0.0949,-0.2638 -0.0016,-0.14156 -0.101339,-0.25737 -0.09973,-0.11743 -0.294367,-0.12869 z"
         style="stroke-width:0.264583"
         id="path5350" />
      <path
         d="m 42.074146,129.42105 q 0.102948,0.18177 -0.05791,0.30563 -0.07721,0.0547 -0.17855,0.037 -0.09973,-0.0177 -0.146379,-0.0997 l -0.79302,-1.25307 h -0.40214 v 1.13242 q 0,0.13995 -0.127076,0.20268 -0.127076,0.0611 -0.238067,-0.0241 -0.08847,-0.0659 -0.08847,-0.17855 v -2.84232 q 0,-0.0933 0.06434,-0.15925 0.06595,-0.066 0.160856,-0.066 h 0.998915 q 0.360317,0 0.62573,0.23003 0.265412,0.22841 0.329755,0.58069 0.06756,0.37801 -0.160856,0.70776 -0.226807,0.32815 -0.60321,0.39892 l -0.03056,0.005 z m -0.807497,-1.46218 q 0.164073,0 0.302409,-0.0997 0.139945,-0.0997 0.188202,-0.26058 0.0756,-0.24772 -0.06917,-0.44718 -0.144771,-0.20107 -0.398923,-0.22199 h -0.79302 v 1.02948 z"
         style="stroke-width:0.264583"
         id="path5352" />
      <path
         d="m 44.449988,126.92457 h -1.333495 v 0.87988 h 1.016609 q 0.228416,0.0338 0.226807,0.23003 0,0.19463 -0.226807,0.2268 h -1.016609 v 1.05683 h 1.333495 q 0.226807,0.0338 0.226807,0.2268 0,0.19303 -0.226807,0.2252 h -1.557085 q -0.20107,-0.0257 -0.228416,-0.22841 v -2.84072 q 0.03056,-0.21233 0.228416,-0.2252 h 1.557085 q 0.226807,0.0177 0.225199,0.22681 0,0.2075 -0.225199,0.22198 z"
         style="stroke-width:0.264583"
         id="path5354" />
      <path
         d="m 46.742185,128.01678 0.02574,0.0113 0.02895,0.0145 0.02574,0.0145 q 0.01126,0.008 0.02413,0.0161 0.01448,0.006 0.02735,0.0145 0.318495,0.20911 0.394097,0.57908 0.02895,0.14477 0.01287,0.29758 -0.02574,0.21877 -0.154422,0.40536 -0.127076,0.18498 -0.320103,0.28632 -0.207505,0.10939 -0.429486,0.10939 -0.373186,0 -0.712592,-0.0949 -0.339406,-0.0965 -0.484176,-0.51313 -0.0193,-0.0531 -0.02895,-0.10938 -0.0097,-0.0563 -0.02252,-0.1126 -0.02413,-0.11582 0.0563,-0.20429 0.08204,-0.0885 0.202678,-0.0676 0.127076,0.0257 0.176942,0.15764 l 0.0048,0.0145 q 0.07721,0.34906 0.26863,0.41661 0.193027,0.0676 0.53565,0.0611 0.315278,0 0.432703,-0.29597 0.05147,-0.13191 0.01608,-0.27346 -0.03539,-0.14316 -0.139944,-0.23807 -0.04665,-0.0402 -0.122251,-0.0756 l -0.744763,-0.32654 -0.02413,-0.0129 q -0.365143,-0.19302 -0.453614,-0.54851 -0.107774,-0.4118 0.149596,-0.73833 0.258978,-0.32815 0.678812,-0.32815 l 0.176942,0.005 q 0.08686,0.0161 0.16729,0.0322 0.08043,0.0145 0.162464,0.0515 0.202679,0.0949 0.310452,0.26059 0.107774,0.16568 0.194636,0.35871 0.008,0.0177 0.01448,0.0418 0.01769,0.0788 -0.01609,0.14316 -0.0193,0.0402 -0.04021,0.0611 -0.02091,0.0209 -0.03378,0.0289 -0.08365,0.0595 -0.183376,0.0354 -0.09973,-0.0225 -0.152813,-0.12869 -0.04182,-0.0933 -0.09008,-0.18981 -0.04665,-0.0981 -0.131902,-0.16246 -0.03539,-0.0257 -0.06917,-0.037 -0.03217,-0.0129 -0.07238,-0.0273 l -0.104556,-0.0177 -0.147988,-0.005 q -0.215547,0.003 -0.329754,0.18659 -0.07721,0.11743 -0.05791,0.2622 0.02252,0.17855 0.16729,0.27667 0.0064,0.005 0.01448,0.0113 0.008,0.005 0.01769,0.01 l 0.01769,0.008 0.0193,0.008 z"
         style="stroke-width:0.264583"
         id="path5356" />
      <path
         d="m 49.470303,126.92457 h -1.333496 v 0.87988 h 1.016609 q 0.228416,0.0338 0.226807,0.23003 0,0.19463 -0.226807,0.2268 h -1.016609 v 1.05683 h 1.333496 q 0.226807,0.0338 0.226807,0.2268 0,0.19303 -0.226807,0.2252 h -1.557086 q -0.20107,-0.0257 -0.228415,-0.22841 v -2.84072 q 0.03056,-0.21233 0.228415,-0.2252 h 1.557086 q 0.226807,0.0177 0.225198,0.22681 0,0.2075 -0.225198,0.22198 z"
         style="stroke-width:0.264583"
         id="path5358" />
      <path
         d="m 50.959829,129.54491 v -2.61552 h -0.590341 q -0.225198,-0.0177 -0.225198,-0.22519 0.0016,-0.20912 0.225198,-0.22842 h 1.632688 q 0.221981,0.0177 0.221981,0.22842 0.0016,0.20911 -0.221981,0.22519 h -0.588733 v 2.61552 q -0.037,0.22842 -0.238067,0.2252 -0.199461,-0.003 -0.215547,-0.2252 z"
         style="stroke-width:0.264583"
         id="path5360" />
    </g>
    <g
       aria-label="NORM"
       id="text5098"
       style="font-size:3.29433px;line-height:1.25;font-family:'MS 33558';-inkscape-font-specification:'MS 33558, Normal';text-align:center;text-anchor:middle;stroke-width:0.264583">
      <path
         d="m 54.298107,141.02996 q 0,0.1689 -0.164073,0.21554 -0.162465,0.045 -0.252544,-0.0965 l -1.35119,-2.16673 v 2.0477 q -0.03539,0.22519 -0.228415,0.22519 -0.191419,0 -0.225199,-0.22519 v -2.84072 q 0.02413,-0.16729 0.170508,-0.22037 0.147987,-0.0531 0.246109,0.0997 l 1.35119,2.16995 v -2.04931 q 0.03056,-0.23002 0.233241,-0.22681 0.204287,0.002 0.220373,0.22681 z"
         style="stroke-width:0.264583"
         id="path5339" />
      <path
         d="m 56.899148,138.90505 q 0.147987,0.44557 0.11099,0.92492 -0.03539,0.47935 -0.262195,0.87506 -0.143162,0.24611 -0.39088,0.41822 -0.247718,0.17212 -0.54691,0.12065 -0.487394,-0.0853 -0.746372,-0.50831 -0.258978,-0.42305 -0.297583,-0.94101 -0.037,-0.51956 0.139945,-1.01178 0.17855,-0.49222 0.567821,-0.71581 0.18981,-0.10938 0.397314,-0.10938 0.395706,0 0.646641,0.29919 0.250935,0.29758 0.381229,0.64825 z m -1.015001,-0.49061 q -0.295975,0 -0.448788,0.31849 -0.151205,0.3185 -0.191419,0.5437 -0.03056,0.16407 -0.02252,0.39731 0.008,0.23324 0.06756,0.46166 0.05952,0.2268 0.17855,0.41018 0.119033,0.18177 0.31206,0.24128 0.225199,0.0708 0.387663,-0.0885 0.164073,-0.16085 0.247718,-0.34101 0.08525,-0.18499 0.115817,-0.48579 0.03217,-0.3008 -0.01448,-0.59999 -0.04504,-0.3008 -0.17855,-0.54047 -0.133511,-0.24129 -0.379621,-0.30724 -0.03217,-0.01 -0.07399,-0.01 z"
         style="stroke-width:0.264583"
         id="path5341" />
      <path
         d="m 59.474452,140.90288 q 0.102947,0.18177 -0.05791,0.30563 -0.07721,0.0547 -0.178551,0.037 -0.09973,-0.0177 -0.146379,-0.0997 l -0.793019,-1.25306 h -0.40214 v 1.13242 q 0,0.13995 -0.127076,0.20268 -0.127077,0.0611 -0.238067,-0.0241 -0.08847,-0.0659 -0.08847,-0.17855 v -2.84232 q 0,-0.0933 0.06434,-0.15925 0.06595,-0.066 0.160856,-0.066 h 0.998916 q 0.360317,0 0.625729,0.23002 0.265413,0.22842 0.329755,0.58069 0.06756,0.37801 -0.160856,0.70777 -0.226807,0.32814 -0.60321,0.39892 l -0.03056,0.005 z m -0.807497,-1.46218 q 0.164073,0 0.302409,-0.0997 0.139945,-0.0997 0.188201,-0.26059 0.0756,-0.24772 -0.06917,-0.44718 -0.14477,-0.20107 -0.398922,-0.22198 h -0.79302 v 1.02948 z"
         style="stroke-width:0.264583"
         id="path5343" />
      <path
         d="m 62.463155,141.02674 q -0.03539,0.2252 -0.228415,0.2252 -0.191419,-0.002 -0.225199,-0.2252 v -2.00909 l -0.551735,0.94422 q -0.08847,0.10617 -0.197853,0.11099 -0.107774,0.005 -0.193027,-0.11099 l -0.548519,-0.9394 0.0016,2.00427 q -0.02574,0.22359 -0.233241,0.22359 -0.205895,-0.002 -0.221981,-0.22359 v -2.84072 q 0.01287,-0.18498 0.162465,-0.22037 0.149596,-0.037 0.260586,0.10134 l 0.773717,1.33028 0.78176,-1.33028 q 0.110991,-0.13834 0.25737,-0.10134 0.147987,0.037 0.162464,0.22037 z"
         style="stroke-width:0.264583"
         id="path5345" />
    </g>
    <g
       aria-label="ENG DATA"
       id="text5102"
       style="font-size:3.29433px;line-height:1.25;font-family:'MS 33558';-inkscape-font-specification:'MS 33558, Normal';text-align:center;text-anchor:middle;stroke-width:0.264583">
      <path
         d="m 34.952013,149.63172 h -1.333496 v 0.87988 h 1.01661 q 0.228415,0.0338 0.226807,0.23003 0,0.19463 -0.226807,0.22681 h -1.01661 v 1.05682 h 1.333496 q 0.226807,0.0338 0.226807,0.22681 0,0.19302 -0.226807,0.22519 h -1.557086 q -0.20107,-0.0257 -0.228415,-0.22841 v -2.84072 q 0.03056,-0.21233 0.228415,-0.2252 h 1.557086 q 0.226807,0.0177 0.225198,0.22681 0,0.20751 -0.225198,0.22198 z"
         style="stroke-width:0.264583"
         id="path5324" />
      <path
         d="m 37.84742,152.25528 q 0,0.1689 -0.164073,0.21555 -0.162465,0.045 -0.252544,-0.0965 l -1.35119,-2.16673 v 2.04769 q -0.03539,0.2252 -0.228415,0.2252 -0.191419,0 -0.225199,-0.2252 v -2.84071 q 0.02413,-0.16729 0.170508,-0.22038 0.147987,-0.0531 0.246109,0.0997 l 1.35119,2.16994 v -2.0493 q 0.03056,-0.23003 0.233241,-0.22681 0.204287,0.002 0.220373,0.22681 z"
         style="stroke-width:0.264583"
         id="path5326" />
      <path
         d="m 39.409331,151.1502 -0.01448,-0.002 q -0.196244,-0.0241 -0.196244,-0.22359 0,-0.19946 0.196244,-0.22359 l 0.01448,-0.003 h 0.01448 0.593559 q 0.0933,0 0.159247,0.0676 0.06756,0.0659 0.06756,0.15924 v 0.81554 l -0.0193,0.0418 -0.01126,0.0257 -0.01126,0.0241 -0.01287,0.0241 -0.01287,0.0241 -0.01126,0.0241 -0.01287,0.0241 -0.01448,0.0241 q -0.312061,0.53083 -0.775326,0.51957 -0.463265,-0.0129 -0.778543,-0.52439 -0.149596,-0.24289 -0.221981,-0.60804 -0.07238,-0.36675 -0.04343,-0.74798 0.02895,-0.38283 0.176941,-0.72707 0.149597,-0.34584 0.445571,-0.54852 0.369969,-0.25093 0.720635,-0.0579 0.350666,0.19142 0.524391,0.53886 l 0.01287,0.0257 0.0097,0.0225 0.01287,0.0241 q 0.05469,0.15281 -0.04182,0.24933 -0.0933,0.0917 -0.202678,0.0692 -0.109382,-0.0241 -0.168899,-0.13029 -0.188201,-0.46648 -0.485785,-0.40696 -0.295975,0.0595 -0.443962,0.48578 -0.144771,0.41179 -0.114208,0.88632 0.03056,0.47291 0.308843,0.82519 0.191419,0.24611 0.389272,0.15764 0.197853,-0.0885 0.31206,-0.32976 l 0.01769,-0.0354 v -0.49061 z"
         style="stroke-width:0.264583"
         id="path5328" />
      <path
         d="m 42.288092,149.18293 h 0.757632 q 0.564604,0 0.846102,0.51474 0.281498,0.51474 0.281498,1.13243 0,0.61769 -0.283106,1.13243 -0.281498,0.51473 -0.844494,0.51473 h -0.757632 0.0032 -0.0032 q -0.05308,-0.008 -0.05791,-0.01 -0.16729,-0.0402 -0.165681,-0.21876 h -0.0016 l 0.0016,-2.84072 q -0.0016,-0.005 -0.0016,-0.0129 0.0048,-0.0885 0.06917,-0.14959 0.06595,-0.0627 0.157639,-0.0627 z m 0.757632,2.84072 q 0.0032,0 0.0064,0 0.0032,0 0.008,0 0.0032,0 0.0048,0 0.0032,-0.002 0.008,-0.002 0.0032,0 0.0064,0 0.0048,-0.002 0.0097,-0.002 0.0032,0 0.0064,0 0.0032,-0.002 0.008,-0.002 0.0032,0 0.0064,0 0.0032,-0.002 0.008,-0.002 0.0064,-0.003 0.01287,-0.003 0.0032,0 0.0064,-0.002 0.0032,-0.003 0.008,-0.005 0.0032,0 0.0064,0 0.0048,-0.002 0.0097,-0.003 0.0032,0 0.0064,-0.002 0.0032,-0.002 0.008,-0.003 0.0097,-0.003 0.01448,-0.006 0.02895,-0.01 0.01609,-0.006 0.0032,0 0.0064,-0.002 0.0032,-0.003 0.008,-0.005 0.01448,-0.01 0.01287,-0.008 0.01609,-0.008 0.01609,-0.008 0.0032,-0.002 0.0064,-0.003 0.0032,-0.003 0.008,-0.006 0.01448,-0.01 0.01448,-0.01 0.0032,-0.002 0.0064,-0.003 0.0048,-0.003 0.0097,-0.006 0.0032,-0.002 0.0064,-0.005 0.0032,-0.003 0.008,-0.006 0.0032,-0.002 0.0064,-0.003 0.0032,-0.003 0.008,-0.006 0.0032,-0.003 0.01608,-0.0129 0.01287,-0.0129 0.01287,-0.0129 0.0032,-0.003 0.0064,-0.006 0.0032,-0.003 0.008,-0.008 0.0032,-0.003 0.0064,-0.006 0.0032,-0.003 0.008,-0.008 0.0048,-0.003 0.01448,-0.0129 0.0032,-0.003 0.0064,-0.006 0.0032,-0.003 0.008,-0.008 0.0032,-0.003 0.0064,-0.006 0.0032,-0.005 0.008,-0.01 0.0193,-0.0257 0.01287,-0.0161 0.01126,-0.0113 0.01448,-0.0177 0.01448,-0.0193 0.01287,-0.0177 0.0032,-0.005 0.0064,-0.008 0.0032,-0.005 0.008,-0.01 0.0032,-0.005 0.0048,-0.01 0.0032,-0.005 0.008,-0.01 0.0016,-0.005 0.0048,-0.01 0.0048,-0.006 0.008,-0.0113 0.0097,-0.0129 0.01287,-0.0193 0.0032,-0.005 0.0048,-0.01 0.0032,-0.006 0.008,-0.0113 0.0032,-0.005 0.0048,-0.01 0.0032,-0.006 0.008,-0.0113 0.0032,-0.008 0.0097,-0.0209 0.0032,-0.005 0.0048,-0.0113 0.0032,-0.006 0.008,-0.0129 0.0032,-0.005 0.0048,-0.01 0.0032,-0.006 0.008,-0.0129 0.0016,-0.005 0.0032,-0.0113 0.0032,-0.006 0.0064,-0.0129 0.0048,-0.008 0.01126,-0.0241 0.01609,-0.0402 0.01126,-0.0257 0.0016,-0.005 0.0032,-0.0113 0.0032,-0.008 0.0064,-0.0145 0.0016,-0.006 0.0032,-0.0129 0.0032,-0.006 0.0064,-0.0145 0.0048,-0.0145 0.008,-0.0257 0.0016,-0.006 0.0032,-0.0129 0.0032,-0.006 0.0064,-0.0145 -0.0064,0.0161 0.008,-0.0273 0.0032,-0.008 0.0097,-0.0273 0,-0.006 0.0016,-0.0129 0.0032,-0.008 0.0048,-0.0161 0.0016,-0.006 0.0032,-0.0129 0.0016,-0.008 0.0048,-0.0161 0,-0.005 0.0016,-0.0113 0.0032,-0.008 0.0048,-0.0161 0.0016,-0.0113 0.0048,-0.0306 0,-0.006 0.0016,-0.0129 0.0032,-0.008 0.0048,-0.0161 0,-0.006 0.0016,-0.0129 0.0016,-0.008 0.0032,-0.0161 0.0016,-0.0113 0.0048,-0.0306 0,-0.006 0.0016,-0.0145 0.0032,-0.008 0.0048,-0.0161 0,-0.0113 0.0032,-0.0306 0,-0.006 0,-0.0129 0.0016,-0.008 0.0032,-0.0177 0.0032,-0.0193 0.0032,-0.0306 0.0016,-0.0113 0.0016,-0.0306 0.0016,-0.0113 0.0016,-0.0322 0.0016,-0.0113 0.0016,-0.0306 0,-0.008 0,-0.0145 0.0016,-0.008 0.0032,-0.0177 0,-0.006 0,-0.0129 0.0016,-0.008 0.0016,-0.0177 0,-0.006 0,-0.0145 0,-0.008 0,-0.0161 0,-0.008 0,-0.0145 0,-0.008 0,-0.0161 0,-0.008 -0.0016,-0.0145 0,-0.008 0,-0.0177 0,-0.006 0,-0.0145 0,-0.008 0,-0.0161 0,-0.01 -0.0032,-0.0322 0,-0.0193 -0.0016,-0.029 0,-0.0113 -0.0032,-0.0338 0,-0.0193 -0.0016,-0.029 0,-0.0113 -0.0032,-0.0306 -0.0016,-0.006 -0.0032,-0.0145 0,-0.008 0,-0.0161 -0.0032,-0.0193 -0.0064,-0.0306 -0.0016,-0.006 -0.0032,-0.0129 -0.0016,-0.008 -0.0016,-0.0161 -0.0016,-0.0113 -0.0048,-0.0306 -0.0016,-0.0113 -0.0048,-0.0306 -0.0064,-0.0193 -0.008,-0.029 -0.0032,-0.0193 -0.0048,-0.0273 -0.0032,-0.006 -0.0048,-0.0129 -0.0016,-0.008 -0.0032,-0.0161 -0.0016,-0.006 -0.0048,-0.0129 -0.0032,-0.008 -0.0032,-0.0161 -0.01448,-0.0434 -0.008,-0.0273 -0.0032,-0.0113 -0.008,-0.0273 -0.0032,-0.005 -0.0064,-0.0113 -0.0016,-0.008 -0.0032,-0.0145 -0.0016,-0.005 -0.0097,-0.0273 -0.0064,-0.0161 -0.0097,-0.0257 -0.0032,-0.005 -0.0064,-0.0113 -0.0016,-0.008 -0.0032,-0.0145 -0.0032,-0.005 -0.0064,-0.0113 -0.0032,-0.006 -0.0048,-0.0129 -0.0064,-0.0161 -0.01126,-0.0241 -0.0064,-0.0161 -0.0097,-0.0225 -0.0064,-0.0161 -0.01126,-0.0241 -0.0032,-0.005 -0.0064,-0.01 -0.0032,-0.006 -0.0048,-0.0113 -0.0097,-0.0161 -0.01287,-0.0225 -0.01448,-0.0225 -0.01287,-0.0209 -0.0048,-0.005 -0.008,-0.01 -0.0016,-0.006 -0.0048,-0.0113 -0.0032,-0.006 -0.01287,-0.0193 -0.0032,-0.005 -0.0064,-0.01 -0.0032,-0.005 -0.0048,-0.01 -0.008,-0.0145 -0.02734,-0.037 -0.0032,-0.003 -0.02574,-0.0354 -0.0193,-0.0225 -0.02895,-0.0322 -0.0097,-0.0113 -0.02895,-0.0306 -0.01287,-0.0145 -0.02735,-0.0274 -0.01126,-0.008 -0.03056,-0.0241 -0.01608,-0.0129 -0.03056,-0.0241 -0.037,-0.0241 -0.03056,-0.0209 -0.03217,-0.0193 -0.02895,-0.0177 0,0 -0.02895,-0.0145 -0.0064,-0.003 -0.03056,-0.0113 -0.02091,-0.008 -0.03056,-0.0113 -0.008,-0.002 -0.01448,-0.003 -0.0064,-0.003 -0.01287,-0.006 -0.02895,-0.005 -0.02895,-0.005 -0.0097,-0.002 -0.02895,-0.002 -0.0048,0 -0.008,0 -0.0032,0 -0.0064,0 h -0.530825 v 2.3871 0 z"
         style="stroke-width:0.264583"
         id="path5330" />
      <path
         d="m 46.325577,151.42044 -0.489002,-1.35119 -0.49222,1.35119 z m -0.489002,-1.35119 0.489002,1.35119 z m -1.241808,2.09756 q 0.257369,-0.70937 0.514739,-1.41714 0.258978,-0.70937 0.517956,-1.41875 0.05308,-0.14638 0.210721,-0.14799 0.157639,-0.002 0.21233,0.14799 l 1.031087,2.84394 q 0.04826,0.2268 -0.138336,0.29275 -0.186593,0.0659 -0.287933,-0.13512 l -0.165681,-0.46004 h -1.310976 l -0.160856,0.44878 q -0.102948,0.20268 -0.292758,0.13351 -0.18981,-0.0708 -0.130293,-0.28793 z"
         style="stroke-width:0.264583"
         id="path5332" />
      <path
         d="m 48.214025,152.25207 v -2.61552 h -0.590341 q -0.225199,-0.0177 -0.225199,-0.2252 0.0016,-0.20911 0.225199,-0.22842 h 1.632688 q 0.221981,0.0177 0.221981,0.22842 0.0016,0.20911 -0.221981,0.2252 h -0.588733 v 2.61552 q -0.037,0.22841 -0.238067,0.22519 -0.199461,-0.003 -0.215547,-0.22519 z"
         style="stroke-width:0.264583"
         id="path5334" />
      <path
         d="m 51.701383,151.42044 -0.489002,-1.35119 -0.49222,1.35119 z m -0.489002,-1.35119 0.489002,1.35119 z m -1.241808,2.09756 q 0.257369,-0.70937 0.514739,-1.41714 0.258978,-0.70937 0.517956,-1.41875 0.05308,-0.14638 0.210721,-0.14799 0.157639,-0.002 0.21233,0.14799 l 1.031087,2.84394 q 0.04826,0.2268 -0.138336,0.29275 -0.186593,0.0659 -0.287933,-0.13512 l -0.165681,-0.46004 H 50.55448 l -0.160856,0.44878 q -0.102948,0.20268 -0.292758,0.13351 -0.18981,-0.0708 -0.130293,-0.28793 z"
         style="stroke-width:0.264583"
         id="path5336" />
    </g>
    <g
       aria-label="SEC"
       id="text5106"
       style="font-size:3.29433px;line-height:1.25;font-family:'MS 33558';-inkscape-font-specification:'MS 33558, Normal';text-align:center;text-anchor:middle;stroke-width:0.264583">
      <path
         d="m 40.864826,110.71878 0.02574,0.0113 0.02895,0.0145 0.02574,0.0145 q 0.01126,0.008 0.02413,0.0161 0.01448,0.006 0.02735,0.0145 0.318494,0.20912 0.394097,0.57909 0.02895,0.14477 0.01287,0.29758 -0.02574,0.21876 -0.154422,0.40536 -0.127076,0.18498 -0.320103,0.28632 -0.207504,0.10938 -0.429485,0.10938 -0.373186,0 -0.712592,-0.0949 -0.339406,-0.0965 -0.484177,-0.51313 -0.0193,-0.0531 -0.02895,-0.10939 -0.0097,-0.0563 -0.02252,-0.1126 -0.02413,-0.11581 0.0563,-0.20428 0.08204,-0.0885 0.202679,-0.0676 0.127076,0.0257 0.176941,0.15764 l 0.0048,0.0145 q 0.07721,0.34906 0.268629,0.41662 0.193027,0.0676 0.535651,0.0611 0.315277,0 0.432702,-0.29598 0.05147,-0.1319 0.01609,-0.27345 -0.03539,-0.14317 -0.139945,-0.23807 -0.04665,-0.0402 -0.12225,-0.0756 l -0.744764,-0.32654 -0.02413,-0.0129 q -0.365143,-0.19303 -0.453614,-0.54852 -0.107773,-0.41179 0.149596,-0.73833 0.258978,-0.32814 0.678812,-0.32814 l 0.176942,0.005 q 0.08686,0.0161 0.16729,0.0322 0.08043,0.0145 0.162465,0.0515 0.202678,0.0949 0.310452,0.26058 0.107773,0.16569 0.194635,0.35871 0.008,0.0177 0.01448,0.0418 0.0177,0.0788 -0.01608,0.14316 -0.0193,0.0402 -0.04021,0.0611 -0.02091,0.0209 -0.03378,0.029 -0.08365,0.0595 -0.183376,0.0354 -0.09973,-0.0225 -0.152813,-0.12869 -0.04182,-0.0933 -0.09008,-0.18981 -0.04665,-0.0981 -0.131902,-0.16246 -0.03539,-0.0257 -0.06917,-0.037 -0.03217,-0.0129 -0.07239,-0.0273 l -0.104557,-0.0177 -0.147987,-0.005 q -0.215547,0.003 -0.329755,0.1866 -0.07721,0.11742 -0.05791,0.26219 0.02252,0.17855 0.16729,0.27667 0.0064,0.005 0.01448,0.0113 0.008,0.005 0.01769,0.01 l 0.0177,0.008 0.0193,0.008 z"
         style="stroke-width:0.264583"
         id="path5317" />
      <path
         d="m 43.592943,109.62657 h -1.333496 v 0.87988 h 1.01661 q 0.228415,0.0338 0.226806,0.23002 0,0.19464 -0.226806,0.22681 h -1.01661 v 1.05682 h 1.333496 q 0.226807,0.0338 0.226807,0.22681 0,0.19303 -0.226807,0.2252 h -1.557086 q -0.20107,-0.0257 -0.228415,-0.22842 v -2.84071 q 0.03056,-0.21233 0.228415,-0.2252 h 1.557086 q 0.226807,0.0177 0.225198,0.2268 0,0.20751 -0.225198,0.22199 z"
         style="stroke-width:0.264583"
         id="path5319" />
      <path
         d="m 46.338754,111.95737 -0.01448,0.0209 q -0.0048,0.006 -0.008,0.0113 -0.0032,0.005 -0.0064,0.01 -0.220373,0.29758 -0.579082,0.42466 -0.3571,0.12547 -0.704549,-0.0466 -0.403748,-0.20107 -0.593558,-0.68203 -0.188202,-0.48096 -0.162465,-0.99891 0.02735,-0.51957 0.273455,-0.95388 0.247719,-0.43431 0.717418,-0.54369 0.270238,-0.0627 0.538867,0.0531 0.26863,0.11421 0.440746,0.32171 0.0016,0 0.008,0.0113 0.07399,0.0965 0.03056,0.21233 -0.04343,0.11421 -0.159247,0.14316 -0.123859,0.0322 -0.228416,-0.074 -0.215547,-0.25093 -0.415008,-0.24128 -0.199462,0.01 -0.3571,0.16407 -0.157639,0.15442 -0.262196,0.39571 -0.104556,0.24128 -0.128684,0.452 -0.02895,0.23485 0.0048,0.47292 0.03539,0.23646 0.146379,0.44557 0.193027,0.36675 0.485785,0.46005 0.294367,0.0917 0.574256,-0.2815 0.01287,-0.0161 0.03056,-0.0418 0.151204,-0.16729 0.318494,-0.0338 0.168899,0.1319 0.04987,0.29919 z"
         style="stroke-width:0.264583"
         id="path5321" />
    </g>
    <g
       aria-label="ENG CONT
PRI"
       id="text5110"
       style="font-size:3.29433px;line-height:1.25;font-family:'MS 33558';-inkscape-font-specification:'MS 33558, Normal';text-align:center;text-anchor:middle;stroke-width:0.264583">
      <path
         d="m 35.170905,61.042619 h -1.333496 v 0.879882 h 1.01661 q 0.228415,0.03378 0.226807,0.230024 0,0.194636 -0.226807,0.226807 h -1.01661 v 1.056823 h 1.333496 q 0.226807,0.03378 0.226807,0.226807 0,0.193028 -0.226807,0.225199 h -1.557086 q -0.201069,-0.02574 -0.228415,-0.228416 v -2.840716 q 0.03056,-0.21233 0.228415,-0.225198 h 1.557086 q 0.226807,0.01769 0.225198,0.226807 0,0.207504 -0.225198,0.221981 z"
         style="stroke-width:0.264583"
         id="path5296" />
      <path
         d="m 38.066312,63.666179 q 0,0.168899 -0.164073,0.215547 -0.162464,0.04504 -0.252544,-0.09651 l -1.35119,-2.16673 v 2.047696 q -0.03539,0.225199 -0.228415,0.225199 -0.191419,0 -0.225199,-0.225199 v -2.840716 q 0.02413,-0.16729 0.170508,-0.220372 0.147987,-0.05308 0.246109,0.09973 l 1.35119,2.169947 v -2.049305 q 0.03056,-0.230024 0.233242,-0.226806 0.204287,0.0016 0.220372,0.226806 z"
         style="stroke-width:0.264583"
         id="path5298" />
      <path
         d="m 39.628224,62.561099 -0.01448,-0.0016 q -0.196244,-0.02413 -0.196244,-0.22359 0,-0.199462 0.196244,-0.22359 l 0.01448,-0.0032 h 0.01448 0.593558 q 0.0933,0 0.159247,0.06756 0.06756,0.06595 0.06756,0.159248 v 0.815539 l -0.0193,0.04182 -0.01126,0.02574 -0.01126,0.02413 -0.01287,0.02413 -0.01287,0.02413 -0.01126,0.02413 -0.01287,0.02413 -0.01448,0.02413 q -0.312061,0.530825 -0.775326,0.519565 -0.463265,-0.01287 -0.778543,-0.52439 -0.149596,-0.242893 -0.221981,-0.608036 -0.07239,-0.366751 -0.04343,-0.74798 0.02895,-0.382837 0.176942,-0.727069 0.149596,-0.34584 0.445571,-0.548519 0.369968,-0.250935 0.720634,-0.05791 0.350666,0.191419 0.524391,0.538868 l 0.01287,0.02574 0.0097,0.02252 0.01287,0.02413 q 0.05469,0.152813 -0.04182,0.249326 -0.0933,0.09169 -0.202679,0.06917 -0.109382,-0.02413 -0.168899,-0.130294 -0.188201,-0.466482 -0.485785,-0.406965 -0.295975,0.05952 -0.443962,0.485785 -0.14477,0.411791 -0.114208,0.886316 0.03056,0.472916 0.308844,0.825191 0.191418,0.24611 0.389271,0.157639 0.197853,-0.08847 0.312061,-0.329755 l 0.01769,-0.03539 v -0.490611 z"
         style="stroke-width:0.264583"
         id="path5300" />
      <path
         d="m 44.353611,63.373422 -0.01448,0.02091 q -0.0048,0.0064 -0.008,0.01126 -0.0032,0.0048 -0.0064,0.0097 -0.220373,0.297584 -0.579081,0.42466 -0.357101,0.125468 -0.70455,-0.04665 -0.403748,-0.20107 -0.593558,-0.68203 -0.188201,-0.480959 -0.162465,-0.998915 0.02735,-0.519565 0.273456,-0.953876 0.247718,-0.434311 0.717417,-0.543693 0.270238,-0.06273 0.538868,0.05308 0.268629,0.114207 0.440745,0.321711 0.0016,0 0.008,0.01126 0.07399,0.09651 0.03056,0.21233 -0.04343,0.114208 -0.159247,0.143162 -0.123859,0.03217 -0.228416,-0.07399 -0.215547,-0.250935 -0.415008,-0.241284 -0.199461,0.0097 -0.3571,0.164073 -0.157639,0.154422 -0.262195,0.395706 -0.104557,0.241284 -0.128685,0.452005 -0.02895,0.23485 0.0048,0.472917 0.03539,0.236458 0.146379,0.445571 0.193027,0.366751 0.485785,0.460048 0.294366,0.09169 0.574255,-0.281498 0.01287,-0.01609 0.03056,-0.04182 0.151204,-0.16729 0.318495,-0.03378 0.168898,0.131901 0.04987,0.299192 z"
         style="stroke-width:0.264583"
         id="path5302" />
      <path
         d="m 46.941783,61.541272 q 0.147988,0.445571 0.110991,0.924922 -0.03539,0.479351 -0.262195,0.875056 -0.143162,0.24611 -0.39088,0.418226 -0.247718,0.172116 -0.546911,0.120642 -0.487393,-0.08525 -0.746371,-0.508305 -0.258978,-0.423051 -0.297584,-0.941007 -0.037,-0.519565 0.139945,-1.011784 0.17855,-0.492219 0.567822,-0.715809 0.18981,-0.109382 0.397314,-0.109382 0.395705,0 0.646641,0.299192 0.250935,0.297583 0.381228,0.648249 z m -1.015001,-0.49061 q -0.295975,0 -0.448788,0.318495 -0.151205,0.318494 -0.191419,0.543693 -0.03056,0.164073 -0.02252,0.397314 0.008,0.233241 0.06756,0.461656 0.05952,0.226807 0.17855,0.410183 0.119034,0.181767 0.312061,0.241284 0.225198,0.07078 0.387663,-0.08847 0.164073,-0.160856 0.247718,-0.341014 0.08525,-0.184985 0.115816,-0.485785 0.03217,-0.300801 -0.01448,-0.599993 -0.04504,-0.300801 -0.17855,-0.540476 -0.13351,-0.241284 -0.37962,-0.307235 -0.03217,-0.0097 -0.07399,-0.0097 z"
         style="stroke-width:0.264583"
         id="path5304" />
      <path
         d="m 49.706897,63.666179 q 0,0.168899 -0.164073,0.215547 -0.162465,0.04504 -0.252544,-0.09651 l -1.35119,-2.16673 v 2.047696 q -0.03539,0.225199 -0.228416,0.225199 -0.191418,0 -0.225198,-0.225199 v -2.840716 q 0.02413,-0.16729 0.170507,-0.220372 0.147988,-0.05308 0.24611,0.09973 l 1.35119,2.169947 v -2.049305 q 0.03056,-0.230024 0.233241,-0.226806 0.204287,0.0016 0.220373,0.226806 z"
         style="stroke-width:0.264583"
         id="path5306" />
      <path
         d="m 50.984093,63.662962 v -2.615517 h -0.590341 q -0.225198,-0.0177 -0.225198,-0.225199 0.0016,-0.209112 0.225198,-0.228415 h 1.632688 q 0.221981,0.01769 0.221981,0.228415 0.0016,0.209113 -0.221981,0.225199 h -0.588733 v 2.615517 q -0.037,0.228416 -0.238067,0.225199 -0.199461,-0.0032 -0.215547,-0.225199 z"
         style="stroke-width:0.264583"
         id="path5308" />
      <path
         d="m 41.205136,64.711743 h 0.03056 q 0.205896,0.01448 0.379621,0.0933 0.332971,0.15603 0.471307,0.51313 0.138337,0.3571 -0.0032,0.696506 -0.114207,0.26863 -0.337797,0.421443 -0.22359,0.151205 -0.509914,0.168899 l -0.03056,0.0016 h -0.78176 v 1.17264 q -0.02895,0.226807 -0.228416,0.226807 -0.199461,0 -0.226806,-0.226807 v -2.842324 q 0.02413,-0.199462 0.212329,-0.225199 h 0.01448 z m 0,0.453614 h -0.78176 v 0.986047 h 0.78176 q 0.183376,0 0.32332,-0.122251 0.141554,-0.12225 0.165682,-0.305626 0.02895,-0.221981 -0.119033,-0.389271 -0.147988,-0.168899 -0.369969,-0.168899 z"
         style="stroke-width:0.264583"
         id="path5310" />
      <path
         d="m 44.642628,67.657016 q 0.102947,0.181767 -0.05791,0.305626 -0.07721,0.05469 -0.17855,0.037 -0.09973,-0.01769 -0.146379,-0.09973 L 43.466771,66.64684 h -0.40214 v 1.132426 q 0,0.139945 -0.127077,0.202679 -0.127076,0.06113 -0.238066,-0.02413 -0.08847,-0.06595 -0.08847,-0.17855 v -2.842324 q 0,-0.0933 0.06434,-0.159248 0.06595,-0.06595 0.160856,-0.06595 h 0.998916 q 0.360317,0 0.625729,0.230024 0.265413,0.228416 0.329755,0.58069 0.06756,0.378012 -0.160856,0.707766 -0.226807,0.328146 -0.60321,0.398923 l -0.03056,0.0048 z m -0.807497,-1.462181 q 0.164073,0 0.302409,-0.09973 0.139945,-0.09973 0.188201,-0.260586 0.0756,-0.247718 -0.06917,-0.44718 -0.14477,-0.20107 -0.398923,-0.221981 h -0.793019 v 1.029478 z"
         style="stroke-width:0.264583"
         id="path5312" />
      <path
         d="m 45.6898,67.784092 q -0.03539,0.226807 -0.230024,0.225198 -0.193027,0 -0.226807,-0.225198 v -2.843933 q 0.03378,-0.226807 0.226807,-0.226807 0.194635,-0.0016 0.230024,0.226807 z"
         style="stroke-width:0.264583"
         id="path5314" />
    </g>
    <g
       aria-label="JET FUEL"
       id="text5116"
       style="font-size:3.29433px;line-height:1.25;font-family:'MS 33558';-inkscape-font-specification:'MS 33558, Normal';text-align:center;text-anchor:middle;stroke-width:0.264583">
      <path
         d="m 34.465467,20.015774 v 0.02735 q 0,0.154422 0.05952,0.324929 0.06112,0.168899 0.168898,0.289541 0.109382,0.119034 0.25737,0.157639 0.149596,0.03861 0.326537,-0.07078 0.173725,-0.106165 0.254153,-0.305626 0.08204,-0.199461 0.08204,-0.395706 v -1.86432 q 0,-0.09491 0.06595,-0.159247 0.09008,-0.09008 0.217156,-0.0563 0.127076,0.03217 0.159247,0.157639 0.0048,0.02413 0.008,0.05791 v 1.86432 q -0.02091,0.328147 -0.143162,0.62573 -0.12225,0.295975 -0.434311,0.456831 -0.302409,0.15603 -0.571038,0.119033 -0.267021,-0.037 -0.468091,-0.202678 -0.20107,-0.16729 -0.318495,-0.432703 -0.115816,-0.265412 -0.115816,-0.566213 v -0.02735 q 0,-0.09651 0.07078,-0.162465 0.07078,-0.06756 0.168899,-0.06273 0.08847,0.0048 0.149596,0.07238 0.06273,0.06595 0.06273,0.152813 z"
         style="stroke-width:0.264583"
         id="path5281" />
      <path
         d="M 38.218236,18.402389 H 36.88474 v 0.879882 h 1.01661 q 0.228416,0.03378 0.226807,0.230024 0,0.194636 -0.226807,0.226807 h -1.01661 v 1.056823 h 1.333496 q 0.226807,0.03378 0.226807,0.226807 0,0.193027 -0.226807,0.225199 h -1.557085 q -0.20107,-0.02574 -0.228416,-0.228416 v -2.840716 q 0.03056,-0.21233 0.228416,-0.225198 h 1.557085 q 0.226807,0.01769 0.225199,0.226807 0,0.207504 -0.225199,0.221981 z"
         style="stroke-width:0.264583"
         id="path5283" />
      <path
         d="m 39.707763,21.022732 v -2.615518 h -0.590342 q -0.225198,-0.01769 -0.225198,-0.225198 0.0016,-0.209113 0.225198,-0.228415 h 1.632688 q 0.221981,0.01769 0.221981,0.228415 0.0016,0.209113 -0.221981,0.225198 h -0.588733 v 2.615518 q -0.037,0.228416 -0.238066,0.225199 -0.199462,-0.0032 -0.215547,-0.225199 z"
         style="stroke-width:0.264583"
         id="path5285" />
      <path
         d="m 42.747379,21.019515 v -2.837499 q 0.02895,-0.21233 0.228415,-0.228415 h 1.557086 q 0.22359,0.01769 0.22359,0.228415 0,0.209113 -0.226807,0.22359 h -1.330279 v 0.879882 h 1.037521 q 0.221981,0.01609 0.225198,0.217155 0.0032,0.20107 -0.225198,0.23485 h -1.037521 v 1.282022 q -0.01609,0.221981 -0.218764,0.225198 -0.20107,0.0032 -0.233241,-0.225198 z"
         style="stroke-width:0.264583"
         id="path5287" />
      <path
         d="m 47.375205,20.162153 v 0.03217 q -0.0048,0.08043 -0.0064,0.09651 -0.06756,0.492219 -0.403749,0.727069 -0.336189,0.233241 -0.717417,0.218764 -0.381229,-0.01609 -0.698115,-0.278281 -0.315278,-0.262195 -0.342623,-0.764066 v -0.03217 -1.983354 q 0,-0.04826 0.01769,-0.08686 0.07721,-0.168899 0.255761,-0.133511 0.180159,0.03539 0.180159,0.220373 v 1.983354 q 0.02413,0.369969 0.324929,0.553344 0.302409,0.183376 0.635381,-0.01609 0.149596,-0.08847 0.218764,-0.228416 0.07078,-0.139944 0.08365,-0.308843 v -1.983354 q 0,-0.02895 0.0032,-0.04343 0.037,-0.197853 0.242892,-0.17855 0.205896,0.0193 0.205896,0.221981 z"
         style="stroke-width:0.264583"
         id="path5289" />
      <path
         d="m 49.553195,18.402389 h -1.333496 v 0.879882 h 1.01661 q 0.228415,0.03378 0.226807,0.230024 0,0.194636 -0.226807,0.226807 h -1.01661 v 1.056823 h 1.333496 q 0.226807,0.03378 0.226807,0.226807 0,0.193027 -0.226807,0.225199 h -1.557086 q -0.201069,-0.02574 -0.228415,-0.228416 v -2.840716 q 0.03056,-0.21233 0.228415,-0.225198 h 1.557086 q 0.226807,0.01769 0.225198,0.226807 0,0.207504 -0.225198,0.221981 z"
         style="stroke-width:0.264583"
         id="path5291" />
      <path
         d="m 50.455595,21.249539 q -0.197852,-0.01287 -0.228415,-0.22359 v -2.843933 q 0.03378,-0.231632 0.23485,-0.226807 0.20107,0.0032 0.218764,0.226807 v 2.618735 l 1.4847,-0.0016 q 0.228416,0.02574 0.225199,0.231633 -0.0016,0.204287 -0.226807,0.218764 z"
         style="stroke-width:0.264583"
         id="path5293" />
    </g>
    <g
       aria-label="RUN"
       id="text5120"
       style="font-size:3.29433px;line-height:1.25;font-family:'MS 33558';-inkscape-font-specification:'MS 33558, Normal';text-align:center;text-anchor:middle;stroke-width:0.264583">
      <path
         d="m 24.157458,30.788941 q 0.102947,0.181767 -0.05791,0.305626 -0.07721,0.05469 -0.17855,0.037 -0.09973,-0.01769 -0.146379,-0.09973 l -0.793019,-1.253068 h -0.40214 v 1.132426 q 0,0.139944 -0.127076,0.202678 -0.127077,0.06113 -0.238067,-0.02413 -0.08847,-0.06595 -0.08847,-0.17855 v -2.842325 q 0,-0.0933 0.06434,-0.159247 0.06595,-0.06595 0.160856,-0.06595 h 0.998916 q 0.360317,0 0.625729,0.230024 0.265413,0.228415 0.329755,0.58069 0.06756,0.378011 -0.160856,0.707766 -0.226807,0.328146 -0.60321,0.398923 l -0.03056,0.0048 z m -0.807497,-1.46218 q 0.164073,0 0.302409,-0.09973 0.139945,-0.09973 0.188201,-0.260587 0.0756,-0.247718 -0.06917,-0.447179 -0.14477,-0.20107 -0.398922,-0.221982 h -0.79302 v 1.029479 z"
         style="stroke-width:0.264583"
         id="path5274" />
      <path
         d="m 26.916137,30.052221 v 0.03217 q -0.0048,0.08043 -0.0064,0.09651 -0.06756,0.492219 -0.403748,0.727069 -0.336189,0.233241 -0.717418,0.218764 -0.381229,-0.01609 -0.698115,-0.278281 -0.315277,-0.262195 -0.342623,-0.764066 v -0.03217 -1.983354 q 0,-0.04826 0.01769,-0.08686 0.07721,-0.168899 0.255761,-0.133511 0.180159,0.03539 0.180159,0.220373 v 1.983354 q 0.02413,0.369969 0.324929,0.553344 0.302409,0.183376 0.635381,-0.01609 0.149596,-0.08847 0.218764,-0.228416 0.07078,-0.139944 0.08365,-0.308843 v -1.983354 q 0,-0.02895 0.0032,-0.04343 0.037,-0.197853 0.242893,-0.17855 0.205895,0.0193 0.205895,0.221981 z"
         style="stroke-width:0.264583"
         id="path5276" />
      <path
         d="m 29.530046,30.916017 q 0,0.168899 -0.164073,0.215547 -0.162464,0.04504 -0.252543,-0.09651 l -1.35119,-2.16673 v 2.047696 q -0.03539,0.225199 -0.228416,0.225199 -0.191418,0 -0.225198,-0.225199 v -2.840716 q 0.02413,-0.16729 0.170507,-0.220372 0.147988,-0.05308 0.24611,0.09973 l 1.35119,2.169947 v -2.049305 q 0.03056,-0.230024 0.233241,-0.226807 0.204287,0.0016 0.220372,0.226807 z"
         style="stroke-width:0.264583"
         id="path5278" />
    </g>
    <g
       aria-label="START 1"
       id="text5124"
       style="font-size:3.29433px;line-height:1.25;font-family:'MS 33558';-inkscape-font-specification:'MS 33558, Normal';text-align:center;text-anchor:middle;stroke-width:0.264583">
      <path
         d="m 52.495472,29.382468 0.02574,0.01126 0.02895,0.01448 0.02574,0.01448 q 0.01126,0.008 0.02413,0.01609 0.01448,0.0064 0.02735,0.01448 0.318495,0.209113 0.394097,0.579082 0.02895,0.14477 0.01287,0.297583 -0.02574,0.218764 -0.154422,0.405357 -0.127076,0.184985 -0.320103,0.286324 -0.207505,0.109382 -0.429486,0.109382 -0.373186,0 -0.712592,-0.09491 -0.339406,-0.09651 -0.484176,-0.513131 -0.0193,-0.05308 -0.02895,-0.109382 -0.0097,-0.0563 -0.02252,-0.112599 -0.02413,-0.115816 0.0563,-0.204287 0.08204,-0.08847 0.202678,-0.06756 0.127076,0.02574 0.176942,0.157638 l 0.0048,0.01448 q 0.07721,0.349058 0.26863,0.416617 0.193027,0.06756 0.53565,0.06113 0.315278,0 0.432703,-0.295975 0.05147,-0.131902 0.01608,-0.273455 -0.03539,-0.143162 -0.139944,-0.238067 -0.04665,-0.04021 -0.122251,-0.0756 l -0.744763,-0.326537 -0.02413,-0.01287 q -0.365143,-0.193027 -0.453614,-0.548518 -0.107774,-0.411792 0.149596,-0.738329 0.258978,-0.328146 0.678812,-0.328146 l 0.176942,0.0048 q 0.08686,0.01609 0.16729,0.03217 0.08043,0.01448 0.162464,0.05147 0.202679,0.09491 0.310452,0.260587 0.107774,0.165682 0.194636,0.358709 0.008,0.01769 0.01448,0.04182 0.01769,0.07882 -0.01609,0.143162 -0.0193,0.04021 -0.04021,0.06113 -0.02091,0.02091 -0.03378,0.02895 -0.08364,0.05952 -0.183376,0.03539 -0.09973,-0.02252 -0.152813,-0.128685 -0.04182,-0.0933 -0.09008,-0.18981 -0.04665,-0.09812 -0.131902,-0.162465 -0.03539,-0.02574 -0.06917,-0.037 -0.03217,-0.01287 -0.07238,-0.02735 l -0.104556,-0.01769 -0.147988,-0.0048 q -0.215547,0.0032 -0.329754,0.186593 -0.07721,0.117425 -0.05791,0.262195 0.02252,0.17855 0.16729,0.276673 0.0064,0.0048 0.01448,0.01126 0.008,0.0048 0.01769,0.0097 l 0.01769,0.008 0.0193,0.008 z"
         style="stroke-width:0.264583"
         id="path5261" />
      <path
         d="m 54.253628,30.910599 v -2.615518 h -0.590341 q -0.225199,-0.01769 -0.225199,-0.225198 0.0016,-0.209113 0.225199,-0.228415 h 1.632687 q 0.221982,0.01769 0.221982,0.228415 0.0016,0.209113 -0.221982,0.225198 h -0.588732 v 2.615518 q -0.037,0.228416 -0.238067,0.225199 -0.199462,-0.0032 -0.215547,-0.225199 z"
         style="stroke-width:0.264583"
         id="path5263" />
      <path
         d="m 57.740985,30.078974 -0.489002,-1.35119 -0.492219,1.35119 z m -0.489002,-1.35119 0.489002,1.35119 z m -1.241808,2.097562 q 0.257369,-0.709375 0.514739,-1.417141 0.258978,-0.709375 0.517956,-1.41875 0.05308,-0.146379 0.210721,-0.147987 0.157639,-0.0016 0.21233,0.147987 l 1.031087,2.843933 q 0.04826,0.226807 -0.138336,0.292758 -0.186593,0.06595 -0.287932,-0.135119 l -0.165682,-0.460048 h -1.310976 l -0.160856,0.448788 q -0.102948,0.202679 -0.292758,0.133511 -0.18981,-0.07078 -0.130293,-0.287932 z"
         style="stroke-width:0.264583"
         id="path5265" />
      <path
         d="m 60.845505,30.78674 q 0.102948,0.181767 -0.05791,0.305626 -0.07721,0.05469 -0.178551,0.037 -0.09973,-0.01769 -0.146378,-0.09973 l -0.79302,-1.253068 h -0.40214 v 1.132426 q 0,0.139944 -0.127076,0.202678 -0.127077,0.06113 -0.238067,-0.02413 -0.08847,-0.06595 -0.08847,-0.17855 v -2.842325 q 0,-0.0933 0.06434,-0.159247 0.06595,-0.06595 0.160856,-0.06595 h 0.998916 q 0.360317,0 0.625729,0.230024 0.265413,0.228415 0.329755,0.58069 0.06756,0.378011 -0.160856,0.707766 -0.226807,0.328146 -0.60321,0.398923 l -0.03056,0.0048 z m -0.807497,-1.462181 q 0.164073,0 0.302409,-0.09973 0.139945,-0.09973 0.188201,-0.260587 0.0756,-0.247718 -0.06917,-0.447179 -0.14477,-0.20107 -0.398922,-0.221982 h -0.79302 v 1.029478 z"
         style="stroke-width:0.264583"
         id="path5267" />
      <path
         d="m 62.251385,30.910599 v -2.615518 h -0.590341 q -0.225198,-0.01769 -0.225198,-0.225198 0.0016,-0.209113 0.225198,-0.228415 h 1.632688 q 0.221981,0.01769 0.221981,0.228415 0.0016,0.209113 -0.221981,0.225198 h -0.588733 v 2.615518 q -0.037,0.228416 -0.238067,0.225199 -0.199461,-0.0032 -0.215547,-0.225199 z"
         style="stroke-width:0.264583"
         id="path5269" />
      <path
         d="m 65.747833,30.907382 q 0,0.02091 -0.0048,0.04504 -0.03861,0.181767 -0.225199,0.181767 -0.136727,0 -0.202678,-0.127076 -0.01448,-0.02413 -0.02413,-0.09973 v -2.837499 q 0.0048,-0.03861 0.01126,-0.07239 0.008,-0.03539 0.03539,-0.06756 0.06434,-0.07882 0.165681,-0.08525 0.10134,-0.008 0.175333,0.06434 0.03861,0.03861 0.04987,0.07399 0.01126,0.03539 0.0193,0.08686 z"
         style="stroke-width:0.264583"
         id="path5271" />
    </g>
    <g
       aria-label="START 2"
       id="text5128"
       style="font-size:3.29433px;line-height:1.25;font-family:'MS 33558';-inkscape-font-specification:'MS 33558, Normal';text-align:center;text-anchor:middle;stroke-width:0.264583">
      <path
         d="m 51.76429,50.497864 0.02574,0.01126 0.02895,0.01448 0.02574,0.01448 q 0.01126,0.008 0.02413,0.01609 0.01448,0.0064 0.02734,0.01448 0.318495,0.209112 0.394097,0.579081 0.02895,0.144771 0.01287,0.297584 -0.02574,0.218764 -0.154422,0.405357 -0.127076,0.184984 -0.320103,0.286323 -0.207504,0.109382 -0.429486,0.109382 -0.373185,0 -0.712591,-0.0949 -0.339406,-0.09651 -0.484177,-0.51313 -0.0193,-0.05308 -0.02895,-0.109382 -0.0097,-0.0563 -0.02252,-0.112599 -0.02413,-0.115817 0.0563,-0.204287 0.08204,-0.08847 0.202678,-0.06756 0.127077,0.02574 0.176942,0.157639 l 0.0048,0.01448 q 0.07721,0.349057 0.268629,0.416617 0.193027,0.06756 0.53565,0.06112 0.315278,0 0.432703,-0.295975 0.05147,-0.131902 0.01608,-0.273455 -0.03539,-0.143162 -0.139944,-0.238067 -0.04665,-0.04021 -0.122251,-0.0756 l -0.744763,-0.326538 -0.02413,-0.01287 q -0.365143,-0.193027 -0.453614,-0.548519 -0.107773,-0.411791 0.149596,-0.738329 0.258978,-0.328146 0.678812,-0.328146 l 0.176942,0.0048 q 0.08686,0.01609 0.16729,0.03217 0.08043,0.01448 0.162464,0.05147 0.202679,0.0949 0.310452,0.260587 0.107774,0.165681 0.194636,0.358708 0.008,0.01769 0.01448,0.04182 0.01769,0.07882 -0.01608,0.143162 -0.0193,0.04021 -0.04021,0.06112 -0.02091,0.02091 -0.03378,0.02895 -0.08365,0.05952 -0.183376,0.03539 -0.09973,-0.02252 -0.152813,-0.128684 -0.04182,-0.0933 -0.09008,-0.18981 -0.04665,-0.09812 -0.131902,-0.162465 -0.03539,-0.02574 -0.06917,-0.037 -0.03217,-0.01287 -0.07239,-0.02735 l -0.104556,-0.01769 -0.147987,-0.0048 q -0.215547,0.0032 -0.329755,0.186593 -0.07721,0.117425 -0.05791,0.262195 0.02252,0.17855 0.16729,0.276672 0.0064,0.0048 0.01448,0.01126 0.008,0.0048 0.01769,0.0097 l 0.01769,0.008 0.0193,0.008 z"
         style="stroke-width:0.264583"
         id="path5248" />
      <path
         d="m 53.522446,52.025996 v -2.615518 h -0.590341 q -0.225199,-0.01769 -0.225199,-0.225198 0.0016,-0.209113 0.225199,-0.228416 h 1.632688 q 0.221981,0.01769 0.221981,0.228416 0.0016,0.209112 -0.221981,0.225198 H 53.97606 v 2.615518 q -0.037,0.228415 -0.238067,0.225198 -0.199461,-0.0032 -0.215547,-0.225198 z"
         style="stroke-width:0.264583"
         id="path5250" />
      <path
         d="m 57.009803,51.19437 -0.489002,-1.35119 -0.492219,1.35119 z m -0.489002,-1.35119 0.489002,1.35119 z m -1.241808,2.097562 q 0.25737,-0.709375 0.514739,-1.417141 0.258978,-0.709375 0.517956,-1.418749 0.05308,-0.146379 0.210722,-0.147988 0.157638,-0.0016 0.212329,0.147988 l 1.031087,2.843933 q 0.04826,0.226807 -0.138336,0.292758 -0.186593,0.06595 -0.287932,-0.135119 L 57.173876,51.646376 H 55.8629 l -0.160856,0.448788 q -0.102948,0.202678 -0.292758,0.13351 -0.18981,-0.07078 -0.130293,-0.287932 z"
         style="stroke-width:0.264583"
         id="path5252" />
      <path
         d="m 60.114323,51.902137 q 0.102948,0.181767 -0.05791,0.305626 -0.07721,0.05469 -0.17855,0.037 -0.09973,-0.01769 -0.146379,-0.09973 l -0.79302,-1.253068 h -0.40214 v 1.132426 q 0,0.139945 -0.127076,0.202679 -0.127076,0.06112 -0.238067,-0.02413 -0.08847,-0.06595 -0.08847,-0.17855 v -2.842325 q 0,-0.0933 0.06434,-0.159247 0.06595,-0.06595 0.160856,-0.06595 h 0.998915 q 0.360317,0 0.62573,0.230024 0.265412,0.228416 0.329754,0.58069 0.06756,0.378012 -0.160856,0.707766 -0.226806,0.328146 -0.603209,0.398923 l -0.03056,0.0048 z m -0.807497,-1.462181 q 0.164073,0 0.302409,-0.09973 0.139945,-0.09973 0.188202,-0.260586 0.0756,-0.247719 -0.06917,-0.44718 -0.144771,-0.20107 -0.398923,-0.221981 h -0.79302 v 1.029478 z"
         style="stroke-width:0.264583"
         id="path5254" />
      <path
         d="m 61.520204,52.025996 v -2.615518 h -0.590342 q -0.225198,-0.01769 -0.225198,-0.225198 0.0016,-0.209113 0.225198,-0.228416 h 1.632688 q 0.221981,0.01769 0.221981,0.228416 0.0016,0.209112 -0.221981,0.225198 h -0.588733 v 2.615518 q -0.037,0.228415 -0.238067,0.225198 -0.199461,-0.0032 -0.215546,-0.225198 z"
         style="stroke-width:0.264583"
         id="path5256" />
      <path
         d="m 64.788236,52.249585 q -0.0949,0 -0.162464,-0.06595 -0.06595,-0.06595 -0.06595,-0.162465 0,-0.0032 0.01609,-0.101339 0.01769,-0.09973 0.02091,-0.114208 0.08204,-0.394097 0.318494,-0.749589 0.238067,-0.355491 0.574256,-0.582298 0.119034,-0.08043 0.215547,-0.16729 0.09812,-0.08847 0.199461,-0.197853 0.130294,-0.147988 0.1126,-0.336189 -0.01609,-0.188202 -0.186593,-0.297584 -0.209113,-0.130293 -0.42466,-0.0064 -0.215547,0.123859 -0.205896,0.369969 0,0.0048 0,0.01126 0.0016,0.0048 0.0016,0.0097 0.0097,0.07399 -0.03539,0.14477 -0.04504,0.06917 -0.114208,0.09008 -0.106165,0.03378 -0.197853,-0.02091 -0.09008,-0.05469 -0.102948,-0.160856 -0.0048,-0.01448 -0.0016,-0.119033 0.0048,-0.104556 0.0097,-0.12225 0.07238,-0.395706 0.415008,-0.595167 0.344232,-0.20107 0.725461,-0.07078 0.452005,0.157639 0.551736,0.616078 0.09973,0.45844 -0.215547,0.801063 -0.06434,0.06917 -0.130294,0.136727 -0.06434,0.06595 -0.138336,0.127077 -0.115816,0.09651 -0.244501,0.17855 -0.127076,0.08204 -0.228415,0.193027 -0.115816,0.128685 -0.218764,0.283106 -0.10134,0.154422 -0.160856,0.316887 -0.0048,0.0097 -0.02574,0.07078 -0.0193,0.06113 -0.0193,0.06595 h 1.193551 q 0.221981,0.01448 0.215547,0.23485 -0.0064,0.220372 -0.22359,0.220372 z"
         style="stroke-width:0.264583"
         id="path5258" />
    </g>
    <g
       aria-label="OFF"
       id="text5132"
       style="font-size:3.29433px;line-height:1.25;font-family:'MS 33558';-inkscape-font-specification:'MS 33558, Normal';text-align:center;text-anchor:middle;stroke-width:0.264583">
      <path
         d="m 69.69932,38.946256 q 0.147987,0.445571 0.110991,0.924922 -0.03539,0.47935 -0.262196,0.875056 -0.143161,0.24611 -0.39088,0.418225 -0.247718,0.172116 -0.54691,0.120642 -0.487393,-0.08525 -0.746371,-0.508304 -0.258979,-0.423052 -0.297584,-0.941008 -0.037,-0.519564 0.139945,-1.011784 0.17855,-0.492219 0.567821,-0.715809 0.18981,-0.109382 0.397314,-0.109382 0.395706,0 0.646641,0.299192 0.250936,0.297584 0.381229,0.64825 z m -1.015001,-0.490611 q -0.295975,0 -0.448788,0.318495 -0.151205,0.318495 -0.191419,0.543693 -0.03056,0.164073 -0.02252,0.397314 0.008,0.233241 0.06756,0.461657 0.05952,0.226807 0.17855,0.410183 0.119033,0.181767 0.312061,0.241284 0.225198,0.07078 0.387662,-0.08847 0.164073,-0.160856 0.247719,-0.341015 0.08525,-0.184984 0.115816,-0.485785 0.03217,-0.3008 -0.01448,-0.599993 -0.04504,-0.3008 -0.17855,-0.540476 -0.133511,-0.241283 -0.37962,-0.307234 -0.03217,-0.0097 -0.07399,-0.0097 z"
         style="stroke-width:0.264583"
         id="path5241" />
      <path
         d="M 70.243013,41.064729 V 38.22723 q 0.02895,-0.21233 0.228416,-0.228416 h 1.557085 q 0.22359,0.01769 0.22359,0.228416 0,0.209113 -0.226807,0.22359 h -1.330279 v 0.879882 h 1.037521 q 0.221981,0.01608 0.225199,0.217155 0.0032,0.20107 -0.225199,0.23485 h -1.037521 v 1.282022 q -0.01609,0.221981 -0.218764,0.225198 -0.20107,0.0032 -0.233241,-0.225198 z"
         style="stroke-width:0.264583"
         id="path5243" />
      <path
         d="M 72.702501,41.064729 V 38.22723 q 0.02895,-0.21233 0.228415,-0.228416 h 1.557086 q 0.223589,0.01769 0.223589,0.228416 0,0.209113 -0.226807,0.22359 h -1.330278 v 0.879882 h 1.037521 q 0.221981,0.01608 0.225198,0.217155 0.0032,0.20107 -0.225198,0.23485 h -1.037521 v 1.282022 q -0.01609,0.221981 -0.218764,0.225198 -0.20107,0.0032 -0.233241,-0.225198 z"
         style="stroke-width:0.264583"
         id="path5245" />
    </g>
    <g
       aria-label="OFF"
       id="text5136"
       style="font-size:3.29433px;line-height:1.25;font-family:'MS 33558';-inkscape-font-specification:'MS 33558, Normal';text-align:center;text-anchor:middle;stroke-width:0.264583">
      <path
         d="m 41.380457,198.77344 q 0.147987,0.44557 0.110991,0.92492 -0.03539,0.47935 -0.262196,0.87506 -0.143161,0.24611 -0.39088,0.41823 -0.247718,0.17211 -0.54691,0.12064 -0.487393,-0.0853 -0.746371,-0.50831 -0.258978,-0.42305 -0.297584,-0.941 -0.037,-0.51957 0.139945,-1.01179 0.17855,-0.49222 0.567821,-0.71581 0.18981,-0.10938 0.397314,-0.10938 0.395706,0 0.646641,0.29919 0.250936,0.29759 0.381229,0.64825 z m -1.015001,-0.49061 q -0.295975,0 -0.448788,0.3185 -0.151205,0.31849 -0.191419,0.54369 -0.03056,0.16407 -0.02252,0.39731 0.008,0.23325 0.06756,0.46166 0.05952,0.22681 0.17855,0.41018 0.119033,0.18177 0.312061,0.24129 0.225198,0.0708 0.387662,-0.0885 0.164074,-0.16086 0.247719,-0.34102 0.08525,-0.18498 0.115816,-0.48578 0.03217,-0.3008 -0.01448,-0.6 -0.04504,-0.3008 -0.17855,-0.54047 -0.133511,-0.24129 -0.37962,-0.30724 -0.03217,-0.01 -0.07399,-0.01 z"
         style="stroke-width:0.264583"
         id="path5234" />
      <path
         d="m 41.92415,200.89192 v -2.8375 q 0.02895,-0.21233 0.228416,-0.22842 h 1.557085 q 0.22359,0.0177 0.22359,0.22842 0,0.20911 -0.226807,0.22359 h -1.330279 v 0.87988 h 1.037521 q 0.221982,0.0161 0.225199,0.21715 0.0032,0.20107 -0.225199,0.23485 h -1.037521 v 1.28203 q -0.01608,0.22198 -0.218764,0.22519 -0.20107,0.003 -0.233241,-0.22519 z"
         style="stroke-width:0.264583"
         id="path5236" />
      <path
         d="m 44.383638,200.89192 v -2.8375 q 0.02895,-0.21233 0.228415,-0.22842 h 1.557086 q 0.223589,0.0177 0.223589,0.22842 0,0.20911 -0.226806,0.22359 h -1.330279 v 0.87988 h 1.037521 q 0.221981,0.0161 0.225198,0.21715 0.0032,0.20107 -0.225198,0.23485 h -1.037521 v 1.28203 q -0.01609,0.22198 -0.218764,0.22519 -0.20107,0.003 -0.233241,-0.22519 z"
         style="stroke-width:0.264583"
         id="path5238" />
    </g>
    <g
       aria-label="E
N
G

&amp; 

J
E
T

S
T
A
R
T"
       id="text5140"
       style="font-style:normal;font-variant:normal;font-weight:normal;font-stretch:normal;font-size:4.93889px;line-height:1.25;font-family:'MS 33558';-inkscape-font-specification:'MS 33558, Normal';font-variant-ligatures:normal;font-variant-caps:normal;font-variant-numeric:normal;font-variant-east-asian:normal;text-align:center;text-anchor:middle;stroke-width:0.264583">
      <path
         d="M 10.053992,35.156194 H 8.0548028 v 1.319127 h 1.5241106 q 0.3424426,0.05064 0.340031,0.344854 0,0.2918 -0.340031,0.340031 H 8.0548028 v 1.5844 h 1.9991892 q 0.340031,0.05064 0.340031,0.340031 0,0.289388 -0.340031,0.337619 H 7.7195949 Q 7.418149,39.383671 7.3771524,39.079814 v -4.258828 q 0.04582,-0.318327 0.3424425,-0.33762 h 2.3343971 q 0.340031,0.02653 0.33762,0.340031 0,0.311093 -0.33762,0.332797 z"
         style="font-style:normal;font-variant:normal;font-weight:normal;font-stretch:normal;font-size:4.93889px;font-family:'MS 33558';-inkscape-font-specification:'MS 33558, Normal';font-variant-ligatures:normal;font-variant-caps:normal;font-variant-numeric:normal;font-variant-east-asian:normal;stroke-width:0.264583"
         id="path5209" />
      <path
         d="m 10.539923,45.263073 q 0,0.253214 -0.24598,0.32315 -0.243568,0.06752 -0.378616,-0.144694 L 7.8896104,42.193147 v 3.069926 q -0.053054,0.337619 -0.3424425,0.337619 -0.2869765,0 -0.3376195,-0.337619 v -4.258828 q 0.036174,-0.250803 0.2556262,-0.330385 0.2218642,-0.07958 0.3689698,0.149517 l 2.0257166,3.253205 v -3.072337 q 0.04582,-0.344854 0.349677,-0.340031 0.306269,0.0024 0.330385,0.340031 z"
         style="font-style:normal;font-variant:normal;font-weight:normal;font-stretch:normal;font-size:4.93889px;font-family:'MS 33558';-inkscape-font-specification:'MS 33558, Normal';font-variant-ligatures:normal;font-variant-caps:normal;font-variant-numeric:normal;font-variant-east-asian:normal;stroke-width:0.264583"
         id="path5211" />
      <path
         d="m 9.0266645,49.779938 -0.021704,-0.0024 q -0.2942113,-0.03617 -0.2942113,-0.335208 0,-0.299034 0.2942113,-0.335208 l 0.021704,-0.0048 h 0.021704 0.8898683 q 0.1398711,0 0.2387451,0.101286 0.101286,0.09887 0.101286,0.238745 v 1.222665 l -0.02894,0.0627 -0.01688,0.03858 -0.01688,0.03617 -0.01929,0.03617 -0.01929,0.03617 -0.01688,0.03617 -0.01929,0.03617 -0.02171,0.03617 Q 9.6512604,51.779128 8.956729,51.762247 8.2621976,51.742954 7.7895304,50.976076 7.5652546,50.611929 7.4567341,50.064503 7.3482136,49.514666 7.3916218,48.943124 7.43503,48.369171 7.6568942,47.853096 7.88117,47.334609 8.3248984,47.030752 q 0.5546604,-0.376205 1.0803821,-0.08682 0.5257217,0.286977 0.7861705,0.807875 l 0.01929,0.03858 0.01447,0.03376 0.01929,0.03617 q 0.08199,0.229099 -0.0627,0.373793 -0.139871,0.137459 -0.3038573,0.103697 -0.1639865,-0.03617 -0.2532145,-0.195337 -0.2821534,-0.699354 -0.7282934,-0.610126 -0.4437284,0.08923 -0.6655926,0.728293 -0.217041,0.617361 -0.1712213,1.328774 0.04582,0.709 0.463021,1.237134 0.2869765,0.368969 0.5835993,0.236333 0.2966228,-0.132636 0.4678441,-0.494371 l 0.026527,-0.05305 v -0.735528 z"
         style="font-style:normal;font-variant:normal;font-weight:normal;font-stretch:normal;font-size:4.93889px;font-family:'MS 33558';-inkscape-font-specification:'MS 33558, Normal';font-variant-ligatures:normal;font-variant-caps:normal;font-variant-numeric:normal;font-variant-east-asian:normal;stroke-width:0.264583"
         id="path5213" />
      <path
         d="m 7.7111545,62.180218 q -0.2194527,0.195337 -0.3231501,0.390674 -0.1012858,0.192925 -0.1012858,0.405143 0,0.352089 0.2556261,0.586011 0.2556262,0.233922 0.641477,0.233922 0.2290989,0 0.429259,-0.07476 0.20016,-0.07717 0.3762045,-0.23151 z m 0.340031,-0.270096 1.2250762,1.254015 q 0.1422825,-0.214629 0.2218642,-0.458198 0.079582,-0.245979 0.094051,-0.520898 h 0.448552 Q 10.01179,62.503368 9.8863882,62.81446 9.7609867,63.125552 9.536711,63.42941 l 0.672827,0.687296 H 9.6018233 l -0.3448542,-0.3545 q -0.250803,0.214629 -0.5257216,0.320738 -0.2749187,0.103698 -0.5908341,0.103698 -0.5811877,0 -0.9501575,-0.330385 -0.3689698,-0.332796 -0.3689698,-0.851283 0,-0.308681 0.161575,-0.578776 0.161575,-0.272507 0.4847251,-0.511253 -0.1157553,-0.151928 -0.1760445,-0.301446 -0.060289,-0.151928 -0.060289,-0.296622 0,-0.390674 0.267684,-0.627008 0.267684,-0.238745 0.7114124,-0.238745 0.2001601,0 0.3979086,0.04341 0.2001601,0.04341 0.4051433,0.130225 v 0.438905 q -0.2098063,-0.113344 -0.4003201,-0.171221 -0.1905139,-0.06029 -0.3545005,-0.06029 -0.2532145,0 -0.412378,0.135047 -0.1567519,0.132637 -0.1567519,0.344855 0,0.122989 0.069936,0.248391 0.072347,0.12299 0.2917997,0.349677 z"
         style="font-style:normal;font-variant:normal;font-weight:normal;font-stretch:normal;font-size:4.93889px;font-family:'MS 33558';-inkscape-font-specification:'MS 33558, Normal';font-variant-ligatures:normal;font-variant-caps:normal;font-variant-numeric:normal;font-variant-east-asian:normal;stroke-width:0.264583"
         id="path5215" />
      <path
         d="m 8.0849474,75.261999 v 0.041 q 0,0.231511 0.089228,0.487137 0.09164,0.253215 0.2532146,0.434082 0.1639865,0.178456 0.3858507,0.236334 0.2242758,0.05788 0.4895482,-0.106109 0.2604493,-0.159164 0.3810277,-0.458198 0.1229899,-0.299034 0.1229899,-0.593246 v -2.795006 q 0,-0.142283 0.098874,-0.238745 0.1350482,-0.135048 0.3255612,-0.08441 0.190514,0.04823 0.238746,0.236333 0.0072,0.03617 0.01206,0.08682 v 2.795006 q -0.03135,0.49196 -0.214629,0.9381 Q 10.084137,76.684824 9.6162927,76.92598 9.162918,77.159902 8.7601863,77.104436 8.3598661,77.04897 8.0584202,76.800579 7.7569742,76.549776 7.5809298,76.151867 7.407297,75.753959 7.407297,75.302995 v -0.041 q 0,-0.144694 0.1061089,-0.243568 0.106109,-0.101286 0.2532146,-0.09405 0.1326362,0.0072 0.2242758,0.108521 0.094051,0.09887 0.094051,0.229099 z"
         style="font-style:normal;font-variant:normal;font-weight:normal;font-stretch:normal;font-size:4.93889px;font-family:'MS 33558';-inkscape-font-specification:'MS 33558, Normal';font-variant-ligatures:normal;font-variant-caps:normal;font-variant-numeric:normal;font-variant-east-asian:normal;stroke-width:0.264583"
         id="path5217" />
      <path
         d="M 10.053992,79.016809 H 8.0548028 v 1.319128 h 1.5241106 q 0.3424426,0.05064 0.340031,0.344854 0,0.291799 -0.340031,0.340031 H 8.0548028 v 1.5844 h 1.9991892 q 0.340031,0.05064 0.340031,0.340031 0,0.289388 -0.340031,0.337619 H 7.7195949 Q 7.418149,83.244287 7.3771524,82.940429 v -4.258828 q 0.04582,-0.318327 0.3424425,-0.337619 h 2.3343971 q 0.340031,0.02653 0.33762,0.340031 0,0.311092 -0.33762,0.332796 z"
         style="font-style:normal;font-variant:normal;font-weight:normal;font-stretch:normal;font-size:4.93889px;font-family:'MS 33558';-inkscape-font-specification:'MS 33558, Normal';font-variant-ligatures:normal;font-variant-caps:normal;font-variant-numeric:normal;font-variant-east-asian:normal;stroke-width:0.264583"
         id="path5219" />
      <path
         d="M 8.5238527,89.118865 V 85.197656 H 7.6388074 Q 7.301188,85.171129 7.301188,84.860037 q 0.00241,-0.313504 0.3376194,-0.342443 h 2.4477406 q 0.332797,0.02653 0.332797,0.342443 0.0024,0.313504 -0.332797,0.337619 H 9.2039147 v 3.921209 q -0.055466,0.342443 -0.356912,0.337619 -0.2990344,-0.0048 -0.32315,-0.337619 z"
         style="font-style:normal;font-variant:normal;font-weight:normal;font-stretch:normal;font-size:4.93889px;font-family:'MS 33558';-inkscape-font-specification:'MS 33558, Normal';font-variant-ligatures:normal;font-variant-caps:normal;font-variant-numeric:normal;font-variant-east-asian:normal;stroke-width:0.264583"
         id="path5221" />
      <path
         d="m 9.7272248,99.175101 0.038585,0.01688 0.043408,0.0217 0.038585,0.0217 q 0.016881,0.01206 0.036174,0.02412 0.021704,0.0096 0.040997,0.0217 0.4774907,0.313504 0.5908337,0.86816 0.04341,0.21705 0.01929,0.44614 -0.03858,0.32798 -0.231511,0.60772 -0.190513,0.27733 -0.4799015,0.42926 -0.3110922,0.16398 -0.6438885,0.16398 -0.5594836,0 -1.0683244,-0.14228 -0.5088407,-0.14469 -0.7258817,-0.76929 -0.028939,-0.0796 -0.043408,-0.16398 -0.014469,-0.0844 -0.033762,-0.16881 -0.036174,-0.17364 0.084405,-0.30627 0.1229899,-0.13264 0.3038575,-0.10129 0.1905138,0.0386 0.2652724,0.23633 l 0.00723,0.0217 q 0.1157552,0.52331 0.4027317,0.62459 0.2893881,0.10129 0.803052,0.0916 0.4726672,0 0.6487116,-0.44372 0.07717,-0.19775 0.024116,-0.40997 -0.053054,-0.21463 -0.2098063,-0.356913 -0.069935,-0.06029 -0.1832791,-0.113343 L 8.338162,99.305326 8.3019885,99.286033 q -0.5474258,-0.289388 -0.680062,-0.822344 -0.1615751,-0.617362 0.2242757,-1.10691 0.3882624,-0.49196 1.0176815,-0.49196 l 0.2652724,0.0072 q 0.1302246,0.02412 0.250803,0.04823 0.1205783,0.0217 0.2435683,0.07717 0.3038575,0.142282 0.4654326,0.390674 0.161575,0.248391 0.2918,0.537779 0.01206,0.02653 0.0217,0.0627 0.02653,0.118167 -0.02412,0.214629 -0.02894,0.06029 -0.06029,0.09164 -0.03135,0.03135 -0.05064,0.04341 -0.125402,0.08923 -0.2749188,0.05306 Q 9.84298,98.35758 9.7633983,98.198416 9.7006975,98.058545 9.6283505,97.913851 9.5584151,97.766746 9.430602,97.670283 q -0.053055,-0.03858 -0.1036974,-0.05547 -0.048231,-0.01929 -0.1085205,-0.041 l -0.1567519,-0.02653 -0.2218642,-0.0072 q -0.32315,0.0048 -0.4943713,0.279742 -0.1157553,0.176044 -0.086816,0.393086 0.033762,0.267684 0.2508031,0.414789 0.00965,0.0072 0.021704,0.01688 0.012058,0.0072 0.026527,0.01447 l 0.026527,0.01206 0.028939,0.01206 z"
         style="font-style:normal;font-variant:normal;font-weight:normal;font-stretch:normal;font-size:4.93889px;font-family:'MS 33558';-inkscape-font-specification:'MS 33558, Normal';font-variant-ligatures:normal;font-variant-caps:normal;font-variant-numeric:normal;font-variant-east-asian:normal;stroke-width:0.264583"
         id="path5223" />
      <path
         d="m 8.5238527,107.6397 v -3.92121 H 7.6388074 q -0.3376194,-0.0265 -0.3376194,-0.33762 0.00241,-0.3135 0.3376194,-0.34244 h 2.4477406 q 0.332797,0.0265 0.332797,0.34244 0.0024,0.31351 -0.332797,0.33762 H 9.2039147 v 3.92121 q -0.055466,0.34244 -0.356912,0.33762 -0.2990344,-0.005 -0.32315,-0.33762 z"
         style="font-style:normal;font-variant:normal;font-weight:normal;font-stretch:normal;font-size:4.93889px;font-family:'MS 33558';-inkscape-font-specification:'MS 33558, Normal';font-variant-ligatures:normal;font-variant-caps:normal;font-variant-numeric:normal;font-variant-east-asian:normal;stroke-width:0.264583"
         id="path5225" />
      <path
         d="m 9.7224016,112.56653 -0.7331164,-2.02571 -0.7379397,2.02571 z m -0.7331164,-2.02571 0.7331164,2.02571 z m -1.86173,3.14468 q 0.3858507,-1.0635 0.7717015,-2.12459 0.3882624,-1.0635 0.7765247,-2.127 0.079582,-0.21945 0.3159153,-0.22187 0.2363336,-0.002 0.3183269,0.22187 l 1.5458144,4.26365 q 0.07235,0.34003 -0.207394,0.4389 -0.279742,0.0989 -0.431671,-0.20257 L 9.9683815,113.24418 H 8.0029541 l -0.2411567,0.67283 q -0.1543403,0.30386 -0.4389053,0.20016 -0.2845649,-0.10611 -0.1953369,-0.43167 z"
         style="font-style:normal;font-variant:normal;font-weight:normal;font-stretch:normal;font-size:4.93889px;font-family:'MS 33558';-inkscape-font-specification:'MS 33558, Normal';font-variant-ligatures:normal;font-variant-caps:normal;font-variant-numeric:normal;font-variant-east-asian:normal;stroke-width:0.264583"
         id="path5227" />
      <path
         d="m 10.301178,119.80124 q 0.15434,0.2725 -0.08682,0.45819 -0.115755,0.082 -0.2676836,0.0555 -0.1495172,-0.0265 -0.2194526,-0.14952 L 8.5383221,118.28677 H 7.9354302 v 1.69775 q 0,0.2098 -0.1905138,0.30385 -0.1905138,0.0916 -0.356912,-0.0362 -0.1326362,-0.0989 -0.1326362,-0.26768 v -4.26124 q 0,-0.13987 0.096463,-0.23875 0.098874,-0.0989 0.2411568,-0.0989 H 9.090571 q 0.5401911,0 0.9381,0.34485 0.397908,0.34244 0.494371,0.87058 0.101286,0.56672 -0.241157,1.06109 -0.3400307,0.49196 -0.9043375,0.59807 l -0.04582,0.007 z m -1.210607,-2.19212 q 0.2459799,0 0.4533747,-0.14952 0.2098063,-0.14951 0.2821533,-0.39067 0.1133437,-0.37138 -0.1036974,-0.67041 -0.217041,-0.30145 -0.5980687,-0.3328 H 7.9354302 v 1.5434 z"
         style="font-style:normal;font-variant:normal;font-weight:normal;font-stretch:normal;font-size:4.93889px;font-family:'MS 33558';-inkscape-font-specification:'MS 33558, Normal';font-variant-ligatures:normal;font-variant-caps:normal;font-variant-numeric:normal;font-variant-east-asian:normal;stroke-width:0.264583"
         id="path5229" />
      <path
         d="m 8.5238527,126.16054 v -3.92121 H 7.6388074 q -0.3376194,-0.0265 -0.3376194,-0.33762 0.00241,-0.3135 0.3376194,-0.34244 h 2.4477406 q 0.332797,0.0265 0.332797,0.34244 0.0024,0.31351 -0.332797,0.33762 H 9.2039147 v 3.92121 q -0.055466,0.34244 -0.356912,0.33762 -0.2990344,-0.005 -0.32315,-0.33762 z"
         style="font-style:normal;font-variant:normal;font-weight:normal;font-stretch:normal;font-size:4.93889px;font-family:'MS 33558';-inkscape-font-specification:'MS 33558, Normal';font-variant-ligatures:normal;font-variant-caps:normal;font-variant-numeric:normal;font-variant-east-asian:normal;stroke-width:0.264583"
         id="path5231" />
    </g>
    <path
       style="fill:none;stroke:#000000;stroke-width:0.6;stroke-linecap:butt;stroke-linejoin:miter;stroke-opacity:1;stroke-miterlimit:4;stroke-dasharray:none"
       d="m 52.916666,19.84375 c 17.197916,0 17.197916,0 17.197916,0 v 0"
       id="path5190" />
    <path
       style="fill:none;stroke:#000000;stroke-width:0.6;stroke-linecap:butt;stroke-linejoin:miter;stroke-opacity:1;stroke-miterlimit:4;stroke-dasharray:none"
       d="m 15.875001,19.84375 c 17.197916,0 17.197916,0 17.197916,0 v 0"
       id="path5190-8" />
    <path
       style="fill:none;stroke:#000000;stroke-width:0.6;stroke-linecap:butt;stroke-linejoin:miter;stroke-opacity:1;stroke-miterlimit:4;stroke-dasharray:none"
       d="m 14.552083,58.208333 c 56.885416,0 56.885416,0 56.885416,0"
       id="path5207" />
  </g>
</svg>
