<?xml version="1.0" encoding="UTF-8" standalone="no"?>
<svg
   xmlns:dc="http://purl.org/dc/elements/1.1/"
   xmlns:cc="http://creativecommons.org/ns#"
   xmlns:rdf="http://www.w3.org/1999/02/22-rdf-syntax-ns#"
   xmlns:svg="http://www.w3.org/2000/svg"
   xmlns="http://www.w3.org/2000/svg"
   xmlns:sodipodi="http://sodipodi.sourceforge.net/DTD/sodipodi-0.dtd"
   xmlns:inkscape="http://www.inkscape.org/namespaces/inkscape"
   width="210mm"
   height="297mm"
   viewBox="0 0 210 297"
   version="1.1"
   id="svg3779"
   inkscape:version="1.0.1 (3bc2e813f5, 2020-09-07)"
   sodipodi:docname="epu_engrave.svg">
  <defs
     id="defs3773">
    <marker
       id="DistanceX"
       orient="auto"
       refX="0.0"
       refY="0.0"
       style="overflow:visible">
      <path
         d="M 3,-3 L -3,3 M 0,-5 L  0,5"
         style="stroke:#000000; stroke-width:0.5"
         id="path4342" />
    </marker>
    <pattern
       id="Hatch"
       patternUnits="userSpaceOnUse"
       width="8"
       height="8"
       x="0"
       y="0">
      <path
         d="M8 4 l-4,4"
         stroke="#000000"
         stroke-width="0.25"
         linecap="square"
         id="path4345" />
      <path
         d="M6 2 l-4,4"
         stroke="#000000"
         stroke-width="0.25"
         linecap="square"
         id="path4347" />
      <path
         d="M4 0 l-4,4"
         stroke="#000000"
         stroke-width="0.25"
         linecap="square"
         id="path4349" />
    </pattern>
    <symbol
       id="*Model_Space" />
    <symbol
       id="*Paper_Space" />
  </defs>
  <sodipodi:namedview
     id="base"
     pagecolor="#ffffff"
     bordercolor="#666666"
     borderopacity="1.0"
     inkscape:pageopacity="0.0"
     inkscape:pageshadow="2"
     inkscape:zoom="2.8"
     inkscape:cx="154.94853"
     inkscape:cy="243.39086"
     inkscape:document-units="mm"
     inkscape:current-layer="layer1"
     inkscape:document-rotation="0"
     showgrid="false"
     inkscape:window-width="1918"
     inkscape:window-height="2071"
     inkscape:window-x="0"
     inkscape:window-y="0"
     inkscape:window-maximized="0" />
  <metadata
     id="metadata3776">
    <rdf:RDF>
      <cc:Work
         rdf:about="">
        <dc:format>image/svg+xml</dc:format>
        <dc:type
           rdf:resource="http://purl.org/dc/dcmitype/StillImage" />
        <dc:title />
      </cc:Work>
    </rdf:RDF>
  </metadata>
  <g
     inkscape:label="Lag 1"
     inkscape:groupmode="layer"
     id="layer1">
    <g
       inkscape:label="0"
       id="g4392"
       transform="matrix(0.26458333,0,0,0.26458333,7.0059514,-166.20833)"
       style="stroke:#ff0000">
      <path
         d="M 154.96063,691.65354 V 653.85827"
         style="fill:none;stroke:#ff0000;stroke-linecap:round"
         id="path4356" />
      <path
         d="M 192.75591,710.55118 H 173.85827"
         style="fill:none;stroke:#ff0000;stroke-linecap:round"
         id="path4358" />
      <path
         d="m 154.96063,691.65354 a 18.897638,18.897638 0 0 0 18.89764,18.89764"
         style="fill:none;stroke:#ff0000;stroke-linecap:round"
         id="path4360" />
      <path
         d="m 37.795276,653.85827 v 37.79527"
         style="fill:none;stroke:#ff0000;stroke-linecap:round"
         id="path4362" />
      <path
         d="M 18.897638,710.55118 H 0"
         style="fill:none;stroke:#ff0000;stroke-linecap:round"
         id="path4364" />
      <path
         d="M 18.897638,710.55118 A 18.897638,18.897638 0 0 0 37.795276,691.65354"
         style="fill:none;stroke:#ff0000;stroke-linecap:round"
         id="path4366" />
      <path
         d="m 154.96063,1084.7244 v 37.7953"
         style="fill:none;stroke:#ff0000;stroke-linecap:round"
         id="path4368" />
      <path
         d="M 192.75591,1065.8268 H 173.85827"
         style="fill:none;stroke:#ff0000;stroke-linecap:round"
         id="path4370" />
      <path
         d="m 173.85827,1065.8268 a 18.897638,18.897638 0 0 0 -18.89764,18.8976"
         style="fill:none;stroke:#ff0000;stroke-linecap:round"
         id="path4372" />
      <path
         d="m 100.15748,1103.622 a 5.669291,5.669291 0 1 0 -11.338582,0 5.669291,5.669291 0 1 0 11.338582,0 z"
         style="fill:none;stroke:#ff0000;stroke-linecap:round"
         id="path4374" />
      <path
         d="m 100.15748,672.75591 a 5.669291,5.669291 0 1 0 -11.338582,0 5.669291,5.669291 0 1 0 11.338582,0 z"
         style="fill:none;stroke:#ff0000;stroke-linecap:round"
         id="path4376" />
      <path
         d="M 60.472441,797.48032 H 132.28346 V 725.66929 H 60.472441 Z"
         style="fill:none;stroke:#ff0000;stroke-linecap:round"
         id="path4378" />
      <path
         d="m 153.07087,873.07087 a 9.44882,9.44882 0 1 0 -18.89764,0 9.44882,9.44882 0 1 0 18.89764,0 z"
         style="fill:none;stroke:#ff0000;stroke-linecap:round"
         id="path4380" />
      <path
         d="M 37.795276,653.85827 H 154.96063"
         style="fill:none;stroke:#ff0000;stroke-linecap:round"
         id="path4382" />
      <path
         d="M 192.75591,710.55118 V 1065.8268"
         style="fill:none;stroke:#ff0000;stroke-linecap:round"
         id="path4384" />
      <path
         d="M 154.96063,1122.5197 H 0"
         style="fill:none;stroke:#ff0000;stroke-linecap:round"
         id="path4386" />
      <path
         d="M 0,710.55118 V 1122.5197"
         style="fill:none;stroke:#ff0000;stroke-linecap:round"
         id="path4388" />
      <path
         d="m 98.267717,971.33858 a 22.677165,22.677165 0 1 0 -45.354331,0 22.677165,22.677165 0 1 0 45.354331,0 z"
         style="fill:none;stroke:#ff0000;stroke-linecap:round"
         id="path4390" />
    </g>
    <g
       aria-label="E
p
U"
       id="text4437"
       style="font-style:normal;font-variant:normal;font-weight:normal;font-stretch:normal;font-size:4.93889px;line-height:1.25;font-family:'MS 33558';-inkscape-font-specification:'MS 33558, Normal';font-variant-ligatures:normal;font-variant-caps:normal;font-variant-numeric:normal;font-variant-east-asian:normal;text-align:center;text-anchor:middle;stroke-width:0.264583">
      <path
         d="M 11.322036,51.10745 H 9.3228463 v 1.319127 h 1.5241107 q 0.342442,0.05064 0.340031,0.344854 0,0.2918 -0.340031,0.340031 H 9.3228463 v 1.5844 h 1.9991897 q 0.340031,0.05064 0.340031,0.340031 0,0.289388 -0.340031,0.337619 H 8.9876385 Q 8.6861925,55.334927 8.6451959,55.03107 v -4.258828 q 0.04582,-0.318327 0.3424426,-0.33762 h 2.3343975 q 0.340031,0.02653 0.337619,0.340031 0,0.311092 -0.337619,0.332797 z"
         style="font-style:normal;font-variant:normal;font-weight:normal;font-stretch:normal;font-size:4.93889px;font-family:'MS 33558';-inkscape-font-specification:'MS 33558, Normal';font-variant-ligatures:normal;font-variant-caps:normal;font-variant-numeric:normal;font-variant-east-asian:normal;stroke-width:0.264583"
         id="path6052" />
      <path
         d="m 10.362232,56.608235 h 0.04582 q 0.30868,0.0217 0.56913,0.139871 0.499194,0.233922 0.706589,0.76929 0.207395,0.535368 -0.0048,1.044208 -0.171222,0.402732 -0.50643,0.631831 -0.335207,0.226687 -0.764466,0.253215 l -0.04582,0.0024 H 9.1902101 v 1.758033 q -0.043408,0.340031 -0.3424425,0.340031 -0.2990344,0 -0.340031,-0.340031 v -4.26124 q 0.036174,-0.299034 0.3183268,-0.337619 h 0.021704 z m 0,0.680062 H 9.1902101 v 1.478291 h 1.1720219 q 0.274919,0 0.484725,-0.18328 0.212218,-0.183279 0.248391,-0.458197 0.04341,-0.332797 -0.178456,-0.5836 -0.221864,-0.253214 -0.55466,-0.253214 z"
         style="font-style:normal;font-variant:normal;font-weight:normal;font-stretch:normal;font-size:4.93889px;font-family:'MS 33558';-inkscape-font-specification:'MS 33558, Normal';font-variant-ligatures:normal;font-variant-caps:normal;font-variant-numeric:normal;font-variant-east-asian:normal;stroke-width:0.264583"
         id="path6054" />
      <path
         d="m 11.820024,66.092929 v 0.04823 q -0.0072,0.120578 -0.0096,0.144694 -0.101286,0.737939 -0.605303,1.090028 -0.504018,0.349677 -1.075559,0.327973 Q 9.5579741,67.679741 9.0828954,67.286655 8.6102282,66.89357 8.5692315,66.141161 v -0.04823 -2.973462 q 0,-0.07235 0.026527,-0.130225 0.1157552,-0.253215 0.3834392,-0.20016 0.2700955,0.05305 0.2700955,0.330385 v 2.973462 q 0.036174,0.554661 0.4871366,0.829579 0.4533749,0.274919 0.9525689,-0.02411 0.224276,-0.132636 0.327973,-0.342443 0.106109,-0.209806 0.125402,-0.463021 v -2.973462 q 0,-0.04341 0.0048,-0.06511 0.05547,-0.296622 0.364147,-0.267684 0.30868,0.02894 0.30868,0.332797 z"
         style="font-style:normal;font-variant:normal;font-weight:normal;font-stretch:normal;font-size:4.93889px;font-family:'MS 33558';-inkscape-font-specification:'MS 33558, Normal';font-variant-ligatures:normal;font-variant-caps:normal;font-variant-numeric:normal;font-variant-east-asian:normal;stroke-width:0.264583"
         id="path6056" />
    </g>
    <g
       aria-label="ON"
       id="text4445"
       style="font-size:3.29433px;line-height:1.25;font-family:'MS 33558';-inkscape-font-specification:'MS 33558, Normal';text-align:center;text-anchor:middle;stroke-width:0.264583">
      <path
         d="m 26.203753,77.500585 q 0.147987,0.445571 0.110991,0.924922 -0.03539,0.47935 -0.262196,0.875056 -0.143161,0.24611 -0.39088,0.418225 -0.247718,0.172116 -0.54691,0.120642 -0.487393,-0.08525 -0.746371,-0.508304 -0.258979,-0.423052 -0.297584,-0.941008 -0.037,-0.519564 0.139945,-1.011784 0.17855,-0.492219 0.567821,-0.715809 0.18981,-0.109382 0.397314,-0.109382 0.395706,0 0.646641,0.299192 0.250936,0.297584 0.381229,0.64825 z m -1.015001,-0.490611 q -0.295975,0 -0.448788,0.318495 -0.151205,0.318495 -0.191419,0.543693 -0.03056,0.164073 -0.02252,0.397314 0.008,0.233241 0.06756,0.461657 0.05952,0.226807 0.17855,0.410183 0.119033,0.181767 0.312061,0.241283 0.225198,0.07078 0.387662,-0.08847 0.164073,-0.160856 0.247719,-0.341015 0.08525,-0.184984 0.115816,-0.485785 0.03217,-0.300801 -0.01448,-0.599993 -0.04504,-0.3008 -0.17855,-0.540476 -0.133511,-0.241284 -0.37962,-0.307234 -0.03217,-0.0097 -0.07399,-0.0097 z"
         style="stroke-width:0.264583"
         id="path6047" />
      <path
         d="m 28.968867,79.625492 q 0,0.168899 -0.164073,0.215547 -0.162465,0.04504 -0.252544,-0.09651 l -1.35119,-2.166729 v 2.047696 q -0.03539,0.225198 -0.228416,0.225198 -0.191418,0 -0.225198,-0.225198 v -2.840716 q 0.02413,-0.16729 0.170507,-0.220373 0.147988,-0.05308 0.24611,0.09973 l 1.35119,2.169947 v -2.049305 q 0.03056,-0.230024 0.233241,-0.226807 0.204287,0.0016 0.220373,0.226807 z"
         style="stroke-width:0.264583"
         id="path6049" />
    </g>
    <g
       aria-label="NORM"
       id="text4449"
       style="font-size:3.29433px;line-height:1.25;font-family:'MS 33558';-inkscape-font-specification:'MS 33558, Normal';text-align:center;text-anchor:middle;stroke-width:0.264583">
      <path
         d="m 38.41254,92.476673 q 0,0.168899 -0.164073,0.215547 -0.162464,0.04504 -0.252544,-0.09651 l -1.35119,-2.166729 v 2.047696 q -0.03539,0.225198 -0.228415,0.225198 -0.191419,0 -0.225198,-0.225198 v -2.840716 q 0.02413,-0.16729 0.170507,-0.220373 0.147987,-0.05308 0.24611,0.09973 l 1.35119,2.169947 v -2.049305 q 0.03056,-0.230024 0.233241,-0.226807 0.204287,0.0016 0.220372,0.226807 z"
         style="stroke-width:0.264583"
         id="path6038" />
      <path
         d="m 41.013581,90.351766 q 0.147988,0.445571 0.110991,0.924922 -0.03539,0.47935 -0.262196,0.875056 -0.143161,0.24611 -0.390879,0.418225 -0.247719,0.172116 -0.546911,0.120642 -0.487393,-0.08525 -0.746371,-0.508304 -0.258978,-0.423052 -0.297584,-0.941008 -0.037,-0.519564 0.139945,-1.011784 0.17855,-0.492219 0.567821,-0.715809 0.18981,-0.109382 0.397315,-0.109382 0.395705,0 0.64664,0.299192 0.250936,0.297584 0.381229,0.64825 z M 39.99858,89.861155 q -0.295975,0 -0.448788,0.318495 -0.151205,0.318495 -0.191419,0.543693 -0.03056,0.164073 -0.02252,0.397314 0.008,0.233241 0.06756,0.461657 0.05952,0.226807 0.17855,0.410183 0.119034,0.181767 0.312061,0.241283 0.225198,0.07078 0.387663,-0.08847 0.164073,-0.160856 0.247718,-0.341015 0.08525,-0.184984 0.115816,-0.485785 0.03217,-0.300801 -0.01448,-0.599993 -0.04504,-0.3008 -0.17855,-0.540476 -0.133511,-0.241284 -0.37962,-0.307234 -0.03217,-0.0097 -0.07399,-0.0097 z"
         style="stroke-width:0.264583"
         id="path6040" />
      <path
         d="m 43.588885,92.349597 q 0.102948,0.181767 -0.05791,0.305626 -0.07721,0.05469 -0.17855,0.037 -0.09973,-0.01769 -0.146379,-0.09973 l -0.79302,-1.253068 h -0.40214 v 1.132426 q 0,0.139945 -0.127076,0.202679 -0.127076,0.06113 -0.238067,-0.02413 -0.08847,-0.06595 -0.08847,-0.17855 v -2.842324 q 0,-0.0933 0.06434,-0.159248 0.06595,-0.06595 0.160856,-0.06595 h 0.998915 q 0.360317,0 0.62573,0.230024 0.265412,0.228416 0.329754,0.58069 0.06756,0.378012 -0.160856,0.707766 -0.226806,0.328147 -0.603209,0.398923 l -0.03056,0.0048 z m -0.807497,-1.462181 q 0.164073,0 0.302409,-0.09973 0.139945,-0.09973 0.188202,-0.260586 0.0756,-0.247718 -0.06917,-0.44718 -0.144771,-0.20107 -0.398923,-0.221981 h -0.79302 v 1.029478 z"
         style="stroke-width:0.264583"
         id="path6042" />
      <path
         d="m 46.577589,92.473456 q -0.03539,0.225198 -0.228416,0.225198 -0.191418,-0.0016 -0.225198,-0.225198 v -2.009091 l -0.551736,0.944224 q -0.08847,0.106165 -0.197853,0.110991 -0.107773,0.0048 -0.193027,-0.110991 l -0.548519,-0.939398 0.0016,2.004265 q -0.02574,0.22359 -0.233241,0.22359 -0.205896,-0.0016 -0.221982,-0.22359 V 89.63274 q 0.01287,-0.184985 0.162465,-0.220373 0.149596,-0.037 0.260586,0.101339 l 0.773718,1.330279 0.78176,-1.330279 q 0.11099,-0.138336 0.257369,-0.101339 0.147988,0.037 0.162465,0.220373 z"
         style="stroke-width:0.264583"
         id="path6044" />
    </g>
    <g
       aria-label="OFF"
       id="text4453"
       style="font-size:3.29433px;line-height:1.25;font-family:'MS 33558';-inkscape-font-specification:'MS 33558, Normal';text-align:center;text-anchor:middle;stroke-width:0.264583">
      <path
         d="m 25.080174,102.16353 q 0.147987,0.44557 0.11099,0.92493 -0.03539,0.47935 -0.262195,0.87505 -0.143162,0.24611 -0.39088,0.41823 -0.247718,0.17211 -0.54691,0.12064 -0.487394,-0.0853 -0.746372,-0.50831 -0.258978,-0.42305 -0.297583,-0.941 -0.037,-0.51957 0.139944,-1.01179 0.17855,-0.49222 0.567822,-0.71581 0.18981,-0.10938 0.397314,-0.10938 0.395706,0 0.646641,0.29919 0.250935,0.29759 0.381229,0.64825 z m -1.015001,-0.49061 q -0.295975,0 -0.448789,0.3185 -0.151204,0.31849 -0.191418,0.54369 -0.03056,0.16407 -0.02252,0.39731 0.008,0.23325 0.06756,0.46166 0.05952,0.22681 0.17855,0.41018 0.119033,0.18177 0.31206,0.24129 0.225199,0.0708 0.387663,-0.0885 0.164073,-0.16086 0.247718,-0.34102 0.08525,-0.18498 0.115816,-0.48578 0.03217,-0.3008 -0.01448,-0.6 -0.04504,-0.3008 -0.17855,-0.54047 -0.13351,-0.24128 -0.37962,-0.30724 -0.03217,-0.01 -0.07399,-0.01 z"
         style="stroke-width:0.264583"
         id="path6031" />
      <path
         d="m 25.623867,104.28201 v -2.8375 q 0.02895,-0.21233 0.228415,-0.22842 h 1.557086 q 0.22359,0.0177 0.22359,0.22842 0,0.20911 -0.226807,0.22359 h -1.330279 v 0.87988 h 1.037521 q 0.221981,0.0161 0.225198,0.21715 0.0032,0.20107 -0.225198,0.23485 h -1.037521 v 1.28203 q -0.01609,0.22198 -0.218764,0.22519 -0.20107,0.003 -0.233241,-0.22519 z"
         style="stroke-width:0.264583"
         id="path6033" />
      <path
         d="m 28.083354,104.28201 v -2.8375 q 0.02895,-0.21233 0.228416,-0.22842 h 1.557085 q 0.22359,0.0177 0.22359,0.22842 0,0.20911 -0.226807,0.22359 h -1.330279 v 0.87988 h 1.037521 q 0.221982,0.0161 0.225199,0.21715 0.0032,0.20107 -0.225199,0.23485 h -1.037521 v 1.28203 q -0.01609,0.22198 -0.218764,0.22519 -0.20107,0.003 -0.233241,-0.22519 z"
         style="stroke-width:0.264583"
         id="path6035" />
    </g>
  </g>
</svg>
