<?xml version="1.0" encoding="UTF-8" standalone="no"?>
<svg
   xmlns:dc="http://purl.org/dc/elements/1.1/"
   xmlns:cc="http://creativecommons.org/ns#"
   xmlns:rdf="http://www.w3.org/1999/02/22-rdf-syntax-ns#"
   xmlns:svg="http://www.w3.org/2000/svg"
   xmlns="http://www.w3.org/2000/svg"
   xmlns:sodipodi="http://sodipodi.sourceforge.net/DTD/sodipodi-0.dtd"
   xmlns:inkscape="http://www.inkscape.org/namespaces/inkscape"
   width="210mm"
   height="297mm"
   viewBox="0 0 210 297"
   version="1.1"
   id="svg8"
   inkscape:version="1.0.1 (3bc2e813f5, 2020-09-07)"
   sodipodi:docname="flcs.svg">
  <defs
     id="defs2">
    <marker
       id="DistanceX"
       orient="auto"
       refX="0.0"
       refY="0.0"
       style="overflow:visible">
      <path
         d="M 3,-3 L -3,3 M 0,-5 L  0,5"
         style="stroke:#000000; stroke-width:0.5"
         id="path833" />
    </marker>
    <pattern
       id="Hatch"
       patternUnits="userSpaceOnUse"
       width="8"
       height="8"
       x="0"
       y="0">
      <path
         d="M8 4 l-4,4"
         stroke="#000000"
         stroke-width="0.25"
         linecap="square"
         id="path836" />
      <path
         d="M6 2 l-4,4"
         stroke="#000000"
         stroke-width="0.25"
         linecap="square"
         id="path838" />
      <path
         d="M4 0 l-4,4"
         stroke="#000000"
         stroke-width="0.25"
         linecap="square"
         id="path840" />
    </pattern>
    <symbol
       id="*Model_Space" />
    <symbol
       id="*Paper_Space" />
  </defs>
  <sodipodi:namedview
     id="base"
     pagecolor="#ffffff"
     bordercolor="#666666"
     borderopacity="1.0"
     inkscape:pageopacity="0.0"
     inkscape:pageshadow="2"
     inkscape:zoom="1.979899"
     inkscape:cx="291.84506"
     inkscape:cy="368.2475"
     inkscape:document-units="mm"
     inkscape:current-layer="layer1"
     inkscape:document-rotation="0"
     showgrid="false"
     inkscape:window-width="1918"
     inkscape:window-height="2071"
     inkscape:window-x="0"
     inkscape:window-y="0"
     inkscape:window-maximized="0" />
  <metadata
     id="metadata5">
    <rdf:RDF>
      <cc:Work
         rdf:about="">
        <dc:format>image/svg+xml</dc:format>
        <dc:type
           rdf:resource="http://purl.org/dc/dcmitype/StillImage" />
        <dc:title />
      </cc:Work>
    </rdf:RDF>
  </metadata>
  <g
     inkscape:label="Lag 1"
     inkscape:groupmode="layer"
     id="layer1">
    <g
       inkscape:label="0"
       id="g909"
       transform="matrix(0,0.26458333,-0.26458333,0,301.60715,4.5238114)"
       style="stroke:#ff0000">
      <path
         d="m 56.692913,1103.622 v 18.8977"
         style="fill:none;stroke:#ff0000;stroke-linecap:round"
         id="path847" />
      <path
         d="M 0,1084.7244 H 37.795276"
         style="fill:none;stroke:#ff0000;stroke-linecap:round"
         id="path849" />
      <path
         d="M 56.692913,1103.622 A 18.897638,18.897638 0 0 0 37.795276,1084.7244"
         style="fill:none;stroke:#ff0000;stroke-linecap:round"
         id="path851" />
      <path
         d="M 468.66142,612.28346 H 430.86614"
         style="fill:none;stroke:#ff0000;stroke-linecap:round"
         id="path853" />
      <path
         d="M 411.9685,593.38583 V 574.48819"
         style="fill:none;stroke:#ff0000;stroke-linecap:round"
         id="path855" />
      <path
         d="m 411.9685,593.38583 a 18.897638,18.897638 0 0 0 18.89764,18.89763"
         style="fill:none;stroke:#ff0000;stroke-linecap:round"
         id="path857" />
      <path
         d="m 411.9685,1103.622 v 18.8977"
         style="fill:none;stroke:#ff0000;stroke-linecap:round"
         id="path859" />
      <path
         d="M 468.66142,1084.7244 H 430.86614"
         style="fill:none;stroke:#ff0000;stroke-linecap:round"
         id="path861" />
      <path
         d="M 430.86614,1084.7244 A 18.897638,18.897638 0 0 0 411.9685,1103.622"
         style="fill:none;stroke:#ff0000;stroke-linecap:round"
         id="path863" />
      <path
         d="m 260.7874,763.46457 v -75.59055 h -75.59055 v 75.59055 z"
         style="fill:none;stroke:#ff0000;stroke-linecap:round"
         id="path865" />
      <path
         d="M 56.692913,593.38583 V 574.48819"
         style="fill:none;stroke:#ff0000;stroke-linecap:round"
         id="path867" />
      <path
         d="M 0,612.28346 H 37.795276"
         style="fill:none;stroke:#ff0000;stroke-linecap:round"
         id="path869" />
      <path
         d="M 37.795276,612.28346 A 18.897638,18.897638 0 0 0 56.692913,593.38583"
         style="fill:none;stroke:#ff0000;stroke-linecap:round"
         id="path871" />
      <path
         d="m 338.26772,880.62992 a 5.669295,5.669295 0 1 0 -11.33859,0 5.669295,5.669295 0 1 0 11.33859,0 z"
         style="fill:none;stroke:#ff0000;stroke-linecap:round"
         id="path873" />
      <path
         d="m 338.26772,774.80315 a 5.669295,5.669295 0 1 0 -11.33859,0 5.669295,5.669295 0 1 0 11.33859,0 z"
         style="fill:none;stroke:#ff0000;stroke-linecap:round"
         id="path875" />
      <path
         d="m 421.41732,774.80315 a 5.6692915,5.6692915 0 1 0 -11.33858,0 5.6692915,5.6692915 0 1 0 11.33858,0 z"
         style="fill:none;stroke:#ff0000;stroke-linecap:round"
         id="path877" />
      <path
         d="m 421.41732,880.62992 a 5.6692915,5.6692915 0 1 0 -11.33858,0 5.6692915,5.6692915 0 1 0 11.33858,0 z"
         style="fill:none;stroke:#ff0000;stroke-linecap:round"
         id="path879" />
      <path
         d="M 0,1084.7244 V 612.28346"
         style="fill:none;stroke:#ff0000;stroke-linecap:round"
         id="path881" />
      <path
         d="M 56.692913,574.48819 H 411.9685"
         style="fill:none;stroke:#ff0000;stroke-linecap:round"
         id="path883" />
      <path
         d="M 468.66142,612.28346 V 1084.7244"
         style="fill:none;stroke:#ff0000;stroke-linecap:round"
         id="path885" />
      <path
         d="M 411.9685,1122.5197 H 56.692913"
         style="fill:none;stroke:#ff0000;stroke-linecap:round"
         id="path887" />
      <path
         d="m 285.35433,631.1811 a 5.6692915,5.6692915 0 1 0 -11.33858,0 5.6692915,5.6692915 0 1 0 11.33858,0 z"
         style="fill:none;stroke:#ff0000;stroke-linecap:round"
         id="path889" />
      <path
         d="m 96.377953,631.1811 a 5.6692915,5.6692915 0 1 0 -11.338583,0 5.6692915,5.6692915 0 1 0 11.338583,0 z"
         style="fill:none;stroke:#ff0000;stroke-linecap:round"
         id="path891" />
      <path
         d="m 96.377953,1046.9291 a 5.6692915,5.6692915 0 1 0 -11.338583,0 5.6692915,5.6692915 0 1 0 11.338583,0 z"
         style="fill:none;stroke:#ff0000;stroke-linecap:round"
         id="path893" />
      <path
         d="m 285.35433,1046.9291 a 5.6692915,5.6692915 0 1 0 -11.33858,0 5.6692915,5.6692915 0 1 0 11.33858,0 z"
         style="fill:none;stroke:#ff0000;stroke-linecap:round"
         id="path895" />
      <path
         d="m 113.38583,744.56693 a 22.677167,22.677167 0 1 0 -45.354334,0 22.677167,22.677167 0 1 0 45.354334,0 z"
         style="fill:none;stroke:#ff0000;stroke-linecap:round"
         id="path897" />
      <path
         d="m 113.38583,948.66142 a 22.677167,22.677167 0 1 0 -45.354334,0 22.677167,22.677167 0 1 0 45.354334,0 z"
         style="fill:none;stroke:#ff0000;stroke-linecap:round"
         id="path899" />
      <path
         d="m 396.85039,990.23622 a 22.677165,22.677165 0 1 0 -45.35433,0 22.677165,22.677165 0 1 0 45.35433,0 z"
         style="fill:none;stroke:#ff0000;stroke-linecap:round"
         id="path901" />
      <path
         d="m 396.85039,827.71654 a 22.677165,22.677165 0 1 0 -45.35433,0 22.677165,22.677165 0 1 0 45.35433,0 z"
         style="fill:none;stroke:#ff0000;stroke-linecap:round"
         id="path903" />
      <path
         d="m 396.85039,668.97638 a 22.677165,22.677165 0 1 0 -45.35433,0 22.677165,22.677165 0 1 0 45.35433,0 z"
         style="fill:none;stroke:#ff0000;stroke-linecap:round"
         id="path905" />
      <path
         d="m 245.66929,846.61417 a 22.677165,22.677165 0 1 0 -45.35433,0 22.677165,22.677165 0 1 0 45.35433,0 z"
         style="fill:none;stroke:#ff0000;stroke-linecap:round"
         id="path907" />
    </g>
    <g
       aria-label="DIGITAL
BACKUP"
       id="text967"
       style="font-size:3.29433px;line-height:1.25;font-family:'MS 33558';-inkscape-font-specification:'MS 33558, Normal';text-align:center;text-anchor:middle;stroke-width:0.264583">
      <path
         d="m 44.61796,12.741845 h 0.757632 q 0.564604,0 0.846102,0.514739 0.281498,0.514739 0.281498,1.132426 0,0.617687 -0.283106,1.132426 -0.281498,0.514739 -0.844494,0.514739 h -0.757632 0.0032 -0.0032 q -0.05308,-0.008 -0.05791,-0.0097 -0.16729,-0.04021 -0.165681,-0.218764 h -0.0016 l 0.0016,-2.840716 q -0.0016,-0.0048 -0.0016,-0.01287 0.0048,-0.08847 0.06917,-0.149596 0.06595,-0.06273 0.157639,-0.06273 z m 0.757632,2.840716 q 0.0032,0 0.0064,0 0.0032,0 0.008,0 0.0032,0 0.0048,0 0.0032,-0.0016 0.008,-0.0016 0.0032,0 0.0064,0 0.0048,-0.0016 0.0097,-0.0016 0.0032,0 0.0064,0 0.0032,-0.0016 0.008,-0.0016 0.0032,0 0.0064,0 0.0032,-0.0016 0.008,-0.0016 0.0064,-0.0032 0.01287,-0.0032 0.0032,0 0.0064,-0.0016 0.0032,-0.0032 0.008,-0.0048 0.0032,0 0.0064,0 0.0048,-0.0016 0.0097,-0.0032 0.0032,0 0.0064,-0.0016 0.0032,-0.0016 0.008,-0.0032 0.0097,-0.0032 0.01448,-0.0064 0.02895,-0.0097 0.01609,-0.0064 0.0032,0 0.0064,-0.0016 0.0032,-0.0032 0.008,-0.0048 0.01448,-0.0097 0.01287,-0.008 0.01609,-0.008 0.01609,-0.008 0.0032,-0.0016 0.0064,-0.0032 0.0032,-0.0032 0.008,-0.0064 0.01448,-0.0097 0.01448,-0.0097 0.0032,-0.0016 0.0064,-0.0032 0.0048,-0.0032 0.0097,-0.0064 0.0032,-0.0016 0.0064,-0.0048 0.0032,-0.0032 0.008,-0.0064 0.0032,-0.0016 0.0064,-0.0032 0.0032,-0.0032 0.008,-0.0064 0.0032,-0.0032 0.01609,-0.01287 0.01287,-0.01287 0.01287,-0.01287 0.0032,-0.0032 0.0064,-0.0064 0.0032,-0.0032 0.008,-0.008 0.0032,-0.0032 0.0064,-0.0064 0.0032,-0.0032 0.008,-0.008 0.0048,-0.0032 0.01448,-0.01287 0.0032,-0.0032 0.0064,-0.0064 0.0032,-0.0032 0.008,-0.008 0.0032,-0.0032 0.0064,-0.0064 0.0032,-0.0048 0.008,-0.0097 0.0193,-0.02574 0.01287,-0.01609 0.01126,-0.01126 0.01448,-0.01769 0.01448,-0.0193 0.01287,-0.01769 0.0032,-0.0048 0.0064,-0.008 0.0032,-0.0048 0.008,-0.0097 0.0032,-0.0048 0.0048,-0.0097 0.0032,-0.0048 0.008,-0.0097 0.0016,-0.0048 0.0048,-0.0097 0.0048,-0.0064 0.008,-0.01126 0.0097,-0.01287 0.01287,-0.0193 0.0032,-0.0048 0.0048,-0.0097 0.0032,-0.0064 0.008,-0.01126 0.0032,-0.0048 0.0048,-0.0097 0.0032,-0.0064 0.008,-0.01126 0.0032,-0.008 0.0097,-0.02091 0.0032,-0.0048 0.0048,-0.01126 0.0032,-0.0064 0.008,-0.01287 0.0032,-0.0048 0.0048,-0.0097 0.0032,-0.0064 0.008,-0.01287 0.0016,-0.0048 0.0032,-0.01126 0.0032,-0.0064 0.0064,-0.01287 0.0048,-0.008 0.01126,-0.02413 0.01609,-0.04021 0.01126,-0.02574 0.0016,-0.0048 0.0032,-0.01126 0.0032,-0.008 0.0064,-0.01448 0.0016,-0.0064 0.0032,-0.01287 0.0032,-0.0064 0.0064,-0.01448 0.0048,-0.01448 0.008,-0.02574 0.0016,-0.0064 0.0032,-0.01287 0.0032,-0.0064 0.0064,-0.01448 -0.0064,0.01609 0.008,-0.02734 0.0032,-0.008 0.0097,-0.02735 0,-0.0064 0.0016,-0.01287 0.0032,-0.008 0.0048,-0.01609 0.0016,-0.0064 0.0032,-0.01287 0.0016,-0.008 0.0048,-0.01609 0,-0.0048 0.0016,-0.01126 0.0032,-0.008 0.0048,-0.01609 0.0016,-0.01126 0.0048,-0.03056 0,-0.0064 0.0016,-0.01287 0.0032,-0.008 0.0048,-0.01609 0,-0.0064 0.0016,-0.01287 0.0016,-0.008 0.0032,-0.01609 0.0016,-0.01126 0.0048,-0.03056 0,-0.0064 0.0016,-0.01448 0.0032,-0.008 0.0048,-0.01609 0,-0.01126 0.0032,-0.03056 0,-0.0064 0,-0.01287 0.0016,-0.008 0.0032,-0.01769 0.0032,-0.0193 0.0032,-0.03056 0.0016,-0.01126 0.0016,-0.03056 0.0016,-0.01126 0.0016,-0.03217 0.0016,-0.01126 0.0016,-0.03056 0,-0.008 0,-0.01448 0.0016,-0.008 0.0032,-0.01769 0,-0.0064 0,-0.01287 0.0016,-0.008 0.0016,-0.01769 0,-0.0064 0,-0.01448 0,-0.008 0,-0.01608 0,-0.008 0,-0.01448 0,-0.008 0,-0.01609 0,-0.008 -0.0016,-0.01448 0,-0.008 0,-0.01769 0,-0.0064 0,-0.01448 0,-0.008 0,-0.01609 0,-0.0097 -0.0032,-0.03217 0,-0.0193 -0.0016,-0.02895 0,-0.01126 -0.0032,-0.03378 0,-0.0193 -0.0016,-0.02895 0,-0.01126 -0.0032,-0.03056 -0.0016,-0.0064 -0.0032,-0.01448 0,-0.008 0,-0.01609 -0.0032,-0.0193 -0.0064,-0.03056 -0.0016,-0.0064 -0.0032,-0.01287 -0.0016,-0.008 -0.0016,-0.01609 -0.0016,-0.01126 -0.0048,-0.03056 -0.0016,-0.01126 -0.0048,-0.03056 -0.0064,-0.0193 -0.008,-0.02895 -0.0032,-0.0193 -0.0048,-0.02735 -0.0032,-0.0064 -0.0048,-0.01287 -0.0016,-0.008 -0.0032,-0.01609 -0.0016,-0.0064 -0.0048,-0.01287 -0.0032,-0.008 -0.0032,-0.01609 -0.01448,-0.04343 -0.008,-0.02734 -0.0032,-0.01126 -0.008,-0.02735 -0.0032,-0.0048 -0.0064,-0.01126 -0.0016,-0.008 -0.0032,-0.01448 -0.0016,-0.0048 -0.0097,-0.02735 -0.0064,-0.01609 -0.0097,-0.02574 -0.0032,-0.0048 -0.0064,-0.01126 -0.0016,-0.008 -0.0032,-0.01448 -0.0032,-0.0048 -0.0064,-0.01126 -0.0032,-0.0064 -0.0048,-0.01287 -0.0064,-0.01609 -0.01126,-0.02413 -0.0064,-0.01608 -0.0097,-0.02252 -0.0064,-0.01608 -0.01126,-0.02413 -0.0032,-0.0048 -0.0064,-0.0097 -0.0032,-0.0064 -0.0048,-0.01126 -0.0097,-0.01609 -0.01287,-0.02252 -0.01448,-0.02252 -0.01287,-0.02091 -0.0048,-0.0048 -0.008,-0.0097 -0.0016,-0.0064 -0.0048,-0.01126 -0.0032,-0.0064 -0.01287,-0.0193 -0.0032,-0.0048 -0.0064,-0.0097 -0.0032,-0.0048 -0.0048,-0.0097 -0.008,-0.01448 -0.02734,-0.037 -0.0032,-0.0032 -0.02574,-0.03539 -0.0193,-0.02252 -0.02896,-0.03217 -0.0097,-0.01126 -0.02895,-0.03056 -0.01287,-0.01448 -0.02734,-0.02735 -0.01126,-0.008 -0.03056,-0.02413 -0.01609,-0.01287 -0.03056,-0.02413 -0.037,-0.02413 -0.03056,-0.02091 -0.03217,-0.0193 -0.02895,-0.01769 0,0 -0.02895,-0.01448 -0.0064,-0.0032 -0.03056,-0.01126 -0.02091,-0.008 -0.03056,-0.01126 -0.008,-0.0016 -0.01448,-0.0032 -0.0064,-0.0032 -0.01287,-0.0064 -0.02895,-0.0048 -0.02895,-0.0048 -0.0097,-0.0016 -0.02895,-0.0016 -0.0048,0 -0.008,0 -0.0032,0 -0.0064,0 h -0.530825 v 2.387102 0 z"
         style="text-align:center;text-anchor:middle;stroke-width:0.264583"
         id="path3616" />
      <path
         d="m 47.370206,15.814194 q -0.03539,0.226806 -0.230024,0.225198 -0.193027,0 -0.226807,-0.225198 V 12.97026 q 0.03378,-0.226807 0.226807,-0.226807 0.194635,-0.0016 0.230024,0.226807 z"
         style="text-align:center;text-anchor:middle;stroke-width:0.264583"
         id="path3618" />
      <path
         d="m 48.927291,14.709113 -0.01448,-0.0016 q -0.196244,-0.02413 -0.196244,-0.22359 0,-0.199462 0.196244,-0.22359 l 0.01448,-0.0032 h 0.01448 0.593559 q 0.0933,0 0.159247,0.06756 0.06756,0.06595 0.06756,0.159248 v 0.81554 l -0.0193,0.04182 -0.01126,0.02574 -0.01126,0.02413 -0.01287,0.02413 -0.01287,0.02413 -0.01126,0.02413 -0.01287,0.02413 -0.01448,0.02413 q -0.312061,0.530825 -0.775326,0.519565 -0.463265,-0.01287 -0.778543,-0.52439 -0.149596,-0.242893 -0.221981,-0.608036 -0.07238,-0.366751 -0.04343,-0.74798 0.02895,-0.382837 0.176941,-0.727069 0.149596,-0.34584 0.445571,-0.548519 0.369969,-0.250935 0.720635,-0.05791 0.350666,0.191419 0.52439,0.538868 l 0.01287,0.02574 0.0097,0.02252 0.01287,0.02413 q 0.05469,0.152813 -0.04182,0.249327 -0.0933,0.09169 -0.202678,0.06917 -0.109382,-0.02413 -0.168899,-0.130294 -0.188202,-0.466482 -0.485785,-0.406965 -0.295975,0.05952 -0.443962,0.485785 -0.144771,0.411791 -0.114208,0.886316 0.03056,0.472916 0.308843,0.825191 0.191419,0.24611 0.389272,0.157639 0.197852,-0.08847 0.31206,-0.329755 l 0.01769,-0.03539 v -0.490611 z"
         style="text-align:center;text-anchor:middle;stroke-width:0.264583"
         id="path3620" />
      <path
         d="m 50.743355,15.814194 q -0.03539,0.226806 -0.230024,0.225198 -0.193027,0 -0.226807,-0.225198 V 12.97026 q 0.03378,-0.226807 0.226807,-0.226807 0.194636,-0.0016 0.230024,0.226807 z"
         style="text-align:center;text-anchor:middle;stroke-width:0.264583"
         id="path3622" />
      <path
         d="m 52.015725,15.810976 v -2.615517 h -0.590341 q -0.225198,-0.01769 -0.225198,-0.225199 0.0016,-0.209112 0.225198,-0.228415 h 1.632688 q 0.221981,0.01769 0.221981,0.228415 0.0016,0.209113 -0.221981,0.225199 h -0.588733 v 2.615517 q -0.037,0.228416 -0.238067,0.225199 -0.199461,-0.0032 -0.215547,-0.225199 z"
         style="text-align:center;text-anchor:middle;stroke-width:0.264583"
         id="path3624" />
      <path
         d="m 55.503083,14.979351 -0.489002,-1.35119 -0.492219,1.35119 z m -0.489002,-1.35119 0.489002,1.35119 z m -1.241808,2.097562 q 0.257369,-0.709375 0.514739,-1.417141 0.258978,-0.709375 0.517956,-1.41875 0.05308,-0.146379 0.210721,-0.147987 0.157639,-0.0016 0.21233,0.147987 l 1.031087,2.843934 q 0.04826,0.226806 -0.138336,0.292757 -0.186593,0.06595 -0.287932,-0.135119 L 55.667156,15.431356 H 54.35618 l -0.160856,0.448789 q -0.102948,0.202678 -0.292758,0.13351 -0.18981,-0.07078 -0.130293,-0.287932 z"
         style="text-align:center;text-anchor:middle;stroke-width:0.264583"
         id="path3626" />
      <path
         d="m 56.804407,16.037783 q -0.197853,-0.01287 -0.228415,-0.223589 V 12.97026 q 0.03378,-0.231632 0.234849,-0.226807 0.20107,0.0032 0.218764,0.226807 v 2.618735 l 1.484701,-0.0016 q 0.228415,0.02574 0.225198,0.231632 -0.0016,0.204287 -0.226807,0.218764 z"
         style="text-align:center;text-anchor:middle;stroke-width:0.264583"
         id="path3628" />
      <path
         d="m 45.23243,16.859757 q 0.305626,0.02574 0.513131,0.184985 0.209112,0.159247 0.28954,0.384445 0.08043,0.22359 0.02091,0.477742 -0.05791,0.252544 -0.283107,0.464874 0.247718,0.260587 0.308844,0.562996 0.06112,0.302409 -0.03861,0.566213 -0.09812,0.262195 -0.342623,0.445571 -0.244501,0.183376 -0.606427,0.207504 h -0.0048 -0.855753 q -0.197853,-0.02735 -0.228416,-0.22359 v -2.842324 q 0.02735,-0.199462 0.228416,-0.228416 z m -0.143162,2.839108 q 0.273455,-0.01126 0.416617,-0.176942 0.143162,-0.165681 0.147988,-0.366751 0.0064,-0.202679 -0.128685,-0.37962 -0.135119,-0.176942 -0.416617,-0.213939 h -0.648249 v 1.137252 z m 0.143162,-2.382277 h -0.772108 v 0.79302 h 0.776934 q 0.199461,-0.02091 0.295975,-0.143162 0.09812,-0.123859 0.0949,-0.263804 -0.0016,-0.141553 -0.101339,-0.257369 -0.09973,-0.117425 -0.294367,-0.128685 z"
         style="text-align:center;text-anchor:middle;stroke-width:0.264583"
         id="path3630" />
      <path
         d="m 48.267782,19.097264 -0.489002,-1.35119 -0.492219,1.35119 z m -0.489002,-1.35119 0.489002,1.35119 z m -1.241808,2.097561 q 0.257369,-0.709375 0.514739,-1.417141 0.258978,-0.709375 0.517956,-1.418749 0.05308,-0.146379 0.210721,-0.147988 0.157639,-0.0016 0.21233,0.147988 l 1.031087,2.843933 q 0.04826,0.226807 -0.138336,0.292758 -0.186593,0.06595 -0.287932,-0.135119 l -0.165682,-0.460048 h -1.310976 l -0.160856,0.448788 q -0.102948,0.202678 -0.292758,0.13351 -0.18981,-0.07078 -0.130293,-0.287932 z"
         style="text-align:center;text-anchor:middle;stroke-width:0.264583"
         id="path3632" />
      <path
         d="m 51.412516,19.639348 -0.01448,0.02091 q -0.0048,0.0064 -0.008,0.01126 -0.0032,0.0048 -0.0064,0.0097 -0.220373,0.297583 -0.579082,0.424659 -0.3571,0.125468 -0.704549,-0.04665 -0.403748,-0.20107 -0.593558,-0.682029 -0.188202,-0.480959 -0.162465,-0.998916 0.02735,-0.519564 0.273455,-0.953875 0.247718,-0.434311 0.717418,-0.543693 0.270238,-0.06273 0.538867,0.05308 0.26863,0.114208 0.440746,0.321712 0.0016,0 0.008,0.01126 0.07399,0.09651 0.03056,0.21233 -0.04343,0.114207 -0.159247,0.143161 -0.12386,0.03217 -0.228416,-0.07399 -0.215547,-0.250936 -0.415008,-0.241284 -0.199462,0.0097 -0.3571,0.164073 -0.157639,0.154422 -0.262196,0.395705 -0.104556,0.241284 -0.128684,0.452006 -0.02895,0.234849 0.0048,0.472916 0.03539,0.236458 0.146379,0.445571 0.193027,0.366752 0.485785,0.460048 0.294367,0.09169 0.574256,-0.281498 0.01287,-0.01609 0.03056,-0.04182 0.151204,-0.16729 0.318494,-0.03378 0.168899,0.131902 0.04987,0.299192 z"
         style="text-align:center;text-anchor:middle;stroke-width:0.264583"
         id="path3634" />
      <path
         d="m 53.4956,16.920883 q 0.183376,-0.133511 0.324929,0.01609 0.141553,0.147988 -0.008,0.312061 l -0.744763,0.715809 0.944225,1.862712 q 0.06756,0.226806 -0.112599,0.31206 -0.180159,0.08525 -0.292758,-0.107773 L 52.7251,18.292984 52.314918,18.688689 v 1.243417 q -0.03539,0.226807 -0.236459,0.22359 -0.20107,-0.0016 -0.217155,-0.22359 v -2.843933 q 0.01609,-0.22359 0.217155,-0.226807 0.20107,-0.0048 0.236459,0.226807 v 0.969961 z"
         style="text-align:center;text-anchor:middle;stroke-width:0.264583"
         id="path3636" />
      <path
         d="m 56.550255,19.068309 v 0.03217 q -0.0048,0.08043 -0.0064,0.09651 -0.06756,0.492219 -0.403749,0.727069 -0.336188,0.233241 -0.717417,0.218764 -0.381229,-0.01609 -0.698115,-0.278281 -0.315278,-0.262195 -0.342623,-0.764065 v -0.03217 -1.983353 q 0,-0.04826 0.01769,-0.08686 0.07721,-0.168898 0.255761,-0.13351 0.180159,0.03539 0.180159,0.220373 v 1.983353 q 0.02413,0.369969 0.324929,0.553345 0.302409,0.183376 0.635381,-0.01609 0.149596,-0.08847 0.218764,-0.228415 0.07078,-0.139945 0.08364,-0.308844 v -1.983353 q 0,-0.02895 0.0032,-0.04343 0.037,-0.197852 0.242893,-0.17855 0.205895,0.0193 0.205895,0.221982 z"
         style="text-align:center;text-anchor:middle;stroke-width:0.264583"
         id="path3638" />
      <path
         d="m 58.179725,16.859757 h 0.03056 q 0.205896,0.01448 0.37962,0.0933 0.332972,0.15603 0.471308,0.51313 0.138336,0.3571 -0.0032,0.696506 -0.114208,0.26863 -0.337798,0.421443 -0.223589,0.151205 -0.509913,0.168899 l -0.03056,0.0016 h -0.781759 v 1.17264 q -0.02895,0.226807 -0.228416,0.226807 -0.199461,0 -0.226807,-0.226807 v -2.842324 q 0.02413,-0.199462 0.21233,-0.225199 h 0.01448 z m 0,0.453614 h -0.781759 v 0.986047 h 0.781759 q 0.183376,0 0.323321,-0.122251 0.141553,-0.12225 0.165682,-0.305626 0.02895,-0.221981 -0.119034,-0.389271 -0.147987,-0.168899 -0.369969,-0.168899 z"
         style="text-align:center;text-anchor:middle;stroke-width:0.264583"
         id="path3640" />
    </g>
    <g
       aria-label="OFF"
       id="text973"
       style="font-size:3.29433px;line-height:1.25;font-family:'MS 33558';-inkscape-font-specification:'MS 33558, Normal';stroke-width:0.264583">
      <path
         d="m 50.130881,37.476274 q 0.147988,0.445571 0.110991,0.924921 -0.03539,0.479351 -0.262195,0.875057 -0.143162,0.246109 -0.39088,0.418225 -0.247719,0.172116 -0.546911,0.120642 -0.487393,-0.08525 -0.746371,-0.508305 -0.258978,-0.423051 -0.297584,-0.941007 -0.037,-0.519565 0.139945,-1.011784 0.17855,-0.492219 0.567821,-0.715809 0.18981,-0.109382 0.397315,-0.109382 0.395705,0 0.646641,0.299192 0.250935,0.297584 0.381228,0.64825 z M 49.11588,36.985663 q -0.295975,0 -0.448788,0.318495 -0.151205,0.318495 -0.191419,0.543693 -0.03056,0.164073 -0.02252,0.397314 0.008,0.233241 0.06756,0.461657 0.05952,0.226807 0.17855,0.410182 0.119034,0.181768 0.312061,0.241284 0.225198,0.07078 0.387663,-0.08847 0.164073,-0.160856 0.247718,-0.341015 0.08525,-0.184984 0.115816,-0.485785 0.03217,-0.300801 -0.01448,-0.599993 -0.04504,-0.3008 -0.17855,-0.540476 -0.133511,-0.241284 -0.37962,-0.307235 -0.03217,-0.0097 -0.07399,-0.0097 z"
         style="stroke-width:0.264583"
         id="path3609" />
      <path
         d="m 50.674574,39.594747 v -2.837499 q 0.02895,-0.21233 0.228416,-0.228416 h 1.557085 q 0.22359,0.01769 0.22359,0.228416 0,0.209112 -0.226807,0.223589 H 51.12658 v 0.879882 h 1.03752 q 0.221982,0.01609 0.225199,0.217156 0.0032,0.20107 -0.225199,0.23485 h -1.03752 v 1.282022 q -0.01609,0.221981 -0.218764,0.225198 -0.20107,0.0032 -0.233242,-0.225198 z"
         style="stroke-width:0.264583"
         id="path3611" />
      <path
         d="m 53.134062,39.594747 v -2.837499 q 0.02895,-0.21233 0.228415,-0.228416 h 1.557086 q 0.22359,0.01769 0.22359,0.228416 0,0.209112 -0.226807,0.223589 h -1.330279 v 0.879882 h 1.037521 q 0.221981,0.01609 0.225198,0.217156 0.0032,0.20107 -0.225198,0.23485 h -1.037521 v 1.282022 q -0.01609,0.221981 -0.218764,0.225198 -0.20107,0.0032 -0.233241,-0.225198 z"
         style="stroke-width:0.264583"
         id="path3613" />
    </g>
    <g
       aria-label="NORM"
       id="text977"
       style="font-size:3.29433px;line-height:1.25;font-family:'MS 33558';-inkscape-font-specification:'MS 33558, Normal';stroke-width:0.264583">
      <path
         d="m 101.33009,39.603607 q 0,0.168899 -0.16407,0.215547 -0.16246,0.04504 -0.25254,-0.09651 l -1.351193,-2.166729 v 2.047696 q -0.03539,0.225198 -0.228416,0.225198 -0.191418,0 -0.225198,-0.225198 v -2.840716 q 0.02413,-0.16729 0.170507,-0.220373 0.147988,-0.05308 0.24611,0.09973 l 1.35119,2.169947 v -2.049305 q 0.0306,-0.230024 0.23324,-0.226807 0.20429,0.0016 0.22037,0.226807 z"
         style="stroke-width:0.264583"
         id="path3600" />
      <path
         d="m 103.93113,37.4787 q 0.14799,0.445571 0.111,0.924922 -0.0354,0.47935 -0.2622,0.875056 -0.14316,0.24611 -0.39088,0.418225 -0.24772,0.172116 -0.54691,0.120642 -0.48739,-0.08525 -0.74637,-0.508304 -0.25898,-0.423052 -0.29759,-0.941008 -0.037,-0.519564 0.13995,-1.011784 0.17855,-0.492219 0.56782,-0.715809 0.18981,-0.109382 0.39732,-0.109382 0.3957,0 0.64664,0.299192 0.25093,0.297584 0.38122,0.64825 z m -1.015,-0.490611 q -0.29597,0 -0.44878,0.318495 -0.15121,0.318495 -0.19142,0.543693 -0.0306,0.164073 -0.0225,0.397314 0.008,0.233241 0.0676,0.461657 0.0595,0.226807 0.17855,0.410183 0.11903,0.181767 0.31206,0.241284 0.2252,0.07078 0.38766,-0.08847 0.16407,-0.160856 0.24772,-0.341015 0.0853,-0.184984 0.11581,-0.485785 0.0322,-0.3008 -0.0145,-0.599993 -0.045,-0.3008 -0.17855,-0.540476 -0.13351,-0.241283 -0.37962,-0.307234 -0.0322,-0.0097 -0.074,-0.0097 z"
         style="stroke-width:0.264583"
         id="path3602" />
      <path
         d="m 106.50644,39.476531 q 0.10295,0.181767 -0.0579,0.305626 -0.0772,0.05469 -0.17855,0.037 -0.0997,-0.01769 -0.14638,-0.09973 l -0.79302,-1.253068 h -0.40214 v 1.132426 q 0,0.139945 -0.12707,0.202679 -0.12708,0.06113 -0.23807,-0.02413 -0.0885,-0.06595 -0.0885,-0.17855 v -2.842324 q 0,-0.0933 0.0643,-0.159248 0.066,-0.06595 0.16086,-0.06595 h 0.99891 q 0.36032,0 0.62573,0.230024 0.26541,0.228416 0.32976,0.58069 0.0676,0.378012 -0.16086,0.707767 -0.22681,0.328146 -0.60321,0.398922 l -0.0306,0.0048 z m -0.8075,-1.462181 q 0.16407,0 0.30241,-0.09973 0.13995,-0.09973 0.1882,-0.260587 0.0756,-0.247718 -0.0692,-0.44718 -0.14477,-0.20107 -0.39892,-0.221981 h -0.79302 v 1.029478 z"
         style="stroke-width:0.264583"
         id="path3604" />
      <path
         d="m 109.49514,39.60039 q -0.0354,0.225198 -0.22841,0.225198 -0.19142,-0.0016 -0.2252,-0.225198 v -2.009091 l -0.55174,0.944224 q -0.0885,0.106165 -0.19785,0.110991 -0.10777,0.0048 -0.19303,-0.110991 l -0.54852,-0.939398 0.002,2.004265 q -0.0257,0.22359 -0.23324,0.22359 -0.20589,-0.0016 -0.22198,-0.22359 v -2.840716 q 0.0129,-0.184985 0.16246,-0.220373 0.1496,-0.037 0.26059,0.101339 l 0.77372,1.330279 0.78176,-1.330279 q 0.11099,-0.138336 0.25737,-0.101339 0.14799,0.037 0.16246,0.220373 z"
         style="stroke-width:0.264583"
         id="path3606" />
    </g>
    <g
       aria-label="AUTO"
       id="text981"
       style="font-size:3.29433px;line-height:1.25;font-family:'MS 33558';-inkscape-font-specification:'MS 33558, Normal';stroke-width:0.264583">
      <path
         d="m 36.671403,113.46947 -0.489002,-1.35119 -0.49222,1.35119 z m -0.489002,-1.35119 0.489002,1.35119 z m -1.241808,2.09756 q 0.257369,-0.70938 0.514739,-1.41714 0.258978,-0.70938 0.517956,-1.41875 0.05308,-0.14638 0.210721,-0.14799 0.157639,-0.002 0.21233,0.14799 l 1.031087,2.84393 q 0.04826,0.22681 -0.138336,0.29276 -0.186593,0.066 -0.287933,-0.13512 l -0.165681,-0.46005 H 35.5245 l -0.160856,0.44879 q -0.102948,0.20268 -0.292758,0.13351 -0.18981,-0.0708 -0.130293,-0.28793 z"
         style="stroke-width:0.264583"
         id="path3591" />
      <path
         d="m 39.91265,113.44051 v 0.0322 q -0.0048,0.0804 -0.0064,0.0965 -0.06756,0.49222 -0.403749,0.72707 -0.336189,0.23324 -0.717417,0.21876 -0.381229,-0.0161 -0.698115,-0.27828 -0.315278,-0.2622 -0.342623,-0.76407 v -0.0322 -1.98335 q 0,-0.0483 0.01769,-0.0869 0.07721,-0.1689 0.255761,-0.13351 0.180159,0.0354 0.180159,0.22037 v 1.98335 q 0.02413,0.36997 0.324929,0.55335 0.302409,0.18337 0.635381,-0.0161 0.149596,-0.0885 0.218764,-0.22841 0.07078,-0.13995 0.08364,-0.30885 v -1.98335 q 0,-0.0289 0.0032,-0.0434 0.037,-0.19785 0.242892,-0.17855 0.205896,0.0193 0.205896,0.22198 z"
         style="stroke-width:0.264583"
         id="path3593" />
      <path
         d="m 41.120678,114.30109 v -2.61552 h -0.590341 q -0.225198,-0.0177 -0.225198,-0.22519 0.0016,-0.20912 0.225198,-0.22842 h 1.632688 q 0.221981,0.0177 0.221981,0.22842 0.0016,0.20911 -0.221981,0.22519 h -0.588733 v 2.61552 q -0.037,0.22842 -0.238067,0.2252 -0.199461,-0.003 -0.215547,-0.2252 z"
         style="stroke-width:0.264583"
         id="path3595" />
      <path
         d="m 45.00535,112.1794 q 0.147987,0.44557 0.11099,0.92492 -0.03539,0.47936 -0.262195,0.87506 -0.143162,0.24611 -0.39088,0.41823 -0.247718,0.17211 -0.54691,0.12064 -0.487394,-0.0853 -0.746372,-0.50831 -0.258978,-0.42305 -0.297583,-0.941 -0.037,-0.51957 0.139944,-1.01179 0.17855,-0.49222 0.567822,-0.71581 0.18981,-0.10938 0.397314,-0.10938 0.395706,0 0.646641,0.29919 0.250935,0.29759 0.381229,0.64825 z m -1.015002,-0.49061 q -0.295974,0 -0.448788,0.3185 -0.151204,0.31849 -0.191418,0.54369 -0.03056,0.16407 -0.02252,0.39731 0.008,0.23325 0.06756,0.46166 0.05952,0.22681 0.178551,0.41018 0.119033,0.18177 0.31206,0.24129 0.225198,0.0708 0.387663,-0.0885 0.164073,-0.16086 0.247718,-0.34102 0.08525,-0.18498 0.115816,-0.48578 0.03217,-0.3008 -0.01448,-0.6 -0.04504,-0.3008 -0.17855,-0.54047 -0.13351,-0.24129 -0.37962,-0.30724 -0.03217,-0.01 -0.07399,-0.01 z"
         style="stroke-width:0.264583"
         id="path3597" />
    </g>
    <g
       aria-label="OFF"
       id="text985"
       style="font-size:3.29433px;line-height:1.25;font-family:'MS 33558';-inkscape-font-specification:'MS 33558, Normal';stroke-width:0.264583">
      <path
         d="m 80.986598,112.1781 q 0.147987,0.44557 0.110991,0.92492 -0.03539,0.47935 -0.262196,0.87506 -0.143161,0.24611 -0.39088,0.41822 -0.247718,0.17212 -0.54691,0.12064 -0.487393,-0.0853 -0.746372,-0.5083 -0.258978,-0.42305 -0.297583,-0.94101 -0.037,-0.51956 0.139945,-1.01178 0.17855,-0.49222 0.567821,-0.71581 0.18981,-0.10938 0.397314,-0.10938 0.395706,0 0.646641,0.29919 0.250936,0.29758 0.381229,0.64825 z m -1.015001,-0.49061 q -0.295975,0 -0.448788,0.31849 -0.151205,0.3185 -0.191419,0.5437 -0.03056,0.16407 -0.02252,0.39731 0.008,0.23324 0.06756,0.46166 0.05952,0.2268 0.17855,0.41018 0.119033,0.18177 0.31206,0.24128 0.225199,0.0708 0.387663,-0.0885 0.164073,-0.16085 0.247718,-0.34101 0.08525,-0.18499 0.115817,-0.48579 0.03217,-0.3008 -0.01448,-0.59999 -0.04504,-0.3008 -0.17855,-0.54048 -0.133511,-0.24128 -0.37962,-0.30723 -0.03217,-0.01 -0.07399,-0.01 z"
         style="stroke-width:0.264583"
         id="path3584" />
      <path
         d="m 81.530291,114.29657 v -2.8375 q 0.02895,-0.21233 0.228416,-0.22841 h 1.557085 q 0.22359,0.0177 0.22359,0.22841 0,0.20911 -0.226807,0.22359 h -1.330279 v 0.87988 h 1.037521 q 0.221981,0.0161 0.225199,0.21716 0.0032,0.20107 -0.225199,0.23485 h -1.037521 v 1.28202 q -0.01609,0.22198 -0.218764,0.2252 -0.20107,0.003 -0.233241,-0.2252 z"
         style="stroke-width:0.264583"
         id="path3586" />
      <path
         d="m 83.989779,114.29657 v -2.8375 q 0.02895,-0.21233 0.228415,-0.22841 h 1.557086 q 0.223589,0.0177 0.223589,0.22841 0,0.20911 -0.226807,0.22359 h -1.330278 v 0.87988 h 1.037521 q 0.221981,0.0161 0.225198,0.21716 0.0032,0.20107 -0.225198,0.23485 h -1.037521 v 1.28202 q -0.01609,0.22198 -0.218764,0.2252 -0.20107,0.003 -0.233241,-0.2252 z"
         style="stroke-width:0.264583"
         id="path3588" />
    </g>
    <g
       aria-label="OFF"
       id="text989"
       style="font-size:3.29433px;line-height:1.25;font-family:'MS 33558';-inkscape-font-specification:'MS 33558, Normal';stroke-width:0.264583">
      <path
         d="m 123.07884,112.1781 q 0.14799,0.44557 0.111,0.92492 -0.0354,0.47935 -0.2622,0.87506 -0.14316,0.24611 -0.39088,0.41822 -0.24772,0.17212 -0.54691,0.12064 -0.48739,-0.0853 -0.74637,-0.5083 -0.25898,-0.42305 -0.29759,-0.94101 -0.037,-0.51956 0.13995,-1.01178 0.17855,-0.49222 0.56782,-0.71581 0.18981,-0.10938 0.39732,-0.10938 0.3957,0 0.64664,0.29919 0.25093,0.29758 0.38122,0.64825 z m -1.015,-0.49061 q -0.29597,0 -0.44878,0.31849 -0.15121,0.3185 -0.19142,0.5437 -0.0306,0.16407 -0.0225,0.39731 0.008,0.23324 0.0676,0.46166 0.0595,0.2268 0.17855,0.41018 0.11903,0.18177 0.31206,0.24128 0.2252,0.0708 0.38766,-0.0885 0.16407,-0.16085 0.24772,-0.34101 0.0853,-0.18499 0.11581,-0.48579 0.0322,-0.3008 -0.0145,-0.59999 -0.045,-0.3008 -0.17855,-0.54048 -0.13351,-0.24128 -0.37962,-0.30723 -0.0322,-0.01 -0.074,-0.01 z"
         style="stroke-width:0.264583"
         id="path3577" />
      <path
         d="m 123.62254,114.29657 v -2.8375 q 0.0289,-0.21233 0.22841,-0.22841 h 1.55709 q 0.22359,0.0177 0.22359,0.22841 0,0.20911 -0.22681,0.22359 h -1.33028 v 0.87988 h 1.03752 q 0.22199,0.0161 0.2252,0.21716 0.003,0.20107 -0.2252,0.23485 h -1.03752 v 1.28202 q -0.0161,0.22198 -0.21876,0.2252 -0.20107,0.003 -0.23324,-0.2252 z"
         style="stroke-width:0.264583"
         id="path3579" />
      <path
         d="m 126.08203,114.29657 v -2.8375 q 0.0289,-0.21233 0.22841,-0.22841 h 1.55709 q 0.22359,0.0177 0.22359,0.22841 0,0.20911 -0.22681,0.22359 h -1.33028 v 0.87988 h 1.03752 q 0.22198,0.0161 0.2252,0.21716 0.003,0.20107 -0.2252,0.23485 h -1.03752 v 1.28202 q -0.0161,0.22198 -0.21876,0.2252 -0.20107,0.003 -0.23324,-0.2252 z"
         style="stroke-width:0.264583"
         id="path3581" />
    </g>
    <g
       aria-label="BIT"
       id="text993"
       style="font-size:3.29433px;line-height:1.25;font-family:'MS 33558';-inkscape-font-specification:'MS 33558, Normal';stroke-width:0.264583">
      <path
         d="m 122.98556,91.970914 q 0.30563,0.02574 0.51313,0.184984 0.20912,0.159247 0.28954,0.384446 0.0804,0.223589 0.0209,0.477742 -0.0579,0.252544 -0.28311,0.464874 0.24772,0.260586 0.30884,0.562995 0.0611,0.30241 -0.0386,0.566213 -0.0981,0.262196 -0.34263,0.445571 -0.2445,0.183376 -0.60642,0.207505 h -0.005 -0.85575 q -0.19786,-0.02735 -0.22842,-0.22359 v -2.842325 q 0.0273,-0.199461 0.22842,-0.228415 z m -0.14316,2.839107 q 0.27346,-0.01126 0.41662,-0.176941 0.14316,-0.165682 0.14799,-0.366752 0.006,-0.202678 -0.12869,-0.37962 -0.13512,-0.176942 -0.41662,-0.213938 h -0.64825 v 1.137251 z m 0.14316,-2.382276 h -0.77211 v 0.793019 h 0.77694 q 0.19946,-0.02091 0.29597,-0.143161 0.0981,-0.123859 0.0949,-0.263804 -0.002,-0.141553 -0.10134,-0.25737 -0.0997,-0.117425 -0.29437,-0.128684 z"
         style="stroke-width:0.264583"
         id="path3570" />
      <path
         d="m 124.73568,95.043262 q -0.0354,0.226807 -0.23003,0.225199 -0.19303,0 -0.22681,-0.225199 v -2.843933 q 0.0338,-0.226807 0.22681,-0.226807 0.19464,-0.0016 0.23003,0.226807 z"
         style="stroke-width:0.264583"
         id="path3572" />
      <path
         d="m 126.00805,95.040045 v -2.615518 h -0.59035 q -0.22519,-0.01769 -0.22519,-0.225198 0.002,-0.209113 0.22519,-0.228415 h 1.63269 q 0.22198,0.01769 0.22198,0.228415 0.002,0.209113 -0.22198,0.225198 h -0.58873 v 2.615518 q -0.037,0.228416 -0.23807,0.225199 -0.19946,-0.0032 -0.21554,-0.225199 z"
         style="stroke-width:0.264583"
         id="path3574" />
    </g>
    <g
       aria-label="FLCS
RESET"
       id="text997"
       style="font-size:3.29433px;line-height:1.25;font-family:'MS 33558';-inkscape-font-specification:'MS 33558, Normal';text-align:center;text-anchor:middle;stroke-width:0.264583">
      <path
         d="m 77.582097,90.920747 v -2.837499 q 0.02895,-0.21233 0.228415,-0.228416 h 1.557086 q 0.223589,0.0177 0.223589,0.228416 0,0.209113 -0.226806,0.22359 h -1.330279 v 0.879882 h 1.037521 q 0.221981,0.01609 0.225198,0.217155 0.0032,0.20107 -0.225198,0.23485 h -1.037521 v 1.282022 q -0.01609,0.221981 -0.218764,0.225198 -0.20107,0.0032 -0.233241,-0.225198 z"
         style="text-align:center;text-anchor:middle;stroke-width:0.264583"
         id="path3551" />
      <path
         d="m 80.269999,91.150771 q -0.197852,-0.01287 -0.228415,-0.22359 v -2.843933 q 0.03378,-0.231633 0.23485,-0.226807 0.20107,0.0032 0.218764,0.226807 v 2.618735 l 1.4847,-0.0016 q 0.228416,0.02574 0.225199,0.231633 -0.0016,0.204287 -0.226807,0.218764 z"
         style="text-align:center;text-anchor:middle;stroke-width:0.264583"
         id="path3553" />
      <path
         d="m 84.735361,90.634423 -0.01448,0.02091 q -0.0048,0.0064 -0.008,0.01126 -0.0032,0.0048 -0.0064,0.0097 -0.220373,0.297583 -0.579082,0.42466 -0.3571,0.125467 -0.704549,-0.04665 -0.403748,-0.20107 -0.593558,-0.682029 -0.188202,-0.480959 -0.162465,-0.998915 0.02735,-0.519565 0.273455,-0.953876 0.247718,-0.434311 0.717418,-0.543693 0.270238,-0.06273 0.538867,0.05308 0.26863,0.114208 0.440746,0.321712 0.0016,0 0.008,0.01126 0.07399,0.09651 0.03056,0.21233 -0.04343,0.114208 -0.159247,0.143162 -0.123859,0.03217 -0.228416,-0.07399 -0.215547,-0.250935 -0.415008,-0.241284 -0.199462,0.0097 -0.3571,0.164073 -0.157639,0.154422 -0.262196,0.395706 -0.104556,0.241284 -0.128684,0.452005 -0.02895,0.23485 0.0048,0.472916 0.03539,0.236459 0.146379,0.445571 0.193027,0.366752 0.485785,0.460048 0.294367,0.09169 0.574256,-0.281498 0.01287,-0.01608 0.03056,-0.04182 0.151204,-0.16729 0.318494,-0.03378 0.168899,0.131902 0.04987,0.299192 z"
         style="text-align:center;text-anchor:middle;stroke-width:0.264583"
         id="path3555" />
      <path
         d="m 86.80236,89.395832 0.02574,0.01126 0.02895,0.01448 0.02574,0.01448 q 0.01126,0.008 0.02413,0.01609 0.01448,0.0064 0.02735,0.01448 0.318494,0.209113 0.394097,0.579081 0.02895,0.144771 0.01287,0.297584 -0.02574,0.218764 -0.154422,0.405357 -0.127076,0.184984 -0.320103,0.286324 -0.207504,0.109382 -0.429485,0.109382 -0.373186,0 -0.712592,-0.0949 -0.339406,-0.09651 -0.484177,-0.513131 -0.0193,-0.05308 -0.02895,-0.109382 -0.0097,-0.0563 -0.02252,-0.112599 -0.02413,-0.115816 0.0563,-0.204287 0.08204,-0.08847 0.202679,-0.06756 0.127076,0.02574 0.176941,0.157639 l 0.0048,0.01448 q 0.07721,0.349058 0.268629,0.416617 0.193027,0.06756 0.535651,0.06112 0.315277,0 0.432702,-0.295975 0.05147,-0.131901 0.01609,-0.273455 -0.03539,-0.143161 -0.139945,-0.238066 -0.04665,-0.04021 -0.122251,-0.0756 l -0.744763,-0.326537 -0.02413,-0.01287 q -0.365143,-0.193027 -0.453614,-0.548519 -0.107773,-0.411791 0.149596,-0.738328 0.258978,-0.328147 0.678812,-0.328147 l 0.176942,0.0048 q 0.08686,0.01609 0.16729,0.03217 0.08043,0.01448 0.162465,0.05147 0.202678,0.0949 0.310452,0.260587 0.107773,0.165681 0.194635,0.358709 0.008,0.01769 0.01448,0.04182 0.01769,0.07882 -0.01609,0.143162 -0.0193,0.04021 -0.04021,0.06112 -0.02091,0.02091 -0.03378,0.02895 -0.08365,0.05952 -0.183376,0.03539 -0.09973,-0.02252 -0.152813,-0.128685 -0.04182,-0.0933 -0.09008,-0.18981 -0.04665,-0.09812 -0.131902,-0.162465 -0.03539,-0.02574 -0.06917,-0.037 -0.03217,-0.01287 -0.07238,-0.02734 l -0.104557,-0.01769 -0.147987,-0.0048 q -0.215547,0.0032 -0.329755,0.186593 -0.07721,0.117425 -0.05791,0.262195 0.02252,0.17855 0.16729,0.276672 0.0064,0.0048 0.01448,0.01126 0.008,0.0048 0.01769,0.0097 l 0.01769,0.008 0.0193,0.008 z"
         style="text-align:center;text-anchor:middle;stroke-width:0.264583"
         id="path3557" />
      <path
         d="m 78.363856,94.918017 q 0.102948,0.181767 -0.05791,0.305627 -0.07721,0.05469 -0.17855,0.037 -0.09973,-0.01769 -0.146379,-0.09973 l -0.79302,-1.253068 H 76.78586 v 1.132426 q 0,0.139944 -0.127077,0.202678 -0.127076,0.06113 -0.238066,-0.02413 -0.08847,-0.06595 -0.08847,-0.17855 v -2.842325 q 0,-0.0933 0.06434,-0.159247 0.06595,-0.06595 0.160856,-0.06595 h 0.998916 q 0.360317,0 0.625729,0.230024 0.265413,0.228415 0.329755,0.58069 0.06756,0.378011 -0.160856,0.707766 -0.226807,0.328146 -0.60321,0.398923 l -0.03056,0.0048 z m -0.807496,-1.46218 q 0.164073,0 0.302409,-0.09973 0.139944,-0.09973 0.188201,-0.260587 0.0756,-0.247718 -0.06917,-0.447179 -0.14477,-0.20107 -0.398923,-0.221981 H 76.78586 v 1.029478 z"
         style="text-align:center;text-anchor:middle;stroke-width:0.264583"
         id="path3559" />
      <path
         d="m 80.739699,92.421533 h -1.333496 v 0.879882 h 1.01661 q 0.228415,0.03378 0.226807,0.230024 0,0.194636 -0.226807,0.226807 h -1.01661 v 1.056823 h 1.333496 q 0.226807,0.03378 0.226807,0.226807 0,0.193027 -0.226807,0.225199 h -1.557086 q -0.20107,-0.02574 -0.228415,-0.228416 v -2.840716 q 0.03056,-0.21233 0.228415,-0.225198 h 1.557086 q 0.226807,0.01769 0.225198,0.226807 0,0.207504 -0.225198,0.221981 z"
         style="text-align:center;text-anchor:middle;stroke-width:0.264583"
         id="path3561" />
      <path
         d="m 83.031896,93.513745 0.02574,0.01126 0.02895,0.01448 0.02574,0.01448 q 0.01126,0.008 0.02413,0.01608 0.01448,0.0064 0.02734,0.01448 0.318495,0.209113 0.394097,0.579082 0.02895,0.14477 0.01287,0.297583 -0.02574,0.218764 -0.154422,0.405357 -0.127076,0.184985 -0.320103,0.286324 -0.207505,0.109382 -0.429486,0.109382 -0.373186,0 -0.712592,-0.0949 -0.339406,-0.09651 -0.484176,-0.513131 -0.0193,-0.05308 -0.02895,-0.109382 -0.0097,-0.0563 -0.02252,-0.112599 -0.02413,-0.115816 0.0563,-0.204287 0.08204,-0.08847 0.202678,-0.06756 0.127076,0.02574 0.176942,0.157639 l 0.0048,0.01448 q 0.07721,0.349057 0.26863,0.416616 0.193027,0.06756 0.53565,0.06113 0.315278,0 0.432703,-0.295975 0.05147,-0.131902 0.01609,-0.273455 -0.03539,-0.143162 -0.139945,-0.238067 -0.04665,-0.04021 -0.12225,-0.0756 l -0.744763,-0.326538 -0.02413,-0.01287 q -0.365143,-0.193028 -0.453614,-0.548519 -0.107774,-0.411792 0.149596,-0.738329 0.258978,-0.328146 0.678812,-0.328146 l 0.176941,0.0048 q 0.08686,0.01609 0.167291,0.03217 0.08043,0.01448 0.162464,0.05147 0.202679,0.0949 0.310452,0.260586 0.107774,0.165682 0.194636,0.358709 0.008,0.01769 0.01448,0.04182 0.01769,0.07882 -0.01609,0.143162 -0.0193,0.04021 -0.04021,0.06113 -0.02091,0.02091 -0.03378,0.02895 -0.08365,0.05952 -0.183376,0.03539 -0.09973,-0.02252 -0.152813,-0.128685 -0.04182,-0.0933 -0.09008,-0.18981 -0.04665,-0.09812 -0.131902,-0.162464 -0.03539,-0.02574 -0.06917,-0.037 -0.03217,-0.01287 -0.07238,-0.02735 l -0.104556,-0.01769 -0.147988,-0.0048 q -0.215547,0.0032 -0.329754,0.186593 -0.07721,0.117425 -0.05791,0.262196 0.02252,0.17855 0.167291,0.276672 0.0064,0.0048 0.01448,0.01126 0.008,0.0048 0.01769,0.0097 l 0.01769,0.008 0.0193,0.008 z"
         style="text-align:center;text-anchor:middle;stroke-width:0.264583"
         id="path3563" />
      <path
         d="m 85.760013,92.421533 h -1.333496 v 0.879882 h 1.01661 q 0.228415,0.03378 0.226807,0.230024 0,0.194636 -0.226807,0.226807 h -1.01661 v 1.056823 h 1.333496 q 0.226807,0.03378 0.226807,0.226807 0,0.193027 -0.226807,0.225199 h -1.557085 q -0.20107,-0.02574 -0.228416,-0.228416 v -2.840716 q 0.03056,-0.21233 0.228416,-0.225198 h 1.557085 q 0.226807,0.01769 0.225198,0.226807 0,0.207504 -0.225198,0.221981 z"
         style="text-align:center;text-anchor:middle;stroke-width:0.264583"
         id="path3565" />
      <path
         d="m 87.249539,95.041876 v -2.615517 h -0.590342 q -0.225198,-0.0177 -0.225198,-0.225199 0.0016,-0.209113 0.225198,-0.228415 h 1.632688 q 0.221982,0.01769 0.221982,0.228415 0.0016,0.209113 -0.221982,0.225199 h -0.588732 v 2.615517 q -0.037,0.228416 -0.238067,0.225199 -0.199462,-0.0032 -0.215547,-0.225199 z"
         style="text-align:center;text-anchor:middle;stroke-width:0.264583"
         id="path3567" />
    </g>
    <g
       aria-label="LE FLAPS
LOCK"
       id="text1003"
       style="font-size:3.29433px;line-height:1.25;font-family:'MS 33558';-inkscape-font-specification:'MS 33558, Normal';text-align:center;text-anchor:middle;stroke-width:0.264583">
      <path
         d="m 30.71454,91.140525 q -0.197853,-0.01287 -0.228415,-0.22359 v -2.843933 q 0.03378,-0.231633 0.23485,-0.226807 0.201069,0.0032 0.218764,0.226807 v 2.618734 l 1.4847,-0.0016 q 0.228416,0.02574 0.225198,0.231632 -0.0016,0.204288 -0.226806,0.218765 z"
         style="stroke-width:0.264583"
         id="path3528" />
      <path
         d="m 34.893578,88.293374 h -1.333496 v 0.879882 h 1.01661 q 0.228415,0.03378 0.226807,0.230024 0,0.194636 -0.226807,0.226807 h -1.01661 v 1.056824 h 1.333496 q 0.226807,0.03378 0.226807,0.226807 0,0.193027 -0.226807,0.225198 h -1.557086 q -0.20107,-0.02574 -0.228415,-0.228415 v -2.840717 q 0.03056,-0.212329 0.228415,-0.225198 h 1.557086 q 0.226807,0.01769 0.225198,0.226807 0,0.207504 -0.225198,0.221981 z"
         style="stroke-width:0.264583"
         id="path3530" />
      <path
         d="m 36.861894,90.910501 v -2.837499 q 0.02896,-0.21233 0.228416,-0.228416 h 1.557086 q 0.223589,0.01769 0.223589,0.228416 0,0.209112 -0.226807,0.223589 H 37.3139 v 0.879882 h 1.037521 q 0.221981,0.01609 0.225198,0.217156 0.0032,0.20107 -0.225198,0.23485 H 37.3139 v 1.282022 q -0.01609,0.221981 -0.218764,0.225198 -0.20107,0.0032 -0.233242,-0.225198 z"
         style="stroke-width:0.264583"
         id="path3532" />
      <path
         d="m 39.549797,91.140525 q -0.197853,-0.01287 -0.228416,-0.22359 v -2.843933 q 0.03378,-0.231633 0.23485,-0.226807 0.20107,0.0032 0.218764,0.226807 v 2.618734 l 1.484701,-0.0016 q 0.228415,0.02574 0.225198,0.231632 -0.0016,0.204288 -0.226807,0.218765 z"
         style="stroke-width:0.264583"
         id="path3534" />
      <path
         d="m 43.685403,90.082092 -0.489002,-1.35119 -0.492219,1.35119 z m -0.489002,-1.35119 0.489002,1.35119 z m -1.241808,2.097562 q 0.25737,-0.709375 0.514739,-1.417141 0.258979,-0.709375 0.517957,-1.418749 0.05308,-0.146379 0.210721,-0.147988 0.157639,-0.0016 0.21233,0.147988 l 1.031086,2.843933 q 0.04826,0.226807 -0.138336,0.292758 -0.186593,0.06595 -0.287932,-0.135119 l -0.165681,-0.460048 h -1.310976 l -0.160856,0.448788 q -0.102948,0.202678 -0.292758,0.13351 -0.18981,-0.07078 -0.130294,-0.287932 z"
         style="stroke-width:0.264583"
         id="path3536" />
      <path
         d="m 45.995295,87.844586 h 0.03056 q 0.205896,0.01448 0.37962,0.0933 0.332972,0.15603 0.471308,0.51313 0.138336,0.3571 -0.0032,0.696506 -0.114208,0.26863 -0.337798,0.421443 -0.223589,0.151205 -0.509913,0.168899 l -0.03056,0.0016 h -0.78176 v 1.17264 q -0.02895,0.226807 -0.228415,0.226807 -0.199461,0 -0.226807,-0.226807 v -2.842325 q 0.02413,-0.199461 0.21233,-0.225198 h 0.01448 z m 0,0.453614 h -0.78176 v 0.986047 h 0.78176 q 0.183376,0 0.323321,-0.122251 0.141553,-0.12225 0.165681,-0.305626 0.02895,-0.221981 -0.119033,-0.389271 Q 46.217277,88.2982 45.995295,88.2982 Z"
         style="stroke-width:0.264583"
         id="path3538" />
      <path
         d="m 49.019386,89.385586 0.02574,0.01126 0.02895,0.01448 0.02574,0.01448 q 0.01126,0.008 0.02413,0.01609 0.01448,0.0064 0.02735,0.01448 0.318495,0.209113 0.394097,0.579081 0.02895,0.144771 0.01287,0.297584 -0.02574,0.218764 -0.154422,0.405357 -0.127076,0.184984 -0.320103,0.286323 -0.207505,0.109382 -0.429486,0.109382 -0.373186,0 -0.712592,-0.0949 -0.339406,-0.09651 -0.484176,-0.51313 -0.0193,-0.05308 -0.02895,-0.109382 -0.0097,-0.0563 -0.02252,-0.112599 -0.02413,-0.115817 0.0563,-0.204287 0.08204,-0.08847 0.202678,-0.06756 0.127076,0.02574 0.176942,0.157639 l 0.0048,0.01448 q 0.07721,0.349057 0.26863,0.416617 0.193027,0.06756 0.53565,0.06113 0.315278,0 0.432703,-0.295975 0.05147,-0.131902 0.01609,-0.273455 -0.03539,-0.143162 -0.139944,-0.238067 -0.04665,-0.04021 -0.122251,-0.0756 l -0.744763,-0.326538 -0.02413,-0.01287 q -0.365143,-0.193027 -0.453614,-0.548519 -0.107774,-0.411791 0.149596,-0.738329 0.258978,-0.328146 0.678812,-0.328146 l 0.176941,0.0048 q 0.08686,0.01609 0.167291,0.03217 0.08043,0.01448 0.162464,0.05147 0.202679,0.0949 0.310452,0.260587 0.107774,0.165681 0.194636,0.358708 0.008,0.01769 0.01448,0.04182 0.01769,0.07882 -0.01609,0.143162 -0.0193,0.04021 -0.04021,0.06113 -0.02091,0.02091 -0.03378,0.02895 -0.08365,0.05952 -0.183376,0.03539 -0.09973,-0.02252 -0.152813,-0.128684 -0.04182,-0.0933 -0.09008,-0.18981 -0.04665,-0.09812 -0.131902,-0.162465 -0.03539,-0.02574 -0.06917,-0.037 -0.03217,-0.01287 -0.07238,-0.02734 l -0.104556,-0.0177 -0.147988,-0.0048 q -0.215547,0.0032 -0.329754,0.186593 -0.07721,0.117425 -0.05791,0.262195 0.02252,0.17855 0.167291,0.276672 0.0064,0.0048 0.01448,0.01126 0.008,0.0048 0.01769,0.0097 l 0.01769,0.008 0.0193,0.008 z"
         style="stroke-width:0.264583"
         id="path3540" />
      <path
         d="m 35.279352,95.258437 q -0.197853,-0.01287 -0.228416,-0.22359 v -2.843933 q 0.03378,-0.231633 0.23485,-0.226807 0.20107,0.0032 0.218764,0.226807 v 2.618735 l 1.484701,-0.0016 q 0.228415,0.02574 0.225198,0.231633 -0.0016,0.204287 -0.226807,0.218764 z"
         style="stroke-width:0.264583"
         id="path3542" />
      <path
         d="m 39.812273,92.90994 q 0.147987,0.445571 0.11099,0.924922 -0.03539,0.47935 -0.262195,0.875056 -0.143162,0.24611 -0.39088,0.418226 -0.247718,0.172115 -0.54691,0.120642 -0.487394,-0.08525 -0.746372,-0.508305 -0.258978,-0.423051 -0.297583,-0.941008 -0.037,-0.519564 0.139944,-1.011783 0.178551,-0.49222 0.567822,-0.715809 0.18981,-0.109383 0.397314,-0.109383 0.395706,0 0.646641,0.299193 0.250935,0.297583 0.381229,0.648249 z m -1.015001,-0.490611 q -0.295975,0 -0.448788,0.318495 -0.151205,0.318495 -0.191419,0.543693 -0.03056,0.164073 -0.02252,0.397314 0.008,0.233242 0.06756,0.461657 0.05952,0.226807 0.17855,0.410183 0.119033,0.181767 0.31206,0.241284 0.225199,0.07078 0.387663,-0.08847 0.164073,-0.160856 0.247718,-0.341015 0.08525,-0.184984 0.115817,-0.485785 0.03217,-0.3008 -0.01448,-0.599992 -0.04504,-0.300801 -0.178551,-0.540476 -0.13351,-0.241284 -0.37962,-0.307235 -0.03217,-0.0097 -0.07399,-0.0097 z"
         style="stroke-width:0.264583"
         id="path3544" />
      <path
         d="m 42.427791,94.742089 -0.01448,0.02091 q -0.0048,0.0064 -0.008,0.01126 -0.0032,0.0048 -0.0064,0.0097 -0.220372,0.297583 -0.579081,0.42466 -0.3571,0.125467 -0.704549,-0.04665 -0.403748,-0.20107 -0.593558,-0.682029 -0.188202,-0.480959 -0.162465,-0.998915 0.02735,-0.519565 0.273455,-0.953876 0.247718,-0.434311 0.717418,-0.543693 0.270238,-0.06273 0.538867,0.05308 0.26863,0.114208 0.440745,0.321712 0.0016,0 0.008,0.01126 0.07399,0.09651 0.03056,0.21233 -0.04343,0.114208 -0.159248,0.143162 -0.123859,0.03217 -0.228415,-0.07399 -0.215547,-0.250935 -0.415008,-0.241284 -0.199462,0.0097 -0.357101,0.164073 -0.157638,0.154422 -0.262195,0.395706 -0.104556,0.241284 -0.128685,0.452005 -0.02895,0.23485 0.0048,0.472916 0.03539,0.236459 0.146379,0.445571 0.193027,0.366752 0.485785,0.460048 0.294366,0.09169 0.574256,-0.281497 0.01287,-0.01609 0.03056,-0.04182 0.151205,-0.16729 0.318495,-0.03378 0.168899,0.131902 0.04987,0.299192 z"
         style="stroke-width:0.264583"
         id="path3546" />
      <path
         d="m 44.510875,92.023624 q 0.183376,-0.133511 0.324929,0.01609 0.141553,0.147988 -0.008,0.312061 l -0.744763,0.715809 0.944225,1.862712 q 0.06756,0.226807 -0.1126,0.31206 -0.180158,0.08525 -0.292757,-0.107773 l -0.881491,-1.738853 -0.410183,0.395706 v 1.243416 q -0.03539,0.226807 -0.236458,0.22359 -0.20107,-0.0016 -0.217155,-0.22359 v -2.843933 q 0.01609,-0.22359 0.217155,-0.226807 0.20107,-0.0048 0.236458,0.226807 v 0.969961 z"
         style="stroke-width:0.264583"
         id="path3548" />
    </g>
    <g
       aria-label="ALT FLAPS
EXTEND"
       id="text1009"
       style="font-size:3.29433px;line-height:1.25;font-family:'MS 33558';-inkscape-font-specification:'MS 33558, Normal';text-align:center;text-anchor:middle;stroke-width:0.264583">
      <path
         d="m 95.048352,14.985621 -0.489002,-1.35119 -0.492219,1.35119 z m -0.489002,-1.35119 0.489002,1.35119 z m -1.241808,2.097561 q 0.25737,-0.709375 0.514739,-1.417141 0.258978,-0.709374 0.517956,-1.418749 0.05308,-0.146379 0.210722,-0.147988 0.157638,-0.0016 0.212329,0.147988 l 1.031087,2.843933 q 0.04826,0.226807 -0.138336,0.292758 -0.186593,0.06595 -0.287932,-0.135119 l -0.165682,-0.460048 h -1.310976 l -0.160856,0.448788 q -0.102948,0.202678 -0.292758,0.13351 -0.18981,-0.07078 -0.130293,-0.287932 z"
         style="stroke-width:0.264583"
         id="path3499" />
      <path
         d="m 96.349677,16.044053 q -0.197853,-0.01287 -0.228416,-0.22359 V 12.97653 q 0.03378,-0.231633 0.23485,-0.226807 0.20107,0.0032 0.218764,0.226807 v 2.618735 l 1.4847,-0.0016 q 0.228416,0.02574 0.225199,0.231633 -0.0016,0.204287 -0.226807,0.218764 z"
         style="stroke-width:0.264583"
         id="path3501" />
      <path
         d="m 99.558753,15.817246 v -2.615518 h -0.590341 q -0.225199,-0.01769 -0.225199,-0.225198 0.0016,-0.209113 0.225199,-0.228416 h 1.632688 q 0.22198,0.0177 0.22198,0.228416 0.002,0.209113 -0.22198,0.225198 h -0.58873 v 2.615518 q -0.037,0.228415 -0.23807,0.225198 -0.199461,-0.0032 -0.215547,-0.225198 z"
         style="stroke-width:0.264583"
         id="path3503" />
      <path
         d="M 102.59837,15.814029 V 12.97653 q 0.0289,-0.21233 0.22842,-0.228416 h 1.55708 q 0.22359,0.0177 0.22359,0.228416 0,0.209113 -0.22681,0.22359 h -1.33028 v 0.879882 h 1.03753 q 0.22198,0.01609 0.22519,0.217155 0.003,0.20107 -0.22519,0.23485 h -1.03753 v 1.282022 q -0.0161,0.221981 -0.21876,0.225198 -0.20107,0.0032 -0.23324,-0.225198 z"
         style="stroke-width:0.264583"
         id="path3505" />
      <path
         d="m 105.28627,16.044053 q -0.19785,-0.01287 -0.22841,-0.22359 V 12.97653 q 0.0338,-0.231633 0.23485,-0.226807 0.20107,0.0032 0.21876,0.226807 v 2.618735 l 1.4847,-0.0016 q 0.22842,0.02574 0.2252,0.231633 -0.002,0.204287 -0.22681,0.218764 z"
         style="stroke-width:0.264583"
         id="path3507" />
      <path
         d="m 109.42188,14.985621 -0.489,-1.35119 -0.49222,1.35119 z m -0.489,-1.35119 0.489,1.35119 z m -1.24181,2.097561 q 0.25737,-0.709375 0.51474,-1.417141 0.25898,-0.709374 0.51795,-1.418749 0.0531,-0.146379 0.21073,-0.147988 0.15763,-0.0016 0.21233,0.147988 l 1.03108,2.843933 q 0.0483,0.226807 -0.13833,0.292758 -0.1866,0.06595 -0.28794,-0.135119 l -0.16568,-0.460048 h -1.31097 l -0.16086,0.448788 q -0.10295,0.202678 -0.29276,0.13351 -0.18981,-0.07078 -0.13029,-0.287932 z"
         style="stroke-width:0.264583"
         id="path3509" />
      <path
         d="m 111.73177,12.748114 h 0.0306 q 0.2059,0.01448 0.37962,0.0933 0.33298,0.15603 0.47131,0.51313 0.13834,0.3571 -0.003,0.696507 -0.1142,0.268629 -0.33779,0.421442 -0.22359,0.151205 -0.50992,0.168899 l -0.0306,0.0016 h -0.78176 v 1.17264 q -0.029,0.226807 -0.22841,0.226807 -0.19947,0 -0.22681,-0.226807 v -2.842324 q 0.0241,-0.199462 0.21233,-0.225199 h 0.0145 z m 0,0.453614 h -0.78176 v 0.986047 h 0.78176 q 0.18338,0 0.32332,-0.12225 0.14156,-0.122251 0.16568,-0.305627 0.029,-0.221981 -0.11903,-0.389271 -0.14799,-0.168899 -0.36997,-0.168899 z"
         style="stroke-width:0.264583"
         id="path3511" />
      <path
         d="m 114.75586,14.289114 0.0257,0.01126 0.029,0.01448 0.0257,0.01448 q 0.0113,0.008 0.0241,0.01609 0.0145,0.0064 0.0273,0.01448 0.3185,0.209113 0.3941,0.579081 0.029,0.144771 0.0129,0.297584 -0.0257,0.218764 -0.15442,0.405357 -0.12708,0.184984 -0.32011,0.286324 -0.2075,0.109382 -0.42948,0.109382 -0.37319,0 -0.71259,-0.0949 -0.33941,-0.09651 -0.48418,-0.513131 -0.0193,-0.05308 -0.0289,-0.109382 -0.01,-0.0563 -0.0225,-0.112599 -0.0241,-0.115816 0.0563,-0.204287 0.082,-0.08847 0.20268,-0.06756 0.12707,0.02574 0.17694,0.157639 l 0.005,0.01448 q 0.0772,0.349058 0.26863,0.416617 0.19303,0.06756 0.53565,0.06113 0.31528,0 0.4327,-0.295975 0.0515,-0.131902 0.0161,-0.273455 -0.0354,-0.143162 -0.13994,-0.238067 -0.0466,-0.04021 -0.12225,-0.0756 l -0.74477,-0.326537 -0.0241,-0.01287 q -0.36514,-0.193027 -0.45361,-0.548519 -0.10777,-0.411791 0.1496,-0.738329 0.25897,-0.328146 0.67881,-0.328146 l 0.17694,0.0048 q 0.0869,0.01609 0.16729,0.03217 0.0804,0.01448 0.16246,0.05147 0.20268,0.09491 0.31046,0.260587 0.10777,0.165681 0.19463,0.358709 0.008,0.01769 0.0145,0.04182 0.0177,0.07882 -0.0161,0.143162 -0.0193,0.04021 -0.0402,0.06113 -0.0209,0.02091 -0.0338,0.02895 -0.0837,0.05952 -0.18338,0.03539 -0.0997,-0.02252 -0.15281,-0.128685 -0.0418,-0.0933 -0.0901,-0.18981 -0.0466,-0.09812 -0.1319,-0.162465 -0.0354,-0.02574 -0.0692,-0.037 -0.0322,-0.01287 -0.0724,-0.02735 l -0.10456,-0.01769 -0.14799,-0.0048 q -0.21554,0.0032 -0.32975,0.186593 -0.0772,0.117425 -0.0579,0.262195 0.0225,0.17855 0.16729,0.276672 0.006,0.0048 0.0145,0.01126 0.008,0.0048 0.0177,0.0097 l 0.0177,0.008 0.0193,0.008 z"
         style="stroke-width:0.264583"
         id="path3513" />
      <path
         d="m 98.614248,17.314815 h -1.333496 v 0.879882 h 1.01661 q 0.228416,0.03378 0.226807,0.230024 0,0.194636 -0.226807,0.226807 h -1.01661 v 1.056823 h 1.333496 q 0.226807,0.03378 0.226807,0.226807 0,0.193027 -0.226807,0.225199 h -1.557085 q -0.20107,-0.02574 -0.228416,-0.228416 v -2.840716 q 0.03056,-0.21233 0.228416,-0.225198 h 1.557085 q 0.226807,0.01769 0.225199,0.226807 0,0.207504 -0.225199,0.221981 z"
         style="stroke-width:0.264583"
         id="path3515" />
      <path
         d="m 99.312363,19.822559 0.870227,-1.557086 -0.593555,-1.063257 q -0.08525,-0.210722 0.08847,-0.307235 0.173724,-0.09812 0.308843,0.08686 l 0.453611,0.818757 0.45683,-0.818757 q 0.13512,-0.184984 0.30724,-0.08847 0.17211,0.09651 0.0901,0.310452 l -0.59195,1.061649 0.86862,1.557086 q 0.0869,0.21233 -0.0901,0.310452 -0.17694,0.09651 -0.30402,-0.09169 l -0.73672,-1.312584 -0.728674,1.312584 q -0.139945,0.183376 -0.313669,0.08847 -0.172116,-0.09491 -0.08525,-0.307235 z"
         style="stroke-width:0.264583"
         id="path3517" />
      <path
         d="M 102.76755,19.935158 V 17.31964 h -0.59034 q -0.2252,-0.01769 -0.2252,-0.225198 0.002,-0.209113 0.2252,-0.228415 h 1.63269 q 0.22198,0.01769 0.22198,0.228415 0.002,0.209113 -0.22198,0.225198 h -0.58874 v 2.615518 q -0.037,0.228416 -0.23806,0.225199 -0.19947,-0.0032 -0.21555,-0.225199 z"
         style="stroke-width:0.264583"
         id="path3519" />
      <path
         d="m 106.29834,17.314815 h -1.3335 v 0.879882 h 1.01661 q 0.22842,0.03378 0.22681,0.230024 0,0.194636 -0.22681,0.226807 h -1.01661 v 1.056823 h 1.3335 q 0.2268,0.03378 0.2268,0.226807 0,0.193027 -0.2268,0.225199 h -1.55709 q -0.20107,-0.02574 -0.22841,-0.228416 v -2.840716 q 0.0306,-0.21233 0.22841,-0.225198 h 1.55709 q 0.2268,0.01769 0.2252,0.226807 0,0.207504 -0.2252,0.221981 z"
         style="stroke-width:0.264583"
         id="path3521" />
      <path
         d="m 109.19374,19.938375 q 0,0.168899 -0.16407,0.215547 -0.16246,0.04504 -0.25254,-0.09651 l -1.35119,-2.16673 v 2.047696 q -0.0354,0.225199 -0.22842,0.225199 -0.19142,0 -0.2252,-0.225199 v -2.840716 q 0.0241,-0.16729 0.17051,-0.220372 0.14799,-0.05308 0.24611,0.09973 l 1.35119,2.169947 v -2.049305 q 0.0306,-0.230024 0.23324,-0.226807 0.20429,0.0016 0.22037,0.226807 z"
         style="stroke-width:0.264583"
         id="path3523" />
      <path
         d="m 109.8806,16.866027 h 0.75763 q 0.5646,0 0.8461,0.514739 0.2815,0.514739 0.2815,1.132426 0,0.617686 -0.28311,1.132426 -0.28149,0.514739 -0.84449,0.514739 h -0.75763 0.003 -0.003 q -0.0531,-0.008 -0.0579,-0.0097 -0.16729,-0.04021 -0.16568,-0.218764 h -0.002 l 0.002,-2.840716 q -0.002,-0.0048 -0.002,-0.01287 0.005,-0.08847 0.0692,-0.149596 0.066,-0.06273 0.15764,-0.06273 z m 0.75763,2.840716 q 0.003,0 0.006,0 0.003,0 0.008,0 0.003,0 0.005,0 0.003,-0.0016 0.008,-0.0016 0.003,0 0.006,0 0.005,-0.0016 0.01,-0.0016 0.003,0 0.006,0 0.003,-0.0016 0.008,-0.0016 0.003,0 0.006,0 0.003,-0.0016 0.008,-0.0016 0.006,-0.0032 0.0129,-0.0032 0.003,0 0.006,-0.0016 0.003,-0.0032 0.008,-0.0048 0.003,0 0.006,0 0.005,-0.0016 0.01,-0.0032 0.003,0 0.006,-0.0016 0.003,-0.0016 0.008,-0.0032 0.01,-0.0032 0.0145,-0.0064 0.0289,-0.0097 0.0161,-0.0064 0.003,0 0.006,-0.0016 0.003,-0.0032 0.008,-0.0048 0.0145,-0.0097 0.0129,-0.008 0.0161,-0.008 0.0161,-0.008 0.003,-0.0016 0.006,-0.0032 0.003,-0.0032 0.008,-0.0064 0.0145,-0.0097 0.0145,-0.0097 0.003,-0.0016 0.006,-0.0032 0.005,-0.0032 0.01,-0.0064 0.003,-0.0016 0.006,-0.0048 0.003,-0.0032 0.008,-0.0064 0.003,-0.0016 0.006,-0.0032 0.003,-0.0032 0.008,-0.0064 0.003,-0.0032 0.0161,-0.01287 0.0129,-0.01287 0.0129,-0.01287 0.003,-0.0032 0.006,-0.0064 0.003,-0.0032 0.008,-0.008 0.003,-0.0032 0.006,-0.0064 0.003,-0.0032 0.008,-0.008 0.005,-0.0032 0.0145,-0.01287 0.003,-0.0032 0.006,-0.0064 0.003,-0.0032 0.008,-0.008 0.003,-0.0032 0.006,-0.0064 0.003,-0.0048 0.008,-0.0097 0.0193,-0.02574 0.0129,-0.01609 0.0113,-0.01126 0.0145,-0.01769 0.0145,-0.0193 0.0129,-0.01769 0.003,-0.0048 0.006,-0.008 0.003,-0.0048 0.008,-0.0097 0.003,-0.0048 0.005,-0.0097 0.003,-0.0048 0.008,-0.0097 0.002,-0.0048 0.005,-0.0097 0.005,-0.0064 0.008,-0.01126 0.01,-0.01287 0.0129,-0.0193 0.003,-0.0048 0.005,-0.0097 0.003,-0.0064 0.008,-0.01126 0.003,-0.0048 0.005,-0.0097 0.003,-0.0064 0.008,-0.01126 0.003,-0.008 0.01,-0.02091 0.003,-0.0048 0.005,-0.01126 0.003,-0.0064 0.008,-0.01287 0.003,-0.0048 0.005,-0.0097 0.003,-0.0064 0.008,-0.01287 0.002,-0.0048 0.003,-0.01126 0.003,-0.0064 0.006,-0.01287 0.005,-0.008 0.0113,-0.02413 0.0161,-0.04021 0.0113,-0.02574 0.002,-0.0048 0.003,-0.01126 0.003,-0.008 0.006,-0.01448 0.002,-0.0064 0.003,-0.01287 0.003,-0.0064 0.006,-0.01448 0.005,-0.01448 0.008,-0.02574 0.002,-0.0064 0.003,-0.01287 0.003,-0.0064 0.006,-0.01448 -0.006,0.01609 0.008,-0.02735 0.003,-0.008 0.01,-0.02735 0,-0.0064 0.002,-0.01287 0.003,-0.008 0.005,-0.01609 0.002,-0.0064 0.003,-0.01287 0.002,-0.008 0.005,-0.01609 0,-0.0048 0.002,-0.01126 0.003,-0.008 0.005,-0.01609 0.002,-0.01126 0.005,-0.03056 0,-0.0064 0.002,-0.01287 0.003,-0.008 0.005,-0.01609 0,-0.0064 0.002,-0.01287 0.002,-0.008 0.003,-0.01609 0.002,-0.01126 0.005,-0.03056 0,-0.0064 0.002,-0.01448 0.003,-0.008 0.005,-0.01609 0,-0.01126 0.003,-0.03056 0,-0.0064 0,-0.01287 0.002,-0.008 0.003,-0.01769 0.003,-0.0193 0.003,-0.03056 0.002,-0.01126 0.002,-0.03056 0.002,-0.01126 0.002,-0.03217 0.002,-0.01126 0.002,-0.03056 0,-0.008 0,-0.01448 0.002,-0.008 0.003,-0.01769 0,-0.0064 0,-0.01287 0.002,-0.008 0.002,-0.01769 0,-0.0064 0,-0.01448 0,-0.008 0,-0.01609 0,-0.008 0,-0.01448 0,-0.008 0,-0.01609 0,-0.008 -0.002,-0.01448 0,-0.008 0,-0.01769 0,-0.0064 0,-0.01448 0,-0.008 0,-0.01609 0,-0.0097 -0.003,-0.03217 0,-0.0193 -0.002,-0.02895 0,-0.01126 -0.003,-0.03378 0,-0.0193 -0.002,-0.02895 0,-0.01126 -0.003,-0.03056 -0.002,-0.0064 -0.003,-0.01448 0,-0.008 0,-0.01609 -0.003,-0.0193 -0.006,-0.03056 -0.002,-0.0064 -0.003,-0.01287 -0.002,-0.008 -0.002,-0.01609 -0.002,-0.01126 -0.005,-0.03056 -0.002,-0.01126 -0.005,-0.03056 -0.006,-0.0193 -0.008,-0.02895 -0.003,-0.0193 -0.005,-0.02735 -0.003,-0.0064 -0.005,-0.01287 -0.002,-0.008 -0.003,-0.01609 -0.002,-0.0064 -0.005,-0.01287 -0.003,-0.008 -0.003,-0.01609 -0.0145,-0.04343 -0.008,-0.02735 -0.003,-0.01126 -0.008,-0.02735 -0.003,-0.0048 -0.006,-0.01126 -0.002,-0.008 -0.003,-0.01448 -0.002,-0.0048 -0.01,-0.02735 -0.006,-0.01609 -0.01,-0.02574 -0.003,-0.0048 -0.006,-0.01126 -0.002,-0.008 -0.003,-0.01448 -0.003,-0.0048 -0.006,-0.01126 -0.003,-0.0064 -0.005,-0.01287 -0.006,-0.01609 -0.0113,-0.02413 -0.006,-0.01609 -0.01,-0.02252 -0.006,-0.01608 -0.0113,-0.02413 -0.003,-0.0048 -0.006,-0.0097 -0.003,-0.0064 -0.005,-0.01126 -0.01,-0.01608 -0.0129,-0.02252 -0.0145,-0.02252 -0.0129,-0.02091 -0.005,-0.0048 -0.008,-0.0097 -0.002,-0.0064 -0.005,-0.01126 -0.003,-0.0064 -0.0129,-0.0193 -0.003,-0.0048 -0.006,-0.0097 -0.003,-0.0048 -0.005,-0.0097 -0.008,-0.01448 -0.0273,-0.037 -0.003,-0.0032 -0.0257,-0.03539 -0.0193,-0.02252 -0.029,-0.03217 -0.01,-0.01126 -0.029,-0.03056 -0.0129,-0.01448 -0.0273,-0.02735 -0.0113,-0.008 -0.0306,-0.02413 -0.0161,-0.01287 -0.0306,-0.02413 -0.037,-0.02413 -0.0306,-0.02091 -0.0322,-0.0193 -0.0289,-0.01769 0,0 -0.0289,-0.01448 -0.006,-0.0032 -0.0306,-0.01126 -0.0209,-0.008 -0.0306,-0.01126 -0.008,-0.0016 -0.0145,-0.0032 -0.006,-0.0032 -0.0129,-0.0064 -0.029,-0.0048 -0.029,-0.0048 -0.01,-0.0016 -0.0289,-0.0016 -0.005,0 -0.008,0 -0.003,0 -0.006,0 h -0.53082 v 2.387103 0 z"
         style="stroke-width:0.264583"
         id="path3525" />
    </g>
    <g
       aria-label="MANUAL TF
FLYUP
DISABLE"
       id="text1015"
       style="font-size:3.29433px;line-height:1.25;font-family:'MS 33558';-inkscape-font-specification:'MS 33558, Normal';text-align:center;text-anchor:middle;stroke-width:0.264583">
      <path
         d="m 69.015361,47.081507 q -0.03539,0.225198 -0.228415,0.225198 -0.191419,-0.0016 -0.225199,-0.225198 v -2.009091 l -0.551736,0.944225 q -0.08847,0.106165 -0.197852,0.11099 -0.107774,0.0048 -0.193028,-0.11099 l -0.548518,-0.939399 0.0016,2.004265 q -0.02574,0.22359 -0.233241,0.22359 -0.205896,-0.0016 -0.221981,-0.22359 v -2.840716 q 0.01287,-0.184984 0.162464,-0.220373 0.149596,-0.037 0.260587,0.10134 l 0.773717,1.330278 0.78176,-1.330278 q 0.110991,-0.138336 0.25737,-0.10134 0.147987,0.037 0.162464,0.220373 z"
         style="stroke-width:0.264583"
         id="path3458" />
      <path
         d="m 71.143485,46.249882 -0.489002,-1.35119 -0.492219,1.35119 z m -0.489002,-1.35119 0.489002,1.35119 z m -1.241808,2.097561 q 0.25737,-0.709374 0.514739,-1.41714 0.258978,-0.709375 0.517956,-1.41875 0.05308,-0.146379 0.210722,-0.147987 0.157639,-0.0016 0.21233,0.147987 l 1.031086,2.843933 q 0.04826,0.226807 -0.138336,0.292758 -0.186593,0.06595 -0.287932,-0.135119 l -0.165682,-0.460048 h -1.310976 l -0.160856,0.448788 q -0.102947,0.202679 -0.292757,0.133511 -0.18981,-0.07078 -0.130294,-0.287933 z"
         style="stroke-width:0.264583"
         id="path3460" />
      <path
         d="m 74.437815,47.084724 q 0,0.168899 -0.164073,0.215547 -0.162464,0.04504 -0.252544,-0.09651 l -1.35119,-2.16673 v 2.047696 q -0.03539,0.225199 -0.228415,0.225199 -0.191419,0 -0.225198,-0.225199 v -2.840716 q 0.02413,-0.16729 0.170507,-0.220372 0.147987,-0.05308 0.24611,0.09973 l 1.35119,2.169947 v -2.049305 q 0.03056,-0.230024 0.233241,-0.226807 0.204287,0.0016 0.220372,0.226807 z"
         style="stroke-width:0.264583"
         id="path3462" />
      <path
         d="m 77.06781,46.220928 v 0.03217 q -0.0048,0.08043 -0.0064,0.09651 -0.06756,0.492219 -0.403748,0.727068 -0.336189,0.233242 -0.717418,0.218765 -0.381228,-0.01609 -0.698114,-0.278281 -0.315278,-0.262195 -0.342624,-0.764066 v -0.03217 -1.983354 q 0,-0.04826 0.01769,-0.08686 0.07721,-0.168899 0.255761,-0.133511 0.180158,0.03539 0.180158,0.220373 v 1.983354 q 0.02413,0.369968 0.324929,0.553344 0.302409,0.183376 0.635381,-0.01609 0.149596,-0.08847 0.218764,-0.228416 0.07078,-0.139944 0.08365,-0.308843 v -1.983354 q 0,-0.02895 0.0032,-0.04343 0.037,-0.197853 0.242892,-0.17855 0.205896,0.0193 0.205896,0.221981 z"
         style="stroke-width:0.264583"
         id="path3464" />
      <path
         d="m 79.202369,46.249882 -0.489002,-1.35119 -0.49222,1.35119 z m -0.489002,-1.35119 0.489002,1.35119 z m -1.241808,2.097561 q 0.257369,-0.709374 0.514739,-1.41714 0.258978,-0.709375 0.517956,-1.41875 0.05308,-0.146379 0.210721,-0.147987 0.157639,-0.0016 0.21233,0.147987 l 1.031087,2.843933 q 0.04826,0.226807 -0.138336,0.292758 -0.186593,0.06595 -0.287933,-0.135119 l -0.165681,-0.460048 h -1.310976 l -0.160856,0.448788 q -0.102948,0.202679 -0.292758,0.133511 -0.18981,-0.07078 -0.130293,-0.287933 z"
         style="stroke-width:0.264583"
         id="path3466" />
      <path
         d="m 80.503693,47.308314 q -0.197853,-0.01287 -0.228416,-0.22359 v -2.843933 q 0.03378,-0.231633 0.23485,-0.226807 0.20107,0.0032 0.218764,0.226807 v 2.618735 l 1.484701,-0.0016 q 0.228415,0.02574 0.225198,0.231633 -0.0016,0.204287 -0.226807,0.218764 z"
         style="stroke-width:0.264583"
         id="path3468" />
      <path
         d="m 85.007099,47.081507 v -2.615518 h -0.590342 q -0.225198,-0.01769 -0.225198,-0.225198 0.0016,-0.209113 0.225198,-0.228415 h 1.632688 q 0.221981,0.01769 0.221981,0.228415 0.0016,0.209113 -0.221981,0.225198 h -0.588733 v 2.615518 q -0.037,0.228416 -0.238066,0.225198 -0.199462,-0.0032 -0.215547,-0.225198 z"
         style="stroke-width:0.264583"
         id="path3470" />
      <path
         d="m 86.752386,47.07829 v -2.837499 q 0.02895,-0.21233 0.228416,-0.228415 h 1.557085 q 0.22359,0.01769 0.22359,0.228415 0,0.209113 -0.226807,0.22359 h -1.330278 v 0.879882 h 1.03752 q 0.221982,0.01609 0.225199,0.217155 0.0032,0.20107 -0.225199,0.23485 h -1.03752 v 1.282022 q -0.01609,0.221981 -0.218765,0.225198 -0.20107,0.0032 -0.233241,-0.225198 z"
         style="stroke-width:0.264583"
         id="path3472" />
      <path
         d="m 71.39977,51.196202 v -2.837499 q 0.02895,-0.212329 0.228416,-0.228415 h 1.557085 q 0.22359,0.01769 0.22359,0.228415 0,0.209113 -0.226807,0.22359 h -1.330278 v 0.879882 h 1.03752 q 0.221982,0.01609 0.225199,0.217156 0.0032,0.20107 -0.225199,0.234849 h -1.03752 v 1.282022 q -0.01609,0.221982 -0.218765,0.225199 -0.201069,0.0032 -0.233241,-0.225199 z"
         style="stroke-width:0.264583"
         id="path3474" />
      <path
         d="m 74.087673,51.426226 q -0.197853,-0.01287 -0.228415,-0.223589 v -2.843934 q 0.03378,-0.231632 0.234849,-0.226806 0.20107,0.0032 0.218765,0.226806 v 2.618735 l 1.4847,-0.0016 q 0.228415,0.02574 0.225198,0.231632 -0.0016,0.204287 -0.226807,0.218764 z"
         style="stroke-width:0.264583"
         id="path3476" />
      <path
         d="m 78.408264,48.247713 q 0.125468,-0.188202 0.302409,-0.09008 0.17855,0.09812 0.09169,0.307235 l -0.924922,1.651991 v 1.076126 q -0.01448,0.228416 -0.225198,0.228416 -0.209113,0 -0.22359,-0.228416 v -1.076126 l -0.923313,-1.651991 q -0.08525,-0.207504 0.08686,-0.304017 0.172116,-0.09812 0.307235,0.08686 l 0.754415,1.347973 z"
         style="stroke-width:0.264583"
         id="path3478" />
      <path
         d="m 81.393751,50.33884 v 0.03217 q -0.0048,0.08043 -0.0064,0.09651 -0.06756,0.492219 -0.403748,0.727069 -0.336189,0.233241 -0.717418,0.218764 -0.381228,-0.01609 -0.698114,-0.278281 -0.315278,-0.262195 -0.342624,-0.764066 v -0.03217 -1.983354 q 0,-0.04826 0.01769,-0.08686 0.07721,-0.168899 0.255761,-0.13351 0.180158,0.03539 0.180158,0.220372 v 1.983354 q 0.02413,0.369969 0.324929,0.553345 0.302409,0.183375 0.635381,-0.01609 0.149596,-0.08847 0.218764,-0.228415 0.07078,-0.139945 0.08365,-0.308844 v -1.983354 q 0,-0.02895 0.0032,-0.04343 0.037,-0.197853 0.242892,-0.17855 0.205896,0.0193 0.205896,0.221981 z"
         style="stroke-width:0.264583"
         id="path3480" />
      <path
         d="m 83.023221,48.130288 h 0.03056 q 0.205896,0.01448 0.37962,0.0933 0.332972,0.156031 0.471308,0.513131 0.138336,0.3571 -0.0032,0.696506 -0.114208,0.26863 -0.337798,0.421443 -0.223589,0.151204 -0.509913,0.168898 l -0.03056,0.0016 h -0.781759 v 1.17264 q -0.02895,0.226807 -0.228416,0.226807 -0.199461,0 -0.226807,-0.226807 v -2.842325 q 0.02413,-0.199461 0.21233,-0.225198 h 0.01448 z m 0,0.453614 h -0.781759 v 0.986047 h 0.781759 q 0.183376,0 0.323321,-0.122251 0.141553,-0.12225 0.165682,-0.305626 0.02895,-0.221981 -0.119034,-0.389272 -0.147987,-0.168898 -0.369969,-0.168898 z"
         style="stroke-width:0.264583"
         id="path3482" />
      <path
         d="M 69.933568,52.2482 H 70.6912 q 0.564604,0 0.846102,0.514739 0.281498,0.514739 0.281498,1.132426 0,0.617687 -0.283106,1.132426 -0.281498,0.514739 -0.844494,0.514739 h -0.757632 0.0032 -0.0032 q -0.05308,-0.008 -0.05791,-0.0097 -0.16729,-0.04021 -0.165681,-0.218764 h -0.0016 l 0.0016,-2.840716 q -0.0016,-0.0048 -0.0016,-0.01287 0.0048,-0.08847 0.06917,-0.149596 0.06595,-0.06273 0.157639,-0.06273 z m 0.757632,2.840716 q 0.0032,0 0.0064,0 0.0032,0 0.008,0 0.0032,0 0.0048,0 0.0032,-0.0016 0.008,-0.0016 0.0032,0 0.0064,0 0.0048,-0.0016 0.0097,-0.0016 0.0032,0 0.0064,0 0.0032,-0.0016 0.008,-0.0016 0.0032,0 0.0064,0 0.0032,-0.0016 0.008,-0.0016 0.0064,-0.0032 0.01287,-0.0032 0.0032,0 0.0064,-0.0016 0.0032,-0.0032 0.008,-0.0048 0.0032,0 0.0064,0 0.0048,-0.0016 0.0097,-0.0032 0.0032,0 0.0064,-0.0016 0.0032,-0.0016 0.008,-0.0032 0.0097,-0.0032 0.01448,-0.0064 0.02895,-0.0097 0.01609,-0.0064 0.0032,0 0.0064,-0.0016 0.0032,-0.0032 0.008,-0.0048 0.01448,-0.0097 0.01287,-0.008 0.01609,-0.008 0.01609,-0.008 0.0032,-0.0016 0.0064,-0.0032 0.0032,-0.0032 0.008,-0.0064 0.01448,-0.0097 0.01448,-0.0097 0.0032,-0.0016 0.0064,-0.0032 0.0048,-0.0032 0.0097,-0.0064 0.0032,-0.0016 0.0064,-0.0048 0.0032,-0.0032 0.008,-0.0064 0.0032,-0.0016 0.0064,-0.0032 0.0032,-0.0032 0.008,-0.0064 0.0032,-0.0032 0.01609,-0.01287 0.01287,-0.01287 0.01287,-0.01287 0.0032,-0.0032 0.0064,-0.0064 0.0032,-0.0032 0.008,-0.008 0.0032,-0.0032 0.0064,-0.0064 0.0032,-0.0032 0.008,-0.008 0.0048,-0.0032 0.01448,-0.01287 0.0032,-0.0032 0.0064,-0.0064 0.0032,-0.0032 0.008,-0.008 0.0032,-0.0032 0.0064,-0.0064 0.0032,-0.0048 0.008,-0.0097 0.0193,-0.02574 0.01287,-0.01608 0.01126,-0.01126 0.01448,-0.0177 0.01448,-0.0193 0.01287,-0.01769 0.0032,-0.0048 0.0064,-0.008 0.0032,-0.0048 0.008,-0.0097 0.0032,-0.0048 0.0048,-0.0097 0.0032,-0.0048 0.008,-0.0097 0.0016,-0.0048 0.0048,-0.0097 0.0048,-0.0064 0.008,-0.01126 0.0097,-0.01287 0.01287,-0.0193 0.0032,-0.0048 0.0048,-0.0097 0.0032,-0.0064 0.008,-0.01126 0.0032,-0.0048 0.0048,-0.0097 0.0032,-0.0064 0.008,-0.01126 0.0032,-0.008 0.0097,-0.02091 0.0032,-0.0048 0.0048,-0.01126 0.0032,-0.0064 0.008,-0.01287 0.0032,-0.0048 0.0048,-0.0097 0.0032,-0.0064 0.008,-0.01287 0.0016,-0.0048 0.0032,-0.01126 0.0032,-0.0064 0.0064,-0.01287 0.0048,-0.008 0.01126,-0.02413 0.01608,-0.04021 0.01126,-0.02574 0.0016,-0.0048 0.0032,-0.01126 0.0032,-0.008 0.0064,-0.01448 0.0016,-0.0064 0.0032,-0.01287 0.0032,-0.0064 0.0064,-0.01448 0.0048,-0.01448 0.008,-0.02574 0.0016,-0.0064 0.0032,-0.01287 0.0032,-0.0064 0.0064,-0.01448 -0.0064,0.01609 0.008,-0.02735 0.0032,-0.008 0.0097,-0.02735 0,-0.0064 0.0016,-0.01287 0.0032,-0.008 0.0048,-0.01608 0.0016,-0.0064 0.0032,-0.01287 0.0016,-0.008 0.0048,-0.01608 0,-0.0048 0.0016,-0.01126 0.0032,-0.008 0.0048,-0.01609 0.0016,-0.01126 0.0048,-0.03056 0,-0.0064 0.0016,-0.01287 0.0032,-0.008 0.0048,-0.01609 0,-0.0064 0.0016,-0.01287 0.0016,-0.008 0.0032,-0.01609 0.0016,-0.01126 0.0048,-0.03056 0,-0.0064 0.0016,-0.01448 0.0032,-0.008 0.0048,-0.01609 0,-0.01126 0.0032,-0.03056 0,-0.0064 0,-0.01287 0.0016,-0.008 0.0032,-0.01769 0.0032,-0.0193 0.0032,-0.03056 0.0016,-0.01126 0.0016,-0.03056 0.0016,-0.01126 0.0016,-0.03217 0.0016,-0.01126 0.0016,-0.03056 0,-0.008 0,-0.01448 0.0016,-0.008 0.0032,-0.01769 0,-0.0064 0,-0.01287 0.0016,-0.008 0.0016,-0.01769 0,-0.0064 0,-0.01448 0,-0.008 0,-0.01609 0,-0.008 0,-0.01448 0,-0.008 0,-0.01608 0,-0.008 -0.0016,-0.01448 0,-0.008 0,-0.0177 0,-0.0064 0,-0.01448 0,-0.008 0,-0.01608 0,-0.0097 -0.0032,-0.03217 0,-0.0193 -0.0016,-0.02895 0,-0.01126 -0.0032,-0.03378 0,-0.0193 -0.0016,-0.02895 0,-0.01126 -0.0032,-0.03056 -0.0016,-0.0064 -0.0032,-0.01448 0,-0.008 0,-0.01609 -0.0032,-0.0193 -0.0064,-0.03056 -0.0016,-0.0064 -0.0032,-0.01287 -0.0016,-0.008 -0.0016,-0.01608 -0.0016,-0.01126 -0.0048,-0.03056 -0.0016,-0.01126 -0.0048,-0.03056 -0.0064,-0.0193 -0.008,-0.02895 -0.0032,-0.0193 -0.0048,-0.02735 -0.0032,-0.0064 -0.0048,-0.01287 -0.0016,-0.008 -0.0032,-0.01608 -0.0016,-0.0064 -0.0048,-0.01287 -0.0032,-0.008 -0.0032,-0.01608 -0.01448,-0.04343 -0.008,-0.02735 -0.0032,-0.01126 -0.008,-0.02734 -0.0032,-0.0048 -0.0064,-0.01126 -0.0016,-0.008 -0.0032,-0.01448 -0.0016,-0.0048 -0.0097,-0.02735 -0.0064,-0.01609 -0.0097,-0.02574 -0.0032,-0.0048 -0.0064,-0.01126 -0.0016,-0.008 -0.0032,-0.01448 -0.0032,-0.0048 -0.0064,-0.01126 -0.0032,-0.0064 -0.0048,-0.01287 -0.0064,-0.01609 -0.01126,-0.02413 -0.0064,-0.01609 -0.0097,-0.02252 -0.0064,-0.01609 -0.01126,-0.02413 -0.0032,-0.0048 -0.0064,-0.0097 -0.0032,-0.0064 -0.0048,-0.01126 -0.0097,-0.01609 -0.01287,-0.02252 -0.01448,-0.02252 -0.01287,-0.02091 -0.0048,-0.0048 -0.008,-0.0097 -0.0016,-0.0064 -0.0048,-0.01126 -0.0032,-0.0064 -0.01287,-0.0193 -0.0032,-0.0048 -0.0064,-0.0097 -0.0032,-0.0048 -0.0048,-0.0097 -0.008,-0.01448 -0.02735,-0.037 -0.0032,-0.0032 -0.02574,-0.03539 -0.0193,-0.02252 -0.02895,-0.03217 -0.0097,-0.01126 -0.02895,-0.03056 -0.01287,-0.01448 -0.02734,-0.02734 -0.01126,-0.008 -0.03056,-0.02413 -0.01609,-0.01287 -0.03056,-0.02413 -0.037,-0.02413 -0.03056,-0.02091 -0.03217,-0.0193 -0.02895,-0.01769 0,0 -0.02895,-0.01448 -0.0064,-0.0032 -0.03056,-0.01126 -0.02091,-0.008 -0.03056,-0.01126 -0.008,-0.0016 -0.01448,-0.0032 -0.0064,-0.0032 -0.01287,-0.0064 -0.02895,-0.0048 -0.02895,-0.0048 -0.0097,-0.0016 -0.02895,-0.0016 -0.0048,0 -0.008,0 -0.0032,0 -0.0064,0 h -0.530825 v 2.387102 0 z"
         style="stroke-width:0.264583"
         id="path3484" />
      <path
         d="m 72.685814,55.320549 q -0.03539,0.226807 -0.230024,0.225198 -0.193028,0 -0.226807,-0.225198 v -2.843933 q 0.03378,-0.226807 0.226807,-0.226807 0.194635,-0.0016 0.230024,0.226807 z"
         style="stroke-width:0.264583"
         id="path3486" />
      <path
         d="m 74.760855,53.7892 0.02574,0.01126 0.02895,0.01448 0.02574,0.01448 q 0.01126,0.008 0.02413,0.01609 0.01448,0.0064 0.02734,0.01448 0.318495,0.209113 0.394097,0.579081 0.02895,0.144771 0.01287,0.297584 -0.02574,0.218764 -0.154422,0.405357 -0.127076,0.184984 -0.320103,0.286323 -0.207505,0.109383 -0.429486,0.109383 -0.373186,0 -0.712592,-0.09491 -0.339406,-0.09651 -0.484176,-0.51313 -0.0193,-0.05308 -0.02895,-0.109382 -0.0097,-0.0563 -0.02252,-0.112599 -0.02413,-0.115816 0.0563,-0.204287 0.08204,-0.08847 0.202678,-0.06756 0.127076,0.02574 0.176942,0.157639 l 0.0048,0.01448 q 0.07721,0.349058 0.26863,0.416617 0.193027,0.06756 0.53565,0.06112 0.315278,0 0.432703,-0.295975 0.05147,-0.131902 0.01609,-0.273455 -0.03539,-0.143162 -0.139944,-0.238067 -0.04665,-0.04021 -0.122251,-0.0756 l -0.744763,-0.326537 -0.02413,-0.01287 Q 73.445054,53.670167 73.356583,53.314675 73.248809,52.902884 73.506179,52.576346 73.765157,52.2482 74.184991,52.2482 l 0.176942,0.0048 q 0.08686,0.01609 0.16729,0.03217 0.08043,0.01448 0.162464,0.05147 0.202679,0.0949 0.310452,0.260587 0.107774,0.165681 0.194636,0.358708 0.008,0.0177 0.01448,0.04182 0.01769,0.07882 -0.01609,0.143162 -0.0193,0.04021 -0.04021,0.06112 -0.02091,0.02091 -0.03378,0.02895 -0.08365,0.05952 -0.183376,0.03539 -0.09973,-0.02252 -0.152813,-0.128684 -0.04182,-0.0933 -0.09008,-0.18981 -0.04665,-0.09812 -0.131902,-0.162465 -0.03539,-0.02574 -0.06917,-0.037 -0.03217,-0.01287 -0.07239,-0.02735 l -0.104556,-0.01769 -0.147988,-0.0048 q -0.215547,0.0032 -0.329754,0.186593 -0.07721,0.117425 -0.05791,0.262195 0.02252,0.17855 0.16729,0.276672 0.0064,0.0048 0.01448,0.01126 0.008,0.0048 0.01769,0.0097 l 0.01769,0.008 0.0193,0.008 z"
         style="stroke-width:0.264583"
         id="path3488" />
      <path
         d="m 77.445541,54.485707 -0.489002,-1.35119 -0.492219,1.35119 z m -0.489002,-1.35119 0.489002,1.35119 z m -1.241808,2.097561 q 0.25737,-0.709375 0.514739,-1.417141 0.258978,-0.709374 0.517957,-1.418749 0.05308,-0.146379 0.210721,-0.147988 0.157639,-0.0016 0.21233,0.147988 l 1.031086,2.843933 q 0.04826,0.226807 -0.138336,0.292758 -0.186593,0.06595 -0.287932,-0.135119 L 77.609614,54.937712 H 76.298638 L 76.137783,55.3865 q -0.102948,0.202678 -0.292758,0.13351 -0.18981,-0.07078 -0.130294,-0.287932 z"
         style="stroke-width:0.264583"
         id="path3490" />
      <path
         d="m 79.745781,52.2482 q 0.305627,0.02574 0.513131,0.184985 0.209113,0.159247 0.289541,0.384445 0.08043,0.22359 0.02091,0.477743 -0.05791,0.252543 -0.283107,0.464873 0.247719,0.260587 0.308844,0.562996 0.06113,0.302409 -0.03861,0.566213 -0.09812,0.262195 -0.342623,0.445571 -0.244501,0.183376 -0.606427,0.207504 h -0.0048 -0.855754 q -0.197853,-0.02734 -0.228415,-0.22359 v -2.842324 q 0.02734,-0.199462 0.228415,-0.228416 z m -0.143161,2.839108 q 0.273455,-0.01126 0.416617,-0.176942 0.143161,-0.165681 0.147987,-0.366751 0.0064,-0.202679 -0.128685,-0.37962 -0.135119,-0.176942 -0.416617,-0.213939 h -0.648249 v 1.137252 z m 0.143161,-2.382277 h -0.772108 v 0.79302 h 0.776934 q 0.199461,-0.02091 0.295975,-0.143162 0.09812,-0.123859 0.0949,-0.263804 -0.0016,-0.141553 -0.101339,-0.257369 -0.09973,-0.117425 -0.294367,-0.128685 z"
         style="stroke-width:0.264583"
         id="path3492" />
      <path
         d="m 81.267479,55.544139 q -0.197853,-0.01287 -0.228416,-0.22359 v -2.843933 q 0.03378,-0.231633 0.23485,-0.226807 0.20107,0.0032 0.218764,0.226807 v 2.618735 l 1.4847,-0.0016 q 0.228416,0.02574 0.225199,0.231633 -0.0016,0.204287 -0.226807,0.218764 z"
         style="stroke-width:0.264583"
         id="path3494" />
      <path
         d="m 85.446516,52.696988 h -1.333495 v 0.879882 h 1.016609 q 0.228416,0.03378 0.226807,0.230024 0,0.194636 -0.226807,0.226807 h -1.016609 v 1.056824 h 1.333495 q 0.226807,0.03378 0.226807,0.226807 0,0.193027 -0.226807,0.225198 h -1.557085 q -0.20107,-0.02574 -0.228416,-0.228415 v -2.840716 q 0.03056,-0.21233 0.228416,-0.225199 h 1.557085 q 0.226807,0.01769 0.225199,0.226807 0,0.207504 -0.225199,0.221981 z"
         style="stroke-width:0.264583"
         id="path3496" />
    </g>
    <g
       aria-label="ENABLE"
       id="text1023"
       style="font-size:3.29433px;line-height:1.25;font-family:'MS 33558';-inkscape-font-specification:'MS 33558, Normal';text-align:center;text-anchor:middle;stroke-width:0.264583">
      <path
         d="m 71.91853,72.123559 h -1.333496 v 0.879882 h 1.016609 q 0.228416,0.03378 0.226807,0.230024 0,0.194636 -0.226807,0.226807 h -1.016609 v 1.056824 h 1.333496 q 0.226806,0.03378 0.226806,0.226807 0,0.193027 -0.226806,0.225198 h -1.557086 q -0.20107,-0.02574 -0.228416,-0.228415 v -2.840717 q 0.03056,-0.212329 0.228416,-0.225198 h 1.557086 q 0.226806,0.01769 0.225198,0.226807 0,0.207504 -0.225198,0.221981 z"
         style="stroke-width:0.264583"
         id="path3445" />
      <path
         d="m 74.813937,74.74712 q 0,0.168898 -0.164073,0.215547 -0.162465,0.04504 -0.252544,-0.09651 l -1.35119,-2.16673 v 2.047697 q -0.03539,0.225198 -0.228416,0.225198 -0.191418,0 -0.225198,-0.225198 v -2.840716 q 0.02413,-0.167291 0.170507,-0.220373 0.147988,-0.05308 0.24611,0.09973 l 1.35119,2.169946 v -2.049304 q 0.03056,-0.230024 0.233241,-0.226807 0.204287,0.0016 0.220373,0.226807 z"
         style="stroke-width:0.264583"
         id="path3447" />
      <path
         d="m 77.017663,73.912277 -0.489002,-1.35119 -0.492219,1.35119 z m -0.489002,-1.35119 0.489002,1.35119 z m -1.241808,2.097562 q 0.25737,-0.709375 0.514739,-1.417141 0.258978,-0.709375 0.517956,-1.418749 0.05308,-0.146379 0.210722,-0.147988 0.157638,-0.0016 0.21233,0.147988 l 1.031086,2.843933 q 0.04826,0.226807 -0.138336,0.292758 -0.186593,0.06595 -0.287932,-0.135119 L 77.181736,74.364283 H 75.87076 l -0.160856,0.448788 q -0.102948,0.202678 -0.292758,0.13351 -0.18981,-0.07078 -0.130293,-0.287932 z"
         style="stroke-width:0.264583"
         id="path3449" />
      <path
         d="m 79.317903,71.674771 q 0.305627,0.02574 0.513131,0.184984 0.209112,0.159248 0.28954,0.384446 0.08043,0.22359 0.02091,0.477742 -0.05791,0.252544 -0.283107,0.464874 0.247718,0.260587 0.308844,0.562996 0.06112,0.302409 -0.03861,0.566213 -0.09812,0.262195 -0.342623,0.445571 -0.244501,0.183376 -0.606427,0.207504 h -0.0048 -0.855753 q -0.197853,-0.02735 -0.228416,-0.22359 v -2.842324 q 0.02735,-0.199462 0.228416,-0.228416 z m -0.143162,2.839108 q 0.273456,-0.01126 0.416617,-0.176942 0.143162,-0.165682 0.147988,-0.366752 0.0064,-0.202678 -0.128685,-0.37962 -0.135119,-0.176941 -0.416617,-0.213938 h -0.648249 v 1.137252 z m 0.143162,-2.382277 h -0.772108 v 0.79302 h 0.776934 q 0.199461,-0.02091 0.295975,-0.143162 0.09812,-0.123859 0.09491,-0.263804 -0.0016,-0.141553 -0.101339,-0.257369 -0.09973,-0.117425 -0.294367,-0.128685 z"
         style="stroke-width:0.264583"
         id="path3451" />
      <path
         d="m 80.839601,74.97071 q -0.197853,-0.01287 -0.228416,-0.22359 v -2.843933 q 0.03378,-0.231633 0.23485,-0.226807 0.20107,0.0032 0.218764,0.226807 v 2.618734 l 1.484701,-0.0016 q 0.228415,0.02574 0.225198,0.231632 -0.0016,0.204287 -0.226807,0.218765 z"
         style="stroke-width:0.264583"
         id="path3453" />
      <path
         d="m 85.018639,72.123559 h -1.333496 v 0.879882 h 1.016609 q 0.228416,0.03378 0.226807,0.230024 0,0.194636 -0.226807,0.226807 h -1.016609 v 1.056824 h 1.333496 q 0.226807,0.03378 0.226807,0.226807 0,0.193027 -0.226807,0.225198 h -1.557086 q -0.20107,-0.02574 -0.228415,-0.228415 v -2.840717 q 0.03056,-0.212329 0.228415,-0.225198 h 1.557086 q 0.226807,0.01769 0.225198,0.226807 0,0.207504 -0.225198,0.221981 z"
         style="stroke-width:0.264583"
         id="path3455" />
    </g>
    <g
       aria-label="F
L
T

C
O
N
T
R
O
L"
       id="text1027"
       style="font-style:normal;font-variant:normal;font-weight:normal;font-stretch:normal;font-size:4.93889px;line-height:1.25;font-family:'MS 33558';-inkscape-font-specification:'MS 33558, Normal';font-variant-ligatures:normal;font-variant-caps:normal;font-variant-numeric:normal;font-variant-east-asian:normal;text-align:center;text-anchor:middle;stroke-width:0.264583">
      <path
         d="m 7.3771562,36.006206 v -4.254005 q 0.043408,-0.318327 0.3424426,-0.342443 h 2.3343972 q 0.335208,0.02653 0.335208,0.342443 0,0.313503 -0.340031,0.335208 H 8.0548066 v 1.319127 h 1.555461 q 0.3327963,0.02412 0.3376194,0.325561 0.00482,0.301446 -0.3376194,0.352089 h -1.555461 v 1.92202 q -0.024116,0.332796 -0.3279731,0.337619 -0.301446,0.0048 -0.3496773,-0.337619 z"
         style="font-style:normal;font-variant:normal;font-weight:normal;font-stretch:normal;font-size:4.93889px;font-family:'MS 33558';-inkscape-font-specification:'MS 33558, Normal';font-variant-ligatures:normal;font-variant-caps:normal;font-variant-numeric:normal;font-variant-east-asian:normal;stroke-width:0.264583"
         id="path3424" />
      <path
         d="M 7.5978146,42.524672 Q 7.3011918,42.50538 7.255372,42.189464 v -4.263651 q 0.050643,-0.347266 0.3520889,-0.340031 0.3014459,0.0048 0.3279731,0.340031 v 3.926032 l 2.225877,-0.0024 q 0.342442,0.03859 0.337619,0.347266 -0.0024,0.306269 -0.340031,0.327973 z"
         style="font-style:normal;font-variant:normal;font-weight:normal;font-stretch:normal;font-size:4.93889px;font-family:'MS 33558';-inkscape-font-specification:'MS 33558, Normal';font-variant-ligatures:normal;font-variant-caps:normal;font-variant-numeric:normal;font-variant-east-asian:normal;stroke-width:0.264583"
         id="path3426" />
      <path
         d="M 8.5238565,48.358254 V 44.437045 H 7.6388112 q -0.3376194,-0.02653 -0.3376194,-0.337619 0.00241,-0.313504 0.3376194,-0.342443 h 2.4477408 q 0.332796,0.02653 0.332796,0.342443 0.0024,0.313503 -0.332796,0.337619 H 9.2039185 v 3.921209 q -0.055466,0.342442 -0.356912,0.337619 -0.2990344,-0.0048 -0.32315,-0.337619 z"
         style="font-style:normal;font-variant:normal;font-weight:normal;font-stretch:normal;font-size:4.93889px;font-family:'MS 33558';-inkscape-font-specification:'MS 33558, Normal';font-variant-ligatures:normal;font-variant-caps:normal;font-variant-numeric:normal;font-variant-east-asian:normal;stroke-width:0.264583"
         id="path3428" />
      <path
         d="m 10.437435,60.271396 -0.0217,0.03135 q -0.0072,0.0096 -0.01206,0.01688 -0.0048,0.0072 -0.0096,0.01447 -0.330385,0.44614 -0.8681643,0.636654 Q 8.9904948,61.158853 8.4695962,60.900815 7.8642928,60.59937 7.5797278,59.878311 7.2975745,59.157252 7.3361595,58.380728 q 0.040997,-0.778937 0.4099665,-1.43006 0.3713814,-0.651123 1.075559,-0.81511 0.4051434,-0.09405 0.8078751,0.07958 0.4027319,0.171221 0.6607699,0.482314 0.0024,0 0.01206,0.01688 0.110933,0.144694 0.04582,0.318326 -0.06511,0.171222 -0.238745,0.21463 -0.1856907,0.04823 -0.3424425,-0.110932 -0.3231501,-0.376205 -0.6221844,-0.361735 -0.2990344,0.01447 -0.535368,0.24598 -0.2363336,0.23151 -0.3930855,0.593245 -0.1567518,0.361735 -0.1929254,0.677651 -0.043408,0.352088 0.00723,0.709 0.053055,0.354501 0.2194527,0.668005 0.2893881,0.549837 0.7282933,0.689708 0.4413169,0.137459 0.8609296,-0.422024 0.019292,-0.02412 0.04582,-0.0627 0.2266877,-0.250803 0.4774907,-0.05064 0.253214,0.197748 0.07476,0.448551 z"
         style="font-style:normal;font-variant:normal;font-weight:normal;font-stretch:normal;font-size:4.93889px;font-family:'MS 33558';-inkscape-font-specification:'MS 33558, Normal';font-variant-ligatures:normal;font-variant-caps:normal;font-variant-numeric:normal;font-variant-east-asian:normal;stroke-width:0.264583"
         id="path3430" />
      <path
         d="m 10.416937,63.698234 q 0.221864,0.668004 0.166398,1.386651 -0.05305,0.718647 -0.393085,1.311893 -0.21463,0.368969 -0.5860113,0.627007 -0.3713814,0.258038 -0.8199329,0.180868 -0.730705,-0.127813 -1.1189673,-0.762056 -0.3882624,-0.634242 -0.44614,-1.410767 -0.055466,-0.778936 0.2098064,-1.516875 0.267684,-0.73794 0.8512833,-1.073148 0.2845649,-0.163987 0.5956571,-0.163987 0.5932456,0 0.9694501,0.448552 0.3762046,0.44614 0.5715416,0.971862 z M 8.8952379,62.962706 q -0.4437284,0 -0.6728273,0.47749 -0.2266874,0.47749 -0.2869766,0.81511 -0.04582,0.24598 -0.033762,0.595657 0.012058,0.349677 0.1012858,0.69212 0.089228,0.340031 0.267684,0.614949 0.178456,0.272507 0.4678441,0.361735 0.3376194,0.106109 0.5811877,-0.132636 0.2459799,-0.241156 0.3713814,-0.511252 0.1278131,-0.27733 0.1736328,-0.728293 0.048231,-0.450963 -0.021704,-0.899515 -0.067524,-0.450963 -0.267684,-0.810287 -0.20016,-0.361735 -0.5691299,-0.460609 -0.048231,-0.01447 -0.110932,-0.01447 z"
         style="font-style:normal;font-variant:normal;font-weight:normal;font-stretch:normal;font-size:4.93889px;font-family:'MS 33558';-inkscape-font-specification:'MS 33558, Normal';font-variant-ligatures:normal;font-variant-caps:normal;font-variant-numeric:normal;font-variant-east-asian:normal;stroke-width:0.264583"
         id="path3432" />
      <path
         d="m 10.539927,73.057527 q 0,0.253214 -0.24598,0.32315 -0.243568,0.06752 -0.3786162,-0.144694 L 7.8896143,69.987601 v 3.069926 q -0.053055,0.337619 -0.3424426,0.337619 -0.2869765,0 -0.3376194,-0.337619 v -4.258828 q 0.036173,-0.250803 0.2556261,-0.330385 0.2218642,-0.07958 0.3689698,0.149517 l 2.0257166,3.253204 v -3.072336 q 0.04582,-0.344854 0.3496772,-0.340031 0.306269,0.0024 0.330385,0.340031 z"
         style="font-style:normal;font-variant:normal;font-weight:normal;font-stretch:normal;font-size:4.93889px;font-family:'MS 33558';-inkscape-font-specification:'MS 33558, Normal';font-variant-ligatures:normal;font-variant-caps:normal;font-variant-numeric:normal;font-variant-east-asian:normal;stroke-width:0.264583"
         id="path3434" />
      <path
         d="M 8.5238565,79.226316 V 75.305107 H 7.6388112 q -0.3376194,-0.02653 -0.3376194,-0.337619 0.00241,-0.313504 0.3376194,-0.342443 h 2.4477408 q 0.332796,0.02653 0.332796,0.342443 0.0024,0.313504 -0.332796,0.337619 H 9.2039185 v 3.921209 q -0.055466,0.342443 -0.356912,0.337619 -0.2990344,-0.0048 -0.32315,-0.337619 z"
         style="font-style:normal;font-variant:normal;font-weight:normal;font-stretch:normal;font-size:4.93889px;font-family:'MS 33558';-inkscape-font-specification:'MS 33558, Normal';font-variant-ligatures:normal;font-variant-caps:normal;font-variant-numeric:normal;font-variant-east-asian:normal;stroke-width:0.264583"
         id="path3436" />
      <path
         d="m 10.301182,85.214238 q 0.15434,0.272507 -0.08682,0.458198 -0.115755,0.08199 -0.2676838,0.05547 Q 9.797164,85.701374 9.7272286,85.578384 L 8.5383259,83.699773 H 7.935434 v 1.697744 q 0,0.209806 -0.1905138,0.303857 -0.1905138,0.09164 -0.356912,-0.03617 Q 7.255372,85.566327 7.255372,85.397517 v -4.26124 q 0,-0.139871 0.096463,-0.238745 0.098874,-0.09887 0.2411568,-0.09887 h 1.4975833 q 0.5401911,0 0.9381002,0.344854 0.397908,0.342443 0.494371,0.870576 0.101286,0.566718 -0.241157,1.061089 -0.3400309,0.49196 -0.9043377,0.598069 l -0.04582,0.0072 z M 9.0905748,83.022123 q 0.2459799,0 0.4533747,-0.149517 Q 9.7537558,82.723089 9.8261029,82.481932 9.9394465,82.110551 9.7224055,81.811516 9.5053644,81.51007 9.1243368,81.47872 H 7.935434 v 1.543403 z"
         style="font-style:normal;font-variant:normal;font-weight:normal;font-stretch:normal;font-size:4.93889px;font-family:'MS 33558';-inkscape-font-specification:'MS 33558, Normal';font-variant-ligatures:normal;font-variant-caps:normal;font-variant-numeric:normal;font-variant-east-asian:normal;stroke-width:0.264583"
         id="path3438" />
      <path
         d="m 10.416937,88.392684 q 0.221864,0.668004 0.166398,1.386651 -0.05305,0.718647 -0.393085,1.311892 -0.21463,0.36897 -0.5860113,0.627008 -0.3713814,0.258038 -0.8199329,0.180868 -0.730705,-0.127814 -1.1189673,-0.762056 -0.3882624,-0.634242 -0.44614,-1.410767 -0.055466,-0.778936 0.2098064,-1.516876 0.267684,-0.737939 0.8512833,-1.073147 0.2845649,-0.163987 0.5956571,-0.163987 0.5932456,0 0.9694501,0.448552 0.3762046,0.44614 0.5715416,0.971862 z M 8.8952379,87.657156 q -0.4437284,0 -0.6728273,0.47749 -0.2266874,0.47749 -0.2869766,0.81511 -0.04582,0.245979 -0.033762,0.595657 0.012058,0.349677 0.1012858,0.69212 0.089228,0.340031 0.267684,0.614949 0.178456,0.272507 0.4678441,0.361735 0.3376194,0.106109 0.5811877,-0.132636 0.2459799,-0.241157 0.3713814,-0.511252 0.1278131,-0.27733 0.1736328,-0.728293 0.048231,-0.450964 -0.021704,-0.899515 -0.067524,-0.450963 -0.267684,-0.810287 -0.20016,-0.361735 -0.5691299,-0.460609 -0.048231,-0.01447 -0.110932,-0.01447 z"
         style="font-style:normal;font-variant:normal;font-weight:normal;font-stretch:normal;font-size:4.93889px;font-family:'MS 33558';-inkscape-font-specification:'MS 33558, Normal';font-variant-ligatures:normal;font-variant-caps:normal;font-variant-numeric:normal;font-variant-east-asian:normal;stroke-width:0.264583"
         id="path3440" />
      <path
         d="M 7.5978146,98.087184 Q 7.3011918,98.067892 7.255372,97.751977 v -4.263652 q 0.050643,-0.347265 0.3520889,-0.340031 0.3014459,0.0048 0.3279731,0.340031 v 3.926032 l 2.225877,-0.0024 q 0.342442,0.03858 0.337619,0.347265 -0.0024,0.306269 -0.340031,0.327973 z"
         style="font-style:normal;font-variant:normal;font-weight:normal;font-stretch:normal;font-size:4.93889px;font-family:'MS 33558';-inkscape-font-specification:'MS 33558, Normal';font-variant-ligatures:normal;font-variant-caps:normal;font-variant-numeric:normal;font-variant-east-asian:normal;stroke-width:0.264583"
         id="path3442" />
    </g>
  </g>
</svg>
