<?xml version="1.0" encoding="UTF-8" standalone="no"?>
<svg
   xmlns:dc="http://purl.org/dc/elements/1.1/"
   xmlns:cc="http://creativecommons.org/ns#"
   xmlns:rdf="http://www.w3.org/1999/02/22-rdf-syntax-ns#"
   xmlns:svg="http://www.w3.org/2000/svg"
   xmlns="http://www.w3.org/2000/svg"
   xmlns:sodipodi="http://sodipodi.sourceforge.net/DTD/sodipodi-0.dtd"
   xmlns:inkscape="http://www.inkscape.org/namespaces/inkscape"
   width="210mm"
   height="297mm"
   viewBox="0 0 210 297"
   version="1.1"
   id="svg2912"
   inkscape:version="1.0.1 (3bc2e813f5, 2020-09-07)"
   sodipodi:docname="fuel.svg">
  <defs
     id="defs2906">
    <inkscape:path-effect
       effect="skeletal"
       id="path-effect3747"
       is_visible="true"
       lpeversion="1"
       pattern="m 305,280 v 25 z m 15,0 v 25 z m 15,0 v 25 z m 15,0 v 25 z m 15,0 v 25 z m 15,0 v 25 z m 15,0 v 25 z m 15,0 v 25 z m 15,0 v 25 z"
       copytype="single_stretched"
       prop_scale="0.48"
       scale_y_rel="false"
       spacing="0"
       normal_offset="-0.2"
       tang_offset="0"
       prop_units="false"
       vertical_pattern="false"
       hide_knot="false"
       fuse_tolerance="0" />
    <marker
       id="DistanceX"
       orient="auto"
       refX="0.0"
       refY="0.0"
       style="overflow:visible">
      <path
         d="M 3,-3 L -3,3 M 0,-5 L  0,5"
         style="stroke:#000000; stroke-width:0.5"
         id="path3475" />
    </marker>
    <pattern
       id="Hatch"
       patternUnits="userSpaceOnUse"
       width="8"
       height="8"
       x="0"
       y="0">
      <path
         d="M8 4 l-4,4"
         stroke="#000000"
         stroke-width="0.25"
         linecap="square"
         id="path3478" />
      <path
         d="M6 2 l-4,4"
         stroke="#000000"
         stroke-width="0.25"
         linecap="square"
         id="path3480" />
      <path
         d="M4 0 l-4,4"
         stroke="#000000"
         stroke-width="0.25"
         linecap="square"
         id="path3482" />
    </pattern>
    <symbol
       id="*Model_Space" />
    <symbol
       id="*Paper_Space" />
  </defs>
  <sodipodi:namedview
     id="base"
     pagecolor="#ffffff"
     bordercolor="#666666"
     borderopacity="1.0"
     inkscape:pageopacity="0.0"
     inkscape:pageshadow="2"
     inkscape:zoom="1.4"
     inkscape:cx="208.84053"
     inkscape:cy="333.85277"
     inkscape:document-units="mm"
     inkscape:current-layer="layer1"
     inkscape:document-rotation="0"
     showgrid="true"
     inkscape:snap-global="false"
     inkscape:window-width="1918"
     inkscape:window-height="2071"
     inkscape:window-x="0"
     inkscape:window-y="0"
     inkscape:window-maximized="0">
    <inkscape:grid
       type="xygrid"
       id="grid3647" />
  </sodipodi:namedview>
  <metadata
     id="metadata2909">
    <rdf:RDF>
      <cc:Work
         rdf:about="">
        <dc:format>image/svg+xml</dc:format>
        <dc:type
           rdf:resource="http://purl.org/dc/dcmitype/StillImage" />
        <dc:title />
      </cc:Work>
    </rdf:RDF>
  </metadata>
  <g
     inkscape:label="Lag 1"
     inkscape:groupmode="layer"
     id="layer1">
    <g
       inkscape:label="0"
       id="g3535"
       transform="matrix(0.26458333,0,0,0.26458333,9.1428624,-236.25)"
       style="stroke:#ff0000">
      <path
         d="M 510.23622,941.10236 V 903.30709"
         style="fill:none;stroke:#ff0000;stroke-linecap:round"
         id="path3489" />
      <path
         d="M 548.0315,960 H 529.13386"
         style="fill:none;stroke:#ff0000;stroke-linecap:round"
         id="path3491" />
      <path
         d="M 510.23622,941.10236 A 18.897638,18.897638 0 0 0 529.13386,960"
         style="fill:none;stroke:#ff0000;stroke-linecap:round"
         id="path3493" />
      <path
         d="M 529.13386,1065.8268 H 548.0315"
         style="fill:none;stroke:#ff0000;stroke-linecap:round"
         id="path3495" />
      <path
         d="m 510.23622,1122.5197 v -37.7953"
         style="fill:none;stroke:#ff0000;stroke-linecap:round"
         id="path3497" />
      <path
         d="m 529.13386,1065.8268 a 18.897638,18.897638 0 0 0 -18.89764,18.8976"
         style="fill:none;stroke:#ff0000;stroke-linecap:round"
         id="path3499" />
      <path
         d="m 37.795276,1122.5197 v -37.7953"
         style="fill:none;stroke:#ff0000;stroke-linecap:round"
         id="path3501" />
      <path
         d="M 18.897638,1065.8268 H 0"
         style="fill:none;stroke:#ff0000;stroke-linecap:round"
         id="path3503" />
      <path
         d="M 37.795276,1084.7244 A 18.897638,18.897638 0 0 0 18.897638,1065.8268"
         style="fill:none;stroke:#ff0000;stroke-linecap:round"
         id="path3505" />
      <path
         d="M 18.897638,960 H 0"
         style="fill:none;stroke:#ff0000;stroke-linecap:round"
         id="path3507" />
      <path
         d="m 37.795276,903.30709 v 37.79527"
         style="fill:none;stroke:#ff0000;stroke-linecap:round"
         id="path3509" />
      <path
         d="M 18.897638,960 A 18.897638,18.897638 0 0 0 37.795276,941.10236"
         style="fill:none;stroke:#ff0000;stroke-linecap:round"
         id="path3511" />
      <path
         d="M 37.795276,903.30709 H 510.23622"
         style="fill:none;stroke:#ff0000;stroke-linecap:round"
         id="path3513" />
      <path
         d="m 548.0315,960 v 105.8268"
         style="fill:none;stroke:#ff0000;stroke-linecap:round"
         id="path3515" />
      <path
         d="M 491.33858,1122.5197 H 37.795276"
         style="fill:none;stroke:#ff0000;stroke-linecap:round"
         id="path3517" />
      <path
         d="M 0,1065.8268 V 960"
         style="fill:none;stroke:#ff0000;stroke-linecap:round"
         id="path3519" />
      <path
         d="m 209.76378,941.10236 a 5.6692915,5.6692915 0 1 0 -11.33858,0 5.6692915,5.6692915 0 1 0 11.33858,0 z"
         style="fill:none;stroke:#ff0000;stroke-linecap:round"
         id="path3521" />
      <path
         d="m 421.41732,1084.7244 a 5.6692915,5.6692915 0 1 0 -11.33858,0 5.6692915,5.6692915 0 1 0 11.33858,0 z"
         style="fill:none;stroke:#ff0000;stroke-linecap:round"
         id="path3523" />
      <path
         d="m 491.33858,1122.5197 h 18.89764"
         style="fill:none;stroke:#ff0000;stroke-linecap:round"
         id="path3525" />
      <path
         d="m 476.22047,986.45669 a 22.677165,22.677165 0 1 0 -45.35433,0 22.677165,22.677165 0 1 0 45.35433,0 z"
         style="fill:none;stroke:#ff0000;stroke-linecap:round"
         id="path3527" />
      <path
         d="m 347.71654,1028.0315 a 18.89764,18.89764 0 1 0 -37.79528,0 18.89764,18.89764 0 1 0 37.79528,0 z"
         style="fill:none;stroke:#ff0000;stroke-linecap:round"
         id="path3529" />
      <path
         d="m 136.37579,986.45669 a 22.989969,22.989969 0 1 0 -45.979932,0 22.989969,22.989969 0 1 0 45.979932,0 z"
         style="fill:none;stroke:#ff0000;stroke-linecap:round"
         id="path3531" />
      <path
         d="m 226.77165,1028.0315 a 22.677165,22.677165 0 1 0 -45.35433,0 22.677165,22.677165 0 1 0 45.35433,0 z"
         style="fill:none;stroke:#ff0000;stroke-linecap:round"
         id="path3533" />
    </g>
    <g
       aria-label="F
u
E
L"
       id="text3585"
       style="font-style:normal;font-variant:normal;font-weight:normal;font-stretch:normal;font-size:4.93889px;line-height:1.25;font-family:'MS 33558';-inkscape-font-specification:'MS 33558, Normal';font-variant-ligatures:normal;font-variant-caps:normal;font-variant-numeric:normal;font-variant-east-asian:normal;text-align:center;text-anchor:middle;stroke-width:0.264583">
      <path
         d="m 18.067934,24.379987 v -4.254005 q 0.04341,-0.318327 0.342443,-0.342443 h 2.334397 q 0.335208,0.02653 0.335208,0.342443 0,0.313504 -0.340031,0.335208 h -1.994367 v 1.319127 h 1.555461 q 0.332797,0.02412 0.33762,0.325562 0.0048,0.301446 -0.33762,0.352089 h -1.555461 v 1.922019 q -0.02412,0.332796 -0.327973,0.337619 -0.301446,0.0048 -0.349677,-0.337619 z"
         style="font-style:normal;font-variant:normal;font-weight:normal;font-stretch:normal;font-size:4.93889px;font-family:'MS 33558';-inkscape-font-specification:'MS 33558, Normal';font-variant-ligatures:normal;font-variant-caps:normal;font-variant-numeric:normal;font-variant-east-asian:normal;stroke-width:0.264583"
         id="path9575" />
      <path
         d="m 21.242762,29.268234 v 0.04823 q -0.0072,0.120578 -0.0096,0.144694 -0.101286,0.73794 -0.605303,1.090029 -0.504018,0.349677 -1.075559,0.327973 -0.571542,-0.02412 -1.046621,-0.417201 -0.472667,-0.393086 -0.513663,-1.145495 v -0.04823 -2.973463 q 0,-0.07235 0.02653,-0.130224 0.115755,-0.253215 0.383439,-0.200161 0.270096,0.05306 0.270096,0.330385 v 2.973463 q 0.03617,0.55466 0.487136,0.829579 0.453375,0.274919 0.952569,-0.02412 0.224276,-0.132636 0.327973,-0.342442 0.106109,-0.209807 0.125402,-0.463021 v -2.973463 q 0,-0.04341 0.0048,-0.06511 0.05547,-0.296623 0.364147,-0.267684 0.30868,0.02894 0.30868,0.332796 z"
         style="font-style:normal;font-variant:normal;font-weight:normal;font-stretch:normal;font-size:4.93889px;font-family:'MS 33558';-inkscape-font-specification:'MS 33558, Normal';font-variant-ligatures:normal;font-variant-caps:normal;font-variant-numeric:normal;font-variant-east-asian:normal;stroke-width:0.264583"
         id="path9577" />
      <path
         d="m 20.744774,32.803592 h -1.99919 v 1.319127 h 1.524111 q 0.342443,0.05064 0.340031,0.344854 0,0.2918 -0.340031,0.340031 h -1.524111 v 1.5844 h 1.99919 q 0.340031,0.05064 0.340031,0.340031 0,0.289388 -0.340031,0.337619 h -2.334397 q -0.301446,-0.03858 -0.342443,-0.342442 v -4.258828 q 0.04582,-0.318327 0.342443,-0.33762 h 2.334397 q 0.340031,0.02653 0.337619,0.340031 0,0.311092 -0.337619,0.332797 z"
         style="font-style:normal;font-variant:normal;font-weight:normal;font-stretch:normal;font-size:4.93889px;font-family:'MS 33558';-inkscape-font-specification:'MS 33558, Normal';font-variant-ligatures:normal;font-variant-caps:normal;font-variant-numeric:normal;font-variant-east-asian:normal;stroke-width:0.264583"
         id="path9579" />
      <path
         d="M 18.288592,43.245678 Q 17.99197,43.226386 17.94615,42.91047 v -4.263651 q 0.05064,-0.347265 0.352089,-0.340031 0.301446,0.0048 0.327973,0.340031 v 3.926032 l 2.225877,-0.0024 q 0.342442,0.03858 0.337619,0.347266 -0.0024,0.306269 -0.340031,0.327973 z"
         style="font-style:normal;font-variant:normal;font-weight:normal;font-stretch:normal;font-size:4.93889px;font-family:'MS 33558';-inkscape-font-specification:'MS 33558, Normal';font-variant-ligatures:normal;font-variant-caps:normal;font-variant-numeric:normal;font-variant-east-asian:normal;stroke-width:0.264583"
         id="path9581" />
    </g>
    <g
       aria-label="MASTER"
       id="text3599"
       style="font-style:normal;font-variant:normal;font-weight:normal;font-stretch:normal;font-size:2.82222px;line-height:1.25;font-family:'MS 33558';-inkscape-font-specification:'MS 33558, Normal';font-variant-ligatures:normal;font-variant-caps:normal;font-variant-numeric:normal;font-variant-east-asian:normal;text-align:center;text-anchor:middle;stroke-width:0.264583">
      <path
         d="M 34.707988,7.2906215 Q 34.677671,7.4835467 34.512306,7.4835467 34.34832,7.4821687 34.319381,7.2906215 V 5.5694531 l -0.472667,0.8089078 q -0.07579,0.09095 -0.169498,0.095085 -0.09233,0.00413 -0.165365,-0.095085 l -0.46991,-0.8047737 0.0014,1.7170343 Q 33.02127,7.4821687 32.843503,7.4821687 32.667115,7.4807907 32.653334,7.2906215 V 4.8570079 q 0.01102,-0.1584743 0.139182,-0.1887911 0.128157,-0.031695 0.223242,0.086816 l 0.662836,1.1396367 0.669726,-1.1396367 q 0.09508,-0.1185112 0.220486,-0.086816 0.126779,0.031695 0.139182,0.1887911 z"
         style="font-style:normal;font-variant:normal;font-weight:normal;font-stretch:normal;font-size:2.82222px;font-family:'MS 33558';-inkscape-font-specification:'MS 33558, Normal';font-variant-ligatures:normal;font-variant-caps:normal;font-variant-numeric:normal;font-variant-east-asian:normal;stroke-width:0.264583"
         id="path9562" />
      <path
         d="m 36.531131,6.5781763 -0.418923,-1.1575512 -0.42168,1.1575512 z m -0.418923,-1.1575512 0.418923,1.1575512 z m -1.063845,1.7969605 q 0.220486,-0.6077144 0.440972,-1.2140508 0.221864,-0.6077144 0.443728,-1.2154287 0.04548,-0.1254014 0.180523,-0.1267795 0.135047,-0.00138 0.1819,0.1267795 l 0.883322,2.4363696 q 0.04134,0.1943033 -0.118511,0.2508028 -0.159852,0.0565 -0.246669,-0.1157551 L 36.671691,6.9654048 H 35.54859 l -0.137803,0.3844723 q -0.08819,0.1736327 -0.250803,0.1143771 -0.162609,-0.060634 -0.111621,-0.2466686 z"
         style="font-style:normal;font-variant:normal;font-weight:normal;font-stretch:normal;font-size:2.82222px;font-family:'MS 33558';-inkscape-font-specification:'MS 33558, Normal';font-variant-ligatures:normal;font-variant-caps:normal;font-variant-numeric:normal;font-variant-east-asian:normal;stroke-width:0.264583"
         id="path9564" />
      <path
         d="m 38.836587,5.9814862 0.02205,0.00965 0.0248,0.012402 0.02205,0.012402 q 0.0096,0.00689 0.02067,0.01378 0.0124,0.00551 0.02343,0.012402 0.272851,0.1791448 0.337619,0.4960933 0.02481,0.1240234 0.01102,0.2549369 -0.02205,0.1874131 -0.132291,0.3472654 -0.108865,0.1584743 -0.274229,0.2452906 -0.177767,0.093706 -0.367936,0.093706 -0.319705,0 -0.610471,-0.081304 -0.290766,-0.082682 -0.414789,-0.4395938 -0.01654,-0.045475 -0.02481,-0.093706 -0.0083,-0.048231 -0.01929,-0.096463 -0.02067,-0.099219 0.04823,-0.1750108 0.07028,-0.075792 0.173633,-0.057878 0.108865,0.022049 0.151584,0.1350476 l 0.0041,0.012402 q 0.06615,0.2990341 0.230132,0.3569117 0.165365,0.057878 0.458887,0.052365 0.270095,0 0.370692,-0.2535589 0.0441,-0.112999 0.01378,-0.2342663 Q 38.875172,6.4817137 38.7856,6.4004095 38.745637,6.3659586 38.680869,6.3356418 L 38.042838,6.0559002 38.022167,6.0448759 Q 37.709353,5.8795115 37.633561,5.5749653 37.541232,5.2221878 37.761718,4.9424462 37.983582,4.6613266 38.34325,4.6613266 l 0.151584,0.00413 q 0.07441,0.01378 0.143316,0.027561 0.0689,0.012402 0.139181,0.044097 0.173633,0.081304 0.265962,0.223242 0.09233,0.1419378 0.166742,0.3073023 0.0069,0.015158 0.0124,0.035829 0.01516,0.067524 -0.01378,0.1226453 -0.01654,0.034451 -0.03445,0.052365 -0.01791,0.017914 -0.02894,0.024805 -0.07166,0.050987 -0.157096,0.030317 -0.08544,-0.019293 -0.130913,-0.110243 -0.03583,-0.079926 -0.07717,-0.1626084 -0.03996,-0.08406 -0.112999,-0.1391817 -0.03032,-0.022049 -0.05926,-0.031695 -0.02756,-0.011024 -0.06201,-0.023427 l -0.08957,-0.015158 -0.12678,-0.00413 q -0.184657,0.00276 -0.282497,0.1598524 -0.06615,0.1005967 -0.04961,0.22462 0.01929,0.1529621 0.143316,0.2370224 0.0055,0.00413 0.0124,0.00965 0.0069,0.00413 0.01516,0.00827 l 0.01516,0.00689 0.01654,0.00689 z"
         style="font-style:normal;font-variant:normal;font-weight:normal;font-stretch:normal;font-size:2.82222px;font-family:'MS 33558';-inkscape-font-specification:'MS 33558, Normal';font-variant-ligatures:normal;font-variant-caps:normal;font-variant-numeric:normal;font-variant-east-asian:normal;stroke-width:0.264583"
         id="path9566" />
      <path
         d="M 40.342782,7.2906215 V 5.0499331 h -0.50574 q -0.192925,-0.015158 -0.192925,-0.1929252 0.0014,-0.1791448 0.192925,-0.1956813 h 1.398708 q 0.190169,0.015159 0.190169,0.1956813 0.0014,0.1791449 -0.190169,0.1929252 h -0.504362 v 2.2406884 q -0.03169,0.1956813 -0.203949,0.1929252 -0.170877,-0.00276 -0.184657,-0.1929252 z"
         style="font-style:normal;font-variant:normal;font-weight:normal;font-stretch:normal;font-size:2.82222px;font-family:'MS 33558';-inkscape-font-specification:'MS 33558, Normal';font-variant-ligatures:normal;font-variant-caps:normal;font-variant-numeric:normal;font-variant-east-asian:normal;stroke-width:0.264583"
         id="path9568" />
      <path
         d="M 43.367573,5.045799 H 42.225181 V 5.7995853 H 43.0961 q 0.195681,0.028939 0.194303,0.1970593 0,0.1667425 -0.194303,0.1943033 h -0.870919 v 0.9053704 h 1.142392 q 0.194304,0.028939 0.194304,0.1943032 0,0.1653645 -0.194304,0.1929252 h -1.33394 Q 41.861379,7.4614981 41.837952,7.2878655 V 4.8542518 q 0.02618,-0.1819009 0.195681,-0.1929252 h 1.33394 q 0.194304,0.015159 0.192926,0.1943033 0,0.1777668 -0.192926,0.1901691 z"
         style="font-style:normal;font-variant:normal;font-weight:normal;font-stretch:normal;font-size:2.82222px;font-family:'MS 33558';-inkscape-font-specification:'MS 33558, Normal';font-variant-ligatures:normal;font-variant-caps:normal;font-variant-numeric:normal;font-variant-east-asian:normal;stroke-width:0.264583"
         id="path9570" />
      <path
         d="m 45.685432,7.1845127 q 0.08819,0.1557182 -0.04961,0.261827 -0.06615,0.046853 -0.152962,0.031695 -0.08544,-0.015158 -0.125401,-0.085438 l -0.679373,-1.073491 h -0.344509 v 0.9701382 q 0,0.1198892 -0.108865,0.1736327 -0.108865,0.052365 -0.203949,-0.020671 -0.07579,-0.0565 -0.07579,-0.1529621 V 4.8542518 q 0,-0.079926 0.05512,-0.1364256 0.0565,-0.0565 0.137804,-0.0565 h 0.855761 q 0.30868,0 0.536056,0.1970594 0.227376,0.1956812 0.282498,0.4974714 0.05788,0.3238387 -0.137804,0.6063363 -0.194303,0.2811196 -0.516764,0.3417532 l -0.02618,0.00413 z M 44.993657,5.9318769 q 0.14056,0 0.259071,-0.085438 0.119889,-0.085438 0.16123,-0.223242 0.06477,-0.2122177 -0.05926,-0.3830943 -0.124024,-0.1722547 -0.341754,-0.1901692 h -0.679372 v 0.8819438 z"
         style="font-style:normal;font-variant:normal;font-weight:normal;font-stretch:normal;font-size:2.82222px;font-family:'MS 33558';-inkscape-font-specification:'MS 33558, Normal';font-variant-ligatures:normal;font-variant-caps:normal;font-variant-numeric:normal;font-variant-east-asian:normal;stroke-width:0.264583"
         id="path9572" />
    </g>
    <g
       aria-label="OFF"
       id="text3603"
       style="font-style:normal;font-variant:normal;font-weight:normal;font-stretch:normal;font-size:2.82222px;line-height:1.25;font-family:'MS 33558';-inkscape-font-specification:'MS 33558, Normal';font-variant-ligatures:normal;font-variant-caps:normal;font-variant-numeric:normal;font-variant-east-asian:normal;text-align:center;text-anchor:middle;stroke-width:0.264583">
      <path
         d="m 38.008777,55.719657 q 0.126779,0.381716 0.09508,0.792371 -0.03032,0.410655 -0.22462,0.749653 -0.122645,0.210839 -0.334863,0.358289 -0.212217,0.14745 -0.468532,0.103353 -0.417546,-0.07304 -0.63941,-0.43546 -0.221864,-0.362424 -0.254937,-0.806151 -0.03169,-0.445106 0.11989,-0.866786 0.152962,-0.421679 0.486447,-0.613226 0.162608,-0.09371 0.340375,-0.09371 0.338997,0 0.553971,0.256315 0.214974,0.254937 0.326595,0.555349 z m -0.869542,-0.420301 q -0.253559,0 -0.384472,0.272851 -0.129536,0.272851 -0.163986,0.465777 -0.02618,0.140559 -0.01929,0.340375 0.0069,0.199815 0.05788,0.395496 0.05099,0.194304 0.152962,0.3514 0.101974,0.155718 0.267339,0.206705 0.192925,0.06063 0.332107,-0.07579 0.14056,-0.137803 0.212218,-0.292143 0.07304,-0.158475 0.09922,-0.416168 0.02756,-0.257693 -0.0124,-0.514008 -0.03859,-0.257693 -0.152962,-0.46302 -0.114377,-0.206706 -0.325217,-0.263205 -0.02756,-0.0083 -0.06339,-0.0083 z"
         style="font-style:normal;font-variant:normal;font-weight:normal;font-stretch:normal;font-size:2.82222px;font-family:'MS 33558';-inkscape-font-specification:'MS 33558, Normal';font-variant-ligatures:normal;font-variant-caps:normal;font-variant-numeric:normal;font-variant-east-asian:normal;stroke-width:0.264583"
         id="path9555" />
      <path
         d="m 38.474553,57.534532 v -2.430858 q 0.02481,-0.181901 0.195681,-0.195681 h 1.33394 q 0.191548,0.01516 0.191548,0.195681 0,0.179145 -0.194304,0.191548 h -1.139636 v 0.753786 h 0.888834 q 0.190169,0.01378 0.192925,0.186035 0.0028,0.172254 -0.192925,0.201193 h -0.888834 v 1.098296 q -0.01378,0.190169 -0.187413,0.192925 -0.172255,0.0028 -0.199816,-0.192925 z"
         style="font-style:normal;font-variant:normal;font-weight:normal;font-stretch:normal;font-size:2.82222px;font-family:'MS 33558';-inkscape-font-specification:'MS 33558, Normal';font-variant-ligatures:normal;font-variant-caps:normal;font-variant-numeric:normal;font-variant-east-asian:normal;stroke-width:0.264583"
         id="path9557" />
      <path
         d="m 40.581572,57.534532 v -2.430858 q 0.0248,-0.181901 0.195681,-0.195681 h 1.33394 q 0.191547,0.01516 0.191547,0.195681 0,0.179145 -0.194303,0.191548 H 40.9688 v 0.753786 h 0.888834 q 0.190169,0.01378 0.192925,0.186035 0.0028,0.172254 -0.192925,0.201193 H 40.9688 v 1.098296 q -0.01378,0.190169 -0.187413,0.192925 -0.172255,0.0028 -0.199815,-0.192925 z"
         style="font-style:normal;font-variant:normal;font-weight:normal;font-stretch:normal;font-size:2.82222px;font-family:'MS 33558';-inkscape-font-specification:'MS 33558, Normal';font-variant-ligatures:normal;font-variant-caps:normal;font-variant-numeric:normal;font-variant-east-asian:normal;stroke-width:0.264583"
         id="path9559" />
    </g>
    <g
       aria-label="TANK
INERTING"
       id="text3607"
       style="font-style:normal;font-variant:normal;font-weight:normal;font-stretch:normal;font-size:2.82222px;line-height:1.25;font-family:'MS 33558';-inkscape-font-specification:'MS 33558, Normal';font-variant-ligatures:normal;font-variant-caps:normal;font-variant-numeric:normal;font-variant-east-asian:normal;text-align:center;text-anchor:middle;stroke-width:0.264583">
      <path
         d="m 59.50987,24.262237 v -2.240689 h -0.50574 q -0.192925,-0.01516 -0.192925,-0.192925 0.0014,-0.179145 0.192925,-0.195681 h 1.398708 q 0.190169,0.01516 0.190169,0.195681 0.0014,0.179145 -0.190169,0.192925 h -0.504362 v 2.240689 q -0.03169,0.195681 -0.203949,0.192925 -0.170877,-0.0028 -0.184657,-0.192925 z"
         style="font-style:normal;font-variant:normal;font-weight:normal;font-stretch:normal;font-size:2.82222px;font-family:'MS 33558';-inkscape-font-specification:'MS 33558, Normal';font-variant-ligatures:normal;font-variant-caps:normal;font-variant-numeric:normal;font-variant-east-asian:normal;stroke-width:0.264583"
         id="path9530" />
      <path
         d="m 62.497455,23.549792 -0.418924,-1.157552 -0.421679,1.157552 z m -0.418924,-1.157552 0.418924,1.157552 z m -1.063844,1.796961 q 0.220486,-0.607715 0.440971,-1.214051 0.221864,-0.607714 0.443728,-1.215429 0.04548,-0.125401 0.180523,-0.126779 0.135048,-0.0014 0.181901,0.126779 l 0.883322,2.43637 q 0.04134,0.194303 -0.118511,0.250803 -0.159852,0.0565 -0.246669,-0.115755 L 62.638014,23.93702 h -1.1231 l -0.137804,0.384472 q -0.08819,0.173633 -0.250802,0.114378 -0.162609,-0.06063 -0.111621,-0.246669 z"
         style="font-style:normal;font-variant:normal;font-weight:normal;font-stretch:normal;font-size:2.82222px;font-family:'MS 33558';-inkscape-font-specification:'MS 33558, Normal';font-variant-ligatures:normal;font-variant-caps:normal;font-variant-numeric:normal;font-variant-east-asian:normal;stroke-width:0.264583"
         id="path9532" />
      <path
         d="m 65.319674,24.264993 q 0,0.144694 -0.140559,0.184657 -0.139182,0.03859 -0.216352,-0.08268 l -1.157551,-1.856216 v 1.754241 q -0.03032,0.192925 -0.195682,0.192925 -0.163986,0 -0.192925,-0.192925 v -2.433614 q 0.02067,-0.143316 0.146072,-0.188791 0.12678,-0.04547 0.21084,0.08544 l 1.157551,1.858972 v -1.75562 q 0.02618,-0.197059 0.199815,-0.194303 0.175011,0.0014 0.188791,0.194303 z"
         style="font-style:normal;font-variant:normal;font-weight:normal;font-stretch:normal;font-size:2.82222px;font-family:'MS 33558';-inkscape-font-specification:'MS 33558, Normal';font-variant-ligatures:normal;font-variant-caps:normal;font-variant-numeric:normal;font-variant-east-asian:normal;stroke-width:0.264583"
         id="path9534" />
      <path
         d="m 67.115257,21.685307 q 0.157096,-0.114377 0.278363,0.01378 0.121268,0.126779 -0.0069,0.267339 l -0.638031,0.613226 0.808908,1.595768 q 0.05788,0.194303 -0.09646,0.267339 -0.15434,0.07304 -0.250803,-0.09233 l -0.755164,-1.489658 -0.351399,0.338997 v 1.065223 q -0.03032,0.194303 -0.202572,0.191547 -0.172255,-0.0014 -0.186035,-0.191547 v -2.43637 q 0.01378,-0.191547 0.186035,-0.194303 0.172255,-0.0041 0.202572,0.194303 v 0.830957 z"
         style="font-style:normal;font-variant:normal;font-weight:normal;font-stretch:normal;font-size:2.82222px;font-family:'MS 33558';-inkscape-font-specification:'MS 33558, Normal';font-variant-ligatures:normal;font-variant-caps:normal;font-variant-numeric:normal;font-variant-east-asian:normal;stroke-width:0.264583"
         id="path9536" />
      <path
         d="m 56.325915,27.792768 q -0.03032,0.194303 -0.197059,0.192925 -0.165365,0 -0.194303,-0.192925 v -2.43637 q 0.02894,-0.194303 0.194303,-0.194303 0.166742,-0.0014 0.197059,0.194303 z"
         style="font-style:normal;font-variant:normal;font-weight:normal;font-stretch:normal;font-size:2.82222px;font-family:'MS 33558';-inkscape-font-specification:'MS 33558, Normal';font-variant-ligatures:normal;font-variant-caps:normal;font-variant-numeric:normal;font-variant-east-asian:normal;stroke-width:0.264583"
         id="path9538" />
      <path
         d="m 58.620347,27.792768 q 0,0.144694 -0.14056,0.184657 -0.139182,0.03859 -0.216352,-0.08268 l -1.157551,-1.856216 v 1.754241 q -0.03032,0.192925 -0.195681,0.192925 -0.163987,0 -0.192925,-0.192925 v -2.433614 q 0.02067,-0.143315 0.146072,-0.188791 0.126779,-0.04547 0.210839,0.08544 l 1.157551,1.858972 v -1.75562 q 0.02618,-0.197059 0.199816,-0.194303 0.175011,0.0014 0.188791,0.194303 z"
         style="font-style:normal;font-variant:normal;font-weight:normal;font-stretch:normal;font-size:2.82222px;font-family:'MS 33558';-inkscape-font-specification:'MS 33558, Normal';font-variant-ligatures:normal;font-variant-caps:normal;font-variant-numeric:normal;font-variant-east-asian:normal;stroke-width:0.264583"
         id="path9540" />
      <path
         d="m 60.545465,25.545189 h -1.142393 v 0.753787 h 0.870919 q 0.195682,0.02894 0.194304,0.197059 0,0.166743 -0.194304,0.194303 h -0.870919 v 0.905371 h 1.142393 q 0.194303,0.02894 0.194303,0.194303 0,0.165364 -0.194303,0.192925 h -1.33394 q -0.172255,-0.02205 -0.195682,-0.195681 v -2.433614 q 0.02618,-0.181901 0.195682,-0.192925 h 1.33394 q 0.194303,0.01516 0.192925,0.194303 0,0.177767 -0.192925,0.190169 z"
         style="font-style:normal;font-variant:normal;font-weight:normal;font-stretch:normal;font-size:2.82222px;font-family:'MS 33558';-inkscape-font-specification:'MS 33558, Normal';font-variant-ligatures:normal;font-variant-caps:normal;font-variant-numeric:normal;font-variant-east-asian:normal;stroke-width:0.264583"
         id="path9542" />
      <path
         d="m 62.863323,27.683903 q 0.08819,0.155718 -0.04961,0.261827 -0.06615,0.04685 -0.152962,0.03169 -0.08544,-0.01516 -0.125402,-0.08544 l -0.679372,-1.073491 h -0.344509 v 0.970138 q 0,0.119889 -0.108865,0.173633 -0.108865,0.05236 -0.20395,-0.02067 -0.07579,-0.0565 -0.07579,-0.152962 v -2.434992 q 0,-0.07993 0.05512,-0.136425 0.0565,-0.0565 0.137803,-0.0565 h 0.855761 q 0.308681,0 0.536057,0.197059 0.227376,0.195682 0.282498,0.497472 0.05788,0.323839 -0.137804,0.606336 -0.194303,0.28112 -0.516764,0.341753 l -0.02618,0.0041 z m -0.691775,-1.252636 q 0.14056,0 0.259071,-0.08544 0.11989,-0.08544 0.161231,-0.223242 0.06477,-0.212218 -0.05926,-0.383094 -0.124023,-0.172255 -0.341753,-0.190169 h -0.679372 v 0.881943 z"
         style="font-style:normal;font-variant:normal;font-weight:normal;font-stretch:normal;font-size:2.82222px;font-family:'MS 33558';-inkscape-font-specification:'MS 33558, Normal';font-variant-ligatures:normal;font-variant-caps:normal;font-variant-numeric:normal;font-variant-east-asian:normal;stroke-width:0.264583"
         id="path9544" />
      <path
         d="m 64.067728,27.790012 v -2.240688 h -0.50574 q -0.192925,-0.01516 -0.192925,-0.192926 0.0014,-0.179144 0.192925,-0.195681 h 1.398708 q 0.190169,0.01516 0.190169,0.195681 0.0014,0.179145 -0.190169,0.192926 h -0.504362 v 2.240688 q -0.03169,0.195681 -0.203949,0.192925 -0.170877,-0.0028 -0.184657,-0.192925 z"
         style="font-style:normal;font-variant:normal;font-weight:normal;font-stretch:normal;font-size:2.82222px;font-family:'MS 33558';-inkscape-font-specification:'MS 33558, Normal';font-variant-ligatures:normal;font-variant-caps:normal;font-variant-numeric:normal;font-variant-east-asian:normal;stroke-width:0.264583"
         id="path9546" />
      <path
         d="m 65.954261,27.792768 q -0.03032,0.194303 -0.19706,0.192925 -0.165364,0 -0.194303,-0.192925 v -2.43637 q 0.02894,-0.194303 0.194303,-0.194303 0.166743,-0.0014 0.19706,0.194303 z"
         style="font-style:normal;font-variant:normal;font-weight:normal;font-stretch:normal;font-size:2.82222px;font-family:'MS 33558';-inkscape-font-specification:'MS 33558, Normal';font-variant-ligatures:normal;font-variant-caps:normal;font-variant-numeric:normal;font-variant-east-asian:normal;stroke-width:0.264583"
         id="path9548" />
      <path
         d="m 68.248693,27.792768 q 0,0.144694 -0.14056,0.184657 -0.139182,0.03859 -0.216352,-0.08268 L 66.73423,26.038527 v 1.754241 q -0.03032,0.192925 -0.195681,0.192925 -0.163987,0 -0.192926,-0.192925 v -2.433614 q 0.02067,-0.143315 0.146072,-0.188791 0.12678,-0.04547 0.21084,0.08544 l 1.157551,1.858972 v -1.75562 q 0.02618,-0.197059 0.199816,-0.194303 0.17501,0.0014 0.188791,0.194303 z"
         style="font-style:normal;font-variant:normal;font-weight:normal;font-stretch:normal;font-size:2.82222px;font-family:'MS 33558';-inkscape-font-specification:'MS 33558, Normal';font-variant-ligatures:normal;font-variant-caps:normal;font-variant-numeric:normal;font-variant-east-asian:normal;stroke-width:0.264583"
         id="path9550" />
      <path
         d="m 69.586767,26.846057 -0.0124,-0.0014 q -0.16812,-0.02067 -0.16812,-0.191547 0,-0.170876 0.16812,-0.191547 l 0.0124,-0.0028 h 0.0124 0.508496 q 0.07993,0 0.136425,0.05788 0.05788,0.0565 0.05788,0.136425 v 0.698665 l -0.01654,0.03583 -0.0096,0.02205 -0.0096,0.02067 -0.01102,0.02067 -0.01103,0.02067 -0.0096,0.02067 -0.01102,0.02067 -0.0124,0.02067 q -0.267339,0.454752 -0.664213,0.445106 -0.396875,-0.01102 -0.66697,-0.44924 -0.128158,-0.208084 -0.19017,-0.520898 -0.06201,-0.314193 -0.03721,-0.640787 0.02481,-0.327973 0.151585,-0.622873 0.128157,-0.296278 0.381716,-0.469911 0.316948,-0.214974 0.61736,-0.04961 0.300413,0.163986 0.449241,0.461642 l 0.01102,0.02205 0.0083,0.01929 0.01102,0.02067 q 0.04685,0.130913 -0.03583,0.213596 -0.07993,0.07855 -0.173632,0.05926 -0.09371,-0.02067 -0.144694,-0.111621 -0.161231,-0.39963 -0.416167,-0.348643 -0.253559,0.05099 -0.380339,0.416167 -0.124023,0.352778 -0.09784,0.759299 0.02618,0.405142 0.264583,0.706933 0.163986,0.210839 0.333485,0.135047 0.169498,-0.07579 0.267339,-0.282497 l 0.01516,-0.03032 v -0.420301 z"
         style="font-style:normal;font-variant:normal;font-weight:normal;font-stretch:normal;font-size:2.82222px;font-family:'MS 33558';-inkscape-font-specification:'MS 33558, Normal';font-variant-ligatures:normal;font-variant-caps:normal;font-variant-numeric:normal;font-variant-east-asian:normal;stroke-width:0.264583"
         id="path9552" />
    </g>
    <g
       aria-label="OFF"
       id="text3613"
       style="font-style:normal;font-variant:normal;font-weight:normal;font-stretch:normal;font-size:2.82222px;line-height:1.25;font-family:'MS 33558';-inkscape-font-specification:'MS 33558, Normal';font-variant-ligatures:normal;font-variant-caps:normal;font-variant-numeric:normal;font-variant-east-asian:normal;text-align:center;text-anchor:middle;stroke-width:0.264583">
      <path
         d="m 61.652095,44.093436 q 0.126779,0.381717 0.09508,0.792372 -0.03032,0.410655 -0.22462,0.749652 -0.122645,0.21084 -0.334863,0.358289 -0.212217,0.14745 -0.468532,0.103353 -0.417545,-0.07304 -0.639409,-0.435459 -0.221864,-0.362424 -0.254937,-0.806152 -0.03169,-0.445106 0.119889,-0.866786 0.152962,-0.421679 0.486447,-0.613226 0.162608,-0.09371 0.340375,-0.09371 0.338997,0 0.553971,0.256315 0.214974,0.254937 0.326595,0.555349 z m -0.869542,-0.420301 q -0.253558,0 -0.384472,0.272851 -0.129535,0.272852 -0.163986,0.465777 -0.02618,0.14056 -0.01929,0.340375 0.0069,0.199815 0.05788,0.395497 0.05099,0.194303 0.152962,0.351399 0.101975,0.155718 0.267339,0.206706 0.192925,0.06063 0.332107,-0.07579 0.14056,-0.137804 0.212218,-0.292144 0.07304,-0.158474 0.09922,-0.416167 0.02756,-0.257693 -0.0124,-0.514008 -0.03859,-0.257693 -0.152962,-0.463021 -0.114377,-0.206705 -0.325217,-0.263205 -0.02756,-0.0083 -0.06339,-0.0083 z"
         style="font-style:normal;font-variant:normal;font-weight:normal;font-stretch:normal;font-size:2.82222px;font-family:'MS 33558';-inkscape-font-specification:'MS 33558, Normal';font-variant-ligatures:normal;font-variant-caps:normal;font-variant-numeric:normal;font-variant-east-asian:normal;stroke-width:0.264583"
         id="path9523" />
      <path
         d="m 62.117871,45.908311 v -2.430857 q 0.02481,-0.181901 0.195682,-0.195682 h 1.33394 q 0.191547,0.01516 0.191547,0.195682 0,0.179144 -0.194303,0.191547 H 62.5051 v 0.753786 h 0.888834 q 0.190169,0.01378 0.192925,0.186035 0.0028,0.172255 -0.192925,0.201194 H 62.5051 v 1.098295 q -0.01378,0.190169 -0.187413,0.192925 -0.172255,0.0028 -0.199816,-0.192925 z"
         style="font-style:normal;font-variant:normal;font-weight:normal;font-stretch:normal;font-size:2.82222px;font-family:'MS 33558';-inkscape-font-specification:'MS 33558, Normal';font-variant-ligatures:normal;font-variant-caps:normal;font-variant-numeric:normal;font-variant-east-asian:normal;stroke-width:0.264583"
         id="path9525" />
      <path
         d="m 64.22489,45.908311 v -2.430857 q 0.02481,-0.181901 0.195681,-0.195682 h 1.33394 q 0.191547,0.01516 0.191547,0.195682 0,0.179144 -0.194303,0.191547 h -1.139637 v 0.753786 h 0.888834 q 0.190169,0.01378 0.192925,0.186035 0.0028,0.172255 -0.192925,0.201194 h -0.888834 v 1.098295 q -0.01378,0.190169 -0.187413,0.192925 -0.172254,0.0028 -0.199815,-0.192925 z"
         style="font-style:normal;font-variant:normal;font-weight:normal;font-stretch:normal;font-size:2.82222px;font-family:'MS 33558';-inkscape-font-specification:'MS 33558, Normal';font-variant-ligatures:normal;font-variant-caps:normal;font-variant-numeric:normal;font-variant-east-asian:normal;stroke-width:0.264583"
         id="path9527" />
    </g>
    <g
       aria-label="ENG FEED"
       id="text3617"
       style="font-style:normal;font-variant:normal;font-weight:normal;font-stretch:normal;font-size:3.52778px;line-height:1.25;font-family:'MS 33558';-inkscape-font-specification:'MS 33558, Normal';font-variant-ligatures:normal;font-variant-caps:normal;font-variant-numeric:normal;font-variant-east-asian:normal;text-align:center;text-anchor:middle;stroke-width:0.264583">
      <path
         d="m 88.395409,6.5768717 h -1.427993 v 0.9422342 h 1.08865 q 0.244602,0.036174 0.24288,0.2463245 0,0.2084284 -0.24288,0.2428794 h -1.08865 v 1.1317146 h 1.427993 q 0.242879,0.036174 0.242879,0.2428794 0,0.2067059 -0.242879,0.2411568 H 86.727981 Q 86.512663,9.5964998 86.483379,9.3794587 V 6.3374374 q 0.03273,-0.2273764 0.244602,-0.2411568 h 1.667428 q 0.242879,0.018948 0.241156,0.2428794 0,0.2222088 -0.241156,0.2377117 z"
         style="font-style:normal;font-variant:normal;font-weight:normal;font-stretch:normal;font-size:3.52778px;font-family:'MS 33558';-inkscape-font-specification:'MS 33558, Normal';font-variant-ligatures:normal;font-variant-caps:normal;font-variant-numeric:normal;font-variant-east-asian:normal;stroke-width:0.264583"
         id="path9508" />
      <path
         d="m 91.495996,9.3863489 q 0,0.1808676 -0.175699,0.2308215 -0.173978,0.048231 -0.270441,-0.1033529 L 89.602915,7.1935442 v 2.1928047 q -0.0379,0.2411568 -0.244602,0.2411568 -0.204983,0 -0.241156,-0.2411568 V 6.3443276 q 0.02584,-0.1791451 0.18259,-0.2359892 0.158474,-0.056844 0.26355,0.106798 l 1.446941,2.3237185 V 6.3443276 q 0.03273,-0.2463245 0.249769,-0.2428794 0.218764,0.00172 0.235989,0.2428794 z"
         style="font-style:normal;font-variant:normal;font-weight:normal;font-stretch:normal;font-size:3.52778px;font-family:'MS 33558';-inkscape-font-specification:'MS 33558, Normal';font-variant-ligatures:normal;font-variant-caps:normal;font-variant-numeric:normal;font-variant-east-asian:normal;stroke-width:0.264583"
         id="path9510" />
      <path
         d="m 93.168591,8.2029578 -0.0155,-0.00172 Q 92.942937,8.175397 92.942937,7.961801 q 0,-0.2135961 0.210151,-0.2394343 l 0.0155,-0.00345 h 0.0155 0.635621 q 0.09991,0 0.170532,0.072347 0.07235,0.070625 0.07235,0.1705324 v 0.8733323 l -0.02067,0.044786 -0.01206,0.027561 -0.01206,0.025838 -0.01378,0.025838 -0.01378,0.025838 -0.01206,0.025838 -0.01378,0.025838 -0.0155,0.025838 Q 93.614731,9.6309508 93.118637,9.618893 92.622543,9.6051126 92.284924,9.0573421 92.124727,8.7972372 92.047212,8.4062186 q -0.07752,-0.3927411 -0.04651,-0.8009852 0.03101,-0.4099667 0.189481,-0.7785921 0.160197,-0.370348 0.477146,-0.5873892 0.396186,-0.2687176 0.771701,-0.062012 0.375516,0.2049833 0.561551,0.5770538 l 0.01378,0.027561 0.01033,0.024116 0.01378,0.025838 q 0.05857,0.1636422 -0.04479,0.2669951 -0.09991,0.098185 -0.217041,0.07407 Q 93.659518,7.1470354 93.595783,7.0333472 93.394245,6.533808 93.075574,6.5975423 92.758625,6.6612766 92.60015,7.117752 q -0.155029,0.4409726 -0.122301,0.9491245 0.03273,0.5064293 0.33073,0.8836675 0.204983,0.26355 0.416856,0.1688098 0.211874,-0.09474 0.334175,-0.3531225 l 0.01895,-0.037896 V 8.2029578 Z"
         style="font-style:normal;font-variant:normal;font-weight:normal;font-stretch:normal;font-size:3.52778px;font-family:'MS 33558';-inkscape-font-specification:'MS 33558, Normal';font-variant-ligatures:normal;font-variant-caps:normal;font-variant-numeric:normal;font-variant-east-asian:normal;stroke-width:0.264583"
         id="path9512" />
      <path
         d="M 96.151925,9.3794587 V 6.3408825 q 0.03101,-0.2273764 0.244602,-0.2446019 h 1.667427 q 0.239435,0.018948 0.239435,0.2446019 0,0.2239314 -0.24288,0.2394343 H 96.635961 V 7.522551 h 1.111044 q 0.237712,0.017226 0.241157,0.2325441 0.0034,0.2153186 -0.241157,0.2514922 h -1.111044 v 1.3728714 q -0.01722,0.2377117 -0.234266,0.2411568 -0.215319,0.00345 -0.24977,-0.2411568 z"
         style="font-style:normal;font-variant:normal;font-weight:normal;font-stretch:normal;font-size:3.52778px;font-family:'MS 33558';-inkscape-font-specification:'MS 33558, Normal';font-variant-ligatures:normal;font-variant-caps:normal;font-variant-numeric:normal;font-variant-east-asian:normal;stroke-width:0.264583"
         id="path9514" />
      <path
         d="m 100.69773,6.5768717 h -1.427992 v 0.9422342 h 1.088652 q 0.2446,0.036174 0.24288,0.2463245 0,0.2084284 -0.24288,0.2428794 h -1.088652 v 1.1317146 h 1.427992 q 0.24288,0.036174 0.24288,0.2428794 0,0.2067059 -0.24288,0.2411568 H 99.030304 Q 98.814985,9.5964998 98.785702,9.3794587 V 6.3374374 Q 98.81843,6.110061 99.030304,6.0962806 h 1.667426 q 0.24288,0.018948 0.24116,0.2428794 0,0.2222088 -0.24116,0.2377117 z"
         style="font-style:normal;font-variant:normal;font-weight:normal;font-stretch:normal;font-size:3.52778px;font-family:'MS 33558';-inkscape-font-specification:'MS 33558, Normal';font-variant-ligatures:normal;font-variant-caps:normal;font-variant-numeric:normal;font-variant-east-asian:normal;stroke-width:0.264583"
         id="path9516" />
      <path
         d="m 103.33151,6.5768717 h -1.42799 v 0.9422342 h 1.08865 q 0.2446,0.036174 0.24288,0.2463245 0,0.2084284 -0.24288,0.2428794 h -1.08865 v 1.1317146 h 1.42799 q 0.24288,0.036174 0.24288,0.2428794 0,0.2067059 -0.24288,0.2411568 h -1.66743 q -0.21532,-0.027561 -0.2446,-0.2446019 V 6.3374374 q 0.0327,-0.2273764 0.2446,-0.2411568 h 1.66743 q 0.24288,0.018948 0.24116,0.2428794 0,0.2222088 -0.24116,0.2377117 z"
         style="font-style:normal;font-variant:normal;font-weight:normal;font-stretch:normal;font-size:3.52778px;font-family:'MS 33558';-inkscape-font-specification:'MS 33558, Normal';font-variant-ligatures:normal;font-variant-caps:normal;font-variant-numeric:normal;font-variant-east-asian:normal;stroke-width:0.264583"
         id="path9518" />
      <path
         d="m 104.29441,6.0962806 h 0.81132 q 0.60462,0 0.90607,0.5512156 0.30144,0.5512156 0.30144,1.2126744 0,0.6614588 -0.30317,1.2126744 -0.30144,0.5512156 -0.90434,0.5512156 h -0.81132 0.003 -0.003 q -0.0568,-0.00861 -0.062,-0.010335 -0.17914,-0.043064 -0.17742,-0.2342666 h -0.002 l 0.002,-3.0420213 q -0.002,-0.00517 -0.002,-0.01378 0.005,-0.09474 0.0741,-0.160197 0.0706,-0.067179 0.16881,-0.067179 z m 0.81132,3.0420213 q 0.003,0 0.007,0 0.003,0 0.009,0 0.003,0 0.005,0 0.003,-0.00172 0.009,-0.00172 0.003,0 0.007,0 0.005,-0.00172 0.0103,-0.00172 0.003,0 0.007,0 0.003,-0.00172 0.009,-0.00172 0.003,0 0.007,0 0.003,-0.00172 0.009,-0.00172 0.007,-0.00345 0.0138,-0.00345 0.003,0 0.007,-0.00172 0.003,-0.00345 0.009,-0.00517 0.003,0 0.007,0 0.005,-0.00172 0.0103,-0.00345 0.003,0 0.007,-0.00172 0.003,-0.00172 0.009,-0.00345 0.0103,-0.00345 0.0155,-0.00689 0.031,-0.010335 0.0172,-0.00689 0.003,0 0.007,-0.00172 0.003,-0.00345 0.009,-0.00517 0.0155,-0.010335 0.0138,-0.00861 0.0172,-0.00861 0.0172,-0.00861 0.003,-0.00172 0.007,-0.00345 0.003,-0.00344 0.009,-0.00689 0.0155,-0.010335 0.0155,-0.010335 0.003,-0.00172 0.007,-0.00345 0.005,-0.00345 0.0103,-0.00689 0.003,-0.00172 0.007,-0.00517 0.003,-0.00345 0.009,-0.00689 0.003,-0.00172 0.007,-0.00345 0.003,-0.00345 0.009,-0.00689 0.003,-0.00345 0.0172,-0.01378 0.0138,-0.01378 0.0138,-0.01378 0.003,-0.00344 0.007,-0.00689 0.003,-0.00345 0.009,-0.00861 0.003,-0.00345 0.007,-0.00689 0.003,-0.00345 0.009,-0.00861 0.005,-0.00345 0.0155,-0.01378 0.003,-0.00345 0.007,-0.00689 0.003,-0.00345 0.009,-0.00861 0.003,-0.00345 0.007,-0.00689 0.003,-0.00517 0.009,-0.010335 0.0207,-0.027561 0.0138,-0.017225 0.0121,-0.012058 0.0155,-0.018948 0.0155,-0.020671 0.0138,-0.018948 0.003,-0.00517 0.007,-0.00861 0.003,-0.00517 0.009,-0.010335 0.003,-0.00517 0.005,-0.010335 0.003,-0.00517 0.009,-0.010335 0.002,-0.00517 0.005,-0.010335 0.005,-0.00689 0.009,-0.012058 0.0103,-0.01378 0.0138,-0.020671 0.003,-0.00517 0.005,-0.010335 0.003,-0.00689 0.009,-0.012058 0.003,-0.00517 0.005,-0.010335 0.003,-0.00689 0.009,-0.012058 0.003,-0.00861 0.0103,-0.022393 0.003,-0.00517 0.005,-0.012058 0.003,-0.00689 0.009,-0.01378 0.003,-0.00517 0.005,-0.010335 0.003,-0.00689 0.009,-0.01378 0.002,-0.00517 0.003,-0.012058 0.003,-0.00689 0.007,-0.01378 0.005,-0.00861 0.0121,-0.025838 0.0172,-0.043064 0.0121,-0.027561 0.002,-0.00517 0.003,-0.012058 0.003,-0.00861 0.007,-0.015503 0.002,-0.00689 0.003,-0.01378 0.003,-0.00689 0.007,-0.015503 0.005,-0.015503 0.009,-0.027561 0.002,-0.00689 0.003,-0.01378 0.003,-0.00689 0.007,-0.015503 -0.007,0.017226 0.009,-0.029283 0.003,-0.00861 0.0103,-0.029283 0,-0.00689 0.002,-0.01378 0.003,-0.00861 0.005,-0.017226 0.002,-0.00689 0.003,-0.01378 0.002,-0.00861 0.005,-0.017225 0,-0.00517 0.002,-0.012058 0.003,-0.00861 0.005,-0.017226 0.002,-0.012058 0.005,-0.032728 0,-0.00689 0.002,-0.01378 0.003,-0.00861 0.005,-0.017226 0,-0.00689 0.002,-0.01378 0.002,-0.00861 0.003,-0.017225 0.002,-0.012058 0.005,-0.032728 0,-0.00689 0.002,-0.015503 0.003,-0.00861 0.005,-0.017225 0,-0.012058 0.003,-0.032728 0,-0.00689 0,-0.01378 0.002,-0.00861 0.003,-0.018948 0.003,-0.020671 0.003,-0.032728 0.002,-0.012058 0.002,-0.032729 0.002,-0.012058 0.002,-0.034451 0.002,-0.012058 0.002,-0.032728 0,-0.00861 0,-0.015503 0.002,-0.00861 0.003,-0.018948 0,-0.00689 0,-0.01378 0.002,-0.00861 0.002,-0.018948 0,-0.00689 0,-0.015503 0,-0.00861 0,-0.017226 0,-0.00861 0,-0.015503 0,-0.00861 0,-0.017225 0,-0.00861 -0.002,-0.015503 0,-0.00861 0,-0.018948 0,-0.00689 0,-0.015503 0,-0.00861 0,-0.017226 0,-0.010335 -0.003,-0.034451 0,-0.020671 -0.002,-0.031006 0,-0.012058 -0.003,-0.036174 0,-0.020671 -0.002,-0.031006 0,-0.012058 -0.003,-0.032728 -0.002,-0.00689 -0.003,-0.015503 0,-0.00861 0,-0.017225 -0.003,-0.020671 -0.007,-0.032729 -0.002,-0.00689 -0.003,-0.01378 -0.002,-0.00861 -0.002,-0.017226 -0.002,-0.012058 -0.005,-0.032728 -0.002,-0.012058 -0.005,-0.032728 -0.007,-0.020671 -0.009,-0.031006 -0.003,-0.020671 -0.005,-0.029283 -0.003,-0.00689 -0.005,-0.01378 -0.002,-0.00861 -0.003,-0.017226 -0.002,-0.00689 -0.005,-0.01378 -0.003,-0.00861 -0.003,-0.017226 -0.0155,-0.046509 -0.009,-0.029283 -0.003,-0.012058 -0.009,-0.029283 -0.003,-0.00517 -0.007,-0.012058 -0.002,-0.00861 -0.003,-0.015503 -0.002,-0.00517 -0.0103,-0.029283 -0.007,-0.017225 -0.0103,-0.027561 -0.003,-0.00517 -0.007,-0.012058 -0.002,-0.00861 -0.003,-0.015503 -0.003,-0.00517 -0.007,-0.012058 -0.003,-0.00689 -0.005,-0.01378 -0.007,-0.017225 -0.0121,-0.025838 -0.007,-0.017226 -0.0103,-0.024116 -0.007,-0.017225 -0.0121,-0.025838 -0.003,-0.00517 -0.007,-0.010335 -0.003,-0.00689 -0.005,-0.012058 -0.0103,-0.017226 -0.0138,-0.024116 -0.0155,-0.024116 -0.0138,-0.022393 -0.005,-0.00517 -0.009,-0.010335 -0.002,-0.00689 -0.005,-0.012058 -0.003,-0.00689 -0.0138,-0.020671 -0.003,-0.00517 -0.007,-0.010335 -0.003,-0.00517 -0.005,-0.010335 -0.009,-0.015503 -0.0293,-0.039619 -0.003,-0.00345 -0.0276,-0.037896 -0.0207,-0.024116 -0.031,-0.034451 -0.0103,-0.012058 -0.031,-0.032728 -0.0138,-0.015503 -0.0293,-0.029283 -0.0121,-0.00861 -0.0327,-0.025838 -0.0172,-0.01378 -0.0327,-0.025838 -0.0396,-0.025838 -0.0327,-0.022393 -0.0345,-0.020671 -0.031,-0.018948 0,0 -0.031,-0.015503 -0.007,-0.00345 -0.0327,-0.012058 -0.0224,-0.00861 -0.0327,-0.012058 -0.009,-0.00172 -0.0155,-0.00345 -0.007,-0.00345 -0.0138,-0.00689 -0.031,-0.00517 -0.031,-0.00517 -0.0103,-0.00172 -0.031,-0.00172 -0.005,0 -0.009,0 -0.003,0 -0.007,0 h -0.56844 v 2.5562625 0 z"
         style="font-style:normal;font-variant:normal;font-weight:normal;font-stretch:normal;font-size:3.52778px;font-family:'MS 33558';-inkscape-font-specification:'MS 33558, Normal';font-variant-ligatures:normal;font-variant-caps:normal;font-variant-numeric:normal;font-variant-east-asian:normal;stroke-width:0.264583"
         id="path9520" />
    </g>
    <g
       aria-label="AIR REFUEL"
       id="text3621"
       style="font-style:normal;font-variant:normal;font-weight:normal;font-stretch:normal;font-size:3.52778px;line-height:1.25;font-family:'MS 33558';-inkscape-font-specification:'MS 33558, Normal';font-variant-ligatures:normal;font-variant-caps:normal;font-variant-numeric:normal;font-variant-east-asian:normal;text-align:center;text-anchor:middle;stroke-width:0.264583">
      <path
         d="m 119.06383,8.4899895 -0.52365,-1.446941 -0.5271,1.446941 z m -0.52365,-1.446941 0.52365,1.446941 z m -1.32981,2.2462037 q 0.27561,-0.7596441 0.55121,-1.5175656 0.27733,-0.759644 0.55466,-1.5192881 0.0569,-0.1567519 0.22566,-0.1584745 0.16881,-0.00172 0.22737,0.1584745 l 1.10416,3.0454664 q 0.0517,0.2428794 -0.14814,0.3135039 -0.19982,0.070625 -0.30834,-0.1446941 l -0.17742,-0.492649 h -1.40388 l -0.17225,0.4805912 q -0.11025,0.2170411 -0.31351,0.1429715 -0.20326,-0.075792 -0.13952,-0.3083362 z"
         style="font-style:normal;font-variant:normal;font-weight:normal;font-stretch:normal;font-size:3.52778px;font-family:'MS 33558';-inkscape-font-specification:'MS 33558, Normal';font-variant-ligatures:normal;font-variant-caps:normal;font-variant-numeric:normal;font-variant-east-asian:normal;stroke-width:0.264583"
         id="path9489" />
      <path
         d="m 120.70197,9.3839924 q -0.0379,0.2428793 -0.24632,0.2411568 -0.20671,0 -0.24288,-0.2411568 V 6.338526 q 0.0362,-0.2428794 0.24288,-0.2428794 0.20843,-0.00172 0.24632,0.2428794 z"
         style="font-style:normal;font-variant:normal;font-weight:normal;font-stretch:normal;font-size:3.52778px;font-family:'MS 33558';-inkscape-font-specification:'MS 33558, Normal';font-variant-ligatures:normal;font-variant-caps:normal;font-variant-numeric:normal;font-variant-east-asian:normal;stroke-width:0.264583"
         id="path9491" />
      <path
         d="m 123.36676,9.247911 q 0.11024,0.194648 -0.062,0.3272843 -0.0827,0.058567 -0.19121,0.039619 -0.1068,-0.018948 -0.15675,-0.106798 l -0.84922,-1.3418656 h -0.43063 v 1.2126744 q 0,0.1498618 -0.13608,0.2170412 -0.13609,0.065457 -0.25494,-0.025838 -0.0947,-0.070624 -0.0947,-0.1912029 V 6.3350809 q 0,-0.099908 0.0689,-0.1705324 0.0706,-0.070625 0.17226,-0.070625 h 1.0697 q 0.38585,0 0.67007,0.2463245 0.28422,0.244602 0.35312,0.6218402 0.0724,0.4047989 -0.17225,0.7579215 -0.24288,0.3513999 -0.64596,0.4271921 l -0.0327,0.00517 z m -0.86472,-1.5657969 q 0.1757,0 0.32384,-0.106798 0.14986,-0.1067981 0.20154,-0.279053 0.081,-0.2652725 -0.0741,-0.4788685 -0.15503,-0.2153186 -0.4272,-0.2377118 h -0.84921 v 1.1024313 z"
         style="font-style:normal;font-variant:normal;font-weight:normal;font-stretch:normal;font-size:3.52778px;font-family:'MS 33558';-inkscape-font-specification:'MS 33558, Normal';font-variant-ligatures:normal;font-variant-caps:normal;font-variant-numeric:normal;font-variant-east-asian:normal;stroke-width:0.264583"
         id="path9493" />
      <path
         d="m 127.70229,9.247911 q 0.11024,0.194648 -0.062,0.3272843 -0.0827,0.058567 -0.1912,0.039619 -0.1068,-0.018948 -0.15676,-0.106798 l -0.84921,-1.3418656 h -0.43064 v 1.2126744 q 0,0.1498618 -0.13608,0.2170412 -0.13608,0.065457 -0.25494,-0.025838 -0.0947,-0.070624 -0.0947,-0.1912029 V 6.3350809 q 0,-0.099908 0.0689,-0.1705324 0.0706,-0.070625 0.17226,-0.070625 h 1.0697 q 0.38585,0 0.67007,0.2463245 0.28422,0.244602 0.35313,0.6218402 0.0723,0.4047989 -0.17226,0.7579215 -0.24288,0.3513999 -0.64595,0.4271921 l -0.0327,0.00517 z m -0.86472,-1.5657969 q 0.1757,0 0.32384,-0.106798 0.14986,-0.1067981 0.20154,-0.279053 0.081,-0.2652725 -0.0741,-0.4788685 -0.15503,-0.2153186 -0.42719,-0.2377118 h -0.84922 v 1.1024313 z"
         style="font-style:normal;font-variant:normal;font-weight:normal;font-stretch:normal;font-size:3.52778px;font-family:'MS 33558';-inkscape-font-specification:'MS 33558, Normal';font-variant-ligatures:normal;font-variant-caps:normal;font-variant-numeric:normal;font-variant-east-asian:normal;stroke-width:0.264583"
         id="path9495" />
      <path
         d="m 130.2465,6.5745152 h -1.428 v 0.9422342 h 1.08865 q 0.24461,0.036174 0.24288,0.2463245 0,0.2084284 -0.24288,0.2428794 h -1.08865 v 1.1317146 h 1.428 q 0.24288,0.036174 0.24288,0.2428794 0,0.2067058 -0.24288,0.2411568 h -1.66743 q -0.21532,-0.027561 -0.2446,-0.2446019 V 6.3350809 q 0.0327,-0.2273765 0.2446,-0.2411569 h 1.66743 q 0.24288,0.018948 0.24115,0.2428794 0,0.2222088 -0.24115,0.2377118 z"
         style="font-style:normal;font-variant:normal;font-weight:normal;font-stretch:normal;font-size:3.52778px;font-family:'MS 33558';-inkscape-font-specification:'MS 33558, Normal';font-variant-ligatures:normal;font-variant-caps:normal;font-variant-numeric:normal;font-variant-east-asian:normal;stroke-width:0.264583"
         id="path9497" />
      <path
         d="M 130.96824,9.3771022 V 6.338526 q 0.031,-0.2273765 0.24461,-0.244602 h 1.66742 q 0.23944,0.018948 0.23944,0.244602 0,0.2239313 -0.24288,0.2394343 h -1.42455 v 0.9422342 h 1.11104 q 0.23772,0.017226 0.24116,0.2325441 0.003,0.2153186 -0.24116,0.2514921 h -1.11104 v 1.3728715 q -0.0172,0.2377117 -0.23427,0.2411568 -0.21531,0.00345 -0.24977,-0.2411568 z"
         style="font-style:normal;font-variant:normal;font-weight:normal;font-stretch:normal;font-size:3.52778px;font-family:'MS 33558';-inkscape-font-specification:'MS 33558, Normal';font-variant-ligatures:normal;font-variant-caps:normal;font-variant-numeric:normal;font-variant-east-asian:normal;stroke-width:0.264583"
         id="path9499" />
      <path
         d="m 135.92402,8.4589836 v 0.034451 q -0.005,0.086127 -0.007,0.1033529 -0.0724,0.5271 -0.43236,0.7785921 -0.36002,0.2497696 -0.76826,0.2342667 -0.40824,-0.017226 -0.74759,-0.298001 -0.33762,-0.2807755 -0.3669,-0.8182107 V 8.4589836 6.3350809 q 0,-0.051677 0.0189,-0.093018 0.0827,-0.1808676 0.27388,-0.1429715 0.19293,0.037896 0.19293,0.2359892 v 2.1239027 q 0.0258,0.3961863 0.34795,0.5925568 0.32384,0.1963706 0.68041,-0.017226 0.1602,-0.09474 0.23427,-0.2446019 0.0758,-0.1498617 0.0896,-0.3307294 V 6.3350809 q 0,-0.031006 0.003,-0.046509 0.0396,-0.2118735 0.2601,-0.191203 0.22049,0.020671 0.22049,0.2377118 z"
         style="font-style:normal;font-variant:normal;font-weight:normal;font-stretch:normal;font-size:3.52778px;font-family:'MS 33558';-inkscape-font-specification:'MS 33558, Normal';font-variant-ligatures:normal;font-variant-caps:normal;font-variant-numeric:normal;font-variant-east-asian:normal;stroke-width:0.264583"
         id="path9501" />
      <path
         d="m 138.25635,6.5745152 h -1.42799 v 0.9422342 h 1.08865 q 0.2446,0.036174 0.24288,0.2463245 0,0.2084284 -0.24288,0.2428794 h -1.08865 v 1.1317146 h 1.42799 q 0.24288,0.036174 0.24288,0.2428794 0,0.2067058 -0.24288,0.2411568 h -1.66743 q -0.21532,-0.027561 -0.2446,-0.2446019 V 6.3350809 q 0.0327,-0.2273765 0.2446,-0.2411569 h 1.66743 q 0.24288,0.018948 0.24116,0.2428794 0,0.2222088 -0.24116,0.2377118 z"
         style="font-style:normal;font-variant:normal;font-weight:normal;font-stretch:normal;font-size:3.52778px;font-family:'MS 33558';-inkscape-font-specification:'MS 33558, Normal';font-variant-ligatures:normal;font-variant-caps:normal;font-variant-numeric:normal;font-variant-east-asian:normal;stroke-width:0.264583"
         id="path9503" />
      <path
         d="m 139.2227,9.6234267 q -0.21187,-0.01378 -0.2446,-0.2394343 V 6.338526 q 0.0362,-0.2480471 0.25149,-0.2428794 0.21532,0.00345 0.23427,0.2428794 v 2.8043095 l 1.58991,-0.00172 q 0.2446,0.027561 0.24116,0.248047 -0.002,0.2187637 -0.24288,0.2342667 z"
         style="font-style:normal;font-variant:normal;font-weight:normal;font-stretch:normal;font-size:3.52778px;font-family:'MS 33558';-inkscape-font-specification:'MS 33558, Normal';font-variant-ligatures:normal;font-variant-caps:normal;font-variant-numeric:normal;font-variant-east-asian:normal;stroke-width:0.264583"
         id="path9505" />
    </g>
    <g
       aria-label="OPEN"
       id="text3625"
       style="font-style:normal;font-variant:normal;font-weight:normal;font-stretch:normal;font-size:2.82222px;line-height:1.25;font-family:'MS 33558';-inkscape-font-specification:'MS 33558, Normal';font-variant-ligatures:normal;font-variant-caps:normal;font-variant-numeric:normal;font-variant-east-asian:normal;text-align:center;text-anchor:middle;stroke-width:0.264583">
      <path
         d="m 126.44608,14.827422 q 0.12678,0.381716 0.0951,0.792372 -0.0303,0.410655 -0.22462,0.749652 -0.12265,0.210839 -0.33486,0.358289 -0.21222,0.14745 -0.46854,0.103353 -0.41754,-0.07304 -0.63941,-0.43546 -0.22186,-0.362423 -0.25493,-0.806151 -0.0317,-0.445106 0.11989,-0.866786 0.15296,-0.421679 0.48644,-0.613226 0.16261,-0.09371 0.34038,-0.09371 0.339,0 0.55397,0.256315 0.21497,0.254937 0.32659,0.555349 z m -0.86954,-0.420301 q -0.25356,0 -0.38447,0.272851 -0.12954,0.272852 -0.16399,0.465777 -0.0262,0.14056 -0.0193,0.340375 0.007,0.199815 0.0579,0.395497 0.051,0.194303 0.15296,0.351399 0.10198,0.155718 0.26734,0.206706 0.19293,0.06063 0.33211,-0.07579 0.14056,-0.137804 0.21221,-0.292144 0.073,-0.158475 0.0992,-0.416168 0.0276,-0.257692 -0.0124,-0.514007 -0.0386,-0.257693 -0.15296,-0.463021 -0.11438,-0.206705 -0.32522,-0.263205 -0.0276,-0.0083 -0.0634,-0.0083 z"
         style="font-style:normal;font-variant:normal;font-weight:normal;font-stretch:normal;font-size:2.82222px;font-family:'MS 33558';-inkscape-font-specification:'MS 33558, Normal';font-variant-ligatures:normal;font-variant-caps:normal;font-variant-numeric:normal;font-variant-east-asian:normal;stroke-width:0.264583"
         id="path9480" />
      <path
         d="m 127.97157,14.015758 h 0.0262 q 0.17639,0.0124 0.32522,0.07993 0.28525,0.13367 0.40377,0.439594 0.11851,0.305925 -0.003,0.59669 -0.0978,0.230133 -0.28939,0.361046 -0.19155,0.129536 -0.43684,0.144694 l -0.0262,0.0014 h -0.66973 v 1.004589 q -0.0248,0.194303 -0.19568,0.194303 -0.17087,0 -0.1943,-0.194303 v -2.434992 q 0.0207,-0.170876 0.1819,-0.192925 h 0.0124 z m 0,0.388607 h -0.66973 v 0.844737 h 0.66973 q 0.1571,0 0.27699,-0.104731 0.12126,-0.104731 0.14193,-0.261827 0.0248,-0.190169 -0.10197,-0.333485 -0.12678,-0.144694 -0.31695,-0.144694 z"
         style="font-style:normal;font-variant:normal;font-weight:normal;font-stretch:normal;font-size:2.82222px;font-family:'MS 33558';-inkscape-font-specification:'MS 33558, Normal';font-variant-ligatures:normal;font-variant-caps:normal;font-variant-numeric:normal;font-variant-east-asian:normal;stroke-width:0.264583"
         id="path9482" />
      <path
         d="m 130.7056,14.400231 h -1.1424 v 0.753786 h 0.87092 q 0.19568,0.02894 0.19431,0.197059 0,0.166743 -0.19431,0.194304 h -0.87092 v 0.90537 h 1.1424 q 0.1943,0.02894 0.1943,0.194303 0,0.165365 -0.1943,0.192925 h -1.33394 q -0.17226,-0.02205 -0.19568,-0.195681 v -2.433614 q 0.0262,-0.1819 0.19568,-0.192925 h 1.33394 q 0.1943,0.01516 0.19292,0.194304 0,0.177766 -0.19292,0.190169 z"
         style="font-style:normal;font-variant:normal;font-weight:normal;font-stretch:normal;font-size:2.82222px;font-family:'MS 33558';-inkscape-font-specification:'MS 33558, Normal';font-variant-ligatures:normal;font-variant-caps:normal;font-variant-numeric:normal;font-variant-east-asian:normal;stroke-width:0.264583"
         id="path9484" />
      <path
         d="m 133.18606,16.647809 q 0,0.144694 -0.14056,0.184657 -0.13918,0.03859 -0.21635,-0.08268 l -1.15755,-1.856216 v 1.754241 q -0.0303,0.192925 -0.19568,0.192925 -0.16399,0 -0.19293,-0.192925 v -2.433613 q 0.0207,-0.143316 0.14608,-0.188791 0.12678,-0.04548 0.21084,0.08544 l 1.15755,1.858972 v -1.755619 q 0.0262,-0.19706 0.19981,-0.194304 0.17501,0.0014 0.18879,0.194304 z"
         style="font-style:normal;font-variant:normal;font-weight:normal;font-stretch:normal;font-size:2.82222px;font-family:'MS 33558';-inkscape-font-specification:'MS 33558, Normal';font-variant-ligatures:normal;font-variant-caps:normal;font-variant-numeric:normal;font-variant-east-asian:normal;stroke-width:0.264583"
         id="path9486" />
    </g>
    <g
       aria-label="CLOSE"
       id="text3629"
       style="font-style:normal;font-variant:normal;font-weight:normal;font-stretch:normal;font-size:2.82222px;line-height:1.25;font-family:'MS 33558';-inkscape-font-specification:'MS 33558, Normal';font-variant-ligatures:normal;font-variant-caps:normal;font-variant-numeric:normal;font-variant-east-asian:normal;text-align:center;text-anchor:middle;stroke-width:0.264583">
      <path
         d="m 125.3636,36.046691 -0.0124,0.01791 q -0.004,0.0055 -0.007,0.0096 -0.003,0.0041 -0.006,0.0083 -0.18879,0.254937 -0.49609,0.363802 -0.30593,0.107487 -0.60358,-0.03996 -0.34589,-0.172255 -0.5085,-0.584288 -0.16123,-0.412033 -0.13918,-0.855761 0.0234,-0.445106 0.23427,-0.817176 0.21221,-0.37207 0.6146,-0.465776 0.23151,-0.05374 0.46164,0.04548 0.23014,0.09784 0.37759,0.275607 0.001,0 0.007,0.0096 0.0634,0.08268 0.0262,0.1819 -0.0372,0.09784 -0.13643,0.122646 -0.10611,0.02756 -0.19568,-0.06339 -0.18466,-0.214974 -0.35553,-0.206705 -0.17088,0.0083 -0.30593,0.140559 -0.13504,0.132292 -0.22462,0.338997 -0.0896,0.206706 -0.11024,0.387229 -0.0248,0.201193 0.004,0.405143 0.0303,0.202571 0.12541,0.381716 0.16536,0.314193 0.41616,0.394119 0.25218,0.07855 0.49196,-0.241157 0.011,-0.01378 0.0262,-0.03583 0.12953,-0.143316 0.27285,-0.02894 0.14469,0.113 0.0427,0.256315 z"
         style="font-style:normal;font-variant:normal;font-weight:normal;font-stretch:normal;font-size:2.82222px;font-family:'MS 33558';-inkscape-font-specification:'MS 33558, Normal';font-variant-ligatures:normal;font-variant-caps:normal;font-variant-numeric:normal;font-variant-east-asian:normal;stroke-width:0.264583"
         id="path9469" />
      <path
         d="m 125.94375,36.489041 q -0.1695,-0.01102 -0.19568,-0.191547 v -2.43637 q 0.0289,-0.198437 0.20119,-0.194303 0.17226,0.0028 0.18741,0.194303 v 2.243445 l 1.27193,-0.0014 q 0.19568,0.02205 0.19293,0.198437 -0.001,0.175011 -0.1943,0.187413 z"
         style="font-style:normal;font-variant:normal;font-weight:normal;font-stretch:normal;font-size:2.82222px;font-family:'MS 33558';-inkscape-font-specification:'MS 33558, Normal';font-variant-ligatures:normal;font-variant-caps:normal;font-variant-numeric:normal;font-variant-east-asian:normal;stroke-width:0.264583"
         id="path9471" />
      <path
         d="m 129.82706,34.477107 q 0.12678,0.381716 0.0951,0.792371 -0.0303,0.410655 -0.22462,0.749653 -0.12264,0.210839 -0.33486,0.358289 -0.21222,0.14745 -0.46853,0.103353 -0.41755,-0.07304 -0.63941,-0.43546 -0.22187,-0.362423 -0.25494,-0.806151 -0.0317,-0.445106 0.11989,-0.866786 0.15296,-0.421679 0.48645,-0.613226 0.16261,-0.09371 0.34037,-0.09371 0.339,0 0.55397,0.256315 0.21498,0.254937 0.3266,0.555349 z m -0.86954,-0.420301 q -0.25356,0 -0.38448,0.272851 -0.12953,0.272851 -0.16398,0.465777 -0.0262,0.140559 -0.0193,0.340375 0.007,0.199815 0.0579,0.395496 0.051,0.194304 0.15297,0.3514 0.10197,0.155718 0.26733,0.206706 0.19293,0.06063 0.33211,-0.07579 0.14056,-0.137803 0.21222,-0.292143 0.073,-0.158475 0.0992,-0.416168 0.0276,-0.257693 -0.0124,-0.514007 -0.0386,-0.257693 -0.15297,-0.463021 -0.11437,-0.206706 -0.32521,-0.263205 -0.0276,-0.0083 -0.0634,-0.0083 z"
         style="font-style:normal;font-variant:normal;font-weight:normal;font-stretch:normal;font-size:2.82222px;font-family:'MS 33558';-inkscape-font-specification:'MS 33558, Normal';font-variant-ligatures:normal;font-variant-caps:normal;font-variant-numeric:normal;font-variant-east-asian:normal;stroke-width:0.264583"
         id="path9473" />
      <path
         d="m 131.67914,34.985603 0.0221,0.0096 0.0248,0.0124 0.0221,0.0124 q 0.01,0.0069 0.0207,0.01378 0.0124,0.0055 0.0234,0.0124 0.27285,0.179145 0.33762,0.496094 0.0248,0.124023 0.011,0.254937 -0.0221,0.187413 -0.13229,0.347265 -0.10886,0.158474 -0.27423,0.245291 -0.17777,0.09371 -0.36793,0.09371 -0.31971,0 -0.61047,-0.0813 -0.29077,-0.08268 -0.41479,-0.439594 -0.0165,-0.04548 -0.0248,-0.09371 -0.008,-0.04823 -0.0193,-0.09646 -0.0207,-0.09922 0.0482,-0.175011 0.0703,-0.07579 0.17363,-0.05788 0.10887,0.02205 0.15159,0.135047 l 0.004,0.0124 q 0.0661,0.299034 0.23013,0.356911 0.16537,0.05788 0.45889,0.05237 0.2701,0 0.37069,-0.253559 0.0441,-0.112999 0.0138,-0.234266 -0.0303,-0.122646 -0.11989,-0.20395 -0.04,-0.03445 -0.10473,-0.06477 l -0.63803,-0.279741 -0.0207,-0.01103 q -0.31281,-0.165364 -0.38861,-0.46991 -0.0923,-0.352778 0.12816,-0.632519 0.22187,-0.28112 0.58153,-0.28112 l 0.15159,0.0041 q 0.0744,0.01378 0.14331,0.02756 0.0689,0.0124 0.13918,0.0441 0.17364,0.0813 0.26597,0.223242 0.0923,0.141938 0.16674,0.307303 0.007,0.01516 0.0124,0.03583 0.0152,0.06752 -0.0138,0.122646 -0.0165,0.03445 -0.0344,0.05237 -0.0179,0.01792 -0.0289,0.02481 -0.0717,0.05099 -0.1571,0.03032 -0.0854,-0.01929 -0.13091,-0.110243 -0.0358,-0.07993 -0.0772,-0.162609 -0.04,-0.08406 -0.113,-0.139181 -0.0303,-0.02205 -0.0592,-0.0317 -0.0276,-0.01102 -0.062,-0.02343 l -0.0896,-0.01516 -0.12678,-0.0041 q -0.18465,0.0028 -0.2825,0.159852 -0.0661,0.100597 -0.0496,0.22462 0.0193,0.152962 0.14331,0.237022 0.006,0.0041 0.0124,0.0096 0.007,0.0041 0.0152,0.0083 l 0.0152,0.0069 0.0165,0.0069 z"
         style="font-style:normal;font-variant:normal;font-weight:normal;font-stretch:normal;font-size:2.82222px;font-family:'MS 33558';-inkscape-font-specification:'MS 33558, Normal';font-variant-ligatures:normal;font-variant-caps:normal;font-variant-numeric:normal;font-variant-east-asian:normal;stroke-width:0.264583"
         id="path9475" />
      <path
         d="m 134.01629,34.049916 h -1.14239 v 0.753786 h 0.87092 q 0.19568,0.02894 0.1943,0.197059 0,0.166743 -0.1943,0.194303 h -0.87092 v 0.905371 h 1.14239 q 0.1943,0.02894 0.1943,0.194303 0,0.165365 -0.1943,0.192925 h -1.33394 q -0.17225,-0.02205 -0.19568,-0.195681 v -2.433614 q 0.0262,-0.181901 0.19568,-0.192925 h 1.33394 q 0.1943,0.01516 0.19293,0.194303 0,0.177767 -0.19293,0.19017 z"
         style="font-style:normal;font-variant:normal;font-weight:normal;font-stretch:normal;font-size:2.82222px;font-family:'MS 33558';-inkscape-font-specification:'MS 33558, Normal';font-variant-ligatures:normal;font-variant-caps:normal;font-variant-numeric:normal;font-variant-east-asian:normal;stroke-width:0.264583"
         id="path9477" />
    </g>
    <g
       aria-label="OFF"
       id="text3633"
       style="font-style:normal;font-variant:normal;font-weight:normal;font-stretch:normal;font-size:2.82222px;line-height:1.25;font-family:'MS 33558';-inkscape-font-specification:'MS 33558, Normal';font-variant-ligatures:normal;font-variant-caps:normal;font-variant-numeric:normal;font-variant-east-asian:normal;text-align:center;text-anchor:middle;stroke-width:0.264583">
      <path
         d="m 74.414218,34.872638 q 0.126779,0.381716 0.09508,0.792371 -0.03032,0.410655 -0.22462,0.749652 -0.122646,0.21084 -0.334863,0.35829 -0.212218,0.14745 -0.468533,0.103353 -0.417545,-0.07304 -0.639409,-0.43546 -0.221864,-0.362424 -0.254937,-0.806152 -0.03169,-0.445106 0.119889,-0.866785 0.152962,-0.421679 0.486447,-0.613227 0.162608,-0.09371 0.340375,-0.09371 0.338997,0 0.553971,0.256315 0.214974,0.254937 0.326595,0.555349 z m -0.869541,-0.420302 q -0.253559,0 -0.384473,0.272852 -0.129535,0.272851 -0.163986,0.465776 -0.02618,0.14056 -0.01929,0.340376 0.0069,0.199815 0.05788,0.395496 0.05099,0.194303 0.152962,0.3514 0.101975,0.155718 0.267339,0.206705 0.192925,0.06063 0.332107,-0.07579 0.14056,-0.137804 0.212218,-0.292144 0.07304,-0.158474 0.09922,-0.416167 0.02756,-0.257693 -0.0124,-0.514008 -0.03859,-0.257693 -0.152962,-0.46302 -0.114377,-0.206706 -0.325217,-0.263205 -0.02756,-0.0083 -0.06339,-0.0083 z"
         style="font-style:normal;font-variant:normal;font-weight:normal;font-stretch:normal;font-size:2.82222px;font-family:'MS 33558';-inkscape-font-specification:'MS 33558, Normal';font-variant-ligatures:normal;font-variant-caps:normal;font-variant-numeric:normal;font-variant-east-asian:normal;stroke-width:0.264583"
         id="path9462" />
      <path
         d="m 74.879994,36.687513 v -2.430858 q 0.02481,-0.181901 0.195682,-0.195681 h 1.33394 q 0.191547,0.01516 0.191547,0.195681 0,0.179145 -0.194303,0.191547 h -1.139637 v 0.753787 h 0.888834 q 0.190169,0.01378 0.192925,0.186035 0.0028,0.172254 -0.192925,0.201193 h -0.888834 v 1.098296 q -0.01378,0.190169 -0.187413,0.192925 -0.172255,0.0028 -0.199816,-0.192925 z"
         style="font-style:normal;font-variant:normal;font-weight:normal;font-stretch:normal;font-size:2.82222px;font-family:'MS 33558';-inkscape-font-specification:'MS 33558, Normal';font-variant-ligatures:normal;font-variant-caps:normal;font-variant-numeric:normal;font-variant-east-asian:normal;stroke-width:0.264583"
         id="path9464" />
      <path
         d="m 76.987013,36.687513 v -2.430858 q 0.02481,-0.181901 0.195681,-0.195681 h 1.33394 q 0.191547,0.01516 0.191547,0.195681 0,0.179145 -0.194303,0.191547 h -1.139637 v 0.753787 h 0.888834 q 0.190169,0.01378 0.192926,0.186035 0.0028,0.172254 -0.192926,0.201193 h -0.888834 v 1.098296 q -0.01378,0.190169 -0.187413,0.192925 -0.172254,0.0028 -0.199815,-0.192925 z"
         style="font-style:normal;font-variant:normal;font-weight:normal;font-stretch:normal;font-size:2.82222px;font-family:'MS 33558';-inkscape-font-specification:'MS 33558, Normal';font-variant-ligatures:normal;font-variant-caps:normal;font-variant-numeric:normal;font-variant-east-asian:normal;stroke-width:0.264583"
         id="path9466" />
    </g>
    <g
       aria-label="NORM"
       id="text3637"
       style="font-style:normal;font-variant:normal;font-weight:normal;font-stretch:normal;font-size:2.82222px;line-height:1.25;font-family:'MS 33558';-inkscape-font-specification:'MS 33558, Normal';font-variant-ligatures:normal;font-variant-caps:normal;font-variant-numeric:normal;font-variant-east-asian:normal;text-align:center;text-anchor:middle;stroke-width:0.264583">
      <path
         d="m 77.135476,22.728181 q 0,0.144694 -0.14056,0.184657 -0.139182,0.03858 -0.216352,-0.08268 L 75.621013,20.97394 v 1.754241 q -0.03032,0.192925 -0.195682,0.192925 -0.163986,0 -0.192925,-0.192925 v -2.433614 q 0.02067,-0.143315 0.146072,-0.188791 0.12678,-0.04547 0.21084,0.08544 l 1.157551,1.858972 v -1.75562 q 0.02618,-0.197059 0.199815,-0.194303 0.175011,0.0014 0.188792,0.194303 z"
         style="font-style:normal;font-variant:normal;font-weight:normal;font-stretch:normal;font-size:2.82222px;font-family:'MS 33558';-inkscape-font-specification:'MS 33558, Normal';font-variant-ligatures:normal;font-variant-caps:normal;font-variant-numeric:normal;font-variant-east-asian:normal;stroke-width:0.264583"
         id="path9453" />
      <path
         d="m 79.363761,20.907794 q 0.12678,0.381716 0.09508,0.792371 -0.03032,0.410655 -0.22462,0.749653 -0.122645,0.210839 -0.334863,0.358289 -0.212218,0.14745 -0.468533,0.103353 -0.417545,-0.07304 -0.639409,-0.43546 -0.221864,-0.362423 -0.254937,-0.806151 -0.03169,-0.445106 0.119889,-0.866786 0.152963,-0.421679 0.486448,-0.613226 0.162608,-0.09371 0.340375,-0.09371 0.338997,0 0.553971,0.256315 0.214973,0.254937 0.326594,0.555349 z M 78.49422,20.487493 q -0.253559,0 -0.384472,0.272851 -0.129536,0.272851 -0.163987,0.465777 -0.02618,0.140559 -0.01929,0.340375 0.0069,0.199815 0.05788,0.395496 0.05099,0.194304 0.152962,0.3514 0.101975,0.155718 0.26734,0.206705 0.192925,0.06063 0.332107,-0.07579 0.140559,-0.137803 0.212217,-0.292143 0.07304,-0.158475 0.09922,-0.416168 0.02756,-0.257693 -0.0124,-0.514008 -0.03858,-0.257692 -0.152962,-0.46302 -0.114378,-0.206706 -0.325217,-0.263205 -0.02756,-0.0083 -0.06339,-0.0083 z"
         style="font-style:normal;font-variant:normal;font-weight:normal;font-stretch:normal;font-size:2.82222px;font-family:'MS 33558';-inkscape-font-specification:'MS 33558, Normal';font-variant-ligatures:normal;font-variant-caps:normal;font-variant-numeric:normal;font-variant-east-asian:normal;stroke-width:0.264583"
         id="path9455" />
      <path
         d="m 81.569999,22.619316 q 0.08819,0.155718 -0.04961,0.261827 -0.06615,0.04685 -0.152963,0.03169 -0.08544,-0.01516 -0.125401,-0.08544 l -0.679372,-1.073491 h -0.34451 v 0.970138 q 0,0.119889 -0.108865,0.173633 -0.108864,0.05236 -0.203949,-0.02067 -0.07579,-0.0565 -0.07579,-0.152962 v -2.434992 q 0,-0.07993 0.05512,-0.136425 0.0565,-0.0565 0.137804,-0.0565 h 0.855761 q 0.308681,0 0.536057,0.197059 0.227376,0.195682 0.282497,0.497472 0.05788,0.323839 -0.137803,0.606336 -0.194304,0.28112 -0.516764,0.341753 l -0.02618,0.0041 z M 80.878224,21.36668 q 0.14056,0 0.259071,-0.08544 0.119889,-0.08544 0.161231,-0.223242 0.06477,-0.212218 -0.05926,-0.383094 -0.124023,-0.172255 -0.341753,-0.190169 h -0.679373 v 0.881943 z"
         style="font-style:normal;font-variant:normal;font-weight:normal;font-stretch:normal;font-size:2.82222px;font-family:'MS 33558';-inkscape-font-specification:'MS 33558, Normal';font-variant-ligatures:normal;font-variant-caps:normal;font-variant-numeric:normal;font-variant-east-asian:normal;stroke-width:0.264583"
         id="path9457" />
      <path
         d="m 84.130392,22.725425 q -0.03032,0.192925 -0.195681,0.192925 -0.163987,-0.0014 -0.192926,-0.192925 v -1.721168 l -0.472666,0.808907 q -0.07579,0.09095 -0.169499,0.09509 -0.09233,0.0041 -0.165364,-0.09509 l -0.469911,-0.804773 0.0014,1.717034 q -0.02205,0.191547 -0.199815,0.191547 -0.176389,-0.0014 -0.19017,-0.191547 v -2.433614 q 0.01103,-0.158474 0.139182,-0.188791 0.128158,-0.03169 0.223242,0.08682 l 0.662836,1.139636 0.669726,-1.139636 q 0.09508,-0.118512 0.220486,-0.08682 0.12678,0.03169 0.139182,0.188791 z"
         style="font-style:normal;font-variant:normal;font-weight:normal;font-stretch:normal;font-size:2.82222px;font-family:'MS 33558';-inkscape-font-specification:'MS 33558, Normal';font-variant-ligatures:normal;font-variant-caps:normal;font-variant-numeric:normal;font-variant-east-asian:normal;stroke-width:0.264583"
         id="path9459" />
    </g>
    <g
       aria-label="AFT"
       id="text3641"
       style="font-style:normal;font-variant:normal;font-weight:normal;font-stretch:normal;font-size:2.82222px;line-height:1.25;font-family:'MS 33558';-inkscape-font-specification:'MS 33558, Normal';font-variant-ligatures:normal;font-variant-caps:normal;font-variant-numeric:normal;font-variant-east-asian:normal;text-align:center;text-anchor:middle;stroke-width:0.264583">
      <path
         d="m 94.085958,17.068505 -0.418924,-1.157552 -0.421679,1.157552 z m -0.418924,-1.157552 0.418924,1.157552 z m -1.063844,1.796961 q 0.220486,-0.607715 0.440971,-1.214051 0.221864,-0.607714 0.443728,-1.215429 0.04548,-0.125401 0.180523,-0.126779 0.135048,-0.0014 0.181901,0.126779 l 0.883322,2.43637 q 0.04134,0.194303 -0.118511,0.250803 -0.159852,0.0565 -0.246669,-0.115755 l -0.141938,-0.394119 h -1.1231 l -0.137804,0.384472 q -0.08819,0.173633 -0.250802,0.114378 -0.162609,-0.06063 -0.111621,-0.246669 z"
         style="font-style:normal;font-variant:normal;font-weight:normal;font-stretch:normal;font-size:2.82222px;font-family:'MS 33558';-inkscape-font-specification:'MS 33558, Normal';font-variant-ligatures:normal;font-variant-caps:normal;font-variant-numeric:normal;font-variant-east-asian:normal;stroke-width:0.264583"
         id="path9446" />
      <path
         d="m 95.005108,17.778194 v -2.430858 q 0.0248,-0.181901 0.195682,-0.195681 h 1.33394 q 0.191547,0.01516 0.191547,0.195681 0,0.179145 -0.194303,0.191547 h -1.139637 v 0.753787 h 0.888834 q 0.190169,0.01378 0.192925,0.186035 0.0028,0.172254 -0.192925,0.201193 h -0.888834 v 1.098296 q -0.01378,0.190169 -0.187413,0.192925 -0.172255,0.0028 -0.199816,-0.192925 z"
         style="font-style:normal;font-variant:normal;font-weight:normal;font-stretch:normal;font-size:2.82222px;font-family:'MS 33558';-inkscape-font-specification:'MS 33558, Normal';font-variant-ligatures:normal;font-variant-caps:normal;font-variant-numeric:normal;font-variant-east-asian:normal;stroke-width:0.264583"
         id="path9448" />
      <path
         d="m 97.810792,17.78095 v -2.240689 h -0.50574 q -0.192925,-0.01516 -0.192925,-0.192925 0.0014,-0.179145 0.192925,-0.195681 h 1.398708 q 0.190169,0.01516 0.190169,0.195681 0.0014,0.179145 -0.190169,0.192925 h -0.504362 v 2.240689 q -0.03169,0.195681 -0.203949,0.192925 -0.170877,-0.0028 -0.184657,-0.192925 z"
         style="font-style:normal;font-variant:normal;font-weight:normal;font-stretch:normal;font-size:2.82222px;font-family:'MS 33558';-inkscape-font-specification:'MS 33558, Normal';font-variant-ligatures:normal;font-variant-caps:normal;font-variant-numeric:normal;font-variant-east-asian:normal;stroke-width:0.264583"
         id="path9450" />
    </g>
    <g
       aria-label="FWD"
       id="text3645"
       style="font-style:normal;font-variant:normal;font-weight:normal;font-stretch:normal;font-size:2.82222px;line-height:1.25;font-family:'MS 33558';-inkscape-font-specification:'MS 33558, Normal';font-variant-ligatures:normal;font-variant-caps:normal;font-variant-numeric:normal;font-variant-east-asian:normal;text-align:center;text-anchor:middle;stroke-width:0.264583">
      <path
         d="m 107.47722,22.78948 v -2.430858 q 0.0248,-0.181901 0.19568,-0.195681 h 1.33394 q 0.19155,0.01516 0.19155,0.195681 0,0.179145 -0.19431,0.191547 h -1.13963 v 0.753787 h 0.88883 q 0.19017,0.01378 0.19292,0.186035 0.003,0.172254 -0.19292,0.201193 h -0.88883 v 1.098296 q -0.0138,0.190169 -0.18742,0.192925 -0.17225,0.0028 -0.19981,-0.192925 z"
         style="font-style:normal;font-variant:normal;font-weight:normal;font-stretch:normal;font-size:2.82222px;font-family:'MS 33558';-inkscape-font-specification:'MS 33558, Normal';font-variant-ligatures:normal;font-variant-caps:normal;font-variant-numeric:normal;font-variant-east-asian:normal;stroke-width:0.264583"
         id="path9439" />
      <path
         d="m 111.14417,20.320037 0.48232,1.648132 0.32246,-1.648132 q 0.0579,-0.186035 0.226,-0.151584 0.16949,0.03445 0.15571,0.22462 l -0.4768,2.433614 q -0.0441,0.152962 -0.18052,0.158474 -0.13505,0.0055 -0.19568,-0.139182 l -0.5209,-1.777668 -0.51676,1.777668 q -0.0634,0.148828 -0.19431,0.139182 -0.13091,-0.0096 -0.18465,-0.158474 l -0.4768,-2.433614 q 0,-0.197059 0.15709,-0.225998 0.1571,-0.03032 0.22876,0.152962 l 0.31832,1.650888 0.48232,-1.650888 q 0.0593,-0.136426 0.18879,-0.14056 0.13091,-0.0041 0.18465,0.14056 z"
         style="font-style:normal;font-variant:normal;font-weight:normal;font-stretch:normal;font-size:2.82222px;font-family:'MS 33558';-inkscape-font-specification:'MS 33558, Normal';font-variant-ligatures:normal;font-variant-caps:normal;font-variant-numeric:normal;font-variant-east-asian:normal;stroke-width:0.264583"
         id="path9441" />
      <path
         d="m 112.79093,20.162941 h 0.64905 q 0.48369,0 0.72485,0.440972 0.24116,0.440972 0.24116,0.970138 0,0.529166 -0.24254,0.970138 -0.24115,0.440972 -0.72347,0.440972 h -0.64905 0.003 -0.003 q -0.0455,-0.0069 -0.0496,-0.0083 -0.14332,-0.03445 -0.14194,-0.187413 h -0.001 l 0.001,-2.433614 q -0.001,-0.0041 -0.001,-0.01102 0.004,-0.07579 0.0593,-0.128158 0.0565,-0.05374 0.13505,-0.05374 z m 0.64905,2.433613 q 0.003,0 0.006,0 0.003,0 0.007,0 0.003,0 0.004,0 0.003,-0.0014 0.007,-0.0014 0.003,0 0.006,0 0.004,-0.0014 0.008,-0.0014 0.003,0 0.006,0 0.003,-0.0014 0.007,-0.0014 0.003,0 0.006,0 0.003,-0.0014 0.007,-0.0014 0.006,-0.0028 0.011,-0.0028 0.003,0 0.006,-0.0014 0.003,-0.0028 0.007,-0.0041 0.003,0 0.006,0 0.004,-0.0014 0.008,-0.0028 0.003,0 0.006,-0.0014 0.003,-0.0014 0.007,-0.0028 0.008,-0.0028 0.0124,-0.0055 0.0248,-0.0083 0.0138,-0.0055 0.003,0 0.006,-0.0014 0.003,-0.0028 0.007,-0.0041 0.0124,-0.0083 0.011,-0.0069 0.0138,-0.0069 0.0138,-0.0069 0.003,-0.0014 0.006,-0.0028 0.003,-0.0028 0.007,-0.0055 0.0124,-0.0083 0.0124,-0.0083 0.003,-0.0014 0.006,-0.0028 0.004,-0.0028 0.008,-0.0055 0.003,-0.0014 0.006,-0.0041 0.003,-0.0028 0.007,-0.0055 0.003,-0.0014 0.006,-0.0028 0.003,-0.0028 0.007,-0.0055 0.003,-0.0028 0.0138,-0.01102 0.011,-0.01103 0.011,-0.01103 0.003,-0.0028 0.006,-0.0055 0.003,-0.0028 0.007,-0.0069 0.003,-0.0028 0.006,-0.0055 0.003,-0.0028 0.007,-0.0069 0.004,-0.0028 0.0124,-0.01103 0.003,-0.0028 0.006,-0.0055 0.003,-0.0028 0.007,-0.0069 0.003,-0.0028 0.006,-0.0055 0.003,-0.0041 0.007,-0.0083 0.0165,-0.02205 0.011,-0.01378 0.01,-0.0096 0.0124,-0.01516 0.0124,-0.01654 0.011,-0.01516 0.003,-0.0041 0.006,-0.0069 0.003,-0.0041 0.007,-0.0083 0.003,-0.0041 0.004,-0.0083 0.003,-0.0041 0.007,-0.0083 0.001,-0.0041 0.004,-0.0083 0.004,-0.0055 0.007,-0.0096 0.008,-0.01102 0.011,-0.01654 0.003,-0.0041 0.004,-0.0083 0.003,-0.0055 0.007,-0.0096 0.003,-0.0041 0.004,-0.0083 0.003,-0.0055 0.007,-0.0096 0.003,-0.0069 0.008,-0.01791 0.003,-0.0041 0.004,-0.0096 0.003,-0.0055 0.007,-0.01102 0.003,-0.0041 0.004,-0.0083 0.003,-0.0055 0.007,-0.01102 0.001,-0.0041 0.003,-0.0096 0.003,-0.0055 0.006,-0.01102 0.004,-0.0069 0.01,-0.02067 0.0138,-0.03445 0.01,-0.02205 0.001,-0.0041 0.003,-0.0096 0.003,-0.0069 0.006,-0.0124 0.001,-0.0055 0.003,-0.01103 0.003,-0.0055 0.006,-0.0124 0.004,-0.0124 0.007,-0.02205 0.001,-0.0055 0.003,-0.01103 0.003,-0.0055 0.006,-0.0124 -0.006,0.01378 0.007,-0.02343 0.003,-0.0069 0.008,-0.02343 0,-0.0055 0.001,-0.01103 0.003,-0.0069 0.004,-0.01378 0.001,-0.0055 0.003,-0.01102 0.001,-0.0069 0.004,-0.01378 0,-0.0041 0.001,-0.0096 0.003,-0.0069 0.004,-0.01378 0.001,-0.0096 0.004,-0.02618 0,-0.0055 0.001,-0.01102 0.003,-0.0069 0.004,-0.01378 0,-0.0055 0.001,-0.01102 0.001,-0.0069 0.003,-0.01378 0.001,-0.0096 0.004,-0.02618 0,-0.0055 0.001,-0.0124 0.003,-0.0069 0.004,-0.01378 0,-0.0096 0.003,-0.02618 0,-0.0055 0,-0.01103 0.001,-0.0069 0.003,-0.01516 0.003,-0.01654 0.003,-0.02618 0.001,-0.0096 0.001,-0.02618 0.001,-0.0096 0.001,-0.02756 0.001,-0.0096 0.001,-0.02618 0,-0.0069 0,-0.0124 0.001,-0.0069 0.003,-0.01516 0,-0.0055 0,-0.01102 0.001,-0.0069 0.001,-0.01516 0,-0.0055 0,-0.0124 0,-0.0069 0,-0.01378 0,-0.0069 0,-0.0124 0,-0.0069 0,-0.01378 0,-0.0069 -0.001,-0.0124 0,-0.0069 0,-0.01516 0,-0.0055 0,-0.0124 0,-0.0069 0,-0.01378 0,-0.0083 -0.003,-0.02756 0,-0.01654 -0.001,-0.02481 0,-0.0096 -0.003,-0.02894 0,-0.01654 -0.001,-0.0248 0,-0.0096 -0.003,-0.02618 -0.001,-0.0055 -0.003,-0.0124 0,-0.0069 0,-0.01378 -0.003,-0.01654 -0.006,-0.02618 -0.001,-0.0055 -0.003,-0.01103 -0.001,-0.0069 -0.001,-0.01378 -0.001,-0.0096 -0.004,-0.02618 -0.001,-0.0096 -0.004,-0.02618 -0.006,-0.01654 -0.007,-0.02481 -0.003,-0.01654 -0.004,-0.02343 -0.003,-0.0055 -0.004,-0.01102 -0.001,-0.0069 -0.003,-0.01378 -0.001,-0.0055 -0.004,-0.01102 -0.003,-0.0069 -0.003,-0.01378 -0.0124,-0.03721 -0.007,-0.02343 -0.003,-0.0096 -0.007,-0.02343 -0.003,-0.0041 -0.006,-0.0096 -0.001,-0.0069 -0.003,-0.0124 -0.001,-0.0041 -0.008,-0.02343 -0.006,-0.01378 -0.008,-0.02205 -0.003,-0.0041 -0.006,-0.0096 -0.001,-0.0069 -0.003,-0.0124 -0.003,-0.0041 -0.006,-0.0096 -0.003,-0.0055 -0.004,-0.01102 -0.006,-0.01378 -0.01,-0.02067 -0.006,-0.01378 -0.008,-0.01929 -0.006,-0.01378 -0.01,-0.02067 -0.003,-0.0041 -0.006,-0.0083 -0.003,-0.0055 -0.004,-0.0096 -0.008,-0.01378 -0.011,-0.01929 -0.0124,-0.01929 -0.011,-0.01791 -0.004,-0.0041 -0.007,-0.0083 -0.001,-0.0055 -0.004,-0.0096 -0.003,-0.0055 -0.011,-0.01654 -0.003,-0.0041 -0.006,-0.0083 -0.003,-0.0041 -0.004,-0.0083 -0.007,-0.0124 -0.0234,-0.0317 -0.003,-0.0028 -0.022,-0.03032 -0.0165,-0.01929 -0.0248,-0.02756 -0.008,-0.0096 -0.0248,-0.02618 -0.011,-0.0124 -0.0234,-0.02343 -0.01,-0.0069 -0.0262,-0.02067 -0.0138,-0.01102 -0.0262,-0.02067 -0.0317,-0.02067 -0.0262,-0.01791 -0.0276,-0.01654 -0.0248,-0.01516 0,0 -0.0248,-0.0124 -0.006,-0.0028 -0.0262,-0.0096 -0.0179,-0.0069 -0.0262,-0.0096 -0.007,-0.0014 -0.0124,-0.0028 -0.006,-0.0028 -0.011,-0.0055 -0.0248,-0.0041 -0.0248,-0.0041 -0.008,-0.0014 -0.0248,-0.0014 -0.004,0 -0.007,0 -0.003,0 -0.006,0 h -0.45475 v 2.045007 0 z"
         style="font-style:normal;font-variant:normal;font-weight:normal;font-stretch:normal;font-size:2.82222px;font-family:'MS 33558';-inkscape-font-specification:'MS 33558, Normal';font-variant-ligatures:normal;font-variant-caps:normal;font-variant-numeric:normal;font-variant-east-asian:normal;stroke-width:0.264583"
         id="path9443" />
    </g>
    <path
       style="fill:none;stroke:#000000;stroke-width:0.993;stroke-linecap:round;stroke-miterlimit:4;stroke-dasharray:none"
       d="m 108.07234,23.817932 -8.459227,8.459089 z"
       id="path3769" />
    <path
       style="fill:none;stroke:#000000;stroke-width:0.993;stroke-linecap:round;stroke-miterlimit:4;stroke-dasharray:none"
       d="M 96.124204,18.682826 96.1241,30.682816 Z"
       id="path3767" />
    <path
       style="fill:none;stroke:#000000;stroke-width:0.993;stroke-linecap:round;stroke-miterlimit:4;stroke-dasharray:none"
       d="m 84.175977,23.817758 8.459108,8.459203 z"
       id="path3765" />
    <path
       style="fill:none;stroke:#000000;stroke-width:0.993;stroke-linecap:round;stroke-miterlimit:4;stroke-dasharray:none"
       d="m 79.040899,35.765905 11.999993,6.9e-5 z"
       id="path3763" />
  </g>
</svg>
