<?xml version="1.0" encoding="UTF-8" standalone="no"?>
<svg
   xmlns:dc="http://purl.org/dc/elements/1.1/"
   xmlns:cc="http://creativecommons.org/ns#"
   xmlns:rdf="http://www.w3.org/1999/02/22-rdf-syntax-ns#"
   xmlns:svg="http://www.w3.org/2000/svg"
   xmlns="http://www.w3.org/2000/svg"
   xmlns:sodipodi="http://sodipodi.sourceforge.net/DTD/sodipodi-0.dtd"
   xmlns:inkscape="http://www.inkscape.org/namespaces/inkscape"
   width="297mm"
   height="210mm"
   viewBox="0 0 297 210"
   version="1.1"
   id="svg8"
   inkscape:version="1.0.1 (3bc2e813f5, 2020-09-07)"
   sodipodi:docname="man_pitch.svg">
  <defs
     id="defs2">
    <marker
       id="DistanceX"
       orient="auto"
       refX="0.0"
       refY="0.0"
       style="overflow:visible">
      <path
         d="M 3,-3 L -3,3 M 0,-5 L  0,5"
         style="stroke:#000000; stroke-width:0.5"
         id="path833" />
    </marker>
    <pattern
       id="Hatch"
       patternUnits="userSpaceOnUse"
       width="8"
       height="8"
       x="0"
       y="0">
      <path
         d="M8 4 l-4,4"
         stroke="#000000"
         stroke-width="0.25"
         linecap="square"
         id="path836" />
      <path
         d="M6 2 l-4,4"
         stroke="#000000"
         stroke-width="0.25"
         linecap="square"
         id="path838" />
      <path
         d="M4 0 l-4,4"
         stroke="#000000"
         stroke-width="0.25"
         linecap="square"
         id="path840" />
    </pattern>
    <symbol
       id="*Model_Space" />
    <symbol
       id="*Paper_Space" />
  </defs>
  <sodipodi:namedview
     id="base"
     pagecolor="#ffffff"
     bordercolor="#666666"
     borderopacity="1.0"
     inkscape:pageopacity="0.0"
     inkscape:pageshadow="2"
     inkscape:zoom="2.8"
     inkscape:cx="440.27284"
     inkscape:cy="254.12386"
     inkscape:document-units="mm"
     inkscape:current-layer="layer1"
     inkscape:document-rotation="0"
     showgrid="false"
     inkscape:window-width="3840"
     inkscape:window-height="2081"
     inkscape:window-x="-9"
     inkscape:window-y="-9"
     inkscape:window-maximized="1" />
  <metadata
     id="metadata5">
    <rdf:RDF>
      <cc:Work
         rdf:about="">
        <dc:format>image/svg+xml</dc:format>
        <dc:type
           rdf:resource="http://purl.org/dc/dcmitype/StillImage" />
        <dc:title></dc:title>
      </cc:Work>
    </rdf:RDF>
  </metadata>
  <g
     inkscape:label="Lag 1"
     inkscape:groupmode="layer"
     id="layer1">
    <text
       xml:space="preserve"
       style="font-size:3.48431px;line-height:1.25;font-family:sans-serif;-inkscape-font-specification:'sans-serif, Normal';stroke-width:0.0871079"
       x="198.22655"
       y="38.1726"
       id="text1067-4"
       transform="scale(1.0541384,0.94864202)"><tspan
         sodipodi:role="line"
         id="tspan1065-6"
         x="198.22655"
         y="38.1726"
         style="stroke-width:0.0871079">NORM</tspan></text>
    <g
       id="g1049"
       transform="matrix(0.26458333,0,0,0.26458333,2.9523805,-221.92261)">
      <g
         inkscape:label="0"
         id="g893">
        <path
           d="M 302.36221,1065.8268 V 925.98425"
           style="fill:none;stroke:#ff0000;stroke-linecap:round"
           id="path847" />
        <path
           d="M 340.15748,869.29134 H 551.81102"
           style="fill:none;stroke:#ff0000;stroke-linecap:round"
           id="path849" />
        <path
           d="M 589.6063,925.98425 V 1065.8268"
           style="fill:none;stroke:#ff0000;stroke-linecap:round"
           id="path851" />
        <path
           d="M 551.81102,1122.5197 H 340.15748"
           style="fill:none;stroke:#ff0000;stroke-linecap:round"
           id="path853" />
        <path
           d="m 551.81102,1084.7244 v 37.7953"
           style="fill:none;stroke:#ff0000;stroke-linecap:round"
           id="path855" />
        <path
           d="M 589.6063,1065.8268 H 570.70866"
           style="fill:none;stroke:#ff0000;stroke-linecap:round"
           id="path857" />
        <path
           d="m 570.70866,1065.8268 a 18.897638,18.897638 0 0 0 -18.89764,18.8976"
           style="fill:none;stroke:#ff0000;stroke-linecap:round"
           id="path859" />
        <path
           d="M 570.70866,925.98425 H 589.6063"
           style="fill:none;stroke:#ff0000;stroke-linecap:round"
           id="path861" />
        <path
           d="m 551.81102,869.29134 v 37.79527"
           style="fill:none;stroke:#ff0000;stroke-linecap:round"
           id="path863" />
        <path
           d="m 551.81102,907.08661 a 18.897638,18.897638 0 0 0 18.89764,18.89764"
           style="fill:none;stroke:#ff0000;stroke-linecap:round"
           id="path865" />
        <path
           d="M 340.15748,907.08661 V 869.29134"
           style="fill:none;stroke:#ff0000;stroke-linecap:round"
           id="path867" />
        <path
           d="m 302.36221,925.98425 h 18.89763"
           style="fill:none;stroke:#ff0000;stroke-linecap:round"
           id="path869" />
        <path
           d="m 321.25984,925.98425 a 18.897638,18.897638 0 0 0 18.89764,-18.89764"
           style="fill:none;stroke:#ff0000;stroke-linecap:round"
           id="path871" />
        <path
           d="M 321.25984,1065.8268 H 302.36221"
           style="fill:none;stroke:#ff0000;stroke-linecap:round"
           id="path873" />
        <path
           d="m 340.15748,1122.5197 v -37.7953"
           style="fill:none;stroke:#ff0000;stroke-linecap:round"
           id="path875" />
        <path
           d="m 340.15748,1084.7244 a 18.897638,18.897638 0 0 0 -18.89764,-18.8976"
           style="fill:none;stroke:#ff0000;stroke-linecap:round"
           id="path877" />
        <path
           d="m 478.11024,971.33858 a 32.125985,32.125985 0 1 0 -64.25197,0 32.125985,32.125985 0 1 0 64.25197,0 z"
           style="fill:none;stroke:#ff0000;stroke-linecap:round"
           id="path879" />
        <path
           d="m 444.09449,914.64567 a 17.007875,17.007875 0 1 0 -34.01575,0 17.007875,17.007875 0 1 0 34.01575,0 z"
           style="fill:none;stroke:#ff0000;stroke-linecap:round"
           id="path881" />
        <path
           d="m 481.88976,914.64567 a 17.007874,17.007874 0 1 0 -34.01574,0 17.007874,17.007874 0 1 0 34.01574,0 z"
           style="fill:none;stroke:#ff0000;stroke-linecap:round"
           id="path883" />
        <path
           d="m 444.09449,1028.0315 a 17.007875,17.007875 0 1 0 -34.01575,0 17.007875,17.007875 0 1 0 34.01575,0 z"
           style="fill:none;stroke:#ff0000;stroke-linecap:round"
           id="path885" />
        <path
           d="m 481.88976,1028.0315 a 17.007874,17.007874 0 1 0 -34.01574,0 17.007874,17.007874 0 1 0 34.01574,0 z"
           style="fill:none;stroke:#ff0000;stroke-linecap:round"
           id="path887" />
        <path
           d="m 363.77953,995.90551 a 4.72441,4.72441 0 1 0 -9.44882,0 4.72441,4.72441 0 1 0 9.44882,0 z"
           style="fill:none;stroke:#ff0000;stroke-linecap:round"
           id="path889" />
        <path
           d="m 541.41732,995.90551 a 4.72441,4.72441 0 1 0 -9.44882,0 4.72441,4.72441 0 1 0 9.44882,0 z"
           style="fill:none;stroke:#ff0000;stroke-linecap:round"
           id="path891" />
      </g>
      <g
         inkscape:label="0-rear"
         id="g919">
        <path
           d="M 0,1122.5197 H 287.24409 V 869.29134 H 0 Z"
           style="fill:none;stroke:#ff0000;stroke-linecap:round"
           id="path895" />
        <path
           d="m 166.29921,971.33858 a 22.677165,22.677165 0 1 0 -45.35433,0 22.677165,22.677165 0 1 0 45.35433,0 z"
           style="fill:none;stroke:#ff0000;stroke-linecap:round"
           id="path897" />
        <path
           d="m 61.417323,995.90551 a 4.7244095,4.7244095 0 1 0 -9.448819,0 4.7244095,4.7244095 0 1 0 9.448819,0 z"
           style="fill:none;stroke:#ff0000;stroke-linecap:round"
           id="path899" />
        <path
           d="m 239.05512,995.90551 a 4.72441,4.72441 0 1 0 -9.44882,0 4.72441,4.72441 0 1 0 9.44882,0 z"
           style="fill:none;stroke:#ff0000;stroke-linecap:round"
           id="path901" />
        <path
           d="m 141.73228,914.64567 a 17.007875,17.007875 0 1 0 -34.01575,0 17.007875,17.007875 0 1 0 34.01575,0 z"
           style="fill:none;stroke:#ff0000;stroke-linecap:round"
           id="path903" />
        <path
           d="m 179.52756,914.64567 a 17.007875,17.007875 0 1 0 -34.01575,0 17.007875,17.007875 0 1 0 34.01575,0 z"
           style="fill:none;stroke:#ff0000;stroke-linecap:round"
           id="path905" />
        <path
           d="m 141.73228,1028.0315 a 17.007875,17.007875 0 1 0 -34.01575,0 17.007875,17.007875 0 1 0 34.01575,0 z"
           style="fill:none;stroke:#ff0000;stroke-linecap:round"
           id="path907" />
        <path
           d="m 179.52756,1028.0315 a 17.007875,17.007875 0 1 0 -34.01575,0 17.007875,17.007875 0 1 0 34.01575,0 z"
           style="fill:none;stroke:#ff0000;stroke-linecap:round"
           id="path909" />
        <path
           d="m 26.456693,1084.7244 a 7.559055,7.559055 0 1 0 -15.11811,0 7.559055,7.559055 0 1 0 15.11811,0 z"
           style="fill:none;stroke:#ff0000;stroke-linecap:round"
           id="path911" />
        <path
           d="m 26.456693,907.08661 a 7.559055,7.559055 0 1 0 -15.11811,0 7.559055,7.559055 0 1 0 15.11811,0 z"
           style="fill:none;stroke:#ff0000;stroke-linecap:round"
           id="path913" />
        <path
           d="m 275.90551,907.08661 a 7.559055,7.559055 0 1 0 -15.11811,0 7.559055,7.559055 0 1 0 15.11811,0 z"
           style="fill:none;stroke:#ff0000;stroke-linecap:round"
           id="path915" />
        <path
           d="m 275.90551,1084.7244 a 7.559055,7.559055 0 1 0 -15.11811,0 7.559055,7.559055 0 1 0 15.11811,0 z"
           style="fill:none;stroke:#ff0000;stroke-linecap:round"
           id="path917" />
      </g>
      <g
         inkscape:label="1-front"
         id="g967">
        <path
           d="M 642.51968,1122.5197 H 854.17323"
           style="fill:none;stroke:#ff0000;stroke-linecap:round"
           id="path921" />
        <path
           d="M 891.9685,1065.8268 V 925.98425"
           style="fill:none;stroke:#ff0000;stroke-linecap:round"
           id="path923" />
        <path
           d="M 854.17323,869.29134 H 642.51968"
           style="fill:none;stroke:#ff0000;stroke-linecap:round"
           id="path925" />
        <path
           d="M 604.72441,925.98425 V 1065.8268"
           style="fill:none;stroke:#ff0000;stroke-linecap:round"
           id="path927" />
        <path
           d="m 604.72441,1065.8268 h 18.89764"
           style="fill:none;stroke:#ff0000;stroke-linecap:round"
           id="path929" />
        <path
           d="m 642.51968,1084.7244 v 37.7953"
           style="fill:none;stroke:#ff0000;stroke-linecap:round"
           id="path931" />
        <path
           d="m 642.51968,1084.7244 a 18.897638,18.897638 0 0 0 -18.89763,-18.8976"
           style="fill:none;stroke:#ff0000;stroke-linecap:round"
           id="path933" />
        <path
           d="M 891.9685,925.98425 H 873.07087"
           style="fill:none;stroke:#ff0000;stroke-linecap:round"
           id="path935" />
        <path
           d="M 854.17323,907.08661 V 869.29134"
           style="fill:none;stroke:#ff0000;stroke-linecap:round"
           id="path937" />
        <path
           d="m 854.17323,907.08661 a 18.897638,18.897638 0 0 0 18.89764,18.89764"
           style="fill:none;stroke:#ff0000;stroke-linecap:round"
           id="path939" />
        <path
           d="m 854.17323,1122.5197 v -37.7953"
           style="fill:none;stroke:#ff0000;stroke-linecap:round"
           id="path941" />
        <path
           d="M 873.07087,1065.8268 H 891.9685"
           style="fill:none;stroke:#ff0000;stroke-linecap:round"
           id="path943" />
        <path
           d="m 873.07087,1065.8268 a 18.897638,18.897638 0 0 0 -18.89764,18.8976"
           style="fill:none;stroke:#ff0000;stroke-linecap:round"
           id="path945" />
        <path
           d="M 623.62205,925.98425 H 604.72441"
           style="fill:none;stroke:#ff0000;stroke-linecap:round"
           id="path947" />
        <path
           d="m 642.51968,869.29134 v 37.79527"
           style="fill:none;stroke:#ff0000;stroke-linecap:round"
           id="path949" />
        <path
           d="m 623.62205,925.98425 a 18.897638,18.897638 0 0 0 18.89763,-18.89764"
           style="fill:none;stroke:#ff0000;stroke-linecap:round"
           id="path951" />
        <path
           d="m 667.08661,995.90551 a 5.6692915,5.6692915 0 1 0 -11.33858,0 5.6692915,5.6692915 0 1 0 11.33858,0 z"
           style="fill:none;stroke:#ff0000;stroke-linecap:round"
           id="path953" />
        <path
           d="m 844.72441,995.90551 a 5.669291,5.669291 0 1 0 -11.33858,0 5.669291,5.669291 0 1 0 11.33858,0 z"
           style="fill:none;stroke:#ff0000;stroke-linecap:round"
           id="path955" />
        <path
           d="m 771.02362,971.33858 a 22.677165,22.677165 0 1 0 -45.35433,0 22.677165,22.677165 0 1 0 45.35433,0 z"
           style="fill:none;stroke:#ff0000;stroke-linecap:round"
           id="path957" />
        <path
           d="m 737.00787,914.64567 a 7.559055,7.559055 0 1 0 -15.11811,0 7.559055,7.559055 0 1 0 15.11811,0 z"
           style="fill:none;stroke:#ff0000;stroke-linecap:round"
           id="path959" />
        <path
           d="m 774.80315,914.64567 a 7.5590555,7.5590555 0 1 0 -15.11811,0 7.5590555,7.5590555 0 1 0 15.11811,0 z"
           style="fill:none;stroke:#ff0000;stroke-linecap:round"
           id="path961" />
        <path
           d="m 737.00787,1028.0315 a 7.559055,7.559055 0 1 0 -15.11811,0 7.559055,7.559055 0 1 0 15.11811,0 z"
           style="fill:none;stroke:#ff0000;stroke-linecap:round"
           id="path963" />
        <path
           d="m 774.80315,1028.0315 a 7.5590555,7.5590555 0 1 0 -15.11811,0 7.5590555,7.5590555 0 1 0 15.11811,0 z"
           style="fill:none;stroke:#ff0000;stroke-linecap:round"
           id="path965" />
      </g>
      <g
         inkscape:label="enrgave"
         id="g969" />
    </g>
    <text
       xml:space="preserve"
       style="font-weight:bold;font-size:10.5833px;line-height:1.25;font-family:sans-serif;-inkscape-font-specification:'sans-serif, Bold';stroke-width:0.264583"
       x="181.90105"
       y="14.552083"
       id="text1059"><tspan
         sodipodi:role="line"
         id="tspan1057"
         x="181.90105"
         y="14.552083"
         style="stroke-width:0.264583" /></text>
    <text
       xml:space="preserve"
       style="font-size:4.5588px;line-height:1.25;font-family:sans-serif;-inkscape-font-specification:'sans-serif, Normal';stroke-width:0.11397"
       x="186.8797"
       y="13.332636"
       id="text1063"
       transform="scale(0.9851544,1.0150693)"><tspan
         sodipodi:role="line"
         id="tspan1061"
         x="186.8797"
         y="13.332636"
         style="stroke-width:0.11397">MANUAL PITCH</tspan></text>
    <text
       xml:space="preserve"
       style="font-size:3.48431px;line-height:1.25;font-family:sans-serif;-inkscape-font-specification:'sans-serif, Normal';stroke-width:0.0871078"
       x="172.56851"
       y="38.1726"
       id="text1067"
       transform="scale(1.0541384,0.94864202)"><tspan
         sodipodi:role="line"
         id="tspan1065"
         x="172.56851"
         y="38.1726"
         style="stroke-width:0.0871078">OVRD</tspan></text>
    <text
       xml:space="preserve"
       style="font-size:4.0973px;line-height:1.25;font-family:sans-serif;-inkscape-font-specification:'sans-serif, Normal';stroke-width:0.102433"
       x="199.44789"
       y="59.740974"
       id="text1089"
       transform="scale(0.99876693,1.0012346)"><tspan
         sodipodi:role="line"
         id="tspan1087"
         x="199.44789"
         y="59.740974"
         style="stroke-width:0.102433">+</tspan></text>
  </g>
</svg>
