<?xml version="1.0" encoding="UTF-8" standalone="no"?>
<svg
   xmlns:dc="http://purl.org/dc/elements/1.1/"
   xmlns:cc="http://creativecommons.org/ns#"
   xmlns:rdf="http://www.w3.org/1999/02/22-rdf-syntax-ns#"
   xmlns:svg="http://www.w3.org/2000/svg"
   xmlns="http://www.w3.org/2000/svg"
   xmlns:sodipodi="http://sodipodi.sourceforge.net/DTD/sodipodi-0.dtd"
   xmlns:inkscape="http://www.inkscape.org/namespaces/inkscape"
   width="210mm"
   height="297mm"
   viewBox="0 0 210 297"
   version="1.1"
   id="svg8"
   inkscape:version="1.0.1 (3bc2e813f5, 2020-09-07)"
   sodipodi:docname="twa.svg">
  <defs
     id="defs2">
    <marker
       id="DistanceX"
       orient="auto"
       refX="0.0"
       refY="0.0"
       style="overflow:visible">
      <path
         d="M 3,-3 L -3,3 M 0,-5 L  0,5"
         style="stroke:#000000; stroke-width:0.5"
         id="path833" />
    </marker>
    <pattern
       id="Hatch"
       patternUnits="userSpaceOnUse"
       width="8"
       height="8"
       x="0"
       y="0">
      <path
         d="M8 4 l-4,4"
         stroke="#000000"
         stroke-width="0.25"
         linecap="square"
         id="path836" />
      <path
         d="M6 2 l-4,4"
         stroke="#000000"
         stroke-width="0.25"
         linecap="square"
         id="path838" />
      <path
         d="M4 0 l-4,4"
         stroke="#000000"
         stroke-width="0.25"
         linecap="square"
         id="path840" />
    </pattern>
    <symbol
       id="*Model_Space" />
    <symbol
       id="*Paper_Space" />
  </defs>
  <sodipodi:namedview
     id="base"
     pagecolor="#ffffff"
     bordercolor="#666666"
     borderopacity="1.0"
     inkscape:pageopacity="0.0"
     inkscape:pageshadow="2"
     inkscape:zoom="3.959798"
     inkscape:cx="109.7293"
     inkscape:cy="217.17884"
     inkscape:document-units="mm"
     inkscape:current-layer="layer1"
     inkscape:document-rotation="0"
     showgrid="false"
     inkscape:window-width="2130"
     inkscape:window-height="2071"
     inkscape:window-x="0"
     inkscape:window-y="0"
     inkscape:window-maximized="0" />
  <metadata
     id="metadata5">
    <rdf:RDF>
      <cc:Work
         rdf:about="">
        <dc:format>image/svg+xml</dc:format>
        <dc:type
           rdf:resource="http://purl.org/dc/dcmitype/StillImage" />
        <dc:title />
      </cc:Work>
    </rdf:RDF>
  </metadata>
  <g
     inkscape:label="Lag 1"
     inkscape:groupmode="layer"
     id="layer1">
    <g
       inkscape:label="0"
       id="g869"
       transform="matrix(0.26458333,0,0,0.26458333,6.9702376,-196.57142)"
       style="stroke:#ff0000">
      <path
         d="M 7.559055,910.86614 H 75.590551 V 842.83465 H 7.559055 Z"
         style="fill:none;stroke:#ff0000;stroke-linecap:round"
         id="path847" />
      <path
         d="M 83.149606,910.86614 H 151.1811 V 842.83465 H 83.149606 Z"
         style="fill:none;stroke:#ff0000;stroke-linecap:round"
         id="path849" />
      <path
         d="M 7.559055,986.45669 H 75.590551 V 918.4252 H 7.559055 Z"
         style="fill:none;stroke:#ff0000;stroke-linecap:round"
         id="path851" />
      <path
         d="M 83.149606,986.45669 H 151.1811 V 918.4252 H 83.149606 Z"
         style="fill:none;stroke:#ff0000;stroke-linecap:round"
         id="path853" />
      <path
         d="M 18.897638,1122.5197 H 139.84252 a 18.897638,18.897638 0 0 0 18.89764,-18.8977 V 793.70079 A 18.897638,18.897638 0 0 0 139.84252,774.80315 H 18.897638 A 18.897638,18.897638 0 0 0 0,793.70079 V 1103.622 a 18.897638,18.897638 0 0 0 18.897638,18.8977 z"
         style="fill:none;stroke:#ff0000;stroke-linecap:round"
         id="path855" />
      <path
         d="m 26.456693,793.70079 a 7.559055,7.559055 0 1 0 -15.11811,0 7.559055,7.559055 0 1 0 15.11811,0 z"
         style="fill:none;stroke:#ff0000;stroke-linecap:round"
         id="path857" />
      <path
         d="m 147.40157,793.70079 a 7.559055,7.559055 0 1 0 -15.11811,0 7.559055,7.559055 0 1 0 15.11811,0 z"
         style="fill:none;stroke:#ff0000;stroke-linecap:round"
         id="path859" />
      <path
         d="m 147.40157,1103.622 a 7.559055,7.559055 0 1 0 -15.11811,0 7.559055,7.559055 0 1 0 15.11811,0 z"
         style="fill:none;stroke:#ff0000;stroke-linecap:round"
         id="path861" />
      <path
         d="m 26.456693,1103.622 a 7.559055,7.559055 0 1 0 -15.11811,0 7.559055,7.559055 0 1 0 15.11811,0 z"
         style="fill:none;stroke:#ff0000;stroke-linecap:round"
         id="path863" />
      <path
         d="m 126.61417,1046.9291 a 13.228346,13.228346 0 1 0 -26.45669,0 13.228347,13.228347 0 1 0 26.45669,0 z"
         style="fill:none;stroke:#ff0000;stroke-linecap:round"
         id="path865" />
      <path
         d="m 66.141732,1062.0472 a 28.346457,28.346457 0 1 0 -56.692913,0 28.346457,28.346457 0 1 0 56.692913,0 z"
         style="fill:none;stroke:#ff0000;stroke-linecap:round"
         id="path867" />
    </g>
    <g
       aria-label="THREAT
WARNING
AUX"
       id="text907"
       style="font-size:3.29433px;line-height:1.25;font-family:'MS 33558';-inkscape-font-specification:'MS 33558, Normal';text-align:center;text-anchor:middle;stroke-width:0.264583">
      <path
         d="m 21.449275,14.006904 v -2.615518 h -0.590341 q -0.225199,-0.01769 -0.225199,-0.225198 0.0016,-0.209113 0.225199,-0.228415 h 1.632687 q 0.221982,0.01769 0.221982,0.228415 0.0016,0.209113 -0.221982,0.225198 h -0.588732 v 2.615518 q -0.037,0.228416 -0.238067,0.225198 -0.199462,-0.0032 -0.215547,-0.225198 z"
         style="stroke-width:0.264583"
         id="path13975" />
      <path
         d="m 23.194562,14.010121 v -2.843933 q 0.03378,-0.231633 0.23485,-0.226807 0.20107,0.0032 0.218764,0.226807 v 1.063258 h 1.29489 v -1.063258 q 0.03378,-0.226807 0.226807,-0.226807 0.194636,-0.0016 0.230024,0.226807 v 2.843933 q -0.03539,0.226807 -0.230024,0.225199 -0.193027,0 -0.226807,-0.225199 v -1.323844 h -1.29489 v 1.323844 q -0.01769,0.221981 -0.218764,0.225199 -0.20107,0.0032 -0.23485,-0.225199 z"
         style="stroke-width:0.264583"
         id="path13977" />
      <path
         d="m 27.869036,13.883045 q 0.102948,0.181767 -0.05791,0.305626 -0.07721,0.05469 -0.17855,0.037 -0.09973,-0.01769 -0.146379,-0.09973 l -0.79302,-1.253067 h -0.40214 v 1.132426 q 0,0.139944 -0.127076,0.202678 -0.127076,0.06113 -0.238067,-0.02413 -0.08847,-0.06595 -0.08847,-0.17855 v -2.842325 q 0,-0.0933 0.06434,-0.159248 0.06595,-0.06595 0.160856,-0.06595 h 0.998915 q 0.360317,0 0.62573,0.230024 0.265412,0.228415 0.329754,0.58069 0.06756,0.378011 -0.160856,0.707766 -0.226806,0.328146 -0.603209,0.398922 l -0.03056,0.0048 z m -0.807497,-1.462181 q 0.164073,0 0.302409,-0.09973 0.139945,-0.09973 0.188202,-0.260587 0.0756,-0.247718 -0.06917,-0.447179 -0.144771,-0.20107 -0.398923,-0.221982 h -0.79302 v 1.029478 z"
         style="stroke-width:0.264583"
         id="path13979" />
      <path
         d="m 30.244878,11.386561 h -1.333495 v 0.879882 h 1.016609 q 0.228416,0.03378 0.226807,0.230024 0,0.194635 -0.226807,0.226807 h -1.016609 v 1.056823 h 1.333495 q 0.226807,0.03378 0.226807,0.226807 0,0.193027 -0.226807,0.225198 h -1.557085 q -0.20107,-0.02574 -0.228416,-0.228415 v -2.840716 q 0.03056,-0.21233 0.228416,-0.225198 h 1.557085 q 0.226807,0.01769 0.225199,0.226806 0,0.207505 -0.225199,0.221982 z"
         style="stroke-width:0.264583"
         id="path13981" />
      <path
         d="m 32.660935,13.175279 -0.489002,-1.35119 -0.49222,1.35119 z m -0.489002,-1.35119 0.489002,1.35119 z m -1.241808,2.097561 q 0.257369,-0.709374 0.514739,-1.417141 0.258978,-0.709374 0.517956,-1.418749 0.05308,-0.146379 0.210721,-0.147987 0.157639,-0.0016 0.21233,0.147987 l 1.031087,2.843933 q 0.04826,0.226807 -0.138336,0.292758 -0.186593,0.06595 -0.287933,-0.135119 l -0.165681,-0.460048 h -1.310976 l -0.160856,0.448788 q -0.102948,0.202679 -0.292758,0.133511 -0.18981,-0.07078 -0.130293,-0.287933 z"
         style="stroke-width:0.264583"
         id="path13983" />
      <path
         d="m 34.549384,14.006904 v -2.615518 h -0.590341 q -0.225199,-0.01769 -0.225199,-0.225198 0.0016,-0.209113 0.225199,-0.228415 h 1.632688 q 0.221981,0.01769 0.221981,0.228415 0.0016,0.209113 -0.221981,0.225198 h -0.588733 v 2.615518 q -0.037,0.228416 -0.238067,0.225198 -0.199461,-0.0032 -0.215547,-0.225198 z"
         style="stroke-width:0.264583"
         id="path13985" />
      <path
         d="m 21.438015,15.239061 0.562996,1.923837 0.376403,-1.923837 q 0.06756,-0.217156 0.263803,-0.176942 0.197853,0.04021 0.181768,0.262195 l -0.556562,2.840716 q -0.05147,0.178551 -0.210721,0.184985 -0.157639,0.0064 -0.228416,-0.162465 l -0.608035,-2.075042 -0.60321,2.075042 q -0.07399,0.173725 -0.226807,0.162465 -0.152813,-0.01126 -0.215547,-0.184985 l -0.556561,-2.840716 q 0,-0.230024 0.183375,-0.263803 0.183376,-0.03539 0.267021,0.17855 l 0.371577,1.927054 0.562996,-1.927054 q 0.06917,-0.159248 0.220373,-0.164073 0.152813,-0.0048 0.215547,0.164073 z"
         style="stroke-width:0.264583"
         id="path13987" />
      <path
         d="m 24.877115,17.293191 -0.489002,-1.35119 -0.492219,1.35119 z m -0.489002,-1.35119 0.489002,1.35119 z m -1.241808,2.097562 q 0.25737,-0.709375 0.514739,-1.417141 0.258978,-0.709375 0.517956,-1.41875 0.05308,-0.146379 0.210722,-0.147987 0.157638,-0.0016 0.212329,0.147987 l 1.031087,2.843934 q 0.04826,0.226806 -0.138336,0.292757 -0.186593,0.06595 -0.287932,-0.135119 l -0.165682,-0.460048 h -1.310976 l -0.160856,0.448788 q -0.102948,0.202679 -0.292758,0.133511 -0.18981,-0.07078 -0.130293,-0.287932 z"
         style="stroke-width:0.264583"
         id="path13989" />
      <path
         d="m 27.981635,18.000957 q 0.102948,0.181768 -0.05791,0.305627 -0.07721,0.05469 -0.17855,0.037 -0.09973,-0.01769 -0.146379,-0.09973 l -0.79302,-1.253068 h -0.40214 v 1.132426 q 0,0.139945 -0.127076,0.202678 -0.127076,0.06113 -0.238067,-0.02413 -0.08847,-0.06595 -0.08847,-0.17855 v -2.842325 q 0,-0.0933 0.06434,-0.159247 0.06595,-0.06595 0.160856,-0.06595 h 0.998915 q 0.360317,0 0.62573,0.230024 0.265412,0.228415 0.329754,0.58069 0.06756,0.378011 -0.160856,0.707766 -0.226807,0.328146 -0.603209,0.398923 l -0.03056,0.0048 z m -0.807497,-1.46218 q 0.164073,0 0.302409,-0.09973 0.139945,-0.09973 0.188202,-0.260587 0.0756,-0.247718 -0.06917,-0.447179 -0.144771,-0.20107 -0.398923,-0.221981 h -0.79302 v 1.029478 z"
         style="stroke-width:0.264583"
         id="path13991" />
      <path
         d="m 30.793397,18.128034 q 0,0.168898 -0.164073,0.215547 -0.162464,0.04504 -0.252544,-0.09651 l -1.35119,-2.16673 v 2.047697 q -0.03539,0.225198 -0.228415,0.225198 -0.191419,0 -0.225198,-0.225198 v -2.840717 q 0.02413,-0.16729 0.170507,-0.220372 0.147987,-0.05308 0.24611,0.09973 l 1.35119,2.169947 v -2.049305 q 0.03056,-0.230024 0.233241,-0.226806 0.204287,0.0016 0.220372,0.226806 z"
         style="stroke-width:0.264583"
         id="path13993" />
      <path
         d="m 31.711884,18.128034 q -0.03539,0.226806 -0.230024,0.225198 -0.193027,0 -0.226806,-0.225198 V 15.2841 q 0.03378,-0.226807 0.226806,-0.226807 0.194636,-0.0016 0.230024,0.226807 z"
         style="stroke-width:0.264583"
         id="path13995" />
      <path
         d="m 34.390136,18.128034 q 0,0.168898 -0.164073,0.215547 -0.162464,0.04504 -0.252544,-0.09651 l -1.35119,-2.16673 v 2.047697 q -0.03539,0.225198 -0.228415,0.225198 -0.191419,0 -0.225198,-0.225198 v -2.840717 q 0.02413,-0.16729 0.170507,-0.220372 0.147987,-0.05308 0.246109,0.09973 l 1.35119,2.169947 v -2.049305 q 0.03056,-0.230024 0.233242,-0.226806 0.204287,0.0016 0.220372,0.226806 z"
         style="stroke-width:0.264583"
         id="path13997" />
      <path
         d="m 35.952047,17.022953 -0.01448,-0.0016 q -0.196244,-0.02413 -0.196244,-0.22359 0,-0.199462 0.196244,-0.22359 l 0.01448,-0.0032 h 0.01448 0.593559 q 0.0933,0 0.159247,0.06756 0.06756,0.06595 0.06756,0.159248 v 0.815539 l -0.0193,0.04182 -0.01126,0.02574 -0.01126,0.02413 -0.01287,0.02413 -0.01287,0.02413 -0.01126,0.02413 -0.01287,0.02413 -0.01448,0.02413 q -0.312061,0.530825 -0.775326,0.519565 -0.463265,-0.01287 -0.778543,-0.52439 -0.149596,-0.242893 -0.221981,-0.608036 -0.07238,-0.366751 -0.04343,-0.74798 0.02895,-0.382837 0.176941,-0.727069 0.149596,-0.34584 0.445571,-0.548519 0.369969,-0.250935 0.720635,-0.05791 0.350666,0.191419 0.52439,0.538868 l 0.01287,0.02574 0.0097,0.02252 0.01287,0.02413 q 0.05469,0.152813 -0.04182,0.249327 -0.0933,0.09169 -0.202678,0.06917 -0.109382,-0.02413 -0.168899,-0.130294 -0.188202,-0.466482 -0.485785,-0.406965 -0.295975,0.05952 -0.443963,0.485785 -0.14477,0.411791 -0.114207,0.886316 0.03056,0.472916 0.308843,0.825191 0.191419,0.24611 0.389272,0.157639 0.197852,-0.08847 0.31206,-0.329755 l 0.01769,-0.03539 v -0.490611 z"
         style="stroke-width:0.264583"
         id="path13999" />
      <path
         d="m 26.186483,21.411103 -0.489002,-1.351189 -0.49222,1.351189 z m -0.489002,-1.351189 0.489002,1.351189 z m -1.241808,2.097561 q 0.257369,-0.709375 0.514739,-1.417141 0.258978,-0.709375 0.517956,-1.418749 0.05308,-0.146379 0.210721,-0.147988 0.157639,-0.0016 0.21233,0.147988 l 1.031087,2.843933 q 0.04826,0.226807 -0.138337,0.292758 -0.186592,0.06595 -0.287932,-0.135119 L 26.350556,21.863109 H 25.03958 l -0.160856,0.448788 q -0.102948,0.202678 -0.292758,0.13351 -0.18981,-0.07078 -0.130293,-0.287932 z"
         style="stroke-width:0.264583"
         id="path14001" />
      <path
         d="m 29.42773,21.382149 v 0.03217 q -0.0048,0.08043 -0.0064,0.09651 -0.06756,0.492219 -0.403749,0.727069 -0.336189,0.233241 -0.717417,0.218764 -0.381229,-0.01609 -0.698115,-0.278281 -0.315278,-0.262195 -0.342623,-0.764065 v -0.03217 -1.983353 q 0,-0.04826 0.01769,-0.08686 0.07721,-0.168898 0.255761,-0.13351 0.180159,0.03539 0.180159,0.220373 v 1.983353 q 0.02413,0.369969 0.324929,0.553345 0.302409,0.183376 0.635381,-0.01609 0.149596,-0.08847 0.218764,-0.228415 0.07078,-0.139945 0.08365,-0.308844 v -1.983353 q 0,-0.02895 0.0032,-0.04343 0.037,-0.197852 0.242892,-0.17855 0.205896,0.0193 0.205896,0.221982 z"
         style="stroke-width:0.264583"
         id="path14003" />
      <path
         d="m 29.844347,22.13013 0.870231,-1.557086 -0.593559,-1.063258 q -0.08525,-0.210721 0.08847,-0.307235 0.173724,-0.09812 0.308843,0.08686 l 0.453614,0.818756 0.456831,-0.818756 q 0.135119,-0.184985 0.307235,-0.08847 0.172116,0.09651 0.09008,0.310452 l -0.59195,1.061649 0.868622,1.557086 q 0.08686,0.212329 -0.09008,0.310452 -0.176941,0.09651 -0.304018,-0.09169 l -0.73672,-1.312585 -0.728677,1.312585 q -0.139945,0.183375 -0.313669,0.08847 -0.172116,-0.0949 -0.08525,-0.307234 z"
         style="stroke-width:0.264583"
         id="path14005" />
    </g>
    <g
       aria-label="DIM"
       id="text915"
       style="font-size:3.29433px;line-height:1.25;font-family:'MS 33558';-inkscape-font-specification:'MS 33558, Normal';text-align:center;text-anchor:middle;stroke-width:0.264583">
      <path
         d="m 33.798592,89.314564 h 0.757632 q 0.564604,0 0.846102,0.51474 0.281498,0.514739 0.281498,1.132425 0,0.617687 -0.283107,1.132426 -0.281498,0.514739 -0.844493,0.514739 h -0.757632 0.0032 -0.0032 q -0.05308,-0.008 -0.05791,-0.0097 -0.16729,-0.04021 -0.165682,-0.218764 h -0.0016 l 0.0016,-2.840716 q -0.0016,-0.0048 -0.0016,-0.01287 0.0048,-0.08847 0.06917,-0.149596 0.06595,-0.06273 0.157639,-0.06273 z m 0.757632,2.840717 q 0.0032,0 0.0064,0 0.0032,0 0.008,0 0.0032,0 0.0048,0 0.0032,-0.0016 0.008,-0.0016 0.0032,0 0.0064,0 0.0048,-0.0016 0.0097,-0.0016 0.0032,0 0.0064,0 0.0032,-0.0016 0.008,-0.0016 0.0032,0 0.0064,0 0.0032,-0.0016 0.008,-0.0016 0.0064,-0.0032 0.01287,-0.0032 0.0032,0 0.0064,-0.0016 0.0032,-0.0032 0.008,-0.0048 0.0032,0 0.0064,0 0.0048,-0.0016 0.0097,-0.0032 0.0032,0 0.0064,-0.0016 0.0032,-0.0016 0.008,-0.0032 0.0097,-0.0032 0.01448,-0.0064 0.02895,-0.0097 0.01609,-0.0064 0.0032,0 0.0064,-0.0016 0.0032,-0.0032 0.008,-0.0048 0.01448,-0.0097 0.01287,-0.008 0.01609,-0.008 0.01609,-0.008 0.0032,-0.0016 0.0064,-0.0032 0.0032,-0.0032 0.008,-0.0064 0.01448,-0.0097 0.01448,-0.0097 0.0032,-0.0016 0.0064,-0.0032 0.0048,-0.0032 0.0097,-0.0064 0.0032,-0.0016 0.0064,-0.0048 0.0032,-0.0032 0.008,-0.0064 0.0032,-0.0016 0.0064,-0.0032 0.0032,-0.0032 0.008,-0.0064 0.0032,-0.0032 0.01609,-0.01287 0.01287,-0.01287 0.01287,-0.01287 0.0032,-0.0032 0.0064,-0.0064 0.0032,-0.0032 0.008,-0.008 0.0032,-0.0032 0.0064,-0.0064 0.0032,-0.0032 0.008,-0.008 0.0048,-0.0032 0.01448,-0.01287 0.0032,-0.0032 0.0064,-0.0064 0.0032,-0.0032 0.008,-0.008 0.0032,-0.0032 0.0064,-0.0064 0.0032,-0.0048 0.008,-0.0097 0.0193,-0.02574 0.01287,-0.01609 0.01126,-0.01126 0.01448,-0.01769 0.01448,-0.0193 0.01287,-0.01769 0.0032,-0.0048 0.0064,-0.008 0.0032,-0.0048 0.008,-0.0097 0.0032,-0.0048 0.0048,-0.0097 0.0032,-0.0048 0.008,-0.0097 0.0016,-0.0048 0.0048,-0.0097 0.0048,-0.0064 0.008,-0.01126 0.0097,-0.01287 0.01287,-0.0193 0.0032,-0.0048 0.0048,-0.0097 0.0032,-0.0064 0.008,-0.01126 0.0032,-0.0048 0.0048,-0.0097 0.0032,-0.0064 0.008,-0.01126 0.0032,-0.008 0.0097,-0.02091 0.0032,-0.0048 0.0048,-0.01126 0.0032,-0.0064 0.008,-0.01287 0.0032,-0.0048 0.0048,-0.0097 0.0032,-0.0064 0.008,-0.01287 0.0016,-0.0048 0.0032,-0.01126 0.0032,-0.0064 0.0064,-0.01287 0.0048,-0.008 0.01126,-0.02413 0.01609,-0.04021 0.01126,-0.02574 0.0016,-0.0048 0.0032,-0.01126 0.0032,-0.008 0.0064,-0.01448 0.0016,-0.0064 0.0032,-0.01287 0.0032,-0.0064 0.0064,-0.01448 0.0048,-0.01448 0.008,-0.02574 0.0016,-0.0064 0.0032,-0.01287 0.0032,-0.0064 0.0064,-0.01448 -0.0064,0.01609 0.008,-0.02735 0.0032,-0.008 0.0097,-0.02734 0,-0.0064 0.0016,-0.01287 0.0032,-0.008 0.0048,-0.01609 0.0016,-0.0064 0.0032,-0.01287 0.0016,-0.008 0.0048,-0.01609 0,-0.0048 0.0016,-0.01126 0.0032,-0.008 0.0048,-0.01609 0.0016,-0.01126 0.0048,-0.03056 0,-0.0064 0.0016,-0.01287 0.0032,-0.008 0.0048,-0.01609 0,-0.0064 0.0016,-0.01287 0.0016,-0.008 0.0032,-0.01609 0.0016,-0.01126 0.0048,-0.03056 0,-0.0064 0.0016,-0.01448 0.0032,-0.008 0.0048,-0.01609 0,-0.01126 0.0032,-0.03056 0,-0.0064 0,-0.01287 0.0016,-0.008 0.0032,-0.01769 0.0032,-0.0193 0.0032,-0.03056 0.0016,-0.01126 0.0016,-0.03056 0.0016,-0.01126 0.0016,-0.03217 0.0016,-0.01126 0.0016,-0.03056 0,-0.008 0,-0.01448 0.0016,-0.008 0.0032,-0.01769 0,-0.0064 0,-0.01287 0.0016,-0.008 0.0016,-0.01769 0,-0.0064 0,-0.01448 0,-0.008 0,-0.01609 0,-0.008 0,-0.01448 0,-0.008 0,-0.01609 0,-0.008 -0.0016,-0.01448 0,-0.008 0,-0.01769 0,-0.0064 0,-0.01448 0,-0.008 0,-0.01609 0,-0.0097 -0.0032,-0.03217 0,-0.0193 -0.0016,-0.02895 0,-0.01126 -0.0032,-0.03378 0,-0.0193 -0.0016,-0.02895 0,-0.01126 -0.0032,-0.03056 -0.0016,-0.0064 -0.0032,-0.01448 0,-0.008 0,-0.01609 -0.0032,-0.0193 -0.0064,-0.03056 -0.0016,-0.0064 -0.0032,-0.01287 -0.0016,-0.008 -0.0016,-0.01609 -0.0016,-0.01126 -0.0048,-0.03056 -0.0016,-0.01126 -0.0048,-0.03056 -0.0064,-0.0193 -0.008,-0.02895 -0.0032,-0.0193 -0.0048,-0.02735 -0.0032,-0.0064 -0.0048,-0.01287 -0.0016,-0.008 -0.0032,-0.01609 -0.0016,-0.0064 -0.0048,-0.01287 -0.0032,-0.008 -0.0032,-0.01609 -0.01448,-0.04343 -0.008,-0.02735 -0.0032,-0.01126 -0.008,-0.02734 -0.0032,-0.0048 -0.0064,-0.01126 -0.0016,-0.008 -0.0032,-0.01448 -0.0016,-0.0048 -0.0097,-0.02735 -0.0064,-0.01608 -0.0097,-0.02574 -0.0032,-0.0048 -0.0064,-0.01126 -0.0016,-0.008 -0.0032,-0.01448 -0.0032,-0.0048 -0.0064,-0.01126 -0.0032,-0.0064 -0.0048,-0.01287 -0.0064,-0.01609 -0.01126,-0.02413 -0.0064,-0.01609 -0.0097,-0.02252 -0.0064,-0.01609 -0.01126,-0.02413 -0.0032,-0.0048 -0.0064,-0.0097 -0.0032,-0.0064 -0.0048,-0.01126 -0.0097,-0.01609 -0.01287,-0.02252 -0.01448,-0.02252 -0.01287,-0.02091 -0.0048,-0.0048 -0.008,-0.0097 -0.0016,-0.0064 -0.0048,-0.01126 -0.0032,-0.0064 -0.01287,-0.0193 -0.0032,-0.0048 -0.0064,-0.0097 -0.0032,-0.0048 -0.0048,-0.0097 -0.008,-0.01448 -0.02735,-0.037 -0.0032,-0.0032 -0.02574,-0.03539 -0.0193,-0.02252 -0.02895,-0.03217 -0.0097,-0.01126 -0.02895,-0.03056 -0.01287,-0.01448 -0.02735,-0.02734 -0.01126,-0.008 -0.03056,-0.02413 -0.01609,-0.01287 -0.03056,-0.02413 -0.037,-0.02413 -0.03056,-0.02091 -0.03217,-0.0193 -0.02895,-0.01769 0,0 -0.02895,-0.01448 -0.0064,-0.0032 -0.03056,-0.01126 -0.02091,-0.008 -0.03056,-0.01126 -0.008,-0.0016 -0.01448,-0.0032 -0.0064,-0.0032 -0.01287,-0.0064 -0.02895,-0.0048 -0.02895,-0.0048 -0.0097,-0.0016 -0.02895,-0.0016 -0.0048,0 -0.008,0 -0.0032,0 -0.0064,0 h -0.530825 v 2.387103 0 z"
         style="stroke-width:0.264583"
         id="path13968" />
      <path
         d="m 36.550837,92.386913 q -0.03539,0.226807 -0.230024,0.225198 -0.193027,0 -0.226807,-0.225198 V 89.54298 q 0.03378,-0.226807 0.226807,-0.226807 0.194636,-0.0016 0.230024,0.226807 z"
         style="stroke-width:0.264583"
         id="path13970" />
      <path
         d="m 39.40603,92.383696 q -0.03539,0.225198 -0.228415,0.225198 -0.191419,-0.0016 -0.225198,-0.225198 v -2.009091 l -0.551736,0.944225 q -0.08847,0.106165 -0.197853,0.11099 -0.107774,0.0048 -0.193027,-0.11099 l -0.548519,-0.939399 0.0016,2.004265 q -0.02574,0.22359 -0.233241,0.22359 -0.205895,-0.0016 -0.221981,-0.22359 V 89.54298 q 0.01287,-0.184984 0.162465,-0.220373 0.149596,-0.037 0.260586,0.10134 l 0.773717,1.330278 0.78176,-1.330278 q 0.110991,-0.138337 0.25737,-0.10134 0.147987,0.037 0.162464,0.220373 z"
         style="stroke-width:0.264583"
         id="path13972" />
    </g>
    <g
       aria-label="3 AMP"
       id="text919"
       style="font-size:3.29433px;line-height:1.25;font-family:'MS 33558';-inkscape-font-specification:'MS 33558, Normal';text-align:center;text-anchor:middle;stroke-width:0.264583">
      <path
         d="m 12.941959,75.128608 q -0.0016,-0.09812 0.0032,-0.17855 0.0064,-0.08204 -0.03539,-0.181768 -0.104556,-0.241284 -0.324929,-0.350666 -0.218764,-0.109382 -0.474525,-0.037 -0.0032,0.0032 -0.0097,0.0032 -0.01287,0.0064 -0.03056,0.0097 -0.07721,0.01609 -0.14477,-0.0193 -0.07721,-0.03539 -0.112599,-0.128684 -0.0048,-0.01126 -0.01126,-0.04665 -0.0193,-0.104556 0.04826,-0.172116 l 0.616078,-0.760848 h -0.760849 q -0.106165,0 -0.175333,-0.07882 -0.06917,-0.08043 -0.04987,-0.186593 0.03056,-0.18981 0.22359,-0.18981 h 1.240199 q 0.191419,0 0.225198,0.196245 0.01609,0.107773 -0.04826,0.173724 l -0.598384,0.738329 q 0.02413,0.0048 0.04826,0.01287 0.02574,0.0064 0.04987,0.01126 0.01448,0.0048 0.01769,0.0048 0.328146,0.110991 0.529216,0.369969 0.202678,0.258978 0.236458,0.601601 0.02574,0.25737 -0.08043,0.503479 -0.104556,0.244501 -0.295975,0.411791 -0.308843,0.270238 -0.712592,0.270238 -0.410182,0 -0.7142,-0.252543 -0.302409,-0.252544 -0.381229,-0.651467 -0.0016,-0.0016 -0.0032,-0.03378 0,-0.03217 0,-0.04021 0.04021,-0.193027 0.230024,-0.193027 0.04504,0 0.122251,0.037 0.02895,0.01609 0.06273,0.06595 0.03539,0.04826 0.03539,0.08204 0,0.0177 0.02252,0.0933 0.02413,0.0756 0.06113,0.128685 0.267021,0.400531 0.739937,0.283106 0.131902,-0.03378 0.25737,-0.151205 0.127076,-0.117424 0.165682,-0.249326 0.0016,-0.0064 0.01448,-0.04987 0.01448,-0.04343 0.01448,-0.04504 z"
         style="stroke-width:0.264583"
         id="path13959" />
      <path
         d="m 16.895237,75.04818 -0.489002,-1.35119 -0.492219,1.35119 z m -0.489002,-1.35119 0.489002,1.35119 z m -1.241808,2.097561 q 0.25737,-0.709374 0.514739,-1.417141 0.258978,-0.709374 0.517957,-1.418749 0.05308,-0.146379 0.210721,-0.147988 0.157639,-0.0016 0.21233,0.147988 l 1.031086,2.843933 q 0.04826,0.226807 -0.138336,0.292758 -0.186593,0.06595 -0.287932,-0.135119 L 17.05931,75.500185 h -1.310976 l -0.160856,0.448788 q -0.102947,0.202679 -0.292757,0.133511 -0.18981,-0.07078 -0.130294,-0.287933 z"
         style="stroke-width:0.264583"
         id="path13961" />
      <path
         d="m 20.366509,75.879805 q -0.03539,0.225198 -0.228415,0.225198 -0.191419,-0.0016 -0.225199,-0.225198 v -2.009091 l -0.551736,0.944225 q -0.08847,0.106165 -0.197853,0.11099 -0.107773,0.0048 -0.193027,-0.11099 l -0.548518,-0.939399 0.0016,2.004265 q -0.02574,0.22359 -0.233241,0.22359 -0.205896,-0.0016 -0.221981,-0.22359 v -2.840716 q 0.01287,-0.184984 0.162464,-0.220373 0.149596,-0.037 0.260587,0.10134 l 0.773717,1.330278 0.78176,-1.330278 q 0.110991,-0.138337 0.257369,-0.10134 0.147988,0.037 0.162465,0.220373 z"
         style="stroke-width:0.264583"
         id="path13963" />
      <path
         d="m 21.989545,72.810673 h 0.03056 q 0.205895,0.01448 0.37962,0.0933 0.332972,0.15603 0.471308,0.51313 0.138336,0.357101 -0.0032,0.696507 -0.114208,0.268629 -0.337798,0.421442 -0.22359,0.151205 -0.509913,0.168899 l -0.03056,0.0016 h -0.78176 v 1.172639 q -0.02895,0.226807 -0.228415,0.226807 -0.199462,0 -0.226807,-0.226807 v -2.842324 q 0.02413,-0.199462 0.21233,-0.225199 h 0.01448 z m 0,0.453614 h -0.78176 v 0.986047 h 0.78176 q 0.183376,0 0.323321,-0.12225 0.141553,-0.122251 0.165681,-0.305627 0.02895,-0.221981 -0.119033,-0.389271 -0.147988,-0.168899 -0.369969,-0.168899 z"
         style="stroke-width:0.264583"
         id="path13965" />
    </g>
  </g>
</svg>
