<?xml version="1.0" encoding="UTF-8" standalone="no"?>
<svg
   xmlns:lc="http://www.librecad.org"
   xmlns:dc="http://purl.org/dc/elements/1.1/"
   xmlns:cc="http://creativecommons.org/ns#"
   xmlns:rdf="http://www.w3.org/1999/02/22-rdf-syntax-ns#"
   xmlns:svg="http://www.w3.org/2000/svg"
   xmlns="http://www.w3.org/2000/svg"
   xmlns:sodipodi="http://sodipodi.sourceforge.net/DTD/sodipodi-0.dtd"
   xmlns:inkscape="http://www.inkscape.org/namespaces/inkscape"
   width="210mm"
   height="297mm"
   viewBox="0 0 210 297"
   version="1.1"
   id="svg1115"
   inkscape:version="1.0.1 (3bc2e813f5, 2020-09-07)"
   sodipodi:docname="uhf.svg">
  <defs
     id="defs1109">
    <marker
       id="DistanceX"
       orient="auto"
       refX="0.0"
       refY="0.0"
       style="overflow:visible">
      <path
         d="M 3,-3 L -3,3 M 0,-5 L  0,5"
         style="stroke:#000000; stroke-width:0.5"
         id="path1678" />
    </marker>
    <pattern
       id="Hatch"
       patternUnits="userSpaceOnUse"
       width="8"
       height="8"
       x="0"
       y="0">
      <path
         d="M8 4 l-4,4"
         stroke="#000000"
         stroke-width="0.25"
         linecap="square"
         id="path1681" />
      <path
         d="M6 2 l-4,4"
         stroke="#000000"
         stroke-width="0.25"
         linecap="square"
         id="path1683" />
      <path
         d="M4 0 l-4,4"
         stroke="#000000"
         stroke-width="0.25"
         linecap="square"
         id="path1685" />
    </pattern>
    <symbol
       id="*Model_Space" />
    <symbol
       id="*Paper_Space" />
    <symbol
       id="robodyn-6-0.36" />
    <symbol
       id="uhf_styrene" />
    <symbol
       id="robodyn-6-0.36-0" />
    <symbol
       id="uhf_styrene-0" />
    <symbol
       id="uhf_styrene-1" />
    <marker
       id="DistanceX-2"
       orient="auto"
       refX="0.0"
       refY="0.0"
       style="overflow:visible">
      <path
         d="M 3,-3 L -3,3 M 0,-5 L  0,5"
         style="stroke:#000000; stroke-width:0.5"
         id="path2216" />
    </marker>
    <pattern
       id="Hatch-8"
       patternUnits="userSpaceOnUse"
       width="8"
       height="8"
       x="0"
       y="0">
      <path
         d="M8 4 l-4,4"
         stroke="#000000"
         stroke-width="0.25"
         linecap="square"
         id="path2219" />
      <path
         d="M6 2 l-4,4"
         stroke="#000000"
         stroke-width="0.25"
         linecap="square"
         id="path2221" />
      <path
         d="M4 0 l-4,4"
         stroke="#000000"
         stroke-width="0.25"
         linecap="square"
         id="path2223" />
    </pattern>
    <symbol
       id="*Model_Space-3" />
    <symbol
       id="*Paper_Space-9" />
    <symbol
       id="robodyn-6-0.36-1" />
    <symbol
       id="uhf_styrene-2" />
    <symbol
       id="robodyn-6-0.36-0-7" />
    <symbol
       id="uhf_styrene-0-9" />
    <symbol
       id="uhf_styrene-1-9" />
    <marker
       id="DistanceX-5"
       orient="auto"
       refX="0.0"
       refY="0.0"
       style="overflow:visible">
      <path
         d="M 3,-3 L -3,3 M 0,-5 L  0,5"
         style="stroke:#000000; stroke-width:0.5"
         id="path2760" />
    </marker>
    <pattern
       id="Hatch-3"
       patternUnits="userSpaceOnUse"
       width="8"
       height="8"
       x="0"
       y="0">
      <path
         d="M8 4 l-4,4"
         stroke="#000000"
         stroke-width="0.25"
         linecap="square"
         id="path2763" />
      <path
         d="M6 2 l-4,4"
         stroke="#000000"
         stroke-width="0.25"
         linecap="square"
         id="path2765" />
      <path
         d="M4 0 l-4,4"
         stroke="#000000"
         stroke-width="0.25"
         linecap="square"
         id="path2767" />
    </pattern>
    <symbol
       id="*Model_Space-7" />
    <symbol
       id="*Paper_Space-4" />
    <symbol
       id="robodyn-6-0.36-3" />
    <symbol
       id="uhf_styrene-6" />
    <symbol
       id="robodyn-6-0.36-0-6" />
    <symbol
       id="uhf_styrene-0-2" />
    <symbol
       id="uhf_styrene-1-5" />
    <symbol
       id="uhf_styrene-2-8" />
    <marker
       id="DistanceX-20"
       orient="auto"
       refX="0.0"
       refY="0.0"
       style="overflow:visible">
      <path
         d="M 3,-3 L -3,3 M 0,-5 L  0,5"
         style="stroke:#000000; stroke-width:0.5"
         id="path3426" />
    </marker>
    <pattern
       id="Hatch-5"
       patternUnits="userSpaceOnUse"
       width="8"
       height="8"
       x="0"
       y="0">
      <path
         d="M8 4 l-4,4"
         stroke="#000000"
         stroke-width="0.25"
         linecap="square"
         id="path3429" />
      <path
         d="M6 2 l-4,4"
         stroke="#000000"
         stroke-width="0.25"
         linecap="square"
         id="path3431" />
      <path
         d="M4 0 l-4,4"
         stroke="#000000"
         stroke-width="0.25"
         linecap="square"
         id="path3433" />
    </pattern>
    <symbol
       id="*Model_Space-9" />
    <symbol
       id="*Paper_Space-8" />
    <symbol
       id="robodyn-6-0.36-2" />
    <symbol
       id="uhf_styrene-9" />
    <symbol
       id="robodyn-6-0.36-0-0" />
    <symbol
       id="uhf_styrene-0-8" />
    <symbol
       id="uhf_styrene-1-1" />
    <symbol
       id="robodyn-6-0.36-1-0" />
    <symbol
       id="uhf_styrene-2-6" />
    <symbol
       id="uhf_styrene-3" />
    <marker
       id="DistanceX-7"
       orient="auto"
       refX="0.0"
       refY="0.0"
       style="overflow:visible">
      <path
         d="M 3,-3 L -3,3 M 0,-5 L  0,5"
         style="stroke:#000000; stroke-width:0.5"
         id="path4377" />
    </marker>
    <pattern
       id="Hatch-0"
       patternUnits="userSpaceOnUse"
       width="8"
       height="8"
       x="0"
       y="0">
      <path
         d="M8 4 l-4,4"
         stroke="#000000"
         stroke-width="0.25"
         linecap="square"
         id="path4380" />
      <path
         d="M6 2 l-4,4"
         stroke="#000000"
         stroke-width="0.25"
         linecap="square"
         id="path4382" />
      <path
         d="M4 0 l-4,4"
         stroke="#000000"
         stroke-width="0.25"
         linecap="square"
         id="path4384" />
    </pattern>
    <symbol
       id="*Model_Space-4" />
    <symbol
       id="*Paper_Space-1" />
    <symbol
       id="robodyn-6-0.36-4" />
    <symbol
       id="uhf_styrene-23" />
    <symbol
       id="robodyn-6-0.36-0-60" />
    <symbol
       id="uhf_styrene-0-24" />
    <symbol
       id="uhf_styrene-1-3" />
    <symbol
       id="robodyn-6-0.36-1-9" />
    <symbol
       id="uhf_styrene-2-61" />
    <symbol
       id="uhf_styrene-3-0" />
    <marker
       id="DistanceX-0"
       orient="auto"
       refX="0.0"
       refY="0.0"
       style="overflow:visible">
      <path
         d="M 3,-3 L -3,3 M 0,-5 L  0,5"
         style="stroke:#000000; stroke-width:0.5"
         id="path5443" />
    </marker>
    <pattern
       id="Hatch-00"
       patternUnits="userSpaceOnUse"
       width="8"
       height="8"
       x="0"
       y="0">
      <path
         d="M8 4 l-4,4"
         stroke="#000000"
         stroke-width="0.25"
         linecap="square"
         id="path5446" />
      <path
         d="M6 2 l-4,4"
         stroke="#000000"
         stroke-width="0.25"
         linecap="square"
         id="path5448" />
      <path
         d="M4 0 l-4,4"
         stroke="#000000"
         stroke-width="0.25"
         linecap="square"
         id="path5450" />
    </pattern>
    <symbol
       id="*Model_Space-94" />
    <symbol
       id="*Paper_Space-93" />
    <symbol
       id="robodyn-6-0.36-6" />
    <symbol
       id="uhf_styrene-18" />
    <symbol
       id="robodyn-6-0.36-0-9" />
    <symbol
       id="uhf_styrene-0-0" />
    <symbol
       id="uhf_styrene-1-0" />
    <symbol
       id="robodyn-6-0.36-1-93" />
    <symbol
       id="uhf_styrene-2-86" />
    <symbol
       id="uhf_styrene-3-6" />
  </defs>
  <sodipodi:namedview
     id="base"
     pagecolor="#ffffff"
     bordercolor="#666666"
     borderopacity="1.0"
     inkscape:pageopacity="0.0"
     inkscape:pageshadow="2"
     inkscape:zoom="0.9899495"
     inkscape:cx="141.18848"
     inkscape:cy="190.38819"
     inkscape:document-units="mm"
     inkscape:current-layer="layer1"
     inkscape:document-rotation="0"
     showgrid="true"
     inkscape:snap-global="false"
     inkscape:window-width="2130"
     inkscape:window-height="2071"
     inkscape:window-x="0"
     inkscape:window-y="0"
     inkscape:window-maximized="0">
    <inkscape:grid
       type="xygrid"
       id="grid6368" />
  </sodipodi:namedview>
  <metadata
     id="metadata1112">
    <rdf:RDF>
      <cc:Work
         rdf:about="">
        <dc:format>image/svg+xml</dc:format>
        <dc:type
           rdf:resource="http://purl.org/dc/dcmitype/StillImage" />
        <dc:title />
      </cc:Work>
    </rdf:RDF>
  </metadata>
  <g
     inkscape:label="Lag 1"
     inkscape:groupmode="layer"
     id="layer1">
    <g
       lc:layername="0"
       lc:is_locked="false"
       lc:is_construction="false"
       fill="none"
       stroke="#000000"
       stroke-width="1"
       id="g1907"
       transform="translate(3.5322725,7.1460236)"
       style="stroke:#ff0000">
      <path
         d="M 50,37 H 94 V 50 H 50 Z"
         id="path1831"
         style="stroke:#ff0000" />
      <line
         x1="135"
         y1="1"
         x2="135"
         y2="0"
         id="line1833"
         style="stroke:#ff0000" />
      <line
         x1="140"
         y1="15"
         x2="145"
         y2="15"
         id="line1835"
         style="stroke:#ff0000" />
      <line
         x1="135"
         y1="1"
         x2="135"
         y2="10"
         id="line1837"
         style="stroke:#ff0000" />
      <path
         d="m 135,10 a 5,5 0 0 0 5,5"
         id="path1839"
         style="stroke:#ff0000" />
      <line
         x1="135"
         y1="124"
         x2="135"
         y2="114"
         id="line1841"
         style="stroke:#ff0000" />
      <line
         x1="140"
         y1="109"
         x2="145"
         y2="109"
         id="line1843"
         style="stroke:#ff0000" />
      <path
         d="m 140,109 a 5,5 0 0 0 -5,5"
         id="path1845"
         style="stroke:#ff0000" />
      <line
         x1="10"
         y1="124"
         x2="10"
         y2="114"
         id="line1847"
         style="stroke:#ff0000" />
      <line
         x1="5"
         y1="109"
         x2="0"
         y2="109"
         id="line1849"
         style="stroke:#ff0000" />
      <path
         d="M 10,114 A 5,5 0 0 0 5,109"
         id="path1851"
         style="stroke:#ff0000" />
      <line
         x1="0"
         y1="15"
         x2="5"
         y2="15"
         id="line1853"
         style="stroke:#ff0000" />
      <line
         x1="10"
         y1="10"
         x2="10"
         y2="0"
         id="line1855"
         style="stroke:#ff0000" />
      <path
         d="m 5,15 a 5,5 0 0 0 5,-5"
         id="path1857"
         style="stroke:#ff0000" />
      <line
         x1="0"
         y1="109"
         x2="0"
         y2="15"
         id="line1859"
         style="stroke:#ff0000" />
      <line
         x1="10"
         y1="0"
         x2="135"
         y2="0"
         id="line1861"
         style="stroke:#ff0000" />
      <line
         x1="145"
         y1="15"
         x2="145"
         y2="109"
         id="line1863"
         style="stroke:#ff0000" />
      <line
         x1="135"
         y1="124"
         x2="10"
         y2="124"
         id="line1865"
         style="stroke:#ff0000" />
      <circle
         cx="30"
         cy="99"
         r="5"
         id="circle1867"
         style="stroke:#ff0000" />
      <circle
         cx="115"
         cy="100"
         r="5"
         id="circle1869"
         style="stroke:#ff0000" />
      <circle
         cx="57"
         cy="114"
         r="3.5"
         id="circle1871"
         style="stroke:#ff0000" />
      <circle
         cx="87"
         cy="114"
         r="3.5"
         id="circle1873"
         style="stroke:#ff0000" />
      <circle
         cx="26"
         cy="44"
         r="3.5"
         id="circle1875"
         style="stroke:#ff0000" />
      <circle
         cx="118"
         cy="44"
         r="3.5"
         id="circle1877"
         style="stroke:#ff0000" />
      <circle
         cx="22"
         cy="67"
         r="3.5"
         id="circle1879"
         style="stroke:#ff0000" />
      <circle
         cx="47"
         cy="67"
         r="3.5"
         id="circle1881"
         style="stroke:#ff0000" />
      <circle
         cx="72"
         cy="67"
         r="3.5"
         id="circle1883"
         style="stroke:#ff0000" />
      <circle
         cx="97"
         cy="67"
         r="3.5"
         id="circle1885"
         style="stroke:#ff0000" />
      <circle
         cx="122"
         cy="67"
         r="3.5"
         id="circle1887"
         style="stroke:#ff0000" />
      <circle
         cx="124"
         cy="19"
         r="3.5"
         id="circle1889"
         style="stroke:#ff0000" />
      <circle
         cx="72"
         cy="89"
         r="3.5"
         id="circle1891"
         style="stroke:#ff0000" />
      <circle
         cx="20"
         cy="119"
         r="1.5"
         id="circle1893"
         style="stroke:#ff0000" />
      <circle
         cx="72"
         cy="119"
         r="1.5"
         id="circle1895"
         style="stroke:#ff0000" />
      <circle
         cx="125"
         cy="119"
         r="1.5"
         id="circle1897"
         style="stroke:#ff0000" />
      <circle
         cx="125"
         cy="5"
         r="1.5"
         id="circle1899"
         style="stroke:#ff0000" />
      <circle
         cx="72"
         cy="5"
         r="1.5"
         id="circle1901"
         style="stroke:#ff0000" />
      <circle
         cx="20"
         cy="5"
         r="1.5"
         id="circle1903"
         style="stroke:#ff0000" />
      <path
         d="m 94.07,12.5 h 15 v 14 h -15 z"
         id="path1905"
         style="stroke:#ff0000" />
    </g>
    <g
       aria-label="CHAN"
       id="text6267"
       style="font-size:3.29433px;line-height:1.25;font-family:'MS 33558';-inkscape-font-specification:'MS 33558, Normal';text-align:center;text-anchor:middle;stroke-width:0.264583"
       transform="translate(5.3453905,0.26726953)">
      <path
         d="m 96.148789,16.305202 -0.01448,0.02091 q -0.0048,0.0064 -0.008,0.01126 -0.0032,0.0048 -0.0064,0.0097 -0.220372,0.297584 -0.579081,0.42466 -0.3571,0.125467 -0.704549,-0.04665 -0.403748,-0.20107 -0.593558,-0.68203 -0.188202,-0.480959 -0.162465,-0.998915 0.02735,-0.519565 0.273455,-0.953876 0.247718,-0.434311 0.717418,-0.543693 0.270238,-0.06273 0.538867,0.05308 0.26863,0.114208 0.440745,0.321712 0.0016,0 0.008,0.01126 0.07399,0.09651 0.03056,0.21233 -0.04343,0.114208 -0.159248,0.143162 -0.123859,0.03217 -0.228415,-0.07399 -0.215547,-0.250935 -0.415008,-0.241284 -0.199462,0.0097 -0.357101,0.164073 -0.157638,0.154422 -0.262195,0.395706 -0.104556,0.241284 -0.128685,0.452005 -0.02895,0.23485 0.0048,0.472917 0.03539,0.236458 0.146379,0.445571 0.193027,0.366751 0.485785,0.460048 0.294366,0.09169 0.574256,-0.281498 0.01287,-0.01609 0.03056,-0.04182 0.151205,-0.16729 0.318495,-0.03378 0.168899,0.131902 0.04987,0.299193 z"
         style="stroke-width:0.264583"
         id="path15529" />
      <path
         d="m 96.597577,16.597959 v -2.843933 q 0.03378,-0.231632 0.234849,-0.226807 0.20107,0.0032 0.218764,0.226807 v 1.063258 h 1.294891 v -1.063258 q 0.03378,-0.226807 0.226807,-0.226807 0.194635,-0.0016 0.230024,0.226807 v 2.843933 q -0.03539,0.226807 -0.230024,0.225199 -0.193027,0 -0.226807,-0.225199 V 15.274115 H 97.05119 v 1.323844 q -0.01769,0.221982 -0.218764,0.225199 -0.20107,0.0032 -0.234849,-0.225199 z"
         style="stroke-width:0.264583"
         id="path15531" />
      <path
         d="m 100.98251,15.763117 -0.489,-1.35119 -0.49222,1.35119 z m -0.489,-1.35119 0.489,1.35119 z m -1.24181,2.097562 q 0.257369,-0.709375 0.514739,-1.417141 0.258981,-0.709375 0.517951,-1.41875 0.0531,-0.146379 0.21073,-0.147987 0.15764,-0.0016 0.21233,0.147987 l 1.03108,2.843933 q 0.0483,0.226807 -0.13833,0.292758 -0.1866,0.06595 -0.28794,-0.135119 l -0.16568,-0.460048 h -1.310973 l -0.160856,0.448788 q -0.102948,0.202679 -0.292758,0.133511 -0.18981,-0.07078 -0.130293,-0.287932 z"
         style="stroke-width:0.264583"
         id="path15533" />
      <path
         d="m 104.27684,16.597959 q 0,0.168899 -0.16407,0.215547 -0.16247,0.04504 -0.25255,-0.09651 l -1.35119,-2.16673 v 2.047696 q -0.0354,0.225199 -0.22841,0.225199 -0.19142,0 -0.2252,-0.225199 v -2.840716 q 0.0241,-0.16729 0.17051,-0.220372 0.14798,-0.05308 0.24611,0.09973 l 1.35119,2.169947 v -2.049305 q 0.0306,-0.230024 0.23324,-0.226807 0.20428,0.0016 0.22037,0.226807 z"
         style="stroke-width:0.264583"
         id="path15535" />
    </g>
    <g
       aria-label="TEST DISPLAY"
       id="text6271"
       style="font-size:3.29433px;line-height:1.25;font-family:'MS 33558';-inkscape-font-specification:'MS 33558, Normal';text-align:center;text-anchor:middle;stroke-width:0.264583">
      <path
         d="m 25.699169,42.013636 v -2.615518 h -0.590342 q -0.225198,-0.01769 -0.225198,-0.225198 0.0016,-0.209113 0.225198,-0.228416 h 1.632688 q 0.221981,0.01769 0.221981,0.228416 0.0016,0.209113 -0.221981,0.225198 h -0.588733 v 2.615518 q -0.037,0.228416 -0.238066,0.225198 -0.199462,-0.0032 -0.215547,-0.225198 z"
         style="stroke-width:0.264583"
         id="path15506" />
      <path
         d="m 29.229957,39.393293 h -1.333496 v 0.879882 h 1.016609 q 0.228416,0.03378 0.226807,0.230024 0,0.194635 -0.226807,0.226807 h -1.016609 v 1.056823 h 1.333496 q 0.226807,0.03378 0.226807,0.226807 0,0.193027 -0.226807,0.225198 h -1.557086 q -0.20107,-0.02574 -0.228415,-0.228415 v -2.840716 q 0.03056,-0.21233 0.228415,-0.225199 h 1.557086 q 0.226807,0.01769 0.225198,0.226807 0,0.207505 -0.225198,0.221982 z"
         style="stroke-width:0.264583"
         id="path15508" />
      <path
         d="m 31.522154,40.485505 0.02574,0.01126 0.02895,0.01448 0.02574,0.01448 q 0.01126,0.008 0.02413,0.01608 0.01448,0.0064 0.02735,0.01448 0.318495,0.209113 0.394097,0.579082 0.02895,0.14477 0.01287,0.297583 -0.02574,0.218764 -0.154421,0.405357 -0.127077,0.184984 -0.320104,0.286324 -0.207504,0.109382 -0.429485,0.109382 -0.373186,0 -0.712592,-0.0949 -0.339406,-0.09651 -0.484176,-0.513131 -0.0193,-0.05308 -0.02895,-0.109382 -0.0097,-0.0563 -0.02252,-0.112599 -0.02413,-0.115816 0.0563,-0.204287 0.08204,-0.08847 0.202679,-0.06756 0.127076,0.02574 0.176941,0.157639 l 0.0048,0.01448 q 0.07721,0.349058 0.26863,0.416617 0.193027,0.06756 0.53565,0.06113 0.315277,0 0.432702,-0.295974 0.05147,-0.131902 0.01609,-0.273456 -0.03539,-0.143161 -0.139945,-0.238066 -0.04665,-0.04021 -0.12225,-0.0756 l -0.744763,-0.326537 -0.02413,-0.01287 q -0.365143,-0.193027 -0.453613,-0.548519 -0.107774,-0.411791 0.149596,-0.738328 0.258978,-0.328147 0.678812,-0.328147 l 0.176941,0.0048 q 0.08686,0.01609 0.16729,0.03217 0.08043,0.01448 0.162465,0.05147 0.202678,0.0949 0.310452,0.260587 0.107773,0.165682 0.194636,0.358709 0.008,0.01769 0.01448,0.04182 0.01769,0.07882 -0.01609,0.143162 -0.0193,0.04021 -0.04021,0.06113 -0.02091,0.02091 -0.03378,0.02895 -0.08365,0.05952 -0.183375,0.03539 -0.09973,-0.02252 -0.152814,-0.128685 -0.04182,-0.0933 -0.09008,-0.18981 -0.04665,-0.09812 -0.131902,-0.162465 -0.03539,-0.02574 -0.06917,-0.037 -0.03217,-0.01287 -0.07239,-0.02735 l -0.104556,-0.01769 -0.147988,-0.0048 q -0.215547,0.0032 -0.329755,0.186593 -0.07721,0.117425 -0.05791,0.262195 0.02252,0.17855 0.16729,0.276673 0.0064,0.0048 0.01448,0.01126 0.008,0.0048 0.01769,0.0097 l 0.01769,0.008 0.0193,0.008 z"
         style="stroke-width:0.264583"
         id="path15510" />
      <path
         d="m 33.28031,42.013636 v -2.615518 h -0.590342 q -0.225198,-0.01769 -0.225198,-0.225198 0.0016,-0.209113 0.225198,-0.228416 h 1.632688 q 0.221981,0.01769 0.221981,0.228416 0.0016,0.209113 -0.221981,0.225198 h -0.588733 v 2.615518 q -0.037,0.228416 -0.238066,0.225198 -0.199462,-0.0032 -0.215547,-0.225198 z"
         style="stroke-width:0.264583"
         id="path15512" />
      <path
         d="m 21.770262,43.062417 h 0.757631 q 0.564605,0 0.846103,0.514739 0.281498,0.514739 0.281498,1.132426 0,0.617687 -0.283107,1.132426 -0.281498,0.514739 -0.844494,0.514739 h -0.757631 0.0032 -0.0032 q -0.05308,-0.008 -0.05791,-0.0097 -0.16729,-0.04021 -0.165682,-0.218764 h -0.0016 l 0.0016,-2.840716 q -0.0016,-0.0048 -0.0016,-0.01287 0.0048,-0.08847 0.06917,-0.149596 0.06595,-0.06273 0.157638,-0.06273 z m 0.757631,2.840716 q 0.0032,0 0.0064,0 0.0032,0 0.008,0 0.0032,0 0.0048,0 0.0032,-0.0016 0.008,-0.0016 0.0032,0 0.0064,0 0.0048,-0.0016 0.0097,-0.0016 0.0032,0 0.0064,0 0.0032,-0.0016 0.008,-0.0016 0.0032,0 0.0064,0 0.0032,-0.0016 0.008,-0.0016 0.0064,-0.0032 0.01287,-0.0032 0.0032,0 0.0064,-0.0016 0.0032,-0.0032 0.008,-0.0048 0.0032,0 0.0064,0 0.0048,-0.0016 0.0097,-0.0032 0.0032,0 0.0064,-0.0016 0.0032,-0.0016 0.008,-0.0032 0.0097,-0.0032 0.01448,-0.0064 0.02895,-0.0097 0.01609,-0.0064 0.0032,0 0.0064,-0.0016 0.0032,-0.0032 0.008,-0.0048 0.01448,-0.0097 0.01287,-0.008 0.01609,-0.008 0.01609,-0.008 0.0032,-0.0016 0.0064,-0.0032 0.0032,-0.0032 0.008,-0.0064 0.01448,-0.0097 0.01448,-0.0097 0.0032,-0.0016 0.0064,-0.0032 0.0048,-0.0032 0.0097,-0.0064 0.0032,-0.0016 0.0064,-0.0048 0.0032,-0.0032 0.008,-0.0064 0.0032,-0.0016 0.0064,-0.0032 0.0032,-0.0032 0.008,-0.0064 0.0032,-0.0032 0.01609,-0.01287 0.01287,-0.01287 0.01287,-0.01287 0.0032,-0.0032 0.0064,-0.0064 0.0032,-0.0032 0.008,-0.008 0.0032,-0.0032 0.0064,-0.0064 0.0032,-0.0032 0.008,-0.008 0.0048,-0.0032 0.01448,-0.01287 0.0032,-0.0032 0.0064,-0.0064 0.0032,-0.0032 0.008,-0.008 0.0032,-0.0032 0.0064,-0.0064 0.0032,-0.0048 0.008,-0.0097 0.0193,-0.02574 0.01287,-0.01609 0.01126,-0.01126 0.01448,-0.01769 0.01448,-0.0193 0.01287,-0.01769 0.0032,-0.0048 0.0064,-0.008 0.0032,-0.0048 0.008,-0.0097 0.0032,-0.0048 0.0048,-0.0097 0.0032,-0.0048 0.008,-0.0097 0.0016,-0.0048 0.0048,-0.0097 0.0048,-0.0064 0.008,-0.01126 0.0097,-0.01287 0.01287,-0.0193 0.0032,-0.0048 0.0048,-0.0097 0.0032,-0.0064 0.008,-0.01126 0.0032,-0.0048 0.0048,-0.0097 0.0032,-0.0064 0.008,-0.01126 0.0032,-0.008 0.0097,-0.02091 0.0032,-0.0048 0.0048,-0.01126 0.0032,-0.0064 0.008,-0.01287 0.0032,-0.0048 0.0048,-0.0097 0.0032,-0.0064 0.008,-0.01287 0.0016,-0.0048 0.0032,-0.01126 0.0032,-0.0064 0.0064,-0.01287 0.0048,-0.008 0.01126,-0.02413 0.01609,-0.04021 0.01126,-0.02574 0.0016,-0.0048 0.0032,-0.01126 0.0032,-0.008 0.0064,-0.01448 0.0016,-0.0064 0.0032,-0.01287 0.0032,-0.0064 0.0064,-0.01448 0.0048,-0.01448 0.008,-0.02574 0.0016,-0.0064 0.0032,-0.01287 0.0032,-0.0064 0.0064,-0.01448 -0.0064,0.01609 0.008,-0.02734 0.0032,-0.008 0.0097,-0.02735 0,-0.0064 0.0016,-0.01287 0.0032,-0.008 0.0048,-0.01609 0.0016,-0.0064 0.0032,-0.01287 0.0016,-0.008 0.0048,-0.01609 0,-0.0048 0.0016,-0.01126 0.0032,-0.008 0.0048,-0.01608 0.0016,-0.01126 0.0048,-0.03056 0,-0.0064 0.0016,-0.01287 0.0032,-0.008 0.0048,-0.01609 0,-0.0064 0.0016,-0.01287 0.0016,-0.008 0.0032,-0.01608 0.0016,-0.01126 0.0048,-0.03056 0,-0.0064 0.0016,-0.01448 0.0032,-0.008 0.0048,-0.01609 0,-0.01126 0.0032,-0.03056 0,-0.0064 0,-0.01287 0.0016,-0.008 0.0032,-0.01769 0.0032,-0.0193 0.0032,-0.03056 0.0016,-0.01126 0.0016,-0.03056 0.0016,-0.01126 0.0016,-0.03217 0.0016,-0.01126 0.0016,-0.03056 0,-0.008 0,-0.01448 0.0016,-0.008 0.0032,-0.01769 0,-0.0064 0,-0.01287 0.0016,-0.008 0.0016,-0.01769 0,-0.0064 0,-0.01448 0,-0.008 0,-0.01609 0,-0.008 0,-0.01448 0,-0.008 0,-0.01609 0,-0.008 -0.0016,-0.01448 0,-0.008 0,-0.01769 0,-0.0064 0,-0.01448 0,-0.008 0,-0.01609 0,-0.0097 -0.0032,-0.03217 0,-0.0193 -0.0016,-0.02895 0,-0.01126 -0.0032,-0.03378 0,-0.0193 -0.0016,-0.02895 0,-0.01126 -0.0032,-0.03056 -0.0016,-0.0064 -0.0032,-0.01448 0,-0.008 0,-0.01609 -0.0032,-0.0193 -0.0064,-0.03056 -0.0016,-0.0064 -0.0032,-0.01287 -0.0016,-0.008 -0.0016,-0.01609 -0.0016,-0.01126 -0.0048,-0.03056 -0.0016,-0.01126 -0.0048,-0.03056 -0.0064,-0.0193 -0.008,-0.02895 -0.0032,-0.0193 -0.0048,-0.02735 -0.0032,-0.0064 -0.0048,-0.01287 -0.0016,-0.008 -0.0032,-0.01609 -0.0016,-0.0064 -0.0048,-0.01287 -0.0032,-0.008 -0.0032,-0.01609 -0.01448,-0.04343 -0.008,-0.02735 -0.0032,-0.01126 -0.008,-0.02735 -0.0032,-0.0048 -0.0064,-0.01126 -0.0016,-0.008 -0.0032,-0.01448 -0.0016,-0.0048 -0.0097,-0.02734 -0.0064,-0.01609 -0.0097,-0.02574 -0.0032,-0.0048 -0.0064,-0.01126 -0.0016,-0.008 -0.0032,-0.01448 -0.0032,-0.0048 -0.0064,-0.01126 -0.0032,-0.0064 -0.0048,-0.01287 -0.0064,-0.01609 -0.01126,-0.02413 -0.0064,-0.01609 -0.0097,-0.02252 -0.0064,-0.01609 -0.01126,-0.02413 -0.0032,-0.0048 -0.0064,-0.0097 -0.0032,-0.0064 -0.0048,-0.01126 -0.0097,-0.01609 -0.01287,-0.02252 -0.01448,-0.02252 -0.01287,-0.02091 -0.0048,-0.0048 -0.008,-0.0097 -0.0016,-0.0064 -0.0048,-0.01126 -0.0032,-0.0064 -0.01287,-0.0193 -0.0032,-0.0048 -0.0064,-0.0097 -0.0032,-0.0048 -0.0048,-0.0097 -0.008,-0.01448 -0.02735,-0.037 -0.0032,-0.0032 -0.02574,-0.03539 -0.0193,-0.02252 -0.02895,-0.03217 -0.0097,-0.01126 -0.02895,-0.03056 -0.01287,-0.01448 -0.02735,-0.02735 -0.01126,-0.008 -0.03056,-0.02413 -0.01609,-0.01287 -0.03056,-0.02413 -0.037,-0.02413 -0.03056,-0.02091 -0.03217,-0.0193 -0.02895,-0.01769 0,0 -0.02895,-0.01448 -0.0064,-0.0032 -0.03056,-0.01126 -0.02091,-0.008 -0.03056,-0.01126 -0.008,-0.0016 -0.01448,-0.0032 -0.0064,-0.0032 -0.01287,-0.0064 -0.02895,-0.0048 -0.02895,-0.0048 -0.0097,-0.0016 -0.02896,-0.0016 -0.0048,0 -0.008,0 -0.0032,0 -0.0064,0 h -0.530824 v 2.387102 0 z"
         style="stroke-width:0.264583"
         id="path15514" />
      <path
         d="m 24.522507,46.134766 q -0.03539,0.226806 -0.230024,0.225198 -0.193027,0 -0.226807,-0.225198 v -2.843934 q 0.03378,-0.226807 0.226807,-0.226807 0.194636,-0.0016 0.230024,0.226807 z"
         style="stroke-width:0.264583"
         id="path15516" />
      <path
         d="m 26.597549,44.603417 0.02574,0.01126 0.02895,0.01448 0.02574,0.01448 q 0.01126,0.008 0.02413,0.01609 0.01448,0.0064 0.02735,0.01448 0.318495,0.209113 0.394097,0.579082 0.02895,0.14477 0.01287,0.297583 -0.02574,0.218765 -0.154421,0.405357 -0.127077,0.184985 -0.320104,0.286324 -0.207504,0.109382 -0.429485,0.109382 -0.373186,0 -0.712592,-0.0949 -0.339406,-0.09651 -0.484176,-0.51313 -0.0193,-0.05308 -0.02895,-0.109382 -0.0097,-0.0563 -0.02252,-0.1126 -0.02413,-0.115816 0.0563,-0.204287 0.08204,-0.08847 0.202679,-0.06756 0.127076,0.02574 0.176941,0.157639 l 0.0048,0.01448 q 0.07721,0.349057 0.268629,0.416617 0.193028,0.06756 0.535651,0.06112 0.315277,0 0.432702,-0.295975 0.05147,-0.131902 0.01609,-0.273455 -0.03539,-0.143162 -0.139945,-0.238067 -0.04665,-0.04021 -0.12225,-0.0756 l -0.744763,-0.326538 -0.02413,-0.01287 q -0.365143,-0.193028 -0.453614,-0.548519 -0.107773,-0.411791 0.149596,-0.738329 0.258979,-0.328146 0.678813,-0.328146 l 0.176941,0.0048 q 0.08686,0.01609 0.16729,0.03217 0.08043,0.01448 0.162465,0.05147 0.202678,0.0949 0.310452,0.260586 0.107773,0.165682 0.194636,0.358709 0.008,0.01769 0.01448,0.04182 0.01769,0.07882 -0.01609,0.143161 -0.0193,0.04021 -0.04021,0.06113 -0.02091,0.02091 -0.03378,0.02895 -0.08365,0.05952 -0.183376,0.03539 -0.09973,-0.02252 -0.152813,-0.128685 -0.04182,-0.0933 -0.09008,-0.18981 -0.04665,-0.09812 -0.131902,-0.162464 -0.03539,-0.02574 -0.06917,-0.037 -0.03217,-0.01287 -0.07239,-0.02735 l -0.104557,-0.01769 -0.147987,-0.0048 q -0.215547,0.0032 -0.329755,0.186592 -0.07721,0.117425 -0.05791,0.262196 0.02252,0.17855 0.16729,0.276672 0.0064,0.0048 0.01448,0.01126 0.008,0.0048 0.01769,0.0097 l 0.01769,0.008 0.0193,0.008 z"
         style="stroke-width:0.264583"
         id="path15518" />
      <path
         d="m 28.777147,43.062417 h 0.03056 q 0.205896,0.01448 0.37962,0.0933 0.332972,0.156031 0.471308,0.513131 0.138336,0.3571 -0.0032,0.696506 -0.114208,0.268629 -0.337798,0.421443 -0.223589,0.151204 -0.509913,0.168898 l -0.03056,0.0016 h -0.78176 v 1.17264 q -0.02895,0.226807 -0.228415,0.226807 -0.199461,0 -0.226807,-0.226807 v -2.842325 q 0.02413,-0.199461 0.21233,-0.225198 h 0.01448 z m 0,0.453614 h -0.78176 v 0.986047 h 0.78176 q 0.183376,0 0.323321,-0.122251 0.141553,-0.12225 0.165681,-0.305626 0.02895,-0.221981 -0.119033,-0.389272 -0.147987,-0.168898 -0.369969,-0.168898 z"
         style="stroke-width:0.264583"
         id="path15520" />
      <path
         d="m 30.411443,46.358355 q -0.197853,-0.01287 -0.228415,-0.223589 v -2.843934 q 0.03378,-0.231632 0.23485,-0.226807 0.201069,0.0032 0.218764,0.226807 v 2.618735 l 1.4847,-0.0016 q 0.228416,0.02574 0.225198,0.231632 -0.0016,0.204287 -0.226806,0.218764 z"
         style="stroke-width:0.264583"
         id="path15522" />
      <path
         d="m 34.54705,45.299923 -0.489002,-1.35119 -0.492219,1.35119 z m -0.489002,-1.35119 0.489002,1.35119 z m -1.241808,2.097562 q 0.257369,-0.709375 0.514739,-1.417141 0.258978,-0.709375 0.517956,-1.41875 0.05308,-0.146379 0.210721,-0.147987 0.157639,-0.0016 0.21233,0.147987 l 1.031087,2.843934 q 0.04826,0.226806 -0.138336,0.292757 -0.186593,0.06595 -0.287932,-0.135119 l -0.165682,-0.460048 h -1.310976 l -0.160856,0.448788 q -0.102948,0.202679 -0.292758,0.133511 -0.18981,-0.07078 -0.130293,-0.287932 z"
         style="stroke-width:0.264583"
         id="path15524" />
      <path
         d="m 37.547014,43.179842 q 0.125467,-0.188202 0.302409,-0.09008 0.17855,0.09812 0.09169,0.307235 l -0.924922,1.651991 v 1.076126 q -0.01448,0.228416 -0.225198,0.228416 -0.209113,0 -0.22359,-0.228416 v -1.076126 l -0.923313,-1.651991 q -0.08525,-0.207504 0.08686,-0.304018 0.172116,-0.09812 0.307235,0.08686 l 0.754414,1.347973 z"
         style="stroke-width:0.264583"
         id="path15526" />
    </g>
    <g
       aria-label="STATUS"
       id="text6277"
       style="font-size:3.29433px;line-height:1.25;font-family:'MS 33558';-inkscape-font-specification:'MS 33558, Normal';text-align:center;text-anchor:middle;stroke-width:0.264583">
      <path
         d="m 115.51698,43.50932 0.0257,0.01126 0.029,0.01448 0.0257,0.01448 q 0.0113,0.008 0.0241,0.01608 0.0145,0.0064 0.0273,0.01448 0.31849,0.209113 0.39409,0.579082 0.029,0.14477 0.0129,0.297583 -0.0257,0.218764 -0.15442,0.405357 -0.12708,0.184985 -0.3201,0.286324 -0.20751,0.109382 -0.42949,0.109382 -0.37318,0 -0.71259,-0.0949 -0.33941,-0.09651 -0.48418,-0.513131 -0.0193,-0.05308 -0.029,-0.109382 -0.01,-0.0563 -0.0225,-0.112599 -0.0241,-0.115816 0.0563,-0.204287 0.082,-0.08847 0.20268,-0.06756 0.12707,0.02574 0.17694,0.157638 l 0.005,0.01448 q 0.0772,0.349058 0.26862,0.416617 0.19303,0.06756 0.53565,0.06113 0.31528,0 0.43271,-0.295975 0.0515,-0.131902 0.0161,-0.273455 -0.0354,-0.143162 -0.13994,-0.238067 -0.0466,-0.04021 -0.12225,-0.0756 l -0.74477,-0.326537 -0.0241,-0.01287 q -0.36515,-0.193027 -0.45362,-0.548518 -0.10777,-0.411792 0.1496,-0.738329 0.25898,-0.328146 0.67881,-0.328146 l 0.17694,0.0048 q 0.0869,0.01609 0.16729,0.03217 0.0804,0.01448 0.16247,0.05147 0.20268,0.0949 0.31045,0.260587 0.10777,0.165682 0.19463,0.358709 0.008,0.01769 0.0145,0.04182 0.0177,0.07882 -0.0161,0.143162 -0.0193,0.04021 -0.0402,0.06113 -0.0209,0.02091 -0.0338,0.02895 -0.0836,0.05952 -0.18337,0.03539 -0.0997,-0.02252 -0.15282,-0.128685 -0.0418,-0.0933 -0.0901,-0.18981 -0.0466,-0.09812 -0.1319,-0.162464 -0.0354,-0.02574 -0.0692,-0.037 -0.0322,-0.01287 -0.0724,-0.02735 l -0.10456,-0.01769 -0.14798,-0.0048 q -0.21555,0.0032 -0.32976,0.186593 -0.0772,0.117425 -0.0579,0.262195 0.0225,0.178551 0.16729,0.276673 0.006,0.0048 0.0145,0.01126 0.008,0.0048 0.0177,0.0097 l 0.0177,0.008 0.0193,0.008 z"
         style="stroke-width:0.264583"
         id="path15493" />
      <path
         d="m 117.27513,45.037451 v -2.615518 h -0.59034 q -0.2252,-0.01769 -0.2252,-0.225198 0.002,-0.209113 0.2252,-0.228415 h 1.63269 q 0.22198,0.01769 0.22198,0.228415 0.002,0.209113 -0.22198,0.225198 h -0.58874 v 2.615518 q -0.037,0.228416 -0.23806,0.225199 -0.19946,-0.0032 -0.21555,-0.225199 z"
         style="stroke-width:0.264583"
         id="path15495" />
      <path
         d="m 120.76249,44.205826 -0.489,-1.35119 -0.49222,1.35119 z m -0.489,-1.35119 0.489,1.35119 z m -1.24181,2.097562 q 0.25737,-0.709375 0.51474,-1.417141 0.25897,-0.709375 0.51795,-1.41875 0.0531,-0.146379 0.21072,-0.147987 0.15764,-0.0016 0.21233,0.147987 l 1.03109,2.843933 q 0.0483,0.226807 -0.13834,0.292758 -0.18659,0.06595 -0.28793,-0.135119 l -0.16568,-0.460048 h -1.31098 l -0.16085,0.448788 q -0.10295,0.202679 -0.29276,0.133511 -0.18981,-0.07078 -0.13029,-0.287932 z"
         style="stroke-width:0.264583"
         id="path15497" />
      <path
         d="m 122.65094,45.037451 v -2.615518 h -0.59034 q -0.2252,-0.01769 -0.2252,-0.225198 0.002,-0.209113 0.2252,-0.228415 h 1.63268 q 0.22198,0.01769 0.22198,0.228415 0.002,0.209113 -0.22198,0.225198 h -0.58873 v 2.615518 q -0.037,0.228416 -0.23807,0.225199 -0.19946,-0.0032 -0.21554,-0.225199 z"
         style="stroke-width:0.264583"
         id="path15499" />
      <path
         d="m 126.56456,44.176872 v 0.03217 q -0.005,0.08043 -0.006,0.09651 -0.0676,0.492219 -0.40375,0.727069 -0.33619,0.233241 -0.71742,0.218764 -0.38123,-0.01609 -0.69811,-0.278281 -0.31528,-0.262195 -0.34263,-0.764066 v -0.03217 -1.983354 q 0,-0.04826 0.0177,-0.08686 0.0772,-0.168899 0.25576,-0.133511 0.18016,0.03539 0.18016,0.220373 v 1.983354 q 0.0241,0.369969 0.32493,0.553344 0.30241,0.183376 0.63538,-0.01608 0.14959,-0.08847 0.21876,-0.228416 0.0708,-0.139944 0.0837,-0.308843 v -1.983354 q 0,-0.02895 0.003,-0.04343 0.037,-0.197853 0.2429,-0.17855 0.20589,0.0193 0.20589,0.221981 z"
         style="stroke-width:0.264583"
         id="path15501" />
      <path
         d="m 128.57526,43.50932 0.0257,0.01126 0.029,0.01448 0.0257,0.01448 q 0.0113,0.008 0.0241,0.01608 0.0145,0.0064 0.0273,0.01448 0.3185,0.209113 0.3941,0.579082 0.029,0.14477 0.0129,0.297583 -0.0257,0.218764 -0.15442,0.405357 -0.12708,0.184985 -0.32011,0.286324 -0.2075,0.109382 -0.42948,0.109382 -0.37319,0 -0.71259,-0.0949 -0.33941,-0.09651 -0.48418,-0.513131 -0.0193,-0.05308 -0.029,-0.109382 -0.01,-0.0563 -0.0225,-0.112599 -0.0241,-0.115816 0.0563,-0.204287 0.082,-0.08847 0.20267,-0.06756 0.12708,0.02574 0.17695,0.157638 l 0.005,0.01448 q 0.0772,0.349058 0.26863,0.416617 0.19303,0.06756 0.53565,0.06113 0.31528,0 0.4327,-0.295975 0.0515,-0.131902 0.0161,-0.273455 -0.0354,-0.143162 -0.13994,-0.238067 -0.0466,-0.04021 -0.12226,-0.0756 l -0.74476,-0.326537 -0.0241,-0.01287 q -0.36514,-0.193027 -0.45361,-0.548518 -0.10777,-0.411792 0.1496,-0.738329 0.25897,-0.328146 0.67881,-0.328146 l 0.17694,0.0048 q 0.0869,0.01609 0.16729,0.03217 0.0804,0.01448 0.16246,0.05147 0.20268,0.0949 0.31046,0.260587 0.10777,0.165682 0.19463,0.358709 0.008,0.01769 0.0145,0.04182 0.0177,0.07882 -0.0161,0.143162 -0.0193,0.04021 -0.0402,0.06113 -0.0209,0.02091 -0.0338,0.02895 -0.0836,0.05952 -0.18338,0.03539 -0.0997,-0.02252 -0.15281,-0.128685 -0.0418,-0.0933 -0.0901,-0.18981 -0.0466,-0.09812 -0.1319,-0.162464 -0.0354,-0.02574 -0.0692,-0.037 -0.0322,-0.01287 -0.0724,-0.02735 l -0.10456,-0.01769 -0.14799,-0.0048 q -0.21555,0.0032 -0.32975,0.186593 -0.0772,0.117425 -0.0579,0.262195 0.0225,0.178551 0.16729,0.276673 0.006,0.0048 0.0145,0.01126 0.008,0.0048 0.0177,0.0097 l 0.0177,0.008 0.0193,0.008 z"
         style="stroke-width:0.264583"
         id="path15503" />
    </g>
    <g
       aria-label="T"
       id="text6298"
       style="font-size:3.29433px;line-height:1.25;font-family:'MS 33558';-inkscape-font-specification:'MS 33558, Normal';text-align:center;text-anchor:middle;stroke-width:0.264583">
      <path
         d="m 53.869202,122.80605 v -2.61552 h -0.590341 q -0.225198,-0.0177 -0.225198,-0.22519 0.0016,-0.20912 0.225198,-0.22842 h 1.632688 q 0.221981,0.0177 0.221981,0.22842 0.0016,0.20911 -0.221981,0.22519 h -0.588733 v 2.61552 q -0.037,0.22842 -0.238067,0.2252 -0.199461,-0.003 -0.215547,-0.2252 z"
         style="stroke-width:0.264583"
         id="path15490" />
    </g>
    <g
       aria-label="TONE"
       id="text6302"
       style="font-size:3.29433px;line-height:1.25;font-family:'MS 33558';-inkscape-font-specification:'MS 33558, Normal';text-align:center;text-anchor:middle;stroke-width:0.264583">
      <path
         d="m 65.642393,122.80166 v -2.61551 h -0.590341 q -0.225198,-0.0177 -0.225198,-0.2252 0.0016,-0.20911 0.225198,-0.22842 h 1.632688 q 0.221981,0.0177 0.221981,0.22842 0.0016,0.20911 -0.221981,0.2252 h -0.588733 v 2.61551 q -0.037,0.22842 -0.238067,0.2252 -0.199461,-0.003 -0.215547,-0.2252 z"
         style="stroke-width:0.264583"
         id="path15481" />
      <path
         d="m 69.527065,120.67997 q 0.147987,0.44558 0.11099,0.92493 -0.03539,0.47935 -0.262195,0.87505 -0.143162,0.24611 -0.39088,0.41823 -0.247718,0.17211 -0.54691,0.12064 -0.487394,-0.0853 -0.746372,-0.5083 -0.258978,-0.42306 -0.297583,-0.94101 -0.037,-0.51957 0.139945,-1.01179 0.17855,-0.49221 0.567821,-0.7158 0.18981,-0.10939 0.397314,-0.10939 0.395706,0 0.646641,0.2992 0.250935,0.29758 0.381229,0.64824 z m -1.015001,-0.49061 q -0.295975,0 -0.448788,0.3185 -0.151205,0.31849 -0.191419,0.54369 -0.03056,0.16408 -0.02252,0.39732 0.008,0.23324 0.06756,0.46165 0.05952,0.22681 0.17855,0.41019 0.119033,0.18176 0.31206,0.24128 0.225199,0.0708 0.387663,-0.0885 0.164073,-0.16086 0.247718,-0.34102 0.08525,-0.18498 0.115817,-0.48578 0.03217,-0.3008 -0.01448,-0.59999 -0.04504,-0.3008 -0.178551,-0.54048 -0.13351,-0.24128 -0.37962,-0.30723 -0.03217,-0.01 -0.07399,-0.01 z"
         style="stroke-width:0.264583"
         id="path15483" />
      <path
         d="m 72.292179,122.80488 q 0,0.1689 -0.164073,0.21555 -0.162465,0.045 -0.252544,-0.0965 l -1.35119,-2.16673 v 2.04769 q -0.03539,0.2252 -0.228416,0.2252 -0.191418,0 -0.225198,-0.2252 v -2.84071 q 0.02413,-0.16729 0.170507,-0.22038 0.147988,-0.0531 0.24611,0.0997 l 1.35119,2.16995 v -2.0493 q 0.03056,-0.23003 0.233241,-0.22681 0.204287,0.002 0.220373,0.22681 z"
         style="stroke-width:0.264583"
         id="path15485" />
      <path
         d="M 74.539336,120.18132 H 73.20584 v 0.87988 h 1.01661 q 0.228416,0.0338 0.226807,0.23003 0,0.19463 -0.226807,0.2268 h -1.01661 v 1.05683 h 1.333496 q 0.226807,0.0338 0.226807,0.2268 0,0.19303 -0.226807,0.2252 h -1.557085 q -0.20107,-0.0257 -0.228416,-0.22841 v -2.84072 q 0.03056,-0.21233 0.228416,-0.2252 h 1.557085 q 0.226807,0.0177 0.225199,0.22681 0,0.2075 -0.225199,0.22198 z"
         style="stroke-width:0.264583"
         id="path15487" />
    </g>
    <g
       aria-label="OFF"
       id="text6326"
       style="font-size:3.29433px;line-height:1.25;font-family:'MS 33558';-inkscape-font-specification:'MS 33558, Normal';text-align:center;text-anchor:middle;stroke-width:0.264583">
      <path
         d="m 18.654574,95.170964 q 0.147987,0.445571 0.11099,0.924922 -0.03539,0.479351 -0.262195,0.875057 -0.143162,0.246109 -0.39088,0.418225 -0.247718,0.172116 -0.54691,0.120642 -0.487394,-0.08525 -0.746372,-0.508305 -0.258978,-0.423051 -0.297583,-0.941007 -0.037,-0.519565 0.139944,-1.011784 0.17855,-0.492219 0.567822,-0.715809 0.18981,-0.109382 0.397314,-0.109382 0.395706,0 0.646641,0.299192 0.250935,0.297583 0.381229,0.648249 z m -1.015002,-0.49061 q -0.295974,0 -0.448788,0.318495 -0.151204,0.318494 -0.191418,0.543693 -0.03056,0.164073 -0.02252,0.397314 0.008,0.233241 0.06756,0.461656 0.05952,0.226807 0.178551,0.410183 0.119033,0.181767 0.31206,0.241284 0.225198,0.07078 0.387663,-0.08847 0.164073,-0.160856 0.247718,-0.341014 0.08525,-0.184985 0.115816,-0.485785 0.03217,-0.300801 -0.01448,-0.599993 -0.04504,-0.300801 -0.17855,-0.540476 -0.13351,-0.241284 -0.37962,-0.307235 -0.03217,-0.0097 -0.07399,-0.0097 z"
         style="stroke-width:0.264583"
         id="path15474" />
      <path
         d="m 19.198267,97.289437 v -2.837499 q 0.02895,-0.21233 0.228415,-0.228415 h 1.557086 q 0.22359,0.01769 0.22359,0.228415 0,0.209113 -0.226807,0.22359 h -1.330279 v 0.879882 h 1.037521 q 0.221981,0.01609 0.225198,0.217156 0.0032,0.20107 -0.225198,0.234849 h -1.037521 v 1.282022 q -0.01609,0.221982 -0.218764,0.225199 -0.20107,0.0032 -0.233241,-0.225199 z"
         style="stroke-width:0.264583"
         id="path15476" />
      <path
         d="m 21.657754,97.289437 v -2.837499 q 0.02895,-0.21233 0.228416,-0.228415 h 1.557085 q 0.22359,0.01769 0.22359,0.228415 0,0.209113 -0.226807,0.22359 h -1.330279 v 0.879882 h 1.037521 q 0.221981,0.01609 0.225199,0.217156 0.0032,0.20107 -0.225199,0.234849 h -1.037521 v 1.282022 q -0.01609,0.221982 -0.218764,0.225199 -0.20107,0.0032 -0.233241,-0.225199 z"
         style="stroke-width:0.264583"
         id="path15478" />
    </g>
    <g
       aria-label="ON"
       id="text6330"
       style="font-size:3.29433px;line-height:1.25;font-family:'MS 33558';-inkscape-font-specification:'MS 33558, Normal';text-align:center;text-anchor:middle;stroke-width:0.264583">
      <path
         d="m 98.391571,120.67997 q 0.147988,0.44558 0.110991,0.92493 -0.03539,0.47935 -0.262195,0.87505 -0.143162,0.24611 -0.39088,0.41823 -0.247718,0.17211 -0.54691,0.12064 -0.487394,-0.0853 -0.746372,-0.5083 -0.258978,-0.42306 -0.297583,-0.94101 -0.037,-0.51957 0.139944,-1.01179 0.17855,-0.49221 0.567822,-0.7158 0.18981,-0.10939 0.397314,-0.10939 0.395706,0 0.646641,0.2992 0.250935,0.29758 0.381228,0.64824 z m -1.015001,-0.49061 q -0.295975,0 -0.448788,0.3185 -0.151204,0.31849 -0.191418,0.54369 -0.03056,0.16408 -0.02252,0.39732 0.008,0.23324 0.06756,0.46165 0.05952,0.22681 0.178551,0.41019 0.119033,0.18176 0.31206,0.24128 0.225198,0.0708 0.387663,-0.0885 0.164073,-0.16086 0.247718,-0.34102 0.08525,-0.18498 0.115816,-0.48578 0.03217,-0.3008 -0.01448,-0.59999 -0.04504,-0.3008 -0.17855,-0.54048 -0.13351,-0.24128 -0.37962,-0.30723 -0.03217,-0.01 -0.07399,-0.01 z"
         style="stroke-width:0.264583"
         id="path15469" />
      <path
         d="m 101.15669,122.80488 q 0,0.1689 -0.16408,0.21555 -0.16246,0.045 -0.25254,-0.0965 l -1.351192,-2.16673 v 2.04769 q -0.03539,0.2252 -0.228415,0.2252 -0.191419,0 -0.225198,-0.2252 v -2.84071 q 0.02413,-0.16729 0.170507,-0.22038 0.147987,-0.0531 0.24611,0.0997 l 1.351188,2.16995 v -2.0493 q 0.0306,-0.23003 0.23324,-0.22681 0.20429,0.002 0.22038,0.22681 z"
         style="stroke-width:0.264583"
         id="path15471" />
    </g>
    <g
       aria-label="PRESET"
       id="text6334"
       style="font-size:3.29433px;line-height:1.25;font-family:'MS 33558';-inkscape-font-specification:'MS 33558, Normal';text-align:center;text-anchor:middle;stroke-width:0.264583">
      <path
         d="m 111.89081,86.378087 h 0.0306 q 0.2059,0.01448 0.37962,0.0933 0.33297,0.156031 0.47131,0.513131 0.13834,0.3571 -0.003,0.696506 -0.1142,0.268629 -0.33779,0.421443 -0.22359,0.151204 -0.50992,0.168898 l -0.0306,0.0016 h -0.78176 v 1.17264 q -0.0289,0.226807 -0.22842,0.226807 -0.19946,0 -0.2268,-0.226807 v -2.842325 q 0.0241,-0.199461 0.21233,-0.225198 h 0.0145 z m 0,0.453614 h -0.78176 v 0.986047 h 0.78176 q 0.18338,0 0.32332,-0.122251 0.14155,-0.12225 0.16568,-0.305626 0.029,-0.221981 -0.11903,-0.389272 -0.14799,-0.168898 -0.36997,-0.168898 z"
         style="stroke-width:0.264583"
         id="path15456" />
      <path
         d="m 115.3283,89.323359 q 0.10295,0.181767 -0.0579,0.305627 -0.0772,0.05469 -0.17855,0.037 -0.0997,-0.01769 -0.14638,-0.09973 l -0.79302,-1.253068 h -0.40214 v 1.132426 q 0,0.139944 -0.12707,0.202678 -0.12708,0.06113 -0.23807,-0.02413 -0.0885,-0.06595 -0.0885,-0.17855 v -2.842325 q 0,-0.0933 0.0643,-0.159247 0.066,-0.06595 0.16086,-0.06595 h 0.99891 q 0.36032,0 0.62573,0.230024 0.26542,0.228415 0.32976,0.58069 0.0676,0.378011 -0.16086,0.707766 -0.2268,0.328146 -0.60321,0.398923 l -0.0306,0.0048 z m -0.8075,-1.46218 q 0.16408,0 0.30241,-0.09973 0.13995,-0.09973 0.1882,-0.260587 0.0756,-0.247718 -0.0692,-0.447179 -0.14477,-0.20107 -0.39893,-0.221981 h -0.79302 v 1.029478 z"
         style="stroke-width:0.264583"
         id="path15458" />
      <path
         d="m 117.70414,86.826875 h -1.33349 v 0.879882 h 1.01661 q 0.22841,0.03378 0.2268,0.230024 0,0.194636 -0.2268,0.226807 h -1.01661 v 1.056823 h 1.33349 q 0.22681,0.03378 0.22681,0.226807 0,0.193027 -0.22681,0.225199 h -1.55708 q -0.20107,-0.02574 -0.22842,-0.228416 v -2.840716 q 0.0306,-0.21233 0.22842,-0.225198 h 1.55708 q 0.22681,0.01769 0.2252,0.226807 0,0.207504 -0.2252,0.221981 z"
         style="stroke-width:0.264583"
         id="path15460" />
      <path
         d="m 119.99634,87.919087 0.0257,0.01126 0.0289,0.01448 0.0257,0.01448 q 0.0113,0.008 0.0241,0.01609 0.0145,0.0064 0.0273,0.01448 0.3185,0.209113 0.3941,0.579082 0.0289,0.14477 0.0129,0.297583 -0.0257,0.218764 -0.15442,0.405357 -0.12708,0.184985 -0.32011,0.286324 -0.2075,0.109382 -0.42948,0.109382 -0.37319,0 -0.71259,-0.0949 -0.33941,-0.09651 -0.48418,-0.51313 -0.0193,-0.05308 -0.029,-0.109383 -0.01,-0.0563 -0.0225,-0.112599 -0.0241,-0.115816 0.0563,-0.204287 0.082,-0.08847 0.20267,-0.06756 0.12708,0.02574 0.17695,0.157639 l 0.005,0.01448 q 0.0772,0.349057 0.26863,0.416617 0.19303,0.06756 0.53565,0.06113 0.31528,0 0.4327,-0.295975 0.0515,-0.131902 0.0161,-0.273455 -0.0354,-0.143162 -0.13995,-0.238067 -0.0466,-0.04021 -0.12225,-0.0756 l -0.74476,-0.326538 -0.0241,-0.01287 q -0.36514,-0.193028 -0.45361,-0.548519 -0.10778,-0.411791 0.14959,-0.738329 0.25898,-0.328146 0.67882,-0.328146 l 0.17694,0.0048 q 0.0869,0.01609 0.16729,0.03217 0.0804,0.01448 0.16246,0.05147 0.20268,0.0949 0.31045,0.260586 0.10778,0.165682 0.19464,0.358709 0.008,0.01769 0.0145,0.04182 0.0177,0.07882 -0.0161,0.143161 -0.0193,0.04021 -0.0402,0.06113 -0.0209,0.02091 -0.0338,0.02895 -0.0837,0.05952 -0.18338,0.03539 -0.0997,-0.02252 -0.15281,-0.128685 -0.0418,-0.0933 -0.0901,-0.18981 -0.0466,-0.09812 -0.1319,-0.162464 -0.0354,-0.02574 -0.0692,-0.037 -0.0322,-0.01287 -0.0724,-0.02735 l -0.10455,-0.01769 -0.14799,-0.0048 q -0.21555,0.0032 -0.32975,0.186593 -0.0772,0.117425 -0.0579,0.262196 0.0225,0.17855 0.16729,0.276672 0.006,0.0048 0.0145,0.01126 0.008,0.0048 0.0177,0.0097 l 0.0177,0.008 0.0193,0.008 z"
         style="stroke-width:0.264583"
         id="path15462" />
      <path
         d="m 122.72446,86.826875 h -1.3335 v 0.879882 h 1.01661 q 0.22842,0.03378 0.22681,0.230024 0,0.194636 -0.22681,0.226807 h -1.01661 v 1.056823 h 1.3335 q 0.2268,0.03378 0.2268,0.226807 0,0.193027 -0.2268,0.225199 h -1.55709 q -0.20107,-0.02574 -0.22841,-0.228416 v -2.840716 q 0.0306,-0.21233 0.22841,-0.225198 h 1.55709 q 0.2268,0.01769 0.2252,0.226807 0,0.207504 -0.2252,0.221981 z"
         style="stroke-width:0.264583"
         id="path15464" />
      <path
         d="m 124.21398,89.447218 v -2.615517 h -0.59034 q -0.2252,-0.01769 -0.2252,-0.225199 0.002,-0.209112 0.2252,-0.228415 h 1.63269 q 0.22198,0.01769 0.22198,0.228415 0.002,0.209113 -0.22198,0.225199 h -0.58873 v 2.615517 q -0.037,0.228416 -0.23807,0.225199 -0.19946,-0.0032 -0.21555,-0.225199 z"
         style="stroke-width:0.264583"
         id="path15466" />
    </g>
    <g
       aria-label="MNL"
       id="text6338"
       style="font-size:3.29433px;line-height:1.25;font-family:'MS 33558';-inkscape-font-specification:'MS 33558, Normal';text-align:center;text-anchor:middle;stroke-width:0.264583">
      <path
         d="m 107.60766,94.829916 q -0.0354,0.225199 -0.22842,0.225199 -0.19141,-0.0016 -0.22519,-0.225199 v -2.00909 l -0.55174,0.944224 q -0.0885,0.106165 -0.19785,0.110991 -0.10778,0.0048 -0.19303,-0.110991 l -0.54852,-0.939399 0.002,2.004265 q -0.0257,0.22359 -0.23324,0.22359 -0.2059,-0.0016 -0.22198,-0.22359 V 91.9892 q 0.0129,-0.184984 0.16246,-0.220372 0.1496,-0.037 0.26059,0.101339 l 0.77372,1.330279 0.78176,-1.330279 q 0.11099,-0.138336 0.25737,-0.101339 0.14798,0.037 0.16246,0.220372 z"
         style="stroke-width:0.264583"
         id="path15449" />
      <path
         d="m 110.21513,94.833134 q 0,0.168898 -0.16407,0.215547 -0.16246,0.04504 -0.25254,-0.09651 l -1.35119,-2.16673 v 2.047697 q -0.0354,0.225198 -0.22842,0.225198 -0.19142,0 -0.2252,-0.225198 v -2.840717 q 0.0241,-0.16729 0.17051,-0.220372 0.14799,-0.05308 0.24611,0.09973 l 1.35119,2.169947 v -2.049305 q 0.0306,-0.230024 0.23324,-0.226806 0.20429,0.0016 0.22037,0.226806 z"
         style="stroke-width:0.264583"
         id="path15451" />
      <path
         d="m 110.90521,95.056723 q -0.19786,-0.01287 -0.22842,-0.223589 V 91.9892 q 0.0338,-0.231632 0.23485,-0.226807 0.20107,0.0032 0.21877,0.226807 v 2.618735 l 1.4847,-0.0016 q 0.22841,0.02574 0.22519,0.231632 -0.002,0.204287 -0.2268,0.218764 z"
         style="stroke-width:0.264583"
         id="path15453" />
    </g>
    <g
       aria-label="GRD"
       id="text6342"
       style="font-size:3.29433px;line-height:1.25;font-family:'MS 33558';-inkscape-font-specification:'MS 33558, Normal';text-align:center;text-anchor:middle;stroke-width:0.264583">
      <path
         d="m 124.99849,93.733951 -0.0145,-0.0016 q -0.19625,-0.02413 -0.19625,-0.22359 0,-0.199461 0.19625,-0.223589 l 0.0145,-0.0032 h 0.0145 0.59356 q 0.0933,0 0.15925,0.06756 0.0676,0.06595 0.0676,0.159247 v 0.81554 l -0.0193,0.04182 -0.0113,0.02574 -0.0113,0.02413 -0.0129,0.02413 -0.0129,0.02413 -0.0113,0.02413 -0.0129,0.02413 -0.0145,0.02413 q -0.31206,0.530825 -0.77532,0.519565 -0.46327,-0.01287 -0.77855,-0.524391 -0.14959,-0.242892 -0.22198,-0.608035 -0.0724,-0.366752 -0.0434,-0.74798 0.029,-0.382838 0.17694,-0.727069 0.1496,-0.345841 0.44557,-0.548519 0.36997,-0.250935 0.72064,-0.05791 0.35067,0.191418 0.52439,0.538867 l 0.0129,0.02574 0.01,0.02252 0.0129,0.02413 q 0.0547,0.152813 -0.0418,0.249327 -0.0933,0.09169 -0.20268,0.06917 -0.10939,-0.02413 -0.1689,-0.130293 -0.1882,-0.466482 -0.48579,-0.406966 -0.29597,0.05952 -0.44396,0.485785 -0.14477,0.411791 -0.11421,0.886316 0.0306,0.472917 0.30885,0.825191 0.19142,0.24611 0.38927,0.157639 0.19785,-0.08847 0.31206,-0.329754 l 0.0177,-0.03539 v -0.49061 z"
         style="stroke-width:0.264583"
         id="path15442" />
      <path
         d="m 128.38933,94.711955 q 0.10295,0.181767 -0.0579,0.305626 -0.0772,0.05469 -0.17855,0.037 -0.0997,-0.01769 -0.14638,-0.09973 l -0.79302,-1.253068 h -0.40214 v 1.132426 q 0,0.139945 -0.12707,0.202679 -0.12708,0.06113 -0.23807,-0.02413 -0.0885,-0.06595 -0.0885,-0.17855 v -2.842324 q 0,-0.0933 0.0643,-0.159248 0.066,-0.06595 0.16086,-0.06595 h 0.99891 q 0.36032,0 0.62573,0.230024 0.26541,0.228416 0.32976,0.58069 0.0676,0.378012 -0.16086,0.707767 -0.22681,0.328146 -0.60321,0.398922 l -0.0306,0.0048 z m -0.8075,-1.462181 q 0.16408,0 0.30241,-0.09973 0.13995,-0.09973 0.1882,-0.260587 0.0756,-0.247718 -0.0692,-0.44718 -0.14477,-0.20107 -0.39892,-0.221981 h -0.79302 v 1.029478 z"
         style="stroke-width:0.264583"
         id="path15444" />
      <path
         d="m 129.20487,91.766682 h 0.75763 q 0.5646,0 0.8461,0.514739 0.2815,0.514739 0.2815,1.132426 0,0.617687 -0.28311,1.132426 -0.28149,0.514739 -0.84449,0.514739 h -0.75763 0.003 -0.003 q -0.0531,-0.008 -0.0579,-0.0097 -0.16729,-0.04021 -0.16568,-0.218764 h -0.002 l 0.002,-2.840716 q -0.002,-0.0048 -0.002,-0.01287 0.005,-0.08847 0.0692,-0.149596 0.0659,-0.06273 0.15764,-0.06273 z m 0.75763,2.840716 q 0.003,0 0.006,0 0.003,0 0.008,0 0.003,0 0.005,0 0.003,-0.0016 0.008,-0.0016 0.003,0 0.006,0 0.005,-0.0016 0.01,-0.0016 0.003,0 0.006,0 0.003,-0.0016 0.008,-0.0016 0.003,0 0.006,0 0.003,-0.0016 0.008,-0.0016 0.006,-0.0032 0.0129,-0.0032 0.003,0 0.006,-0.0016 0.003,-0.0032 0.008,-0.0048 0.003,0 0.006,0 0.005,-0.0016 0.01,-0.0032 0.003,0 0.006,-0.0016 0.003,-0.0016 0.008,-0.0032 0.01,-0.0032 0.0145,-0.0064 0.029,-0.0097 0.0161,-0.0064 0.003,0 0.006,-0.0016 0.003,-0.0032 0.008,-0.0048 0.0145,-0.0097 0.0129,-0.008 0.0161,-0.008 0.0161,-0.008 0.003,-0.0016 0.006,-0.0032 0.003,-0.0032 0.008,-0.0064 0.0145,-0.0097 0.0145,-0.0097 0.003,-0.0016 0.006,-0.0032 0.005,-0.0032 0.01,-0.0064 0.003,-0.0016 0.006,-0.0048 0.003,-0.0032 0.008,-0.0064 0.003,-0.0016 0.006,-0.0032 0.003,-0.0032 0.008,-0.0064 0.003,-0.0032 0.0161,-0.01287 0.0129,-0.01287 0.0129,-0.01287 0.003,-0.0032 0.006,-0.0064 0.003,-0.0032 0.008,-0.008 0.003,-0.0032 0.006,-0.0064 0.003,-0.0032 0.008,-0.008 0.005,-0.0032 0.0145,-0.01287 0.003,-0.0032 0.006,-0.0064 0.003,-0.0032 0.008,-0.008 0.003,-0.0032 0.006,-0.0064 0.003,-0.0048 0.008,-0.0097 0.0193,-0.02574 0.0129,-0.01609 0.0113,-0.01126 0.0145,-0.01769 0.0145,-0.0193 0.0129,-0.01769 0.003,-0.0048 0.006,-0.008 0.003,-0.0048 0.008,-0.0097 0.003,-0.0048 0.005,-0.0097 0.003,-0.0048 0.008,-0.0097 0.002,-0.0048 0.005,-0.0097 0.005,-0.0064 0.008,-0.01126 0.01,-0.01287 0.0129,-0.0193 0.003,-0.0048 0.005,-0.0097 0.003,-0.0064 0.008,-0.01126 0.003,-0.0048 0.005,-0.0097 0.003,-0.0064 0.008,-0.01126 0.003,-0.008 0.01,-0.02091 0.003,-0.0048 0.005,-0.01126 0.003,-0.0064 0.008,-0.01287 0.003,-0.0048 0.005,-0.0097 0.003,-0.0064 0.008,-0.01287 0.002,-0.0048 0.003,-0.01126 0.003,-0.0064 0.006,-0.01287 0.005,-0.008 0.0113,-0.02413 0.0161,-0.04021 0.0113,-0.02574 0.002,-0.0048 0.003,-0.01126 0.003,-0.008 0.006,-0.01448 0.002,-0.0064 0.003,-0.01287 0.003,-0.0064 0.006,-0.01448 0.005,-0.01448 0.008,-0.02574 0.002,-0.0064 0.003,-0.01287 0.003,-0.0064 0.006,-0.01448 -0.006,0.01609 0.008,-0.02735 0.003,-0.008 0.01,-0.02734 0,-0.0064 0.002,-0.01287 0.003,-0.008 0.005,-0.01608 0.002,-0.0064 0.003,-0.01287 0.002,-0.008 0.005,-0.01609 0,-0.0048 0.002,-0.01126 0.003,-0.008 0.005,-0.01609 0.002,-0.01126 0.005,-0.03056 0,-0.0064 0.002,-0.01287 0.003,-0.008 0.005,-0.01609 0,-0.0064 0.002,-0.01287 0.002,-0.008 0.003,-0.01609 0.002,-0.01126 0.005,-0.03056 0,-0.0064 0.002,-0.01448 0.003,-0.008 0.005,-0.01609 0,-0.01126 0.003,-0.03056 0,-0.0064 0,-0.01287 0.002,-0.008 0.003,-0.01769 0.003,-0.0193 0.003,-0.03056 0.002,-0.01126 0.002,-0.03056 0.002,-0.01126 0.002,-0.03217 0.002,-0.01126 0.002,-0.03056 0,-0.008 0,-0.01448 0.002,-0.008 0.003,-0.01769 0,-0.0064 0,-0.01287 0.002,-0.008 0.002,-0.01769 0,-0.0064 0,-0.01448 0,-0.008 0,-0.01609 0,-0.008 0,-0.01448 0,-0.008 0,-0.01609 0,-0.008 -0.002,-0.01448 0,-0.008 0,-0.01769 0,-0.0064 0,-0.01448 0,-0.008 0,-0.01609 0,-0.0097 -0.003,-0.03217 0,-0.0193 -0.002,-0.02895 0,-0.01126 -0.003,-0.03378 0,-0.0193 -0.002,-0.02895 0,-0.01126 -0.003,-0.03056 -0.002,-0.0064 -0.003,-0.01448 0,-0.008 0,-0.01609 -0.003,-0.0193 -0.006,-0.03056 -0.002,-0.0064 -0.003,-0.01287 -0.002,-0.008 -0.002,-0.01609 -0.002,-0.01126 -0.005,-0.03056 -0.002,-0.01126 -0.005,-0.03056 -0.006,-0.0193 -0.008,-0.02896 -0.003,-0.0193 -0.005,-0.02734 -0.003,-0.0064 -0.005,-0.01287 -0.002,-0.008 -0.003,-0.01609 -0.002,-0.0064 -0.005,-0.01287 -0.003,-0.008 -0.003,-0.01609 -0.0145,-0.04343 -0.008,-0.02735 -0.003,-0.01126 -0.008,-0.02735 -0.003,-0.0048 -0.006,-0.01126 -0.002,-0.008 -0.003,-0.01448 -0.002,-0.0048 -0.01,-0.02735 -0.006,-0.01608 -0.01,-0.02574 -0.003,-0.0048 -0.006,-0.01126 -0.002,-0.008 -0.003,-0.01448 -0.003,-0.0048 -0.006,-0.01126 -0.003,-0.0064 -0.005,-0.01287 -0.006,-0.01609 -0.0113,-0.02413 -0.006,-0.01609 -0.01,-0.02252 -0.006,-0.01609 -0.0113,-0.02413 -0.003,-0.0048 -0.006,-0.0097 -0.003,-0.0064 -0.005,-0.01126 -0.01,-0.01609 -0.0129,-0.02252 -0.0145,-0.02252 -0.0129,-0.02091 -0.005,-0.0048 -0.008,-0.0097 -0.002,-0.0064 -0.005,-0.01126 -0.003,-0.0064 -0.0129,-0.0193 -0.003,-0.0048 -0.006,-0.0097 -0.003,-0.0048 -0.005,-0.0097 -0.008,-0.01448 -0.0274,-0.037 -0.003,-0.0032 -0.0257,-0.03539 -0.0193,-0.02252 -0.029,-0.03217 -0.01,-0.01126 -0.029,-0.03056 -0.0129,-0.01448 -0.0273,-0.02734 -0.0113,-0.008 -0.0306,-0.02413 -0.0161,-0.01287 -0.0306,-0.02413 -0.037,-0.02413 -0.0306,-0.02091 -0.0322,-0.0193 -0.029,-0.01769 0,0 -0.029,-0.01448 -0.006,-0.0032 -0.0306,-0.01126 -0.0209,-0.008 -0.0306,-0.01126 -0.008,-0.0016 -0.0145,-0.0032 -0.006,-0.0032 -0.0129,-0.0064 -0.029,-0.0048 -0.029,-0.0048 -0.01,-0.0016 -0.029,-0.0016 -0.005,0 -0.008,0 -0.003,0 -0.006,0 h -0.53082 v 2.387102 0 z"
         style="stroke-width:0.264583"
         id="path15446" />
    </g>
    <g
       aria-label="VOL"
       id="text6346"
       style="font-size:3.29433px;line-height:1.25;font-family:'MS 33558';-inkscape-font-specification:'MS 33558, Normal';text-align:center;text-anchor:middle;stroke-width:0.264583">
      <path
         d="m 71.736303,84.227698 q -0.03056,-0.228416 0.162465,-0.27989 0.194636,-0.05147 0.276672,0.162465 l 0.542085,2.007482 0.545301,-2.026785 q 0.08204,-0.217155 0.283107,-0.157639 0.20107,0.05791 0.154422,0.275064 L 72.93468,87.05072 q -0.06434,0.165681 -0.215547,0.16729 -0.151204,0 -0.220372,-0.160856 z"
         style="stroke-width:0.264583"
         id="path15435" />
      <path
         d="m 76.291744,84.871122 q 0.147988,0.445571 0.110991,0.924921 -0.03539,0.479351 -0.262195,0.875057 -0.143162,0.246109 -0.39088,0.418225 -0.247719,0.172116 -0.546911,0.120642 -0.487393,-0.08525 -0.746371,-0.508305 -0.258978,-0.423051 -0.297584,-0.941007 -0.037,-0.519565 0.139945,-1.011784 0.17855,-0.492219 0.567821,-0.715809 0.18981,-0.109382 0.397315,-0.109382 0.395705,0 0.646641,0.299192 0.250935,0.297584 0.381228,0.64825 z m -1.015001,-0.490611 q -0.295975,0 -0.448788,0.318495 -0.151205,0.318495 -0.191419,0.543693 -0.03056,0.164073 -0.02252,0.397314 0.008,0.233241 0.06756,0.461657 0.05952,0.226807 0.17855,0.410182 0.119034,0.181768 0.312061,0.241284 0.225198,0.07078 0.387663,-0.08847 0.164073,-0.160855 0.247718,-0.341014 0.08525,-0.184984 0.115816,-0.485785 0.03217,-0.300801 -0.01448,-0.599993 -0.04504,-0.3008 -0.17855,-0.540476 -0.133511,-0.241284 -0.37962,-0.307235 -0.03217,-0.0097 -0.07399,-0.0097 z"
         style="stroke-width:0.264583"
         id="path15437" />
      <path
         d="M 77.063853,87.219619 Q 76.866,87.20675 76.835438,86.996029 v -2.843933 q 0.03378,-0.231633 0.234849,-0.226807 0.20107,0.0032 0.218764,0.226807 v 2.618734 l 1.484701,-0.0016 q 0.228415,0.02574 0.225198,0.231632 -0.0016,0.204287 -0.226807,0.218765 z"
         style="stroke-width:0.264583"
         id="path15439" />
    </g>
    <g
       aria-label="OFF"
       id="text6350"
       style="font-size:3.29433px;line-height:1.25;font-family:'MS 33558';-inkscape-font-specification:'MS 33558, Normal';text-align:center;text-anchor:middle;stroke-width:0.264583">
      <path
         d="m 80.264689,120.6806 q 0.147987,0.44557 0.11099,0.92492 -0.03539,0.47935 -0.262195,0.87506 -0.143162,0.24611 -0.39088,0.41822 -0.247718,0.17212 -0.54691,0.12065 -0.487394,-0.0853 -0.746372,-0.50831 -0.258978,-0.42305 -0.297583,-0.94101 -0.037,-0.51956 0.139944,-1.01178 0.17855,-0.49222 0.567822,-0.71581 0.18981,-0.10938 0.397314,-0.10938 0.395706,0 0.646641,0.29919 0.250935,0.29758 0.381229,0.64825 z m -1.015001,-0.49061 q -0.295975,0 -0.448789,0.31849 -0.151204,0.3185 -0.191418,0.5437 -0.03056,0.16407 -0.02252,0.39731 0.008,0.23324 0.06756,0.46166 0.05952,0.22681 0.17855,0.41018 0.119033,0.18177 0.31206,0.24129 0.225199,0.0708 0.387663,-0.0885 0.164073,-0.16085 0.247718,-0.34101 0.08525,-0.18498 0.115816,-0.48579 0.03217,-0.3008 -0.01448,-0.59999 -0.04504,-0.3008 -0.17855,-0.54047 -0.13351,-0.24129 -0.37962,-0.30724 -0.03217,-0.01 -0.07399,-0.01 z"
         style="stroke-width:0.264583"
         id="path15428" />
      <path
         d="m 80.808382,122.79907 v -2.8375 q 0.02895,-0.21233 0.228415,-0.22841 h 1.557086 q 0.22359,0.0177 0.22359,0.22841 0,0.20912 -0.226807,0.22359 h -1.330279 v 0.87989 h 1.037521 q 0.221981,0.0161 0.225198,0.21715 0.0032,0.20107 -0.225198,0.23485 h -1.037521 v 1.28202 q -0.01609,0.22198 -0.218764,0.2252 -0.20107,0.003 -0.233241,-0.2252 z"
         style="stroke-width:0.264583"
         id="path15430" />
      <path
         d="m 83.267869,122.79907 v -2.8375 q 0.02895,-0.21233 0.228416,-0.22841 h 1.557085 q 0.22359,0.0177 0.22359,0.22841 0,0.20912 -0.226807,0.22359 h -1.330279 v 0.87989 h 1.037521 q 0.221982,0.0161 0.225199,0.21715 0.0032,0.20107 -0.225199,0.23485 h -1.037521 v 1.28202 q -0.01609,0.22198 -0.218764,0.2252 -0.20107,0.003 -0.233241,-0.2252 z"
         style="stroke-width:0.264583"
         id="path15432" />
    </g>
    <g
       aria-label="MAIN"
       id="text6354"
       style="font-size:3.29433px;line-height:1.25;font-family:'MS 33558';-inkscape-font-specification:'MS 33558, Normal';text-align:center;text-anchor:middle;stroke-width:0.264583">
      <path
         d="m 24.579908,89.449645 q -0.03539,0.225198 -0.228415,0.225198 -0.191419,-0.0016 -0.225198,-0.225198 v -2.009091 l -0.551736,0.944224 q -0.08847,0.106165 -0.197853,0.110991 -0.107774,0.0048 -0.193027,-0.110991 l -0.548519,-0.939399 0.0016,2.004266 q -0.02574,0.223589 -0.233241,0.223589 -0.205895,-0.0016 -0.221981,-0.223589 v -2.840717 q 0.01287,-0.184984 0.162465,-0.220372 0.149596,-0.037 0.260586,0.101339 l 0.773717,1.330279 0.78176,-1.330279 q 0.110991,-0.138336 0.25737,-0.101339 0.147987,0.037 0.162464,0.220372 z"
         style="stroke-width:0.264583"
         id="path15419" />
      <path
         d="m 26.708033,88.618019 -0.489003,-1.35119 -0.492219,1.35119 z m -0.489003,-1.35119 0.489003,1.35119 z m -1.241808,2.097562 q 0.25737,-0.709375 0.51474,-1.417141 0.258978,-0.709375 0.517956,-1.41875 0.05308,-0.146378 0.210721,-0.147987 0.157639,-0.0016 0.21233,0.147987 l 1.031086,2.843934 q 0.04826,0.226807 -0.138336,0.292757 -0.186593,0.06595 -0.287932,-0.135119 L 26.872106,89.070024 H 25.56113 l -0.160856,0.448789 q -0.102948,0.202678 -0.292758,0.13351 -0.18981,-0.07078 -0.130294,-0.287932 z"
         style="stroke-width:0.264583"
         id="path15421" />
      <path
         d="m 28.237773,89.452862 q -0.03539,0.226807 -0.230024,0.225198 -0.193027,0 -0.226807,-0.225198 v -2.843934 q 0.03378,-0.226806 0.226807,-0.226806 0.194635,-0.0016 0.230024,0.226806 z"
         style="stroke-width:0.264583"
         id="path15423" />
      <path
         d="m 30.916024,89.452862 q 0,0.168898 -0.164073,0.215547 -0.162465,0.04504 -0.252544,-0.09651 l -1.35119,-2.16673 v 2.047697 q -0.03539,0.225198 -0.228415,0.225198 -0.191419,0 -0.225199,-0.225198 v -2.840716 q 0.02413,-0.167291 0.170508,-0.220373 0.147987,-0.05308 0.246109,0.09973 l 1.35119,2.169946 v -2.049304 q 0.03056,-0.230024 0.233241,-0.226807 0.204287,0.0016 0.220373,0.226807 z"
         style="stroke-width:0.264583"
         id="path15425" />
    </g>
    <g
       aria-label="BOTH"
       id="text6358"
       style="font-size:3.29433px;line-height:1.25;font-family:'MS 33558';-inkscape-font-specification:'MS 33558, Normal';text-align:center;text-anchor:middle;stroke-width:0.264583">
      <path
         d="m 37.071851,86.378087 q 0.305626,0.02574 0.513131,0.184984 0.209112,0.159248 0.28954,0.384446 0.08043,0.22359 0.02091,0.477742 -0.05791,0.252544 -0.283106,0.464874 0.247718,0.260586 0.308843,0.562996 0.06113,0.302409 -0.0386,0.566213 -0.09812,0.262195 -0.342623,0.445571 -0.244501,0.183375 -0.606427,0.207504 h -0.0048 -0.855753 q -0.197853,-0.02735 -0.228416,-0.22359 v -2.842325 q 0.02735,-0.199461 0.228416,-0.228415 z m -0.143162,2.839107 q 0.273455,-0.01126 0.416617,-0.176941 0.143162,-0.165682 0.147988,-0.366752 0.0064,-0.202678 -0.128685,-0.37962 -0.135119,-0.176941 -0.416617,-0.213938 h -0.64825 v 1.137251 z m 0.143162,-2.382276 h -0.772109 v 0.79302 h 0.776935 q 0.199461,-0.02091 0.295975,-0.143162 0.09812,-0.123859 0.0949,-0.263804 -0.0016,-0.141553 -0.10134,-0.25737 -0.09973,-0.117424 -0.294366,-0.128684 z"
         style="stroke-width:0.264583"
         id="path15410" />
      <path
         d="m 40.504517,87.325528 q 0.147987,0.445571 0.110991,0.924922 -0.03539,0.479351 -0.262196,0.875056 -0.143161,0.24611 -0.39088,0.418226 -0.247718,0.172116 -0.54691,0.120642 -0.487393,-0.08525 -0.746371,-0.508305 -0.258978,-0.423051 -0.297584,-0.941007 -0.037,-0.519565 0.139945,-1.011784 0.17855,-0.492219 0.567821,-0.715809 0.18981,-0.109382 0.397314,-0.109382 0.395706,0 0.646641,0.299192 0.250936,0.297583 0.381229,0.648249 z m -1.015001,-0.49061 q -0.295975,0 -0.448788,0.318494 -0.151205,0.318495 -0.191419,0.543694 -0.03056,0.164073 -0.02252,0.397314 0.008,0.233241 0.06756,0.461656 0.05952,0.226807 0.17855,0.410183 0.119033,0.181767 0.312061,0.241284 0.225198,0.07078 0.387662,-0.08847 0.164073,-0.160856 0.247719,-0.341014 0.08525,-0.184985 0.115816,-0.485785 0.03217,-0.300801 -0.01448,-0.599993 -0.04504,-0.300801 -0.17855,-0.540476 -0.133511,-0.241284 -0.37962,-0.307235 -0.03217,-0.0097 -0.07399,-0.0097 z"
         style="stroke-width:0.264583"
         id="path15412" />
      <path
         d="m 41.86375,89.447218 v -2.615517 h -0.590341 q -0.225199,-0.01769 -0.225199,-0.225199 0.0016,-0.209112 0.225199,-0.228415 h 1.632687 q 0.221982,0.01769 0.221982,0.228415 0.0016,0.209113 -0.221982,0.225199 h -0.588732 v 2.615517 q -0.037,0.228416 -0.238067,0.225199 -0.199462,-0.0032 -0.215547,-0.225199 z"
         style="stroke-width:0.264583"
         id="path15414" />
      <path
         d="m 43.609037,89.450435 v -2.843933 q 0.03378,-0.231632 0.23485,-0.226807 0.20107,0.0032 0.218764,0.226807 v 1.063258 h 1.29489 v -1.063258 q 0.03378,-0.226807 0.226807,-0.226807 0.194636,-0.0016 0.230024,0.226807 v 2.843933 q -0.03539,0.226807 -0.230024,0.225199 -0.193027,0 -0.226807,-0.225199 v -1.323844 h -1.29489 v 1.323844 q -0.01769,0.221982 -0.218764,0.225199 -0.20107,0.0032 -0.23485,-0.225199 z"
         style="stroke-width:0.264583"
         id="path15416" />
    </g>
    <g
       aria-label="ADF"
       id="text6362"
       style="font-size:3.29433px;line-height:1.25;font-family:'MS 33558';-inkscape-font-specification:'MS 33558, Normal';text-align:center;text-anchor:middle;stroke-width:0.264583">
      <path
         d="m 46.697951,96.461044 -0.489003,-1.35119 -0.492219,1.35119 z m -0.489003,-1.35119 0.489003,1.35119 z m -1.241808,2.097562 q 0.25737,-0.709375 0.51474,-1.417141 0.258978,-0.709375 0.517956,-1.418749 0.05308,-0.146379 0.210721,-0.147988 0.157639,-0.0016 0.21233,0.147988 l 1.031086,2.843933 q 0.04826,0.226807 -0.138336,0.292758 -0.186593,0.06595 -0.287932,-0.135119 L 46.862024,96.91305 h -1.310976 l -0.160856,0.448788 q -0.102948,0.202678 -0.292758,0.13351 -0.18981,-0.07078 -0.130294,-0.287932 z"
         style="stroke-width:0.264583"
         id="path15403" />
      <path
         d="m 47.996058,94.223538 h 0.757631 q 0.564605,0 0.846103,0.514739 0.281498,0.514739 0.281498,1.132426 0,0.617687 -0.283107,1.132426 -0.281498,0.514739 -0.844494,0.514739 h -0.757631 0.0032 -0.0032 q -0.05308,-0.008 -0.05791,-0.0097 -0.16729,-0.04021 -0.165682,-0.218764 h -0.0016 l 0.0016,-2.840717 q -0.0016,-0.0048 -0.0016,-0.01287 0.0048,-0.08847 0.06917,-0.149596 0.06595,-0.06273 0.157639,-0.06273 z m 0.757631,2.840716 q 0.0032,0 0.0064,0 0.0032,0 0.008,0 0.0032,0 0.0048,0 0.0032,-0.0016 0.008,-0.0016 0.0032,0 0.0064,0 0.0048,-0.0016 0.0097,-0.0016 0.0032,0 0.0064,0 0.0032,-0.0016 0.008,-0.0016 0.0032,0 0.0064,0 0.0032,-0.0016 0.008,-0.0016 0.0064,-0.0032 0.01287,-0.0032 0.0032,0 0.0064,-0.0016 0.0032,-0.0032 0.008,-0.0048 0.0032,0 0.0064,0 0.0048,-0.0016 0.0097,-0.0032 0.0032,0 0.0064,-0.0016 0.0032,-0.0016 0.008,-0.0032 0.0097,-0.0032 0.01448,-0.0064 0.02895,-0.0097 0.01608,-0.0064 0.0032,0 0.0064,-0.0016 0.0032,-0.0032 0.008,-0.0048 0.01448,-0.0097 0.01287,-0.008 0.01609,-0.008 0.01609,-0.008 0.0032,-0.0016 0.0064,-0.0032 0.0032,-0.0032 0.008,-0.0064 0.01448,-0.0097 0.01448,-0.0097 0.0032,-0.0016 0.0064,-0.0032 0.0048,-0.0032 0.0097,-0.0064 0.0032,-0.0016 0.0064,-0.0048 0.0032,-0.0032 0.008,-0.0064 0.0032,-0.0016 0.0064,-0.0032 0.0032,-0.0032 0.008,-0.0064 0.0032,-0.0032 0.01609,-0.01287 0.01287,-0.01287 0.01287,-0.01287 0.0032,-0.0032 0.0064,-0.0064 0.0032,-0.0032 0.008,-0.008 0.0032,-0.0032 0.0064,-0.0064 0.0032,-0.0032 0.008,-0.008 0.0048,-0.0032 0.01448,-0.01287 0.0032,-0.0032 0.0064,-0.0064 0.0032,-0.0032 0.008,-0.008 0.0032,-0.0032 0.0064,-0.0064 0.0032,-0.0048 0.008,-0.0097 0.0193,-0.02574 0.01287,-0.01609 0.01126,-0.01126 0.01448,-0.01769 0.01448,-0.0193 0.01287,-0.01769 0.0032,-0.0048 0.0064,-0.008 0.0032,-0.0048 0.008,-0.0097 0.0032,-0.0048 0.0048,-0.0097 0.0032,-0.0048 0.008,-0.0097 0.0016,-0.0048 0.0048,-0.0097 0.0048,-0.0064 0.008,-0.01126 0.0097,-0.01287 0.01287,-0.0193 0.0032,-0.0048 0.0048,-0.0097 0.0032,-0.0064 0.008,-0.01126 0.0032,-0.0048 0.0048,-0.0097 0.0032,-0.0064 0.008,-0.01126 0.0032,-0.008 0.0097,-0.02091 0.0032,-0.0048 0.0048,-0.01126 0.0032,-0.0064 0.008,-0.01287 0.0032,-0.0048 0.0048,-0.0097 0.0032,-0.0064 0.008,-0.01287 0.0016,-0.0048 0.0032,-0.01126 0.0032,-0.0064 0.0064,-0.01287 0.0048,-0.008 0.01126,-0.02413 0.01609,-0.04021 0.01126,-0.02574 0.0016,-0.0048 0.0032,-0.01126 0.0032,-0.008 0.0064,-0.01448 0.0016,-0.0064 0.0032,-0.01287 0.0032,-0.0064 0.0064,-0.01448 0.0048,-0.01448 0.008,-0.02574 0.0016,-0.0064 0.0032,-0.01287 0.0032,-0.0064 0.0064,-0.01448 -0.0064,0.01609 0.008,-0.02735 0.0032,-0.008 0.0097,-0.02735 0,-0.0064 0.0016,-0.01287 0.0032,-0.008 0.0048,-0.01609 0.0016,-0.0064 0.0032,-0.01287 0.0016,-0.008 0.0048,-0.01609 0,-0.0048 0.0016,-0.01126 0.0032,-0.008 0.0048,-0.01609 0.0016,-0.01126 0.0048,-0.03056 0,-0.0064 0.0016,-0.01287 0.0032,-0.008 0.0048,-0.01609 0,-0.0064 0.0016,-0.01287 0.0016,-0.008 0.0032,-0.01609 0.0016,-0.01126 0.0048,-0.03056 0,-0.0064 0.0016,-0.01448 0.0032,-0.008 0.0048,-0.01609 0,-0.01126 0.0032,-0.03056 0,-0.0064 0,-0.01287 0.0016,-0.008 0.0032,-0.01769 0.0032,-0.0193 0.0032,-0.03056 0.0016,-0.01126 0.0016,-0.03056 0.0016,-0.01126 0.0016,-0.03217 0.0016,-0.01126 0.0016,-0.03056 0,-0.008 0,-0.01448 0.0016,-0.008 0.0032,-0.0177 0,-0.0064 0,-0.01287 0.0016,-0.008 0.0016,-0.01769 0,-0.0064 0,-0.01448 0,-0.008 0,-0.01609 0,-0.008 0,-0.01448 0,-0.008 0,-0.01609 0,-0.008 -0.0016,-0.01448 0,-0.008 0,-0.01769 0,-0.0064 0,-0.01448 0,-0.008 0,-0.01609 0,-0.0097 -0.0032,-0.03217 0,-0.0193 -0.0016,-0.02895 0,-0.01126 -0.0032,-0.03378 0,-0.0193 -0.0016,-0.02895 0,-0.01126 -0.0032,-0.03056 -0.0016,-0.0064 -0.0032,-0.01448 0,-0.008 0,-0.01609 -0.0032,-0.0193 -0.0064,-0.03056 -0.0016,-0.0064 -0.0032,-0.01287 -0.0016,-0.008 -0.0016,-0.01609 -0.0016,-0.01126 -0.0048,-0.03056 -0.0016,-0.01126 -0.0048,-0.03056 -0.0064,-0.0193 -0.008,-0.02895 -0.0032,-0.0193 -0.0048,-0.02734 -0.0032,-0.0064 -0.0048,-0.01287 -0.0016,-0.008 -0.0032,-0.01609 -0.0016,-0.0064 -0.0048,-0.01287 -0.0032,-0.008 -0.0032,-0.01609 -0.01448,-0.04343 -0.008,-0.02735 -0.0032,-0.01126 -0.008,-0.02734 -0.0032,-0.0048 -0.0064,-0.01126 -0.0016,-0.008 -0.0032,-0.01448 -0.0016,-0.0048 -0.0097,-0.02735 -0.0064,-0.01608 -0.0097,-0.02574 -0.0032,-0.0048 -0.0064,-0.01126 -0.0016,-0.008 -0.0032,-0.01448 -0.0032,-0.0048 -0.0064,-0.01126 -0.0032,-0.0064 -0.0048,-0.01287 -0.0064,-0.01609 -0.01126,-0.02413 -0.0064,-0.01609 -0.0097,-0.02252 -0.0064,-0.01609 -0.01126,-0.02413 -0.0032,-0.0048 -0.0064,-0.0097 -0.0032,-0.0064 -0.0048,-0.01126 -0.0097,-0.01609 -0.01287,-0.02252 -0.01448,-0.02252 -0.01287,-0.02091 -0.0048,-0.0048 -0.008,-0.0097 -0.0016,-0.0064 -0.0048,-0.01126 -0.0032,-0.0064 -0.01287,-0.0193 -0.0032,-0.0048 -0.0064,-0.0097 -0.0032,-0.0048 -0.0048,-0.0097 -0.008,-0.01448 -0.02735,-0.037 -0.0032,-0.0032 -0.02574,-0.03539 -0.0193,-0.02252 -0.02895,-0.03217 -0.0097,-0.01126 -0.02895,-0.03056 -0.01287,-0.01448 -0.02735,-0.02734 -0.01126,-0.008 -0.03056,-0.02413 -0.01609,-0.01287 -0.03056,-0.02413 -0.037,-0.02413 -0.03056,-0.02091 -0.03217,-0.0193 -0.02895,-0.0177 0,0 -0.02896,-0.01448 -0.0064,-0.0032 -0.03056,-0.01126 -0.02091,-0.008 -0.03056,-0.01126 -0.008,-0.0016 -0.01448,-0.0032 -0.0064,-0.0032 -0.01287,-0.0064 -0.02895,-0.0048 -0.02895,-0.0048 -0.0097,-0.0016 -0.02895,-0.0016 -0.0048,0 -0.008,0 -0.0032,0 -0.0064,0 h -0.530824 v 2.387102 0 z"
         style="stroke-width:0.264583"
         id="path15405" />
      <path
         d="m 50.291472,97.289453 v -2.837499 q 0.02895,-0.21233 0.228416,-0.228416 h 1.557085 q 0.22359,0.01769 0.22359,0.228416 0,0.209112 -0.226807,0.223589 h -1.330278 v 0.879882 h 1.03752 q 0.221982,0.01609 0.225199,0.217156 0.0032,0.20107 -0.225199,0.23485 h -1.03752 v 1.282022 q -0.01609,0.221981 -0.218765,0.225198 -0.201069,0.0032 -0.233241,-0.225198 z"
         style="stroke-width:0.264583"
         id="path15407" />
    </g>
    <g
       aria-label="SQUELCH"
       id="text6366"
       style="font-size:3.29433px;line-height:1.25;font-family:'MS 33558';-inkscape-font-specification:'MS 33558, Normal';text-align:center;text-anchor:middle;stroke-width:0.264583">
      <path
         d="m 83.111033,113.15144 0.02574,0.0113 0.02895,0.0145 0.02574,0.0145 q 0.01126,0.008 0.02413,0.0161 0.01448,0.006 0.02734,0.0145 0.318495,0.20911 0.394097,0.57908 0.02895,0.14477 0.01287,0.29758 -0.02574,0.21877 -0.154422,0.40536 -0.127076,0.18498 -0.320103,0.28632 -0.207504,0.10938 -0.429486,0.10938 -0.373185,0 -0.712592,-0.0949 -0.339406,-0.0965 -0.484176,-0.51313 -0.0193,-0.0531 -0.02895,-0.10938 -0.0097,-0.0563 -0.02252,-0.1126 -0.02413,-0.11582 0.0563,-0.20429 0.08204,-0.0885 0.202678,-0.0676 0.127076,0.0257 0.176942,0.15764 l 0.0048,0.0145 q 0.07721,0.34905 0.26863,0.41661 0.193027,0.0676 0.53565,0.0611 0.315278,0 0.432703,-0.29598 0.05147,-0.1319 0.01609,-0.27345 -0.03539,-0.14316 -0.139944,-0.23807 -0.04665,-0.0402 -0.122251,-0.0756 l -0.744763,-0.32654 -0.02413,-0.0129 q -0.365143,-0.19302 -0.453614,-0.54852 -0.107774,-0.41179 0.149596,-0.73832 0.258978,-0.32815 0.678812,-0.32815 l 0.176942,0.005 q 0.08686,0.0161 0.16729,0.0322 0.08043,0.0145 0.162464,0.0515 0.202679,0.0949 0.310452,0.26059 0.107774,0.16568 0.194636,0.35871 0.008,0.0177 0.01448,0.0418 0.01769,0.0788 -0.01609,0.14316 -0.0193,0.0402 -0.04021,0.0611 -0.02091,0.0209 -0.03378,0.029 -0.08365,0.0595 -0.183376,0.0354 -0.09973,-0.0225 -0.152813,-0.12869 -0.04182,-0.0933 -0.09008,-0.18981 -0.04665,-0.0981 -0.131902,-0.16246 -0.03539,-0.0257 -0.06917,-0.037 -0.03217,-0.0129 -0.07239,-0.0273 l -0.104556,-0.0177 -0.147988,-0.005 q -0.215547,0.003 -0.329754,0.18659 -0.07721,0.11742 -0.05791,0.26219 0.02252,0.17855 0.16729,0.27668 0.0064,0.005 0.01448,0.0113 0.008,0.005 0.01769,0.01 l 0.01769,0.008 0.0193,0.008 z"
         style="stroke-width:0.264583"
         id="path15388" />
      <path
         d="m 86.307241,113.3316 q -0.01287,0.57425 -0.286323,1.05039 l 0.482567,0.49061 q 0.07721,0.0756 0.06434,0.18177 -0.01126,0.10616 -0.10134,0.16729 -0.15603,0.10294 -0.286323,-0.0306 l -0.461657,-0.46487 q -0.0064,0.005 -0.01287,0.01 -0.0048,0.003 -0.0097,0.006 -0.09169,0.0708 -0.194635,0.10938 -0.160856,0.0595 -0.320104,0.0515 -0.02574,0 -0.0563,-0.005 -0.352275,-0.0483 -0.579082,-0.27346 -0.226806,-0.22681 -0.349057,-0.54852 -0.110991,-0.2831 -0.136728,-0.64664 -0.02574,-0.36514 0.04987,-0.71259 0.07721,-0.34906 0.265412,-0.63538 0.18981,-0.28633 0.513131,-0.41662 0.318494,-0.12708 0.609644,0.0241 0.292758,0.1512 0.469699,0.41983 0.176942,0.27185 0.260587,0.58713 0.08365,0.31367 0.07882,0.63538 z m -1.039129,0.93618 q -0.0193,-0.0193 -0.02895,-0.0354 -0.08043,-0.12064 -0.0064,-0.24289 0.03861,-0.0627 0.09651,-0.0901 0.146379,-0.0676 0.262195,0.045 l 0.09651,0.0997 q 0.115816,-0.25576 0.138336,-0.53726 0.02252,-0.2831 -0.01769,-0.55817 -0.037,-0.23967 -0.160856,-0.51152 -0.123859,-0.27346 -0.382837,-0.35388 -0.193028,-0.0579 -0.352275,0.0853 -0.157639,0.14316 -0.233241,0.29598 -0.186593,0.36996 -0.175333,0.84288 0.01126,0.47131 0.221981,0.82841 0.09651,0.16729 0.262195,0.27024 0.16729,0.10294 0.365143,0.0113 0.01609,-0.01 0.03861,-0.0209 z"
         style="stroke-width:0.264583"
         id="path15390" />
      <path
         d="m 89.109352,113.81899 v 0.0322 q -0.0048,0.0804 -0.0064,0.0965 -0.06756,0.49222 -0.403749,0.72707 -0.336189,0.23324 -0.717417,0.21876 -0.381229,-0.0161 -0.698115,-0.27828 -0.315278,-0.2622 -0.342623,-0.76407 v -0.0322 -1.98335 q 0,-0.0483 0.01769,-0.0869 0.07721,-0.1689 0.255761,-0.13351 0.180158,0.0354 0.180158,0.22037 v 1.98335 q 0.02413,0.36997 0.324929,0.55335 0.30241,0.18337 0.635381,-0.0161 0.149596,-0.0885 0.218765,-0.22841 0.07078,-0.13995 0.08365,-0.30885 v -1.98335 q 0,-0.029 0.0032,-0.0434 0.037,-0.19786 0.242892,-0.17855 0.205896,0.0193 0.205896,0.22198 z"
         style="stroke-width:0.264583"
         id="path15392" />
      <path
         d="m 91.287341,112.05923 h -1.333495 v 0.87988 h 1.016609 q 0.228416,0.0338 0.226807,0.23002 0,0.19464 -0.226807,0.22681 h -1.016609 v 1.05682 h 1.333495 q 0.226807,0.0338 0.226807,0.22681 0,0.19303 -0.226807,0.2252 h -1.557085 q -0.20107,-0.0257 -0.228416,-0.22842 v -2.84071 q 0.03056,-0.21233 0.228416,-0.2252 h 1.557085 q 0.226807,0.0177 0.225199,0.22681 0,0.2075 -0.225199,0.22198 z"
         style="stroke-width:0.264583"
         id="path15394" />
      <path
         d="m 92.189744,114.90638 q -0.197853,-0.0129 -0.228416,-0.22359 v -2.84393 q 0.03378,-0.23164 0.23485,-0.22681 0.20107,0.003 0.218764,0.22681 v 2.61873 l 1.484701,-0.002 q 0.228415,0.0257 0.225198,0.23163 -0.0016,0.20429 -0.226807,0.21877 z"
         style="stroke-width:0.264583"
         id="path15396" />
      <path
         d="m 96.655105,114.39003 -0.01448,0.0209 q -0.0048,0.006 -0.008,0.0113 -0.0032,0.005 -0.0064,0.01 -0.220373,0.29759 -0.579081,0.42466 -0.357101,0.12547 -0.70455,-0.0466 -0.403748,-0.20107 -0.593558,-0.68202 -0.188201,-0.48096 -0.162465,-0.99892 0.02735,-0.51956 0.273456,-0.95388 0.247718,-0.43431 0.717417,-0.54369 0.270238,-0.0627 0.538868,0.0531 0.268629,0.11421 0.440745,0.32172 0.0016,0 0.008,0.0113 0.07399,0.0965 0.03056,0.21233 -0.04343,0.1142 -0.159247,0.14316 -0.123859,0.0322 -0.228416,-0.074 -0.215547,-0.25093 -0.415008,-0.24128 -0.199461,0.01 -0.3571,0.16407 -0.157639,0.15442 -0.262195,0.39571 -0.104557,0.24128 -0.128685,0.452 -0.02895,0.23485 0.0048,0.47292 0.03539,0.23646 0.146379,0.44557 0.193027,0.36675 0.485785,0.46005 0.294366,0.0917 0.574255,-0.2815 0.01287,-0.0161 0.03056,-0.0418 0.151204,-0.16729 0.318495,-0.0338 0.168898,0.1319 0.04987,0.29919 z"
         style="stroke-width:0.264583"
         id="path15398" />
      <path
         d="m 97.103893,114.68279 v -2.84393 q 0.03378,-0.23164 0.23485,-0.22681 0.20107,0.003 0.218764,0.22681 v 1.06325 h 1.29489 v -1.06325 q 0.03378,-0.22681 0.226807,-0.22681 0.194636,-0.002 0.230024,0.22681 v 2.84393 q -0.03539,0.22681 -0.230024,0.2252 -0.193027,0 -0.226807,-0.2252 v -1.32385 h -1.29489 v 1.32385 q -0.01769,0.22198 -0.218764,0.2252 -0.20107,0.003 -0.23485,-0.2252 z"
         style="stroke-width:0.264583"
         id="path15400" />
    </g>
    <path
       style="fill:none;stroke:#000000;stroke-width:1.27;stroke-linecap:butt;stroke-linejoin:miter;stroke-opacity:1;stroke-miterlimit:4;stroke-dasharray:none"
       d="m 53.738454,59.517582 c 6.013227,0 6.013227,0 6.013227,0"
       id="path6370" />
    <path
       style="fill:none;stroke:#000000;stroke-width:1.27;stroke-linecap:butt;stroke-linejoin:miter;stroke-opacity:1;stroke-miterlimit:4;stroke-dasharray:none"
       d="m 61.165124,59.517582 c 6.013227,0 6.013227,0 6.013227,0"
       id="path6370-7" />
    <path
       style="fill:none;stroke:#000000;stroke-width:1.27;stroke-linecap:butt;stroke-linejoin:miter;stroke-opacity:1;stroke-miterlimit:4;stroke-dasharray:none"
       d="m 68.591791,59.517582 c 6.013227,0 6.013227,0 6.013227,0"
       id="path6370-7-4" />
    <path
       style="fill:none;stroke:#000000;stroke-width:1.27;stroke-linecap:butt;stroke-linejoin:miter;stroke-opacity:1;stroke-miterlimit:4;stroke-dasharray:none"
       d="m 76.018461,59.517582 c 6.013227,0 6.013227,0 6.013227,0"
       id="path6370-7-4-4" />
    <path
       style="fill:none;stroke:#000000;stroke-width:1.27;stroke-linecap:butt;stroke-linejoin:miter;stroke-miterlimit:4;stroke-dasharray:none;stroke-opacity:1"
       d="m 83.445138,59.517582 c 13.563591,0 13.563591,0 13.563591,0"
       id="path6370-7-4-4-6" />
    <path
       style="fill:none;stroke:#000000;stroke-width:0.665;stroke-linecap:butt;stroke-linejoin:miter;stroke-opacity:1;stroke-miterlimit:4;stroke-dasharray:none"
       d="M 56.790923,59.720238 C 28.159225,72.004464 28.159225,72.004464 28.159225,72.004464"
       id="path6672" />
    <path
       style="fill:none;stroke:#000000;stroke-width:0.665;stroke-linecap:butt;stroke-linejoin:miter;stroke-opacity:1;stroke-miterlimit:4;stroke-dasharray:none"
       d="M 64.255951,59.720238 C 52.349701,71.154017 52.349701,71.154017 52.349701,71.154017"
       id="path6674" />
    <path
       style="fill:none;stroke:#000000;stroke-width:0.665;stroke-linecap:butt;stroke-linejoin:miter;stroke-opacity:1;stroke-miterlimit:4;stroke-dasharray:none"
       d="m 71.815475,59.625743 c 3.496281,10.961309 3.496281,10.961309 3.496281,10.961309"
       id="path6676" />
    <path
       style="fill:none;stroke:#000000;stroke-width:0.665;stroke-linecap:butt;stroke-linejoin:miter;stroke-opacity:1;stroke-miterlimit:4;stroke-dasharray:none"
       d="M 79.374999,59.625743 C 98.273808,71.24851 98.273808,71.24851 98.273808,71.24851"
       id="path6678" />
    <path
       style="fill:none;stroke:#000000;stroke-width:0.665;stroke-linecap:butt;stroke-linejoin:miter;stroke-opacity:1;stroke-miterlimit:4;stroke-dasharray:none"
       d="M 90.619791,59.720238 C 122.84226,71.531992 122.84226,71.531992 122.84226,71.531992"
       id="path6680" />
    <g
       aria-label="U H F"
       id="text6684"
       style="font-style:normal;font-variant:normal;font-weight:normal;font-stretch:normal;font-size:4.93889px;line-height:1.25;font-family:'MS 33558';-inkscape-font-specification:'MS 33558, Normal';font-variant-ligatures:normal;font-variant-caps:normal;font-variant-numeric:normal;font-variant-east-asian:normal;text-align:center;text-anchor:middle;stroke-width:0.264583">
      <path
         d="m 145.12219,66.125023 v 0.04823 q -0.007,0.120578 -0.01,0.144694 -0.10129,0.73794 -0.6053,1.090028 -0.50402,0.349678 -1.07556,0.327974 -0.57154,-0.02412 -1.04662,-0.417202 -0.47267,-0.393085 -0.51367,-1.145494 v -0.04823 -2.973463 q 0,-0.07235 0.0265,-0.130225 0.11576,-0.253214 0.38344,-0.20016 0.27009,0.05306 0.27009,0.330385 v 2.973463 q 0.0362,0.55466 0.48714,0.829579 0.45338,0.274918 0.95257,-0.02412 0.22428,-0.132636 0.32797,-0.342443 0.10611,-0.209806 0.12541,-0.46302 V 63.15156 q 0,-0.04341 0.005,-0.06511 0.0555,-0.296623 0.36414,-0.267684 0.30869,0.02894 0.30869,0.332796 z"
         style="font-style:normal;font-variant:normal;font-weight:normal;font-stretch:normal;font-size:4.93889px;font-family:'MS 33558';-inkscape-font-specification:'MS 33558, Normal';font-variant-ligatures:normal;font-variant-caps:normal;font-variant-numeric:normal;font-variant-east-asian:normal;stroke-width:0.264583"
         id="path15381" />
      <path
         d="m 141.8099,73.593647 v -4.263651 q 0.0506,-0.347266 0.35209,-0.340031 0.30144,0.0048 0.32797,0.340031 v 1.594046 h 1.94131 v -1.594046 q 0.0506,-0.340031 0.34003,-0.340031 0.2918,-0.0024 0.34486,0.340031 v 4.263651 q -0.0531,0.340031 -0.34486,0.337619 -0.28939,0 -0.34003,-0.337619 v -1.98472 h -1.94131 v 1.98472 q -0.0265,0.332796 -0.32797,0.337619 -0.30145,0.0048 -0.35209,-0.337619 z"
         style="font-style:normal;font-variant:normal;font-weight:normal;font-stretch:normal;font-size:4.93889px;font-family:'MS 33558';-inkscape-font-specification:'MS 33558, Normal';font-variant-ligatures:normal;font-variant-caps:normal;font-variant-numeric:normal;font-variant-east-asian:normal;stroke-width:0.264583"
         id="path15383" />
      <path
         d="m 141.94736,79.757613 v -4.254005 q 0.0434,-0.318327 0.34244,-0.342443 h 2.3344 q 0.3352,0.02653 0.3352,0.342443 0,0.313504 -0.34003,0.335208 h -1.99436 v 1.319127 h 1.55546 q 0.33279,0.02412 0.33762,0.325562 0.005,0.301446 -0.33762,0.352089 h -1.55546 v 1.922019 q -0.0241,0.332796 -0.32798,0.337619 -0.30144,0.0048 -0.34967,-0.337619 z"
         style="font-style:normal;font-variant:normal;font-weight:normal;font-stretch:normal;font-size:4.93889px;font-family:'MS 33558';-inkscape-font-specification:'MS 33558, Normal';font-variant-ligatures:normal;font-variant-caps:normal;font-variant-numeric:normal;font-variant-east-asian:normal;stroke-width:0.264583"
         id="path15385" />
    </g>
  </g>
</svg>
