999
dxfrw 0.6.3
  0
SECTION
  2
HEADER
  9
$ACADVER
  1
AC1021
  9
$DWGCODEPAGE
  3
ANSI_1252
  9
$INSBASE
 10
0
 20
0
 30
0
  9
$EXTMIN
 10
-24.50000000000001
 20
-355.42
 30
0
  9
$EXTMAX
 10
1507
 20
468.8133504068882
 30
0
  9
$LIMMIN
 10
0
 20
0
  9
$LIMMAX
 10
420
 20
297
  9
$ORTHOMODE
 70
    0
  9
$REGENMODE
 70
    1
  9
$FILLMODE
 70
    1
  9
$QTEXTMODE
 70
    0
  9
$MIRRTEXT
 70
    0
  9
$LTSCALE
 40
1
  9
$ATTMODE
 70
    0
  9
$TEXTSIZE
 40
2.5
  9
$TRACEWID
 40
15.68
  9
$TEXTSTYLE
  7
STANDARD
  9
$CLAYER
  8
measure
  9
$CELTYPE
  6
BYLAYER
  9
$CECOLOR
 62
  256
  9
$CELTSCALE
 40
1
  9
$DISPSILH
 70
    0
  9
$DIMSCALE
 40
1
  9
$DIMASZ
 40
2.5
  9
$DIMEXO
 40
5
  9
$DIMDLI
 40
3.75
  9
$DIMRND
 40
0
  9
$DIMDLE
 40
0
  9
$DIMEXE
 40
1.25
  9
$DIMTP
 40
0
  9
$DIMTM
 40
0
  9
$DIMTXT
 40
2.5
  9
$DIMCEN
 40
2.5
  9
$DIMTSZ
 40
0
  9
$DIMTOL
 70
    0
  9
$DIMLIM
 70
    0
  9
$DIMTIH
 70
    0
  9
$DIMTOH
 70
    0
  9
$DIMSE1
 70
    0
  9
$DIMSE2
 70
    0
  9
$DIMTAD
 70
    1
  9
$DIMZIN
 70
    1
  9
$DIMBLK
  1

  9
$DIMASO
 70
    1
  9
$DIMSHO
 70
    1
  9
$DIMPOST
  1

  9
$DIMAPOST
  1

  9
$DIMALT
 70
    0
  9
$DIMALTD
 70
    3
  9
$DIMALTF
 40
0.03937
  9
$DIMLFAC
 40
1
  9
$DIMTOFL
 70
    1
  9
$DIMTVP
 40
0
  9
$DIMTIX
 70
    0
  9
$DIMSOXD
 70
    0
  9
$DIMSAH
 70
    0
  9
$DIMBLK1
  1

  9
$DIMBLK2
  1

  9
$DIMSTYLE
  2
STANDARD
  9
$DIMCLRD
 70
    0
  9
$DIMCLRE
 70
    0
  9
$DIMCLRT
 70
    0
  9
$DIMTFAC
 40
1
  9
$DIMGAP
 40
0.625
  9
$DIMJUST
 70
    0
  9
$DIMSD1
 70
    0
  9
$DIMSD2
 70
    0
  9
$DIMTOLJ
 70
    0
  9
$DIMTZIN
 70
    8
  9
$DIMALTZ
 70
    0
  9
$DIMALTTZ
 70
    0
  9
$DIMUPT
 70
    0
  9
$DIMDEC
 70
    1
  9
$DIMTDEC
 70
    2
  9
$DIMALTU
 70
    2
  9
$DIMALTTD
 70
    3
  9
$DIMTXSTY
  7
STANDARD
  9
$DIMAUNIT
 70
    0
  9
$DIMADEC
 70
    2
  9
$DIMALTRND
 40
0
  9
$DIMAZIN
 70
    0
  9
$DIMDSEP
 70
    0
  9
$DIMATFIT
 70
    3
  9
$DIMFRAC
 70
    0
  9
$DIMLDRBLK
  1
STANDARD
  9
$DIMLUNIT
 70
    2
  9
$DIMLWD
 70
   -2
  9
$DIMLWE
 70
   -2
  9
$DIMTMOVE
 70
    0
  9
$DIMFXL
 40
1
  9
$DIMFXLON
 70
    0
  9
$DIMJOGANG
 40
0.7854
  9
$DIMTFILL
 70
    0
  9
$DIMTFILLCLR
 70
    0
  9
$DIMARCSYM
 70
    0
  9
$DIMLTYPE
  6

  9
$DIMLTEX1
  6

  9
$DIMLTEX2
  6

  9
$LUNITS
 70
    2
  9
$LUPREC
 70
    4
  9
$SKETCHINC
 40
1
  9
$FILLETRAD
 40
0
  9
$AUNITS
 70
    0
  9
$AUPREC
 70
    2
  9
$MENU
  1
.
  9
$ELEVATION
 40
0
  9
$PELEVATION
 40
0
  9
$THICKNESS
 40
0
  9
$LIMCHECK
 70
    0
  9
$CHAMFERA
 40
0
  9
$CHAMFERB
 40
0
  9
$CHAMFERC
 40
0
  9
$CHAMFERD
 40
0
  9
$SKPOLY
 70
    0
  9
$USRTIMER
 70
    1
  9
$ANGBASE
 50
0
  9
$ANGDIR
 70
    0
  9
$PDMODE
 70
   34
  9
$PDSIZE
 40
0
  9
$PLINEWID
 40
0
  9
$SPLFRAME
 70
    0
  9
$SPLINETYPE
 70
    2
  9
$SPLINESEGS
 70
    8
  9
$HANDSEED
  5
20000
  9
$SURFTAB1
 70
    6
  9
$SURFTAB2
 70
    6
  9
$SURFTYPE
 70
    6
  9
$SURFU
 70
    6
  9
$SURFV
 70
    6
  9
$UCSBASE
  2

  9
$UCSNAME
  2

  9
$UCSORG
 10
0
 20
0
 30
0
  9
$UCSXDIR
 10
1
 20
0
 30
0
  9
$UCSYDIR
 10
0
 20
1
 30
0
  9
$UCSORTHOREF
  2

  9
$UCSORTHOVIEW
 70
    0
  9
$UCSORGTOP
 10
0
 20
0
 30
0
  9
$UCSORGBOTTOM
 10
0
 20
0
 30
0
  9
$UCSORGLEFT
 10
0
 20
0
 30
0
  9
$UCSORGRIGHT
 10
0
 20
0
 30
0
  9
$UCSORGFRONT
 10
0
 20
0
 30
0
  9
$UCSORGBACK
 10
0
 20
0
 30
0
  9
$PUCSBASE
  2

  9
$PUCSNAME
  2

  9
$PUCSORG
 10
0
 20
0
 30
0
  9
$PUCSXDIR
 10
1
 20
0
 30
0
  9
$PUCSYDIR
 10
0
 20
1
 30
0
  9
$PUCSORTHOREF
  2

  9
$PUCSORTHOVIEW
 70
    0
  9
$PUCSORGTOP
 10
0
 20
0
 30
0
  9
$PUCSORGBOTTOM
 10
0
 20
0
 30
0
  9
$PUCSORGLEFT
 10
0
 20
0
 30
0
  9
$PUCSORGRIGHT
 10
0
 20
0
 30
0
  9
$PUCSORGFRONT
 10
0
 20
0
 30
0
  9
$PUCSORGBACK
 10
0
 20
0
 30
0
  9
$USERI1
 70
    0
  9
$USERI2
 70
    0
  9
$USERI3
 70
    0
  9
$USERI4
 70
    0
  9
$USERI5
 70
    0
  9
$USERR1
 40
0
  9
$USERR2
 40
0
  9
$USERR3
 40
0
  9
$USERR4
 40
0
  9
$USERR5
 40
0
  9
$WORLDVIEW
 70
    1
  9
$SHADEDGE
 70
    3
  9
$SHADEDIF
 70
   70
  9
$TILEMODE
 70
    1
  9
$MAXACTVP
 70
   64
  9
$PINSBASE
 10
0
 20
0
 30
0
  9
$PLIMCHECK
 70
    0
  9
$PEXTMIN
 10
0
 20
0
 30
0
  9
$PEXTMAX
 10
0
 20
0
 30
0
  9
$GRIDMODE
 70
    1
  9
$SNAPSTYLE
 70
    0
  9
$GRIDUNIT
 10
0
 20
0
  9
$PLIMMIN
 10
0
 20
0
  9
$PLIMMAX
 10
297
 20
210
  9
$UNITMODE
 70
    0
  9
$VISRETAIN
 70
    1
  9
$PLINEGEN
 70
    0
  9
$PSLTSCALE
 70
    1
  9
$TREEDEPTH
 70
 3020
  9
$CMLSTYLE
  2
Standard
  9
$CMLJUST
 70
    0
  9
$CMLSCALE
 40
20
  9
$PROXYGRAPHICS
 70
    1
  9
$MEASUREMENT
 70
    1
  9
$CELWEIGHT
370
   -1
  9
$ENDCAPS
280
    0
  9
$JOINSTYLE
280
    0
  9
$LWDISPLAY
290
    0
  9
$INSUNITS
 70
    4
  9
$HYPERLINKBASE
  1

  9
$STYLESHEET
  1

  9
$XEDIT
290
    1
  9
$CEPSNTYPE
380
    0
  9
$PSTYLEMODE
290
    1
  9
$EXTNAMES
290
    1
  9
$PSVPSCALE
 40
0
  9
$OLESTARTUP
290
    0
  9
$SORTENTS
280
  127
  9
$INDEXCTL
280
    0
  9
$HIDETEXT
280
    1
  9
$XCLIPFRAME
290
    0
  9
$HALOGAP
280
    0
  9
$OBSCOLOR
 70
  257
  9
$OBSLTYPE
280
    0
  9
$INTERSECTIONDISPLAY
280
    0
  9
$INTERSECTIONCOLOR
 70
  257
  9
$DIMASSOC
280
    1
  9
$PROJECTNAME
  1

  9
$CAMERADISPLAY
290
    0
  9
$LENSLENGTH
 40
50
  9
$CAMERAHEIGHT
 40
0
  9
$STEPSPERSEC
 40
2
  9
$STEPSIZE
 40
50
  9
$3DDWFPREC
 40
2
  9
$PSOLWIDTH
 40
5
  9
$PSOLHEIGHT
 40
80
  9
$LOFTANG1
 40
1.570796326794897
  9
$LOFTANG2
 40
1.570796326794897
  9
$LOFTMAG1
 40
0
  9
$LOFTMAG2
 40
0
  9
$LOFTPARAM
 70
    7
  9
$LOFTNORMALS
280
    1
  9
$LATITUDE
 40
1
  9
$LONGITUDE
 40
1
  9
$NORTHDIRECTION
 40
0
  9
$TIMEZONE
 70
-8000
  9
$LIGHTGLYPHDISPLAY
280
    1
  9
$TILEMODELIGHTSYNCH
280
    1
  9
$SOLIDHIST
280
    1
  9
$SHOWHIST
280
    1
  9
$DWFFRAME
280
    2
  9
$DGNFRAME
280
    0
  9
$REALWORLDSCALE
290
    1
  9
$INTERFERECOLOR
 62
    1
  9
$CSHADOW
280
    0
  9
$SHADOWPLANELOCATION
 40
0
  0
ENDSEC
  0
SECTION
  2
CLASSES
  0
ENDSEC
  0
SECTION
  2
TABLES
  0
TABLE
  2
VPORT
  5
8
330
0
100
AcDbSymbolTable
 70
    1
  0
VPORT
  5
31
330
2
100
AcDbSymbolTableRecord
100
AcDbViewportTableRecord
  2
*ACTIVE
 70
    0
 10
0
 20
0
 11
1
 21
1
 12
758.7293713163065
 22
496.9602161100196
 13
0
 23
0
 14
10
 24
10
 15
10
 25
10
 16
0
 26
0
 36
1
 17
0
 27
0
 37
0
 40
1872.501964636542
 41
0.8286020353508302
 42
50
 43
0
 44
0
 50
0
 51
0
 71
    0
 72
  100
 73
    1
 74
    3
 75
    0
 76
    1
 77
    0
 78
    0
281
    0
 65
    1
110
0
120
0
130
0
111
1
121
0
131
0
112
0
122
1
132
0
 79
    0
146
0
348
10020
 60
    7
 61
    5
292
1
282
    1
141
0
142
0
 63
  250
421
3358443
  0
ENDTAB
  0
TABLE
  2
LTYPE
  5
5
330
0
100
AcDbSymbolTable
 70
    4
  0
LTYPE
  5
14
330
5
100
AcDbSymbolTableRecord
100
AcDbLinetypeTableRecord
  2
ByBlock
 70
    0
  3

 72
   65
 73
    0
 40
0
  0
LTYPE
  5
15
330
5
100
AcDbSymbolTableRecord
100
AcDbLinetypeTableRecord
  2
ByLayer
 70
    0
  3

 72
   65
 73
    0
 40
0
  0
LTYPE
  5
16
330
5
100
AcDbSymbolTableRecord
100
AcDbLinetypeTableRecord
  2
Continuous
 70
    0
  3
Solid line
 72
   65
 73
    0
 40
0
  0
LTYPE
  5
32
330
5
100
AcDbSymbolTableRecord
100
AcDbLinetypeTableRecord
  2
DOT
 70
    0
  3
Dot . . . . . . . . . . . . . . . . . . . . . .
 72
   65
 73
    2
 40
6.35
 49
0
 74
    0
 49
-6.35
 74
    0
  0
LTYPE
  5
33
330
5
100
AcDbSymbolTableRecord
100
AcDbLinetypeTableRecord
  2
DOTTINY
 70
    0
  3
Dot (.15x) .....................................
 72
   65
 73
    2
 40
0.9525
 49
0
 74
    0
 49
-0.9525
 74
    0
  0
LTYPE
  5
34
330
5
100
AcDbSymbolTableRecord
100
AcDbLinetypeTableRecord
  2
DOT2
 70
    0
  3
Dot (.5x) .....................................
 72
   65
 73
    2
 40
3.175
 49
0
 74
    0
 49
-3.175
 74
    0
  0
LTYPE
  5
35
330
5
100
AcDbSymbolTableRecord
100
AcDbLinetypeTableRecord
  2
DOTX2
 70
    0
  3
Dot (2x) .  .  .  .  .  .  .  .  .  .  .  .  .
 72
   65
 73
    2
 40
12.7
 49
0
 74
    0
 49
-12.7
 74
    0
  0
LTYPE
  5
36
330
5
100
AcDbSymbolTableRecord
100
AcDbLinetypeTableRecord
  2
DASHED
 70
    0
  3
Dashed _ _ _ _ _ _ _ _ _ _ _ _ _ _ _ _ _
 72
   65
 73
    2
 40
19.05
 49
12.7
 74
    0
 49
-6.35
 74
    0
  0
LTYPE
  5
37
330
5
100
AcDbSymbolTableRecord
100
AcDbLinetypeTableRecord
  2
DASHEDTINY
 70
    0
  3
Dashed (.15x) _ _ _ _ _ _ _ _ _ _ _ _ _ _ _ _ _
 72
   65
 73
    2
 40
2.8575
 49
1.905
 74
    0
 49
-0.9525
 74
    0
  0
LTYPE
  5
38
330
5
100
AcDbSymbolTableRecord
100
AcDbLinetypeTableRecord
  2
DASHED2
 70
    0
  3
Dashed (.5x) _ _ _ _ _ _ _ _ _ _ _ _ _ _ _ _ _
 72
   65
 73
    2
 40
9.524999999999999
 49
6.35
 74
    0
 49
-3.175
 74
    0
  0
LTYPE
  5
39
330
5
100
AcDbSymbolTableRecord
100
AcDbLinetypeTableRecord
  2
DASHEDX2
 70
    0
  3
Dashed (2x) ____  ____  ____  ____  ____  ___
 72
   65
 73
    2
 40
38.09999999999999
 49
25.4
 74
    0
 49
-12.7
 74
    0
  0
LTYPE
  5
3A
330
5
100
AcDbSymbolTableRecord
100
AcDbLinetypeTableRecord
  2
DASHDOT
 70
    0
  3
Dash dot __ . __ . __ . __ . __ . __ . __ . __
 72
   65
 73
    4
 40
25.4
 49
12.7
 74
    0
 49
-6.35
 74
    0
 49
0
 74
    0
 49
-6.35
 74
    0
  0
LTYPE
  5
3B
330
5
100
AcDbSymbolTableRecord
100
AcDbLinetypeTableRecord
  2
DASHDOTTINY
 70
    0
  3
Dash dot (.15x) _._._._._._._._._._._._._._._.
 72
   65
 73
    4
 40
3.81
 49
1.905
 74
    0
 49
-0.9525
 74
    0
 49
0
 74
    0
 49
-0.9525
 74
    0
  0
LTYPE
  5
3C
330
5
100
AcDbSymbolTableRecord
100
AcDbLinetypeTableRecord
  2
DASHDOT2
 70
    0
  3
Dash dot (.5x) _._._._._._._._._._._._._._._.
 72
   65
 73
    4
 40
12.7
 49
6.35
 74
    0
 49
-3.175
 74
    0
 49
0
 74
    0
 49
-3.175
 74
    0
  0
LTYPE
  5
3D
330
5
100
AcDbSymbolTableRecord
100
AcDbLinetypeTableRecord
  2
DASHDOTX2
 70
    0
  3
Dash dot (2x) ____  .  ____  .  ____  .  ___
 72
   65
 73
    4
 40
50.8
 49
25.4
 74
    0
 49
-12.7
 74
    0
 49
0
 74
    0
 49
-12.7
 74
    0
  0
LTYPE
  5
3E
330
5
100
AcDbSymbolTableRecord
100
AcDbLinetypeTableRecord
  2
DIVIDE
 70
    0
  3
Divide ____ . . ____ . . ____ . . ____ . . ____
 72
   65
 73
    6
 40
31.75
 49
12.7
 74
    0
 49
-6.35
 74
    0
 49
0
 74
    0
 49
-6.35
 74
    0
 49
0
 74
    0
 49
-6.35
 74
    0
  0
LTYPE
  5
3F
330
5
100
AcDbSymbolTableRecord
100
AcDbLinetypeTableRecord
  2
DIVIDETINY
 70
    0
  3
Divide (.15x) __..__..__..__..__..__..__..__.._
 72
   65
 73
    6
 40
4.7625
 49
1.905
 74
    0
 49
-0.9525
 74
    0
 49
0
 74
    0
 49
-0.9525
 74
    0
 49
0
 74
    0
 49
-0.9525
 74
    0
  0
LTYPE
  5
40
330
5
100
AcDbSymbolTableRecord
100
AcDbLinetypeTableRecord
  2
DIVIDE2
 70
    0
  3
Divide (.5x) __..__..__..__..__..__..__..__.._
 72
   65
 73
    6
 40
15.875
 49
6.35
 74
    0
 49
-3.175
 74
    0
 49
0
 74
    0
 49
-3.175
 74
    0
 49
0
 74
    0
 49
-3.175
 74
    0
  0
LTYPE
  5
41
330
5
100
AcDbSymbolTableRecord
100
AcDbLinetypeTableRecord
  2
DIVIDEX2
 70
    0
  3
Divide (2x) ________  .  .  ________  .  .  _
 72
   65
 73
    6
 40
63.5
 49
25.4
 74
    0
 49
-12.7
 74
    0
 49
0
 74
    0
 49
-12.7
 74
    0
 49
0
 74
    0
 49
-12.7
 74
    0
  0
LTYPE
  5
42
330
5
100
AcDbSymbolTableRecord
100
AcDbLinetypeTableRecord
  2
BORDER
 70
    0
  3
Border __ __ . __ __ . __ __ . __ __ . __ __ .
 72
   65
 73
    6
 40
44.45
 49
12.7
 74
    0
 49
-6.35
 74
    0
 49
12.7
 74
    0
 49
-6.35
 74
    0
 49
0
 74
    0
 49
-6.35
 74
    0
  0
LTYPE
  5
43
330
5
100
AcDbSymbolTableRecord
100
AcDbLinetypeTableRecord
  2
BORDERTINY
 70
    0
  3
Border (.15x) __.__.__.__.__.__.__.__.__.__.__.
 72
   65
 73
    6
 40
6.6675
 49
1.905
 74
    0
 49
-0.9525
 74
    0
 49
1.905
 74
    0
 49
-0.9525
 74
    0
 49
0
 74
    0
 49
-0.9525
 74
    0
  0
LTYPE
  5
44
330
5
100
AcDbSymbolTableRecord
100
AcDbLinetypeTableRecord
  2
BORDER2
 70
    0
  3
Border (.5x) __.__.__.__.__.__.__.__.__.__.__.
 72
   65
 73
    6
 40
22.225
 49
6.35
 74
    0
 49
-3.175
 74
    0
 49
6.35
 74
    0
 49
-3.175
 74
    0
 49
0
 74
    0
 49
-3.175
 74
    0
  0
LTYPE
  5
45
330
5
100
AcDbSymbolTableRecord
100
AcDbLinetypeTableRecord
  2
BORDERX2
 70
    0
  3
Border (2x) ____  ____  .  ____  ____  .  ___
 72
   65
 73
    6
 40
88.89999999999999
 49
25.4
 74
    0
 49
-12.7
 74
    0
 49
25.4
 74
    0
 49
-12.7
 74
    0
 49
0
 74
    0
 49
-12.7
 74
    0
  0
LTYPE
  5
46
330
5
100
AcDbSymbolTableRecord
100
AcDbLinetypeTableRecord
  2
CENTER
 70
    0
  3
Center ____ _ ____ _ ____ _ ____ _ ____ _ ____
 72
   65
 73
    4
 40
50.8
 49
31.75
 74
    0
 49
-6.35
 74
    0
 49
6.35
 74
    0
 49
-6.35
 74
    0
  0
LTYPE
  5
47
330
5
100
AcDbSymbolTableRecord
100
AcDbLinetypeTableRecord
  2
CENTERTINY
 70
    0
  3
Center (.15x) ___ _ ___ _ ___ _ ___ _ ___ _ ___
 72
   65
 73
    4
 40
7.62
 49
4.7625
 74
    0
 49
-0.9525
 74
    0
 49
0.9525
 74
    0
 49
-0.9525
 74
    0
  0
LTYPE
  5
48
330
5
100
AcDbSymbolTableRecord
100
AcDbLinetypeTableRecord
  2
CENTER2
 70
    0
  3
Center (.5x) ___ _ ___ _ ___ _ ___ _ ___ _ ___
 72
   65
 73
    4
 40
28.575
 49
19.05
 74
    0
 49
-3.175
 74
    0
 49
3.175
 74
    0
 49
-3.175
 74
    0
  0
LTYPE
  5
49
330
5
100
AcDbSymbolTableRecord
100
AcDbLinetypeTableRecord
  2
CENTERX2
 70
    0
  3
Center (2x) ________  __  ________  __  _____
 72
   65
 73
    4
 40
101.6
 49
63.5
 74
    0
 49
-12.7
 74
    0
 49
12.7
 74
    0
 49
-12.7
 74
    0
  0
ENDTAB
  0
TABLE
  2
LAYER
  5
2
330
0
100
AcDbSymbolTable
 70
    1
  0
LAYER
  5
10
330
2
100
AcDbSymbolTableRecord
100
AcDbLayerTableRecord
  2
0
 70
    0
 62
    7
  6
CONTINUOUS
370
    0
390
F
  0
LAYER
  5
4A
330
2
100
AcDbSymbolTableRecord
100
AcDbLayerTableRecord
  2
Frame
 70
    0
 62
    7
  6
CONTINUOUS
370
    0
390
F
  0
LAYER
  5
4B
330
2
100
AcDbSymbolTableRecord
100
AcDbLayerTableRecord
  2
Text
 70
    0
 62
    5
  6
CONTINUOUS
370
    0
390
F
  0
LAYER
  5
4C
330
2
100
AcDbSymbolTableRecord
100
AcDbLayerTableRecord
  2
measure
 70
    0
 62
    3
  6
DASHEDTINY
370
    0
390
F
  0
LAYER
  5
4D
330
2
100
AcDbSymbolTableRecord
100
AcDbLayerTableRecord
  2
panels
 70
    0
 62
   56
420
8421376
  6
CONTINUOUS
370
    0
390
F
  0
ENDTAB
  0
TABLE
  2
STYLE
  5
3
330
0
100
AcDbSymbolTable
 70
    3
  0
STYLE
  5
4E
330
2
100
AcDbSymbolTableRecord
100
AcDbTextStyleTableRecord
  2
wqy-unicode
 70
    0
 40
0
 41
1
 50
0
 71
    0
 42
1
  3
wqy-unicode
  4

  0
STYLE
  5
4F
330
2
100
AcDbSymbolTableRecord
100
AcDbTextStyleTableRecord
  2
Standard
 70
    0
 40
0
 41
1
 50
0
 71
    0
 42
1
  3
txt
  4

  0
ENDTAB
  0
TABLE
  2
VIEW
  5
6
330
0
100
AcDbSymbolTable
 70
    0
  0
ENDTAB
  0
TABLE
  2
UCS
  5
7
330
0
100
AcDbSymbolTable
 70
    0
  0
ENDTAB
  0
TABLE
  2
APPID
  5
9
330
0
100
AcDbSymbolTable
 70
    1
  0
APPID
  5
12
330
9
100
AcDbSymbolTableRecord
100
AcDbRegAppTableRecord
  2
ACAD
 70
    0
  0
APPID
  5
50
330
9
100
AcDbSymbolTableRecord
100
AcDbRegAppTableRecord
  2
LibreCad
 70
    0
  0
ENDTAB
  0
TABLE
  2
DIMSTYLE
  5
A
330
0
100
AcDbSymbolTable
 70
    1
100
AcDbDimStyleTable
 71
    1
  0
DIMSTYLE
105
51
330
A
100
AcDbSymbolTableRecord
100
AcDbDimStyleTableRecord
  2
Standard
 70
    0
 40
1
 41
2.5
 42
5
 43
0.38
 44
1.25
 45
0
 46
0
 47
0
 48
0
 49
1
140
2.5
141
0.09
142
0
143
25.4
144
1
145
0
146
1
147
0.625
148
0
 71
    0
 72
    0
 73
    0
 74
    1
 75
    0
 76
    0
 77
    0
 78
    1
 79
    0
170
    0
171
    2
172
    0
173
    0
174
    0
175
    0
176
    0
177
    0
178
    0
179
    2
271
    1
272
    4
273
    2
274
    2
275
    0
276
    0
277
    2
278
    0
279
    0
280
    0
281
    0
282
    0
283
    1
284
    0
285
    0
286
    0
288
    0
289
    3
340
STANDARD
341

371
   -2
372
   -2
  0
ENDTAB
  0
TABLE
  2
BLOCK_RECORD
  5
1
330
0
100
AcDbSymbolTable
 70
    2
  0
BLOCK_RECORD
  5
1F
330
1
100
AcDbSymbolTableRecord
100
AcDbBlockTableRecord
  2
*Model_Space
 70
    0
280
    1
281
    0
  0
BLOCK_RECORD
  5
1E
330
1
100
AcDbSymbolTableRecord
100
AcDbBlockTableRecord
  2
*Paper_Space
 70
    0
280
    1
281
    0
  0
BLOCK_RECORD
  5
52
330
1
100
AcDbSymbolTableRecord
100
AcDbBlockTableRecord
  2
*D36
 70
    0
280
    1
281
    0
  0
BLOCK_RECORD
  5
55
330
1
100
AcDbSymbolTableRecord
100
AcDbBlockTableRecord
  2
*D2
 70
    0
280
    1
281
    0
  0
BLOCK_RECORD
  5
58
330
1
100
AcDbSymbolTableRecord
100
AcDbBlockTableRecord
  2
*D3
 70
    0
280
    1
281
    0
  0
BLOCK_RECORD
  5
5B
330
1
100
AcDbSymbolTableRecord
100
AcDbBlockTableRecord
  2
*D29
 70
    0
280
    1
281
    0
  0
BLOCK_RECORD
  5
5E
330
1
100
AcDbSymbolTableRecord
100
AcDbBlockTableRecord
  2
*D12
 70
    0
280
    1
281
    0
  0
BLOCK_RECORD
  5
61
330
1
100
AcDbSymbolTableRecord
100
AcDbBlockTableRecord
  2
*D35
 70
    0
280
    1
281
    0
  0
BLOCK_RECORD
  5
64
330
1
100
AcDbSymbolTableRecord
100
AcDbBlockTableRecord
  2
*D10
 70
    0
280
    1
281
    0
  0
BLOCK_RECORD
  5
67
330
1
100
AcDbSymbolTableRecord
100
AcDbBlockTableRecord
  2
*D42
 70
    0
280
    1
281
    0
  0
BLOCK_RECORD
  5
6A
330
1
100
AcDbSymbolTableRecord
100
AcDbBlockTableRecord
  2
*D24
 70
    0
280
    1
281
    0
  0
BLOCK_RECORD
  5
6D
330
1
100
AcDbSymbolTableRecord
100
AcDbBlockTableRecord
  2
*D33
 70
    0
280
    1
281
    0
  0
BLOCK_RECORD
  5
70
330
1
100
AcDbSymbolTableRecord
100
AcDbBlockTableRecord
  2
*D21
 70
    0
280
    1
281
    0
  0
BLOCK_RECORD
  5
73
330
1
100
AcDbSymbolTableRecord
100
AcDbBlockTableRecord
  2
*D6
 70
    0
280
    1
281
    0
  0
BLOCK_RECORD
  5
76
330
1
100
AcDbSymbolTableRecord
100
AcDbBlockTableRecord
  2
*D9
 70
    0
280
    1
281
    0
  0
BLOCK_RECORD
  5
79
330
1
100
AcDbSymbolTableRecord
100
AcDbBlockTableRecord
  2
*D1
 70
    0
280
    1
281
    0
  0
BLOCK_RECORD
  5
7C
330
1
100
AcDbSymbolTableRecord
100
AcDbBlockTableRecord
  2
*D7
 70
    0
280
    1
281
    0
  0
BLOCK_RECORD
  5
7F
330
1
100
AcDbSymbolTableRecord
100
AcDbBlockTableRecord
  2
*D5
 70
    0
280
    1
281
    0
  0
BLOCK_RECORD
  5
82
330
1
100
AcDbSymbolTableRecord
100
AcDbBlockTableRecord
  2
*D13
 70
    0
280
    1
281
    0
  0
BLOCK_RECORD
  5
85
330
1
100
AcDbSymbolTableRecord
100
AcDbBlockTableRecord
  2
*D23
 70
    0
280
    1
281
    0
  0
BLOCK_RECORD
  5
88
330
1
100
AcDbSymbolTableRecord
100
AcDbBlockTableRecord
  2
*D4
 70
    0
280
    1
281
    0
  0
BLOCK_RECORD
  5
8B
330
1
100
AcDbSymbolTableRecord
100
AcDbBlockTableRecord
  2
*D43
 70
    0
280
    1
281
    0
  0
BLOCK_RECORD
  5
8E
330
1
100
AcDbSymbolTableRecord
100
AcDbBlockTableRecord
  2
*D18
 70
    0
280
    1
281
    0
  0
BLOCK_RECORD
  5
91
330
1
100
AcDbSymbolTableRecord
100
AcDbBlockTableRecord
  2
*D19
 70
    0
280
    1
281
    0
  0
BLOCK_RECORD
  5
94
330
1
100
AcDbSymbolTableRecord
100
AcDbBlockTableRecord
  2
*D27
 70
    0
280
    1
281
    0
  0
BLOCK_RECORD
  5
97
330
1
100
AcDbSymbolTableRecord
100
AcDbBlockTableRecord
  2
*D30
 70
    0
280
    1
281
    0
  0
BLOCK_RECORD
  5
9A
330
1
100
AcDbSymbolTableRecord
100
AcDbBlockTableRecord
  2
*D34
 70
    0
280
    1
281
    0
  0
BLOCK_RECORD
  5
9D
330
1
100
AcDbSymbolTableRecord
100
AcDbBlockTableRecord
  2
*D15
 70
    0
280
    1
281
    0
  0
BLOCK_RECORD
  5
A0
330
1
100
AcDbSymbolTableRecord
100
AcDbBlockTableRecord
  2
*D32
 70
    0
280
    1
281
    0
  0
BLOCK_RECORD
  5
A3
330
1
100
AcDbSymbolTableRecord
100
AcDbBlockTableRecord
  2
*D17
 70
    0
280
    1
281
    0
  0
BLOCK_RECORD
  5
A6
330
1
100
AcDbSymbolTableRecord
100
AcDbBlockTableRecord
  2
*D41
 70
    0
280
    1
281
    0
  0
BLOCK_RECORD
  5
A9
330
1
100
AcDbSymbolTableRecord
100
AcDbBlockTableRecord
  2
*D31
 70
    0
280
    1
281
    0
  0
BLOCK_RECORD
  5
AC
330
1
100
AcDbSymbolTableRecord
100
AcDbBlockTableRecord
  2
*D26
 70
    0
280
    1
281
    0
  0
BLOCK_RECORD
  5
AF
330
1
100
AcDbSymbolTableRecord
100
AcDbBlockTableRecord
  2
*D8
 70
    0
280
    1
281
    0
  0
BLOCK_RECORD
  5
B2
330
1
100
AcDbSymbolTableRecord
100
AcDbBlockTableRecord
  2
*D11
 70
    0
280
    1
281
    0
  0
BLOCK_RECORD
  5
B5
330
1
100
AcDbSymbolTableRecord
100
AcDbBlockTableRecord
  2
*D25
 70
    0
280
    1
281
    0
  0
BLOCK_RECORD
  5
B8
330
1
100
AcDbSymbolTableRecord
100
AcDbBlockTableRecord
  2
*D40
 70
    0
280
    1
281
    0
  0
BLOCK_RECORD
  5
BB
330
1
100
AcDbSymbolTableRecord
100
AcDbBlockTableRecord
  2
*D16
 70
    0
280
    1
281
    0
  0
BLOCK_RECORD
  5
BE
330
1
100
AcDbSymbolTableRecord
100
AcDbBlockTableRecord
  2
*D38
 70
    0
280
    1
281
    0
  0
BLOCK_RECORD
  5
C1
330
1
100
AcDbSymbolTableRecord
100
AcDbBlockTableRecord
  2
*D22
 70
    0
280
    1
281
    0
  0
BLOCK_RECORD
  5
C4
330
1
100
AcDbSymbolTableRecord
100
AcDbBlockTableRecord
  2
*D37
 70
    0
280
    1
281
    0
  0
BLOCK_RECORD
  5
C7
330
1
100
AcDbSymbolTableRecord
100
AcDbBlockTableRecord
  2
*D28
 70
    0
280
    1
281
    0
  0
BLOCK_RECORD
  5
CA
330
1
100
AcDbSymbolTableRecord
100
AcDbBlockTableRecord
  2
*D39
 70
    0
280
    1
281
    0
  0
BLOCK_RECORD
  5
CD
330
1
100
AcDbSymbolTableRecord
100
AcDbBlockTableRecord
  2
*D20
 70
    0
280
    1
281
    0
  0
BLOCK_RECORD
  5
D0
330
1
100
AcDbSymbolTableRecord
100
AcDbBlockTableRecord
  2
*D14
 70
    0
280
    1
281
    0
  0
BLOCK_RECORD
  5
D3
330
1
100
AcDbSymbolTableRecord
100
AcDbBlockTableRecord
  2
snsr_pwr_styrene
 70
    0
280
    1
281
    0
  0
BLOCK_RECORD
  5
D6
330
1
100
AcDbSymbolTableRecord
100
AcDbBlockTableRecord
  2
hud_sw_styrene
 70
    0
280
    1
281
    0
  0
BLOCK_RECORD
  5
D9
330
1
100
AcDbSymbolTableRecord
100
AcDbBlockTableRecord
  2
int_lighting_styrene
 70
    0
280
    1
281
    0
  0
BLOCK_RECORD
  5
DC
330
1
100
AcDbSymbolTableRecord
100
AcDbBlockTableRecord
  2
nucelar_consent_styrene
 70
    0
280
    1
281
    0
  0
BLOCK_RECORD
  5
DF
330
1
100
AcDbSymbolTableRecord
100
AcDbBlockTableRecord
  2
zeroize_styrene
 70
    0
280
    1
281
    0
  0
BLOCK_RECORD
  5
E2
330
1
100
AcDbSymbolTableRecord
100
AcDbBlockTableRecord
  2
aircond_styrene
 70
    0
280
    1
281
    0
  0
BLOCK_RECORD
  5
E5
330
1
100
AcDbSymbolTableRecord
100
AcDbBlockTableRecord
  2
antiice_styrene
 70
    0
280
    1
281
    0
  0
BLOCK_RECORD
  5
E8
330
1
100
AcDbSymbolTableRecord
100
AcDbBlockTableRecord
  2
oxygen_styrene
 70
    0
280
    1
281
    0
  0
BLOCK_RECORD
  5
EB
330
1
100
AcDbSymbolTableRecord
100
AcDbBlockTableRecord
  2
ky58_styrene
 70
    0
280
    1
281
    0
  0
BLOCK_RECORD
  5
EE
330
1
100
AcDbSymbolTableRecord
100
AcDbBlockTableRecord
  2
oxygen_styrene-0
 70
    0
280
    1
281
    0
  0
BLOCK_RECORD
  5
F1
330
1
100
AcDbSymbolTableRecord
100
AcDbBlockTableRecord
  2
antiice_styrene-0
 70
    0
280
    1
281
    0
  0
BLOCK_RECORD
  5
F4
330
1
100
AcDbSymbolTableRecord
100
AcDbBlockTableRecord
  2
corner_mounts
 70
    0
280
    1
281
    0
  0
BLOCK_RECORD
  5
F7
330
1
100
AcDbSymbolTableRecord
100
AcDbBlockTableRecord
  2
avi_power_styrene
 70
    0
280
    1
281
    0
  0
ENDTAB
  0
ENDSEC
  0
SECTION
  2
BLOCKS
  0
BLOCK
  5
20
330
1F
100
AcDbEntity
  8
0
100
AcDbBlockBegin
  2
*Model_Space
 70
    0
 10
0
 20
0
 30
0
  3
*Model_Space
  1

  0
ENDBLK
  5
21
330
1F
100
AcDbEntity
  8
0
100
AcDbBlockEnd
  0
BLOCK
  5
1C
330
1B
100
AcDbEntity
  8
0
100
AcDbBlockBegin
  2
*Paper_Space
 70
    0
 10
0
 20
0
 30
0
  3
*Paper_Space
  1

  0
ENDBLK
  5
1D
330
1F
100
AcDbEntity
  8
0
100
AcDbBlockEnd
  0
BLOCK
  5
53
330
52
100
AcDbEntity
  8
0
100
AcDbBlockBegin
  2
*D36
 70
    1
 10
0
 20
0
  3
*D36
  1

  0
LINE
  5
FA
100
AcDbEntity
  8
measure
  6
ByBlock
 62
    0
370
   -2
100
AcDbLine
 10
1051.15405091805
 20
-40
 11
1035
 21
-40
  0
SOLID
  5
FB
100
AcDbEntity
  8
measure
  6
ByBlock
 62
    0
370
   -2
100
AcDbTrace
 10
1046.15405091805
 20
-40
 30
0
 11
1048.65405091805
 21
-39.58371534222716
 31
0
 12
1048.65405091805
 22
-40.41628465777284
 32
0
 13
1048.65405091805
 23
-40.41628465777284
 33
0
  0
SOLID
  5
FC
100
AcDbEntity
  8
measure
  6
ByBlock
 62
    0
370
   -2
100
AcDbTrace
 10
1040
 20
-40
 30
0
 11
1037.5
 21
-40.41628465777284
 31
0
 12
1037.5
 22
-39.58371534222716
 32
0
 13
1037.5
 23
-39.58371534222716
 33
0
  0
MTEXT
  5
FD
100
AcDbEntity
  8
measure
  6
CONTINUOUS
 62
    0
370
   -2
100
AcDbMText
 10
1043.077025459025
 20
-38.125
 30
0
 40
2.5
 41
3.888888888889044
 71
    5
 72
    1
  1
6.2
  7
STANDARD
210
0
220
0
230
1
 50
360
 73
    2
 44
1
  0
LINE
  5
FE
100
AcDbEntity
  8
measure
  6
ByBlock
 62
    0
370
   -2
100
AcDbLine
 10
1046.15405091805
 20
-37.00000000000011
 11
1046.15405091805
 21
-38.75
  0
LINE
  5
FF
100
AcDbEntity
  8
measure
  6
ByBlock
 62
    0
370
   -2
100
AcDbLine
 10
1040
 20
-35
 11
1040
 21
-38.75
  0
ENDBLK
  5
54
330
52
100
AcDbEntity
  8
0
100
AcDbBlockEnd
  0
BLOCK
  5
56
330
55
100
AcDbEntity
  8
0
100
AcDbBlockBegin
  2
*D2
 70
    1
 10
0
 20
0
  3
*D2
  1

  0
LINE
  5
100
100
AcDbEntity
  8
measure
  6
ByBlock
 62
    0
370
   -2
100
AcDbLine
 10
630
 20
244
 11
630
 21
3.944304526105059e-031
  0
SOLID
  5
101
100
AcDbEntity
  8
measure
  6
ByBlock
 62
    0
370
   -2
100
AcDbTrace
 10
630
 20
244
 30
0
 11
630.4162846577728
 21
241.5
 31
0
 12
629.5837153422272
 22
241.5
 32
0
 13
629.5837153422272
 23
241.5
 33
0
  0
SOLID
  5
102
100
AcDbEntity
  8
measure
  6
ByBlock
 62
    0
370
   -2
100
AcDbTrace
 10
630
 20
3.944304526105059e-031
 30
0
 11
629.5837153422272
 21
2.5
 31
0
 12
630.4162846577728
 22
2.5
 32
0
 13
630.4162846577728
 23
2.5
 33
0
  0
MTEXT
  5
103
100
AcDbEntity
  8
measure
  6
CONTINUOUS
 62
    0
370
   -2
100
AcDbMText
 10
626.75
 20
122
 30
0
 40
2.5
 41
8.333333333333334
 71
    5
 72
    1
  1
244.0
  7
STANDARD
210
0
220
0
230
1
 50
90
 73
    2
 44
1
  0
LINE
  5
104
100
AcDbEntity
  8
measure
  6
ByBlock
 62
    0
370
   -2
100
AcDbLine
 10
608
 20
244
 11
631.25
 21
244
  0
LINE
  5
105
100
AcDbEntity
  8
measure
  6
ByBlock
 62
    0
370
   -2
100
AcDbLine
 10
608
 20
0
 11
631.25
 21
3.944304526105059e-031
  0
ENDBLK
  5
57
330
55
100
AcDbEntity
  8
0
100
AcDbBlockEnd
  0
BLOCK
  5
59
330
58
100
AcDbEntity
  8
0
100
AcDbBlockBegin
  2
*D3
 70
    1
 10
0
 20
0
  3
*D3
  1

  0
LINE
  5
106
100
AcDbEntity
  8
measure
  6
ByBlock
 62
    0
370
   -2
100
AcDbLine
 10
-10
 20
300
 11
-10
 21
338.1681465521552
  0
SOLID
  5
107
100
AcDbEntity
  8
measure
  6
ByBlock
 62
    0
370
   -2
100
AcDbTrace
 10
-10
 20
300
 30
0
 11
-10.41628465777284
 21
302.5
 31
0
 12
-9.58371534222716
 22
302.5
 32
0
 13
-9.58371534222716
 23
302.5
 33
0
  0
SOLID
  5
108
100
AcDbEntity
  8
measure
  6
ByBlock
 62
    0
370
   -2
100
AcDbTrace
 10
-10
 20
338.1681465521552
 30
0
 11
-9.58371534222716
 21
335.6681465521552
 31
0
 12
-10.41628465777284
 22
335.6681465521552
 32
0
 13
-10.41628465777284
 23
335.6681465521552
 33
0
  0
MTEXT
  5
109
100
AcDbEntity
  8
measure
  6
CONTINUOUS
 62
    0
370
   -2
100
AcDbMText
 10
-13.25
 20
319.0840732760776
 30
0
 40
2.5
 41
5.833333333333488
 71
    5
 72
    1
  1
38.2
  7
STANDARD
210
0
220
0
230
1
 50
90
 73
    2
 44
1
  0
LINE
  5
10A
100
AcDbEntity
  8
measure
  6
ByBlock
 62
    0
370
   -2
100
AcDbLine
 10
-5
 20
300
 11
-11.25
 21
300
  0
LINE
  5
10B
100
AcDbEntity
  8
measure
  6
ByBlock
 62
    0
370
   -2
100
AcDbLine
 10
-5
 20
338.1681465521552
 11
-11.25
 21
338.1681465521552
  0
ENDBLK
  5
5A
330
58
100
AcDbEntity
  8
0
100
AcDbBlockEnd
  0
BLOCK
  5
5C
330
5B
100
AcDbEntity
  8
0
100
AcDbBlockBegin
  2
*D29
 70
    1
 10
0
 20
0
  3
*D29
  1

  0
LINE
  5
10C
100
AcDbEntity
  8
measure
  6
ByBlock
 62
    0
370
   -2
100
AcDbLine
 10
310
 20
-149.9584642205734
 11
564.0000000000002
 21
-149.9584642205734
  0
SOLID
  5
10D
100
AcDbEntity
  8
measure
  6
ByBlock
 62
    0
370
   -2
100
AcDbTrace
 10
310
 20
-149.9584642205734
 30
0
 11
312.5
 21
-149.5421795628006
 31
0
 12
312.5
 22
-150.3747488783463
 32
0
 13
312.5
 23
-150.3747488783463
 33
0
  0
SOLID
  5
10E
100
AcDbEntity
  8
measure
  6
ByBlock
 62
    0
370
   -2
100
AcDbTrace
 10
564.0000000000002
 20
-149.9584642205734
 30
0
 11
561.5000000000002
 21
-150.3747488783463
 31
0
 12
561.5000000000002
 22
-149.5421795628006
 32
0
 13
561.5000000000002
 23
-149.5421795628006
 33
0
  0
MTEXT
  5
10F
100
AcDbEntity
  8
measure
  6
CONTINUOUS
 62
    0
370
   -2
100
AcDbMText
 10
437.0000000000001
 20
-148.0834642205734
 30
0
 40
2.5
 41
8.055555555555712
 71
    5
 72
    1
  1
254.0
  7
STANDARD
210
0
220
0
230
1
 50
0
 73
    2
 44
1
  0
LINE
  5
110
100
AcDbEntity
  8
measure
  6
ByBlock
 62
    0
370
   -2
100
AcDbLine
 10
310
 20
-144.9584642205734
 11
310
 21
-148.7084642205734
  0
LINE
  5
111
100
AcDbEntity
  8
measure
  6
ByBlock
 62
    0
370
   -2
100
AcDbLine
 10
564.0000000000002
 20
-144.9584642205734
 11
564.0000000000002
 21
-148.7084642205734
  0
ENDBLK
  5
5D
330
5B
100
AcDbEntity
  8
0
100
AcDbBlockEnd
  0
BLOCK
  5
5F
330
5E
100
AcDbEntity
  8
0
100
AcDbBlockBegin
  2
*D12
 70
    1
 10
0
 20
0
  3
*D12
  1

  0
LINE
  5
112
100
AcDbEntity
  8
measure
  6
ByBlock
 62
    0
370
   -2
100
AcDbLine
 10
300.6358423942379
 20
440.9297082358902
 11
301.087634001997
 21
444.4535655229386
  0
LINE
  5
113
100
AcDbEntity
  8
measure
  6
ByBlock
 62
    0
370
   -2
100
AcDbLine
 10
110.6358423942379
 20
465.2894931198398
 11
111.087634001997
 21
468.8133504068882
  0
LINE
  5
114
100
AcDbEntity
  8
measure
  6
ByBlock
 62
    0
370
   -2
100
AcDbLine
 10
300.9286734034375
 20
443.2137141092177
 11
110.9286734034375
 21
467.5734989931673
  0
SOLID
  5
115
100
AcDbEntity
  8
measure
  6
ByBlock
 62
    0
370
   -2
100
AcDbTrace
 10
300.9286734034375
 20
443.2137141092177
 30
0
 11
298.3960322892992
 21
443.1187304091767
 31
0
 12
298.5019088626923
 22
443.9445402034966
 32
0
 13
298.5019088626923
 23
443.9445402034966
 33
0
  0
SOLID
  5
116
100
AcDbEntity
  8
measure
  6
ByBlock
 62
    0
370
   -2
100
AcDbTrace
 10
110.9286734034375
 20
467.5734989931673
 30
0
 11
113.4613145175758
 21
467.6684826932083
 31
0
 12
113.3554379441827
 22
466.8426728988883
 32
0
 13
113.3554379441827
 23
466.8426728988883
 33
0
  0
MTEXT
  5
117
100
AcDbEntity
  8
measure
  6
CONTINUOUS
 62
    0
370
   -2
100
AcDbMText
 10
206.3419709596922
 20
458.6172202268668
 30
0
 40
2.5
 41
6.666666666666822
 71
    5
 72
    1
  1
191.6
  7
STANDARD
210
0
220
0
230
1
 50
352.694
 73
    2
 44
1
  0
ENDBLK
  5
60
330
5E
100
AcDbEntity
  8
0
100
AcDbBlockEnd
  0
BLOCK
  5
62
330
61
100
AcDbEntity
  8
0
100
AcDbBlockBegin
  2
*D35
 70
    1
 10
0
 20
0
  3
*D35
  1

  0
LINE
  5
118
100
AcDbEntity
  8
measure
  6
ByBlock
 62
    0
370
   -2
100
AcDbLine
 10
1303.662866336351
 20
-30
 11
1040
 21
-30
  0
SOLID
  5
119
100
AcDbEntity
  8
measure
  6
ByBlock
 62
    0
370
   -2
100
AcDbTrace
 10
1303.662866336351
 20
-30
 30
0
 11
1301.162866336351
 21
-30.41628465777284
 31
0
 12
1301.162866336351
 22
-29.58371534222716
 32
0
 13
1301.162866336351
 23
-29.58371534222716
 33
0
  0
SOLID
  5
11A
100
AcDbEntity
  8
measure
  6
ByBlock
 62
    0
370
   -2
100
AcDbTrace
 10
1040
 20
-30
 30
0
 11
1042.5
 21
-29.58371534222716
 31
0
 12
1042.5
 22
-30.41628465777284
 32
0
 13
1042.5
 23
-30.41628465777284
 33
0
  0
MTEXT
  5
11B
100
AcDbEntity
  8
measure
  6
CONTINUOUS
 62
    0
370
   -2
100
AcDbMText
 10
1171.831433168175
 20
-28.125
 30
0
 40
2.5
 41
7.777777777778088
 71
    5
 72
    1
  1
263.7
  7
STANDARD
210
0
220
0
230
1
 50
360
 73
    2
 44
1
  0
LINE
  5
11C
100
AcDbEntity
  8
measure
  6
ByBlock
 62
    0
370
   -2
100
AcDbLine
 10
1303.662866336351
 20
-37.00000000000045
 11
1303.662866336351
 21
-28.75
  0
LINE
  5
11D
100
AcDbEntity
  8
measure
  6
ByBlock
 62
    0
370
   -2
100
AcDbLine
 10
1040
 20
-35
 11
1040
 21
-28.75
  0
ENDBLK
  5
63
330
61
100
AcDbEntity
  8
0
100
AcDbBlockEnd
  0
BLOCK
  5
65
330
64
100
AcDbEntity
  8
0
100
AcDbBlockBegin
  2
*D10
 70
    1
 10
0
 20
0
  3
*D10
  1

  0
LINE
  5
11E
100
AcDbEntity
  8
measure
  6
ByBlock
 62
    0
370
   -2
100
AcDbLine
 10
490
 20
11
 11
490
 21
233
  0
SOLID
  5
11F
100
AcDbEntity
  8
measure
  6
ByBlock
 62
    0
370
   -2
100
AcDbTrace
 10
490
 20
11
 30
0
 11
489.5837153422272
 21
13.5
 31
0
 12
490.4162846577728
 22
13.5
 32
0
 13
490.4162846577728
 23
13.5
 33
0
  0
SOLID
  5
120
100
AcDbEntity
  8
measure
  6
ByBlock
 62
    0
370
   -2
100
AcDbTrace
 10
490
 20
233
 30
0
 11
490.4162846577728
 21
230.5
 31
0
 12
489.5837153422272
 22
230.5
 32
0
 13
489.5837153422272
 23
230.5
 33
0
  0
MTEXT
  5
121
100
AcDbEntity
  8
measure
  6
CONTINUOUS
 62
    0
370
   -2
100
AcDbMText
 10
486.75
 20
122
 30
0
 40
2.5
 41
7.777777777777779
 71
    5
 72
    1
  1
222.0
  7
STANDARD
210
0
220
0
230
1
 50
90
 73
    2
 44
1
  0
LINE
  5
122
100
AcDbEntity
  8
measure
  6
ByBlock
 62
    0
370
   -2
100
AcDbLine
 10
472
 20
11
 11
491.25
 21
11
  0
LINE
  5
123
100
AcDbEntity
  8
measure
  6
ByBlock
 62
    0
370
   -2
100
AcDbLine
 10
472
 20
233
 11
491.25
 21
233
  0
ENDBLK
  5
66
330
64
100
AcDbEntity
  8
0
100
AcDbBlockEnd
  0
BLOCK
  5
68
330
67
100
AcDbEntity
  8
0
100
AcDbBlockBegin
  2
*D42
 70
    1
 10
0
 20
0
  3
*D42
  1

  0
LINE
  5
124
100
AcDbEntity
  8
measure
  6
ByBlock
 62
    0
370
   -2
100
AcDbLine
 10
955.4181350735706
 20
240
 11
925.4200000000001
 21
240
  0
SOLID
  5
125
100
AcDbEntity
  8
measure
  6
ByBlock
 62
    0
370
   -2
100
AcDbTrace
 10
955.4181350735706
 20
240
 30
0
 11
952.9181350735706
 21
239.5837153422272
 31
0
 12
952.9181350735706
 22
240.4162846577728
 32
0
 13
952.9181350735706
 23
240.4162846577728
 33
0
  0
SOLID
  5
126
100
AcDbEntity
  8
measure
  6
ByBlock
 62
    0
370
   -2
100
AcDbTrace
 10
925.4200000000001
 20
240
 30
0
 11
927.9200000000001
 21
240.4162846577728
 31
0
 12
927.9200000000001
 22
239.5837153422272
 32
0
 13
927.9200000000001
 23
239.5837153422272
 33
0
  0
MTEXT
  5
127
100
AcDbEntity
  8
measure
  6
CONTINUOUS
 62
    0
370
   -2
100
AcDbMText
 10
940.4190675367854
 20
241.875
 30
0
 40
2.5
 41
5.833333333333488
 71
    5
 72
    1
  1
30.0
  7
STANDARD
210
0
220
0
230
1
 50
360
 73
    2
 44
1
  0
LINE
  5
128
100
AcDbEntity
  8
measure
  6
ByBlock
 62
    0
370
   -2
100
AcDbLine
 10
955.4181350735706
 20
244.9833656481035
 11
955.4181350735706
 21
241.25
  0
LINE
  5
129
100
AcDbEntity
  8
measure
  6
ByBlock
 62
    0
370
   -2
100
AcDbLine
 10
925.4200000000001
 20
245
 11
925.4200000000001
 21
241.25
  0
ENDBLK
  5
69
330
67
100
AcDbEntity
  8
0
100
AcDbBlockEnd
  0
BLOCK
  5
6B
330
6A
100
AcDbEntity
  8
0
100
AcDbBlockBegin
  2
*D24
 70
    1
 10
0
 20
0
  3
*D24
  1

  0
LINE
  5
12A
100
AcDbEntity
  8
measure
  6
ByBlock
 62
    0
370
   -2
100
AcDbLine
 10
955.4181350735706
 20
-130
 11
700
 21
-130
  0
SOLID
  5
12B
100
AcDbEntity
  8
measure
  6
ByBlock
 62
    0
370
   -2
100
AcDbTrace
 10
955.4181350735706
 20
-130
 30
0
 11
952.9181350735706
 21
-130.4162846577728
 31
0
 12
952.9181350735706
 22
-129.5837153422272
 32
0
 13
952.9181350735706
 23
-129.5837153422272
 33
0
  0
SOLID
  5
12C
100
AcDbEntity
  8
measure
  6
ByBlock
 62
    0
370
   -2
100
AcDbTrace
 10
700
 20
-130
 30
0
 11
702.5
 21
-129.5837153422272
 31
0
 12
702.5
 22
-130.4162846577728
 32
0
 13
702.5
 23
-130.4162846577728
 33
0
  0
MTEXT
  5
12D
100
AcDbEntity
  8
measure
  6
CONTINUOUS
 62
    0
370
   -2
100
AcDbMText
 10
827.7090675367854
 20
-126.75
 30
0
 40
2.5
 41
8.055555555555866
 71
    5
 72
    1
  1
255.4
  7
STANDARD
210
0
220
0
230
1
 50
360
 73
    2
 44
1
  0
LINE
  5
12E
100
AcDbEntity
  8
measure
  6
ByBlock
 62
    0
370
   -2
100
AcDbLine
 10
955.4181350735706
 20
-105
 11
955.4181350735706
 21
-131.25
  0
LINE
  5
12F
100
AcDbEntity
  8
measure
  6
ByBlock
 62
    0
370
   -2
100
AcDbLine
 10
700
 20
-105
 11
700
 21
-131.25
  0
ENDBLK
  5
6C
330
6A
100
AcDbEntity
  8
0
100
AcDbBlockEnd
  0
BLOCK
  5
6E
330
6D
100
AcDbEntity
  8
0
100
AcDbBlockBegin
  2
*D33
 70
    1
 10
0
 20
0
  3
*D33
  1

  0
LINE
  5
130
100
AcDbEntity
  8
measure
  6
ByBlock
 62
    0
370
   -2
100
AcDbLine
 10
1040
 20
0
 11
1393.60710441912
 21
0
  0
SOLID
  5
131
100
AcDbEntity
  8
measure
  6
ByBlock
 62
    0
370
   -2
100
AcDbTrace
 10
1040
 20
0
 30
0
 11
1042.5
 21
0.4162846577728402
 31
0
 12
1042.5
 22
-0.4162846577728408
 32
0
 13
1042.5
 23
-0.4162846577728408
 33
0
  0
SOLID
  5
132
100
AcDbEntity
  8
measure
  6
ByBlock
 62
    0
370
   -2
100
AcDbTrace
 10
1393.60710441912
 20
0
 30
0
 11
1391.10710441912
 21
-0.4162846577728404
 31
0
 12
1391.10710441912
 22
0.4162846577728404
 32
0
 13
1391.10710441912
 23
0.4162846577728404
 33
0
  0
MTEXT
  5
133
100
AcDbEntity
  8
measure
  6
CONTINUOUS
 62
    0
370
   -2
100
AcDbMText
 10
1216.80355220956
 20
1.875
 30
0
 40
2.5
 41
7.777777777778397
 71
    5
 72
    1
  1
353.6
  7
STANDARD
210
0
220
0
230
1
 50
0
 73
    2
 44
1
  0
LINE
  5
134
100
AcDbEntity
  8
measure
  6
ByBlock
 62
    0
370
   -2
100
AcDbLine
 10
1040
 20
4.999999999999773
 11
1040
 21
-1.25
  0
LINE
  5
135
100
AcDbEntity
  8
measure
  6
ByBlock
 62
    0
370
   -2
100
AcDbLine
 10
1393.60710441912
 20
4.999999999999659
 11
1393.60710441912
 21
-1.25
  0
ENDBLK
  5
6F
330
6D
100
AcDbEntity
  8
0
100
AcDbBlockEnd
  0
BLOCK
  5
71
330
70
100
AcDbEntity
  8
0
100
AcDbBlockBegin
  2
*D21
 70
    1
 10
0
 20
0
  3
*D21
  1

  0
LINE
  5
136
100
AcDbEntity
  8
measure
  6
ByBlock
 62
    0
370
   -2
100
AcDbLine
 10
-9.999999999999986
 20
-100
 11
-10
 21
-355.42
  0
SOLID
  5
137
100
AcDbEntity
  8
measure
  6
ByBlock
 62
    0
370
   -2
100
AcDbTrace
 10
-9.999999999999986
 20
-100
 30
0
 11
-9.583715342227146
 21
-102.5
 31
0
 12
-10.41628465777283
 22
-102.5
 32
0
 13
-10.41628465777283
 23
-102.5
 33
0
  0
SOLID
  5
138
100
AcDbEntity
  8
measure
  6
ByBlock
 62
    0
370
   -2
100
AcDbTrace
 10
-10
 20
-355.42
 30
0
 11
-10.41628465777284
 21
-352.92
 31
0
 12
-9.583715342227158
 22
-352.92
 32
0
 13
-9.583715342227158
 23
-352.92
 33
0
  0
MTEXT
  5
139
100
AcDbEntity
  8
measure
  6
CONTINUOUS
 62
    0
370
   -2
100
AcDbMText
 10
-13.24999999999999
 20
-227.71
 30
0
 40
2.5
 41
8.055555555555866
 71
    5
 72
    1
  1
255.4
  7
STANDARD
210
0
220
0
230
1
 50
90
 73
    2
 44
1
  0
LINE
  5
13A
100
AcDbEntity
  8
measure
  6
ByBlock
 62
    0
370
   -2
100
AcDbLine
 10
-5
 20
-100
 11
-11.24999999999999
 21
-100
  0
LINE
  5
13B
100
AcDbEntity
  8
measure
  6
ByBlock
 62
    0
370
   -2
100
AcDbLine
 10
-5
 20
-355.42
 11
-11.25
 21
-355.42
  0
ENDBLK
  5
72
330
70
100
AcDbEntity
  8
0
100
AcDbBlockEnd
  0
BLOCK
  5
74
330
73
100
AcDbEntity
  8
0
100
AcDbBlockBegin
  2
*D6
 70
    1
 10
0
 20
0
  3
*D6
  1

  0
LINE
  5
13C
100
AcDbEntity
  8
measure
  6
ByBlock
 62
    0
370
   -2
100
AcDbLine
 10
311
 20
350
 11
603
 21
350
  0
SOLID
  5
13D
100
AcDbEntity
  8
measure
  6
ByBlock
 62
    0
370
   -2
100
AcDbTrace
 10
311
 20
350
 30
0
 11
313.5
 21
350.4162846577728
 31
0
 12
313.5
 22
349.5837153422272
 32
0
 13
313.5
 23
349.5837153422272
 33
0
  0
SOLID
  5
13E
100
AcDbEntity
  8
measure
  6
ByBlock
 62
    0
370
   -2
100
AcDbTrace
 10
603
 20
350
 30
0
 11
600.5
 21
349.5837153422272
 31
0
 12
600.5
 22
350.4162846577728
 32
0
 13
600.5
 23
350.4162846577728
 33
0
  0
MTEXT
  5
13F
100
AcDbEntity
  8
measure
  6
CONTINUOUS
 62
    0
370
   -2
100
AcDbMText
 10
457
 20
353.25
 30
0
 40
2.5
 41
7.777777777777779
 71
    5
 72
    1
  1
292.0
  7
STANDARD
210
0
220
0
230
1
 50
0
 73
    2
 44
1
  0
LINE
  5
140
100
AcDbEntity
  8
measure
  6
ByBlock
 62
    0
370
   -2
100
AcDbLine
 10
311
 20
341
 11
311
 21
351.25
  0
LINE
  5
141
100
AcDbEntity
  8
measure
  6
ByBlock
 62
    0
370
   -2
100
AcDbLine
 10
603
 20
341
 11
603
 21
351.25
  0
ENDBLK
  5
75
330
73
100
AcDbEntity
  8
0
100
AcDbBlockEnd
  0
BLOCK
  5
77
330
76
100
AcDbEntity
  8
0
100
AcDbBlockBegin
  2
*D9
 70
    1
 10
0
 20
0
  3
*D9
  1

  0
LINE
  5
142
100
AcDbEntity
  8
measure
  6
ByBlock
 62
    0
370
   -2
100
AcDbLine
 10
322
 20
-10
 11
592
 21
-10
  0
SOLID
  5
143
100
AcDbEntity
  8
measure
  6
ByBlock
 62
    0
370
   -2
100
AcDbTrace
 10
322
 20
-10
 30
0
 11
324.5
 21
-9.58371534222716
 31
0
 12
324.5
 22
-10.41628465777284
 32
0
 13
324.5
 23
-10.41628465777284
 33
0
  0
SOLID
  5
144
100
AcDbEntity
  8
measure
  6
ByBlock
 62
    0
370
   -2
100
AcDbTrace
 10
592
 20
-10
 30
0
 11
589.5
 21
-10.41628465777284
 31
0
 12
589.5
 22
-9.58371534222716
 32
0
 13
589.5
 23
-9.58371534222716
 33
0
  0
MTEXT
  5
145
100
AcDbEntity
  8
measure
  6
CONTINUOUS
 62
    0
370
   -2
100
AcDbMText
 10
457
 20
-6.75
 30
0
 40
2.5
 41
7.777777777777779
 71
    5
 72
    1
  1
270.0
  7
STANDARD
210
0
220
0
230
1
 50
0
 73
    2
 44
1
  0
LINE
  5
146
100
AcDbEntity
  8
measure
  6
ByBlock
 62
    0
370
   -2
100
AcDbLine
 10
322
 20
-5
 11
322
 21
-11.25
  0
LINE
  5
147
100
AcDbEntity
  8
measure
  6
ByBlock
 62
    0
370
   -2
100
AcDbLine
 10
592
 20
-5
 11
592
 21
-11.25
  0
ENDBLK
  5
78
330
76
100
AcDbEntity
  8
0
100
AcDbBlockEnd
  0
BLOCK
  5
7A
330
79
100
AcDbEntity
  8
0
100
AcDbBlockBegin
  2
*D1
 70
    1
 10
0
 20
0
  3
*D1
  1

  0
LINE
  5
148
100
AcDbEntity
  8
measure
  6
ByBlock
 62
    0
370
   -2
100
AcDbLine
 10
300.6358423942376
 20
340.9594056548835
 11
302.1414497002203
 21
352.7027518912951
  0
LINE
  5
149
100
AcDbEntity
  8
measure
  6
ByBlock
 62
    0
370
   -2
100
AcDbLine
 10
0.6358423942379005
 20
379.4222238926986
 11
2.14144970022062
 21
391.1655701291102
  0
LINE
  5
14A
100
AcDbEntity
  8
measure
  6
ByBlock
 62
    0
370
   -2
100
AcDbLine
 10
301.9824891016609
 20
351.4629004775742
 11
1.982489101661145
 21
389.9257187153893
  0
SOLID
  5
14B
100
AcDbEntity
  8
measure
  6
ByBlock
 62
    0
370
   -2
100
AcDbTrace
 10
301.9824891016609
 20
351.4629004775742
 30
0
 11
299.4498479875226
 21
351.3679167775332
 31
0
 12
299.5557245609157
 22
352.1937265718531
 32
0
 13
299.5557245609157
 23
352.1937265718531
 33
0
  0
SOLID
  5
14C
100
AcDbEntity
  8
measure
  6
ByBlock
 62
    0
370
   -2
100
AcDbTrace
 10
1.982489101661145
 20
389.9257187153893
 30
0
 11
4.515130215799422
 21
390.0207024154303
 31
0
 12
4.409253642406305
 22
389.1948926211103
 32
0
 13
4.409253642406305
 23
389.1948926211103
 33
0
  0
MTEXT
  5
14D
100
AcDbEntity
  8
measure
  6
CONTINUOUS
 62
    0
370
   -2
100
AcDbMText
 10
152.3957866579157
 20
373.917923272156
 30
0
 40
2.5
 41
7.777777777778088
 71
    5
 72
    1
  1
302.5
  7
STANDARD
210
0
220
0
230
1
 50
352.694
 73
    2
 44
1
  0
ENDBLK
  5
7B
330
79
100
AcDbEntity
  8
0
100
AcDbBlockEnd
  0
BLOCK
  5
7D
330
7C
100
AcDbEntity
  8
0
100
AcDbBlockBegin
  2
*D7
 70
    1
 10
0
 20
0
  3
*D7
  1

  0
LINE
  5
14E
100
AcDbEntity
  8
measure
  6
ByBlock
 62
    0
370
   -2
100
AcDbLine
 10
322
 20
330
 11
445
 21
330
  0
SOLID
  5
14F
100
AcDbEntity
  8
measure
  6
ByBlock
 62
    0
370
   -2
100
AcDbTrace
 10
322
 20
330
 30
0
 11
324.5
 21
330.4162846577728
 31
0
 12
324.5
 22
329.5837153422272
 32
0
 13
324.5
 23
329.5837153422272
 33
0
  0
SOLID
  5
150
100
AcDbEntity
  8
measure
  6
ByBlock
 62
    0
370
   -2
100
AcDbTrace
 10
445
 20
330
 30
0
 11
442.5
 21
329.5837153422272
 31
0
 12
442.5
 22
330.4162846577728
 32
0
 13
442.5
 23
330.4162846577728
 33
0
  0
MTEXT
  5
151
100
AcDbEntity
  8
measure
  6
CONTINUOUS
 62
    0
370
   -2
100
AcDbMText
 10
383.5
 20
333.25
 30
0
 40
2.5
 41
7.222222222222378
 71
    5
 72
    1
  1
123.0
  7
STANDARD
210
0
220
0
230
1
 50
0
 73
    2
 44
1
  0
LINE
  5
152
100
AcDbEntity
  8
measure
  6
ByBlock
 62
    0
370
   -2
100
AcDbLine
 10
322
 20
331
 11
322
 21
328.75
  0
LINE
  5
153
100
AcDbEntity
  8
measure
  6
ByBlock
 62
    0
370
   -2
100
AcDbLine
 10
445
 20
331
 11
445
 21
328.75
  0
ENDBLK
  5
7E
330
7C
100
AcDbEntity
  8
0
100
AcDbBlockEnd
  0
BLOCK
  5
80
330
7F
100
AcDbEntity
  8
0
100
AcDbBlockBegin
  2
*D5
 70
    1
 10
0
 20
0
  3
*D5
  1

  0
LINE
  5
154
100
AcDbEntity
  8
measure
  6
ByBlock
 62
    0
370
   -2
100
AcDbLine
 10
322
 20
280
 11
592
 21
280
  0
SOLID
  5
155
100
AcDbEntity
  8
measure
  6
ByBlock
 62
    0
370
   -2
100
AcDbTrace
 10
322
 20
280
 30
0
 11
324.5
 21
280.4162846577728
 31
0
 12
324.5
 22
279.5837153422272
 32
0
 13
324.5
 23
279.5837153422272
 33
0
  0
SOLID
  5
156
100
AcDbEntity
  8
measure
  6
ByBlock
 62
    0
370
   -2
100
AcDbTrace
 10
592
 20
280
 30
0
 11
589.5
 21
279.5837153422272
 31
0
 12
589.5
 22
280.4162846577728
 32
0
 13
589.5
 23
280.4162846577728
 33
0
  0
MTEXT
  5
157
100
AcDbEntity
  8
measure
  6
CONTINUOUS
 62
    0
370
   -2
100
AcDbMText
 10
457
 20
283.25
 30
0
 40
2.5
 41
7.777777777777779
 71
    5
 72
    1
  1
270.0
  7
STANDARD
210
0
220
0
230
1
 50
0
 73
    2
 44
1
  0
LINE
  5
158
100
AcDbEntity
  8
measure
  6
ByBlock
 62
    0
370
   -2
100
AcDbLine
 10
322
 20
295
 11
322
 21
278.75
  0
LINE
  5
159
100
AcDbEntity
  8
measure
  6
ByBlock
 62
    0
370
   -2
100
AcDbLine
 10
592
 20
295
 11
592
 21
278.75
  0
ENDBLK
  5
81
330
7F
100
AcDbEntity
  8
0
100
AcDbBlockEnd
  0
BLOCK
  5
83
330
82
100
AcDbEntity
  8
0
100
AcDbBlockBegin
  2
*D13
 70
    1
 10
0
 20
0
  3
*D13
  1

  0
LINE
  5
15A
100
AcDbEntity
  8
measure
  6
ByBlock
 62
    0
370
   -2
100
AcDbLine
 10
100
 20
399.9703025810068
 11
100
 21
424.0354157792963
  0
SOLID
  5
15B
100
AcDbEntity
  8
measure
  6
ByBlock
 62
    0
370
   -2
100
AcDbTrace
 10
100
 20
399.9703025810068
 30
0
 11
99.58371534222717
 21
402.4703025810068
 31
0
 12
100.4162846577728
 22
402.4703025810068
 32
0
 13
100.4162846577728
 23
402.4703025810068
 33
0
  0
SOLID
  5
15C
100
AcDbEntity
  8
measure
  6
ByBlock
 62
    0
370
   -2
100
AcDbTrace
 10
100
 20
424.0354157792963
 30
0
 11
100.4162846577728
 21
421.5354157792963
 31
0
 12
99.58371534222717
 22
421.5354157792963
 32
0
 13
99.58371534222717
 23
421.5354157792963
 33
0
  0
MTEXT
  5
15D
100
AcDbEntity
  8
measure
  6
CONTINUOUS
 62
    0
370
   -2
100
AcDbMText
 10
96.75
 20
412.0028591801515
 30
0
 40
2.5
 41
5.555555555555555
 71
    5
 72
    1
  1
24.1
  7
STANDARD
210
0
220
0
230
1
 50
90
 73
    2
 44
1
  0
LINE
  5
15E
100
AcDbEntity
  8
measure
  6
ByBlock
 62
    0
370
   -2
100
AcDbLine
 10
105
 20
399.9703025810068
 11
98.75
 21
399.9703025810068
  0
LINE
  5
15F
100
AcDbEntity
  8
measure
  6
ByBlock
 62
    0
370
   -2
100
AcDbLine
 10
105
 20
424.0354157792963
 11
98.75
 21
424.0354157792963
  0
ENDBLK
  5
84
330
82
100
AcDbEntity
  8
0
100
AcDbBlockEnd
  0
BLOCK
  5
86
330
85
100
AcDbEntity
  8
0
100
AcDbBlockBegin
  2
*D23
 70
    1
 10
0
 20
0
  3
*D23
  1

  0
LINE
  5
160
100
AcDbEntity
  8
measure
  6
ByBlock
 62
    0
370
   -2
100
AcDbLine
 10
685.4181350735706
 20
-100
 11
685.4181350735706
 21
317.252995653412
  0
SOLID
  5
161
100
AcDbEntity
  8
measure
  6
ByBlock
 62
    0
370
   -2
100
AcDbTrace
 10
685.4181350735706
 20
-100
 30
0
 11
685.0018504157978
 21
-97.5
 31
0
 12
685.8344197313435
 22
-97.5
 32
0
 13
685.8344197313435
 23
-97.5
 33
0
  0
SOLID
  5
162
100
AcDbEntity
  8
measure
  6
ByBlock
 62
    0
370
   -2
100
AcDbTrace
 10
685.4181350735706
 20
317.252995653412
 30
0
 11
685.8344197313435
 21
314.752995653412
 31
0
 12
685.0018504157978
 22
314.752995653412
 32
0
 13
685.0018504157978
 23
314.752995653412
 33
0
  0
MTEXT
  5
163
100
AcDbEntity
  8
measure
  6
CONTINUOUS
 62
    0
370
   -2
100
AcDbMText
 10
682.1681350735706
 20
108.626497826706
 30
0
 40
2.5
 41
7.500000000000156
 71
    5
 72
    1
  1
417.3
  7
STANDARD
210
0
220
0
230
1
 50
90
 73
    2
 44
1
  0
LINE
  5
164
100
AcDbEntity
  8
measure
  6
ByBlock
 62
    0
370
   -2
100
AcDbLine
 10
695
 20
-100
 11
684.1681350735706
 21
-100
  0
LINE
  5
165
100
AcDbEntity
  8
measure
  6
ByBlock
 62
    0
370
   -2
100
AcDbLine
 10
695
 20
317.252995653412
 11
684.1681350735706
 21
317.252995653412
  0
ENDBLK
  5
87
330
85
100
AcDbEntity
  8
0
100
AcDbBlockEnd
  0
BLOCK
  5
89
330
88
100
AcDbEntity
  8
0
100
AcDbBlockBegin
  2
*D4
 70
    1
 10
0
 20
0
  3
*D4
  1

  0
LINE
  5
166
100
AcDbEntity
  8
measure
  6
ByBlock
 62
    0
370
   -2
100
AcDbLine
 10
50
 20
300
 11
50
 21
333.4240455015838
  0
SOLID
  5
167
100
AcDbEntity
  8
measure
  6
ByBlock
 62
    0
370
   -2
100
AcDbTrace
 10
50
 20
300
 30
0
 11
49.58371534222716
 21
302.5
 31
0
 12
50.41628465777284
 22
302.5
 32
0
 13
50.41628465777284
 23
302.5
 33
0
  0
SOLID
  5
168
100
AcDbEntity
  8
measure
  6
ByBlock
 62
    0
370
   -2
100
AcDbTrace
 10
50
 20
333.4240455015838
 30
0
 11
50.41628465777284
 21
330.9240455015838
 31
0
 12
49.58371534222716
 22
330.9240455015838
 32
0
 13
49.58371534222716
 23
330.9240455015838
 33
0
  0
MTEXT
  5
169
100
AcDbEntity
  8
measure
  6
CONTINUOUS
 62
    0
370
   -2
100
AcDbMText
 10
46.75
 20
316.7120227507919
 30
0
 40
2.5
 41
6.111111111111422
 71
    5
 72
    1
  1
33.4
  7
STANDARD
210
0
220
0
230
1
 50
90
 73
    2
 44
1
  0
LINE
  5
16A
100
AcDbEntity
  8
measure
  6
ByBlock
 62
    0
370
   -2
100
AcDbLine
 10
42
 20
300
 11
51.25
 21
300
  0
LINE
  5
16B
100
AcDbEntity
  8
measure
  6
ByBlock
 62
    0
370
   -2
100
AcDbLine
 10
42.00275695794325
 20
333.4240455015838
 11
51.25
 21
333.4240455015838
  0
ENDBLK
  5
8A
330
88
100
AcDbEntity
  8
0
100
AcDbBlockEnd
  0
BLOCK
  5
8C
330
8B
100
AcDbEntity
  8
0
100
AcDbBlockBegin
  2
*D43
 70
    1
 10
0
 20
0
  3
*D43
  1

  0
LINE
  5
16C
100
AcDbEntity
  8
measure
  6
ByBlock
 62
    0
370
   -2
100
AcDbLine
 10
970
 20
220.8809254602195
 11
970
 21
268.8809254602195
  0
SOLID
  5
16D
100
AcDbEntity
  8
measure
  6
ByBlock
 62
    0
370
   -2
100
AcDbTrace
 10
970
 20
220.8809254602195
 30
0
 11
969.5837153422272
 21
223.3809254602195
 31
0
 12
970.4162846577728
 22
223.3809254602195
 32
0
 13
970.4162846577728
 23
223.3809254602195
 33
0
  0
SOLID
  5
16E
100
AcDbEntity
  8
measure
  6
ByBlock
 62
    0
370
   -2
100
AcDbTrace
 10
970
 20
268.8809254602195
 30
0
 11
970.4162846577728
 21
266.3809254602195
 31
0
 12
969.5837153422272
 22
266.3809254602195
 32
0
 13
969.5837153422272
 23
266.3809254602195
 33
0
  0
MTEXT
  5
16F
100
AcDbEntity
  8
measure
  6
CONTINUOUS
 62
    0
370
   -2
100
AcDbMText
 10
968.125
 20
244.8809254602195
 30
0
 40
2.5
 41
6.111111111111112
 71
    5
 72
    1
  1
48.0
  7
STANDARD
210
0
220
0
230
1
 50
90
 73
    2
 44
1
  0
LINE
  5
170
100
AcDbEntity
  8
measure
  6
ByBlock
 62
    0
370
   -2
100
AcDbLine
 10
960.4181350735705
 20
220.8809254602195
 11
971.25
 21
220.8809254602195
  0
LINE
  5
171
100
AcDbEntity
  8
measure
  6
ByBlock
 62
    0
370
   -2
100
AcDbLine
 10
960.4181350735705
 20
268.8809254602195
 11
971.25
 21
268.8809254602195
  0
ENDBLK
  5
8D
330
8B
100
AcDbEntity
  8
0
100
AcDbBlockEnd
  0
BLOCK
  5
8F
330
8E
100
AcDbEntity
  8
0
100
AcDbBlockBegin
  2
*D18
 70
    1
 10
0
 20
0
  3
*D18
  1

  0
LINE
  5
172
100
AcDbEntity
  8
measure
  6
ByBlock
 62
    0
370
   -2
100
AcDbLine
 10
0
 20
260
 11
302
 21
260
  0
SOLID
  5
173
100
AcDbEntity
  8
measure
  6
ByBlock
 62
    0
370
   -2
100
AcDbTrace
 10
0
 20
260
 30
0
 11
2.5
 21
260.4162846577728
 31
0
 12
2.5
 22
259.5837153422272
 32
0
 13
2.5
 23
259.5837153422272
 33
0
  0
SOLID
  5
174
100
AcDbEntity
  8
measure
  6
ByBlock
 62
    0
370
   -2
100
AcDbTrace
 10
302
 20
260
 30
0
 11
299.5
 21
259.5837153422272
 31
0
 12
299.5
 22
260.4162846577728
 32
0
 13
299.5
 23
260.4162846577728
 33
0
  0
MTEXT
  5
175
100
AcDbEntity
  8
measure
  6
CONTINUOUS
 62
    0
370
   -2
100
AcDbMText
 10
151
 20
263.25
 30
0
 40
2.5
 41
7.777777777777933
 71
    5
 72
    1
  1
302.0
  7
STANDARD
210
0
220
0
230
1
 50
0
 73
    2
 44
1
  0
LINE
  5
176
100
AcDbEntity
  8
measure
  6
ByBlock
 62
    0
370
   -2
100
AcDbLine
 10
3.061515884555943e-016
 20
249
 11
7.653789711389858e-017
 21
261.25
  0
LINE
  5
177
100
AcDbEntity
  8
measure
  6
ByBlock
 62
    0
370
   -2
100
AcDbLine
 10
302
 20
249
 11
302
 21
261.25
  0
ENDBLK
  5
90
330
8E
100
AcDbEntity
  8
0
100
AcDbBlockEnd
  0
BLOCK
  5
92
330
91
100
AcDbEntity
  8
0
100
AcDbBlockBegin
  2
*D19
 70
    1
 10
0
 20
0
  3
*D19
  1

  0
LINE
  5
178
100
AcDbEntity
  8
measure
  6
ByBlock
 62
    0
370
   -2
100
AcDbLine
 10
311
 20
260
 11
603
 21
260
  0
SOLID
  5
179
100
AcDbEntity
  8
measure
  6
ByBlock
 62
    0
370
   -2
100
AcDbTrace
 10
311
 20
260
 30
0
 11
313.5
 21
260.4162846577728
 31
0
 12
313.5
 22
259.5837153422272
 32
0
 13
313.5
 23
259.5837153422272
 33
0
  0
SOLID
  5
17A
100
AcDbEntity
  8
measure
  6
ByBlock
 62
    0
370
   -2
100
AcDbTrace
 10
603
 20
260
 30
0
 11
600.5
 21
259.5837153422272
 31
0
 12
600.5
 22
260.4162846577728
 32
0
 13
600.5
 23
260.4162846577728
 33
0
  0
MTEXT
  5
17B
100
AcDbEntity
  8
measure
  6
CONTINUOUS
 62
    0
370
   -2
100
AcDbMText
 10
457
 20
263.25
 30
0
 40
2.5
 41
7.777777777777779
 71
    5
 72
    1
  1
292.0
  7
STANDARD
210
0
220
0
230
1
 50
0
 73
    2
 44
1
  0
LINE
  5
17C
100
AcDbEntity
  8
measure
  6
ByBlock
 62
    0
370
   -2
100
AcDbLine
 10
311
 20
249
 11
311
 21
261.25
  0
LINE
  5
17D
100
AcDbEntity
  8
measure
  6
ByBlock
 62
    0
370
   -2
100
AcDbLine
 10
603
 20
249
 11
603
 21
261.25
  0
ENDBLK
  5
93
330
91
100
AcDbEntity
  8
0
100
AcDbBlockEnd
  0
BLOCK
  5
95
330
94
100
AcDbEntity
  8
0
100
AcDbBlockBegin
  2
*D27
 70
    1
 10
0
 20
0
  3
*D27
  1

  0
LINE
  5
17E
100
AcDbEntity
  8
measure
  6
ByBlock
 62
    0
370
   -2
100
AcDbLine
 10
30
 20
-120
 11
564.0000000000002
 21
-120
  0
SOLID
  5
17F
100
AcDbEntity
  8
measure
  6
ByBlock
 62
    0
370
   -2
100
AcDbTrace
 10
30
 20
-120
 30
0
 11
32.5
 21
-119.5837153422272
 31
0
 12
32.5
 22
-120.4162846577728
 32
0
 13
32.5
 23
-120.4162846577728
 33
0
  0
SOLID
  5
180
100
AcDbEntity
  8
measure
  6
ByBlock
 62
    0
370
   -2
100
AcDbTrace
 10
564.0000000000002
 20
-120
 30
0
 11
561.5000000000002
 21
-120.4162846577728
 31
0
 12
561.5000000000002
 22
-119.5837153422272
 32
0
 13
561.5000000000002
 23
-119.5837153422272
 33
0
  0
MTEXT
  5
181
100
AcDbEntity
  8
measure
  6
CONTINUOUS
 62
    0
370
   -2
100
AcDbMText
 10
297.0000000000001
 20
-118.125
 30
0
 40
2.5
 41
8.055555555555866
 71
    5
 72
    1
  1
534.0
  7
STANDARD
210
0
220
0
230
1
 50
0
 73
    2
 44
1
  0
LINE
  5
182
100
AcDbEntity
  8
measure
  6
ByBlock
 62
    0
370
   -2
100
AcDbLine
 10
30
 20
-125
 11
30
 21
-118.75
  0
LINE
  5
183
100
AcDbEntity
  8
measure
  6
ByBlock
 62
    0
370
   -2
100
AcDbLine
 10
564.0000000000002
 20
-125
 11
564.0000000000002
 21
-118.75
  0
ENDBLK
  5
96
330
94
100
AcDbEntity
  8
0
100
AcDbBlockEnd
  0
BLOCK
  5
98
330
97
100
AcDbEntity
  8
0
100
AcDbBlockBegin
  2
*D30
 70
    1
 10
0
 20
0
  3
*D30
  1

  0
LINE
  5
184
100
AcDbEntity
  8
measure
  6
ByBlock
 62
    0
370
   -2
100
AcDbLine
 10
1040
 20
150
 11
1360.860100072532
 21
150
  0
SOLID
  5
185
100
AcDbEntity
  8
measure
  6
ByBlock
 62
    0
370
   -2
100
AcDbTrace
 10
1040
 20
150
 30
0
 11
1042.5
 21
150.4162846577728
 31
0
 12
1042.5
 22
149.5837153422272
 32
0
 13
1042.5
 23
149.5837153422272
 33
0
  0
SOLID
  5
186
100
AcDbEntity
  8
measure
  6
ByBlock
 62
    0
370
   -2
100
AcDbTrace
 10
1360.860100072532
 20
150
 30
0
 11
1358.360100072532
 21
149.5837153422272
 31
0
 12
1358.360100072532
 22
150.4162846577728
 32
0
 13
1358.360100072532
 23
150.4162846577728
 33
0
  0
MTEXT
  5
187
100
AcDbEntity
  8
measure
  6
CONTINUOUS
 62
    0
370
   -2
100
AcDbMText
 10
1200.430050036266
 20
151.875
 30
0
 40
2.5
 41
7.777777777777933
 71
    5
 72
    1
  1
320.9
  7
STANDARD
210
0
220
0
230
1
 50
0
 73
    2
 44
1
  0
LINE
  5
188
100
AcDbEntity
  8
measure
  6
ByBlock
 62
    0
370
   -2
100
AcDbLine
 10
1040
 20
143.0000000000002
 11
1040
 21
151.25
  0
LINE
  5
189
100
AcDbEntity
  8
measure
  6
ByBlock
 62
    0
370
   -2
100
AcDbLine
 10
1360.860100072532
 20
142.9999999999999
 11
1360.860100072532
 21
151.25
  0
ENDBLK
  5
99
330
97
100
AcDbEntity
  8
0
100
AcDbBlockEnd
  0
BLOCK
  5
9B
330
9A
100
AcDbEntity
  8
0
100
AcDbBlockBegin
  2
*D34
 70
    1
 10
0
 20
0
  3
*D34
  1

  0
LINE
  5
18A
100
AcDbEntity
  8
measure
  6
ByBlock
 62
    0
370
   -2
100
AcDbLine
 10
1040
 20
-100
 11
1297.5088154183
 21
-100
  0
SOLID
  5
18B
100
AcDbEntity
  8
measure
  6
ByBlock
 62
    0
370
   -2
100
AcDbTrace
 10
1040
 20
-100
 30
0
 11
1042.5
 21
-99.58371534222717
 31
0
 12
1042.5
 22
-100.4162846577728
 32
0
 13
1042.5
 23
-100.4162846577728
 33
0
  0
SOLID
  5
18C
100
AcDbEntity
  8
measure
  6
ByBlock
 62
    0
370
   -2
100
AcDbTrace
 10
1297.5088154183
 20
-100
 30
0
 11
1295.0088154183
 21
-100.4162846577728
 31
0
 12
1295.0088154183
 22
-99.58371534222717
 32
0
 13
1295.0088154183
 23
-99.58371534222717
 33
0
  0
MTEXT
  5
18D
100
AcDbEntity
  8
measure
  6
CONTINUOUS
 62
    0
370
   -2
100
AcDbMText
 10
1168.75440770915
 20
-98.125
 30
0
 40
2.5
 41
7.777777777778089
 71
    5
 72
    1
  1
257.5
  7
STANDARD
210
0
220
0
230
1
 50
0
 73
    2
 44
1
  0
LINE
  5
18E
100
AcDbEntity
  8
measure
  6
ByBlock
 62
    0
370
   -2
100
AcDbLine
 10
1040
 20
-95
 11
1040
 21
-101.25
  0
LINE
  5
18F
100
AcDbEntity
  8
measure
  6
ByBlock
 62
    0
370
   -2
100
AcDbLine
 10
1297.5088154183
 20
-95.00000000000028
 11
1297.5088154183
 21
-101.25
  0
ENDBLK
  5
9C
330
9A
100
AcDbEntity
  8
0
100
AcDbBlockEnd
  0
BLOCK
  5
9E
330
9D
100
AcDbEntity
  8
0
100
AcDbBlockBegin
  2
*D15
 70
    1
 10
0
 20
0
  3
*D15
  1

  0
LINE
  5
190
100
AcDbEntity
  8
measure
  6
ByBlock
 62
    0
370
   -2
100
AcDbLine
 10
322
 20
20
 11
445
 21
20
  0
SOLID
  5
191
100
AcDbEntity
  8
measure
  6
ByBlock
 62
    0
370
   -2
100
AcDbTrace
 10
322
 20
20
 30
0
 11
324.5
 21
20.41628465777284
 31
0
 12
324.5
 22
19.58371534222716
 32
0
 13
324.5
 23
19.58371534222716
 33
0
  0
SOLID
  5
192
100
AcDbEntity
  8
measure
  6
ByBlock
 62
    0
370
   -2
100
AcDbTrace
 10
445
 20
20
 30
0
 11
442.5
 21
19.58371534222716
 31
0
 12
442.5
 22
20.41628465777284
 32
0
 13
442.5
 23
20.41628465777284
 33
0
  0
MTEXT
  5
193
100
AcDbEntity
  8
measure
  6
CONTINUOUS
 62
    0
370
   -2
100
AcDbMText
 10
383.5
 20
23.25
 30
0
 40
2.5
 41
7.222222222222378
 71
    5
 72
    1
  1
123.0
  7
STANDARD
210
0
220
0
230
1
 50
0
 73
    2
 44
1
  0
LINE
  5
194
100
AcDbEntity
  8
measure
  6
ByBlock
 62
    0
370
   -2
100
AcDbLine
 10
322
 20
16
 11
322
 21
21.25
  0
LINE
  5
195
100
AcDbEntity
  8
measure
  6
ByBlock
 62
    0
370
   -2
100
AcDbLine
 10
445
 20
16
 11
445
 21
21.25
  0
ENDBLK
  5
9F
330
9D
100
AcDbEntity
  8
0
100
AcDbBlockEnd
  0
BLOCK
  5
A1
330
A0
100
AcDbEntity
  8
0
100
AcDbBlockBegin
  2
*D32
 70
    1
 10
0
 20
0
  3
*D32
  1

  0
LINE
  5
196
100
AcDbEntity
  8
measure
  6
ByBlock
 62
    0
370
   -2
100
AcDbLine
 10
1040
 20
70
 11
1387.45305350107
 21
70
  0
SOLID
  5
197
100
AcDbEntity
  8
measure
  6
ByBlock
 62
    0
370
   -2
100
AcDbTrace
 10
1040
 20
70
 30
0
 11
1042.5
 21
70.41628465777283
 31
0
 12
1042.5
 22
69.58371534222717
 32
0
 13
1042.5
 23
69.58371534222717
 33
0
  0
SOLID
  5
198
100
AcDbEntity
  8
measure
  6
ByBlock
 62
    0
370
   -2
100
AcDbTrace
 10
1387.45305350107
 20
70
 30
0
 11
1384.95305350107
 21
69.58371534222717
 31
0
 12
1384.95305350107
 22
70.41628465777283
 32
0
 13
1384.95305350107
 23
70.41628465777283
 33
0
  0
MTEXT
  5
199
100
AcDbEntity
  8
measure
  6
CONTINUOUS
 62
    0
370
   -2
100
AcDbMText
 10
1213.726526750535
 20
71.875
 30
0
 40
2.5
 41
8.055555555555866
 71
    5
 72
    1
  1
347.5
  7
STANDARD
210
0
220
0
230
1
 50
0
 73
    2
 44
1
  0
LINE
  5
19A
100
AcDbEntity
  8
measure
  6
ByBlock
 62
    0
370
   -2
100
AcDbLine
 10
1040
 20
62.99999999999977
 11
1040
 21
71.25
  0
LINE
  5
19B
100
AcDbEntity
  8
measure
  6
ByBlock
 62
    0
370
   -2
100
AcDbLine
 10
1387.45305350107
 20
62.99999999999966
 11
1387.45305350107
 21
71.25
  0
ENDBLK
  5
A2
330
A0
100
AcDbEntity
  8
0
100
AcDbBlockEnd
  0
BLOCK
  5
A4
330
A3
100
AcDbEntity
  8
0
100
AcDbBlockBegin
  2
*D17
 70
    1
 10
0
 20
0
  3
*D17
  1

  0
LINE
  5
19C
100
AcDbEntity
  8
measure
  6
ByBlock
 62
    0
370
   -2
100
AcDbLine
 10
121
 20
30
 11
291
 21
30
  0
SOLID
  5
19D
100
AcDbEntity
  8
measure
  6
ByBlock
 62
    0
370
   -2
100
AcDbTrace
 10
121
 20
30
 30
0
 11
123.5
 21
30.41628465777284
 31
0
 12
123.5
 22
29.58371534222716
 32
0
 13
123.5
 23
29.58371534222716
 33
0
  0
SOLID
  5
19E
100
AcDbEntity
  8
measure
  6
ByBlock
 62
    0
370
   -2
100
AcDbTrace
 10
291
 20
30
 30
0
 11
288.5
 21
29.58371534222716
 31
0
 12
288.5
 22
30.41628465777284
 32
0
 13
288.5
 23
30.41628465777284
 33
0
  0
MTEXT
  5
19F
100
AcDbEntity
  8
measure
  6
CONTINUOUS
 62
    0
370
   -2
100
AcDbMText
 10
206
 20
33.25
 30
0
 40
2.5
 41
7.222222222222222
 71
    5
 72
    1
  1
170.0
  7
STANDARD
210
0
220
0
230
1
 50
0
 73
    2
 44
1
  0
LINE
  5
1A0
100
AcDbEntity
  8
measure
  6
ByBlock
 62
    0
370
   -2
100
AcDbLine
 10
121
 20
16
 11
121
 21
31.25
  0
LINE
  5
1A1
100
AcDbEntity
  8
measure
  6
ByBlock
 62
    0
370
   -2
100
AcDbLine
 10
291
 20
16
 11
291
 21
31.25
  0
ENDBLK
  5
A5
330
A3
100
AcDbEntity
  8
0
100
AcDbBlockEnd
  0
BLOCK
  5
A7
330
A6
100
AcDbEntity
  8
0
100
AcDbBlockBegin
  2
*D41
 70
    1
 10
0
 20
0
  3
*D41
  1

  0
LINE
  5
1A2
100
AcDbEntity
  8
measure
  6
ByBlock
 62
    0
370
   -2
100
AcDbLine
 10
700
 20
240
 11
730
 21
240
  0
SOLID
  5
1A3
100
AcDbEntity
  8
measure
  6
ByBlock
 62
    0
370
   -2
100
AcDbTrace
 10
700
 20
240
 30
0
 11
702.5
 21
240.4162846577728
 31
0
 12
702.5
 22
239.5837153422272
 32
0
 13
702.5
 23
239.5837153422272
 33
0
  0
SOLID
  5
1A4
100
AcDbEntity
  8
measure
  6
ByBlock
 62
    0
370
   -2
100
AcDbTrace
 10
730
 20
240
 30
0
 11
727.5
 21
239.5837153422272
 31
0
 12
727.5
 22
240.4162846577728
 32
0
 13
727.5
 23
240.4162846577728
 33
0
  0
MTEXT
  5
1A5
100
AcDbEntity
  8
measure
  6
CONTINUOUS
 62
    0
370
   -2
100
AcDbMText
 10
715
 20
241.875
 30
0
 40
2.5
 41
5.833333333333488
 71
    5
 72
    1
  1
30.0
  7
STANDARD
210
0
220
0
230
1
 50
0
 73
    2
 44
1
  0
LINE
  5
1A6
100
AcDbEntity
  8
measure
  6
ByBlock
 62
    0
370
   -2
100
AcDbLine
 10
700
 20
245
 11
700
 21
241.25
  0
LINE
  5
1A7
100
AcDbEntity
  8
measure
  6
ByBlock
 62
    0
370
   -2
100
AcDbLine
 10
730
 20
245
 11
730
 21
241.25
  0
ENDBLK
  5
A8
330
A6
100
AcDbEntity
  8
0
100
AcDbBlockEnd
  0
BLOCK
  5
AA
330
A9
100
AcDbEntity
  8
0
100
AcDbBlockBegin
  2
*D31
 70
    1
 10
0
 20
0
  3
*D31
  1

  0
LINE
  5
1A8
100
AcDbEntity
  8
measure
  6
ByBlock
 62
    0
370
   -2
100
AcDbLine
 10
1040
 20
80
 11
1367.014150990582
 21
80
  0
SOLID
  5
1A9
100
AcDbEntity
  8
measure
  6
ByBlock
 62
    0
370
   -2
100
AcDbTrace
 10
1040
 20
80
 30
0
 11
1042.5
 21
80.41628465777283
 31
0
 12
1042.5
 22
79.58371534222717
 32
0
 13
1042.5
 23
79.58371534222717
 33
0
  0
SOLID
  5
1AA
100
AcDbEntity
  8
measure
  6
ByBlock
 62
    0
370
   -2
100
AcDbTrace
 10
1367.014150990582
 20
80
 30
0
 11
1364.514150990582
 21
79.58371534222717
 31
0
 12
1364.514150990582
 22
80.41628465777283
 32
0
 13
1364.514150990582
 23
80.41628465777283
 33
0
  0
MTEXT
  5
1AB
100
AcDbEntity
  8
measure
  6
CONTINUOUS
 62
    0
370
   -2
100
AcDbMText
 10
1203.507075495291
 20
81.875
 30
0
 40
2.5
 41
7.777777777777933
 71
    5
 72
    1
  1
327.0
  7
STANDARD
210
0
220
0
230
1
 50
0
 73
    2
 44
1
  0
LINE
  5
1AC
100
AcDbEntity
  8
measure
  6
ByBlock
 62
    0
370
   -2
100
AcDbLine
 10
1040
 20
85
 11
1040
 21
78.75
  0
LINE
  5
1AD
100
AcDbEntity
  8
measure
  6
ByBlock
 62
    0
370
   -2
100
AcDbLine
 10
1367.014150990582
 20
85.00000000000011
 11
1367.014150990582
 21
78.75
  0
ENDBLK
  5
AB
330
A9
100
AcDbEntity
  8
0
100
AcDbBlockEnd
  0
BLOCK
  5
AD
330
AC
100
AcDbEntity
  8
0
100
AcDbBlockBegin
  2
*D26
 70
    1
 10
0
 20
0
  3
*D26
  1

  0
LINE
  5
1AE
100
AcDbEntity
  8
measure
  6
ByBlock
 62
    0
370
   -2
100
AcDbLine
 10
130
 20
11
 11
130
 21
88
  0
SOLID
  5
1AF
100
AcDbEntity
  8
measure
  6
ByBlock
 62
    0
370
   -2
100
AcDbTrace
 10
130
 20
11
 30
0
 11
129.5837153422272
 21
13.5
 31
0
 12
130.4162846577728
 22
13.5
 32
0
 13
130.4162846577728
 23
13.5
 33
0
  0
SOLID
  5
1B0
100
AcDbEntity
  8
measure
  6
ByBlock
 62
    0
370
   -2
100
AcDbTrace
 10
130
 20
88
 30
0
 11
130.4162846577728
 21
85.5
 31
0
 12
129.5837153422272
 22
85.5
 32
0
 13
129.5837153422272
 23
85.5
 33
0
  0
MTEXT
  5
1B1
100
AcDbEntity
  8
measure
  6
CONTINUOUS
 62
    0
370
   -2
100
AcDbMText
 10
126.75
 20
49.5
 30
0
 40
2.5
 41
5.833333333333334
 71
    5
 72
    1
  1
77.0
  7
STANDARD
210
0
220
0
230
1
 50
90
 73
    2
 44
1
  0
LINE
  5
1B2
100
AcDbEntity
  8
measure
  6
ByBlock
 62
    0
370
   -2
100
AcDbLine
 10
126
 20
11
 11
131.25
 21
11
  0
LINE
  5
1B3
100
AcDbEntity
  8
measure
  6
ByBlock
 62
    0
370
   -2
100
AcDbLine
 10
126
 20
88
 11
131.25
 21
88
  0
ENDBLK
  5
AE
330
AC
100
AcDbEntity
  8
0
100
AcDbBlockEnd
  0
BLOCK
  5
B0
330
AF
100
AcDbEntity
  8
0
100
AcDbBlockBegin
  2
*D8
 70
    1
 10
0
 20
0
  3
*D8
  1

  0
LINE
  5
1B4
100
AcDbEntity
  8
measure
  6
ByBlock
 62
    0
370
   -2
100
AcDbLine
 10
467
 20
330
 11
592
 21
330
  0
SOLID
  5
1B5
100
AcDbEntity
  8
measure
  6
ByBlock
 62
    0
370
   -2
100
AcDbTrace
 10
467
 20
330
 30
0
 11
469.5
 21
330.4162846577728
 31
0
 12
469.5
 22
329.5837153422272
 32
0
 13
469.5
 23
329.5837153422272
 33
0
  0
SOLID
  5
1B6
100
AcDbEntity
  8
measure
  6
ByBlock
 62
    0
370
   -2
100
AcDbTrace
 10
592
 20
330
 30
0
 11
589.5
 21
329.5837153422272
 31
0
 12
589.5
 22
330.4162846577728
 32
0
 13
589.5
 23
330.4162846577728
 33
0
  0
MTEXT
  5
1B7
100
AcDbEntity
  8
measure
  6
CONTINUOUS
 62
    0
370
   -2
100
AcDbMText
 10
529.5
 20
333.25
 30
0
 40
2.5
 41
7.222222222222378
 71
    5
 72
    1
  1
125.0
  7
STANDARD
210
0
220
0
230
1
 50
0
 73
    2
 44
1
  0
LINE
  5
1B8
100
AcDbEntity
  8
measure
  6
ByBlock
 62
    0
370
   -2
100
AcDbLine
 10
467
 20
331
 11
467
 21
328.75
  0
LINE
  5
1B9
100
AcDbEntity
  8
measure
  6
ByBlock
 62
    0
370
   -2
100
AcDbLine
 10
592
 20
331
 11
592
 21
328.75
  0
ENDBLK
  5
B1
330
AF
100
AcDbEntity
  8
0
100
AcDbBlockEnd
  0
BLOCK
  5
B3
330
B2
100
AcDbEntity
  8
0
100
AcDbBlockBegin
  2
*D11
 70
    1
 10
0
 20
0
  3
*D11
  1

  0
LINE
  5
1BA
100
AcDbEntity
  8
measure
  6
ByBlock
 62
    0
370
   -2
100
AcDbLine
 10
-20
 20
233
 11
-20.00000000000001
 21
110
  0
SOLID
  5
1BB
100
AcDbEntity
  8
measure
  6
ByBlock
 62
    0
370
   -2
100
AcDbTrace
 10
-20
 20
233
 30
0
 11
-19.58371534222716
 21
230.5
 31
0
 12
-20.41628465777285
 22
230.5
 32
0
 13
-20.41628465777285
 23
230.5
 33
0
  0
SOLID
  5
1BC
100
AcDbEntity
  8
measure
  6
ByBlock
 62
    0
370
   -2
100
AcDbTrace
 10
-20.00000000000001
 20
110
 30
0
 11
-20.41628465777285
 21
112.5
 31
0
 12
-19.58371534222717
 22
112.5
 32
0
 13
-19.58371534222717
 23
112.5
 33
0
  0
MTEXT
  5
1BD
100
AcDbEntity
  8
measure
  6
CONTINUOUS
 62
    0
370
   -2
100
AcDbMText
 10
-23.25
 20
171.5
 30
0
 40
2.5
 41
7.222222222222378
 71
    5
 72
    1
  1
123.0
  7
STANDARD
210
0
220
0
230
1
 50
90
 73
    2
 44
1
  0
LINE
  5
1BE
100
AcDbEntity
  8
measure
  6
ByBlock
 62
    0
370
   -2
100
AcDbLine
 10
-5
 20
233
 11
-21.25
 21
233
  0
LINE
  5
1BF
100
AcDbEntity
  8
measure
  6
ByBlock
 62
    0
370
   -2
100
AcDbLine
 10
-5
 20
110
 11
-21.25000000000001
 21
110
  0
ENDBLK
  5
B4
330
B2
100
AcDbEntity
  8
0
100
AcDbBlockEnd
  0
BLOCK
  5
B6
330
B5
100
AcDbEntity
  8
0
100
AcDbBlockBegin
  2
*D25
 70
    1
 10
0
 20
0
  3
*D25
  1

  0
LINE
  5
1C0
100
AcDbEntity
  8
measure
  6
ByBlock
 62
    0
370
   -2
100
AcDbLine
 10
699.3641576057621
 20
322.2124013082954
 11
692.7673590589455
 21
373.6657179063818
  0
LINE
  5
1C1
100
AcDbEntity
  8
measure
  6
ByBlock
 62
    0
370
   -2
100
AcDbLine
 10
954.7822926793326
 20
354.9594056548834
 11
948.1854941325161
 21
406.4127222529698
  0
LINE
  5
1C2
100
AcDbEntity
  8
measure
  6
ByBlock
 62
    0
370
   -2
100
AcDbLine
 10
692.926319657505
 20
372.4258664926609
 11
948.3444547310755
 21
405.1728708392489
  0
SOLID
  5
1C3
100
AcDbEntity
  8
measure
  6
ByBlock
 62
    0
370
   -2
100
AcDbTrace
 10
692.926319657505
 20
372.4258664926609
 30
0
 11
695.3530841982501
 21
373.1566925869398
 31
0
 12
695.4589607716433
 22
372.3308827926198
 32
0
 13
695.4589607716433
 23
372.3308827926198
 33
0
  0
SOLID
  5
1C4
100
AcDbEntity
  8
measure
  6
ByBlock
 62
    0
370
   -2
100
AcDbTrace
 10
948.3444547310755
 20
405.1728708392489
 30
0
 11
945.9176901903304
 21
404.44204474497
 31
0
 12
945.8118136169372
 22
405.2678545392899
 32
0
 13
945.8118136169372
 23
405.2678545392899
 33
0
  0
MTEXT
  5
1C5
100
AcDbEntity
  8
measure
  6
CONTINUOUS
 62
    0
370
   -2
100
AcDbMText
 10
820.2220896380358
 20
392.0229823416291
 30
0
 40
2.5
 41
7.777777777778089
 71
    5
 72
    1
  1
257.5
  7
STANDARD
210
0
220
0
230
1
 50
7.305999999999918
 73
    2
 44
1
  0
ENDBLK
  5
B7
330
B5
100
AcDbEntity
  8
0
100
AcDbBlockEnd
  0
BLOCK
  5
B9
330
B8
100
AcDbEntity
  8
0
100
AcDbBlockBegin
  2
*D40
 70
    1
 10
0
 20
0
  3
*D40
  1

  0
LINE
  5
1C6
100
AcDbEntity
  8
measure
  6
ByBlock
 62
    0
370
   -2
100
AcDbLine
 10
730
 20
240
 11
925.4181350735705
 21
240
  0
SOLID
  5
1C7
100
AcDbEntity
  8
measure
  6
ByBlock
 62
    0
370
   -2
100
AcDbTrace
 10
730
 20
240
 30
0
 11
732.5
 21
240.4162846577728
 31
0
 12
732.5
 22
239.5837153422272
 32
0
 13
732.5
 23
239.5837153422272
 33
0
  0
SOLID
  5
1C8
100
AcDbEntity
  8
measure
  6
ByBlock
 62
    0
370
   -2
100
AcDbTrace
 10
925.4181350735705
 20
240
 30
0
 11
922.9181350735705
 21
239.5837153422272
 31
0
 12
922.9181350735705
 22
240.4162846577728
 32
0
 13
922.9181350735705
 23
240.4162846577728
 33
0
  0
MTEXT
  5
1C9
100
AcDbEntity
  8
measure
  6
CONTINUOUS
 62
    0
370
   -2
100
AcDbMText
 10
827.7090675367853
 20
241.875
 30
0
 40
2.5
 41
7.500000000000155
 71
    5
 72
    1
  1
195.4
  7
STANDARD
210
0
220
0
230
1
 50
0
 73
    2
 44
1
  0
LINE
  5
1CA
100
AcDbEntity
  8
measure
  6
ByBlock
 62
    0
370
   -2
100
AcDbLine
 10
730
 20
226
 11
730
 21
241.25
  0
LINE
  5
1CB
100
AcDbEntity
  8
measure
  6
ByBlock
 62
    0
370
   -2
100
AcDbLine
 10
925.4181350735705
 20
225.8809254602195
 11
925.4181350735705
 21
241.25
  0
ENDBLK
  5
BA
330
B8
100
AcDbEntity
  8
0
100
AcDbBlockEnd
  0
BLOCK
  5
BC
330
BB
100
AcDbEntity
  8
0
100
AcDbBlockBegin
  2
*D16
 70
    1
 10
0
 20
0
  3
*D16
  1

  0
LINE
  5
1CC
100
AcDbEntity
  8
measure
  6
ByBlock
 62
    0
370
   -2
100
AcDbLine
 10
467
 20
20
 11
592
 21
20
  0
SOLID
  5
1CD
100
AcDbEntity
  8
measure
  6
ByBlock
 62
    0
370
   -2
100
AcDbTrace
 10
467
 20
20
 30
0
 11
469.5
 21
20.41628465777284
 31
0
 12
469.5
 22
19.58371534222716
 32
0
 13
469.5
 23
19.58371534222716
 33
0
  0
SOLID
  5
1CE
100
AcDbEntity
  8
measure
  6
ByBlock
 62
    0
370
   -2
100
AcDbTrace
 10
592
 20
20
 30
0
 11
589.5
 21
19.58371534222716
 31
0
 12
589.5
 22
20.41628465777284
 32
0
 13
589.5
 23
20.41628465777284
 33
0
  0
MTEXT
  5
1CF
100
AcDbEntity
  8
measure
  6
CONTINUOUS
 62
    0
370
   -2
100
AcDbMText
 10
529.5
 20
23.25
 30
0
 40
2.5
 41
7.222222222222378
 71
    5
 72
    1
  1
125.0
  7
STANDARD
210
0
220
0
230
1
 50
0
 73
    2
 44
1
  0
LINE
  5
1D0
100
AcDbEntity
  8
measure
  6
ByBlock
 62
    0
370
   -2
100
AcDbLine
 10
467
 20
16
 11
467
 21
21.25
  0
LINE
  5
1D1
100
AcDbEntity
  8
measure
  6
ByBlock
 62
    0
370
   -2
100
AcDbLine
 10
592
 20
16
 11
592
 21
21.25
  0
ENDBLK
  5
BD
330
BB
100
AcDbEntity
  8
0
100
AcDbBlockEnd
  0
BLOCK
  5
BF
330
BE
100
AcDbEntity
  8
0
100
AcDbBlockBegin
  2
*D38
 70
    1
 10
0
 20
0
  3
*D38
  1

  0
LINE
  5
1D2
100
AcDbEntity
  8
measure
  6
ByBlock
 62
    0
370
   -2
100
AcDbLine
 10
1507
 20
-31
 11
1340
 21
-31
  0
SOLID
  5
1D3
100
AcDbEntity
  8
measure
  6
ByBlock
 62
    0
370
   -2
100
AcDbTrace
 10
1507
 20
-31
 30
0
 11
1504.5
 21
-31.41628465777284
 31
0
 12
1504.5
 22
-30.58371534222716
 32
0
 13
1504.5
 23
-30.58371534222716
 33
0
  0
SOLID
  5
1D4
100
AcDbEntity
  8
measure
  6
ByBlock
 62
    0
370
   -2
100
AcDbTrace
 10
1340
 20
-31
 30
0
 11
1342.5
 21
-30.58371534222716
 31
0
 12
1342.5
 22
-31.41628465777284
 32
0
 13
1342.5
 23
-31.41628465777284
 33
0
  0
MTEXT
  5
1D5
100
AcDbEntity
  8
measure
  6
CONTINUOUS
 62
    0
370
   -2
100
AcDbMText
 10
1423.5
 20
-29.125
 30
0
 40
2.5
 41
7.222222222222378
 71
    5
 72
    1
  1
167.0
  7
STANDARD
210
0
220
0
230
1
 50
360
 73
    2
 44
1
  0
LINE
  5
1D6
100
AcDbEntity
  8
measure
  6
ByBlock
 62
    0
370
   -2
100
AcDbLine
 10
1507
 20
-37
 11
1507
 21
-29.75
  0
LINE
  5
1D7
100
AcDbEntity
  8
measure
  6
ByBlock
 62
    0
370
   -2
100
AcDbLine
 10
1340
 20
-38
 11
1340
 21
-29.75
  0
ENDBLK
  5
C0
330
BE
100
AcDbEntity
  8
0
100
AcDbBlockEnd
  0
BLOCK
  5
C2
330
C1
100
AcDbEntity
  8
0
100
AcDbBlockBegin
  2
*D22
 70
    1
 10
0
 20
0
  3
*D22
  1

  0
LINE
  5
1D8
100
AcDbEntity
  8
measure
  6
ByBlock
 62
    0
370
   -2
100
AcDbLine
 10
975.4181350735706
 20
-100
 11
975.4181350735706
 21
350
  0
SOLID
  5
1D9
100
AcDbEntity
  8
measure
  6
ByBlock
 62
    0
370
   -2
100
AcDbTrace
 10
975.4181350735706
 20
-100
 30
0
 11
975.0018504157978
 21
-97.5
 31
0
 12
975.8344197313435
 22
-97.5
 32
0
 13
975.8344197313435
 23
-97.5
 33
0
  0
SOLID
  5
1DA
100
AcDbEntity
  8
measure
  6
ByBlock
 62
    0
370
   -2
100
AcDbTrace
 10
975.4181350735706
 20
350
 30
0
 11
975.8344197313435
 21
347.5
 31
0
 12
975.0018504157978
 22
347.5
 32
0
 13
975.0018504157978
 23
347.5
 33
0
  0
MTEXT
  5
1DB
100
AcDbEntity
  8
measure
  6
CONTINUOUS
 62
    0
370
   -2
100
AcDbMText
 10
972.1681350735706
 20
125
 30
0
 40
2.5
 41
8.055555555555712
 71
    5
 72
    1
  1
450.0
  7
STANDARD
210
0
220
0
230
1
 50
90
 73
    2
 44
1
  0
LINE
  5
1DC
100
AcDbEntity
  8
measure
  6
ByBlock
 62
    0
370
   -2
100
AcDbLine
 10
960.4181350735706
 20
-100
 11
976.6681350735706
 21
-100
  0
LINE
  5
1DD
100
AcDbEntity
  8
measure
  6
ByBlock
 62
    0
370
   -2
100
AcDbLine
 10
960.4181350735706
 20
350
 11
976.6681350735706
 21
350
  0
ENDBLK
  5
C3
330
C1
100
AcDbEntity
  8
0
100
AcDbBlockEnd
  0
BLOCK
  5
C5
330
C4
100
AcDbEntity
  8
0
100
AcDbBlockBegin
  2
*D37
 70
    1
 10
0
 20
0
  3
*D37
  1

  0
LINE
  5
1DE
100
AcDbEntity
  8
measure
  6
ByBlock
 62
    0
370
   -2
100
AcDbLine
 10
1340
 20
-97
 11
1500.717945104893
 21
-97
  0
SOLID
  5
1DF
100
AcDbEntity
  8
measure
  6
ByBlock
 62
    0
370
   -2
100
AcDbTrace
 10
1340
 20
-97
 30
0
 11
1342.5
 21
-96.58371534222717
 31
0
 12
1342.5
 22
-97.41628465777283
 32
0
 13
1342.5
 23
-97.41628465777283
 33
0
  0
SOLID
  5
1E0
100
AcDbEntity
  8
measure
  6
ByBlock
 62
    0
370
   -2
100
AcDbTrace
 10
1500.717945104893
 20
-97
 30
0
 11
1498.217945104893
 21
-97.41628465777283
 31
0
 12
1498.217945104893
 22
-96.58371534222717
 32
0
 13
1498.217945104893
 23
-96.58371534222717
 33
0
  0
MTEXT
  5
1E1
100
AcDbEntity
  8
measure
  6
CONTINUOUS
 62
    0
370
   -2
100
AcDbMText
 10
1420.358972552447
 20
-95.125
 30
0
 40
2.5
 41
7.222222222222378
 71
    5
 72
    1
  1
160.7
  7
STANDARD
210
0
220
0
230
1
 50
0
 73
    2
 44
1
  0
LINE
  5
1E2
100
AcDbEntity
  8
measure
  6
ByBlock
 62
    0
370
   -2
100
AcDbLine
 10
1340
 20
-95
 11
1340
 21
-98.25
  0
LINE
  5
1E3
100
AcDbEntity
  8
measure
  6
ByBlock
 62
    0
370
   -2
100
AcDbLine
 10
1500.717945104893
 20
-95.00002208066365
 11
1500.717945104893
 21
-98.25
  0
ENDBLK
  5
C6
330
C4
100
AcDbEntity
  8
0
100
AcDbBlockEnd
  0
BLOCK
  5
C8
330
C7
100
AcDbEntity
  8
0
100
AcDbBlockBegin
  2
*D28
 70
    1
 10
0
 20
0
  3
*D28
  1

  0
LINE
  5
1E4
100
AcDbEntity
  8
measure
  6
ByBlock
 62
    0
370
   -2
100
AcDbLine
 10
30
 20
-150
 11
280
 21
-150
  0
SOLID
  5
1E5
100
AcDbEntity
  8
measure
  6
ByBlock
 62
    0
370
   -2
100
AcDbTrace
 10
30
 20
-150
 30
0
 11
32.5
 21
-149.5837153422272
 31
0
 12
32.5
 22
-150.4162846577728
 32
0
 13
32.5
 23
-150.4162846577728
 33
0
  0
SOLID
  5
1E6
100
AcDbEntity
  8
measure
  6
ByBlock
 62
    0
370
   -2
100
AcDbTrace
 10
280
 20
-150
 30
0
 11
277.5
 21
-150.4162846577728
 31
0
 12
277.5
 22
-149.5837153422272
 32
0
 13
277.5
 23
-149.5837153422272
 33
0
  0
MTEXT
  5
1E7
100
AcDbEntity
  8
measure
  6
CONTINUOUS
 62
    0
370
   -2
100
AcDbMText
 10
155
 20
-148.125
 30
0
 40
2.5
 41
7.777777777777934
 71
    5
 72
    1
  1
250.0
  7
STANDARD
210
0
220
0
230
1
 50
0
 73
    2
 44
1
  0
LINE
  5
1E8
100
AcDbEntity
  8
measure
  6
ByBlock
 62
    0
370
   -2
100
AcDbLine
 10
30
 20
-145
 11
30
 21
-148.75
  0
LINE
  5
1E9
100
AcDbEntity
  8
measure
  6
ByBlock
 62
    0
370
   -2
100
AcDbLine
 10
280
 20
-145
 11
280
 21
-148.75
  0
ENDBLK
  5
C9
330
C7
100
AcDbEntity
  8
0
100
AcDbBlockEnd
  0
BLOCK
  5
CB
330
CA
100
AcDbEntity
  8
0
100
AcDbBlockBegin
  2
*D39
 70
    1
 10
0
 20
0
  3
*D39
  1

  0
LINE
  5
1EA
100
AcDbEntity
  8
measure
  6
ByBlock
 62
    0
370
   -2
100
AcDbLine
 10
1351.152323175239
 20
-40
 11
1335
 21
-40
  0
SOLID
  5
1EB
100
AcDbEntity
  8
measure
  6
ByBlock
 62
    0
370
   -2
100
AcDbTrace
 10
1346.152323175239
 20
-40
 30
0
 11
1348.652323175239
 21
-39.58371534222716
 31
0
 12
1348.652323175239
 22
-40.41628465777284
 32
0
 13
1348.652323175239
 23
-40.41628465777284
 33
0
  0
SOLID
  5
1EC
100
AcDbEntity
  8
measure
  6
ByBlock
 62
    0
370
   -2
100
AcDbTrace
 10
1340
 20
-40
 30
0
 11
1337.5
 21
-40.41628465777284
 31
0
 12
1337.5
 22
-39.58371534222716
 32
0
 13
1337.5
 23
-39.58371534222716
 33
0
  0
MTEXT
  5
1ED
100
AcDbEntity
  8
measure
  6
CONTINUOUS
 62
    0
370
   -2
100
AcDbMText
 10
1343.07616158762
 20
-38.125
 30
0
 40
2.5
 41
3.888888888889044
 71
    5
 72
    1
  1
6.2
  7
STANDARD
210
0
220
0
230
1
 50
360
 73
    2
 44
1
  0
LINE
  5
1EE
100
AcDbEntity
  8
measure
  6
ByBlock
 62
    0
370
   -2
100
AcDbLine
 10
1346.152323175239
 20
-36.98923124762041
 11
1346.152323175239
 21
-38.75
  0
LINE
  5
1EF
100
AcDbEntity
  8
measure
  6
ByBlock
 62
    0
370
   -2
100
AcDbLine
 10
1340
 20
-37
 11
1340
 21
-38.75
  0
ENDBLK
  5
CC
330
CA
100
AcDbEntity
  8
0
100
AcDbBlockEnd
  0
BLOCK
  5
CE
330
CD
100
AcDbEntity
  8
0
100
AcDbBlockBegin
  2
*D20
 70
    1
 10
0
 20
0
  3
*D20
  1

  0
LINE
  5
1F0
100
AcDbEntity
  8
measure
  6
ByBlock
 62
    0
370
   -2
100
AcDbLine
 10
0
 20
-80
 11
594.0000000000002
 21
-80
  0
SOLID
  5
1F1
100
AcDbEntity
  8
measure
  6
ByBlock
 62
    0
370
   -2
100
AcDbTrace
 10
0
 20
-80
 30
0
 11
2.5
 21
-79.58371534222717
 31
0
 12
2.5
 22
-80.41628465777283
 32
0
 13
2.5
 23
-80.41628465777283
 33
0
  0
SOLID
  5
1F2
100
AcDbEntity
  8
measure
  6
ByBlock
 62
    0
370
   -2
100
AcDbTrace
 10
594.0000000000002
 20
-80
 30
0
 11
591.5000000000002
 21
-80.41628465777283
 31
0
 12
591.5000000000002
 22
-79.58371534222717
 32
0
 13
591.5000000000002
 23
-79.58371534222717
 33
0
  0
MTEXT
  5
1F3
100
AcDbEntity
  8
measure
  6
CONTINUOUS
 62
    0
370
   -2
100
AcDbMText
 10
297.0000000000001
 20
-76.75
 30
0
 40
2.5
 41
8.05555555555571
 71
    5
 72
    1
  1
594.0
  7
STANDARD
210
0
220
0
230
1
 50
0
 73
    2
 44
1
  0
LINE
  5
1F4
100
AcDbEntity
  8
measure
  6
ByBlock
 62
    0
370
   -2
100
AcDbLine
 10
3.061515884555943e-016
 20
-95
 11
7.653789711389858e-017
 21
-78.75
  0
LINE
  5
1F5
100
AcDbEntity
  8
measure
  6
ByBlock
 62
    0
370
   -2
100
AcDbLine
 10
594.0000000000002
 20
-95
 11
594.0000000000002
 21
-78.75
  0
ENDBLK
  5
CF
330
CD
100
AcDbEntity
  8
0
100
AcDbBlockEnd
  0
BLOCK
  5
D1
330
D0
100
AcDbEntity
  8
0
100
AcDbBlockBegin
  2
*D14
 70
    1
 10
0
 20
0
  3
*D14
  1

  0
LINE
  5
1F6
100
AcDbEntity
  8
measure
  6
ByBlock
 62
    0
370
   -2
100
AcDbLine
 10
160
 20
399.9703025810068
 11
160
 21
419.4165941293163
  0
SOLID
  5
1F7
100
AcDbEntity
  8
measure
  6
ByBlock
 62
    0
370
   -2
100
AcDbTrace
 10
160
 20
399.9703025810068
 30
0
 11
159.5837153422272
 21
402.4703025810068
 31
0
 12
160.4162846577728
 22
402.4703025810068
 32
0
 13
160.4162846577728
 23
402.4703025810068
 33
0
  0
SOLID
  5
1F8
100
AcDbEntity
  8
measure
  6
ByBlock
 62
    0
370
   -2
100
AcDbTrace
 10
160
 20
419.4165941293163
 30
0
 11
160.4162846577728
 21
416.9165941293163
 31
0
 12
159.5837153422272
 22
416.9165941293163
 32
0
 13
159.5837153422272
 23
416.9165941293163
 33
0
  0
MTEXT
  5
1F9
100
AcDbEntity
  8
measure
  6
CONTINUOUS
 62
    0
370
   -2
100
AcDbMText
 10
156.75
 20
409.6934483551615
 30
0
 40
2.5
 41
5.555555555555555
 71
    5
 72
    1
  1
19.4
  7
STANDARD
210
0
220
0
230
1
 50
90
 73
    2
 44
1
  0
LINE
  5
1FA
100
AcDbEntity
  8
measure
  6
ByBlock
 62
    0
370
   -2
100
AcDbLine
 10
151
 20
399.9703025810068
 11
161.25
 21
399.9703025810068
  0
LINE
  5
1FB
100
AcDbEntity
  8
measure
  6
ByBlock
 62
    0
370
   -2
100
AcDbLine
 10
151.0256101470929
 20
419.4165941293163
 11
161.25
 21
419.4165941293163
  0
ENDBLK
  5
D2
330
D0
100
AcDbEntity
  8
0
100
AcDbBlockEnd
  0
BLOCK
  5
D4
330
D3
100
AcDbEntity
  8
0
100
AcDbBlockBegin
  2
snsr_pwr_styrene
 70
    0
 10
0
 20
0
  3
snsr_pwr_styrene
  1

  0
CIRCLE
  5
1FC
100
AcDbEntity
  8
0
  6
ByLayer
 62
  256
370
   -1
100
AcDbCircle
 10
25
 20
17
 40
6
  0
CIRCLE
  5
1FD
100
AcDbEntity
  8
0
  6
ByLayer
 62
  256
370
   -1
100
AcDbCircle
 10
89
 20
17
 40
6
  0
CIRCLE
  5
1FE
100
AcDbEntity
  8
0
  6
ByLayer
 62
  256
370
   -1
100
AcDbCircle
 10
57
 20
17
 40
6
  0
CIRCLE
  5
1FF
100
AcDbEntity
  8
0
  6
ByLayer
 62
  256
370
   -1
100
AcDbCircle
 10
121
 20
17
 40
6
  0
LINE
  5
200
100
AcDbEntity
  8
0
  6
ByLayer
 62
  256
370
   -1
100
AcDbLine
 10
5
 20
15
 11
0
 21
15
  0
LINE
  5
201
100
AcDbEntity
  8
0
  6
ByLayer
 62
  256
370
   -1
100
AcDbLine
 10
10
 20
0
 11
10
 21
10
  0
ARC
  5
202
100
AcDbEntity
  8
0
  6
ByLayer
 62
  256
370
   -1
100
AcDbCircle
 10
5
 20
10
 40
5
100
AcDbArc
 50
0
 51
90
  0
LINE
  5
203
100
AcDbEntity
  8
0
  6
ByLayer
 62
  256
370
   -1
100
AcDbLine
 10
140
 20
23
 11
145
 21
23
  0
LINE
  5
204
100
AcDbEntity
  8
0
  6
ByLayer
 62
  256
370
   -1
100
AcDbLine
 10
135
 20
38
 11
135
 21
28
  0
ARC
  5
205
100
AcDbEntity
  8
0
  6
ByLayer
 62
  256
370
   -1
100
AcDbCircle
 10
140
 20
28
 40
5
100
AcDbArc
 50
180
 51
270
  0
LINE
  5
206
100
AcDbEntity
  8
0
  6
ByLayer
 62
  256
370
   -1
100
AcDbLine
 10
0
 20
38
 11
0
 21
15
  0
LINE
  5
207
100
AcDbEntity
  8
0
  6
ByLayer
 62
  256
370
   -1
100
AcDbLine
 10
10
 20
0
 11
145
 21
0
  0
LINE
  5
208
100
AcDbEntity
  8
0
  6
ByLayer
 62
  256
370
   -1
100
AcDbLine
 10
135
 20
38
 11
0
 21
38
  0
LINE
  5
209
100
AcDbEntity
  8
0
  6
ByLayer
 62
  256
370
   -1
100
AcDbLine
 10
145
 20
0
 11
145
 21
23
  0
ENDBLK
  5
D5
330
D3
100
AcDbEntity
  8
0
100
AcDbBlockEnd
  0
BLOCK
  5
D7
330
D6
100
AcDbEntity
  8
0
100
AcDbBlockBegin
  2
hud_sw_styrene
 70
    0
 10
0
 20
0
  3
hud_sw_styrene
  1

  0
LINE
  5
20A
100
AcDbEntity
  8
0
  6
ByLayer
 62
  256
370
   -1
100
AcDbLine
 10
5
 20
15
 11
0
 21
15
  0
LINE
  5
20B
100
AcDbEntity
  8
0
  6
ByLayer
 62
  256
370
   -1
100
AcDbLine
 10
10
 20
0
 11
10
 21
10
  0
ARC
  5
20C
100
AcDbEntity
  8
0
  6
ByLayer
 62
  256
370
   -1
100
AcDbCircle
 10
5
 20
10
 40
5
100
AcDbArc
 50
0
 51
90
  0
LINE
  5
20D
100
AcDbEntity
  8
0
  6
ByLayer
 62
  256
370
   -1
100
AcDbLine
 10
5
 20
52
 11
0
 21
52
  0
LINE
  5
20E
100
AcDbEntity
  8
0
  6
ByLayer
 62
  256
370
   -1
100
AcDbLine
 10
10
 20
67
 11
10
 21
57
  0
ARC
  5
20F
100
AcDbEntity
  8
0
  6
ByLayer
 62
  256
370
   -1
100
AcDbCircle
 10
5
 20
57
 40
5
100
AcDbArc
 50
270
 51
360
  0
LINE
  5
210
100
AcDbEntity
  8
0
  6
ByLayer
 62
  256
370
   -1
100
AcDbLine
 10
140
 20
15
 11
145
 21
15
  0
LINE
  5
211
100
AcDbEntity
  8
0
  6
ByLayer
 62
  256
370
   -1
100
AcDbLine
 10
135
 20
0
 11
135
 21
10
  0
ARC
  5
212
100
AcDbEntity
  8
0
  6
ByLayer
 62
  256
370
   -1
100
AcDbCircle
 10
140
 20
10
 40
5
100
AcDbArc
 50
90
 51
180
  0
LINE
  5
213
100
AcDbEntity
  8
0
  6
ByLayer
 62
  256
370
   -1
100
AcDbLine
 10
10
 20
0
 11
135
 21
0
  0
LINE
  5
214
100
AcDbEntity
  8
0
  6
ByLayer
 62
  256
370
   -1
100
AcDbLine
 10
140
 20
52
 11
145
 21
52
  0
LINE
  5
215
100
AcDbEntity
  8
0
  6
ByLayer
 62
  256
370
   -1
100
AcDbLine
 10
135
 20
67
 11
135
 21
57
  0
ARC
  5
216
100
AcDbEntity
  8
0
  6
ByLayer
 62
  256
370
   -1
100
AcDbCircle
 10
140
 20
57
 40
5
100
AcDbArc
 50
180
 51
270
  0
LINE
  5
217
100
AcDbEntity
  8
0
  6
ByLayer
 62
  256
370
   -1
100
AcDbLine
 10
145
 20
15
 11
145
 21
52
  0
LINE
  5
218
100
AcDbEntity
  8
0
  6
ByLayer
 62
  256
370
   -1
100
AcDbLine
 10
135
 20
67
 11
10
 21
67
  0
LINE
  5
219
100
AcDbEntity
  8
0
  6
ByLayer
 62
  256
370
   -1
100
AcDbLine
 10
0
 20
52
 11
0
 21
15
  0
CIRCLE
  5
21A
100
AcDbEntity
  8
0
  6
ByLayer
 62
  256
370
   -1
100
AcDbCircle
 10
25
 20
51
 40
6
  0
CIRCLE
  5
21B
100
AcDbEntity
  8
0
  6
ByLayer
 62
  256
370
   -1
100
AcDbCircle
 10
89
 20
51
 40
6
  0
CIRCLE
  5
21C
100
AcDbEntity
  8
0
  6
ByLayer
 62
  256
370
   -1
100
AcDbCircle
 10
57
 20
51
 40
6
  0
CIRCLE
  5
21D
100
AcDbEntity
  8
0
  6
ByLayer
 62
  256
370
   -1
100
AcDbCircle
 10
121
 20
51
 40
6
  0
CIRCLE
  5
21E
100
AcDbEntity
  8
0
  6
ByLayer
 62
  256
370
   -1
100
AcDbCircle
 10
25
 20
16
 40
6
  0
CIRCLE
  5
21F
100
AcDbEntity
  8
0
  6
ByLayer
 62
  256
370
   -1
100
AcDbCircle
 10
89
 20
16
 40
6
  0
CIRCLE
  5
220
100
AcDbEntity
  8
0
  6
ByLayer
 62
  256
370
   -1
100
AcDbCircle
 10
57
 20
16
 40
6
  0
CIRCLE
  5
221
100
AcDbEntity
  8
0
  6
ByLayer
 62
  256
370
   -1
100
AcDbCircle
 10
121
 20
16
 40
6
  0
ENDBLK
  5
D8
330
D6
100
AcDbEntity
  8
0
100
AcDbBlockEnd
  0
BLOCK
  5
DA
330
D9
100
AcDbEntity
  8
0
100
AcDbBlockBegin
  2
int_lighting_styrene
 70
    0
 10
0
 20
0
  3
int_lighting_styrene
  1

  0
LINE
  5
222
100
AcDbEntity
  8
0
  6
ByLayer
 62
  256
370
   -1
100
AcDbLine
 10
0
 20
100
 11
5
 21
100
  0
LINE
  5
223
100
AcDbEntity
  8
0
  6
ByLayer
 62
  256
370
   -1
100
AcDbLine
 10
10
 20
105
 11
10
 21
115
  0
ARC
  5
224
100
AcDbEntity
  8
0
  6
ByLayer
 62
  256
370
   -1
100
AcDbCircle
 10
5
 20
105
 40
5
100
AcDbArc
 50
270
 51
0
  0
LINE
  5
225
100
AcDbEntity
  8
0
  6
ByLayer
 62
  256
370
   -1
100
AcDbLine
 10
135
 20
115
 11
135
 21
105
  0
LINE
  5
226
100
AcDbEntity
  8
0
  6
ByLayer
 62
  256
370
   -1
100
AcDbLine
 10
140
 20
100
 11
145
 21
100
  0
ARC
  5
227
100
AcDbEntity
  8
0
  6
ByLayer
 62
  256
370
   -1
100
AcDbCircle
 10
140
 20
105
 40
5
100
AcDbArc
 50
180
 51
270
  0
LINE
  5
228
100
AcDbEntity
  8
0
  6
ByLayer
 62
  256
370
   -1
100
AcDbLine
 10
140
 20
15
 11
145
 21
15
  0
LINE
  5
229
100
AcDbEntity
  8
0
  6
ByLayer
 62
  256
370
   -1
100
AcDbLine
 10
135
 20
0
 11
135
 21
10
  0
ARC
  5
22A
100
AcDbEntity
  8
0
  6
ByLayer
 62
  256
370
   -1
100
AcDbCircle
 10
140
 20
10
 40
5
100
AcDbArc
 50
90
 51
180
  0
LINE
  5
22B
100
AcDbEntity
  8
0
  6
ByLayer
 62
  256
370
   -1
100
AcDbLine
 10
5
 20
15
 11
0
 21
15
  0
LINE
  5
22C
100
AcDbEntity
  8
0
  6
ByLayer
 62
  256
370
   -1
100
AcDbLine
 10
10
 20
0
 11
10
 21
10
  0
ARC
  5
22D
100
AcDbEntity
  8
0
  6
ByLayer
 62
  256
370
   -1
100
AcDbCircle
 10
5
 20
10
 40
5
100
AcDbArc
 50
0
 51
90
  0
LINE
  5
22E
100
AcDbEntity
  8
0
  6
ByLayer
 62
  256
370
   -1
100
AcDbLine
 10
0
 20
15
 11
0
 21
100
  0
LINE
  5
22F
100
AcDbEntity
  8
0
  6
ByLayer
 62
  256
370
   -1
100
AcDbLine
 10
10
 20
115
 11
135
 21
115
  0
LINE
  5
230
100
AcDbEntity
  8
0
  6
ByLayer
 62
  256
370
   -1
100
AcDbLine
 10
10
 20
0
 11
135
 21
0
  0
LINE
  5
231
100
AcDbEntity
  8
0
  6
ByLayer
 62
  256
370
   -1
100
AcDbLine
 10
145
 20
15
 11
145
 21
100
  0
CIRCLE
  5
232
100
AcDbEntity
  8
0
  6
ByLayer
 62
  256
370
   -1
100
AcDbCircle
 10
25
 20
85
 40
3.5
  0
CIRCLE
  5
233
100
AcDbEntity
  8
0
  6
ByLayer
 62
  256
370
   -1
100
AcDbCircle
 10
70
 20
85
 40
3.5
  0
CIRCLE
  5
234
100
AcDbEntity
  8
0
  6
ByLayer
 62
  256
370
   -1
100
AcDbCircle
 10
120
 20
85
 40
3.5
  0
CIRCLE
  5
235
100
AcDbEntity
  8
0
  6
ByLayer
 62
  256
370
   -1
100
AcDbCircle
 10
25
 20
25
 40
3.5
  0
CIRCLE
  5
236
100
AcDbEntity
  8
0
  6
ByLayer
 62
  256
370
   -1
100
AcDbCircle
 10
75
 20
25
 40
3.5
  0
CIRCLE
  5
237
100
AcDbEntity
  8
0
  6
ByLayer
 62
  256
370
   -1
100
AcDbCircle
 10
120
 20
25
 40
3
  0
ENDBLK
  5
DB
330
D9
100
AcDbEntity
  8
0
100
AcDbBlockEnd
  0
BLOCK
  5
DD
330
DC
100
AcDbEntity
  8
0
100
AcDbBlockBegin
  2
nucelar_consent_styrene
 70
    0
 10
0
 20
0
  3
nucelar_consent_styrene
  1

  0
LINE
  5
238
100
AcDbEntity
  8
0
  6
ByLayer
 62
  256
370
   -1
100
AcDbLine
 10
0
 20
136
 11
10
 21
136
  0
LINE
  5
239
100
AcDbEntity
  8
0
  6
ByLayer
 62
  256
370
   -1
100
AcDbLine
 10
15
 20
146
 11
15
 21
141
  0
ARC
  5
23A
100
AcDbEntity
  8
0
  6
ByLayer
 62
  256
370
   -1
100
AcDbCircle
 10
10
 20
141
 40
5
100
AcDbArc
 50
270
 51
0
  0
LINE
  5
23B
100
AcDbEntity
  8
0
  6
ByLayer
 62
  256
370
   -1
100
AcDbLine
 10
25
 20
5
 11
25
 21
0
  0
LINE
  5
23C
100
AcDbEntity
  8
0
  6
ByLayer
 62
  256
370
   -1
100
AcDbLine
 10
40
 20
10
 11
30
 21
10
  0
ARC
  5
23D
100
AcDbEntity
  8
0
  6
ByLayer
 62
  256
370
   -1
100
AcDbCircle
 10
30
 20
5
 40
5
100
AcDbArc
 50
90
 51
180
  0
CIRCLE
  5
23E
100
AcDbEntity
  8
0
  6
ByLayer
 62
  256
370
   -1
100
AcDbCircle
 10
20
 20
35
 40
6
  0
CIRCLE
  5
23F
100
AcDbEntity
  8
0
  6
ByLayer
 62
  256
370
   -1
100
AcDbCircle
 10
17
 20
100
 40
6
  0
LINE
  5
240
100
AcDbEntity
  8
0
  6
ByLayer
 62
  256
370
   -1
100
AcDbLine
 10
0
 20
0
 11
25
 21
0
  0
LINE
  5
241
100
AcDbEntity
  8
0
  6
ByLayer
 62
  256
370
   -1
100
AcDbLine
 10
40
 20
10
 11
40
 21
146
  0
LINE
  5
242
100
AcDbEntity
  8
0
  6
ByLayer
 62
  256
370
   -1
100
AcDbLine
 10
40
 20
146
 11
15
 21
146
  0
LINE
  5
243
100
AcDbEntity
  8
0
  6
ByLayer
 62
  256
370
   -1
100
AcDbLine
 10
0
 20
136
 11
0
 21
0
  0
CIRCLE
  5
244
100
AcDbEntity
  8
0
  6
ByLayer
 62
  256
370
   -1
100
AcDbCircle
 10
10
 20
15
 40
1.5
  0
CIRCLE
  5
245
100
AcDbEntity
  8
0
  6
ByLayer
 62
  256
370
   -1
100
AcDbCircle
 10
30
 20
130
 40
1.5
  0
ENDBLK
  5
DE
330
DC
100
AcDbEntity
  8
0
100
AcDbBlockEnd
  0
BLOCK
  5
E0
330
DF
100
AcDbEntity
  8
0
100
AcDbBlockBegin
  2
zeroize_styrene
 70
    0
 10
0
 20
0
  3
zeroize_styrene
  1

  0
LWPOLYLINE
  5
246
100
AcDbEntity
  8
0
  6
ByLayer
 62
  256
370
   -1
100
AcDbPolyline
 90
    8
 70
    1
 43
0
 10
5
 20
0
 10
71
 20
-8.881784197001252e-016
 42
0.414213562373095
 10
76
 20
5
 10
76
 20
196.5
 42
0.414213562373095
 10
71
 20
201.5
 10
5
 20
201.5
 42
0.414213562373095
 10
-8.881784197001252e-016
 20
196.5
 10
0
 20
5.000000000000003
 42
0.414213562373095
  0
CIRCLE
  5
247
100
AcDbEntity
  8
0
  6
ByLayer
 62
  256
370
   -1
100
AcDbCircle
 10
5
 20
5
 40
2
  0
CIRCLE
  5
248
100
AcDbEntity
  8
0
  6
ByLayer
 62
  256
370
   -1
100
AcDbCircle
 10
71
 20
5
 40
2
  0
CIRCLE
  5
249
100
AcDbEntity
  8
0
  6
ByLayer
 62
  256
370
   -1
100
AcDbCircle
 10
5
 20
196.5
 40
2
  0
CIRCLE
  5
24A
100
AcDbEntity
  8
0
  6
ByLayer
 62
  256
370
   -1
100
AcDbCircle
 10
71
 20
196.5
 40
2
  0
CIRCLE
  5
24B
100
AcDbEntity
  8
0
  6
ByLayer
 62
  256
370
   -1
100
AcDbCircle
 10
48
 20
40
 40
6
  0
CIRCLE
  5
24C
100
AcDbEntity
  8
0
  6
ByLayer
 62
  256
370
   -1
100
AcDbCircle
 10
48
 20
170
 40
6
  0
ENDBLK
  5
E1
330
DF
100
AcDbEntity
  8
0
100
AcDbBlockEnd
  0
BLOCK
  5
E3
330
E2
100
AcDbEntity
  8
0
100
AcDbBlockBegin
  2
aircond_styrene
 70
    0
 10
0
 20
0
  3
aircond_styrene
  1

  0
LINE
  5
24D
100
AcDbEntity
  8
0
  6
ByLayer
 62
  256
370
   -1
100
AcDbLine
 10
135
 20
0
 11
135
 21
10
  0
LINE
  5
24E
100
AcDbEntity
  8
0
  6
ByLayer
 62
  256
370
   -1
100
AcDbLine
 10
140
 20
15
 11
145
 21
15
  0
ARC
  5
24F
100
AcDbEntity
  8
0
  6
ByLayer
 62
  256
370
   -1
100
AcDbCircle
 10
140
 20
10
 40
5
100
AcDbArc
 50
90
 51
180
  0
LINE
  5
250
100
AcDbEntity
  8
0
  6
ByLayer
 62
  256
370
   -1
100
AcDbLine
 10
140
 20
42
 11
145
 21
42
  0
LINE
  5
251
100
AcDbEntity
  8
0
  6
ByLayer
 62
  256
370
   -1
100
AcDbLine
 10
135
 20
47
 11
135
 21
57
  0
ARC
  5
252
100
AcDbEntity
  8
0
  6
ByLayer
 62
  256
370
   -1
100
AcDbCircle
 10
140
 20
47
 40
5
100
AcDbArc
 50
180
 51
270
  0
LINE
  5
253
100
AcDbEntity
  8
0
  6
ByLayer
 62
  256
370
   -1
100
AcDbLine
 10
1
 20
15
 11
0
 21
15
  0
LINE
  5
254
100
AcDbEntity
  8
0
  6
ByLayer
 62
  256
370
   -1
100
AcDbLine
 10
5
 20
15
 11
1
 21
15
  0
LINE
  5
255
100
AcDbEntity
  8
0
  6
ByLayer
 62
  256
370
   -1
100
AcDbLine
 10
10
 20
0
 11
10
 21
10
  0
ARC
  5
256
100
AcDbEntity
  8
0
  6
ByLayer
 62
  256
370
   -1
100
AcDbCircle
 10
5
 20
10
 40
5
100
AcDbArc
 50
0
 51
90
  0
LINE
  5
257
100
AcDbEntity
  8
0
  6
ByLayer
 62
  256
370
   -1
100
AcDbLine
 10
5
 20
42
 11
0
 21
42
  0
LINE
  5
258
100
AcDbEntity
  8
0
  6
ByLayer
 62
  256
370
   -1
100
AcDbLine
 10
10
 20
57
 11
10
 21
47
  0
ARC
  5
259
100
AcDbEntity
  8
0
  6
ByLayer
 62
  256
370
   -1
100
AcDbCircle
 10
5
 20
47
 40
5
100
AcDbArc
 50
270
 51
0
  0
LINE
  5
25A
100
AcDbEntity
  8
0
  6
ByLayer
 62
  256
370
   -1
100
AcDbLine
 10
0
 20
15
 11
0
 21
42
  0
LINE
  5
25B
100
AcDbEntity
  8
0
  6
ByLayer
 62
  256
370
   -1
100
AcDbLine
 10
10
 20
57
 11
135
 21
57
  0
LINE
  5
25C
100
AcDbEntity
  8
0
  6
ByLayer
 62
  256
370
   -1
100
AcDbLine
 10
145
 20
42
 11
145
 21
15
  0
LINE
  5
25D
100
AcDbEntity
  8
0
  6
ByLayer
 62
  256
370
   -1
100
AcDbLine
 10
10
 20
0
 11
135
 21
0
  0
CIRCLE
  5
25E
100
AcDbEntity
  8
0
  6
ByLayer
 62
  256
370
   -1
100
AcDbCircle
 10
109
 20
28
 40
5
  0
CIRCLE
  5
25F
100
AcDbEntity
  8
0
  6
ByLayer
 62
  256
370
   -1
100
AcDbCircle
 10
43
 20
28
 40
5
  0
ENDBLK
  5
E4
330
E2
100
AcDbEntity
  8
0
100
AcDbBlockEnd
  0
BLOCK
  5
E6
330
E5
100
AcDbEntity
  8
0
100
AcDbBlockBegin
  2
antiice_styrene
 70
    0
 10
0
 20
0
  3
antiice_styrene
  1

  0
CIRCLE
  5
260
100
AcDbEntity
  8
0
  6
ByLayer
 62
  256
370
   -1
100
AcDbCircle
 10
40
 20
20
 40
6
  0
CIRCLE
  5
261
100
AcDbEntity
  8
0
  6
ByLayer
 62
  256
370
   -1
100
AcDbCircle
 10
86
 20
20
 40
6
  0
CIRCLE
  5
262
100
AcDbEntity
  8
0
  6
ByLayer
 62
  256
370
   -1
100
AcDbCircle
 10
116
 20
20
 40
6
  0
LWPOLYLINE
  5
263
100
AcDbEntity
  8
0
  6
ByLayer
 62
  256
370
   -1
100
AcDbPolyline
 90
    4
 70
    0
 43
0
 10
10
 20
0
 10
10
 20
10
 42
0.414213562373095
 10
5.000000000000002
 20
15
 10
0
 20
15
  0
LWPOLYLINE
  5
264
100
AcDbEntity
  8
0
  6
ByLayer
 62
  256
370
   -1
100
AcDbPolyline
 90
    4
 70
    0
 43
0
 10
135
 20
39
 10
135
 20
29
 42
0.414213562373095
 10
140
 20
24
 10
145
 20
24
  0
LINE
  5
265
100
AcDbEntity
  8
0
  6
ByLayer
 62
  256
370
   -1
100
AcDbLine
 10
10
 20
0
 11
145
 21
0
  0
LINE
  5
266
100
AcDbEntity
  8
0
  6
ByLayer
 62
  256
370
   -1
100
AcDbLine
 10
145
 20
0
 11
145
 21
24
  0
LINE
  5
267
100
AcDbEntity
  8
0
  6
ByLayer
 62
  256
370
   -1
100
AcDbLine
 10
135
 20
39
 11
0
 21
39
  0
LINE
  5
268
100
AcDbEntity
  8
0
  6
ByLayer
 62
  256
370
   -1
100
AcDbLine
 10
0
 20
39
 11
0
 21
15
  0
ENDBLK
  5
E7
330
E5
100
AcDbEntity
  8
0
100
AcDbBlockEnd
  0
BLOCK
  5
E9
330
E8
100
AcDbEntity
  8
0
100
AcDbBlockBegin
  2
oxygen_styrene
 70
    0
 10
0
 20
0
  3
oxygen_styrene
  1

  0
LINE
  5
269
100
AcDbEntity
  8
0
  6
ByLayer
 62
  256
370
   -1
100
AcDbLine
 10
135
 20
76
 11
135
 21
66
  0
LINE
  5
26A
100
AcDbEntity
  8
0
  6
ByLayer
 62
  256
370
   -1
100
AcDbLine
 10
140
 20
61
 11
145
 21
61
  0
ARC
  5
26B
100
AcDbEntity
  8
0
  6
ByLayer
 62
  256
370
   -1
100
AcDbCircle
 10
140
 20
66
 40
5
100
AcDbArc
 50
180
 51
270
  0
LINE
  5
26C
100
AcDbEntity
  8
0
  6
ByLayer
 62
  256
370
   -1
100
AcDbLine
 10
10
 20
0
 11
10
 21
10
  0
LINE
  5
26D
100
AcDbEntity
  8
0
  6
ByLayer
 62
  256
370
   -1
100
AcDbLine
 10
5
 20
15
 11
0
 21
15
  0
ARC
  5
26E
100
AcDbEntity
  8
0
  6
ByLayer
 62
  256
370
   -1
100
AcDbCircle
 10
5
 20
10
 40
5
100
AcDbArc
 50
0
 51
90
  0
CIRCLE
  5
26F
100
AcDbEntity
  8
0
  6
ByLayer
 62
  256
370
   -1
100
AcDbCircle
 10
24
 20
19
 40
6
  0
CIRCLE
  5
270
100
AcDbEntity
  8
0
  6
ByLayer
 62
  256
370
   -1
100
AcDbCircle
 10
73
 20
18
 40
6
  0
CIRCLE
  5
271
100
AcDbEntity
  8
0
  6
ByLayer
 62
  256
370
   -1
100
AcDbCircle
 10
119
 20
18
 40
6
  0
LINE
  5
272
100
AcDbEntity
  8
0
  6
ByLayer
 62
  256
370
   -1
100
AcDbLine
 10
140
 20
15
 11
145
 21
15
  0
LINE
  5
273
100
AcDbEntity
  8
0
  6
ByLayer
 62
  256
370
   -1
100
AcDbLine
 10
135
 20
0
 11
135
 21
10
  0
ARC
  5
274
100
AcDbEntity
  8
0
  6
ByLayer
 62
  256
370
   -1
100
AcDbCircle
 10
140
 20
10
 40
5
100
AcDbArc
 50
90
 51
180
  0
LINE
  5
275
100
AcDbEntity
  8
0
  6
ByLayer
 62
  256
370
   -1
100
AcDbLine
 10
5
 20
61
 11
0
 21
61
  0
LINE
  5
276
100
AcDbEntity
  8
0
  6
ByLayer
 62
  256
370
   -1
100
AcDbLine
 10
10
 20
76
 11
10
 21
66
  0
ARC
  5
277
100
AcDbEntity
  8
0
  6
ByLayer
 62
  256
370
   -1
100
AcDbCircle
 10
5
 20
66
 40
5
100
AcDbArc
 50
270
 51
0
  0
CIRCLE
  5
278
100
AcDbEntity
  8
0
  6
ByLayer
 62
  256
370
   -1
100
AcDbCircle
 10
113
 20
52
 40
18
  0
LWPOLYLINE
  5
279
100
AcDbEntity
  8
0
  6
ByLayer
 62
  256
370
   -1
100
AcDbPolyline
 90
    8
 70
    1
 43
0
 10
33
 20
56
 10
43
 20
56
 42
-0.414213562373095
 10
46
 20
53
 10
46
 20
53
 42
-0.414213562373095
 10
43
 20
50
 10
33
 20
50
 42
-0.414213562373095
 10
30
 20
53
 10
30
 20
53
 42
-0.414213562373095
  0
LINE
  5
27A
100
AcDbEntity
  8
0
  6
ByLayer
 62
  256
370
   -1
100
AcDbLine
 10
10
 20
76
 11
135
 21
76
  0
LINE
  5
27B
100
AcDbEntity
  8
0
  6
ByLayer
 62
  256
370
   -1
100
AcDbLine
 10
145
 20
61
 11
145
 21
15
  0
LINE
  5
27C
100
AcDbEntity
  8
0
  6
ByLayer
 62
  256
370
   -1
100
AcDbLine
 10
135
 20
0
 11
10
 21
0
  0
LINE
  5
27D
100
AcDbEntity
  8
0
  6
ByLayer
 62
  256
370
   -1
100
AcDbLine
 10
0
 20
15
 11
0
 21
61
  0
ENDBLK
  5
EA
330
E8
100
AcDbEntity
  8
0
100
AcDbBlockEnd
  0
BLOCK
  5
EC
330
EB
100
AcDbEntity
  8
0
100
AcDbBlockBegin
  2
ky58_styrene
 70
    0
 10
0
 20
0
  3
ky58_styrene
  1

  0
LINE
  5
27E
100
AcDbEntity
  8
0
  6
ByLayer
 62
  256
370
   -1
100
AcDbLine
 10
130
 20
0
 11
140
 21
18
  0
LINE
  5
27F
100
AcDbEntity
  8
0
  6
ByLayer
 62
  256
370
   -1
100
AcDbLine
 10
15
 20
0
 11
5
 21
18
  0
LINE
  5
280
100
AcDbEntity
  8
0
  6
ByLayer
 62
  256
370
   -1
100
AcDbLine
 10
0
 20
109
 11
5
 21
109
  0
LINE
  5
281
100
AcDbEntity
  8
0
  6
ByLayer
 62
  256
370
   -1
100
AcDbLine
 10
15
 20
120
 11
15
 21
124
  0
LINE
  5
282
100
AcDbEntity
  8
0
  6
ByLayer
 62
  256
370
   -1
100
AcDbLine
 10
145
 20
109
 11
140
 21
109
  0
LINE
  5
283
100
AcDbEntity
  8
0
  6
ByLayer
 62
  256
370
   -1
100
AcDbLine
 10
130
 20
120
 11
130
 21
124
  0
LINE
  5
284
100
AcDbEntity
  8
0
  6
ByLayer
 62
  256
370
   -1
100
AcDbLine
 10
5
 20
109
 11
15
 21
119
  0
LINE
  5
285
100
AcDbEntity
  8
0
  6
ByLayer
 62
  256
370
   -1
100
AcDbLine
 10
15
 20
119
 11
15
 21
120
  0
LINE
  5
286
100
AcDbEntity
  8
0
  6
ByLayer
 62
  256
370
   -1
100
AcDbLine
 10
130
 20
120
 11
130
 21
119
  0
LINE
  5
287
100
AcDbEntity
  8
0
  6
ByLayer
 62
  256
370
   -1
100
AcDbLine
 10
130
 20
119
 11
140
 21
109
  0
LINE
  5
288
100
AcDbEntity
  8
0
  6
ByLayer
 62
  256
370
   -1
100
AcDbLine
 10
140
 20
67
 11
145
 21
67
  0
ARC
  5
289
100
AcDbEntity
  8
0
  6
ByLayer
 62
  256
370
   -1
100
AcDbCircle
 10
140
 20
62
 40
5
100
AcDbArc
 50
90
 51
180
  0
LINE
  5
28A
100
AcDbEntity
  8
0
  6
ByLayer
 62
  256
370
   -1
100
AcDbLine
 10
145
 20
57
 11
140
 21
57
  0
LINE
  5
28B
100
AcDbEntity
  8
0
  6
ByLayer
 62
  256
370
   -1
100
AcDbLine
 10
135
 20
62
 11
135
 21
62
  0
ARC
  5
28C
100
AcDbEntity
  8
0
  6
ByLayer
 62
  256
370
   -1
100
AcDbCircle
 10
140
 20
62
 40
5
100
AcDbArc
 50
180
 51
270
  0
LINE
  5
28D
100
AcDbEntity
  8
0
  6
ByLayer
 62
  256
370
   -1
100
AcDbLine
 10
5
 20
67
 11
0
 21
67
  0
ARC
  5
28E
100
AcDbEntity
  8
0
  6
ByLayer
 62
  256
370
   -1
100
AcDbCircle
 10
5
 20
62
 40
5
100
AcDbArc
 50
0
 51
90
  0
LINE
  5
28F
100
AcDbEntity
  8
0
  6
ByLayer
 62
  256
370
   -1
100
AcDbLine
 10
0
 20
57
 11
5
 21
57
  0
LINE
  5
290
100
AcDbEntity
  8
0
  6
ByLayer
 62
  256
370
   -1
100
AcDbLine
 10
10
 20
62
 11
10
 21
62
  0
ARC
  5
291
100
AcDbEntity
  8
0
  6
ByLayer
 62
  256
370
   -1
100
AcDbCircle
 10
5
 20
62
 40
5
100
AcDbArc
 50
270
 51
0
  0
LWPOLYLINE
  5
292
100
AcDbEntity
  8
0
  6
ByLayer
 62
  256
370
   -1
100
AcDbPolyline
 90
    8
 70
    1
 43
0
 10
17
 20
10
 10
47
 20
10
 42
0.414213562373095
 10
50
 20
13
 10
50
 20
13
 42
0.414213562373095
 10
47
 20
16
 10
17
 20
16
 42
0.414213562373095
 10
14
 20
13
 10
14
 20
13
 42
0.414213562373095
  0
LWPOLYLINE
  5
293
100
AcDbEntity
  8
0
  6
ByLayer
 62
  256
370
   -1
100
AcDbPolyline
 90
    8
 70
    1
 43
0
 10
58
 20
10
 10
88
 20
10
 42
0.414213562373095
 10
91
 20
13
 10
91
 20
13
 42
0.414213562373095
 10
88
 20
16
 10
58
 20
16
 42
0.414213562373095
 10
55
 20
13
 10
55
 20
13
 42
0.414213562373095
  0
LWPOLYLINE
  5
294
100
AcDbEntity
  8
0
  6
ByLayer
 62
  256
370
   -1
100
AcDbPolyline
 90
    8
 70
    1
 43
0
 10
98
 20
10
 10
128
 20
10
 42
0.414213562373095
 10
131
 20
13
 10
131
 20
13
 42
0.414213562373095
 10
128
 20
16
 10
98
 20
16
 42
0.414213562373095
 10
95
 20
13
 10
95
 20
13
 42
0.414213562373095
  0
LWPOLYLINE
  5
295
100
AcDbEntity
  8
0
  6
ByLayer
 62
  256
370
   -1
100
AcDbPolyline
 90
    8
 70
    1
 43
0
 10
17
 20
30
 10
47
 20
30
 42
0.414213562373095
 10
50
 20
33
 10
50
 20
33
 42
0.414213562373095
 10
47
 20
36
 10
17
 20
36
 42
0.414213562373095
 10
14
 20
33
 10
14
 20
33
 42
0.414213562373095
  0
LWPOLYLINE
  5
296
100
AcDbEntity
  8
0
  6
ByLayer
 62
  256
370
   -1
100
AcDbPolyline
 90
    8
 70
    1
 43
0
 10
58
 20
30
 10
88
 20
30
 42
0.414213562373095
 10
91
 20
33
 10
91
 20
33
 42
0.414213562373095
 10
88
 20
36
 10
58
 20
36
 42
0.414213562373095
 10
55
 20
33
 10
55
 20
33
 42
0.414213562373095
  0
LWPOLYLINE
  5
297
100
AcDbEntity
  8
0
  6
ByLayer
 62
  256
370
   -1
100
AcDbPolyline
 90
    8
 70
    1
 43
0
 10
98
 20
30
 10
128
 20
30
 42
0.414213562373095
 10
131
 20
33
 10
131
 20
33
 42
0.414213562373095
 10
128
 20
36
 10
98
 20
36
 42
0.414213562373095
 10
95
 20
33
 10
95
 20
33
 42
0.414213562373095
  0
LWPOLYLINE
  5
298
100
AcDbEntity
  8
0
  6
ByLayer
 62
  256
370
   -1
100
AcDbPolyline
 90
    8
 70
    1
 43
0
 10
62
 20
20
 10
92
 20
20
 42
0.414213562373095
 10
95
 20
23
 10
95
 20
23
 42
0.414213562373095
 10
92
 20
26
 10
62
 20
26
 42
0.414213562373095
 10
59
 20
23
 10
59
 20
23
 42
0.414213562373095
  0
CIRCLE
  5
299
100
AcDbEntity
  8
0
  6
ByLayer
 62
  256
370
   -1
100
AcDbCircle
 10
114
 20
23
 40
1.75
  0
CIRCLE
  5
29A
100
AcDbEntity
  8
0
  6
ByLayer
 62
  256
370
   -1
100
AcDbCircle
 10
72
 20
77
 40
10
  0
LINE
  5
29B
100
AcDbEntity
  8
0
  6
ByLayer
 62
  256
370
   -1
100
AcDbLine
 10
15
 20
124
 11
130
 21
124
  0
LINE
  5
29C
100
AcDbEntity
  8
0
  6
ByLayer
 62
  256
370
   -1
100
AcDbLine
 10
0
 20
109
 11
0
 21
67
  0
LINE
  5
29D
100
AcDbEntity
  8
0
  6
ByLayer
 62
  256
370
   -1
100
AcDbLine
 10
0
 20
50
 11
0
 21
57
  0
LINE
  5
29E
100
AcDbEntity
  8
0
  6
ByLayer
 62
  256
370
   -1
100
AcDbLine
 10
15
 20
0
 11
130
 21
0
  0
LINE
  5
29F
100
AcDbEntity
  8
0
  6
ByLayer
 62
  256
370
   -1
100
AcDbLine
 10
145
 20
50
 11
145
 21
57
  0
LINE
  5
2A0
100
AcDbEntity
  8
0
  6
ByLayer
 62
  256
370
   -1
100
AcDbLine
 10
145
 20
67
 11
145
 21
109
  0
CIRCLE
  5
2A1
100
AcDbEntity
  8
0
  6
ByLayer
 62
  256
370
   -1
100
AcDbCircle
 10
30
 20
95
 40
5
  0
CIRCLE
  5
2A2
100
AcDbEntity
  8
0
  6
ByLayer
 62
  256
370
   -1
100
AcDbCircle
 10
115
 20
95
 40
5
  0
CIRCLE
  5
2A3
100
AcDbEntity
  8
0
  6
ByLayer
 62
  256
370
   -1
100
AcDbCircle
 10
115
 20
54
 40
5
  0
CIRCLE
  5
2A4
100
AcDbEntity
  8
0
  6
ByLayer
 62
  256
370
   -1
100
AcDbCircle
 10
30
 20
54
 40
3.5
  0
LINE
  5
2A5
100
AcDbEntity
  8
0
  6
ByLayer
 62
  256
370
   -1
100
AcDbLine
 10
0
 20
50
 11
0
 21
47
  0
LINE
  5
2A6
100
AcDbEntity
  8
0
  6
ByLayer
 62
  256
370
   -1
100
AcDbLine
 10
0
 20
47
 11
5
 21
47
  0
LINE
  5
2A7
100
AcDbEntity
  8
0
  6
ByLayer
 62
  256
370
   -1
100
AcDbLine
 10
5
 20
47
 11
5
 21
18
  0
LINE
  5
2A8
100
AcDbEntity
  8
0
  6
ByLayer
 62
  256
370
   -1
100
AcDbLine
 10
145
 20
50
 11
145
 21
47
  0
LINE
  5
2A9
100
AcDbEntity
  8
0
  6
ByLayer
 62
  256
370
   -1
100
AcDbLine
 10
145
 20
47
 11
140
 21
47
  0
LINE
  5
2AA
100
AcDbEntity
  8
0
  6
ByLayer
 62
  256
370
   -1
100
AcDbLine
 10
140
 20
47
 11
140
 21
18
  0
CIRCLE
  5
2AB
100
AcDbEntity
  8
0
  6
ByLayer
 62
  256
370
   -1
100
AcDbCircle
 10
5
 20
52
 40
1
  0
CIRCLE
  5
2AC
100
AcDbEntity
  8
0
  6
ByLayer
 62
  256
370
   -1
100
AcDbCircle
 10
140
 20
52
 40
1
  0
CIRCLE
  5
2AD
100
AcDbEntity
  8
0
  6
ByLayer
 62
  256
370
   -1
100
AcDbCircle
 10
5
 20
104
 40
1
  0
CIRCLE
  5
2AE
100
AcDbEntity
  8
0
  6
ByLayer
 62
  256
370
   -1
100
AcDbCircle
 10
140
 20
104
 40
1
  0
ENDBLK
  5
ED
330
EB
100
AcDbEntity
  8
0
100
AcDbBlockEnd
  0
BLOCK
  5
EF
330
EE
100
AcDbEntity
  8
0
100
AcDbBlockBegin
  2
oxygen_styrene-0
 70
    0
 10
0
 20
0
  3
oxygen_styrene-0
  1

  0
LINE
  5
2AF
100
AcDbEntity
  8
0
  6
ByLayer
 62
  256
370
   -1
100
AcDbLine
 10
135
 20
76
 11
135
 21
66
  0
LINE
  5
2B0
100
AcDbEntity
  8
0
  6
ByLayer
 62
  256
370
   -1
100
AcDbLine
 10
140
 20
61
 11
145
 21
61
  0
ARC
  5
2B1
100
AcDbEntity
  8
0
  6
ByLayer
 62
  256
370
   -1
100
AcDbCircle
 10
140
 20
66
 40
5
100
AcDbArc
 50
180
 51
270
  0
LINE
  5
2B2
100
AcDbEntity
  8
0
  6
ByLayer
 62
  256
370
   -1
100
AcDbLine
 10
10
 20
0
 11
10
 21
10
  0
LINE
  5
2B3
100
AcDbEntity
  8
0
  6
ByLayer
 62
  256
370
   -1
100
AcDbLine
 10
5
 20
15
 11
0
 21
15
  0
ARC
  5
2B4
100
AcDbEntity
  8
0
  6
ByLayer
 62
  256
370
   -1
100
AcDbCircle
 10
5
 20
10
 40
5
100
AcDbArc
 50
0
 51
90
  0
CIRCLE
  5
2B5
100
AcDbEntity
  8
0
  6
ByLayer
 62
  256
370
   -1
100
AcDbCircle
 10
24
 20
19
 40
6
  0
CIRCLE
  5
2B6
100
AcDbEntity
  8
0
  6
ByLayer
 62
  256
370
   -1
100
AcDbCircle
 10
73
 20
18
 40
6
  0
CIRCLE
  5
2B7
100
AcDbEntity
  8
0
  6
ByLayer
 62
  256
370
   -1
100
AcDbCircle
 10
119
 20
18
 40
6
  0
LINE
  5
2B8
100
AcDbEntity
  8
0
  6
ByLayer
 62
  256
370
   -1
100
AcDbLine
 10
140
 20
15
 11
145
 21
15
  0
LINE
  5
2B9
100
AcDbEntity
  8
0
  6
ByLayer
 62
  256
370
   -1
100
AcDbLine
 10
135
 20
0
 11
135
 21
10
  0
ARC
  5
2BA
100
AcDbEntity
  8
0
  6
ByLayer
 62
  256
370
   -1
100
AcDbCircle
 10
140
 20
10
 40
5
100
AcDbArc
 50
90
 51
180
  0
LINE
  5
2BB
100
AcDbEntity
  8
0
  6
ByLayer
 62
  256
370
   -1
100
AcDbLine
 10
5
 20
61
 11
0
 21
61
  0
LINE
  5
2BC
100
AcDbEntity
  8
0
  6
ByLayer
 62
  256
370
   -1
100
AcDbLine
 10
10
 20
76
 11
10
 21
66
  0
ARC
  5
2BD
100
AcDbEntity
  8
0
  6
ByLayer
 62
  256
370
   -1
100
AcDbCircle
 10
5
 20
66
 40
5
100
AcDbArc
 50
270
 51
0
  0
CIRCLE
  5
2BE
100
AcDbEntity
  8
0
  6
ByLayer
 62
  256
370
   -1
100
AcDbCircle
 10
113
 20
52
 40
18
  0
LWPOLYLINE
  5
2BF
100
AcDbEntity
  8
0
  6
ByLayer
 62
  256
370
   -1
100
AcDbPolyline
 90
    8
 70
    1
 43
0
 10
33
 20
56
 10
43
 20
56
 42
-0.414213562373095
 10
46
 20
53
 10
46
 20
53
 42
-0.414213562373095
 10
43
 20
50
 10
33
 20
50
 42
-0.414213562373095
 10
30
 20
53
 10
30
 20
53
 42
-0.414213562373095
  0
LINE
  5
2C0
100
AcDbEntity
  8
0
  6
ByLayer
 62
  256
370
   -1
100
AcDbLine
 10
10
 20
76
 11
135
 21
76
  0
LINE
  5
2C1
100
AcDbEntity
  8
0
  6
ByLayer
 62
  256
370
   -1
100
AcDbLine
 10
145
 20
61
 11
145
 21
15
  0
LINE
  5
2C2
100
AcDbEntity
  8
0
  6
ByLayer
 62
  256
370
   -1
100
AcDbLine
 10
135
 20
0
 11
10
 21
0
  0
LINE
  5
2C3
100
AcDbEntity
  8
0
  6
ByLayer
 62
  256
370
   -1
100
AcDbLine
 10
0
 20
15
 11
0
 21
61
  0
ENDBLK
  5
F0
330
EE
100
AcDbEntity
  8
0
100
AcDbBlockEnd
  0
BLOCK
  5
F2
330
F1
100
AcDbEntity
  8
0
100
AcDbBlockBegin
  2
antiice_styrene-0
 70
    0
 10
0
 20
0
  3
antiice_styrene-0
  1

  0
CIRCLE
  5
2C4
100
AcDbEntity
  8
0
  6
ByLayer
 62
  256
370
   -1
100
AcDbCircle
 10
40
 20
20
 40
6
  0
CIRCLE
  5
2C5
100
AcDbEntity
  8
0
  6
ByLayer
 62
  256
370
   -1
100
AcDbCircle
 10
86
 20
20
 40
6
  0
CIRCLE
  5
2C6
100
AcDbEntity
  8
0
  6
ByLayer
 62
  256
370
   -1
100
AcDbCircle
 10
116
 20
20
 40
6
  0
LWPOLYLINE
  5
2C7
100
AcDbEntity
  8
0
  6
ByLayer
 62
  256
370
   -1
100
AcDbPolyline
 90
    4
 70
    0
 43
0
 10
10
 20
0
 10
10
 20
10
 42
0.414213562373095
 10
5.000000000000002
 20
15
 10
0
 20
15
  0
LWPOLYLINE
  5
2C8
100
AcDbEntity
  8
0
  6
ByLayer
 62
  256
370
   -1
100
AcDbPolyline
 90
    4
 70
    0
 43
0
 10
135
 20
39
 10
135
 20
29
 42
0.414213562373095
 10
140
 20
24
 10
145
 20
24
  0
LINE
  5
2C9
100
AcDbEntity
  8
0
  6
ByLayer
 62
  256
370
   -1
100
AcDbLine
 10
10
 20
0
 11
145
 21
0
  0
LINE
  5
2CA
100
AcDbEntity
  8
0
  6
ByLayer
 62
  256
370
   -1
100
AcDbLine
 10
145
 20
0
 11
145
 21
24
  0
LINE
  5
2CB
100
AcDbEntity
  8
0
  6
ByLayer
 62
  256
370
   -1
100
AcDbLine
 10
135
 20
39
 11
0
 21
39
  0
LINE
  5
2CC
100
AcDbEntity
  8
0
  6
ByLayer
 62
  256
370
   -1
100
AcDbLine
 10
0
 20
39
 11
0
 21
15
  0
ENDBLK
  5
F3
330
F1
100
AcDbEntity
  8
0
100
AcDbBlockEnd
  0
BLOCK
  5
F5
330
F4
100
AcDbEntity
  8
0
100
AcDbBlockBegin
  2
corner_mounts
 70
    0
 10
0
 20
0
  3
corner_mounts
  1

  0
LINE
  5
2CD
100
AcDbEntity
  8
0
  6
ByLayer
 62
  256
370
   -1
100
AcDbLine
 10
10
 20
0
 11
10
 21
10
  0
ARC
  5
2CE
100
AcDbEntity
  8
0
  6
ByLayer
 62
  256
370
   -1
100
AcDbCircle
 10
5
 20
10
 40
5
100
AcDbArc
 50
0
 51
90
  0
LINE
  5
2CF
100
AcDbEntity
  8
0
  6
ByLayer
 62
  256
370
   -1
100
AcDbLine
 10
5
 20
15
 11
0
 21
15
  0
LINE
  5
2D0
100
AcDbEntity
  8
0
  6
ByLayer
 62
  256
370
   -1
100
AcDbLine
 10
0
 20
20
 11
5
 21
20
  0
ARC
  5
2D1
100
AcDbEntity
  8
0
  6
ByLayer
 62
  256
370
   -1
100
AcDbCircle
 10
5
 20
25
 40
5
100
AcDbArc
 50
270
 51
0
  0
LINE
  5
2D2
100
AcDbEntity
  8
0
  6
ByLayer
 62
  256
370
   -1
100
AcDbLine
 10
10
 20
25
 11
10
 21
35
  0
LINE
  5
2D3
100
AcDbEntity
  8
0
  6
ByLayer
 62
  256
370
   -1
100
AcDbLine
 10
30
 20
20
 11
25
 21
20
  0
ARC
  5
2D4
100
AcDbEntity
  8
0
  6
ByLayer
 62
  256
370
   -1
100
AcDbCircle
 10
25
 20
25
 40
5
100
AcDbArc
 50
180
 51
270
  0
LINE
  5
2D5
100
AcDbEntity
  8
0
  6
ByLayer
 62
  256
370
   -1
100
AcDbLine
 10
20
 20
25
 11
20
 21
35
  0
LINE
  5
2D6
100
AcDbEntity
  8
0
  6
ByLayer
 62
  256
370
   -1
100
AcDbLine
 10
25
 20
15
 11
30
 21
15
  0
LINE
  5
2D7
100
AcDbEntity
  8
0
  6
ByLayer
 62
  256
370
   -1
100
AcDbLine
 10
20
 20
0
 11
20
 21
10
  0
ARC
  5
2D8
100
AcDbEntity
  8
0
  6
ByLayer
 62
  256
370
   -1
100
AcDbCircle
 10
25
 20
10
 40
5
100
AcDbArc
 50
90
 51
180
  0
ENDBLK
  5
F6
330
F4
100
AcDbEntity
  8
0
100
AcDbBlockEnd
  0
BLOCK
  5
F8
330
F7
100
AcDbEntity
  8
0
100
AcDbBlockBegin
  2
avi_power_styrene
 70
    0
 10
0
 20
0
  3
avi_power_styrene
  1

  0
LINE
  5
2D9
100
AcDbEntity
  8
0
  6
ByLayer
 62
  256
370
   -1
100
AcDbLine
 10
135
 20
0
 11
135
 21
10
  0
ARC
  5
2DA
100
AcDbEntity
  8
0
  6
ByLayer
 62
  256
370
   -1
100
AcDbCircle
 10
140
 20
10
 40
5.000000000000001
100
AcDbArc
 50
90
 51
180
  0
LINE
  5
2DB
100
AcDbEntity
  8
0
  6
ByLayer
 62
  256
370
   -1
100
AcDbLine
 10
140
 20
15
 11
145
 21
15
  0
LINE
  5
2DC
100
AcDbEntity
  8
0
  6
ByLayer
 62
  256
370
   -1
100
AcDbLine
 10
145
 20
79
 11
140
 21
79
  0
ARC
  5
2DD
100
AcDbEntity
  8
0
  6
ByLayer
 62
  256
370
   -1
100
AcDbCircle
 10
140
 20
84
 40
5.000000000000001
100
AcDbArc
 50
180
 51
270
  0
LINE
  5
2DE
100
AcDbEntity
  8
0
  6
ByLayer
 62
  256
370
   -1
100
AcDbLine
 10
135
 20
84
 11
135
 21
94
  0
LINE
  5
2DF
100
AcDbEntity
  8
0
  6
ByLayer
 62
  256
370
   -1
100
AcDbLine
 10
0
 20
79
 11
5
 21
79
  0
ARC
  5
2E0
100
AcDbEntity
  8
0
  6
ByLayer
 62
  256
370
   -1
100
AcDbCircle
 10
5
 20
84
 40
5.000000000000001
100
AcDbArc
 50
270
 51
0
  0
LINE
  5
2E1
100
AcDbEntity
  8
0
  6
ByLayer
 62
  256
370
   -1
100
AcDbLine
 10
10
 20
84
 11
10
 21
94
  0
LINE
  5
2E2
100
AcDbEntity
  8
0
  6
ByLayer
 62
  256
370
   -1
100
AcDbLine
 10
135
 20
94
 11
10
 21
94
  0
LINE
  5
2E3
100
AcDbEntity
  8
0
  6
ByLayer
 62
  256
370
   -1
100
AcDbLine
 10
145
 20
15
 11
145
 21
79
  0
LINE
  5
2E4
100
AcDbEntity
  8
0
  6
ByLayer
 62
  256
370
   -1
100
AcDbLine
 10
10
 20
0
 11
135
 21
0
  0
LINE
  5
2E5
100
AcDbEntity
  8
0
  6
ByLayer
 62
  256
370
   -1
100
AcDbLine
 10
0
 20
79
 11
0
 21
15
  0
CIRCLE
  5
2E6
100
AcDbEntity
  8
0
  6
ByLayer
 62
  256
370
   -1
100
AcDbCircle
 10
21
 20
77
 40
6
  0
CIRCLE
  5
2E7
100
AcDbEntity
  8
0
  6
ByLayer
 62
  256
370
   -1
100
AcDbCircle
 10
47
 20
77
 40
6
  0
CIRCLE
  5
2E8
100
AcDbEntity
  8
0
  6
ByLayer
 62
  256
370
   -1
100
AcDbCircle
 10
73
 20
77
 40
6
  0
CIRCLE
  5
2E9
100
AcDbEntity
  8
0
  6
ByLayer
 62
  256
370
   -1
100
AcDbCircle
 10
99
 20
77
 40
6
  0
CIRCLE
  5
2EA
100
AcDbEntity
  8
0
  6
ByLayer
 62
  256
370
   -1
100
AcDbCircle
 10
125
 20
77
 40
6
  0
CIRCLE
  5
2EB
100
AcDbEntity
  8
0
  6
ByLayer
 62
  256
370
   -1
100
AcDbCircle
 10
70
 20
36
 40
6
  0
CIRCLE
  5
2EC
100
AcDbEntity
  8
0
  6
ByLayer
 62
  256
370
   -1
100
AcDbCircle
 10
90
 20
36
 40
6
  0
CIRCLE
  5
2ED
100
AcDbEntity
  8
0
  6
ByLayer
 62
  256
370
   -1
100
AcDbCircle
 10
120
 20
20
 40
4.5
  0
ENDBLK
  5
F9
330
F7
100
AcDbEntity
  8
0
100
AcDbBlockEnd
  0
ENDSEC
  0
SECTION
  2
ENTITIES
  0
CIRCLE
  5
2EE
100
AcDbEntity
  8
Frame
  6
ByLayer
 62
  256
370
   -1
100
AcDbCircle
 10
21
 20
239
 40
2
  0
CIRCLE
  5
2EF
100
AcDbEntity
  8
Frame
  6
ByLayer
 62
  256
370
   -1
100
AcDbCircle
 10
60
 20
239
 40
2
  0
CIRCLE
  5
2F0
100
AcDbEntity
  8
Frame
  6
ByLayer
 62
  256
370
   -1
100
AcDbCircle
 10
107
 20
239
 40
2
  0
CIRCLE
  5
2F1
100
AcDbEntity
  8
Frame
  6
ByLayer
 62
  256
370
   -1
100
AcDbCircle
 10
128
 20
239
 40
2
  0
CIRCLE
  5
2F2
100
AcDbEntity
  8
Frame
  6
ByLayer
 62
  256
370
   -1
100
AcDbCircle
 10
39
 20
104
 40
2
  0
CIRCLE
  5
2F3
100
AcDbEntity
  8
Frame
  6
ByLayer
 62
  256
370
   -1
100
AcDbCircle
 10
60
 20
104
 40
2
  0
CIRCLE
  5
2F4
100
AcDbEntity
  8
Frame
  6
ByLayer
 62
  256
370
   -1
100
AcDbCircle
 10
107
 20
104
 40
2
  0
CIRCLE
  5
2F5
100
AcDbEntity
  8
Frame
  6
ByLayer
 62
  256
370
   -1
100
AcDbCircle
 10
128
 20
104
 40
2
  0
CIRCLE
  5
2F6
100
AcDbEntity
  8
Frame
  6
ByLayer
 62
  256
370
   -1
100
AcDbCircle
 10
223
 20
104
 40
2
  0
CIRCLE
  5
2F7
100
AcDbEntity
  8
Frame
  6
ByLayer
 62
  256
370
   -1
100
AcDbCircle
 10
244
 20
104
 40
2
  0
CIRCLE
  5
2F8
100
AcDbEntity
  8
Frame
  6
ByLayer
 62
  256
370
   -1
100
AcDbCircle
 10
281
 20
104
 40
2
  0
CIRCLE
  5
2F9
100
AcDbEntity
  8
Frame
  6
ByLayer
 62
  256
370
   -1
100
AcDbCircle
 10
281
 20
239
 40
2
  0
CIRCLE
  5
2FA
100
AcDbEntity
  8
Frame
  6
ByLayer
 62
  256
370
   -1
100
AcDbCircle
 10
244
 20
239
 40
2
  0
CIRCLE
  5
2FB
100
AcDbEntity
  8
Frame
  6
ByLayer
 62
  256
370
   -1
100
AcDbCircle
 10
223
 20
239
 40
2
  0
LWPOLYLINE
  5
2FC
100
AcDbEntity
  8
Frame
  6
ByLayer
 62
  256
370
   -1
100
AcDbPolyline
 90
    4
 70
    1
 43
0
 10
456
 20
233
 10
445
 20
233
 10
445
 20
11
 10
456
 20
11
  0
LWPOLYLINE
  5
2FD
100
AcDbEntity
  8
Frame
  6
ByLayer
 62
  256
370
   -1
100
AcDbPolyline
 90
    4
 70
    1
 43
0
 10
456
 20
11
 10
467
 20
11
 10
467
 20
233
 10
456
 20
233
  0
LWPOLYLINE
  5
2FE
100
AcDbEntity
  8
Frame
  6
ByLayer
 62
  256
370
   -1
100
AcDbPolyline
 90
    4
 70
    1
 43
0
 10
603
 20
244
 10
592
 20
244
 10
592
 20
0
 10
603
 20
0
  0
LWPOLYLINE
  5
2FF
100
AcDbEntity
  8
Frame
  6
ByLayer
 62
  256
370
   -1
100
AcDbPolyline
 90
    4
 70
    1
 43
0
 10
311
 20
244
 10
322
 20
244
 10
322
 20
0
 10
311
 20
0
  0
LWPOLYLINE
  5
300
100
AcDbEntity
  8
Frame
  6
ByLayer
 62
  256
370
   -1
100
AcDbPolyline
 90
    4
 70
    1
 43
0
 10
322
 20
0
 10
592
 20
0
 10
592
 20
11
 10
322
 20
11
  0
LWPOLYLINE
  5
301
100
AcDbEntity
  8
Frame
  6
ByLayer
 62
  256
370
   -1
100
AcDbPolyline
 90
    4
 70
    1
 43
0
 10
322
 20
244
 10
592
 20
244
 10
592
 20
233
 10
322
 20
233
  0
CIRCLE
  5
302
100
AcDbEntity
  8
Frame
  6
ByLayer
 62
  256
370
   -1
100
AcDbCircle
 10
451
 20
42
 40
2
  0
CIRCLE
  5
303
100
AcDbEntity
  8
Frame
  6
ByLayer
 62
  256
370
   -1
100
AcDbCircle
 10
462
 20
42
 40
2
  0
CIRCLE
  5
304
100
AcDbEntity
  8
Frame
  6
ByLayer
 62
  256
370
   -1
100
AcDbCircle
 10
451
 20
98
 40
2
  0
CIRCLE
  5
305
100
AcDbEntity
  8
Frame
  6
ByLayer
 62
  256
370
   -1
100
AcDbCircle
 10
462
 20
116
 40
2
  0
CIRCLE
  5
306
100
AcDbEntity
  8
Frame
  6
ByLayer
 62
  256
370
   -1
100
AcDbCircle
 10
597
 20
42
 40
2
  0
CIRCLE
  5
307
100
AcDbEntity
  8
Frame
  6
ByLayer
 62
  256
370
   -1
100
AcDbCircle
 10
597
 20
116
 40
2
  0
CIRCLE
  5
308
100
AcDbEntity
  8
Frame
  6
ByLayer
 62
  256
370
   -1
100
AcDbCircle
 10
597
 20
132
 40
2
  0
CIRCLE
  5
309
100
AcDbEntity
  8
Frame
  6
ByLayer
 62
  256
370
   -1
100
AcDbCircle
 10
597
 20
189
 40
2
  0
CIRCLE
  5
30A
100
AcDbEntity
  8
Frame
  6
ByLayer
 62
  256
370
   -1
100
AcDbCircle
 10
462
 20
189
 40
2
  0
CIRCLE
  5
30B
100
AcDbEntity
  8
Frame
  6
ByLayer
 62
  256
370
   -1
100
AcDbCircle
 10
462
 20
132
 40
2
  0
CIRCLE
  5
30C
100
AcDbEntity
  8
Frame
  6
ByLayer
 62
  256
370
   -1
100
AcDbCircle
 10
462
 20
204
 40
2
  0
CIRCLE
  5
30D
100
AcDbEntity
  8
Frame
  6
ByLayer
 62
  256
370
   -1
100
AcDbCircle
 10
597
 20
223
 40
2
  0
CIRCLE
  5
30E
100
AcDbEntity
  8
Frame
  6
ByLayer
 62
  256
370
   -1
100
AcDbCircle
 10
451
 20
171
 40
2
  0
CIRCLE
  5
30F
100
AcDbEntity
  8
Frame
  6
ByLayer
 62
  256
370
   -1
100
AcDbCircle
 10
451
 20
119
 40
2
  0
CIRCLE
  5
310
100
AcDbEntity
  8
Frame
  6
ByLayer
 62
  256
370
   -1
100
AcDbCircle
 10
451
 20
223
 40
2
  0
CIRCLE
  5
311
100
AcDbEntity
  8
Frame
  6
ByLayer
 62
  256
370
   -1
100
AcDbCircle
 10
316
 20
223
 40
2
  0
CIRCLE
  5
312
100
AcDbEntity
  8
Frame
  6
ByLayer
 62
  256
370
   -1
100
AcDbCircle
 10
316
 20
171
 40
2
  0
CIRCLE
  5
313
100
AcDbEntity
  8
Frame
  6
ByLayer
 62
  256
370
   -1
100
AcDbCircle
 10
316
 20
119
 40
2
  0
CIRCLE
  5
314
100
AcDbEntity
  8
Frame
  6
ByLayer
 62
  256
370
   -1
100
AcDbCircle
 10
316
 20
98
 40
2
  0
CIRCLE
  5
315
100
AcDbEntity
  8
Frame
  6
ByLayer
 62
  256
370
   -1
100
AcDbCircle
 10
316
 20
42
 40
2
  0
LWPOLYLINE
  5
316
100
AcDbEntity
  8
Frame
  6
ByLayer
 62
  256
370
   -1
100
AcDbPolyline
 90
    4
 70
    1
 43
0
 10
311
 20
336
 10
603
 20
336
 10
603
 20
300
 10
311
 20
300
  0
LWPOLYLINE
  5
317
100
AcDbEntity
  8
Frame
  6
ByLayer
 62
  256
370
   -1
100
AcDbPolyline
 90
    4
 70
    1
 43
0
 10
0
 20
338.1681465521552
 10
0
 20
374.4628182378152
 10
300
 20
336
 10
300
 20
299.70532831434
  0
LWPOLYLINE
  5
318
100
AcDbEntity
  8
Frame
  6
ByLayer
 62
  256
370
   -1
100
AcDbPolyline
 90
    4
 70
    1
 43
0
 10
11
 20
373
 10
0
 20
373
 10
0
 20
337
 10
11
 20
337
  0
LWPOLYLINE
  5
319
100
AcDbEntity
  8
Frame
  6
ByLayer
 62
  256
370
   -1
100
AcDbPolyline
 90
    4
 70
    1
 43
0
 10
300
 20
336
 10
289
 20
336
 10
289
 20
300
 10
300
 20
300
  0
LWPOLYLINE
  5
31A
100
AcDbEntity
  8
Frame
  6
ByLayer
 62
  256
370
   -1
100
AcDbPolyline
 90
    4
 70
    1
 43
0
 10
322
 20
336
 10
311
 20
336
 10
311
 20
300
 10
322
 20
300
  0
LWPOLYLINE
  5
31B
100
AcDbEntity
  8
Frame
  6
ByLayer
 62
  256
370
   -1
100
AcDbPolyline
 90
    4
 70
    1
 43
0
 10
456
 20
336
 10
445
 20
336
 10
445
 20
300
 10
456
 20
300
  0
LWPOLYLINE
  5
31C
100
AcDbEntity
  8
Frame
  6
ByLayer
 62
  256
370
   -1
100
AcDbPolyline
 90
    4
 70
    1
 43
0
 10
467
 20
336
 10
456
 20
336
 10
456
 20
300
 10
467
 20
300
  0
LWPOLYLINE
  5
31D
100
AcDbEntity
  8
Frame
  6
ByLayer
 62
  256
370
   -1
100
AcDbPolyline
 90
    4
 70
    1
 43
0
 10
603
 20
336
 10
592
 20
336
 10
592
 20
300
 10
603
 20
300
  0
LWPOLYLINE
  5
31E
100
AcDbEntity
  8
Frame
  6
ByLayer
 62
  256
370
   -1
100
AcDbPolyline
 90
    4
 70
    1
 43
0
 10
37
 20
300
 10
37.00275695794335
 20
333.4240455015838
 10
3.499422973618493e-013
 20
338.1681465521552
 10
0
 20
300
  0
LWPOLYLINE
  5
31F
100
AcDbEntity
  8
Frame
  6
ByLayer
 62
  256
370
   -1
100
AcDbPolyline
 90
    4
 70
    1
 43
0
 10
11.00000000000002
 20
233
 10
0
 20
233
 10
0
 20
110
 10
11.00000000000002
 20
110
  0
LWPOLYLINE
  5
320
100
AcDbEntity
  8
Frame
  6
ByLayer
 62
  256
370
   -1
100
AcDbPolyline
 90
    4
 70
    1
 43
0
 10
291
 20
233
 10
302
 20
233
 10
302
 20
110
 10
291
 20
110
  0
LWPOLYLINE
  5
321
100
AcDbEntity
  8
Frame
  6
ByLayer
 62
  256
370
   -1
100
AcDbPolyline
 90
    4
 70
    1
 43
0
 10
0
 20
244
 10
302
 20
244
 10
302
 20
233
 10
0
 20
233
  0
LWPOLYLINE
  5
322
100
AcDbEntity
  8
Frame
  6
ByLayer
 62
  256
370
   -1
100
AcDbPolyline
 90
    4
 70
    1
 43
0
 10
0
 20
99
 10
302
 20
99
 10
302
 20
110
 10
0
 20
110
  0
LINE
  5
323
100
AcDbEntity
  8
Frame
  6
ByLayer
 62
  256
370
   -1
100
AcDbLine
 10
300
 20
435.9703025810068
 11
300
 21
399.6756308953467
  0
LINE
  5
324
100
AcDbEntity
  8
Frame
  6
ByLayer
 62
  256
370
   -1
100
AcDbLine
 10
110
 20
460.3300874649564
 11
300
 21
435.9703025810068
  0
LINE
  5
325
100
AcDbEntity
  8
Frame
  6
ByLayer
 62
  256
370
   -1
100
AcDbLine
 10
300
 20
399.6756308953467
 11
110
 21
424.0354157792964
  0
LINE
  5
326
100
AcDbEntity
  8
Frame
  6
ByLayer
 62
  256
370
   -1
100
AcDbLine
 10
110
 20
424.0354157792964
 11
110
 21
460.3300874649564
  0
LWPOLYLINE
  5
327
100
AcDbEntity
  8
Frame
  6
ByLayer
 62
  256
370
   -1
100
AcDbPolyline
 90
    4
 70
    1
 43
0
 10
146
 20
399.9703025810068
 10
146.0256101470927
 20
419.4165941293163
 10
110
 20
423.9703025810068
 10
110
 20
399.9703025810068
  0
LWPOLYLINE
  5
328
100
AcDbEntity
  8
Frame
  6
ByLayer
 62
  256
370
   -1
100
AcDbPolyline
 90
    4
 70
    1
 43
0
 10
121
 20
458.9703025810068
 10
110
 20
458.9703025810068
 10
110
 20
422.9703025810068
 10
121
 20
422.9703025810068
  0
LWPOLYLINE
  5
329
100
AcDbEntity
  8
Frame
  6
ByLayer
 62
  256
370
   -1
100
AcDbPolyline
 90
    4
 70
    1
 43
0
 10
300
 20
435.6756308953467
 10
289
 20
435.6756308953467
 10
289
 20
399.6756308953467
 10
300
 20
399.6756308953467
  0
LWPOLYLINE
  5
32A
100
AcDbEntity
  8
Frame
  6
ByLayer
 62
  256
370
   -1
100
AcDbPolyline
 90
    4
 70
    1
 43
0
 10
110.1029026491672
 20
11
 10
302
 20
11
 10
302
 20
0
 10
110.1029026491672
 20
0
  0
DIMENSION
  5
32B
100
AcDbEntity
  8
measure
  6
ByLayer
 62
  256
370
   -1
100
AcDbDimension
  2
*D1
 10
1.982489101661144
 20
389.9257187153893
 30
0
 11
152.3957866579157
 21
373.917923272156
 31
0
 70
   33
 71
    5
 72
    0
  3
Standard
 53
0
210
0
220
0
230
1
100
AcDbAlignedDimension
 13
299.9999999999997
 23
336.0000000000001
 33
0
 14
0
 24
374.4628182378152
 34
0
  0
DIMENSION
  5
32C
100
AcDbEntity
  8
measure
  6
ByLayer
 62
  256
370
   -1
100
AcDbDimension
  2
*D2
 10
630
 20
-3.306437155320419e-015
 30
0
 11
626.75
 21
122
 31
0
 70
   32
 71
    5
 72
    0
  3
Standard
 53
0
210
0
220
0
230
1
100
AcDbAlignedDimension
 13
603
 23
244
 33
0
 14
603
 24
0
 34
0
 50
90
100
AcDbRotatedDimension
  0
DIMENSION
  5
32D
100
AcDbEntity
  8
measure
  6
ByLayer
 62
  256
370
   -1
100
AcDbDimension
  2
*D3
 10
-10
 20
338.1681465521552
 30
0
 11
-13.25
 21
319.0840732760776
 31
0
 70
   32
 71
    5
 72
    0
  3
Standard
 53
0
210
0
220
0
230
1
100
AcDbAlignedDimension
 13
0
 23
300
 33
0
 14
0
 24
338.1681465521552
 34
0
 50
90
100
AcDbRotatedDimension
  0
DIMENSION
  5
32E
100
AcDbEntity
  8
measure
  6
ByLayer
 62
  256
370
   -1
100
AcDbDimension
  2
*D4
 10
50
 20
333.4240455015838
 30
0
 11
46.75
 21
316.7120227507919
 31
0
 70
   32
 71
    5
 72
    0
  3
Standard
 53
0
210
0
220
0
230
1
100
AcDbAlignedDimension
 13
37
 23
300
 33
0
 14
37.00275695794325
 24
333.4240455015838
 34
0
 50
90
100
AcDbRotatedDimension
  0
DIMENSION
  5
32F
100
AcDbEntity
  8
measure
  6
ByLayer
 62
  256
370
   -1
100
AcDbDimension
  2
*D5
 10
592
 20
280
 30
0
 11
457
 21
283.25
 31
0
 70
   32
 71
    5
 72
    0
  3
Standard
 53
0
210
0
220
0
230
1
100
AcDbAlignedDimension
 13
322
 23
300
 33
0
 14
592
 24
300
 34
0
100
AcDbRotatedDimension
  0
DIMENSION
  5
330
100
AcDbEntity
  8
measure
  6
ByLayer
 62
  256
370
   -1
100
AcDbDimension
  2
*D6
 10
603
 20
350
 30
0
 11
457
 21
353.25
 31
0
 70
   32
 71
    5
 72
    0
  3
Standard
 53
0
210
0
220
0
230
1
100
AcDbAlignedDimension
 13
311
 23
336
 33
0
 14
603
 24
336
 34
0
100
AcDbRotatedDimension
  0
DIMENSION
  5
331
100
AcDbEntity
  8
measure
  6
ByLayer
 62
  256
370
   -1
100
AcDbDimension
  2
*D7
 10
445
 20
330
 30
0
 11
383.5
 21
333.25
 31
0
 70
   32
 71
    5
 72
    0
  3
Standard
 53
0
210
0
220
0
230
1
100
AcDbAlignedDimension
 13
322
 23
336
 33
0
 14
445
 24
336
 34
0
100
AcDbRotatedDimension
  0
DIMENSION
  5
332
100
AcDbEntity
  8
measure
  6
ByLayer
 62
  256
370
   -1
100
AcDbDimension
  2
*D8
 10
592
 20
330
 30
0
 11
529.5
 21
333.25
 31
0
 70
   32
 71
    5
 72
    0
  3
Standard
 53
0
210
0
220
0
230
1
100
AcDbAlignedDimension
 13
467
 23
336
 33
0
 14
592
 24
336
 34
0
100
AcDbRotatedDimension
  0
DIMENSION
  5
333
100
AcDbEntity
  8
measure
  6
ByLayer
 62
  256
370
   -1
100
AcDbDimension
  2
*D9
 10
592
 20
-10
 30
0
 11
457
 21
-6.75
 31
0
 70
   32
 71
    5
 72
    0
  3
Standard
 53
0
210
0
220
0
230
1
100
AcDbAlignedDimension
 13
322
 23
0
 33
0
 14
592
 24
0
 34
0
100
AcDbRotatedDimension
  0
DIMENSION
  5
334
100
AcDbEntity
  8
measure
  6
ByLayer
 62
  256
370
   -1
100
AcDbDimension
  2
*D10
 10
490
 20
233
 30
0
 11
486.75
 21
122
 31
0
 70
   32
 71
    5
 72
    0
  3
Standard
 53
0
210
0
220
0
230
1
100
AcDbAlignedDimension
 13
467
 23
11
 33
0
 14
467
 24
233
 34
0
 50
90
100
AcDbRotatedDimension
  0
DIMENSION
  5
335
100
AcDbEntity
  8
measure
  6
ByLayer
 62
  256
370
   -1
100
AcDbDimension
  2
*D11
 10
-20.00000000000001
 20
110
 30
0
 11
-23.25
 21
171.5
 31
0
 70
   32
 71
    5
 72
    0
  3
Standard
 53
0
210
0
220
0
230
1
100
AcDbAlignedDimension
 13
0
 23
233
 33
0
 14
0
 24
110
 34
0
 50
90
100
AcDbRotatedDimension
  0
DIMENSION
  5
336
100
AcDbEntity
  8
measure
  6
ByLayer
 62
  256
370
   -1
100
AcDbDimension
  2
*D12
 10
110.9286734034375
 20
467.5734989931673
 30
0
 11
206.3419709596922
 21
458.6172202268668
 31
0
 70
   33
 71
    5
 72
    0
  3
Standard
 53
0
210
0
220
0
230
1
100
AcDbAlignedDimension
 13
300
 23
435.9703025810068
 33
0
 14
110
 24
460.3300874649564
 34
0
  0
DIMENSION
  5
337
100
AcDbEntity
  8
measure
  6
ByLayer
 62
  256
370
   -1
100
AcDbDimension
  2
*D13
 10
100
 20
424.0354157792963
 30
0
 11
96.75
 21
412.0028591801515
 31
0
 70
   32
 71
    5
 72
    0
  3
Standard
 53
0
210
0
220
0
230
1
100
AcDbAlignedDimension
 13
110
 23
399.9703025810068
 33
0
 14
110
 24
424.0354157792963
 34
0
 50
90
100
AcDbRotatedDimension
  0
DIMENSION
  5
338
100
AcDbEntity
  8
measure
  6
ByLayer
 62
  256
370
   -1
100
AcDbDimension
  2
*D14
 10
160
 20
419.4165941293163
 30
0
 11
156.75
 21
409.6934483551615
 31
0
 70
   32
 71
    5
 72
    0
  3
Standard
 53
0
210
0
220
0
230
1
100
AcDbAlignedDimension
 13
146
 23
399.9703025810068
 33
0
 14
146.0256101470929
 24
419.4165941293163
 34
0
 50
90
100
AcDbRotatedDimension
  0
DIMENSION
  5
339
100
AcDbEntity
  8
measure
  6
ByLayer
 62
  256
370
   -1
100
AcDbDimension
  2
*D15
 10
445
 20
20
 30
0
 11
383.5
 21
23.25
 31
0
 70
   32
 71
    5
 72
    0
  3
Standard
 53
0
210
0
220
0
230
1
100
AcDbAlignedDimension
 13
322
 23
11
 33
0
 14
445
 24
11
 34
0
100
AcDbRotatedDimension
  0
DIMENSION
  5
33A
100
AcDbEntity
  8
measure
  6
ByLayer
 62
  256
370
   -1
100
AcDbDimension
  2
*D16
 10
592
 20
20
 30
0
 11
529.5
 21
23.25
 31
0
 70
   32
 71
    5
 72
    0
  3
Standard
 53
0
210
0
220
0
230
1
100
AcDbAlignedDimension
 13
467
 23
11
 33
0
 14
592
 24
11
 34
0
100
AcDbRotatedDimension
  0
DIMENSION
  5
33B
100
AcDbEntity
  8
measure
  6
ByLayer
 62
  256
370
   -1
100
AcDbDimension
  2
*D17
 10
291
 20
30
 30
0
 11
206
 21
33.25
 31
0
 70
   32
 71
    5
 72
    0
  3
Standard
 53
0
210
0
220
0
230
1
100
AcDbAlignedDimension
 13
121
 23
11
 33
0
 14
291
 24
11
 34
0
100
AcDbRotatedDimension
  0
DIMENSION
  5
33C
100
AcDbEntity
  8
measure
  6
ByLayer
 62
  256
370
   -1
100
AcDbDimension
  2
*D18
 10
302
 20
260
 30
0
 11
151
 21
263.25
 31
0
 70
   32
 71
    5
 72
    0
  3
Standard
 53
0
210
0
220
0
230
1
100
AcDbAlignedDimension
 13
0
 23
244
 33
0
 14
302
 24
244
 34
0
100
AcDbRotatedDimension
  0
INSERT
  5
33D
100
AcDbEntity
  8
panels
  6
ByLayer
 62
  256
370
   -1
100
AcDbBlockReference
  2
snsr_pwr_styrene
 10
49.00000000000001
 20
99
 30
0
 41
1
 42
1
 43
0
 50
90
 70
    1
 71
    1
 44
0
 45
0
  0
INSERT
  5
33E
100
AcDbEntity
  8
panels
  6
ByLayer
 62
  256
370
   -1
100
AcDbBlockReference
  2
hud_sw_styrene
 10
117
 20
99
 30
0
 41
1
 42
1
 43
0
 50
90
 70
    1
 71
    1
 44
0
 45
0
  0
INSERT
  5
33F
100
AcDbEntity
  8
panels
  6
ByLayer
 62
  256
370
   -1
100
AcDbBlockReference
  2
int_lighting_styrene
 10
233
 20
99
 30
0
 41
1
 42
1
 43
0
 50
90
 70
    1
 71
    1
 44
0
 45
0
  0
INSERT
  5
340
100
AcDbEntity
  8
panels
  6
ByLayer
 62
  256
370
   -1
100
AcDbBlockReference
  2
aircond_styrene
 10
291
 20
99
 30
0
 41
1
 42
1
 43
0
 50
90
 70
    1
 71
    1
 44
0
 45
0
  0
INSERT
  5
341
100
AcDbEntity
  8
panels
  6
ByLayer
 62
  256
370
   -1
100
AcDbBlockReference
  2
oxygen_styrene-0
 10
311
 20
32
 30
0
 41
1
 42
1
 43
0
 50
360
 70
    1
 71
    1
 44
0
 45
0
  0
INSERT
  5
342
100
AcDbEntity
  8
panels
  6
ByLayer
 62
  256
370
   -1
100
AcDbBlockReference
  2
ky58_styrene
 10
311
 20
109
 30
0
 41
1
 42
1
 43
0
 50
360
 70
    1
 71
    1
 44
0
 45
0
  0
INSERT
  5
343
100
AcDbEntity
  8
panels
  6
ByLayer
 62
  256
370
   -1
100
AcDbBlockReference
  2
antiice_styrene-0
 10
457
 20
194
 30
0
 41
1
 42
1
 43
0
 50
360
 70
    1
 71
    1
 44
0
 45
0
  0
INSERT
  5
344
100
AcDbEntity
  8
panels
  6
ByLayer
 62
  256
370
   -1
100
AcDbBlockReference
  2
avi_power_styrene
 10
457
 20
32.00000000000003
 30
0
 41
1
 42
1
 43
0
 50
360
 70
    1
 71
    1
 44
0
 45
0
  0
LWPOLYLINE
  5
345
100
AcDbEntity
  8
panels
  6
ByLayer
 62
  256
370
   -1
100
AcDbPolyline
 90
    4
 70
    1
 43
0
 10
457
 20
193
 10
602
 20
193
 10
602
 20
127
 10
457
 20
127
  0
LWPOLYLINE
  5
346
100
AcDbEntity
  8
panels
  6
ByLayer
 62
  256
370
   -1
100
AcDbPolyline
 90
    4
 70
    0
 43
0
 10
457
 20
47.00000000000003
 10
462
 20
47.00000000000003
 42
-0.414213562373095
 10
467
 20
42.00000000000003
 10
467
 20
32.00000000000003
  0
MTEXT
  5
347
100
AcDbEntity
  8
Text
  6
ByLayer
 62
  256
370
   -1
100
AcDbMText
 10
260
 20
300
 30
0
 40
2.5
 41
10.95
 71
    1
 72
    1
  1
7 deg
  7
wqy-unicode
210
0
220
0
230
1
 50
0
 73
    2
 44
1
  0
LINE
  5
348
100
AcDbEntity
  8
Frame
  6
ByLayer
 62
  256
370
   -1
100
AcDbLine
 10
0
 20
-100
 11
594.0000000000002
 21
-100
  0
LINE
  5
349
100
AcDbEntity
  8
Frame
  6
ByLayer
 62
  256
370
   -1
100
AcDbLine
 10
594.0000000000002
 20
-100
 11
594.0000000000002
 21
-355.42
  0
LINE
  5
34A
100
AcDbEntity
  8
Frame
  6
ByLayer
 62
  256
370
   -1
100
AcDbLine
 10
594.0000000000002
 20
-355.42
 11
0
 21
-355.42
  0
LINE
  5
34B
100
AcDbEntity
  8
Frame
  6
ByLayer
 62
  256
370
   -1
100
AcDbLine
 10
0
 20
-355.42
 11
0
 21
-100
  0
DIMENSION
  5
34C
100
AcDbEntity
  8
measure
  6
ByLayer
 62
  256
370
   -1
100
AcDbDimension
  2
*D19
 10
603
 20
260
 30
0
 11
457
 21
263.25
 31
0
 70
   32
 71
    5
 72
    0
  3
Standard
 53
0
210
0
220
0
230
1
100
AcDbAlignedDimension
 13
311
 23
244
 33
0
 14
603
 24
244
 34
0
100
AcDbRotatedDimension
  0
DIMENSION
  5
34D
100
AcDbEntity
  8
measure
  6
ByLayer
 62
  256
370
   -1
100
AcDbDimension
  2
*D20
 10
594.0000000000002
 20
-80
 30
0
 11
297.0000000000001
 21
-76.75
 31
0
 70
   32
 71
    5
 72
    0
  3
Standard
 53
0
210
0
220
0
230
1
100
AcDbAlignedDimension
 13
0
 23
-100
 33
0
 14
594.0000000000002
 24
-100
 34
0
100
AcDbRotatedDimension
  0
DIMENSION
  5
34E
100
AcDbEntity
  8
measure
  6
ByLayer
 62
  256
370
   -1
100
AcDbDimension
  2
*D21
 10
-10
 20
-355.42
 30
0
 11
-13.24999999999999
 21
-227.71
 31
0
 70
   32
 71
    5
 72
    0
  3
Standard
 53
0
210
0
220
0
230
1
100
AcDbAlignedDimension
 13
0
 23
-100
 33
0
 14
0
 24
-355.42
 34
0
 50
90
100
AcDbRotatedDimension
  0
LINE
  5
34F
100
AcDbEntity
  8
Frame
  6
ByLayer
 62
  256
370
   -1
100
AcDbLine
 10
955.4181350735706
 20
-100
 11
955.4181350735706
 21
350
  0
LINE
  5
350
100
AcDbEntity
  8
Frame
  6
ByLayer
 62
  256
370
   -1
100
AcDbLine
 10
919.4181350735706
 20
-100
 11
955.4181350735706
 21
-100
  0
LINE
  5
351
100
AcDbEntity
  8
Frame
  6
ByLayer
 62
  256
370
   -1
100
AcDbLine
 10
747.4181350735706
 20
-100
 11
919.4181350735706
 21
-100
  0
LINE
  5
352
100
AcDbEntity
  8
Frame
  6
ByLayer
 62
  256
370
   -1
100
AcDbLine
 10
747.4181350735706
 20
-100
 11
700
 21
-100
  0
LINE
  5
353
100
AcDbEntity
  8
Frame
  6
ByLayer
 62
  256
370
   -1
100
AcDbLine
 10
700
 20
-100
 11
700
 21
317.252995653412
  0
DIMENSION
  5
354
100
AcDbEntity
  8
measure
  6
ByLayer
 62
  256
370
   -1
100
AcDbDimension
  2
*D22
 10
975.4181350735706
 20
350
 30
0
 11
972.1681350735706
 21
125
 31
0
 70
   32
 71
    5
 72
    0
  3
Standard
 53
0
210
0
220
0
230
1
100
AcDbAlignedDimension
 13
955.4181350735706
 23
-100
 33
0
 14
955.4181350735706
 24
350
 34
0
 50
90
100
AcDbRotatedDimension
  0
DIMENSION
  5
355
100
AcDbEntity
  8
measure
  6
ByLayer
 62
  256
370
   -1
100
AcDbDimension
  2
*D23
 10
685.4181350735706
 20
317.252995653412
 30
0
 11
682.1681350735706
 21
108.626497826706
 31
0
 70
   32
 71
    5
 72
    0
  3
Standard
 53
0
210
0
220
0
230
1
100
AcDbAlignedDimension
 13
700
 23
-100
 33
0
 14
700
 24
317.252995653412
 34
0
 50
90
100
AcDbRotatedDimension
  0
DIMENSION
  5
356
100
AcDbEntity
  8
measure
  6
ByLayer
 62
  256
370
   -1
100
AcDbDimension
  2
*D24
 10
700
 20
-130
 30
0
 11
827.7090675367854
 21
-126.75
 31
0
 70
   32
 71
    5
 72
    0
  3
Standard
 53
0
210
0
220
0
230
1
100
AcDbAlignedDimension
 13
955.4181350735706
 23
-100
 33
0
 14
700
 24
-100
 34
0
 50
180
100
AcDbRotatedDimension
  0
DIMENSION
  5
357
100
AcDbEntity
  8
measure
  6
ByLayer
 62
  256
370
   -1
100
AcDbDimension
  2
*D25
 10
948.3444547310755
 20
405.1728708392489
 30
0
 11
820.2220896380358
 21
392.0229823416291
 31
0
 70
   33
 71
    5
 72
    0
  3
Standard
 53
0
210
0
220
0
230
1
100
AcDbAlignedDimension
 13
700
 23
317.252995653412
 33
0
 14
955.4181350735705
 24
350
 34
0
  0
CIRCLE
  5
358
100
AcDbEntity
  8
panels
  6
ByLayer
 62
  256
370
   -1
100
AcDbCircle
 10
55.00000000000001
 20
49
 40
49
  0
MTEXT
  5
359
100
AcDbEntity
  8
Text
  6
ByLayer
 62
  256
370
   -1
100
AcDbMText
 10
350
 20
420
 30
0
 40
2.5
 41
86.25833333333331
 71
    1
 72
    1
  1
All frames are 11x36mm.\PAll non-ortho angles are 7/97 degrees.
  7
wqy-unicode
210
0
220
0
230
1
 50
0
 73
    2
 44
1
  0
LINE
  5
35A
100
AcDbEntity
  8
Frame
  6
ByLayer
 62
  256
370
   -1
100
AcDbLine
 10
110
 20
88
 11
302
 21
88
  0
LINE
  5
35B
100
AcDbEntity
  8
Frame
  6
ByLayer
 62
  256
370
   -1
100
AcDbLine
 10
291
 20
11
 11
302
 21
11
  0
LINE
  5
35C
100
AcDbEntity
  8
Frame
  6
ByLayer
 62
  256
370
   -1
100
AcDbLine
 10
302
 20
11
 11
302
 21
99
  0
LINE
  5
35D
100
AcDbEntity
  8
Frame
  6
ByLayer
 62
  256
370
   -1
100
AcDbLine
 10
302
 20
99
 11
291
 21
99
  0
LINE
  5
35E
100
AcDbEntity
  8
Frame
  6
ByLayer
 62
  256
370
   -1
100
AcDbLine
 10
291
 20
88
 11
291
 21
11
  0
LINE
  5
35F
100
AcDbEntity
  8
Frame
  6
ByLayer
 62
  256
370
   -1
100
AcDbLine
 10
121
 20
11
 11
110.1029026491672
 21
11
  0
LINE
  5
360
100
AcDbEntity
  8
Frame
  6
ByLayer
 62
  256
370
   -1
100
AcDbLine
 10
110.1029026491672
 20
11
 11
110.1029026491672
 21
99
  0
LINE
  5
361
100
AcDbEntity
  8
Frame
  6
ByLayer
 62
  256
370
   -1
100
AcDbLine
 10
110.1029026491672
 20
99
 11
121
 21
99
  0
LINE
  5
362
100
AcDbEntity
  8
Frame
  6
ByLayer
 62
  256
370
   -1
100
AcDbLine
 10
121
 20
88
 11
121
 21
11
  0
DIMENSION
  5
363
100
AcDbEntity
  8
measure
  6
ByLayer
 62
  256
370
   -1
100
AcDbDimension
  2
*D26
 10
130
 20
88
 30
0
 11
126.75
 21
49.5
 31
0
 70
   32
 71
    5
 72
    0
  3
Standard
 53
0
210
0
220
0
230
1
100
AcDbAlignedDimension
 13
121
 23
11
 33
0
 14
121
 24
88
 34
0
 50
90
100
AcDbRotatedDimension
  0
LINE
  5
364
100
AcDbEntity
  8
Frame
  6
ByLayer
 62
  256
370
   -1
100
AcDbLine
 10
0
 20
-130
 11
594.0000000000002
 21
-130
  0
LINE
  5
365
100
AcDbEntity
  8
Frame
  6
ByLayer
 62
  256
370
   -1
100
AcDbLine
 10
0
 20
-325.42
 11
594.0000000000002
 21
-325.42
  0
LINE
  5
366
100
AcDbEntity
  8
Frame
  6
ByLayer
 62
  256
370
   -1
100
AcDbLine
 10
30
 20
-130
 11
30
 21
-325.42
  0
LINE
  5
367
100
AcDbEntity
  8
Frame
  6
ByLayer
 62
  256
370
   -1
100
AcDbLine
 10
564.0000000000002
 20
-325.42
 11
564.0000000000002
 21
-130
  0
LINE
  5
368
100
AcDbEntity
  8
Frame
  6
ByLayer
 62
  256
370
   -1
100
AcDbLine
 10
310
 20
-130
 11
310
 21
-325.42
  0
LINE
  5
369
100
AcDbEntity
  8
Frame
  6
ByLayer
 62
  256
370
   -1
100
AcDbLine
 10
280
 20
-325.42
 11
280
 21
-130
  0
LINE
  5
36A
100
AcDbEntity
  8
Frame
  6
ByLayer
 62
  256
370
   -1
100
AcDbLine
 10
700
 20
-52
 11
955.4181350735706
 21
-52
  0
LWPOLYLINE
  5
36B
100
AcDbEntity
  8
Frame
  6
ByLayer
 62
  256
370
   -1
100
AcDbPolyline
 90
    3
 70
    0
 43
0
 10
700
 20
317.252995653412
 10
919.4181350735706
 20
345.3844618114622
 10
955.4181350735706
 20
350
  0
LINE
  5
36C
100
AcDbEntity
  8
Frame
  6
ByLayer
 62
  256
370
   -1
100
AcDbLine
 10
700
 20
268.860100072532
 11
955.4181350735705
 21
301.60710441912
  0
DIMENSION
  5
36D
100
AcDbEntity
  8
measure
  6
ByLayer
 62
  256
370
   -1
100
AcDbDimension
  2
*D27
 10
564.0000000000002
 20
-120
 30
0
 11
297.0000000000001
 21
-118.125
 31
0
 70
   32
 71
    5
  3
Standard
 53
0
210
0
220
0
230
1
100
AcDbAlignedDimension
 13
30
 23
-130
 33
0
 14
564.0000000000002
 24
-130
 34
0
100
AcDbRotatedDimension
  0
DIMENSION
  5
36E
100
AcDbEntity
  8
measure
  6
ByLayer
 62
  256
370
   -1
100
AcDbDimension
  2
*D28
 10
280
 20
-150
 30
0
 11
155
 21
-148.125
 31
0
 70
   32
 71
    5
  3
Standard
 53
0
210
0
220
0
230
1
100
AcDbAlignedDimension
 13
30
 23
-150
 33
0
 14
280
 24
-150
 34
0
100
AcDbRotatedDimension
  0
DIMENSION
  5
36F
100
AcDbEntity
  8
measure
  6
ByLayer
 62
  256
370
   -1
100
AcDbDimension
  2
*D29
 10
564.0000000000002
 20
-149.9584642205734
 30
0
 11
437.0000000000001
 21
-148.0834642205734
 31
0
 70
   32
 71
    5
  3
Standard
 53
0
210
0
220
0
230
1
100
AcDbAlignedDimension
 13
310
 23
-149.9584642205734
 33
0
 14
564.0000000000002
 24
-149.9584642205734
 34
0
100
AcDbRotatedDimension
  0
LINE
  5
370
100
AcDbEntity
  8
Frame
  6
ByLayer
 62
  256
370
   -1
100
AcDbLine
 10
748
 20
-52
 11
748
 21
275.0141509905824
  0
LINE
  5
371
100
AcDbEntity
  8
Frame
  6
ByLayer
 62
  256
370
   -1
100
AcDbLine
 10
907.4181350735706
 20
-52
 11
907.4181350735706
 21
295.4530535010696
  0
LINE
  5
372
100
AcDbEntity
  8
Frame
  6
ByLayer
 62
  256
370
   -1
100
AcDbLine
 10
700.16243261915
 20
268.8809254602195
 11
955.4181350735705
 21
268.8809254602195
  0
LINE
  5
373
100
AcDbEntity
  8
Frame
  6
ByLayer
 62
  256
370
   -1
100
AcDbLine
 10
700.16243261915
 20
220.8809254602195
 11
955.4181350735705
 21
220.8809254602195
  0
LINE
  5
374
100
AcDbEntity
  8
Frame
  6
ByLayer
 62
  256
370
   -1
100
AcDbLine
 10
730
 20
268.8809254602195
 11
730
 21
221
  0
LINE
  5
375
100
AcDbEntity
  8
Frame
  6
ByLayer
 62
  256
370
   -1
100
AcDbLine
 10
925.4181350735705
 20
220.8809254602195
 11
925.4181350735705
 21
268.8809254602195
  0
LWPOLYLINE
  5
376
100
AcDbEntity
  8
Frame
  6
ByLayer
 62
  256
370
   -1
100
AcDbPolyline
 90
    5
 70
    1
 43
0
 10
1297.5088154183
 20
-90.00000000000028
 10
1040
 20
-90
 10
1046.15405091805
 20
-42.00000000000011
 10
1267.368194650691
 20
-42.00000000000034
 10
1303.662866336351
 20
-42.00000000000045
  0
LINE
  5
377
100
AcDbEntity
  8
Frame
  6
ByLayer
 62
  256
370
   -1
100
AcDbLine
 10
1040
 20
57.99999999999977
 11
1387.45305350107
 21
57.99999999999966
  0
LINE
  5
378
100
AcDbEntity
  8
Frame
  6
ByLayer
 62
  256
370
   -1
100
AcDbLine
 10
1387.45305350107
 20
57.99999999999966
 11
1393.60710441912
 21
9.999999999999659
  0
LINE
  5
379
100
AcDbEntity
  8
Frame
  6
ByLayer
 62
  256
370
   -1
100
AcDbLine
 10
1040
 20
57.99999999999977
 11
1040
 21
9.999999999999773
  0
LINE
  5
37A
100
AcDbEntity
  8
Frame
  6
ByLayer
 62
  256
370
   -1
100
AcDbLine
 10
1040
 20
10
 11
1393.60710441912
 21
9.999999999999659
  0
LINE
  5
37B
100
AcDbEntity
  8
Frame
  6
ByLayer
 62
  256
370
   -1
100
AcDbLine
 10
1040
 20
90.00000000000023
 11
1367.014150990582
 21
90.00000000000011
  0
LINE
  5
37C
100
AcDbEntity
  8
Frame
  6
ByLayer
 62
  256
370
   -1
100
AcDbLine
 10
1040
 20
138.0000000000002
 11
1360.860100072532
 21
137.9999999999999
  0
LINE
  5
37D
100
AcDbEntity
  8
Frame
  6
ByLayer
 62
  256
370
   -1
100
AcDbLine
 10
1360.860100072532
 20
138.0000000000001
 11
1367.014150990583
 21
89.99999999999989
  0
LINE
  5
37E
100
AcDbEntity
  8
Frame
  6
ByLayer
 62
  256
370
   -1
100
AcDbLine
 10
1040
 20
138.0000000000002
 11
1040
 21
90
  0
DIMENSION
  5
37F
100
AcDbEntity
  8
measure
  6
ByLayer
 62
  256
370
   -1
100
AcDbDimension
  2
*D30
 10
1360.860100072532
 20
150
 30
0
 11
1200.430050036266
 21
151.875
 31
0
 70
   32
 71
    5
  3
Standard
 53
0
210
0
220
0
230
1
100
AcDbAlignedDimension
 13
1040
 23
138.0000000000002
 33
0
 14
1360.860100072532
 24
137.9999999999999
 34
0
100
AcDbRotatedDimension
  0
DIMENSION
  5
380
100
AcDbEntity
  8
measure
  6
ByLayer
 62
  256
370
   -1
100
AcDbDimension
  2
*D31
 10
1367.014150990582
 20
80
 30
0
 11
1203.507075495291
 21
81.875
 31
0
 70
   32
 71
    5
  3
Standard
 53
0
210
0
220
0
230
1
100
AcDbAlignedDimension
 13
1040
 23
90
 33
0
 14
1367.014150990582
 24
90.00000000000011
 34
0
100
AcDbRotatedDimension
  0
DIMENSION
  5
381
100
AcDbEntity
  8
measure
  6
ByLayer
 62
  256
370
   -1
100
AcDbDimension
  2
*D32
 10
1387.45305350107
 20
70
 30
0
 11
1213.726526750535
 21
71.875
 31
0
 70
   32
 71
    5
  3
Standard
 53
0
210
0
220
0
230
1
100
AcDbAlignedDimension
 13
1040
 23
57.99999999999977
 33
0
 14
1387.45305350107
 24
57.99999999999966
 34
0
100
AcDbRotatedDimension
  0
DIMENSION
  5
382
100
AcDbEntity
  8
measure
  6
ByLayer
 62
  256
370
   -1
100
AcDbDimension
  2
*D33
 10
1393.60710441912
 20
0
 30
0
 11
1216.80355220956
 21
1.875
 31
0
 70
   32
 71
    5
  3
Standard
 53
0
210
0
220
0
230
1
100
AcDbAlignedDimension
 13
1040
 23
9.999999999999773
 33
0
 14
1393.60710441912
 24
9.999999999999659
 34
0
100
AcDbRotatedDimension
  0
DIMENSION
  5
383
100
AcDbEntity
  8
measure
  6
ByLayer
 62
  256
370
   -1
100
AcDbDimension
  2
*D34
 10
1297.5088154183
 20
-100
 30
0
 11
1168.75440770915
 21
-98.125
 31
0
 70
   32
 71
    5
  3
Standard
 53
0
210
0
220
0
230
1
100
AcDbAlignedDimension
 13
1040
 23
-90
 33
0
 14
1297.5088154183
 24
-90.00000000000028
 34
0
100
AcDbRotatedDimension
  0
DIMENSION
  5
384
100
AcDbEntity
  8
measure
  6
ByLayer
 62
  256
370
   -1
100
AcDbDimension
  2
*D35
 10
1040
 20
-30
 30
0
 11
1171.831433168175
 21
-28.125
 31
0
 70
   32
 71
    5
  3
Standard
 53
0
210
0
220
0
230
1
100
AcDbAlignedDimension
 13
1303.662866336351
 23
-42.00000000000045
 33
0
 14
1040
 24
-40
 34
0
100
AcDbRotatedDimension
  0
DIMENSION
  5
385
100
AcDbEntity
  8
measure
  6
ByLayer
 62
  256
370
   -1
100
AcDbDimension
  2
*D36
 10
1040
 20
-40
 30
0
 11
1043.077025459025
 21
-38.125
 31
0
 70
   32
 71
    5
  3
Standard
 53
0
210
0
220
0
230
1
100
AcDbAlignedDimension
 13
1046.15405091805
 23
-42.00000000000011
 33
0
 14
1040
 24
-40
 34
0
100
AcDbRotatedDimension
  0
LINE
  5
386
100
AcDbEntity
  8
Frame
  6
ByLayer
 62
  256
370
   -1
100
AcDbLine
 10
1339.994921240025
 20
-89.98880149684425
 11
1500.717945104893
 21
-90.00002208066365
  0
LINE
  5
387
100
AcDbEntity
  8
Frame
  6
ByLayer
 62
  256
370
   -1
100
AcDbLine
 10
1346.152323175239
 20
-41.9892312476203
 11
1506.875347040107
 21
-42.00045183143982
  0
LINE
  5
388
100
AcDbEntity
  8
Frame
  6
ByLayer
 62
  256
370
   -1
100
AcDbLine
 10
1339.994921240025
 20
-89.98880149684425
 11
1346.152323175239
 21
-41.98923124762041
  0
LINE
  5
389
100
AcDbEntity
  8
Frame
  6
ByLayer
 62
  256
370
   -1
100
AcDbLine
 10
1500.717945104893
 20
-90.00002208066365
 11
1506.875347040107
 21
-42.00045183143982
  0
DIMENSION
  5
38A
100
AcDbEntity
  8
measure
  6
ByLayer
 62
  256
370
   -1
100
AcDbDimension
  2
*D37
 10
1500.717945104893
 20
-97
 30
0
 11
1420.358972552447
 21
-95.125
 31
0
 70
   32
 71
    5
  3
Standard
 53
0
210
0
220
0
230
1
100
AcDbAlignedDimension
 13
1340
 23
-90
 33
0
 14
1500.717945104893
 24
-90.00002208066365
 34
0
100
AcDbRotatedDimension
  0
DIMENSION
  5
38B
100
AcDbEntity
  8
measure
  6
ByLayer
 62
  256
370
   -1
100
AcDbDimension
  2
*D38
 10
1340
 20
-31
 30
0
 11
1423.5
 21
-29.125
 31
0
 70
   32
 71
    5
  3
Standard
 53
0
210
0
220
0
230
1
100
AcDbAlignedDimension
 13
1507
 23
-42
 33
0
 14
1340
 24
-43
 34
0
100
AcDbRotatedDimension
  0
DIMENSION
  5
38C
100
AcDbEntity
  8
measure
  6
ByLayer
 62
  256
370
   -1
100
AcDbDimension
  2
*D39
 10
1340
 20
-40
 30
0
 11
1343.07616158762
 21
-38.125
 31
0
 70
   32
 71
    5
  3
Standard
 53
0
210
0
220
0
230
1
100
AcDbAlignedDimension
 13
1346.152323175239
 23
-41.98923124762041
 33
0
 14
1340
 24
-42
 34
0
100
AcDbRotatedDimension
  0
DIMENSION
  5
38D
100
AcDbEntity
  8
measure
  6
ByLayer
 62
  256
370
   -1
100
AcDbDimension
  2
*D40
 10
925.4181350735705
 20
240
 30
0
 11
827.7090675367853
 21
241.875
 31
0
 70
   32
 71
    5
  3
Standard
 53
0
210
0
220
0
230
1
100
AcDbAlignedDimension
 13
730
 23
221
 33
0
 14
925.4181350735705
 24
220.8809254602195
 34
0
100
AcDbRotatedDimension
  0
DIMENSION
  5
38E
100
AcDbEntity
  8
measure
  6
ByLayer
 62
  256
370
   -1
100
AcDbDimension
  2
*D41
 10
730
 20
240
 30
0
 11
715
 21
241.875
 31
0
 70
   32
 71
    5
  3
Standard
 53
0
210
0
220
0
230
1
100
AcDbAlignedDimension
 13
700
 23
240
 33
0
 14
730
 24
240
 34
0
100
AcDbRotatedDimension
  0
DIMENSION
  5
38F
100
AcDbEntity
  8
measure
  6
ByLayer
 62
  256
370
   -1
100
AcDbDimension
  2
*D42
 10
925.4200000000001
 20
240
 30
0
 11
940.4190675367854
 21
241.875
 31
0
 70
   32
 71
    5
  3
Standard
 53
0
210
0
220
0
230
1
100
AcDbAlignedDimension
 13
955.4181350735706
 23
239.9833656481035
 33
0
 14
925.4200000000001
 24
240
 34
0
100
AcDbRotatedDimension
  0
DIMENSION
  5
390
100
AcDbEntity
  8
measure
  6
ByLayer
 62
  256
370
   -1
100
AcDbDimension
  2
*D43
 10
970
 20
268.8809254602195
 30
0
 11
968.125
 21
244.8809254602195
 31
0
 70
   32
 71
    5
  3
Standard
 53
0
210
0
220
0
230
1
100
AcDbAlignedDimension
 13
955.4181350735705
 23
220.8809254602195
 33
0
 14
955.4181350735705
 24
268.8809254602195
 34
0
 50
90
100
AcDbRotatedDimension
  0
ENDSEC
  0
SECTION
  2
OBJECTS
  0
DICTIONARY
  5
C
330
0
100
AcDbDictionary
281
    1
  3
ACAD_GROUP
350
D
  0
DICTIONARY
  5
D
330
C
100
AcDbDictionary
281
    1
  0
ENDSEC
  0
EOF
