<?xml version="1.0"?>
<svg xmlns="http://www.w3.org/2000/svg" xmlns:lc="http://www.librecad.org" xmlns:xlink="http://www.w3.org/1999/xlink" width="28mm" height="28mm" viewBox="0 0 28 28">
    <g lc:layername="0" lc:is_locked="false" lc:is_construction="false" fill="none" stroke="black" stroke-width="1">
        <circle cx="14" cy="14" r="0.5"/>
        <circle cx="9.40380592" cy="18.59619408" r="0.75"/>
        <circle cx="18.59619408" cy="9.40380592" r="0.75"/>
        <circle cx="3" cy="3" r="1.5"/>
        <circle cx="25" cy="3" r="1.5"/>
        <circle cx="25" cy="25" r="1.5"/>
        <circle cx="3" cy="25" r="1.5"/>
        <line x1="11.8" y1="15.6" x2="16.2" y2="15.6"/>
        <line x1="16.2" y1="15.6" x2="16.2" y2="12.4"/>
        <line x1="16.2" y1="12.4" x2="11.8" y2="12.4"/>
        <line x1="11.8" y1="12.4" x2="11.8" y2="15.6"/>
        <line x1="5" y1="5" x2="23" y2="5"/>
        <line x1="23" y1="5" x2="23" y2="23"/>
        <line x1="23" y1="23" x2="5" y2="23"/>
        <line x1="5" y1="23" x2="5" y2="5"/>
        <line x1="0" y1="0" x2="28" y2="0"/>
        <line x1="28" y1="0" x2="28" y2="28"/>
        <line x1="28" y1="28" x2="0" y2="28"/>
        <line x1="0" y1="28" x2="0" y2="0"/>
    </g>
</svg>
