<?xml version="1.0" encoding="UTF-8" standalone="no"?>
<svg
   xmlns:dc="http://purl.org/dc/elements/1.1/"
   xmlns:cc="http://creativecommons.org/ns#"
   xmlns:rdf="http://www.w3.org/1999/02/22-rdf-syntax-ns#"
   xmlns:svg="http://www.w3.org/2000/svg"
   xmlns="http://www.w3.org/2000/svg"
   xmlns:sodipodi="http://sodipodi.sourceforge.net/DTD/sodipodi-0.dtd"
   xmlns:inkscape="http://www.inkscape.org/namespaces/inkscape"
   width="210mm"
   height="297mm"
   viewBox="0 0 210 297"
   version="1.1"
   id="svg2490"
   inkscape:version="1.0.1 (3bc2e813f5, 2020-09-07)"
   sodipodi:docname="audio1.svg">
  <defs
     id="defs2484">
    <inkscape:path-effect
       effect="skeletal"
       id="path-effect3562"
       is_visible="true"
       lpeversion="1"
       pattern="m 184.59285,313.87114 v 27.40396 z m 10.96157,0 v 27.40396 z m 10.96158,0 v 27.40396 z m 10.96158,0 v 27.40396 z m 10.96159,0 v 27.40396 z m 10.96158,0 v 27.40396 z m 10.96158,0 v 27.40396 z m 10.96159,0 v 27.40396 z m 10.96155,0 v 27.40396 z"
       copytype="single_stretched"
       prop_scale="0.33"
       scale_y_rel="false"
       spacing="0"
       normal_offset="0"
       tang_offset="0"
       prop_units="false"
       vertical_pattern="false"
       hide_knot="false"
       fuse_tolerance="0" />
    <marker
       id="DistanceX"
       orient="auto"
       refX="0.0"
       refY="0.0"
       style="overflow:visible">
      <path
         d="M 3,-3 L -3,3 M 0,-5 L  0,5"
         style="stroke:#000000; stroke-width:0.5"
         id="path3074" />
    </marker>
    <pattern
       id="Hatch"
       patternUnits="userSpaceOnUse"
       width="8"
       height="8"
       x="0"
       y="0">
      <path
         d="M8 4 l-4,4"
         stroke="#000000"
         stroke-width="0.25"
         linecap="square"
         id="path3077" />
      <path
         d="M6 2 l-4,4"
         stroke="#000000"
         stroke-width="0.25"
         linecap="square"
         id="path3079" />
      <path
         d="M4 0 l-4,4"
         stroke="#000000"
         stroke-width="0.25"
         linecap="square"
         id="path3081" />
    </pattern>
    <symbol
       id="*Model_Space" />
    <symbol
       id="*Paper_Space" />
  </defs>
  <sodipodi:namedview
     id="base"
     pagecolor="#ffffff"
     bordercolor="#666666"
     borderopacity="1.0"
     inkscape:pageopacity="0.0"
     inkscape:pageshadow="2"
     inkscape:zoom="1.979899"
     inkscape:cx="326.85133"
     inkscape:cy="239.05009"
     inkscape:document-units="mm"
     inkscape:current-layer="layer1"
     inkscape:document-rotation="0"
     showgrid="true"
     inkscape:snap-global="false"
     inkscape:snap-grids="true"
     inkscape:window-width="2130"
     inkscape:window-height="2071"
     inkscape:window-x="636"
     inkscape:window-y="87"
     inkscape:window-maximized="0">
    <inkscape:grid
       type="xygrid"
       id="grid3302" />
  </sodipodi:namedview>
  <metadata
     id="metadata2487">
    <rdf:RDF>
      <cc:Work
         rdf:about="">
        <dc:format>image/svg+xml</dc:format>
        <dc:type
           rdf:resource="http://purl.org/dc/dcmitype/StillImage" />
        <dc:title />
      </cc:Work>
    </rdf:RDF>
  </metadata>
  <g
     inkscape:label="Lag 1"
     inkscape:groupmode="layer"
     id="layer1">
    <g
       id="g1097-1-7"
       transform="translate(10.507563,-9.3358236)">
      <path
         style="fill:none;stroke:#000000;stroke-width:1;stroke-linecap:butt;stroke-linejoin:miter;stroke-miterlimit:4;stroke-dasharray:none;stroke-opacity:1"
         d="m 38.19754,25.790159 c 2.445382,1.556778 4.757128,5.338507 5.291666,9.260417 v 0"
         id="path1091-4-0"
         sodipodi:nodetypes="ccc" />
      <path
         style="fill:#000000;stroke:#000000;stroke-width:0.264583px;stroke-linecap:butt;stroke-linejoin:miter;stroke-opacity:1"
         d="m 43.923519,36.353515 -1.928794,-1.875748 2.672696,-0.634763 z"
         id="path1093-9-6" />
    </g>
    <g
       inkscape:label="0"
       id="g3144"
       transform="matrix(0.26458333,0,0,0.26458333,9.1428574,-213.14285)"
       style="stroke:#ff0000">
      <path
         d="M 18.897638,888.18898 H 0"
         style="fill:none;stroke:#ff0000;stroke-linecap:round"
         id="path3088" />
      <path
         d="m 37.795276,831.49606 v 37.79528"
         style="fill:none;stroke:#ff0000;stroke-linecap:round"
         id="path3090" />
      <path
         d="M 18.897638,888.18898 A 18.897638,18.897638 0 0 0 37.795276,869.29134"
         style="fill:none;stroke:#ff0000;stroke-linecap:round"
         id="path3092" />
      <path
         d="M 18.897638,1065.8268 H 0"
         style="fill:none;stroke:#ff0000;stroke-linecap:round"
         id="path3094" />
      <path
         d="m 37.795276,1122.5197 v -37.7953"
         style="fill:none;stroke:#ff0000;stroke-linecap:round"
         id="path3096" />
      <path
         d="M 37.795276,1084.7244 A 18.897638,18.897638 0 0 0 18.897638,1065.8268"
         style="fill:none;stroke:#ff0000;stroke-linecap:round"
         id="path3098" />
      <path
         d="M 529.13386,1065.8268 H 548.0315"
         style="fill:none;stroke:#ff0000;stroke-linecap:round"
         id="path3100" />
      <path
         d="m 510.23622,1122.5197 v -37.7953"
         style="fill:none;stroke:#ff0000;stroke-linecap:round"
         id="path3102" />
      <path
         d="m 529.13386,1065.8268 a 18.897638,18.897638 0 0 0 -18.89764,18.8976"
         style="fill:none;stroke:#ff0000;stroke-linecap:round"
         id="path3104" />
      <path
         d="M 548.0315,888.18898 H 529.13386"
         style="fill:none;stroke:#ff0000;stroke-linecap:round"
         id="path3106" />
      <path
         d="M 510.23622,869.29134 V 831.49606"
         style="fill:none;stroke:#ff0000;stroke-linecap:round"
         id="path3108" />
      <path
         d="m 510.23622,869.29134 a 18.897638,18.897638 0 0 0 18.89764,18.89764"
         style="fill:none;stroke:#ff0000;stroke-linecap:round"
         id="path3110" />
      <path
         d="M 548.0315,1065.8268 V 888.18898"
         style="fill:none;stroke:#ff0000;stroke-linecap:round"
         id="path3112" />
      <path
         d="M 37.795276,1122.5197 H 510.23622"
         style="fill:none;stroke:#ff0000;stroke-linecap:round"
         id="path3114" />
      <path
         d="M 0,888.18898 V 1065.8268"
         style="fill:none;stroke:#ff0000;stroke-linecap:round"
         id="path3116" />
      <path
         d="M 510.23622,831.49606 H 37.795276"
         style="fill:none;stroke:#ff0000;stroke-linecap:round"
         id="path3118" />
      <path
         d="m 175.74803,1103.622 a 5.669291,5.669291 0 1 0 -11.33858,0 5.669291,5.669291 0 1 0 11.33858,0 z"
         style="fill:none;stroke:#ff0000;stroke-linecap:round"
         id="path3120" />
      <path
         d="m 402.51968,1103.622 a 5.6692915,5.6692915 0 1 0 -11.33858,0 5.6692915,5.6692915 0 1 0 11.33858,0 z"
         style="fill:none;stroke:#ff0000;stroke-linecap:round"
         id="path3122" />
      <path
         d="m 402.51968,850.3937 a 5.6692915,5.6692915 0 1 0 -11.33858,0 5.6692915,5.6692915 0 1 0 11.33858,0 z"
         style="fill:none;stroke:#ff0000;stroke-linecap:round"
         id="path3124" />
      <path
         d="m 175.74803,850.3937 a 5.669291,5.669291 0 1 0 -11.33858,0 5.669291,5.669291 0 1 0 11.33858,0 z"
         style="fill:none;stroke:#ff0000;stroke-linecap:round"
         id="path3126" />
      <path
         d="m 132.28346,1058.2677 a 18.897638,18.897638 0 1 0 -37.795271,0 18.897638,18.897638 0 1 0 37.795271,0 z"
         style="fill:none;stroke:#ff0000;stroke-linecap:round"
         id="path3128" />
      <path
         d="m 245.66929,1058.2677 a 18.897638,18.897638 0 1 0 -37.79527,0 18.897638,18.897638 0 1 0 37.79527,0 z"
         style="fill:none;stroke:#ff0000;stroke-linecap:round"
         id="path3130" />
      <path
         d="m 353.38583,1058.2677 a 13.22835,13.22835 0 1 0 -26.4567,0 13.22835,13.22835 0 1 0 26.4567,0 z"
         style="fill:none;stroke:#ff0000;stroke-linecap:round"
         id="path3132" />
      <path
         d="m 466.77165,1058.2677 a 13.228347,13.228347 0 1 0 -26.45669,0 13.228346,13.228346 0 1 0 26.45669,0 z"
         style="fill:none;stroke:#ff0000;stroke-linecap:round"
         id="path3134" />
      <path
         d="m 126.61417,914.64567 a 13.228346,13.228346 0 1 0 -26.45669,0 13.228347,13.228347 0 1 0 26.45669,0 z"
         style="fill:none;stroke:#ff0000;stroke-linecap:round"
         id="path3136" />
      <path
         d="m 240,914.64567 a 13.228346,13.228346 0 1 0 -26.45669,0 13.228347,13.228347 0 1 0 26.45669,0 z"
         style="fill:none;stroke:#ff0000;stroke-linecap:round"
         id="path3138" />
      <path
         d="m 353.38583,914.64567 a 13.22835,13.22835 0 1 0 -26.4567,0 13.22835,13.22835 0 1 0 26.4567,0 z"
         style="fill:none;stroke:#ff0000;stroke-linecap:round"
         id="path3140" />
      <path
         d="m 466.77165,914.64567 a 13.228347,13.228347 0 1 0 -26.45669,0 13.228346,13.228346 0 1 0 26.45669,0 z"
         style="fill:none;stroke:#ff0000;stroke-linecap:round"
         id="path3142" />
    </g>
    <g
       id="g1097-1-7-2"
       transform="translate(41.614572,-9.3358236)">
      <path
         style="fill:none;stroke:#000000;stroke-width:1;stroke-linecap:butt;stroke-linejoin:miter;stroke-miterlimit:4;stroke-dasharray:none;stroke-opacity:1"
         d="m 38.19754,25.790159 c 2.445382,1.556778 4.757128,5.338507 5.291666,9.260417 v 0"
         id="path1091-4-0-7"
         sodipodi:nodetypes="ccc" />
      <path
         style="fill:#000000;stroke:#000000;stroke-width:0.264583px;stroke-linecap:butt;stroke-linejoin:miter;stroke-opacity:1"
         d="m 43.923519,36.353515 -1.928794,-1.875748 2.672696,-0.634763 z"
         id="path1093-9-6-5" />
    </g>
    <g
       id="g1097-1-7-2-7"
       transform="translate(72.28375,-9.3358236)">
      <path
         style="fill:none;stroke:#000000;stroke-width:1;stroke-linecap:butt;stroke-linejoin:miter;stroke-miterlimit:4;stroke-dasharray:none;stroke-opacity:1"
         d="m 38.19754,25.790159 c 2.445382,1.556778 4.757128,5.338507 5.291666,9.260417 v 0"
         id="path1091-4-0-7-5"
         sodipodi:nodetypes="ccc" />
      <path
         style="fill:#000000;stroke:#000000;stroke-width:0.264583px;stroke-linecap:butt;stroke-linejoin:miter;stroke-opacity:1"
         d="m 43.923519,36.353515 -1.928794,-1.875748 2.672696,-0.634763 z"
         id="path1093-9-6-5-0" />
    </g>
    <g
       id="g1097-1-7-2-7-6"
       transform="translate(97.941622,-9.3358236)">
      <path
         style="fill:none;stroke:#000000;stroke-width:1;stroke-linecap:butt;stroke-linejoin:miter;stroke-miterlimit:4;stroke-dasharray:none;stroke-opacity:1"
         d="m 38.19754,25.790159 c 2.445382,1.556778 4.757128,5.338507 5.291666,9.260417 v 0"
         id="path1091-4-0-7-5-1"
         sodipodi:nodetypes="ccc" />
      <path
         style="fill:#000000;stroke:#000000;stroke-width:0.264583px;stroke-linecap:butt;stroke-linejoin:miter;stroke-opacity:1"
         d="m 43.923519,36.353515 -1.928794,-1.875748 2.672696,-0.634763 z"
         id="path1093-9-6-5-0-5" />
    </g>
    <g
       id="g1097-1-7-2-7-6-0"
       transform="translate(97.941622,30.353701)">
      <path
         style="fill:none;stroke:#000000;stroke-width:1;stroke-linecap:butt;stroke-linejoin:miter;stroke-miterlimit:4;stroke-dasharray:none;stroke-opacity:1"
         d="m 38.19754,25.790159 c 2.445382,1.556778 4.757128,5.338507 5.291666,9.260417 v 0"
         id="path1091-4-0-7-5-1-5"
         sodipodi:nodetypes="ccc" />
      <path
         style="fill:#000000;stroke:#000000;stroke-width:0.264583px;stroke-linecap:butt;stroke-linejoin:miter;stroke-opacity:1"
         d="m 43.923519,36.353515 -1.928794,-1.875748 2.672696,-0.634763 z"
         id="path1093-9-6-5-0-5-4" />
    </g>
    <g
       id="g1097-1-7-2-7-6-0-2"
       transform="translate(72.28375,30.353701)">
      <path
         style="fill:none;stroke:#000000;stroke-width:1;stroke-linecap:butt;stroke-linejoin:miter;stroke-miterlimit:4;stroke-dasharray:none;stroke-opacity:1"
         d="m 38.19754,25.790159 c 2.445382,1.556778 4.757128,5.338507 5.291666,9.260417 v 0"
         id="path1091-4-0-7-5-1-5-4"
         sodipodi:nodetypes="ccc" />
      <path
         style="fill:#000000;stroke:#000000;stroke-width:0.264583px;stroke-linecap:butt;stroke-linejoin:miter;stroke-opacity:1"
         d="m 43.923519,36.353515 -1.928794,-1.875748 2.672696,-0.634763 z"
         id="path1093-9-6-5-0-5-4-9" />
    </g>
    <path
       style="fill:none;stroke:#000000;stroke-width:0.765;stroke-linecap:butt;stroke-linejoin:miter;stroke-opacity:1;stroke-miterlimit:4;stroke-dasharray:none"
       d="m 89.958332,10.583333 c 0,68.791666 0,68.791666 0,68.791666"
       id="path3304" />
    <g
       aria-label="COMM 1"
       id="text3308"
       style="font-size:3.29433px;line-height:1.25;font-family:'MS 33558';-inkscape-font-specification:'MS 33558, Normal';text-align:center;text-anchor:middle;stroke-width:0.264583">
      <path
         d="m 34.572356,12.447829 -0.01448,0.02091 q -0.0048,0.0064 -0.008,0.01126 -0.0032,0.0048 -0.0064,0.0097 -0.220372,0.297583 -0.579081,0.424659 -0.3571,0.125468 -0.704549,-0.04665 -0.403748,-0.20107 -0.593559,-0.682029 -0.188201,-0.480959 -0.162464,-0.998915 0.02734,-0.519565 0.273455,-0.953876 0.247718,-0.4343113 0.717418,-0.5436933 0.270238,-0.062734 0.538867,0.053082 0.26863,0.1142078 0.440745,0.3217119 0.0016,0 0.008,0.01126 0.07399,0.09651 0.03056,0.21233 -0.04343,0.114208 -0.159248,0.143162 -0.123859,0.03217 -0.228415,-0.07399 -0.215547,-0.250935 -0.415008,-0.241284 -0.199462,0.0097 -0.357101,0.164073 -0.157638,0.154422 -0.262195,0.395706 -0.104556,0.241284 -0.128685,0.452005 -0.02895,0.23485 0.0048,0.472916 0.03539,0.236459 0.146379,0.445571 0.193027,0.366752 0.485785,0.460048 0.294366,0.09169 0.574256,-0.281498 0.01287,-0.01609 0.03056,-0.04182 0.151205,-0.16729 0.318495,-0.03378 0.168899,0.131902 0.04987,0.299192 z"
         style="stroke-width:0.264583"
         id="path1242" />
      <path
         d="m 37.160528,10.61568 q 0.147987,0.445571 0.11099,0.924922 -0.03539,0.47935 -0.262195,0.875056 -0.143162,0.24611 -0.39088,0.418226 -0.247718,0.172115 -0.54691,0.120641 -0.487394,-0.08525 -0.746372,-0.508304 -0.258978,-0.423051 -0.297583,-0.941008 -0.037,-0.519564 0.139944,-1.011784 0.178551,-0.492219 0.567822,-0.7158086 0.18981,-0.109382 0.397314,-0.109382 0.395706,0 0.646641,0.2991921 0.250935,0.2975835 0.381229,0.6482495 z m -1.015001,-0.490611 q -0.295975,0 -0.448788,0.318495 -0.151205,0.318495 -0.191419,0.543693 -0.03056,0.164073 -0.02252,0.397314 0.008,0.233242 0.06756,0.461657 0.05952,0.226807 0.17855,0.410183 0.119033,0.181767 0.31206,0.241284 0.225199,0.07078 0.387663,-0.08847 0.164073,-0.160856 0.247718,-0.341015 0.08525,-0.184984 0.115817,-0.485785 0.03217,-0.3008 -0.01448,-0.599992 -0.04504,-0.300801 -0.178551,-0.540476 -0.13351,-0.241284 -0.37962,-0.307235 -0.03217,-0.0097 -0.07399,-0.0097 z"
         style="stroke-width:0.264583"
         id="path1244" />
      <path
         d="m 40.102583,12.73737 q -0.03539,0.225198 -0.228415,0.225198 -0.191419,-0.0016 -0.225199,-0.225198 v -2.009091 l -0.551736,0.944225 q -0.08847,0.106164 -0.197852,0.11099 -0.107774,0.0048 -0.193028,-0.11099 l -0.548518,-0.939399 0.0016,2.004265 q -0.02574,0.22359 -0.233241,0.22359 -0.205895,-0.0016 -0.221981,-0.22359 V 9.8966539 q 0.01287,-0.1849844 0.162464,-0.2203727 0.149596,-0.036997 0.260587,0.1013392 l 0.773717,1.3302786 0.78176,-1.3302786 q 0.110991,-0.1383361 0.25737,-0.1013392 0.147987,0.036997 0.162464,0.2203727 z"
         style="stroke-width:0.264583"
         id="path1246" />
      <path
         d="m 42.887,12.73737 q -0.03539,0.225198 -0.228416,0.225198 -0.191418,-0.0016 -0.225198,-0.225198 v -2.009091 l -0.551736,0.944225 q -0.08847,0.106164 -0.197853,0.11099 -0.107773,0.0048 -0.193027,-0.11099 l -0.548519,-0.939399 0.0016,2.004265 q -0.02574,0.22359 -0.233241,0.22359 -0.205896,-0.0016 -0.221981,-0.22359 V 9.8966539 q 0.01287,-0.1849844 0.162464,-0.2203727 0.149596,-0.036997 0.260587,0.1013392 l 0.773717,1.3302786 0.78176,-1.3302786 q 0.11099,-0.1383361 0.257369,-0.1013392 0.147988,0.036997 0.162465,0.2203727 z"
         style="stroke-width:0.264583"
         id="path1248" />
      <path
         d="m 45.024214,12.734153 q 0,0.02091 -0.0048,0.04504 -0.03861,0.181768 -0.225199,0.181768 -0.136727,0 -0.202678,-0.127076 -0.01448,-0.02413 -0.02413,-0.09973 V 9.8966539 q 0.0048,-0.038606 0.01126,-0.072385 0.008,-0.035388 0.03539,-0.067559 0.06434,-0.078819 0.165681,-0.085254 0.10134,-0.00804 0.175333,0.064342 0.03861,0.038605 0.04987,0.073994 0.01126,0.035388 0.0193,0.086862 z"
         style="stroke-width:0.264583"
         id="path1250" />
    </g>
    <g
       aria-label="COMM 2"
       id="text3312"
       style="font-size:3.29433px;line-height:1.25;font-family:'MS 33558';-inkscape-font-specification:'MS 33558, Normal';text-align:center;text-anchor:middle;stroke-width:0.264583">
      <path
         d="m 64.750308,12.449674 -0.01448,0.02091 q -0.0048,0.0064 -0.008,0.01126 -0.0032,0.0048 -0.0064,0.0097 -0.220373,0.297584 -0.579082,0.42466 -0.3571,0.125468 -0.704549,-0.04665 -0.403748,-0.20107 -0.593558,-0.68203 -0.188202,-0.480959 -0.162465,-0.998915 0.02735,-0.519565 0.273455,-0.953876 0.247718,-0.4343109 0.717418,-0.5436929 0.270238,-0.062734 0.538867,0.053082 0.26863,0.1142078 0.440746,0.3217115 0.0016,0 0.008,0.01126 0.07399,0.09651 0.03056,0.21233 -0.04343,0.114208 -0.159247,0.143162 -0.12386,0.03217 -0.228416,-0.07399 -0.215547,-0.250935 -0.415008,-0.241284 -0.199462,0.0097 -0.3571,0.164073 -0.157639,0.154422 -0.262196,0.395706 -0.104556,0.241284 -0.128684,0.452005 -0.02896,0.23485 0.0048,0.472917 0.03539,0.236458 0.146379,0.445571 0.193027,0.366751 0.485785,0.460048 0.294367,0.09169 0.574256,-0.281498 0.01287,-0.01609 0.03056,-0.04182 0.151204,-0.16729 0.318494,-0.03378 0.168899,0.131901 0.04987,0.299192 z"
         style="stroke-width:0.264583"
         id="path1231" />
      <path
         d="m 67.33848,10.617524 q 0.147987,0.445571 0.11099,0.924922 -0.03539,0.479351 -0.262195,0.875056 -0.143162,0.24611 -0.39088,0.418226 -0.247718,0.172116 -0.54691,0.120642 -0.487393,-0.08525 -0.746372,-0.508305 -0.258978,-0.423051 -0.297583,-0.941007 -0.037,-0.519565 0.139945,-1.011784 0.17855,-0.492219 0.567821,-0.7158091 0.18981,-0.1093821 0.397314,-0.1093821 0.395706,0 0.646641,0.2991921 0.250936,0.2975831 0.381229,0.6482491 z m -1.015001,-0.49061 q -0.295975,0 -0.448788,0.318494 -0.151205,0.318495 -0.191419,0.543694 -0.03056,0.164073 -0.02252,0.397314 0.008,0.233241 0.06756,0.461656 0.05952,0.226807 0.17855,0.410183 0.119033,0.181767 0.31206,0.241284 0.225199,0.07078 0.387663,-0.08847 0.164073,-0.160856 0.247718,-0.341014 0.08525,-0.184985 0.115817,-0.485785 0.03217,-0.300801 -0.01448,-0.599993 -0.04504,-0.300801 -0.17855,-0.540476 -0.133511,-0.241284 -0.37962,-0.307235 -0.03217,-0.0097 -0.07399,-0.0097 z"
         style="stroke-width:0.264583"
         id="path1233" />
      <path
         d="m 70.280535,12.739214 q -0.03539,0.225199 -0.228415,0.225199 -0.191419,-0.0016 -0.225199,-0.225199 v -2.00909 l -0.551735,0.944224 q -0.08847,0.106165 -0.197853,0.110991 -0.107774,0.0048 -0.193027,-0.110991 l -0.548519,-0.939399 0.0016,2.004265 q -0.02574,0.22359 -0.233241,0.22359 -0.205895,-0.0016 -0.221981,-0.22359 V 9.8984983 q 0.01287,-0.1849844 0.162465,-0.2203727 0.149596,-0.036997 0.260586,0.1013393 l 0.773717,1.3302791 0.78176,-1.3302791 q 0.110991,-0.1383362 0.25737,-0.1013393 0.147987,0.036997 0.162464,0.2203727 z"
         style="stroke-width:0.264583"
         id="path1235" />
      <path
         d="m 73.064952,12.739214 q -0.03539,0.225199 -0.228415,0.225199 -0.191419,-0.0016 -0.225199,-0.225199 v -2.00909 l -0.551736,0.944224 q -0.08847,0.106165 -0.197853,0.110991 -0.107773,0.0048 -0.193027,-0.110991 l -0.548518,-0.939399 0.0016,2.004265 q -0.02574,0.22359 -0.233241,0.22359 -0.205896,-0.0016 -0.221981,-0.22359 V 9.8984983 q 0.01287,-0.1849844 0.162464,-0.2203727 0.149596,-0.036997 0.260587,0.1013393 l 0.773717,1.3302791 0.78176,-1.3302791 q 0.110991,-0.1383362 0.257369,-0.1013393 0.147988,0.036997 0.162465,0.2203727 z"
         style="stroke-width:0.264583"
         id="path1237" />
      <path
         d="m 74.973751,12.962804 q -0.0949,0 -0.162465,-0.06595 -0.06595,-0.06595 -0.06595,-0.162464 0,-0.0032 0.01609,-0.10134 0.01769,-0.09973 0.02091,-0.114207 0.08204,-0.394097 0.318495,-0.749589 0.238067,-0.355492 0.574256,-0.582299 0.119033,-0.08043 0.215547,-0.16729 0.09812,-0.08847 0.199461,-0.197853 0.130294,-0.147987 0.112599,-0.336189 -0.01609,-0.188201 -0.186592,-0.297583 -0.209113,-0.130293 -0.42466,-0.0064 -0.215547,0.123859 -0.205896,0.369968 0,0.0048 0,0.01126 0.0016,0.0048 0.0016,0.0097 0.0097,0.07399 -0.03539,0.14477 -0.04504,0.06917 -0.114207,0.09008 -0.106165,0.03378 -0.197853,-0.02091 -0.09008,-0.05469 -0.102948,-0.160856 -0.0048,-0.01448 -0.0016,-0.119033 0.0048,-0.104557 0.0097,-0.122251 0.07239,-0.3957054 0.415008,-0.5951668 0.344232,-0.2010699 0.725461,-0.070777 0.452005,0.1576388 0.551736,0.6160784 0.09973,0.458439 -0.215547,0.801063 -0.06434,0.06917 -0.130294,0.136727 -0.06434,0.06595 -0.138336,0.127076 -0.115816,0.09651 -0.244501,0.17855 -0.127076,0.08204 -0.228415,0.193028 -0.115817,0.128684 -0.218764,0.283106 -0.10134,0.154422 -0.160856,0.316886 -0.0048,0.0097 -0.02574,0.07078 -0.0193,0.06113 -0.0193,0.06595 H 76.4488 q 0.221981,0.01448 0.215547,0.234849 -0.0064,0.220373 -0.22359,0.220373 z"
         style="stroke-width:0.264583"
         id="path1239" />
    </g>
    <g
       aria-label="SECURE
VOICE"
       id="text3320"
       style="font-size:3.29433px;line-height:1.25;font-family:'MS 33558';-inkscape-font-specification:'MS 33558, Normal';text-align:center;text-anchor:middle;stroke-width:0.264583">
      <path
         d="m 93.317241,11.209413 0.02574,0.01126 0.02895,0.01448 0.02574,0.01448 q 0.01126,0.008 0.02413,0.01609 0.01448,0.0064 0.02735,0.01448 0.318494,0.209112 0.394097,0.579081 0.02895,0.14477 0.01287,0.297583 -0.02574,0.218765 -0.154422,0.405357 -0.127076,0.184985 -0.320103,0.286324 -0.207504,0.109382 -0.429485,0.109382 -0.373186,0 -0.712592,-0.09491 -0.339406,-0.09651 -0.484177,-0.51313 -0.0193,-0.05308 -0.02895,-0.109382 -0.0097,-0.0563 -0.02252,-0.1126 -0.02413,-0.115816 0.0563,-0.204287 0.08204,-0.08847 0.202679,-0.06756 0.127076,0.02574 0.176941,0.157639 l 0.0048,0.01448 q 0.07721,0.349057 0.268629,0.416617 0.193027,0.06756 0.535651,0.06113 0.315277,0 0.432702,-0.295975 0.05147,-0.131902 0.01609,-0.273455 -0.03539,-0.143162 -0.139945,-0.238067 -0.04665,-0.04021 -0.12225,-0.0756 l -0.744764,-0.326538 -0.02413,-0.01287 Q 92.001439,11.09038 91.912968,10.734888 91.805195,10.323097 92.062564,9.9965591 92.321542,9.6684129 92.741376,9.6684129 l 0.176942,0.00483 q 0.08686,0.016086 0.16729,0.032171 0.08043,0.014477 0.162465,0.051474 0.202678,0.094905 0.310452,0.2605863 0.107773,0.165682 0.194635,0.358709 0.008,0.01769 0.01448,0.04182 0.0177,0.07882 -0.01608,0.143161 -0.0193,0.04021 -0.04021,0.06113 -0.02091,0.02091 -0.03378,0.02895 -0.08365,0.05952 -0.183376,0.03539 -0.09973,-0.02252 -0.152813,-0.128685 -0.04182,-0.0933 -0.09008,-0.18981 -0.04665,-0.09812 -0.131902,-0.162464 -0.03539,-0.02574 -0.06917,-0.037 -0.03217,-0.01287 -0.07238,-0.02735 l -0.104557,-0.01769 -0.147987,-0.0048 q -0.215547,0.0032 -0.329755,0.186592 -0.07721,0.117425 -0.05791,0.262196 0.02252,0.17855 0.16729,0.276672 0.0064,0.0048 0.01448,0.01126 0.008,0.0048 0.01769,0.0097 l 0.0177,0.008 0.0193,0.008 z"
         style="stroke-width:0.264583"
         id="path1208" />
      <path
         d="m 96.045358,10.117201 h -1.333496 v 0.879882 h 1.01661 q 0.228415,0.03378 0.226806,0.230024 0,0.194636 -0.226806,0.226807 h -1.01661 v 1.056824 h 1.333496 q 0.226807,0.03378 0.226807,0.226806 0,0.193028 -0.226807,0.225199 h -1.557086 q -0.20107,-0.02574 -0.228415,-0.228416 V 9.8936113 q 0.03056,-0.2123299 0.228415,-0.2251984 h 1.557086 q 0.226807,0.017694 0.225198,0.2268069 0,0.2075042 -0.225198,0.2219812 z"
         style="stroke-width:0.264583"
         id="path1210" />
      <path
         d="m 98.791169,12.448004 -0.01448,0.02091 q -0.0048,0.0064 -0.008,0.01126 -0.0032,0.0048 -0.0064,0.0097 -0.220373,0.297584 -0.579082,0.42466 -0.3571,0.125468 -0.704549,-0.04665 -0.403748,-0.20107 -0.593558,-0.682029 -0.188202,-0.48096 -0.162465,-0.998916 0.02735,-0.519565 0.273455,-0.953876 0.247719,-0.4343108 0.717418,-0.5436928 0.270238,-0.062734 0.538867,0.053083 0.26863,0.1142077 0.440746,0.3217123 0.0016,0 0.008,0.01126 0.07399,0.09651 0.03056,0.21233 -0.04343,0.114208 -0.159247,0.143162 -0.123859,0.03217 -0.228416,-0.07399 -0.215547,-0.250935 -0.415008,-0.241284 -0.199462,0.0097 -0.3571,0.164074 -0.157639,0.154421 -0.262196,0.395705 -0.104556,0.241284 -0.128684,0.452005 -0.02895,0.23485 0.0048,0.472917 0.03539,0.236458 0.146379,0.445571 0.193027,0.366751 0.485785,0.460048 0.294367,0.09169 0.574256,-0.281498 0.01287,-0.01609 0.03056,-0.04182 0.151204,-0.16729 0.318494,-0.03378 0.168899,0.131902 0.04987,0.299192 z"
         style="stroke-width:0.264583"
         id="path1212" />
      <path
         d="m 101.4083,11.876965 v 0.03217 q -0.005,0.08043 -0.006,0.09651 -0.0676,0.492219 -0.40375,0.727069 -0.33619,0.233241 -0.71742,0.218764 -0.381224,-0.01609 -0.69811,-0.278281 -0.315278,-0.262195 -0.342623,-0.764066 v -0.03217 -1.9833537 q 0,-0.048257 0.01769,-0.086862 0.07721,-0.1688987 0.255761,-0.1335104 0.180159,0.035388 0.180159,0.2203727 v 1.9833537 q 0.02413,0.369969 0.324929,0.553345 0.30241,0.183375 0.63538,-0.01609 0.1496,-0.08847 0.21876,-0.228415 0.0708,-0.139945 0.0836,-0.308844 V 9.8936113 q 0,-0.028954 0.003,-0.043431 0.037,-0.1978528 0.24289,-0.1785501 0.2059,0.019303 0.2059,0.2219813 z"
         style="stroke-width:0.264583"
         id="path1214" />
      <path
         d="m 103.83239,12.613685 q 0.10295,0.181768 -0.0579,0.305627 -0.0772,0.05469 -0.17855,0.037 -0.0997,-0.01769 -0.14638,-0.09973 l -0.79302,-1.253068 h -0.40214 v 1.132426 q 0,0.139945 -0.12708,0.202678 -0.12708,0.06113 -0.23807,-0.02413 -0.0885,-0.06595 -0.0885,-0.17855 V 9.8936113 q 0,-0.093296 0.0643,-0.1592474 0.066,-0.065951 0.16085,-0.065951 h 0.99892 q 0.36031,0 0.62573,0.230024 0.26541,0.2284151 0.32975,0.5806901 0.0676,0.378011 -0.16085,0.707766 -0.22681,0.328146 -0.60321,0.398923 l -0.0306,0.0048 z m -0.80749,-1.46218 q 0.16407,0 0.30241,-0.09973 0.13994,-0.09973 0.1882,-0.260587 0.0756,-0.247718 -0.0692,-0.447179 -0.14477,-0.20107 -0.39892,-0.221981 h -0.79302 v 1.029478 z"
         style="stroke-width:0.264583"
         id="path1216" />
      <path
         d="m 106.20824,10.117201 h -1.3335 v 0.879882 h 1.01661 q 0.22842,0.03378 0.22681,0.230024 0,0.194636 -0.22681,0.226807 h -1.01661 v 1.056824 h 1.3335 q 0.2268,0.03378 0.2268,0.226806 0,0.193028 -0.2268,0.225199 h -1.55709 q -0.20107,-0.02574 -0.22841,-0.228416 V 9.8936113 q 0.0306,-0.2123299 0.22841,-0.2251984 h 1.55709 q 0.2268,0.017694 0.22519,0.2268069 0,0.2075042 -0.22519,0.2219812 z"
         style="stroke-width:0.264583"
         id="path1218" />
      <path
         d="m 93.795787,14.090343 q -0.03056,-0.228415 0.162465,-0.279889 0.194635,-0.05147 0.276672,0.162464 l 0.542085,2.007482 0.545301,-2.026785 q 0.08204,-0.217155 0.283107,-0.157638 0.20107,0.05791 0.154421,0.275063 l -0.765674,2.842325 q -0.06434,0.165682 -0.215547,0.16729 -0.151205,0 -0.220373,-0.160856 z"
         style="stroke-width:0.264583"
         id="path1220" />
      <path
         d="m 98.351228,14.733767 q 0.147987,0.445571 0.11099,0.924922 -0.03539,0.47935 -0.262195,0.875056 -0.143162,0.24611 -0.39088,0.418225 -0.247718,0.172116 -0.54691,0.120642 -0.487393,-0.08525 -0.746372,-0.508304 -0.258978,-0.423052 -0.297583,-0.941008 -0.037,-0.519564 0.139945,-1.011784 0.17855,-0.492219 0.567821,-0.715809 0.18981,-0.109382 0.397314,-0.109382 0.395706,0 0.646641,0.299192 0.250936,0.297584 0.381229,0.64825 z m -1.015001,-0.490611 q -0.295975,0 -0.448788,0.318495 -0.151205,0.318495 -0.191419,0.543693 -0.03056,0.164073 -0.02252,0.397314 0.008,0.233241 0.06756,0.461657 0.05952,0.226807 0.17855,0.410183 0.119033,0.181767 0.31206,0.241283 0.225199,0.07078 0.387663,-0.08847 0.164073,-0.160856 0.247718,-0.341015 0.08525,-0.184984 0.115817,-0.485785 0.03217,-0.300801 -0.01448,-0.599993 -0.04504,-0.3008 -0.17855,-0.540476 -0.133511,-0.241284 -0.37962,-0.307234 -0.03217,-0.0097 -0.07399,-0.0097 z"
         style="stroke-width:0.264583"
         id="path1222" />
      <path
         d="m 99.351752,16.858674 q -0.03539,0.226807 -0.230024,0.225198 -0.193027,0 -0.226807,-0.225198 v -2.843933 q 0.03378,-0.226807 0.226807,-0.226807 0.194636,-0.0016 0.230024,0.226807 z"
         style="stroke-width:0.264583"
         id="path1224" />
      <path
         d="m 101.88041,16.565916 -0.0145,0.02091 q -0.005,0.0064 -0.008,0.01126 -0.003,0.0048 -0.006,0.0097 -0.22037,0.297583 -0.57908,0.424659 -0.3571,0.125468 -0.70455,-0.04665 -0.40375,-0.20107 -0.593556,-0.682029 -0.188201,-0.480959 -0.162464,-0.998916 0.02734,-0.519564 0.27346,-0.953875 0.24771,-0.434311 0.71741,-0.543693 0.27024,-0.06273 0.53887,0.05308 0.26863,0.114208 0.44075,0.321712 0.002,0 0.008,0.01126 0.074,0.09651 0.0306,0.21233 -0.0434,0.114207 -0.15925,0.143161 -0.12386,0.03217 -0.22841,-0.07399 -0.21555,-0.250936 -0.41501,-0.241284 -0.19946,0.0097 -0.3571,0.164073 -0.15764,0.154422 -0.2622,0.395706 -0.10455,0.241283 -0.12868,0.452005 -0.0289,0.234849 0.005,0.472916 0.0354,0.236458 0.14637,0.445571 0.19303,0.366752 0.48579,0.460048 0.29437,0.09169 0.57425,-0.281498 0.0129,-0.01609 0.0306,-0.04182 0.1512,-0.16729 0.31849,-0.03378 0.1689,0.131902 0.0499,0.299192 z"
         style="stroke-width:0.264583"
         id="path1226" />
      <path
         d="m 104.1147,14.235113 h -1.3335 v 0.879882 h 1.01661 q 0.22842,0.03378 0.22681,0.230024 0,0.194636 -0.22681,0.226807 h -1.01661 v 1.056824 h 1.3335 q 0.2268,0.03378 0.2268,0.226807 0,0.193027 -0.2268,0.225198 h -1.55709 q -0.20107,-0.02574 -0.22841,-0.228415 v -2.840716 q 0.0306,-0.21233 0.22841,-0.225199 h 1.55709 q 0.2268,0.01769 0.2252,0.226807 0,0.207504 -0.2252,0.221981 z"
         style="stroke-width:0.264583"
         id="path1228" />
    </g>
    <g
       aria-label="MSL"
       id="text3326"
       style="font-size:3.29433px;line-height:1.25;font-family:'MS 33558';-inkscape-font-specification:'MS 33558, Normal';text-align:center;text-anchor:middle;stroke-width:0.264583">
      <path
         d="m 129.51048,12.73624 q -0.0354,0.225198 -0.22841,0.225198 -0.19142,-0.0016 -0.2252,-0.225198 v -2.009091 l -0.55174,0.944224 q -0.0885,0.106165 -0.19785,0.110991 -0.10777,0.0048 -0.19303,-0.110991 l -0.54852,-0.939398 0.002,2.004265 q -0.0257,0.22359 -0.23324,0.22359 -0.20589,-0.0016 -0.22198,-0.22359 V 9.8955237 q 0.0129,-0.1849843 0.16247,-0.2203726 0.14959,-0.036997 0.26058,0.1013392 l 0.77372,1.3302787 0.78176,-1.3302787 q 0.11099,-0.1383361 0.25737,-0.1013392 0.14799,0.036997 0.16246,0.2203726 z"
         style="stroke-width:0.264583"
         id="path1201" />
      <path
         d="m 131.51475,11.208108 0.0257,0.01126 0.0289,0.01448 0.0257,0.01448 q 0.0113,0.008 0.0241,0.01609 0.0145,0.0064 0.0273,0.01448 0.31849,0.209113 0.3941,0.579081 0.029,0.144771 0.0129,0.297584 -0.0257,0.218764 -0.15443,0.405357 -0.12707,0.184984 -0.3201,0.286323 -0.2075,0.109383 -0.42948,0.109383 -0.37319,0 -0.7126,-0.09491 -0.3394,-0.09651 -0.48417,-0.51313 -0.0193,-0.05308 -0.029,-0.109382 -0.01,-0.0563 -0.0225,-0.112599 -0.0241,-0.115816 0.0563,-0.204287 0.082,-0.08847 0.20268,-0.06756 0.12708,0.02574 0.17694,0.157639 l 0.005,0.01448 q 0.0772,0.349058 0.26863,0.416617 0.19302,0.06756 0.53565,0.06113 0.31528,0 0.4327,-0.295975 0.0515,-0.131902 0.0161,-0.273455 -0.0354,-0.143162 -0.13995,-0.238067 -0.0466,-0.04021 -0.12225,-0.0756 l -0.74476,-0.326537 -0.0241,-0.01287 q -0.36514,-0.193027 -0.45361,-0.548519 -0.10778,-0.411791 0.14959,-0.7383286 0.25898,-0.3281461 0.67881,-0.3281461 l 0.17695,0.00483 q 0.0869,0.016086 0.16729,0.032171 0.0804,0.014477 0.16246,0.051474 0.20268,0.094905 0.31045,0.2605869 0.10778,0.165681 0.19464,0.358708 0.008,0.01769 0.0145,0.04182 0.0177,0.07882 -0.0161,0.143162 -0.0193,0.04021 -0.0402,0.06113 -0.0209,0.02091 -0.0338,0.02895 -0.0837,0.05952 -0.18338,0.03539 -0.0997,-0.02252 -0.15281,-0.128684 -0.0418,-0.0933 -0.0901,-0.18981 -0.0466,-0.09812 -0.1319,-0.162465 -0.0354,-0.02574 -0.0692,-0.037 -0.0322,-0.01287 -0.0724,-0.02735 l -0.10455,-0.01769 -0.14799,-0.0048 q -0.21555,0.0032 -0.32976,0.186593 -0.0772,0.117425 -0.0579,0.262195 0.0225,0.17855 0.16729,0.276672 0.006,0.0048 0.0145,0.01126 0.008,0.0048 0.0177,0.0097 l 0.0177,0.008 0.0193,0.008 z"
         style="stroke-width:0.264583"
         id="path1203" />
      <path
         d="m 132.68578,12.963047 q -0.19785,-0.01287 -0.22842,-0.22359 V 9.8955237 q 0.0338,-0.2316325 0.23485,-0.2268068 0.20107,0.00322 0.21877,0.2268068 v 2.6187353 l 1.4847,-0.0016 q 0.22841,0.02574 0.2252,0.231633 -0.002,0.204287 -0.22681,0.218764 z"
         style="stroke-width:0.264583"
         id="path1205" />
    </g>
    <g
       aria-label="THREAT"
       id="text3330"
       style="font-size:3.29433px;line-height:1.25;font-family:'MS 33558';-inkscape-font-specification:'MS 33558, Normal';text-align:center;text-anchor:middle;stroke-width:0.264583">
      <path
         d="m 121.94262,54.297785 v -2.615518 h -0.59034 q -0.2252,-0.01769 -0.2252,-0.225198 0.002,-0.209113 0.2252,-0.228415 h 1.63269 q 0.22198,0.01769 0.22198,0.228415 0.002,0.209113 -0.22198,0.225198 h -0.58873 v 2.615518 q -0.037,0.228416 -0.23807,0.225199 -0.19946,-0.0032 -0.21555,-0.225199 z"
         style="stroke-width:0.264583"
         id="path1188" />
      <path
         d="m 123.68791,54.301002 v -2.843933 q 0.0338,-0.231632 0.23485,-0.226807 0.20107,0.0032 0.21876,0.226807 v 1.063258 h 1.29489 v -1.063258 q 0.0338,-0.226807 0.22681,-0.226807 0.19464,-0.0016 0.23002,0.226807 v 2.843933 q -0.0354,0.226807 -0.23002,0.225199 -0.19303,0 -0.22681,-0.225199 v -1.323844 h -1.29489 v 1.323844 q -0.0177,0.221982 -0.21876,0.225199 -0.20107,0.0032 -0.23485,-0.225199 z"
         style="stroke-width:0.264583"
         id="path1190" />
      <path
         d="m 128.36238,54.173926 q 0.10295,0.181767 -0.0579,0.305626 -0.0772,0.05469 -0.17855,0.037 -0.0997,-0.01769 -0.14637,-0.09973 l -0.79302,-1.253068 h -0.40214 v 1.132426 q 0,0.139944 -0.12708,0.202678 -0.12708,0.06113 -0.23807,-0.02413 -0.0885,-0.06595 -0.0885,-0.17855 v -2.842325 q 0,-0.0933 0.0643,-0.159247 0.066,-0.06595 0.16086,-0.06595 h 0.99892 q 0.36031,0 0.62573,0.230024 0.26541,0.228415 0.32975,0.58069 0.0676,0.378011 -0.16086,0.707766 -0.2268,0.328146 -0.60321,0.398923 l -0.0306,0.0048 z m -0.80749,-1.46218 q 0.16407,0 0.30241,-0.09973 0.13994,-0.09973 0.1882,-0.260587 0.0756,-0.247718 -0.0692,-0.447179 -0.14477,-0.20107 -0.39892,-0.221982 h -0.79302 v 1.029479 z"
         style="stroke-width:0.264583"
         id="path1192" />
      <path
         d="m 130.73823,51.677442 h -1.3335 v 0.879882 h 1.01661 q 0.22841,0.03378 0.22681,0.230024 0,0.194636 -0.22681,0.226807 h -1.01661 v 1.056823 h 1.3335 q 0.2268,0.03378 0.2268,0.226807 0,0.193027 -0.2268,0.225199 h -1.55709 q -0.20107,-0.02574 -0.22842,-0.228416 v -2.840716 q 0.0306,-0.21233 0.22842,-0.225198 h 1.55709 q 0.2268,0.01769 0.22519,0.226807 0,0.207504 -0.22519,0.221981 z"
         style="stroke-width:0.264583"
         id="path1194" />
      <path
         d="m 133.15428,53.46616 -0.489,-1.35119 -0.49222,1.35119 z m -0.489,-1.35119 0.489,1.35119 z m -1.24181,2.097562 q 0.25737,-0.709375 0.51474,-1.417141 0.25898,-0.709375 0.51796,-1.41875 0.0531,-0.146379 0.21072,-0.147987 0.15764,-0.0016 0.21233,0.147987 l 1.03108,2.843933 q 0.0483,0.226807 -0.13833,0.292758 -0.18659,0.06595 -0.28793,-0.135119 l -0.16569,-0.460048 h -1.31097 l -0.16086,0.448788 q -0.10294,0.202679 -0.29275,0.133511 -0.18981,-0.07078 -0.1303,-0.287932 z"
         style="stroke-width:0.264583"
         id="path1196" />
      <path
         d="m 135.04273,54.297785 v -2.615518 h -0.59034 q -0.2252,-0.01769 -0.2252,-0.225198 0.002,-0.209113 0.2252,-0.228415 h 1.63269 q 0.22198,0.01769 0.22198,0.228415 0.002,0.209113 -0.22198,0.225198 h -0.58874 v 2.615518 q -0.037,0.228416 -0.23806,0.225199 -0.19946,-0.0032 -0.21555,-0.225199 z"
         style="stroke-width:0.264583"
         id="path1198" />
    </g>
    <g
       aria-label="TF"
       id="text3334"
       style="font-size:3.29433px;line-height:1.25;font-family:'MS 33558';-inkscape-font-specification:'MS 33558, Normal';text-align:center;text-anchor:middle;stroke-width:0.264583">
      <path
         d="m 97.863267,54.29777 v -2.615518 h -0.590342 q -0.225198,-0.01769 -0.225198,-0.225198 0.0016,-0.209113 0.225198,-0.228416 h 1.632688 q 0.221982,0.0177 0.221982,0.228416 0.0016,0.209113 -0.221982,0.225198 h -0.588732 v 2.615518 q -0.037,0.228415 -0.238067,0.225198 -0.199462,-0.0032 -0.215547,-0.225198 z"
         style="stroke-width:0.264583"
         id="path1183" />
      <path
         d="m 99.608554,54.294553 v -2.837499 q 0.02895,-0.21233 0.228415,-0.228416 h 1.557081 q 0.22359,0.0177 0.22359,0.228416 0,0.209113 -0.2268,0.22359 h -1.33028 v 0.879882 h 1.03752 q 0.22198,0.01608 0.2252,0.217155 0.003,0.20107 -0.2252,0.23485 h -1.03752 v 1.282022 q -0.0161,0.221981 -0.218765,0.225198 -0.20107,0.0032 -0.233241,-0.225198 z"
         style="stroke-width:0.264583"
         id="path1185" />
    </g>
    <g
       aria-label="INC"
       id="text3338"
       style="font-size:3.29433px;line-height:1.25;font-family:'MS 33558';-inkscape-font-specification:'MS 33558, Normal';text-align:center;text-anchor:middle;stroke-width:0.264583">
      <path
         d="m 52.450306,31.804764 q -0.03539,0.226807 -0.230024,0.225198 -0.193027,0 -0.226807,-0.225198 V 28.96083 q 0.03378,-0.226806 0.226807,-0.226806 0.194635,-0.0016 0.230024,0.226806 z"
         style="stroke-width:0.264583"
         id="path1176" />
      <path
         d="m 55.128557,31.804764 q 0,0.168898 -0.164073,0.215547 -0.162464,0.04504 -0.252544,-0.09651 l -1.35119,-2.16673 v 2.047697 q -0.03539,0.225198 -0.228415,0.225198 -0.191419,0 -0.225198,-0.225198 v -2.840716 q 0.02413,-0.167291 0.170507,-0.220373 0.147987,-0.05308 0.24611,0.09973 l 1.351189,2.169946 v -2.049304 q 0.03056,-0.230024 0.233242,-0.226807 0.204287,0.0016 0.220372,0.226807 z"
         style="stroke-width:0.264583"
         id="path1178" />
      <path
         d="m 57.662039,31.512006 -0.01448,0.02091 q -0.0048,0.0064 -0.008,0.01126 -0.0032,0.0048 -0.0064,0.0097 -0.220372,0.297584 -0.579081,0.42466 -0.3571,0.125468 -0.704549,-0.04665 -0.403748,-0.20107 -0.593559,-0.682029 -0.188201,-0.48096 -0.162464,-0.998916 0.02734,-0.519565 0.273455,-0.953876 0.247718,-0.434311 0.717418,-0.543693 0.270238,-0.06273 0.538867,0.05308 0.26863,0.114207 0.440745,0.321712 0.0016,0 0.008,0.01126 0.07399,0.09651 0.03056,0.212329 -0.04343,0.114208 -0.159248,0.143162 -0.123859,0.03217 -0.228415,-0.07399 -0.215547,-0.250935 -0.415008,-0.241283 -0.199462,0.0097 -0.357101,0.164073 -0.157638,0.154421 -0.262195,0.395705 -0.104556,0.241284 -0.128685,0.452005 -0.02895,0.23485 0.0048,0.472917 0.03539,0.236458 0.146379,0.445571 0.193027,0.366751 0.485785,0.460048 0.294366,0.09169 0.574256,-0.281498 0.01287,-0.01609 0.03056,-0.04182 0.151205,-0.16729 0.318495,-0.03378 0.168899,0.131902 0.04987,0.299192 z"
         style="stroke-width:0.264583"
         id="path1180" />
    </g>
    <g
       aria-label="INC"
       id="text3338-2"
       style="font-size:3.29433px;line-height:1.25;font-family:'MS 33558';-inkscape-font-specification:'MS 33558, Normal';text-align:center;text-anchor:middle;stroke-width:0.264583">
      <path
         d="m 83.113449,31.804764 q -0.03539,0.226807 -0.230024,0.225198 -0.193027,0 -0.226807,-0.225198 V 28.96083 q 0.03378,-0.226806 0.226807,-0.226806 0.194636,-0.0016 0.230024,0.226806 z"
         style="stroke-width:0.264583"
         id="path1169" />
      <path
         d="m 85.7917,31.804764 q 0,0.168898 -0.164073,0.215547 -0.162464,0.04504 -0.252543,-0.09651 l -1.35119,-2.16673 v 2.047697 q -0.03539,0.225198 -0.228416,0.225198 -0.191419,0 -0.225198,-0.225198 v -2.840716 q 0.02413,-0.167291 0.170507,-0.220373 0.147988,-0.05308 0.24611,0.09973 l 1.35119,2.169946 v -2.049304 q 0.03056,-0.230024 0.233241,-0.226807 0.204287,0.0016 0.220372,0.226807 z"
         style="stroke-width:0.264583"
         id="path1171" />
      <path
         d="m 88.325182,31.512006 -0.01448,0.02091 q -0.0048,0.0064 -0.008,0.01126 -0.0032,0.0048 -0.0064,0.0097 -0.220373,0.297584 -0.579082,0.42466 -0.3571,0.125468 -0.704549,-0.04665 -0.403748,-0.20107 -0.593558,-0.682029 -0.188202,-0.48096 -0.162465,-0.998916 0.02735,-0.519565 0.273455,-0.953876 0.247718,-0.434311 0.717418,-0.543693 0.270238,-0.06273 0.538867,0.05308 0.26863,0.114207 0.440746,0.321712 0.0016,0 0.008,0.01126 0.07399,0.09651 0.03056,0.212329 -0.04343,0.114208 -0.159247,0.143162 -0.123859,0.03217 -0.228416,-0.07399 -0.215547,-0.250935 -0.415008,-0.241283 -0.199462,0.0097 -0.3571,0.164073 -0.157639,0.154421 -0.262196,0.395705 -0.104556,0.241284 -0.128684,0.452005 -0.02895,0.23485 0.0048,0.472917 0.03539,0.236458 0.146379,0.445571 0.193027,0.366751 0.485785,0.460048 0.294367,0.09169 0.574256,-0.281498 0.01287,-0.01609 0.03056,-0.04182 0.151204,-0.16729 0.318494,-0.03378 0.168899,0.131902 0.04987,0.299192 z"
         style="stroke-width:0.264583"
         id="path1173" />
    </g>
    <g
       aria-label="INC"
       id="text3338-2-5"
       style="font-size:3.29433px;line-height:1.25;font-family:'MS 33558';-inkscape-font-specification:'MS 33558, Normal';text-align:center;text-anchor:middle;stroke-width:0.264583">
      <path
         d="m 113.92164,31.804764 q -0.0354,0.226807 -0.23003,0.225198 -0.19302,0 -0.2268,-0.225198 V 28.96083 q 0.0338,-0.226806 0.2268,-0.226806 0.19464,-0.0016 0.23003,0.226806 z"
         style="stroke-width:0.264583"
         id="path1162" />
      <path
         d="m 116.59989,31.804764 q 0,0.168898 -0.16407,0.215547 -0.16247,0.04504 -0.25255,-0.09651 l -1.35119,-2.16673 v 2.047697 q -0.0354,0.225198 -0.22841,0.225198 -0.19142,0 -0.2252,-0.225198 v -2.840716 q 0.0241,-0.167291 0.17051,-0.220373 0.14798,-0.05308 0.24611,0.09973 l 1.35119,2.169946 v -2.049304 q 0.0306,-0.230024 0.23324,-0.226807 0.20428,0.0016 0.22037,0.226807 z"
         style="stroke-width:0.264583"
         id="path1164" />
      <path
         d="m 119.13337,31.512006 -0.0145,0.02091 q -0.005,0.0064 -0.008,0.01126 -0.003,0.0048 -0.006,0.0097 -0.22038,0.297584 -0.57908,0.42466 -0.3571,0.125468 -0.70455,-0.04665 -0.40375,-0.20107 -0.59356,-0.682029 -0.1882,-0.48096 -0.16247,-0.998916 0.0273,-0.519565 0.27346,-0.953876 0.24772,-0.434311 0.71742,-0.543693 0.27023,-0.06273 0.53886,0.05308 0.26863,0.114207 0.44075,0.321712 0.002,0 0.008,0.01126 0.074,0.09651 0.0306,0.212329 -0.0434,0.114208 -0.15924,0.143162 -0.12386,0.03217 -0.22842,-0.07399 -0.21555,-0.250935 -0.41501,-0.241283 -0.19946,0.0097 -0.3571,0.164073 -0.15764,0.154421 -0.26219,0.395705 -0.10456,0.241284 -0.12869,0.452005 -0.029,0.23485 0.005,0.472917 0.0354,0.236458 0.14638,0.445571 0.19302,0.366751 0.48578,0.460048 0.29437,0.09169 0.57426,-0.281498 0.0129,-0.01609 0.0306,-0.04182 0.15121,-0.16729 0.3185,-0.03378 0.16889,0.131902 0.0499,0.299192 z"
         style="stroke-width:0.264583"
         id="path1166" />
    </g>
    <g
       aria-label="INC"
       id="text3338-2-5-6"
       style="font-size:3.29433px;line-height:1.25;font-family:'MS 33558';-inkscape-font-specification:'MS 33558, Normal';text-align:center;text-anchor:middle;stroke-width:0.264583">
      <path
         d="m 139.18398,31.804764 q -0.0354,0.226807 -0.23002,0.225198 -0.19303,0 -0.22681,-0.225198 V 28.96083 q 0.0338,-0.226806 0.22681,-0.226806 0.19463,-0.0016 0.23002,0.226806 z"
         style="stroke-width:0.264583"
         id="path1155" />
      <path
         d="m 141.86223,31.804764 q 0,0.168898 -0.16407,0.215547 -0.16246,0.04504 -0.25254,-0.09651 l -1.35119,-2.16673 v 2.047697 q -0.0354,0.225198 -0.22842,0.225198 -0.19142,0 -0.2252,-0.225198 v -2.840716 q 0.0241,-0.167291 0.17051,-0.220373 0.14799,-0.05308 0.24611,0.09973 l 1.35119,2.169946 v -2.049304 q 0.0306,-0.230024 0.23324,-0.226807 0.20429,0.0016 0.22037,0.226807 z"
         style="stroke-width:0.264583"
         id="path1157" />
      <path
         d="m 144.39572,31.512006 -0.0145,0.02091 q -0.005,0.0064 -0.008,0.01126 -0.003,0.0048 -0.006,0.0097 -0.22037,0.297584 -0.57908,0.42466 -0.3571,0.125468 -0.70455,-0.04665 -0.40375,-0.20107 -0.59356,-0.682029 -0.1882,-0.48096 -0.16246,-0.998916 0.0273,-0.519565 0.27345,-0.953876 0.24772,-0.434311 0.71742,-0.543693 0.27024,-0.06273 0.53887,0.05308 0.26863,0.114207 0.44074,0.321712 0.002,0 0.008,0.01126 0.074,0.09651 0.0306,0.212329 -0.0434,0.114208 -0.15925,0.143162 -0.12386,0.03217 -0.22841,-0.07399 -0.21555,-0.250935 -0.41501,-0.241283 -0.19946,0.0097 -0.3571,0.164073 -0.15764,0.154421 -0.2622,0.395705 -0.10455,0.241284 -0.12868,0.452005 -0.029,0.23485 0.005,0.472917 0.0354,0.236458 0.14638,0.445571 0.19303,0.366751 0.48579,0.460048 0.29436,0.09169 0.57425,-0.281498 0.0129,-0.01609 0.0306,-0.04182 0.1512,-0.16729 0.31849,-0.03378 0.1689,0.131902 0.0499,0.299192 z"
         style="stroke-width:0.264583"
         id="path1159" />
    </g>
    <g
       aria-label="INC"
       id="text3338-2-5-6-4"
       style="font-size:3.29433px;line-height:1.25;font-family:'MS 33558';-inkscape-font-specification:'MS 33558, Normal';text-align:center;text-anchor:middle;stroke-width:0.264583">
      <path
         d="m 139.18398,70.780514 q -0.0354,0.226806 -0.23002,0.225198 -0.19303,0 -0.22681,-0.225198 V 67.93658 q 0.0338,-0.226807 0.22681,-0.226807 0.19463,-0.0016 0.23002,0.226807 z"
         style="stroke-width:0.264583"
         id="path1148" />
      <path
         d="m 141.86223,70.780514 q 0,0.168898 -0.16407,0.215547 -0.16246,0.04504 -0.25254,-0.09651 l -1.35119,-2.16673 v 2.047697 q -0.0354,0.225198 -0.22842,0.225198 -0.19142,0 -0.2252,-0.225198 v -2.840716 q 0.0241,-0.167291 0.17051,-0.220373 0.14799,-0.05308 0.24611,0.09973 l 1.35119,2.169946 v -2.049304 q 0.0306,-0.230025 0.23324,-0.226807 0.20429,0.0016 0.22037,0.226807 z"
         style="stroke-width:0.264583"
         id="path1150" />
      <path
         d="m 144.39572,70.487756 -0.0145,0.02091 q -0.005,0.0064 -0.008,0.01126 -0.003,0.0048 -0.006,0.0097 -0.22037,0.297584 -0.57908,0.42466 -0.3571,0.125468 -0.70455,-0.04665 -0.40375,-0.20107 -0.59356,-0.682029 -0.1882,-0.48096 -0.16246,-0.998916 0.0273,-0.519565 0.27345,-0.953876 0.24772,-0.434311 0.71742,-0.543693 0.27024,-0.06273 0.53887,0.05308 0.26863,0.114207 0.44074,0.321712 0.002,0 0.008,0.01126 0.074,0.09651 0.0306,0.21233 -0.0434,0.114208 -0.15925,0.143162 -0.12386,0.03217 -0.22841,-0.07399 -0.21555,-0.250935 -0.41501,-0.241284 -0.19946,0.0097 -0.3571,0.164074 -0.15764,0.154421 -0.2622,0.395705 -0.10455,0.241284 -0.12868,0.452005 -0.029,0.23485 0.005,0.472917 0.0354,0.236458 0.14638,0.445571 0.19303,0.366751 0.48579,0.460048 0.29436,0.09169 0.57425,-0.281498 0.0129,-0.01609 0.0306,-0.04182 0.1512,-0.16729 0.31849,-0.03378 0.1689,0.131902 0.0499,0.299192 z"
         style="stroke-width:0.264583"
         id="path1152" />
    </g>
    <g
       aria-label="INC"
       id="text3338-2-5-6-4-2"
       style="font-size:3.29433px;line-height:1.25;font-family:'MS 33558';-inkscape-font-specification:'MS 33558, Normal';text-align:center;text-anchor:middle;stroke-width:0.264583">
      <path
         d="m 113.92164,71.181415 q -0.0354,0.226807 -0.23003,0.225199 -0.19302,0 -0.2268,-0.225199 v -2.843933 q 0.0338,-0.226807 0.2268,-0.226807 0.19464,-0.0016 0.23003,0.226807 z"
         style="stroke-width:0.264583"
         id="path1141" />
      <path
         d="m 116.59989,71.181415 q 0,0.168899 -0.16407,0.215547 -0.16247,0.04504 -0.25255,-0.09651 l -1.35119,-2.16673 v 2.047696 q -0.0354,0.225199 -0.22841,0.225199 -0.19142,0 -0.2252,-0.225199 v -2.840716 q 0.0241,-0.16729 0.17051,-0.220372 0.14798,-0.05308 0.24611,0.09973 l 1.35119,2.169947 v -2.049305 q 0.0306,-0.230024 0.23324,-0.226807 0.20428,0.0016 0.22037,0.226807 z"
         style="stroke-width:0.264583"
         id="path1143" />
      <path
         d="m 119.13337,70.888658 -0.0145,0.02091 q -0.005,0.0064 -0.008,0.01126 -0.003,0.0048 -0.006,0.0097 -0.22038,0.297584 -0.57908,0.42466 -0.3571,0.125467 -0.70455,-0.04665 -0.40375,-0.20107 -0.59356,-0.68203 -0.1882,-0.480959 -0.16247,-0.998915 0.0273,-0.519565 0.27346,-0.953876 0.24772,-0.434311 0.71742,-0.543693 0.27023,-0.06273 0.53886,0.05308 0.26863,0.114208 0.44075,0.321712 0.002,0 0.008,0.01126 0.074,0.09651 0.0306,0.21233 -0.0434,0.114208 -0.15924,0.143162 -0.12386,0.03217 -0.22842,-0.07399 -0.21555,-0.250935 -0.41501,-0.241284 -0.19946,0.0097 -0.3571,0.164073 -0.15764,0.154422 -0.26219,0.395706 -0.10456,0.241284 -0.12869,0.452005 -0.029,0.23485 0.005,0.472917 0.0354,0.236458 0.14638,0.445571 0.19302,0.366751 0.48578,0.460048 0.29437,0.09169 0.57426,-0.281498 0.0129,-0.01609 0.0306,-0.04182 0.15121,-0.16729 0.3185,-0.03378 0.16889,0.131902 0.0499,0.299193 z"
         style="stroke-width:0.264583"
         id="path1145" />
    </g>
    <g
       aria-label="OFF"
       id="text3432"
       style="font-size:3.29433px;line-height:1.25;font-family:'MS 33558';-inkscape-font-specification:'MS 33558, Normal';text-align:center;text-anchor:middle;stroke-width:0.264583">
      <path
         d="m 23.060789,36.474008 q 0.147988,0.445571 0.110991,0.924922 -0.03539,0.47935 -0.262195,0.875056 -0.143162,0.24611 -0.39088,0.418225 -0.247719,0.172116 -0.546911,0.120642 -0.487393,-0.08525 -0.746371,-0.508304 -0.258978,-0.423052 -0.297584,-0.941008 -0.037,-0.519564 0.139945,-1.011784 0.17855,-0.492219 0.567821,-0.715809 0.189811,-0.109382 0.397315,-0.109382 0.395705,0 0.646641,0.299192 0.250935,0.297584 0.381228,0.64825 z m -1.015001,-0.490611 q -0.295975,0 -0.448788,0.318495 -0.151205,0.318495 -0.191419,0.543693 -0.03056,0.164073 -0.02252,0.397314 0.008,0.233241 0.06756,0.461657 0.05952,0.226807 0.17855,0.410183 0.119034,0.181767 0.312061,0.241283 0.225198,0.07078 0.387663,-0.08847 0.164073,-0.160856 0.247718,-0.341015 0.08525,-0.184984 0.115816,-0.485785 0.03217,-0.300801 -0.01448,-0.599993 -0.04504,-0.3008 -0.17855,-0.540476 -0.133511,-0.241284 -0.37962,-0.307234 -0.03217,-0.0097 -0.07399,-0.0097 z"
         style="stroke-width:0.264583"
         id="path1134" />
      <path
         d="m 23.604482,38.592481 v -2.837499 q 0.02895,-0.21233 0.228416,-0.228416 h 1.557085 q 0.22359,0.01769 0.22359,0.228416 0,0.209112 -0.226807,0.223589 h -1.330278 v 0.879883 h 1.03752 q 0.221982,0.01608 0.225199,0.217155 0.0032,0.20107 -0.225199,0.23485 h -1.03752 v 1.282022 q -0.01609,0.221981 -0.218764,0.225198 -0.20107,0.0032 -0.233242,-0.225198 z"
         style="stroke-width:0.264583"
         id="path1136" />
      <path
         d="m 26.06397,38.592481 v -2.837499 q 0.02895,-0.21233 0.228415,-0.228416 h 1.557086 q 0.22359,0.01769 0.22359,0.228416 0,0.209112 -0.226807,0.223589 h -1.330279 v 0.879883 h 1.037521 q 0.221981,0.01608 0.225198,0.217155 0.0032,0.20107 -0.225198,0.23485 h -1.037521 v 1.282022 q -0.01609,0.221981 -0.218764,0.225198 -0.20107,0.0032 -0.233241,-0.225198 z"
         style="stroke-width:0.264583"
         id="path1138" />
    </g>
    <g
       aria-label="OFF"
       id="text3436"
       style="font-size:3.29433px;line-height:1.25;font-family:'MS 33558';-inkscape-font-specification:'MS 33558, Normal';text-align:center;text-anchor:middle;stroke-width:0.264583">
      <path
         d="m 59.409449,36.474012 q 0.147987,0.445571 0.11099,0.924921 -0.03539,0.479351 -0.262195,0.875057 -0.143162,0.246109 -0.39088,0.418225 -0.247718,0.172116 -0.54691,0.120642 -0.487394,-0.08525 -0.746372,-0.508305 -0.258978,-0.423051 -0.297583,-0.941007 -0.037,-0.519565 0.139944,-1.011784 0.178551,-0.492219 0.567822,-0.715809 0.18981,-0.109382 0.397314,-0.109382 0.395706,0 0.646641,0.299192 0.250935,0.297584 0.381229,0.64825 z m -1.015001,-0.490611 q -0.295975,0 -0.448788,0.318495 -0.151205,0.318495 -0.191419,0.543693 -0.03056,0.164073 -0.02252,0.397314 0.008,0.233241 0.06756,0.461657 0.05952,0.226807 0.17855,0.410182 0.119033,0.181768 0.31206,0.241284 0.225199,0.07078 0.387663,-0.08847 0.164073,-0.160855 0.247718,-0.341014 0.08525,-0.184984 0.115817,-0.485785 0.03217,-0.300801 -0.01448,-0.599993 -0.04504,-0.3008 -0.178551,-0.540476 -0.13351,-0.241284 -0.37962,-0.307235 -0.03217,-0.0097 -0.07399,-0.0097 z"
         style="stroke-width:0.264583"
         id="path1127" />
      <path
         d="m 59.953142,38.592485 v -2.837499 q 0.02895,-0.21233 0.228415,-0.228416 h 1.557086 q 0.22359,0.01769 0.22359,0.228416 0,0.209112 -0.226807,0.223589 h -1.330279 v 0.879882 h 1.037521 q 0.221981,0.01609 0.225198,0.217156 0.0032,0.20107 -0.225198,0.23485 h -1.037521 v 1.282022 q -0.01608,0.221981 -0.218764,0.225198 -0.20107,0.0032 -0.233241,-0.225198 z"
         style="stroke-width:0.264583"
         id="path1129" />
      <path
         d="m 62.412629,38.592485 v -2.837499 q 0.02895,-0.21233 0.228416,-0.228416 h 1.557085 q 0.22359,0.01769 0.22359,0.228416 0,0.209112 -0.226807,0.223589 h -1.330278 v 0.879882 h 1.03752 q 0.221982,0.01609 0.225199,0.217156 0.0032,0.20107 -0.225199,0.23485 h -1.03752 v 1.282022 q -0.01609,0.221981 -0.218765,0.225198 -0.201069,0.0032 -0.233241,-0.225198 z"
         style="stroke-width:0.264583"
         id="path1131" />
    </g>
    <g
       aria-label="A
U
D
I
O"
       id="text3440"
       style="font-style:normal;font-variant:normal;font-weight:normal;font-stretch:normal;font-size:4.93889px;line-height:1.25;font-family:'MS 33558';-inkscape-font-specification:'MS 33558, Normal';font-variant-ligatures:normal;font-variant-caps:normal;font-variant-numeric:normal;font-variant-east-asian:normal;text-align:center;text-anchor:middle;stroke-width:0.264583">
      <path
         d="m 13.464173,34.496987 -0.733116,-2.025717 -0.73794,2.025717 z m -0.733116,-2.025717 0.733116,2.025717 z m -1.86173,3.144684 q 0.385851,-1.063501 0.771701,-2.124591 0.388263,-1.063501 0.776525,-2.127002 0.07958,-0.219453 0.315915,-0.221864 0.236334,-0.0024 0.318327,0.221864 l 1.545815,4.263651 q 0.07235,0.340031 -0.207395,0.438905 -0.279742,0.09887 -0.43167,-0.202571 l -0.248392,-0.689709 h -1.965427 l -0.241157,0.672828 q -0.15434,0.303857 -0.438905,0.20016 -0.284565,-0.106109 -0.195337,-0.431671 z"
         style="font-style:normal;font-variant:normal;font-weight:normal;font-stretch:normal;font-size:4.93889px;font-family:'MS 33558';-inkscape-font-specification:'MS 33558, Normal';font-variant-ligatures:normal;font-variant-caps:normal;font-variant-numeric:normal;font-variant-east-asian:normal;stroke-width:0.264583"
         id="path1116" />
      <path
         d="m 14.293753,40.627191 v 0.04823 q -0.0072,0.120579 -0.0096,0.144694 -0.101286,0.73794 -0.605303,1.090029 -0.504018,0.349677 -1.075559,0.327973 -0.571542,-0.02412 -1.04662,-0.417201 -0.472668,-0.393086 -0.513664,-1.145495 v -0.04823 -2.973463 q 0,-0.07235 0.02653,-0.130224 0.115755,-0.253215 0.383439,-0.20016 0.270096,0.05305 0.270096,0.330384 v 2.973463 q 0.03617,0.554661 0.487136,0.829579 0.453375,0.274919 0.952569,-0.02412 0.224276,-0.132637 0.327974,-0.342443 0.106109,-0.209806 0.125401,-0.463021 v -2.973463 q 0,-0.04341 0.0048,-0.06511 0.05547,-0.296623 0.364147,-0.267684 0.308681,0.02894 0.308681,0.332796 z"
         style="font-style:normal;font-variant:normal;font-weight:normal;font-stretch:normal;font-size:4.93889px;font-family:'MS 33558';-inkscape-font-specification:'MS 33558, Normal';font-variant-ligatures:normal;font-variant-caps:normal;font-variant-numeric:normal;font-variant-east-asian:normal;stroke-width:0.264583"
         id="path1118" />
      <path
         d="m 11.410724,43.489722 h 1.135848 q 0.84646,0 1.268484,0.771701 0.422025,0.771702 0.422025,1.697744 0,0.926041 -0.424436,1.697743 -0.422024,0.771702 -1.266073,0.771702 h -1.135848 0.0048 -0.0048 q -0.07958,-0.01206 -0.08682,-0.01447 -0.250803,-0.06029 -0.248391,-0.327973 h -0.0024 l 0.0024,-4.258828 q -0.0024,-0.0072 -0.0024,-0.01929 0.0072,-0.132636 0.103698,-0.224275 0.09887,-0.09405 0.236333,-0.09405 z m 1.135848,4.258828 q 0.0048,0 0.0096,0 0.0048,0 0.01206,0 0.0048,0 0.0072,0 0.0048,-0.0024 0.01206,-0.0024 0.0048,0 0.0096,0 0.0072,-0.0024 0.01447,-0.0024 0.0048,0 0.0096,0 0.0048,-0.0024 0.01206,-0.0024 0.0048,0 0.0096,0 0.0048,-0.0024 0.01206,-0.0024 0.0096,-0.0048 0.01929,-0.0048 0.0048,0 0.0096,-0.0024 0.0048,-0.0048 0.01206,-0.0072 0.0048,0 0.0096,0 0.0072,-0.0024 0.01447,-0.0048 0.0048,0 0.0096,-0.0024 0.0048,-0.0024 0.01206,-0.0048 0.01447,-0.0048 0.0217,-0.0096 0.04341,-0.01447 0.02412,-0.0096 0.0048,0 0.0096,-0.0024 0.0048,-0.0048 0.01206,-0.0072 0.0217,-0.01447 0.01929,-0.01206 0.02412,-0.01206 0.02412,-0.01206 0.0048,-0.0024 0.0096,-0.0048 0.0048,-0.0048 0.01206,-0.0096 0.0217,-0.01447 0.0217,-0.01447 0.0048,-0.0024 0.0096,-0.0048 0.0072,-0.0048 0.01447,-0.0096 0.0048,-0.0024 0.0096,-0.0072 0.0048,-0.0048 0.01206,-0.0096 0.0048,-0.0024 0.0096,-0.0048 0.0048,-0.0048 0.01206,-0.0096 0.0048,-0.0048 0.02412,-0.01929 0.01929,-0.01929 0.01929,-0.01929 0.0048,-0.0048 0.0096,-0.0096 0.0048,-0.0048 0.01206,-0.01206 0.0048,-0.0048 0.0096,-0.0096 0.0048,-0.0048 0.01206,-0.01206 0.0072,-0.0048 0.0217,-0.01929 0.0048,-0.0048 0.0096,-0.0096 0.0048,-0.0048 0.01206,-0.01206 0.0048,-0.0048 0.0096,-0.0096 0.0048,-0.0072 0.01206,-0.01447 0.02894,-0.03859 0.01929,-0.02412 0.01688,-0.01688 0.0217,-0.02653 0.0217,-0.02894 0.01929,-0.02653 0.0048,-0.0072 0.0096,-0.01206 0.0048,-0.0072 0.01206,-0.01447 0.0048,-0.0072 0.0072,-0.01447 0.0048,-0.0072 0.01206,-0.01447 0.0024,-0.0072 0.0072,-0.01447 0.0072,-0.0096 0.01206,-0.01688 0.01447,-0.01929 0.01929,-0.02894 0.0048,-0.0072 0.0072,-0.01447 0.0048,-0.0096 0.01206,-0.01688 0.0048,-0.0072 0.0072,-0.01447 0.0048,-0.0096 0.01206,-0.01688 0.0048,-0.01206 0.01447,-0.03135 0.0048,-0.0072 0.0072,-0.01688 0.0048,-0.0096 0.01206,-0.01929 0.0048,-0.0072 0.0072,-0.01447 0.0048,-0.0096 0.01206,-0.01929 0.0024,-0.0072 0.0048,-0.01688 0.0048,-0.0096 0.0096,-0.01929 0.0072,-0.01206 0.01688,-0.03617 0.02412,-0.06029 0.01688,-0.03858 0.0024,-0.0072 0.0048,-0.01688 0.0048,-0.01206 0.0096,-0.0217 0.0024,-0.0096 0.0048,-0.01929 0.0048,-0.0096 0.0096,-0.0217 0.0072,-0.0217 0.01206,-0.03859 0.0024,-0.0096 0.0048,-0.01929 0.0048,-0.0096 0.0096,-0.0217 -0.0096,0.02411 0.01206,-0.041 0.0048,-0.01206 0.01447,-0.041 0,-0.0096 0.0024,-0.01929 0.0048,-0.01206 0.0072,-0.02412 0.0024,-0.0096 0.0048,-0.01929 0.0024,-0.01206 0.0072,-0.02412 0,-0.0072 0.0024,-0.01688 0.0048,-0.01206 0.0072,-0.02412 0.0024,-0.01688 0.0072,-0.04582 0,-0.0096 0.0024,-0.01929 0.0048,-0.01206 0.0072,-0.02412 0,-0.0096 0.0024,-0.01929 0.0024,-0.01206 0.0048,-0.02412 0.0024,-0.01688 0.0072,-0.04582 0,-0.0096 0.0024,-0.0217 0.0048,-0.01206 0.0072,-0.02412 0,-0.01688 0.0048,-0.04582 0,-0.0096 0,-0.01929 0.0024,-0.01206 0.0048,-0.02653 0.0048,-0.02894 0.0048,-0.04582 0.0024,-0.01688 0.0024,-0.04582 0.0024,-0.01688 0.0024,-0.04823 0.0024,-0.01688 0.0024,-0.04582 0,-0.01206 0,-0.0217 0.0024,-0.01206 0.0048,-0.02653 0,-0.0096 0,-0.01929 0.0024,-0.01206 0.0024,-0.02653 0,-0.0096 0,-0.0217 0,-0.01206 0,-0.02412 0,-0.01206 0,-0.02171 0,-0.01206 0,-0.02411 0,-0.01206 -0.0024,-0.0217 0,-0.01206 0,-0.02653 0,-0.0096 0,-0.0217 0,-0.01206 0,-0.02412 0,-0.01447 -0.0048,-0.04823 0,-0.02894 -0.0024,-0.04341 0,-0.01688 -0.0048,-0.05064 0,-0.02894 -0.0024,-0.04341 0,-0.01688 -0.0048,-0.04582 -0.0024,-0.0096 -0.0048,-0.0217 0,-0.01206 0,-0.02412 -0.0048,-0.02894 -0.0096,-0.04582 -0.0024,-0.0096 -0.0048,-0.01929 -0.0024,-0.01206 -0.0024,-0.02412 -0.0024,-0.01688 -0.0072,-0.04582 -0.0024,-0.01688 -0.0072,-0.04582 -0.0096,-0.02894 -0.01206,-0.04341 -0.0048,-0.02894 -0.0072,-0.041 -0.0048,-0.0096 -0.0072,-0.01929 -0.0024,-0.01206 -0.0048,-0.02411 -0.0024,-0.0096 -0.0072,-0.01929 -0.0048,-0.01206 -0.0048,-0.02411 -0.0217,-0.06511 -0.01206,-0.041 -0.0048,-0.01688 -0.01206,-0.041 -0.0048,-0.0072 -0.0096,-0.01688 -0.0024,-0.01206 -0.0048,-0.0217 -0.0024,-0.0072 -0.01447,-0.041 -0.0096,-0.02412 -0.01447,-0.03859 -0.0048,-0.0072 -0.0096,-0.01688 -0.0024,-0.01206 -0.0048,-0.0217 -0.0048,-0.0072 -0.0096,-0.01688 -0.0048,-0.0096 -0.0072,-0.01929 -0.0096,-0.02412 -0.01688,-0.03617 -0.0096,-0.02412 -0.01447,-0.03376 -0.0096,-0.02412 -0.01688,-0.03617 -0.0048,-0.0072 -0.0096,-0.01447 -0.0048,-0.0096 -0.0072,-0.01688 -0.01447,-0.02412 -0.01929,-0.03376 -0.0217,-0.03376 -0.01929,-0.03135 -0.0072,-0.0072 -0.01206,-0.01447 -0.0024,-0.0096 -0.0072,-0.01688 -0.0048,-0.0096 -0.01929,-0.02894 -0.0048,-0.0072 -0.0096,-0.01447 -0.0048,-0.0072 -0.0072,-0.01447 -0.01206,-0.0217 -0.041,-0.05547 -0.0048,-0.0048 -0.03858,-0.05305 -0.02894,-0.03376 -0.04341,-0.04823 -0.01447,-0.01688 -0.04341,-0.04582 -0.01929,-0.0217 -0.041,-0.041 -0.01688,-0.01206 -0.04582,-0.03617 -0.02412,-0.01929 -0.04582,-0.03617 -0.05547,-0.03617 -0.04582,-0.03135 -0.04823,-0.02894 -0.04341,-0.02653 0,0 -0.04341,-0.0217 -0.0096,-0.0048 -0.04582,-0.01688 -0.03135,-0.01206 -0.04582,-0.01688 -0.01206,-0.0024 -0.0217,-0.0048 -0.0096,-0.0048 -0.01929,-0.0096 -0.04341,-0.0072 -0.04341,-0.0072 -0.01447,-0.0024 -0.04341,-0.0024 -0.0072,0 -0.01206,0 -0.0048,0 -0.0096,0 h -0.795817 v 3.578766 0 z"
         style="font-style:normal;font-variant:normal;font-weight:normal;font-stretch:normal;font-size:4.93889px;font-family:'MS 33558';-inkscape-font-specification:'MS 33558, Normal';font-variant-ligatures:normal;font-variant-caps:normal;font-variant-numeric:normal;font-variant-east-asian:normal;stroke-width:0.264583"
         id="path1120" />
      <path
         d="m 12.962567,54.269428 q -0.05305,0.340031 -0.344854,0.337619 -0.289388,0 -0.340031,-0.337619 v -4.263651 q 0.05064,-0.340031 0.340031,-0.340031 0.2918,-0.0024 0.344854,0.340031 z"
         style="font-style:normal;font-variant:normal;font-weight:normal;font-stretch:normal;font-size:4.93889px;font-family:'MS 33558';-inkscape-font-specification:'MS 33558, Normal';font-variant-ligatures:normal;font-variant-caps:normal;font-variant-numeric:normal;font-variant-east-asian:normal;stroke-width:0.264583"
         id="path1122" />
      <path
         d="m 14.158705,57.25736 q 0.221864,0.668004 0.166398,1.386651 -0.05306,0.718647 -0.393086,1.311893 -0.214629,0.368969 -0.58601,0.627007 -0.371382,0.258038 -0.819933,0.180868 -0.730705,-0.127813 -1.118968,-0.762056 -0.388262,-0.634242 -0.44614,-1.410767 -0.05547,-0.778936 0.209807,-1.516875 0.267684,-0.73794 0.851283,-1.073148 0.284565,-0.163987 0.595657,-0.163987 0.593246,0 0.96945,0.448552 0.376205,0.44614 0.571542,0.971862 z m -1.521699,-0.735528 q -0.443729,0 -0.672828,0.47749 -0.226687,0.47749 -0.286976,0.81511 -0.04582,0.24598 -0.03376,0.595657 0.01206,0.349677 0.101286,0.69212 0.08923,0.340031 0.267684,0.614949 0.178456,0.272508 0.467844,0.361735 0.337619,0.106109 0.581188,-0.132636 0.245979,-0.241156 0.371381,-0.511252 0.127813,-0.27733 0.173633,-0.728293 0.04823,-0.450963 -0.0217,-0.899515 -0.06752,-0.450963 -0.267684,-0.810287 -0.20016,-0.361735 -0.56913,-0.460609 -0.04823,-0.01447 -0.110932,-0.01447 z"
         style="font-style:normal;font-variant:normal;font-weight:normal;font-stretch:normal;font-size:4.93889px;font-family:'MS 33558';-inkscape-font-specification:'MS 33558, Normal';font-variant-ligatures:normal;font-variant-caps:normal;font-variant-numeric:normal;font-variant-east-asian:normal;stroke-width:0.264583"
         id="path1124" />
    </g>
    <g
       aria-label="1"
       id="text3452"
       style="font-style:normal;font-variant:normal;font-weight:normal;font-stretch:normal;font-size:4.93889px;line-height:1.25;font-family:'MS 33558';-inkscape-font-specification:'MS 33558, Normal';font-variant-ligatures:normal;font-variant-caps:normal;font-variant-numeric:normal;font-variant-east-asian:normal;text-align:center;text-anchor:middle;stroke-width:0.264583">
      <path
         d="m 17.401278,48.125098 q 0,0.03135 -0.0072,0.06752 -0.05788,0.272507 -0.337619,0.272507 -0.204983,0 -0.303858,-0.190514 -0.0217,-0.03617 -0.03617,-0.149517 v -4.254005 q 0.0072,-0.05788 0.01688,-0.10852 0.01206,-0.05306 0.05305,-0.101286 0.09646,-0.118167 0.248392,-0.127813 0.151929,-0.01206 0.262861,0.09646 0.05788,0.05788 0.07476,0.110932 0.01688,0.05305 0.02894,0.130224 z"
         style="font-style:normal;font-variant:normal;font-weight:normal;font-stretch:normal;font-size:4.93889px;font-family:'MS 33558';-inkscape-font-specification:'MS 33558, Normal';font-variant-ligatures:normal;font-variant-caps:normal;font-variant-numeric:normal;font-variant-east-asian:normal;stroke-width:0.264583"
         id="path1113" />
    </g>
    <path
       style="fill:none;stroke:#000000;stroke-width:0.839;stroke-linecap:round;stroke-miterlimit:4;stroke-dasharray:none"
       d="m 52.431852,53.562081 -6.37492,6.374871 z"
       id="path3598" />
    <path
       style="fill:none;stroke:#000000;stroke-width:0.839;stroke-linecap:round;stroke-miterlimit:4;stroke-dasharray:none"
       d="m 39.146465,47.824508 -3.2e-5,9.043304 z"
       id="path3596" />
    <path
       style="fill:none;stroke:#000000;stroke-width:0.839;stroke-linecap:round;stroke-miterlimit:4;stroke-dasharray:none"
       d="m 25.861046,53.561992 6.374881,6.374909 z"
       id="path3594" />
    <path
       style="fill:none;stroke:#000000;stroke-width:0.839;stroke-linecap:round;stroke-miterlimit:4;stroke-dasharray:none"
       d="m 82.538112,53.55537 -6.374919,6.374871 z"
       id="path3616" />
    <path
       style="fill:none;stroke:#000000;stroke-width:0.839;stroke-linecap:round;stroke-miterlimit:4;stroke-dasharray:none"
       d="m 69.252726,47.817797 -3.2e-5,9.043304 z"
       id="path3614" />
    <path
       style="fill:none;stroke:#000000;stroke-width:0.839;stroke-linecap:round;stroke-miterlimit:4;stroke-dasharray:none"
       d="m 55.967307,53.555281 6.374881,6.374909 z"
       id="path3612" />
    <g
       aria-label="OFF"
       id="text3622"
       style="font-style:normal;font-variant:normal;font-weight:normal;font-stretch:normal;font-size:2.82222px;line-height:1.25;font-family:'MS 33558';-inkscape-font-specification:'MS 33558, Normal';font-variant-ligatures:normal;font-variant-caps:normal;font-variant-numeric:normal;font-variant-east-asian:normal;text-align:center;text-anchor:middle;stroke-width:0.264583">
      <path
         d="m 26.508927,51.091838 q 0.12678,0.381716 0.09509,0.792371 -0.03032,0.410655 -0.22462,0.749652 -0.122645,0.21084 -0.334863,0.35829 -0.212218,0.14745 -0.468533,0.103353 -0.417545,-0.07304 -0.639409,-0.43546 -0.221864,-0.362424 -0.254937,-0.806152 -0.0317,-0.445106 0.119889,-0.866785 0.152963,-0.421679 0.486448,-0.613226 0.162608,-0.09371 0.340375,-0.09371 0.338997,0 0.553971,0.256315 0.214973,0.254937 0.326594,0.555349 z m -0.869541,-0.420301 q -0.253559,0 -0.384472,0.272851 -0.129536,0.272851 -0.163987,0.465776 -0.02618,0.14056 -0.01929,0.340376 0.0069,0.199815 0.05788,0.395496 0.05099,0.194304 0.152962,0.3514 0.101975,0.155718 0.26734,0.206705 0.192925,0.06063 0.332107,-0.07579 0.140559,-0.137803 0.212217,-0.292144 0.07304,-0.158474 0.09922,-0.416167 0.02756,-0.257693 -0.0124,-0.514008 -0.03859,-0.257693 -0.152963,-0.46302 -0.114377,-0.206706 -0.325216,-0.263205 -0.02756,-0.0083 -0.06339,-0.0083 z"
         style="font-style:normal;font-variant:normal;font-weight:normal;font-stretch:normal;font-size:2.82222px;font-family:'MS 33558';-inkscape-font-specification:'MS 33558, Normal';font-variant-ligatures:normal;font-variant-caps:normal;font-variant-numeric:normal;font-variant-east-asian:normal;stroke-width:0.264583"
         id="path1106" />
      <path
         d="m 26.974704,52.906713 v -2.430858 q 0.02481,-0.181901 0.195681,-0.195681 h 1.33394 q 0.191547,0.01516 0.191547,0.195681 0,0.179145 -0.194303,0.191547 h -1.139637 v 0.753787 h 0.888834 q 0.190169,0.01378 0.192925,0.186035 0.0028,0.172254 -0.192925,0.201193 h -0.888834 v 1.098296 q -0.01378,0.190169 -0.187413,0.192925 -0.172254,0.0028 -0.199815,-0.192925 z"
         style="font-style:normal;font-variant:normal;font-weight:normal;font-stretch:normal;font-size:2.82222px;font-family:'MS 33558';-inkscape-font-specification:'MS 33558, Normal';font-variant-ligatures:normal;font-variant-caps:normal;font-variant-numeric:normal;font-variant-east-asian:normal;stroke-width:0.264583"
         id="path1108" />
      <path
         d="m 29.081722,52.906713 v -2.430858 q 0.02481,-0.181901 0.195682,-0.195681 h 1.33394 q 0.191547,0.01516 0.191547,0.195681 0,0.179145 -0.194303,0.191547 h -1.139637 v 0.753787 h 0.888834 q 0.190169,0.01378 0.192925,0.186035 0.0028,0.172254 -0.192925,0.201193 h -0.888834 v 1.098296 q -0.01378,0.190169 -0.187413,0.192925 -0.172255,0.0028 -0.199816,-0.192925 z"
         style="font-style:normal;font-variant:normal;font-weight:normal;font-stretch:normal;font-size:2.82222px;font-family:'MS 33558';-inkscape-font-specification:'MS 33558, Normal';font-variant-ligatures:normal;font-variant-caps:normal;font-variant-numeric:normal;font-variant-east-asian:normal;stroke-width:0.264583"
         id="path1110" />
    </g>
    <g
       aria-label="OFF"
       id="text3626"
       style="font-style:normal;font-variant:normal;font-weight:normal;font-stretch:normal;font-size:2.82222px;line-height:1.25;font-family:'MS 33558';-inkscape-font-specification:'MS 33558, Normal';font-variant-ligatures:normal;font-variant-caps:normal;font-variant-numeric:normal;font-variant-east-asian:normal;text-align:center;text-anchor:middle;stroke-width:0.264583">
      <path
         d="m 57.351787,51.091838 q 0.126779,0.381716 0.09508,0.792371 -0.03032,0.410655 -0.22462,0.749652 -0.122645,0.21084 -0.334863,0.35829 -0.212218,0.14745 -0.468532,0.103353 -0.417546,-0.07304 -0.63941,-0.43546 -0.221864,-0.362424 -0.254937,-0.806152 -0.03169,-0.445106 0.11989,-0.866785 0.152962,-0.421679 0.486447,-0.613226 0.162608,-0.09371 0.340375,-0.09371 0.338997,0 0.553971,0.256315 0.214974,0.254937 0.326595,0.555349 z m -0.869542,-0.420301 q -0.253559,0 -0.384472,0.272851 -0.129536,0.272851 -0.163987,0.465776 -0.02618,0.14056 -0.01929,0.340376 0.0069,0.199815 0.05788,0.395496 0.05099,0.194304 0.152962,0.3514 0.101974,0.155718 0.267339,0.206705 0.192925,0.06063 0.332107,-0.07579 0.14056,-0.137803 0.212218,-0.292144 0.07303,-0.158474 0.09922,-0.416167 0.02756,-0.257693 -0.0124,-0.514008 -0.03859,-0.257693 -0.152962,-0.46302 -0.114377,-0.206706 -0.325217,-0.263205 -0.02756,-0.0083 -0.06339,-0.0083 z"
         style="font-style:normal;font-variant:normal;font-weight:normal;font-stretch:normal;font-size:2.82222px;font-family:'MS 33558';-inkscape-font-specification:'MS 33558, Normal';font-variant-ligatures:normal;font-variant-caps:normal;font-variant-numeric:normal;font-variant-east-asian:normal;stroke-width:0.264583"
         id="path1099" />
      <path
         d="m 57.817563,52.906713 v -2.430858 q 0.02481,-0.181901 0.195681,-0.195681 h 1.33394 q 0.191548,0.01516 0.191548,0.195681 0,0.179145 -0.194304,0.191547 h -1.139636 v 0.753787 h 0.888834 q 0.190169,0.01378 0.192925,0.186035 0.0028,0.172254 -0.192925,0.201193 h -0.888834 v 1.098296 q -0.01378,0.190169 -0.187413,0.192925 -0.172255,0.0028 -0.199816,-0.192925 z"
         style="font-style:normal;font-variant:normal;font-weight:normal;font-stretch:normal;font-size:2.82222px;font-family:'MS 33558';-inkscape-font-specification:'MS 33558, Normal';font-variant-ligatures:normal;font-variant-caps:normal;font-variant-numeric:normal;font-variant-east-asian:normal;stroke-width:0.264583"
         id="path1101" />
      <path
         d="m 59.924582,52.906713 v -2.430858 q 0.0248,-0.181901 0.195681,-0.195681 h 1.33394 q 0.191547,0.01516 0.191547,0.195681 0,0.179145 -0.194303,0.191547 H 60.31181 v 0.753787 h 0.888834 q 0.190169,0.01378 0.192925,0.186035 0.0028,0.172254 -0.192925,0.201193 H 60.31181 v 1.098296 q -0.01378,0.190169 -0.187413,0.192925 -0.172255,0.0028 -0.199815,-0.192925 z"
         style="font-style:normal;font-variant:normal;font-weight:normal;font-stretch:normal;font-size:2.82222px;font-family:'MS 33558';-inkscape-font-specification:'MS 33558, Normal';font-variant-ligatures:normal;font-variant-caps:normal;font-variant-numeric:normal;font-variant-east-asian:normal;stroke-width:0.264583"
         id="path1103" />
    </g>
    <g
       aria-label="GD"
       id="text3630"
       style="font-style:normal;font-variant:normal;font-weight:normal;font-stretch:normal;font-size:2.82222px;line-height:1.25;font-family:'MS 33558';-inkscape-font-specification:'MS 33558, Normal';font-variant-ligatures:normal;font-variant-caps:normal;font-variant-numeric:normal;font-variant-east-asian:normal;text-align:center;text-anchor:middle;stroke-width:0.264583">
      <path
         d="m 79.223811,51.968774 -0.0124,-0.0014 q -0.168121,-0.02067 -0.168121,-0.191547 0,-0.170877 0.168121,-0.191548 l 0.0124,-0.0028 h 0.0124 0.508496 q 0.07993,0 0.136426,0.05788 0.05788,0.0565 0.05788,0.136426 v 0.698665 l -0.01654,0.03583 -0.0096,0.02205 -0.0096,0.02067 -0.01102,0.02067 -0.01102,0.02067 -0.0096,0.02067 -0.01102,0.02067 -0.0124,0.02067 q -0.26734,0.454753 -0.664215,0.445107 -0.396875,-0.01103 -0.66697,-0.449241 -0.128158,-0.208084 -0.19017,-0.520898 -0.06201,-0.314193 -0.03721,-0.640788 0.02481,-0.327973 0.151585,-0.622873 0.128157,-0.296279 0.381716,-0.469911 0.316949,-0.214974 0.617361,-0.04961 0.300413,0.163987 0.449241,0.461643 l 0.01102,0.02205 0.0083,0.01929 0.01102,0.02067 q 0.04685,0.130913 -0.03583,0.213596 -0.07993,0.07855 -0.173633,0.05926 -0.09371,-0.02067 -0.144694,-0.111621 -0.161231,-0.399631 -0.416168,-0.348643 -0.253559,0.05099 -0.380338,0.416167 -0.124024,0.352778 -0.09784,0.759299 0.02618,0.405143 0.264583,0.706934 0.163987,0.21084 0.333486,0.135047 0.169498,-0.07579 0.267339,-0.282497 l 0.01516,-0.03032 v -0.420302 z"
         style="font-style:normal;font-variant:normal;font-weight:normal;font-stretch:normal;font-size:2.82222px;font-family:'MS 33558';-inkscape-font-specification:'MS 33558, Normal';font-variant-ligatures:normal;font-variant-caps:normal;font-variant-numeric:normal;font-variant-east-asian:normal;stroke-width:0.264583"
         id="path1094" />
      <path
         d="m 80.581179,50.283433 h 0.649056 q 0.483691,0 0.724848,0.440973 0.241157,0.440972 0.241157,0.970139 0,0.529166 -0.242535,0.970138 -0.241157,0.440973 -0.72347,0.440973 h -0.649056 0.0028 -0.0028 q -0.04548,-0.0069 -0.04961,-0.0083 -0.143316,-0.03445 -0.141938,-0.187413 h -0.0014 l 0.0014,-2.433615 q -0.0014,-0.0041 -0.0014,-0.01103 0.0041,-0.07579 0.05925,-0.128157 0.0565,-0.05374 0.135048,-0.05374 z m 0.649056,2.433616 q 0.0028,0 0.0055,0 0.0028,0 0.0069,0 0.0028,0 0.0041,0 0.0028,-0.0014 0.0069,-0.0014 0.0028,0 0.0055,0 0.0041,-0.0014 0.0083,-0.0014 0.0028,0 0.0055,0 0.0028,-0.0014 0.0069,-0.0014 0.0028,0 0.0055,0 0.0028,-0.0014 0.0069,-0.0014 0.0055,-0.0028 0.01102,-0.0028 0.0028,0 0.0055,-0.0014 0.0028,-0.0028 0.0069,-0.0041 0.0028,0 0.0055,0 0.0041,-0.0014 0.0083,-0.0028 0.0028,0 0.0055,-0.0014 0.0028,-0.0014 0.0069,-0.0028 0.0083,-0.0028 0.0124,-0.0055 0.02481,-0.0083 0.01378,-0.0055 0.0028,0 0.0055,-0.0014 0.0028,-0.0028 0.0069,-0.0041 0.0124,-0.0083 0.01102,-0.0069 0.01378,-0.0069 0.01378,-0.0069 0.0028,-0.0014 0.0055,-0.0028 0.0028,-0.0028 0.0069,-0.0055 0.0124,-0.0083 0.0124,-0.0083 0.0028,-0.0014 0.0055,-0.0028 0.0041,-0.0028 0.0083,-0.0055 0.0028,-0.0014 0.0055,-0.0041 0.0028,-0.0028 0.0069,-0.0055 0.0028,-0.0014 0.0055,-0.0028 0.0028,-0.0028 0.0069,-0.0055 0.0028,-0.0028 0.01378,-0.01102 0.01102,-0.01102 0.01102,-0.01102 0.0028,-0.0028 0.0055,-0.0055 0.0028,-0.0028 0.0069,-0.0069 0.0028,-0.0028 0.0055,-0.0055 0.0028,-0.0028 0.0069,-0.0069 0.0041,-0.0028 0.0124,-0.01102 0.0028,-0.0028 0.0055,-0.0055 0.0028,-0.0028 0.0069,-0.0069 0.0028,-0.0028 0.0055,-0.0055 0.0028,-0.0041 0.0069,-0.0083 0.01654,-0.02205 0.01102,-0.01378 0.0096,-0.0096 0.0124,-0.01516 0.0124,-0.01654 0.01102,-0.01516 0.0028,-0.0041 0.0055,-0.0069 0.0028,-0.0041 0.0069,-0.0083 0.0028,-0.0041 0.0041,-0.0083 0.0028,-0.0041 0.0069,-0.0083 0.0014,-0.0041 0.0041,-0.0083 0.0041,-0.0055 0.0069,-0.0096 0.0083,-0.01102 0.01102,-0.01654 0.0028,-0.0041 0.0041,-0.0083 0.0028,-0.0055 0.0069,-0.0096 0.0028,-0.0041 0.0041,-0.0083 0.0028,-0.0055 0.0069,-0.0096 0.0028,-0.0069 0.0083,-0.01792 0.0028,-0.0041 0.0041,-0.0096 0.0028,-0.0055 0.0069,-0.01102 0.0028,-0.0041 0.0041,-0.0083 0.0028,-0.0055 0.0069,-0.01102 0.0014,-0.0041 0.0028,-0.0096 0.0028,-0.0055 0.0055,-0.01102 0.0041,-0.0069 0.0096,-0.02067 0.01378,-0.03445 0.0096,-0.02205 0.0014,-0.0041 0.0028,-0.0096 0.0028,-0.0069 0.0055,-0.0124 0.0014,-0.0055 0.0028,-0.01102 0.0028,-0.0055 0.0055,-0.0124 0.0041,-0.0124 0.0069,-0.02205 0.0014,-0.0055 0.0028,-0.01103 0.0028,-0.0055 0.0055,-0.0124 -0.0055,0.01378 0.0069,-0.02343 0.0028,-0.0069 0.0083,-0.02343 0,-0.0055 0.0014,-0.01102 0.0028,-0.0069 0.0041,-0.01378 0.0014,-0.0055 0.0028,-0.01102 0.0014,-0.0069 0.0041,-0.01378 0,-0.0041 0.0014,-0.0096 0.0028,-0.0069 0.0041,-0.01378 0.0014,-0.0096 0.0041,-0.02618 0,-0.0055 0.0014,-0.01102 0.0028,-0.0069 0.0041,-0.01378 0,-0.0055 0.0014,-0.01102 0.0014,-0.0069 0.0028,-0.01378 0.0014,-0.0096 0.0041,-0.02618 0,-0.0055 0.0014,-0.0124 0.0028,-0.0069 0.0041,-0.01378 0,-0.0096 0.0028,-0.02618 0,-0.0055 0,-0.01102 0.0014,-0.0069 0.0028,-0.01516 0.0028,-0.01654 0.0028,-0.02618 0.0014,-0.0096 0.0014,-0.02618 0.0014,-0.0096 0.0014,-0.02756 0.0014,-0.0096 0.0014,-0.02618 0,-0.0069 0,-0.0124 0.0014,-0.0069 0.0028,-0.01516 0,-0.0055 0,-0.01102 0.0014,-0.0069 0.0014,-0.01516 0,-0.0055 0,-0.0124 0,-0.0069 0,-0.01378 0,-0.0069 0,-0.0124 0,-0.0069 0,-0.01378 0,-0.0069 -0.0014,-0.0124 0,-0.0069 0,-0.01516 0,-0.0055 0,-0.0124 0,-0.0069 0,-0.01378 0,-0.0083 -0.0028,-0.02756 0,-0.01654 -0.0014,-0.02481 0,-0.0096 -0.0028,-0.02894 0,-0.01654 -0.0014,-0.02481 0,-0.0096 -0.0028,-0.02618 -0.0014,-0.0055 -0.0028,-0.0124 0,-0.0069 0,-0.01378 -0.0028,-0.01654 -0.0055,-0.02618 -0.0014,-0.0055 -0.0028,-0.01102 -0.0014,-0.0069 -0.0014,-0.01378 -0.0014,-0.0096 -0.0041,-0.02618 -0.0014,-0.0096 -0.0041,-0.02618 -0.0055,-0.01654 -0.0069,-0.02481 -0.0028,-0.01654 -0.0041,-0.02343 -0.0028,-0.0055 -0.0041,-0.01103 -0.0014,-0.0069 -0.0028,-0.01378 -0.0014,-0.0055 -0.0041,-0.01102 -0.0028,-0.0069 -0.0028,-0.01378 -0.0124,-0.03721 -0.0069,-0.02343 -0.0028,-0.0096 -0.0069,-0.02343 -0.0028,-0.0041 -0.0055,-0.0096 -0.0014,-0.0069 -0.0028,-0.0124 -0.0014,-0.0041 -0.0083,-0.02343 -0.0055,-0.01378 -0.0083,-0.02205 -0.0028,-0.0041 -0.0055,-0.0096 -0.0014,-0.0069 -0.0028,-0.0124 -0.0028,-0.0041 -0.0055,-0.0096 -0.0028,-0.0055 -0.0041,-0.01102 -0.0055,-0.01378 -0.0096,-0.02067 -0.0055,-0.01378 -0.0083,-0.01929 -0.0055,-0.01378 -0.0096,-0.02067 -0.0028,-0.0041 -0.0055,-0.0083 -0.0028,-0.0055 -0.0041,-0.0096 -0.0083,-0.01378 -0.01102,-0.01929 -0.0124,-0.01929 -0.01103,-0.01791 -0.0041,-0.0041 -0.0069,-0.0083 -0.0014,-0.0055 -0.0041,-0.0096 -0.0028,-0.0055 -0.01102,-0.01654 -0.0028,-0.0041 -0.0055,-0.0083 -0.0028,-0.0041 -0.0041,-0.0083 -0.0069,-0.0124 -0.02343,-0.03169 -0.0028,-0.0028 -0.02205,-0.03032 -0.01654,-0.01929 -0.0248,-0.02756 -0.0083,-0.0096 -0.02481,-0.02618 -0.01102,-0.0124 -0.02343,-0.02343 -0.0096,-0.0069 -0.02618,-0.02067 -0.01378,-0.01102 -0.02618,-0.02067 -0.03169,-0.02067 -0.02618,-0.01791 -0.02756,-0.01654 -0.02481,-0.01516 0,0 -0.0248,-0.0124 -0.0055,-0.0028 -0.02618,-0.0096 -0.01791,-0.0069 -0.02618,-0.0096 -0.0069,-0.0014 -0.0124,-0.0028 -0.0055,-0.0028 -0.01102,-0.0055 -0.02481,-0.0041 -0.02481,-0.0041 -0.0083,-0.0014 -0.02481,-0.0014 -0.0041,0 -0.0069,0 -0.0028,0 -0.0055,0 h -0.454753 v 2.045009 0 z"
         style="font-style:normal;font-variant:normal;font-weight:normal;font-stretch:normal;font-size:2.82222px;font-family:'MS 33558';-inkscape-font-specification:'MS 33558, Normal';font-variant-ligatures:normal;font-variant-caps:normal;font-variant-numeric:normal;font-variant-east-asian:normal;stroke-width:0.264583"
         id="path1096" />
    </g>
    <g
       aria-label="GD"
       id="text3634"
       style="font-style:normal;font-variant:normal;font-weight:normal;font-stretch:normal;font-size:2.82222px;line-height:1.25;font-family:'MS 33558';-inkscape-font-specification:'MS 33558, Normal';font-variant-ligatures:normal;font-variant-caps:normal;font-variant-numeric:normal;font-variant-east-asian:normal;text-align:center;text-anchor:middle;stroke-width:0.264583">
      <path
         d="m 48.796726,51.968775 -0.0124,-0.0014 q -0.168121,-0.02067 -0.168121,-0.191547 0,-0.170877 0.168121,-0.191547 l 0.0124,-0.0028 h 0.0124 0.508495 q 0.07993,0 0.136426,0.05788 0.05788,0.0565 0.05788,0.136426 v 0.698665 l -0.01654,0.03583 -0.0096,0.02205 -0.0096,0.02067 -0.01102,0.02067 -0.01102,0.02067 -0.0096,0.02067 -0.01102,0.02067 -0.0124,0.02067 q -0.267339,0.454752 -0.664214,0.445106 -0.396874,-0.01103 -0.66697,-0.449241 -0.128157,-0.208083 -0.190169,-0.520898 -0.06201,-0.314192 -0.03721,-0.640787 0.02481,-0.327973 0.151584,-0.622873 0.128158,-0.296278 0.381717,-0.46991 0.316948,-0.214974 0.61736,-0.04961 0.300412,0.163987 0.44924,0.461643 l 0.01102,0.02205 0.0083,0.01929 0.01102,0.02067 q 0.04685,0.130914 -0.03583,0.213596 -0.07993,0.07855 -0.173633,0.05926 -0.09371,-0.02067 -0.144693,-0.111621 -0.161231,-0.399631 -0.416168,-0.348644 -0.253558,0.05099 -0.380338,0.416168 -0.124023,0.352777 -0.09784,0.759298 0.02618,0.405143 0.264584,0.706933 0.163986,0.21084 0.333485,0.135048 0.169498,-0.07579 0.267339,-0.282498 l 0.01516,-0.03032 v -0.420301 z"
         style="font-style:normal;font-variant:normal;font-weight:normal;font-stretch:normal;font-size:2.82222px;font-family:'MS 33558';-inkscape-font-specification:'MS 33558, Normal';font-variant-ligatures:normal;font-variant-caps:normal;font-variant-numeric:normal;font-variant-east-asian:normal;stroke-width:0.264583"
         id="path1089" />
      <path
         d="m 50.154093,50.283436 h 0.649055 q 0.483691,0 0.724848,0.440971 0.241156,0.440972 0.241156,0.970139 0,0.529166 -0.242534,0.970138 -0.241157,0.440972 -0.72347,0.440972 h -0.649055 0.0028 -0.0028 q -0.04548,-0.0069 -0.04961,-0.0083 -0.143316,-0.03445 -0.141938,-0.187413 h -0.0014 l 0.0014,-2.433613 q -0.0014,-0.0041 -0.0014,-0.01102 0.0041,-0.07579 0.05926,-0.128157 0.0565,-0.05374 0.135048,-0.05374 z m 0.649055,2.433613 q 0.0028,0 0.0055,0 0.0028,0 0.0069,0 0.0028,0 0.0041,0 0.0028,-0.0014 0.0069,-0.0014 0.0028,0 0.0055,0 0.0041,-0.0014 0.0083,-0.0014 0.0028,0 0.0055,0 0.0028,-0.0014 0.0069,-0.0014 0.0028,0 0.0055,0 0.0028,-0.0014 0.0069,-0.0014 0.0055,-0.0028 0.01102,-0.0028 0.0028,0 0.0055,-0.0014 0.0028,-0.0028 0.0069,-0.0041 0.0028,0 0.0055,0 0.0041,-0.0014 0.0083,-0.0028 0.0028,0 0.0055,-0.0014 0.0028,-0.0014 0.0069,-0.0028 0.0083,-0.0028 0.0124,-0.0055 0.0248,-0.0083 0.01378,-0.0055 0.0028,0 0.0055,-0.0014 0.0028,-0.0028 0.0069,-0.0041 0.0124,-0.0083 0.01103,-0.0069 0.01378,-0.0069 0.01378,-0.0069 0.0028,-0.0014 0.0055,-0.0028 0.0028,-0.0028 0.0069,-0.0055 0.0124,-0.0083 0.0124,-0.0083 0.0028,-0.0014 0.0055,-0.0028 0.0041,-0.0028 0.0083,-0.0055 0.0028,-0.0014 0.0055,-0.0041 0.0028,-0.0028 0.0069,-0.0055 0.0028,-0.0014 0.0055,-0.0028 0.0028,-0.0028 0.0069,-0.0055 0.0028,-0.0028 0.01378,-0.01102 0.01102,-0.01102 0.01102,-0.01102 0.0028,-0.0028 0.0055,-0.0055 0.0028,-0.0028 0.0069,-0.0069 0.0028,-0.0028 0.0055,-0.0055 0.0028,-0.0028 0.0069,-0.0069 0.0041,-0.0028 0.0124,-0.01102 0.0028,-0.0028 0.0055,-0.0055 0.0028,-0.0028 0.0069,-0.0069 0.0028,-0.0028 0.0055,-0.0055 0.0028,-0.0041 0.0069,-0.0083 0.01654,-0.02205 0.01102,-0.01378 0.0096,-0.0096 0.0124,-0.01516 0.0124,-0.01654 0.01102,-0.01516 0.0028,-0.0041 0.0055,-0.0069 0.0028,-0.0041 0.0069,-0.0083 0.0028,-0.0041 0.0041,-0.0083 0.0028,-0.0041 0.0069,-0.0083 0.0014,-0.0041 0.0041,-0.0083 0.0041,-0.0055 0.0069,-0.0096 0.0083,-0.01102 0.01102,-0.01654 0.0028,-0.0041 0.0041,-0.0083 0.0028,-0.0055 0.0069,-0.0096 0.0028,-0.0041 0.0041,-0.0083 0.0028,-0.0055 0.0069,-0.0096 0.0028,-0.0069 0.0083,-0.01791 0.0028,-0.0041 0.0041,-0.0096 0.0028,-0.0055 0.0069,-0.01103 0.0028,-0.0041 0.0041,-0.0083 0.0028,-0.0055 0.0069,-0.01102 0.0014,-0.0041 0.0028,-0.0096 0.0028,-0.0055 0.0055,-0.01103 0.0041,-0.0069 0.0096,-0.02067 0.01378,-0.03445 0.0096,-0.02205 0.0014,-0.0041 0.0028,-0.0096 0.0028,-0.0069 0.0055,-0.0124 0.0014,-0.0055 0.0028,-0.01103 0.0028,-0.0055 0.0055,-0.0124 0.0041,-0.0124 0.0069,-0.02205 0.0014,-0.0055 0.0028,-0.01102 0.0028,-0.0055 0.0055,-0.0124 -0.0055,0.01378 0.0069,-0.02343 0.0028,-0.0069 0.0083,-0.02343 0,-0.0055 0.0014,-0.01102 0.0028,-0.0069 0.0041,-0.01378 0.0014,-0.0055 0.0028,-0.01102 0.0014,-0.0069 0.0041,-0.01378 0,-0.0041 0.0014,-0.0096 0.0028,-0.0069 0.0041,-0.01378 0.0014,-0.0096 0.0041,-0.02618 0,-0.0055 0.0014,-0.01102 0.0028,-0.0069 0.0041,-0.01378 0,-0.0055 0.0014,-0.01102 0.0014,-0.0069 0.0028,-0.01378 0.0014,-0.0096 0.0041,-0.02618 0,-0.0055 0.0014,-0.0124 0.0028,-0.0069 0.0041,-0.01378 0,-0.0096 0.0028,-0.02618 0,-0.0055 0,-0.01102 0.0014,-0.0069 0.0028,-0.01516 0.0028,-0.01654 0.0028,-0.02618 0.0014,-0.0096 0.0014,-0.02618 0.0014,-0.0096 0.0014,-0.02756 0.0014,-0.0096 0.0014,-0.02618 0,-0.0069 0,-0.0124 0.0014,-0.0069 0.0028,-0.01516 0,-0.0055 0,-0.01102 0.0014,-0.0069 0.0014,-0.01516 0,-0.0055 0,-0.0124 0,-0.0069 0,-0.01378 0,-0.0069 0,-0.0124 0,-0.0069 0,-0.01378 0,-0.0069 -0.0014,-0.0124 0,-0.0069 0,-0.01516 0,-0.0055 0,-0.0124 0,-0.0069 0,-0.01378 0,-0.0083 -0.0028,-0.02756 0,-0.01654 -0.0014,-0.02481 0,-0.0096 -0.0028,-0.02894 0,-0.01654 -0.0014,-0.0248 0,-0.0096 -0.0028,-0.02618 -0.0014,-0.0055 -0.0028,-0.0124 0,-0.0069 0,-0.01378 -0.0028,-0.01654 -0.0055,-0.02618 -0.0014,-0.0055 -0.0028,-0.01102 -0.0014,-0.0069 -0.0014,-0.01378 -0.0014,-0.0096 -0.0041,-0.02618 -0.0014,-0.0096 -0.0041,-0.02618 -0.0055,-0.01654 -0.0069,-0.0248 -0.0028,-0.01654 -0.0041,-0.02343 -0.0028,-0.0055 -0.0041,-0.01102 -0.0014,-0.0069 -0.0028,-0.01378 -0.0014,-0.0055 -0.0041,-0.01102 -0.0028,-0.0069 -0.0028,-0.01378 -0.0124,-0.03721 -0.0069,-0.02343 -0.0028,-0.0096 -0.0069,-0.02343 -0.0028,-0.0041 -0.0055,-0.0096 -0.0014,-0.0069 -0.0028,-0.0124 -0.0014,-0.0041 -0.0083,-0.02343 -0.0055,-0.01378 -0.0083,-0.02205 -0.0028,-0.0041 -0.0055,-0.0096 -0.0014,-0.0069 -0.0028,-0.0124 -0.0028,-0.0041 -0.0055,-0.0096 -0.0028,-0.0055 -0.0041,-0.01102 -0.0055,-0.01378 -0.0096,-0.02067 -0.0055,-0.01378 -0.0083,-0.01929 -0.0055,-0.01378 -0.0096,-0.02067 -0.0028,-0.0041 -0.0055,-0.0083 -0.0028,-0.0055 -0.0041,-0.0096 -0.0083,-0.01378 -0.01102,-0.01929 -0.0124,-0.01929 -0.01102,-0.01791 -0.0041,-0.0041 -0.0069,-0.0083 -0.0014,-0.0055 -0.0041,-0.0096 -0.0028,-0.0055 -0.01102,-0.01654 -0.0028,-0.0041 -0.0055,-0.0083 -0.0028,-0.0041 -0.0041,-0.0083 -0.0069,-0.0124 -0.02343,-0.0317 -0.0028,-0.0028 -0.02205,-0.03032 -0.01654,-0.01929 -0.0248,-0.02756 -0.0083,-0.0096 -0.02481,-0.02618 -0.01102,-0.0124 -0.02343,-0.02343 -0.0096,-0.0069 -0.02618,-0.02067 -0.01378,-0.01103 -0.02618,-0.02067 -0.0317,-0.02067 -0.02618,-0.01791 -0.02756,-0.01654 -0.0248,-0.01516 0,0 -0.02481,-0.0124 -0.0055,-0.0028 -0.02618,-0.0096 -0.01791,-0.0069 -0.02618,-0.0096 -0.0069,-0.0014 -0.0124,-0.0028 -0.0055,-0.0028 -0.01102,-0.0055 -0.02481,-0.0041 -0.02481,-0.0041 -0.0083,-0.0014 -0.0248,-0.0014 -0.0041,0 -0.0069,0 -0.0028,0 -0.0055,0 h -0.454752 v 2.045007 0 z"
         style="font-style:normal;font-variant:normal;font-weight:normal;font-stretch:normal;font-size:2.82222px;font-family:'MS 33558';-inkscape-font-specification:'MS 33558, Normal';font-variant-ligatures:normal;font-variant-caps:normal;font-variant-numeric:normal;font-variant-east-asian:normal;stroke-width:0.264583"
         id="path1091" />
    </g>
    <g
       aria-label="SQL"
       id="text3638"
       style="font-style:normal;font-variant:normal;font-weight:normal;font-stretch:normal;font-size:2.82222px;line-height:1.25;font-family:'MS 33558';-inkscape-font-specification:'MS 33558, Normal';font-variant-ligatures:normal;font-variant-caps:normal;font-variant-numeric:normal;font-variant-east-asian:normal;text-align:center;text-anchor:middle;stroke-width:0.264583">
      <path
         d="m 37.428008,45.083507 0.02205,0.0096 0.02481,0.0124 0.02205,0.0124 q 0.0096,0.0069 0.02067,0.01378 0.0124,0.0055 0.02343,0.0124 0.272851,0.179144 0.337619,0.496093 0.0248,0.124023 0.01102,0.254937 -0.02205,0.187413 -0.132291,0.347265 -0.108865,0.158474 -0.27423,0.245291 -0.177767,0.09371 -0.367936,0.09371 -0.319704,0 -0.61047,-0.0813 -0.290766,-0.08268 -0.414789,-0.439594 -0.01654,-0.04548 -0.02481,-0.09371 -0.0083,-0.04823 -0.01929,-0.09646 -0.02067,-0.09922 0.04823,-0.175011 0.07028,-0.07579 0.173632,-0.05788 0.108865,0.02205 0.151584,0.135048 l 0.0041,0.0124 q 0.06614,0.299034 0.230132,0.356912 0.165364,0.05788 0.458886,0.05236 0.270095,0 0.370692,-0.253559 0.0441,-0.112999 0.01378,-0.234266 -0.03032,-0.122646 -0.119889,-0.20395 -0.03996,-0.03445 -0.104731,-0.06477 l -0.638031,-0.279742 -0.02067,-0.01102 q -0.312815,-0.165365 -0.388607,-0.469911 -0.09233,-0.352777 0.128158,-0.632519 0.221864,-0.28112 0.581531,-0.28112 l 0.151584,0.0041 q 0.07441,0.01378 0.143316,0.02756 0.0689,0.0124 0.139182,0.0441 0.173633,0.08131 0.265961,0.223242 0.09233,0.141938 0.166743,0.307303 0.0069,0.01516 0.0124,0.03583 0.01516,0.06752 -0.01378,0.122645 -0.01654,0.03445 -0.03445,0.05237 -0.01792,0.01792 -0.02894,0.02481 -0.07166,0.05099 -0.157096,0.03032 -0.08544,-0.01929 -0.130914,-0.110243 -0.03583,-0.07993 -0.07717,-0.162608 -0.03996,-0.08406 -0.112999,-0.139182 -0.03032,-0.02205 -0.05926,-0.0317 -0.02756,-0.01102 -0.06201,-0.02343 l -0.08957,-0.01516 -0.126779,-0.0041 q -0.184657,0.0028 -0.282498,0.159852 -0.06615,0.100597 -0.04961,0.22462 0.01929,0.152962 0.143316,0.237023 0.0055,0.0041 0.0124,0.0096 0.0069,0.0041 0.01516,0.0083 l 0.01516,0.0069 0.01654,0.0069 z"
         style="font-style:normal;font-variant:normal;font-weight:normal;font-stretch:normal;font-size:2.82222px;font-family:'MS 33558';-inkscape-font-specification:'MS 33558, Normal';font-variant-ligatures:normal;font-variant-caps:normal;font-variant-numeric:normal;font-variant-east-asian:normal;stroke-width:0.264583"
         id="path1082" />
      <path
         d="m 40.166168,45.237847 q -0.01102,0.491959 -0.245291,0.899858 l 0.413411,0.420302 q 0.06615,0.06477 0.05512,0.155718 -0.0096,0.09095 -0.08682,0.143316 -0.133669,0.08819 -0.24529,-0.02618 l -0.395497,-0.398253 q -0.0055,0.0041 -0.01102,0.0083 -0.0041,0.0028 -0.0083,0.0055 -0.07855,0.06063 -0.166742,0.09371 -0.137804,0.05099 -0.274229,0.0441 -0.02205,0 -0.04823,-0.0041 -0.30179,-0.04134 -0.496093,-0.234266 -0.194303,-0.194303 -0.299034,-0.469911 -0.09508,-0.242534 -0.117133,-0.553971 -0.02205,-0.312814 0.04272,-0.61047 0.06615,-0.299034 0.227376,-0.544325 0.162608,-0.24529 0.439594,-0.356911 0.272851,-0.108865 0.522276,0.02067 0.250803,0.129536 0.402387,0.359668 0.151584,0.232888 0.223242,0.502983 0.07166,0.268718 0.06752,0.544325 z m -0.890212,0.802018 q -0.01654,-0.01654 -0.02481,-0.03032 -0.0689,-0.103353 -0.0055,-0.208084 0.03307,-0.05374 0.08268,-0.07717 0.125401,-0.05788 0.22462,0.03858 l 0.08268,0.08544 q 0.09922,-0.219108 0.118511,-0.460265 0.01929,-0.242534 -0.01516,-0.478179 -0.03169,-0.205327 -0.137804,-0.438216 -0.106109,-0.234266 -0.327973,-0.303168 -0.165364,-0.04961 -0.30179,0.07304 -0.135047,0.122646 -0.199815,0.253559 -0.159852,0.316949 -0.150206,0.722092 0.0096,0.403764 0.190169,0.709689 0.08268,0.143316 0.22462,0.23151 0.143316,0.08819 0.312815,0.0096 0.01378,-0.0083 0.03307,-0.01791 z"
         style="font-style:normal;font-variant:normal;font-weight:normal;font-stretch:normal;font-size:2.82222px;font-family:'MS 33558';-inkscape-font-specification:'MS 33558, Normal';font-variant-ligatures:normal;font-variant-caps:normal;font-variant-numeric:normal;font-variant-east-asian:normal;stroke-width:0.264583"
         id="path1084" />
      <path
         d="m 40.904795,46.586946 q -0.169498,-0.01102 -0.195681,-0.191548 v -2.436369 q 0.02894,-0.198438 0.201193,-0.194304 0.172255,0.0028 0.187414,0.194304 v 2.243444 l 1.271928,-0.0014 q 0.195681,0.02205 0.192925,0.198437 -0.0014,0.175011 -0.194303,0.187414 z"
         style="font-style:normal;font-variant:normal;font-weight:normal;font-stretch:normal;font-size:2.82222px;font-family:'MS 33558';-inkscape-font-specification:'MS 33558, Normal';font-variant-ligatures:normal;font-variant-caps:normal;font-variant-numeric:normal;font-variant-east-asian:normal;stroke-width:0.264583"
         id="path1086" />
    </g>
    <g
       aria-label="SQL"
       id="text3642"
       style="font-style:normal;font-variant:normal;font-weight:normal;font-stretch:normal;font-size:2.82222px;line-height:1.25;font-family:'MS 33558';-inkscape-font-specification:'MS 33558, Normal';font-variant-ligatures:normal;font-variant-caps:normal;font-variant-numeric:normal;font-variant-east-asian:normal;text-align:center;text-anchor:middle;stroke-width:0.264583">
      <path
         d="m 67.382623,45.083506 0.02205,0.0096 0.02481,0.0124 0.02205,0.0124 q 0.0096,0.0069 0.02067,0.01378 0.0124,0.0055 0.02343,0.0124 0.272851,0.179144 0.337619,0.496093 0.02481,0.124024 0.01102,0.254937 -0.02205,0.187414 -0.132291,0.347266 -0.108865,0.158474 -0.27423,0.245291 -0.177767,0.09371 -0.367936,0.09371 -0.319705,0 -0.610471,-0.0813 -0.290766,-0.08268 -0.414789,-0.439594 -0.01654,-0.04548 -0.02481,-0.09371 -0.0083,-0.04823 -0.01929,-0.09646 -0.02067,-0.09922 0.04823,-0.175011 0.07028,-0.07579 0.173632,-0.05788 0.108865,0.02205 0.151585,0.135048 l 0.0041,0.0124 q 0.06615,0.299035 0.230132,0.356912 0.165365,0.05788 0.458887,0.05237 0.270095,0 0.370692,-0.253559 0.0441,-0.113 0.01378,-0.234267 -0.03032,-0.122645 -0.11989,-0.20395 -0.03996,-0.03445 -0.104731,-0.06477 l -0.638031,-0.279742 -0.02067,-0.01102 q -0.312815,-0.165365 -0.388607,-0.469911 -0.09233,-0.352778 0.128158,-0.63252 0.221864,-0.28112 0.581532,-0.28112 l 0.151584,0.0041 q 0.07441,0.01378 0.143316,0.02756 0.0689,0.0124 0.139182,0.0441 0.173633,0.08131 0.265961,0.223243 0.09233,0.141937 0.166743,0.307302 0.0069,0.01516 0.0124,0.03583 0.01516,0.06752 -0.01378,0.122645 -0.01654,0.03445 -0.03445,0.05237 -0.01792,0.01791 -0.02894,0.02481 -0.07166,0.05099 -0.157096,0.03032 -0.08544,-0.01929 -0.130914,-0.110243 -0.03583,-0.07993 -0.07717,-0.162608 -0.03996,-0.08406 -0.112999,-0.139182 -0.03032,-0.02205 -0.05926,-0.03169 -0.02756,-0.01102 -0.06201,-0.02343 l -0.08957,-0.01516 -0.126779,-0.0041 q -0.184658,0.0028 -0.282498,0.159852 -0.06615,0.100597 -0.04961,0.224621 0.01929,0.152962 0.143316,0.237022 0.0055,0.0041 0.0124,0.0096 0.0069,0.0041 0.01516,0.0083 l 0.01516,0.0069 0.01654,0.0069 z"
         style="font-style:normal;font-variant:normal;font-weight:normal;font-stretch:normal;font-size:2.82222px;font-family:'MS 33558';-inkscape-font-specification:'MS 33558, Normal';font-variant-ligatures:normal;font-variant-caps:normal;font-variant-numeric:normal;font-variant-east-asian:normal;stroke-width:0.264583"
         id="path1075" />
      <path
         d="m 70.120785,45.237846 q -0.01103,0.49196 -0.245291,0.899859 l 0.413411,0.420302 q 0.06615,0.06477 0.05512,0.155718 -0.0096,0.09095 -0.08682,0.143316 -0.133669,0.08819 -0.24529,-0.02618 l -0.395497,-0.398253 q -0.0055,0.0041 -0.01103,0.0083 -0.0041,0.0028 -0.0083,0.0055 -0.07855,0.06063 -0.166743,0.09371 -0.137803,0.05099 -0.274229,0.0441 -0.02205,0 -0.04823,-0.0041 -0.301791,-0.04134 -0.496094,-0.234266 -0.194304,-0.194304 -0.299034,-0.469911 -0.09508,-0.242535 -0.117134,-0.553972 -0.02205,-0.312814 0.04272,-0.61047 0.06615,-0.299035 0.227377,-0.544326 0.162608,-0.24529 0.439594,-0.356911 0.272851,-0.108865 0.522276,0.02067 0.250803,0.129536 0.402388,0.359668 0.151584,0.232889 0.223242,0.502984 0.07166,0.268717 0.06752,0.544325 z m -0.890213,0.802018 q -0.01654,-0.01654 -0.02481,-0.03032 -0.0689,-0.103353 -0.0055,-0.208084 0.03307,-0.05374 0.08268,-0.07717 0.125402,-0.05788 0.224621,0.03858 l 0.08268,0.08544 q 0.09922,-0.219108 0.118511,-0.460265 0.01929,-0.242534 -0.01516,-0.478179 -0.0317,-0.205328 -0.137804,-0.438216 -0.106109,-0.234267 -0.327973,-0.303169 -0.165365,-0.04961 -0.30179,0.07304 -0.135048,0.122646 -0.199816,0.25356 -0.159852,0.316948 -0.150206,0.722092 0.0096,0.403765 0.190169,0.709689 0.08268,0.143316 0.22462,0.231511 0.143316,0.08819 0.312815,0.0096 0.01378,-0.0083 0.03307,-0.01792 z"
         style="font-style:normal;font-variant:normal;font-weight:normal;font-stretch:normal;font-size:2.82222px;font-family:'MS 33558';-inkscape-font-specification:'MS 33558, Normal';font-variant-ligatures:normal;font-variant-caps:normal;font-variant-numeric:normal;font-variant-east-asian:normal;stroke-width:0.264583"
         id="path1077" />
      <path
         d="m 70.859413,46.586946 q -0.169498,-0.01102 -0.195681,-0.191548 v -2.436371 q 0.02894,-0.198438 0.201193,-0.194304 0.172255,0.0028 0.187414,0.194304 v 2.243446 l 1.271929,-0.0014 q 0.195681,0.02205 0.192925,0.198437 -0.0014,0.175011 -0.194303,0.187414 z"
         style="font-style:normal;font-variant:normal;font-weight:normal;font-stretch:normal;font-size:2.82222px;font-family:'MS 33558';-inkscape-font-specification:'MS 33558, Normal';font-variant-ligatures:normal;font-variant-caps:normal;font-variant-numeric:normal;font-variant-east-asian:normal;stroke-width:0.264583"
         id="path1079" />
    </g>
  </g>
</svg>
