<?xml version="1.0" encoding="UTF-8" standalone="no"?>
<svg
   xmlns:dc="http://purl.org/dc/elements/1.1/"
   xmlns:cc="http://creativecommons.org/ns#"
   xmlns:rdf="http://www.w3.org/1999/02/22-rdf-syntax-ns#"
   xmlns:svg="http://www.w3.org/2000/svg"
   xmlns="http://www.w3.org/2000/svg"
   xmlns:sodipodi="http://sodipodi.sourceforge.net/DTD/sodipodi-0.dtd"
   xmlns:inkscape="http://www.inkscape.org/namespaces/inkscape"
   width="210mm"
   height="297mm"
   viewBox="0 0 210 297"
   version="1.1"
   id="svg8"
   inkscape:version="1.0.1 (3bc2e813f5, 2020-09-07)"
   sodipodi:docname="elec.svg">
  <defs
     id="defs2">
    <marker
       id="DistanceX"
       orient="auto"
       refX="0.0"
       refY="0.0"
       style="overflow:visible">
      <path
         d="M 3,-3 L -3,3 M 0,-5 L  0,5"
         style="stroke:#000000; stroke-width:0.5"
         id="path833" />
    </marker>
    <pattern
       id="Hatch"
       patternUnits="userSpaceOnUse"
       width="8"
       height="8"
       x="0"
       y="0">
      <path
         d="M8 4 l-4,4"
         stroke="#000000"
         stroke-width="0.25"
         linecap="square"
         id="path836" />
      <path
         d="M6 2 l-4,4"
         stroke="#000000"
         stroke-width="0.25"
         linecap="square"
         id="path838" />
      <path
         d="M4 0 l-4,4"
         stroke="#000000"
         stroke-width="0.25"
         linecap="square"
         id="path840" />
    </pattern>
    <symbol
       id="*Model_Space" />
    <symbol
       id="*Paper_Space" />
    <marker
       id="DistanceX-9"
       orient="auto"
       refX="0.0"
       refY="0.0"
       style="overflow:visible">
      <path
         d="M 3,-3 L -3,3 M 0,-5 L  0,5"
         style="stroke:#000000; stroke-width:0.5"
         id="path946" />
    </marker>
    <pattern
       id="Hatch-9"
       patternUnits="userSpaceOnUse"
       width="8"
       height="8"
       x="0"
       y="0">
      <path
         d="M8 4 l-4,4"
         stroke="#000000"
         stroke-width="0.25"
         linecap="square"
         id="path949" />
      <path
         d="M6 2 l-4,4"
         stroke="#000000"
         stroke-width="0.25"
         linecap="square"
         id="path951" />
      <path
         d="M4 0 l-4,4"
         stroke="#000000"
         stroke-width="0.25"
         linecap="square"
         id="path953" />
    </pattern>
    <symbol
       id="*Model_Space-5" />
    <symbol
       id="*Paper_Space-5" />
  </defs>
  <sodipodi:namedview
     id="base"
     pagecolor="#ffffff"
     bordercolor="#666666"
     borderopacity="1.0"
     inkscape:pageopacity="0.0"
     inkscape:pageshadow="2"
     inkscape:zoom="3.959798"
     inkscape:cx="127.57294"
     inkscape:cy="146.0342"
     inkscape:document-units="mm"
     inkscape:current-layer="layer1"
     inkscape:document-rotation="0"
     showgrid="true"
     inkscape:snap-global="false"
     inkscape:window-width="2130"
     inkscape:window-height="2071"
     inkscape:window-x="0"
     inkscape:window-y="0"
     inkscape:window-maximized="0">
    <inkscape:grid
       type="xygrid"
       id="grid1090" />
  </sodipodi:namedview>
  <metadata
     id="metadata5">
    <rdf:RDF>
      <cc:Work
         rdf:about="">
        <dc:format>image/svg+xml</dc:format>
        <dc:type
           rdf:resource="http://purl.org/dc/dcmitype/StillImage" />
        <dc:title />
      </cc:Work>
    </rdf:RDF>
  </metadata>
  <g
     inkscape:label="Lag 1"
     inkscape:groupmode="layer"
     id="layer1">
    <g
       inkscape:label="0"
       id="g875"
       transform="matrix(0.26458333,0,0,0.26458333,8.0654775,-220.17857)"
       style="stroke:#ff0000">
      <path
         d="M 0,907.08661 H 18.897638"
         style="fill:none;stroke:#ff0000;stroke-linecap:round"
         id="path847" />
      <path
         d="M 37.795276,888.18898 V 850.3937"
         style="fill:none;stroke:#ff0000;stroke-linecap:round"
         id="path849" />
      <path
         d="M 18.897638,907.08661 A 18.897638,18.897638 0 0 0 37.795276,888.18898"
         style="fill:none;stroke:#ff0000;stroke-linecap:round"
         id="path851" />
      <path
         d="m 145.51181,933.54331 a 5.6692915,5.6692915 0 1 0 -11.33858,0 5.6692915,5.6692915 0 1 0 11.33858,0 z"
         style="fill:none;stroke:#ff0000;stroke-linecap:round"
         id="path853" />
      <path
         d="M 3.779528,1122.5197 H 241.88976"
         style="fill:none;stroke:#ff0000;stroke-linecap:round"
         id="path855" />
      <path
         d="M 241.88976,1122.5197 V 1103.622"
         style="fill:none;stroke:#ff0000;stroke-linecap:round"
         id="path857" />
      <path
         d="M 241.88976,1103.622 H 170.07874"
         style="fill:none;stroke:#ff0000;stroke-linecap:round"
         id="path859" />
      <path
         d="M 170.07874,1103.622 V 850.3937"
         style="fill:none;stroke:#ff0000;stroke-linecap:round"
         id="path861" />
      <path
         d="M 3.779528,1122.5197 H 0"
         style="fill:none;stroke:#ff0000;stroke-linecap:round"
         id="path863" />
      <path
         d="M 0,907.08661 V 1122.5197"
         style="fill:none;stroke:#ff0000;stroke-linecap:round"
         id="path865" />
      <path
         d="M 170.07874,850.3937 H 37.795276"
         style="fill:none;stroke:#ff0000;stroke-linecap:round"
         id="path867" />
      <path
         d="m 60.472441,1092.2835 a 5.6692915,5.6692915 0 1 0 -11.338583,0 5.6692915,5.6692915 0 1 0 11.338583,0 z"
         style="fill:none;stroke:#ff0000;stroke-linecap:round"
         id="path869" />
      <path
         d="m 102.04724,918.4252 a 22.677165,22.677165 0 1 0 -45.354327,0 22.677166,22.677166 0 1 0 45.354327,0 z"
         style="fill:none;stroke:#ff0000;stroke-linecap:round"
         id="path871" />
      <path
         d="m 122.83465,1054.4882 a 13.228348,13.228348 0 1 0 -26.456697,0 13.228349,13.228349 0 1 0 26.456697,0 z"
         style="fill:none;stroke:#ff0000;stroke-linecap:round"
         id="path873" />
    </g>
    <g
       aria-label="E
L
E
C"
       id="text916"
       style="font-style:normal;font-variant:normal;font-weight:normal;font-stretch:normal;font-size:4.93889px;line-height:1.25;font-family:'MS 33558';-inkscape-font-specification:'MS 33558, Normal';font-variant-ligatures:normal;font-variant-caps:normal;font-variant-numeric:normal;font-variant-east-asian:normal;text-align:center;text-anchor:middle;stroke-width:0.264583">
      <path
         d="m 12.593056,35.356645 h -1.99919 v 1.319127 h 1.524111 q 0.342442,0.05064 0.340031,0.344854 0,0.2918 -0.340031,0.340031 h -1.524111 v 1.5844 h 1.99919 q 0.340031,0.05064 0.340031,0.340031 0,0.289388 -0.340031,0.337619 H 10.258658 Q 9.9572125,39.584122 9.9162158,39.280265 v -4.258828 q 0.04582,-0.318327 0.3424422,-0.33762 h 2.334398 q 0.340031,0.02653 0.337619,0.340031 0,0.311093 -0.337619,0.332797 z"
         style="font-style:normal;font-variant:normal;font-weight:normal;font-stretch:normal;font-size:4.93889px;font-family:'MS 33558';-inkscape-font-specification:'MS 33558, Normal';font-variant-ligatures:normal;font-variant-caps:normal;font-variant-numeric:normal;font-variant-east-asian:normal;stroke-width:0.264583"
         id="path2009" />
      <path
         d="M 10.136874,45.798731 Q 9.8402515,45.779439 9.7944317,45.463524 v -4.263652 q 0.050643,-0.347265 0.3520893,-0.340031 0.301445,0.0048 0.327973,0.340031 v 3.926032 l 2.225876,-0.0024 q 0.342443,0.03858 0.33762,0.347265 -0.0024,0.306269 -0.340031,0.327973 z"
         style="font-style:normal;font-variant:normal;font-weight:normal;font-stretch:normal;font-size:4.93889px;font-family:'MS 33558';-inkscape-font-specification:'MS 33558, Normal';font-variant-ligatures:normal;font-variant-caps:normal;font-variant-numeric:normal;font-variant-east-asian:normal;stroke-width:0.264583"
         id="path2011" />
      <path
         d="m 12.593056,47.70387 h -1.99919 v 1.319127 h 1.524111 q 0.342442,0.05064 0.340031,0.344854 0,0.2918 -0.340031,0.340031 h -1.524111 v 1.5844 h 1.99919 q 0.340031,0.05064 0.340031,0.340031 0,0.289388 -0.340031,0.337619 H 10.258658 Q 9.9572125,51.931347 9.9162158,51.62749 v -4.258828 q 0.04582,-0.318327 0.3424422,-0.33762 h 2.334398 q 0.340031,0.02653 0.337619,0.340031 0,0.311093 -0.337619,0.332797 z"
         style="font-style:normal;font-variant:normal;font-weight:normal;font-stretch:normal;font-size:4.93889px;font-family:'MS 33558';-inkscape-font-specification:'MS 33558, Normal';font-variant-ligatures:normal;font-variant-caps:normal;font-variant-numeric:normal;font-variant-east-asian:normal;stroke-width:0.264583"
         id="path2013" />
      <path
         d="m 12.976495,57.371843 -0.0217,0.03135 q -0.0072,0.0096 -0.01206,0.01688 -0.0048,0.0072 -0.0096,0.01447 -0.330385,0.44614 -0.868165,0.636654 -0.535368,0.188102 -1.056266,-0.06994 -0.605304,-0.301446 -0.889869,-1.022504 -0.2821529,-0.721059 -0.2435678,-1.497584 0.040997,-0.778936 0.4099668,-1.430059 0.371381,-0.651123 1.075559,-0.81511 0.405143,-0.09405 0.807875,0.07958 0.402732,0.171221 0.660769,0.482313 0.0024,0 0.01206,0.01688 0.110932,0.144694 0.04582,0.318327 -0.06511,0.171222 -0.238745,0.21463 -0.185691,0.04823 -0.342443,-0.110932 -0.32315,-0.376205 -0.622184,-0.361735 -0.299035,0.01447 -0.535368,0.245979 -0.236334,0.231511 -0.393086,0.593246 -0.156752,0.361735 -0.192925,0.67765 -0.04341,0.352089 0.0072,0.709001 0.05305,0.354501 0.219452,0.668004 0.289388,0.549838 0.728294,0.689709 0.441316,0.137459 0.860929,-0.422025 0.01929,-0.02411 0.04582,-0.0627 0.226687,-0.250803 0.47749,-0.05064 0.253215,0.197748 0.07476,0.448551 z"
         style="font-style:normal;font-variant:normal;font-weight:normal;font-stretch:normal;font-size:4.93889px;font-family:'MS 33558';-inkscape-font-specification:'MS 33558, Normal';font-variant-ligatures:normal;font-variant-caps:normal;font-variant-numeric:normal;font-variant-east-asian:normal;stroke-width:0.264583"
         id="path2015" />
    </g>
    <g
       aria-label="MAIN PWR"
       id="text926"
       style="font-size:3.29433px;line-height:1.25;font-family:'MS 33558';-inkscape-font-specification:'MS 33558, Normal';text-align:center;text-anchor:middle;stroke-width:0.264583">
      <path
         d="m 22.495498,14.541442 q -0.03539,0.225199 -0.228415,0.225199 -0.191419,-0.0016 -0.225198,-0.225199 v -2.00909 l -0.551736,0.944224 q -0.08847,0.106165 -0.197853,0.110991 -0.107774,0.0048 -0.193027,-0.110991 l -0.548519,-0.939399 0.0016,2.004265 q -0.02574,0.22359 -0.233242,0.22359 -0.205895,-0.0016 -0.221981,-0.22359 v -2.840716 q 0.01287,-0.184984 0.162465,-0.220372 0.149596,-0.037 0.260586,0.101339 l 0.773718,1.330279 0.781759,-1.330279 q 0.110991,-0.138336 0.25737,-0.101339 0.147987,0.037 0.162464,0.220372 z"
         style="stroke-width:0.264583"
         id="path1994" />
      <path
         d="m 24.623623,13.709817 -0.489002,-1.35119 -0.49222,1.35119 z m -0.489002,-1.35119 0.489002,1.35119 z m -1.241808,2.097562 q 0.257369,-0.709375 0.514739,-1.417141 0.258978,-0.709375 0.517956,-1.41875 0.05308,-0.146379 0.210721,-0.147987 0.157639,-0.0016 0.21233,0.147987 l 1.031087,2.843933 q 0.04826,0.226807 -0.138336,0.292758 -0.186593,0.06595 -0.287933,-0.135119 L 24.787696,14.161822 H 23.47672 l -0.160856,0.448788 q -0.102948,0.202679 -0.292758,0.133511 -0.18981,-0.07078 -0.130293,-0.287932 z"
         style="stroke-width:0.264583"
         id="path1996" />
      <path
         d="m 26.153363,14.544659 q -0.03539,0.226807 -0.230024,0.225199 -0.193027,0 -0.226807,-0.225199 v -2.843933 q 0.03378,-0.226807 0.226807,-0.226807 0.194636,-0.0016 0.230024,0.226807 z"
         style="stroke-width:0.264583"
         id="path1998" />
      <path
         d="m 28.831614,14.544659 q 0,0.168899 -0.164073,0.215547 -0.162464,0.04504 -0.252544,-0.09651 l -1.35119,-2.16673 v 2.047696 q -0.03539,0.225199 -0.228415,0.225199 -0.191419,0 -0.225199,-0.225199 v -2.840716 q 0.02413,-0.16729 0.170508,-0.220372 0.147987,-0.05308 0.246109,0.09973 l 1.35119,2.169947 v -2.049305 q 0.03056,-0.230024 0.233242,-0.226807 0.204287,0.0016 0.220372,0.226807 z"
         style="stroke-width:0.264583"
         id="path2000" />
      <path
         d="m 31.824583,11.472311 h 0.03056 q 0.205896,0.01448 0.37962,0.0933 0.332972,0.156031 0.471308,0.513131 0.138336,0.3571 -0.0032,0.696506 -0.114207,0.268629 -0.337797,0.421443 -0.22359,0.151204 -0.509914,0.168898 l -0.03056,0.0016 h -0.78176 v 1.17264 q -0.02895,0.226807 -0.228416,0.226807 -0.199461,0 -0.226807,-0.226807 v -2.842325 q 0.02413,-0.199461 0.21233,-0.225198 h 0.01448 z m 0,0.453614 h -0.78176 v 0.986047 h 0.78176 q 0.183376,0 0.32332,-0.122251 0.141553,-0.122251 0.165682,-0.305626 0.02895,-0.221981 -0.119034,-0.389272 -0.147987,-0.168898 -0.369968,-0.168898 z"
         style="stroke-width:0.264583"
         id="path2002" />
      <path
         d="m 35.051353,11.655687 0.562996,1.923837 0.376403,-1.923837 q 0.06756,-0.217156 0.263804,-0.176942 0.197852,0.04021 0.181767,0.262195 l -0.556562,2.840716 q -0.05147,0.17855 -0.210721,0.184985 -0.157639,0.0064 -0.228415,-0.162465 l -0.608036,-2.075042 -0.60321,2.075042 q -0.07399,0.173725 -0.226807,0.162465 -0.152813,-0.01126 -0.215547,-0.184985 L 33.230464,11.74094 q 0,-0.230024 0.183376,-0.263804 0.183375,-0.03539 0.26702,0.178551 l 0.371578,1.927054 0.562995,-1.927054 q 0.06917,-0.159248 0.220373,-0.164074 0.152813,-0.0048 0.215547,0.164074 z"
         style="stroke-width:0.264583"
         id="path2004" />
      <path
         d="m 38.779994,14.417583 q 0.102948,0.181767 -0.05791,0.305627 -0.07721,0.05469 -0.17855,0.037 -0.09973,-0.01769 -0.146379,-0.09973 l -0.79302,-1.253068 h -0.40214 v 1.132426 q 0,0.139944 -0.127076,0.202678 -0.127076,0.06113 -0.238067,-0.02413 -0.08847,-0.06595 -0.08847,-0.17855 v -2.842325 q 0,-0.0933 0.06434,-0.159247 0.06595,-0.06595 0.160856,-0.06595 h 0.998915 q 0.360317,0 0.62573,0.230024 0.265412,0.228415 0.329754,0.58069 0.06756,0.378011 -0.160856,0.707766 -0.226806,0.328146 -0.603209,0.398923 l -0.03056,0.0048 z m -0.807497,-1.46218 q 0.164073,0 0.302409,-0.09973 0.139945,-0.09973 0.188202,-0.260587 0.0756,-0.247718 -0.06917,-0.447179 -0.144771,-0.20107 -0.398923,-0.221981 h -0.79302 v 1.029478 z"
         style="stroke-width:0.264583"
         id="path2006" />
    </g>
    <g
       aria-label="BATT"
       id="text930"
       style="font-size:3.29433px;line-height:1.25;font-family:'MS 33558';-inkscape-font-specification:'MS 33558, Normal';text-align:center;text-anchor:middle;stroke-width:0.264583">
      <path
         d="m 36.890947,20.564849 q 0.305626,0.02574 0.51313,0.184984 0.209113,0.159247 0.289541,0.384446 0.08043,0.22359 0.02091,0.477742 -0.05791,0.252544 -0.283106,0.464874 0.247718,0.260586 0.308843,0.562995 0.06113,0.30241 -0.0386,0.566213 -0.09812,0.262196 -0.342623,0.445571 -0.244501,0.183376 -0.606427,0.207505 h -0.0048 -0.855754 q -0.197852,-0.02735 -0.228415,-0.22359 v -2.842325 q 0.02735,-0.199461 0.228415,-0.228415 z m -0.143162,2.839107 q 0.273455,-0.01126 0.416617,-0.176941 0.143162,-0.165682 0.147987,-0.366752 0.0064,-0.202678 -0.128684,-0.37962 -0.135119,-0.176942 -0.416617,-0.213938 h -0.64825 v 1.137251 z m 0.143162,-2.382276 h -0.772109 v 0.793019 h 0.776935 q 0.199461,-0.02091 0.295974,-0.143161 0.09812,-0.123859 0.0949,-0.263804 -0.0016,-0.141553 -0.101339,-0.25737 -0.09973,-0.117425 -0.294366,-0.128684 z"
         style="stroke-width:0.264583"
         id="path1985" />
      <path
         d="m 39.926299,22.802355 -0.489003,-1.35119 -0.492219,1.35119 z m -0.489003,-1.35119 0.489003,1.35119 z m -1.241807,2.097562 q 0.257369,-0.709375 0.514739,-1.417141 0.258978,-0.709375 0.517956,-1.41875 0.05308,-0.146379 0.210721,-0.147987 0.157639,-0.0016 0.21233,0.147987 l 1.031087,2.843933 q 0.04826,0.226807 -0.138337,0.292758 -0.186592,0.06595 -0.287932,-0.135119 L 40.090372,23.25436 h -1.310976 l -0.160856,0.448788 q -0.102948,0.202679 -0.292758,0.133511 -0.18981,-0.07078 -0.130293,-0.287932 z"
         style="stroke-width:0.264583"
         id="path1987" />
      <path
         d="m 41.814747,23.63398 v -2.615518 h -0.590341 q -0.225198,-0.01769 -0.225198,-0.225198 0.0016,-0.209113 0.225198,-0.228415 h 1.632688 q 0.221981,0.01769 0.221981,0.228415 0.0016,0.209113 -0.221981,0.225198 h -0.588733 v 2.615518 q -0.037,0.228416 -0.238067,0.225199 -0.199461,-0.0032 -0.215547,-0.225199 z"
         style="stroke-width:0.264583"
         id="path1989" />
      <path
         d="m 44.375574,23.63398 v -2.615518 h -0.590341 q -0.225199,-0.01769 -0.225199,-0.225198 0.0016,-0.209113 0.225199,-0.228415 h 1.632688 q 0.221981,0.01769 0.221981,0.228415 0.0016,0.209113 -0.221981,0.225198 h -0.588733 v 2.615518 q -0.037,0.228416 -0.238067,0.225199 -0.199461,-0.0032 -0.215547,-0.225199 z"
         style="stroke-width:0.264583"
         id="path1991" />
    </g>
    <g
       aria-label="OFF"
       id="text934"
       style="font-size:3.29433px;line-height:1.25;font-family:'MS 33558';-inkscape-font-specification:'MS 33558, Normal';text-align:center;text-anchor:middle;stroke-width:0.264583">
      <path
         d="m 27.537556,32.13088 q 0.147987,0.445571 0.11099,0.924921 -0.03539,0.479351 -0.262195,0.875057 -0.143162,0.246109 -0.39088,0.418225 -0.247718,0.172116 -0.54691,0.120642 -0.487394,-0.08525 -0.746372,-0.508305 -0.258978,-0.423051 -0.297583,-0.941007 -0.037,-0.519565 0.139945,-1.011784 0.17855,-0.492219 0.567821,-0.715809 0.18981,-0.109382 0.397314,-0.109382 0.395706,0 0.646641,0.299192 0.250935,0.297584 0.381229,0.64825 z m -1.015001,-0.490611 q -0.295975,0 -0.448788,0.318495 -0.151205,0.318495 -0.191419,0.543693 -0.03056,0.164073 -0.02252,0.397314 0.008,0.233241 0.06756,0.461657 0.05952,0.226807 0.17855,0.410182 0.119033,0.181768 0.31206,0.241284 0.225199,0.07078 0.387663,-0.08847 0.164073,-0.160855 0.247718,-0.341014 0.08525,-0.184984 0.115817,-0.485785 0.03217,-0.300801 -0.01448,-0.599993 -0.04504,-0.3008 -0.17855,-0.540476 -0.133511,-0.241284 -0.379621,-0.307235 -0.03217,-0.0097 -0.07399,-0.0097 z"
         style="stroke-width:0.264583"
         id="path1978" />
      <path
         d="m 28.081249,34.249352 v -2.837498 q 0.02895,-0.21233 0.228415,-0.228416 h 1.557086 q 0.22359,0.01769 0.22359,0.228416 0,0.209112 -0.226807,0.223589 h -1.330279 v 0.879882 h 1.037521 q 0.221981,0.01609 0.225198,0.217156 0.0032,0.20107 -0.225198,0.23485 h -1.037521 v 1.282021 q -0.01609,0.221982 -0.218764,0.225199 -0.20107,0.0032 -0.233241,-0.225199 z"
         style="stroke-width:0.264583"
         id="path1980" />
      <path
         d="m 30.540736,34.249352 v -2.837498 q 0.02895,-0.21233 0.228416,-0.228416 h 1.557085 q 0.22359,0.01769 0.22359,0.228416 0,0.209112 -0.226807,0.223589 h -1.330278 v 0.879882 h 1.037521 q 0.221981,0.01609 0.225198,0.217156 0.0032,0.20107 -0.225198,0.23485 h -1.037521 v 1.282021 q -0.01609,0.221982 -0.218764,0.225199 -0.20107,0.0032 -0.233242,-0.225199 z"
         style="stroke-width:0.264583"
         id="path1982" />
    </g>
    <g
       aria-label="CAUTION
RESET"
       id="text938"
       style="font-size:3.29433px;line-height:1.25;font-family:'MS 33558';-inkscape-font-specification:'MS 33558, Normal';text-align:center;text-anchor:middle;stroke-width:0.264583">
      <path
         d="m 30.786942,48.729672 -0.01448,0.02091 q -0.0048,0.0064 -0.008,0.01126 -0.0032,0.0048 -0.0064,0.0097 -0.220372,0.297583 -0.579081,0.42466 -0.3571,0.125467 -0.704549,-0.04665 -0.403749,-0.201069 -0.593559,-0.682029 -0.188201,-0.480959 -0.162464,-0.998915 0.02735,-0.519565 0.273455,-0.953876 0.247718,-0.434311 0.717418,-0.543693 0.270238,-0.06273 0.538867,0.05308 0.268629,0.114208 0.440745,0.321712 0.0016,0 0.008,0.01126 0.07399,0.09651 0.03056,0.21233 -0.04343,0.114208 -0.159248,0.143162 -0.123859,0.03217 -0.228415,-0.07399 -0.215547,-0.250935 -0.415008,-0.241284 -0.199462,0.0097 -0.357101,0.164073 -0.157638,0.154422 -0.262195,0.395706 -0.104556,0.241284 -0.128685,0.452005 -0.02895,0.23485 0.0048,0.472917 0.03539,0.236458 0.146379,0.445571 0.193027,0.366751 0.485785,0.460048 0.294366,0.09169 0.574256,-0.281498 0.01287,-0.01609 0.03056,-0.04182 0.151205,-0.16729 0.318495,-0.03378 0.168899,0.131902 0.04987,0.299192 z"
         style="stroke-width:0.264583"
         id="path1953" />
      <path
         d="m 32.9778,48.187588 -0.489002,-1.35119 -0.492219,1.35119 z m -0.489002,-1.35119 0.489002,1.35119 z m -1.241808,2.097561 q 0.25737,-0.709374 0.514739,-1.41714 0.258979,-0.709375 0.517957,-1.41875 0.05308,-0.146379 0.210721,-0.147987 0.157639,-0.0016 0.21233,0.147987 l 1.031086,2.843933 q 0.04826,0.226807 -0.138336,0.292758 -0.186593,0.06595 -0.287932,-0.135119 l -0.165681,-0.460048 h -1.310976 l -0.160856,0.448788 q -0.102948,0.202679 -0.292758,0.133511 -0.18981,-0.07078 -0.130294,-0.287933 z"
         style="stroke-width:0.264583"
         id="path1955" />
      <path
         d="m 36.219048,48.158634 v 0.03217 q -0.0048,0.08043 -0.0064,0.09651 -0.06756,0.492219 -0.403749,0.727068 -0.336189,0.233242 -0.717417,0.218765 -0.381229,-0.01609 -0.698115,-0.278281 -0.315278,-0.262195 -0.342623,-0.764066 v -0.03217 -1.983354 q 0,-0.04826 0.01769,-0.08686 0.07721,-0.168899 0.255761,-0.133511 0.180158,0.03539 0.180158,0.220373 v 1.983354 q 0.02413,0.369968 0.324929,0.553344 0.30241,0.183376 0.635381,-0.01609 0.149596,-0.08847 0.218765,-0.228416 0.07078,-0.139944 0.08365,-0.308843 V 46.17528 q 0,-0.02895 0.0032,-0.04343 0.037,-0.197853 0.242892,-0.17855 0.205896,0.0193 0.205896,0.221981 z"
         style="stroke-width:0.264583"
         id="path1957" />
      <path
         d="m 37.427076,49.019213 v -2.615518 h -0.590341 q -0.225199,-0.01769 -0.225199,-0.225198 0.0016,-0.209113 0.225199,-0.228415 h 1.632688 q 0.221981,0.01769 0.221981,0.228415 0.0016,0.209113 -0.221981,0.225198 H 37.88069 v 2.615518 q -0.037,0.228416 -0.238067,0.225198 -0.199461,-0.0032 -0.215547,-0.225198 z"
         style="stroke-width:0.264583"
         id="path1959" />
      <path
         d="m 39.629194,49.02243 q -0.03539,0.226807 -0.230024,0.225199 -0.193028,0 -0.226807,-0.225199 v -2.843933 q 0.03378,-0.226807 0.226807,-0.226807 0.194635,-0.0016 0.230024,0.226807 z"
         style="stroke-width:0.264583"
         id="path1961" />
      <path
         d="m 42.225409,46.897523 q 0.147987,0.445571 0.11099,0.924922 -0.03539,0.479351 -0.262195,0.875056 -0.143162,0.24611 -0.39088,0.418226 -0.247718,0.172116 -0.54691,0.120642 -0.487394,-0.08525 -0.746372,-0.508305 -0.258978,-0.423051 -0.297583,-0.941007 -0.037,-0.519565 0.139945,-1.011784 0.17855,-0.49222 0.567821,-0.715809 0.18981,-0.109382 0.397314,-0.109382 0.395706,0 0.646641,0.299192 0.250935,0.297583 0.381229,0.648249 z m -1.015001,-0.490611 q -0.295975,0 -0.448788,0.318495 -0.151205,0.318495 -0.191419,0.543693 -0.03056,0.164073 -0.02252,0.397315 0.008,0.233241 0.06756,0.461656 0.05952,0.226807 0.17855,0.410183 0.119033,0.181767 0.31206,0.241284 0.225199,0.07078 0.387663,-0.08847 0.164073,-0.160856 0.247718,-0.341015 0.08525,-0.184984 0.115817,-0.485785 0.03217,-0.3008 -0.01448,-0.599992 -0.04504,-0.300801 -0.17855,-0.540476 -0.133511,-0.241284 -0.379621,-0.307235 -0.03217,-0.0097 -0.07399,-0.0097 z"
         style="stroke-width:0.264583"
         id="path1963" />
      <path
         d="m 44.990523,49.02243 q 0,0.168899 -0.164073,0.215547 -0.162464,0.04504 -0.252544,-0.09651 l -1.35119,-2.16673 v 2.047696 q -0.03539,0.225199 -0.228415,0.225199 -0.191419,0 -0.225199,-0.225199 v -2.840716 q 0.02413,-0.16729 0.170508,-0.220372 0.147987,-0.05308 0.246109,0.09973 l 1.35119,2.169947 v -2.049305 q 0.03056,-0.230024 0.233241,-0.226807 0.204288,0.0016 0.220373,0.226807 z"
         style="stroke-width:0.264583"
         id="path1965" />
      <path
         d="m 32.783969,53.013266 q 0.102948,0.181768 -0.05791,0.305627 -0.07721,0.05469 -0.17855,0.037 -0.09973,-0.0177 -0.146379,-0.09973 l -0.79302,-1.253068 h -0.40214 v 1.132426 q 0,0.139945 -0.127076,0.202678 -0.127076,0.06113 -0.238067,-0.02413 -0.08847,-0.06595 -0.08847,-0.17855 v -2.842325 q 0,-0.0933 0.06434,-0.159247 0.06595,-0.06595 0.160856,-0.06595 h 0.998915 q 0.360318,0 0.62573,0.230024 0.265412,0.228415 0.329755,0.58069 0.06756,0.378011 -0.160856,0.707766 -0.226807,0.328146 -0.60321,0.398923 l -0.03056,0.0048 z m -0.807497,-1.46218 q 0.164073,0 0.302409,-0.09973 0.139945,-0.09973 0.188202,-0.260587 0.0756,-0.247718 -0.06917,-0.447179 -0.144771,-0.20107 -0.398923,-0.221981 h -0.79302 v 1.029478 z"
         style="stroke-width:0.264583"
         id="path1967" />
      <path
         d="m 35.159812,50.516782 h -1.333496 v 0.879882 h 1.016609 q 0.228416,0.03378 0.226807,0.230024 0,0.194636 -0.226807,0.226807 h -1.016609 v 1.056824 h 1.333496 q 0.226806,0.03378 0.226806,0.226806 0,0.193028 -0.226806,0.225199 h -1.557086 q -0.20107,-0.02574 -0.228416,-0.228416 v -2.840716 q 0.03056,-0.21233 0.228416,-0.225198 h 1.557086 q 0.226806,0.01769 0.225198,0.226807 0,0.207504 -0.225198,0.221981 z"
         style="stroke-width:0.264583"
         id="path1969" />
      <path
         d="m 37.452009,51.608994 0.02574,0.01126 0.02895,0.01448 0.02574,0.01448 q 0.01126,0.008 0.02413,0.01609 0.01448,0.0064 0.02735,0.01448 0.318494,0.209112 0.394097,0.579081 0.02895,0.14477 0.01287,0.297584 -0.02574,0.218764 -0.154421,0.405357 -0.127077,0.184984 -0.320104,0.286323 -0.207504,0.109382 -0.429485,0.109382 -0.373186,0 -0.712592,-0.0949 -0.339406,-0.09651 -0.484176,-0.51313 -0.0193,-0.05308 -0.02896,-0.109382 -0.0097,-0.0563 -0.02252,-0.1126 -0.02413,-0.115816 0.0563,-0.204287 0.08204,-0.08847 0.202679,-0.06756 0.127076,0.02574 0.176941,0.157639 l 0.0048,0.01448 q 0.07721,0.349057 0.268629,0.416617 0.193028,0.06756 0.535651,0.06112 0.315277,0 0.432702,-0.295975 0.05147,-0.131902 0.01609,-0.273455 -0.03539,-0.143162 -0.139945,-0.238067 -0.04665,-0.04021 -0.12225,-0.0756 l -0.744763,-0.326538 -0.02413,-0.01287 q -0.365143,-0.193027 -0.453614,-0.548519 -0.107773,-0.411791 0.149596,-0.738329 0.258978,-0.328146 0.678812,-0.328146 l 0.176942,0.0048 q 0.08686,0.01608 0.16729,0.03217 0.08043,0.01448 0.162465,0.05147 0.202678,0.09491 0.310452,0.260586 0.107773,0.165682 0.194635,0.358709 0.008,0.01769 0.01448,0.04182 0.01769,0.07882 -0.01609,0.143161 -0.0193,0.04021 -0.04021,0.06113 -0.02091,0.02091 -0.03378,0.02895 -0.08364,0.05952 -0.183376,0.03539 -0.09973,-0.02252 -0.152813,-0.128685 -0.04182,-0.0933 -0.09008,-0.18981 -0.04665,-0.09812 -0.131902,-0.162464 -0.03539,-0.02574 -0.06917,-0.037 -0.03217,-0.01287 -0.07238,-0.02735 l -0.104557,-0.01769 -0.147987,-0.0048 q -0.215547,0.0032 -0.329755,0.186593 -0.07721,0.117424 -0.05791,0.262195 0.02252,0.17855 0.16729,0.276672 0.0064,0.0048 0.01448,0.01126 0.008,0.0048 0.01769,0.0097 l 0.01769,0.008 0.0193,0.008 z"
         style="stroke-width:0.264583"
         id="path1971" />
      <path
         d="M 40.180126,50.516782 H 38.84663 v 0.879882 h 1.01661 q 0.228415,0.03378 0.226806,0.230024 0,0.194636 -0.226806,0.226807 h -1.01661 v 1.056824 h 1.333496 q 0.226807,0.03378 0.226807,0.226806 0,0.193028 -0.226807,0.225199 H 38.62304 q -0.20107,-0.02574 -0.228415,-0.228416 v -2.840716 q 0.03056,-0.21233 0.228415,-0.225198 h 1.557086 q 0.226807,0.01769 0.225198,0.226807 0,0.207504 -0.225198,0.221981 z"
         style="stroke-width:0.264583"
         id="path1973" />
      <path
         d="M 41.669651,53.137125 V 50.521608 H 41.07931 q -0.225198,-0.01769 -0.225198,-0.225199 0.0016,-0.209112 0.225198,-0.228415 h 1.632688 q 0.221981,0.01769 0.221981,0.228415 0.0016,0.209113 -0.221981,0.225199 h -0.588733 v 2.615517 q -0.037,0.228416 -0.238067,0.225199 -0.199461,-0.0032 -0.215547,-0.225199 z"
         style="stroke-width:0.264583"
         id="path1975" />
    </g>
    <g
       aria-label="ACFT BATT"
       id="text944"
       style="font-size:3.29433px;line-height:1.25;font-family:'MS 33558';-inkscape-font-specification:'MS 33558, Normal';text-align:center;text-anchor:middle;stroke-width:0.264583">
      <path
         d="m 41.803625,74.847725 -0.489002,-1.35119 -0.49222,1.35119 z m -0.489002,-1.35119 0.489002,1.35119 z m -1.241808,2.097562 q 0.257369,-0.709375 0.514739,-1.417141 0.258978,-0.709375 0.517956,-1.41875 0.05308,-0.146379 0.210721,-0.147987 0.157639,-0.0016 0.21233,0.147987 l 1.031087,2.843933 q 0.04826,0.226807 -0.138336,0.292758 -0.186593,0.06595 -0.287933,-0.135119 L 41.967698,75.29973 h -1.310976 l -0.160856,0.448788 q -0.102948,0.202679 -0.292758,0.133511 -0.18981,-0.07078 -0.130293,-0.287932 z"
         style="stroke-width:0.264583"
         id="path1936" />
      <path
         d="m 44.948358,75.38981 -0.01448,0.02091 q -0.0048,0.0064 -0.008,0.01126 -0.0032,0.0048 -0.0064,0.0097 -0.220372,0.297584 -0.579081,0.42466 -0.3571,0.125468 -0.704549,-0.04665 -0.403749,-0.20107 -0.593559,-0.68203 -0.188201,-0.480959 -0.162464,-0.998915 0.02735,-0.519565 0.273455,-0.953876 0.247718,-0.434311 0.717418,-0.543693 0.270238,-0.06273 0.538867,0.05308 0.268629,0.114207 0.440745,0.321711 0.0016,0 0.008,0.01126 0.07399,0.09651 0.03056,0.21233 -0.04343,0.114208 -0.159248,0.143162 -0.123859,0.03217 -0.228415,-0.07399 -0.215547,-0.250935 -0.415008,-0.241284 -0.199462,0.0097 -0.357101,0.164073 -0.157639,0.154422 -0.262195,0.395706 -0.104556,0.241284 -0.128685,0.452005 -0.02895,0.23485 0.0048,0.472917 0.03539,0.236458 0.146379,0.445571 0.193027,0.366751 0.485785,0.460048 0.294366,0.09169 0.574256,-0.281498 0.01287,-0.01609 0.03056,-0.04182 0.151205,-0.16729 0.318495,-0.03378 0.168899,0.131901 0.04986,0.299192 z"
         style="stroke-width:0.264583"
         id="path1938" />
      <path
         d="m 45.397146,75.676133 v -2.837499 q 0.02896,-0.21233 0.228416,-0.228415 h 1.557086 q 0.223589,0.01769 0.223589,0.228415 0,0.209113 -0.226807,0.22359 h -1.330278 v 0.879882 h 1.037521 q 0.221981,0.01609 0.225198,0.217156 0.0032,0.20107 -0.225198,0.234849 h -1.037521 v 1.282022 q -0.01609,0.221981 -0.218764,0.225199 -0.20107,0.0032 -0.233242,-0.225199 z"
         style="stroke-width:0.264583"
         id="path1940" />
      <path
         d="m 48.672174,75.67935 v -2.615517 h -0.590342 q -0.225198,-0.0177 -0.225198,-0.225199 0.0016,-0.209113 0.225198,-0.228415 h 1.632688 q 0.221981,0.01769 0.221981,0.228415 0.0016,0.209113 -0.221981,0.225199 h -0.588733 v 2.615517 q -0.037,0.228416 -0.238066,0.225199 -0.199462,-0.0032 -0.215547,-0.225199 z"
         style="stroke-width:0.264583"
         id="path1942" />
      <path
         d="m 52.939122,72.610219 q 0.305626,0.02574 0.51313,0.184984 0.209113,0.159247 0.289541,0.384446 0.08043,0.22359 0.02091,0.477742 -0.05791,0.252544 -0.283106,0.464874 0.247718,0.260586 0.308843,0.562996 0.06113,0.302409 -0.0386,0.566212 -0.09812,0.262196 -0.342623,0.445571 -0.244501,0.183376 -0.606427,0.207505 h -0.0048 -0.855754 q -0.197853,-0.02735 -0.228415,-0.22359 v -2.842325 q 0.02735,-0.199461 0.228415,-0.228415 z m -0.143162,2.839107 q 0.273455,-0.01126 0.416617,-0.176941 0.143162,-0.165682 0.147987,-0.366752 0.0064,-0.202678 -0.128684,-0.37962 -0.135119,-0.176941 -0.416617,-0.213938 h -0.64825 v 1.137251 z m 0.143162,-2.382276 h -0.772109 v 0.79302 h 0.776934 q 0.199462,-0.02091 0.295975,-0.143162 0.09812,-0.123859 0.0949,-0.263804 -0.0016,-0.141553 -0.101339,-0.25737 -0.09973,-0.117424 -0.294366,-0.128684 z"
         style="stroke-width:0.264583"
         id="path1944" />
      <path
         d="m 55.974474,74.847725 -0.489003,-1.35119 -0.492219,1.35119 z m -0.489003,-1.35119 0.489003,1.35119 z m -1.241808,2.097562 q 0.25737,-0.709375 0.51474,-1.417141 0.258978,-0.709375 0.517956,-1.41875 0.05308,-0.146379 0.210721,-0.147987 0.157639,-0.0016 0.21233,0.147987 l 1.031086,2.843933 q 0.04826,0.226807 -0.138336,0.292758 -0.186593,0.06595 -0.287932,-0.135119 L 56.138547,75.29973 h -1.310976 l -0.160856,0.448788 q -0.102948,0.202679 -0.292758,0.133511 -0.18981,-0.07078 -0.130294,-0.287932 z"
         style="stroke-width:0.264583"
         id="path1946" />
      <path
         d="m 57.862923,75.67935 v -2.615517 h -0.590342 q -0.225198,-0.0177 -0.225198,-0.225199 0.0016,-0.209113 0.225198,-0.228415 h 1.632688 q 0.221982,0.01769 0.221982,0.228415 0.0016,0.209113 -0.221982,0.225199 h -0.588732 v 2.615517 q -0.037,0.228416 -0.238067,0.225199 -0.199462,-0.0032 -0.215547,-0.225199 z"
         style="stroke-width:0.264583"
         id="path1948" />
      <path
         d="m 60.423748,75.67935 v -2.615517 h -0.590341 q -0.225199,-0.0177 -0.225199,-0.225199 0.0016,-0.209113 0.225199,-0.228415 h 1.632688 q 0.221981,0.01769 0.221981,0.228415 0.0016,0.209113 -0.221981,0.225199 h -0.588733 v 2.615517 q -0.037,0.228416 -0.238067,0.225199 -0.199461,-0.0032 -0.215547,-0.225199 z"
         style="stroke-width:0.264583"
         id="path1950" />
    </g>
    <path
       style="fill:none;stroke:#000000;stroke-width:0.765;stroke-linecap:butt;stroke-linejoin:miter;stroke-miterlimit:4;stroke-dasharray:none;stroke-opacity:1"
       d="m 39.361135,74.283954 c -7.9375,0 -7.9375,0 -7.9375,0"
       id="path1092" />
    <path
       style="fill:none;stroke:#000000;stroke-width:0.765;stroke-linecap:butt;stroke-linejoin:miter;stroke-miterlimit:4;stroke-dasharray:none;stroke-opacity:1"
       d="m 70.91102,74.283954 c -7.9375,0 -7.9375,0 -7.9375,0"
       id="path1092-1" />
  </g>
</svg>
