<?xml version="1.0" encoding="UTF-8" standalone="no"?>
<svg
   xmlns:dc="http://purl.org/dc/elements/1.1/"
   xmlns:cc="http://creativecommons.org/ns#"
   xmlns:rdf="http://www.w3.org/1999/02/22-rdf-syntax-ns#"
   xmlns:svg="http://www.w3.org/2000/svg"
   xmlns="http://www.w3.org/2000/svg"
   xmlns:sodipodi="http://sodipodi.sourceforge.net/DTD/sodipodi-0.dtd"
   xmlns:inkscape="http://www.inkscape.org/namespaces/inkscape"
   width="210mm"
   height="297mm"
   viewBox="0 0 210 297"
   version="1.1"
   id="svg2169"
   inkscape:version="1.0.1 (3bc2e813f5, 2020-09-07)"
   sodipodi:docname="hmcs.svg">
  <defs
     id="defs2163">
    <marker
       id="DistanceX"
       orient="auto"
       refX="0.0"
       refY="0.0"
       style="overflow:visible">
      <path
         d="M 3,-3 L -3,3 M 0,-5 L  0,5"
         style="stroke:#000000; stroke-width:0.5"
         id="path2732" />
    </marker>
    <pattern
       id="Hatch"
       patternUnits="userSpaceOnUse"
       width="8"
       height="8"
       x="0"
       y="0">
      <path
         d="M8 4 l-4,4"
         stroke="#000000"
         stroke-width="0.25"
         linecap="square"
         id="path2735" />
      <path
         d="M6 2 l-4,4"
         stroke="#000000"
         stroke-width="0.25"
         linecap="square"
         id="path2737" />
      <path
         d="M4 0 l-4,4"
         stroke="#000000"
         stroke-width="0.25"
         linecap="square"
         id="path2739" />
    </pattern>
    <symbol
       id="*Model_Space" />
    <symbol
       id="*Paper_Space" />
  </defs>
  <sodipodi:namedview
     id="base"
     pagecolor="#ffffff"
     bordercolor="#666666"
     borderopacity="1.0"
     inkscape:pageopacity="0.0"
     inkscape:pageshadow="2"
     inkscape:zoom="2.8"
     inkscape:cx="299.04102"
     inkscape:cy="178.73106"
     inkscape:document-units="mm"
     inkscape:current-layer="layer1"
     inkscape:document-rotation="0"
     showgrid="false"
     inkscape:window-width="2130"
     inkscape:window-height="2071"
     inkscape:window-x="0"
     inkscape:window-y="0"
     inkscape:window-maximized="0" />
  <metadata
     id="metadata2166">
    <rdf:RDF>
      <cc:Work
         rdf:about="">
        <dc:format>image/svg+xml</dc:format>
        <dc:type
           rdf:resource="http://purl.org/dc/dcmitype/StillImage" />
        <dc:title />
      </cc:Work>
    </rdf:RDF>
  </metadata>
  <g
     inkscape:label="Lag 1"
     inkscape:groupmode="layer"
     id="layer1">
    <g
       inkscape:label="0"
       id="g2772"
       transform="matrix(0.26458333,0,0,0.26458333,6.3750012,-150.54167)"
       style="stroke:#ff0000">
      <path
         d="m 532.91339,650.07874 h 18.89763"
         style="fill:none;stroke:#ff0000;stroke-linecap:round"
         id="path2746" />
      <path
         d="M 514.01575,593.38583 V 631.1811"
         style="fill:none;stroke:#ff0000;stroke-linecap:round"
         id="path2748" />
      <path
         d="m 514.01575,631.1811 a 18.897638,18.897638 0 0 0 18.89764,18.89764"
         style="fill:none;stroke:#ff0000;stroke-linecap:round"
         id="path2750" />
      <path
         d="M 18.897638,687.87402 H 0"
         style="fill:none;stroke:#ff0000;stroke-linecap:round"
         id="path2752" />
      <path
         d="M 37.795276,744.56693 V 706.77165"
         style="fill:none;stroke:#ff0000;stroke-linecap:round"
         id="path2754" />
      <path
         d="M 37.795276,706.77165 A 18.897638,18.897638 0 0 0 18.897638,687.87402"
         style="fill:none;stroke:#ff0000;stroke-linecap:round"
         id="path2756" />
      <path
         d="m 100.15748,725.66929 a 5.669291,5.669291 0 1 0 -11.338582,0 5.669291,5.669291 0 1 0 11.338582,0 z"
         style="fill:none;stroke:#ff0000;stroke-linecap:round"
         id="path2758" />
      <path
         d="m 440.31496,612.28346 a 5.6692915,5.6692915 0 1 0 -11.33858,0 5.6692915,5.6692915 0 1 0 11.33858,0 z"
         style="fill:none;stroke:#ff0000;stroke-linecap:round"
         id="path2760" />
      <path
         d="m 0,593.38583 v 94.48819"
         style="fill:none;stroke:#ff0000;stroke-linecap:round"
         id="path2762" />
      <path
         d="M 37.795276,744.56693 H 551.81102"
         style="fill:none;stroke:#ff0000;stroke-linecap:round"
         id="path2764" />
      <path
         d="M 514.01575,593.38583 H 0"
         style="fill:none;stroke:#ff0000;stroke-linecap:round"
         id="path2766" />
      <path
         d="M 551.81102,744.56693 V 650.07874"
         style="fill:none;stroke:#ff0000;stroke-linecap:round"
         id="path2768" />
      <path
         d="m 277.79528,668.97638 a 13.22835,13.22835 0 1 0 -26.4567,0 13.22835,13.22835 0 1 0 26.4567,0 z"
         style="fill:none;stroke:#ff0000;stroke-linecap:round"
         id="path2770" />
    </g>
    <g
       aria-label="H
M
C
S"
       id="text2812"
       style="font-style:normal;font-variant:normal;font-weight:normal;font-stretch:normal;font-size:4.93889px;line-height:1.25;font-family:'MS 33558';-inkscape-font-specification:'MS 33558, Normal';font-variant-ligatures:normal;font-variant-caps:normal;font-variant-numeric:normal;font-variant-east-asian:normal;text-align:center;text-anchor:middle;stroke-width:0.264583">
      <path
         d="m 19.374551,18.566013 v -4.263651 q 0.05064,-0.347266 0.352089,-0.340031 0.301446,0.0048 0.327973,0.340031 v 1.594046 h 1.941312 v -1.594046 q 0.05064,-0.340031 0.340031,-0.340031 0.2918,-0.0024 0.344854,0.340031 v 4.263651 q -0.05305,0.340031 -0.344854,0.33762 -0.289388,0 -0.340031,-0.33762 v -1.98472 h -1.941312 v 1.98472 q -0.02653,0.332796 -0.327973,0.33762 -0.301446,0.0048 -0.352089,-0.33762 z"
         style="font-style:normal;font-variant:normal;font-weight:normal;font-stretch:normal;font-size:4.93889px;font-family:'MS 33558';-inkscape-font-specification:'MS 33558, Normal';font-variant-ligatures:normal;font-variant-caps:normal;font-variant-numeric:normal;font-variant-east-asian:normal;stroke-width:0.264583"
         id="path12271" />
      <path
         d="m 22.864089,24.734802 q -0.05305,0.33762 -0.342442,0.33762 -0.286977,-0.0024 -0.33762,-0.33762 v -3.012047 l -0.827167,1.41559 q -0.132637,0.159163 -0.296623,0.166398 -0.161575,0.0072 -0.289388,-0.166398 l -0.822345,-1.408355 0.0024,3.004812 q -0.03859,0.335208 -0.349678,0.335208 -0.30868,-0.0024 -0.332796,-0.335208 v -4.258828 q 0.01929,-0.27733 0.243569,-0.330384 0.224275,-0.05547 0.390673,0.151929 l 1.159964,1.994366 1.172022,-1.994366 q 0.166398,-0.207395 0.385851,-0.151929 0.221864,0.05547 0.243568,0.330384 z"
         style="font-style:normal;font-variant:normal;font-weight:normal;font-stretch:normal;font-size:4.93889px;font-family:'MS 33558';-inkscape-font-specification:'MS 33558, Normal';font-variant-ligatures:normal;font-variant-caps:normal;font-variant-numeric:normal;font-variant-east-asian:normal;stroke-width:0.264583"
         id="path12273" />
      <path
         d="m 22.57229,30.474333 -0.0217,0.03135 q -0.0072,0.0096 -0.01206,0.01688 -0.0048,0.0072 -0.0096,0.01447 -0.330384,0.44614 -0.868164,0.636653 -0.535368,0.188103 -1.056266,-0.06994 -0.605304,-0.301446 -0.889869,-1.022505 -0.282153,-0.721058 -0.243568,-1.497583 0.041,-0.778936 0.409966,-1.430059 0.371382,-0.651124 1.075559,-0.81511 0.405144,-0.09405 0.807875,0.07958 0.402732,0.171221 0.66077,0.482313 0.0024,0 0.01206,0.01688 0.110932,0.144694 0.04582,0.318327 -0.06511,0.171221 -0.238746,0.214629 -0.18569,0.04823 -0.342442,-0.110932 -0.32315,-0.376204 -0.622185,-0.361735 -0.299034,0.01447 -0.535368,0.24598 -0.236333,0.23151 -0.393085,0.593246 -0.156752,0.361735 -0.192925,0.67765 -0.04341,0.352089 0.0072,0.709001 0.05305,0.3545 0.219453,0.668004 0.289388,0.549837 0.728293,0.689708 0.441317,0.13746 0.86093,-0.422024 0.01929,-0.02412 0.04582,-0.0627 0.226687,-0.250803 0.47749,-0.05064 0.253214,0.197749 0.07476,0.448552 z"
         style="font-style:normal;font-variant:normal;font-weight:normal;font-stretch:normal;font-size:4.93889px;font-family:'MS 33558';-inkscape-font-specification:'MS 33558, Normal';font-variant-ligatures:normal;font-variant-caps:normal;font-variant-numeric:normal;font-variant-east-asian:normal;stroke-width:0.264583"
         id="path12275" />
      <path
         d="m 21.862083,34.791038 0.03859,0.01688 0.04341,0.02171 0.03859,0.0217 q 0.01688,0.01206 0.03617,0.02411 0.0217,0.0096 0.041,0.0217 0.477491,0.313504 0.590834,0.868165 0.04341,0.217041 0.01929,0.44614 -0.03859,0.327973 -0.23151,0.607715 -0.190514,0.27733 -0.479902,0.429259 -0.311093,0.163986 -0.643889,0.163986 -0.559484,0 -1.068324,-0.142282 -0.508841,-0.144694 -0.725882,-0.76929 -0.02894,-0.07958 -0.04341,-0.163987 -0.01447,-0.0844 -0.03376,-0.16881 -0.03617,-0.173632 0.08441,-0.306269 0.12299,-0.132636 0.303857,-0.101285 0.190514,0.03858 0.265273,0.236333 l 0.0072,0.0217 q 0.115756,0.52331 0.402732,0.624596 0.289388,0.101286 0.803052,0.09164 0.472667,0 0.648712,-0.443729 0.07717,-0.197748 0.02412,-0.409966 -0.05305,-0.21463 -0.209806,-0.356912 -0.06994,-0.06029 -0.183279,-0.113344 l -1.116556,-0.489548 -0.03617,-0.01929 q -0.547426,-0.289389 -0.680062,-0.822345 -0.161575,-0.617361 0.224275,-1.106909 0.388263,-0.49196 1.017682,-0.49196 l 0.265272,0.0072 q 0.130225,0.02412 0.250803,0.04823 0.120579,0.0217 0.243569,0.07717 0.303857,0.142283 0.465432,0.390674 0.161575,0.248391 0.2918,0.53778 0.01206,0.02653 0.0217,0.0627 0.02653,0.118167 -0.02412,0.21463 -0.02894,0.06029 -0.06029,0.09164 -0.03135,0.03135 -0.05064,0.04341 -0.125402,0.08923 -0.274919,0.05305 -0.149517,-0.03376 -0.229099,-0.192925 -0.0627,-0.139871 -0.135047,-0.284565 -0.06994,-0.147106 -0.197749,-0.243569 -0.05305,-0.03858 -0.103697,-0.05547 -0.04823,-0.01929 -0.108521,-0.041 l -0.156752,-0.02653 -0.221864,-0.0072 q -0.32315,0.0048 -0.494371,0.279742 -0.115755,0.176044 -0.08682,0.393085 0.03376,0.267684 0.250803,0.41479 0.0096,0.0072 0.0217,0.01688 0.01206,0.0072 0.02653,0.01447 l 0.02653,0.01206 0.02894,0.01206 z"
         style="font-style:normal;font-variant:normal;font-weight:normal;font-stretch:normal;font-size:4.93889px;font-family:'MS 33558';-inkscape-font-specification:'MS 33558, Normal';font-variant-ligatures:normal;font-variant-caps:normal;font-variant-numeric:normal;font-variant-east-asian:normal;stroke-width:0.264583"
         id="path12277" />
    </g>
    <g
       aria-label="SYMBOLOGY
INT"
       id="text2822"
       style="font-size:3.29433px;line-height:1.25;font-family:'MS 33558';-inkscape-font-specification:'MS 33558, Normal';text-align:center;text-anchor:middle;stroke-width:0.264583">
      <path
         d="m 66.446447,10.152916 0.02574,0.01126 0.02895,0.01448 0.02574,0.01448 q 0.01126,0.008 0.02413,0.01609 0.01448,0.0064 0.02734,0.01448 0.318495,0.209113 0.394097,0.579081 0.02895,0.144771 0.01287,0.297584 -0.02574,0.218764 -0.154422,0.405357 -0.127076,0.184984 -0.320103,0.286323 -0.207504,0.109383 -0.429486,0.109383 -0.373185,0 -0.712591,-0.09491 -0.339406,-0.09651 -0.484177,-0.51313 -0.0193,-0.05308 -0.02895,-0.109382 -0.0097,-0.0563 -0.02252,-0.112599 -0.02413,-0.115816 0.0563,-0.204287 0.08204,-0.08847 0.202678,-0.06756 0.127077,0.02574 0.176942,0.157639 l 0.0048,0.01448 q 0.07721,0.349058 0.268629,0.416617 0.193027,0.06756 0.53565,0.06113 0.315278,0 0.432703,-0.295975 0.05147,-0.131902 0.01609,-0.273455 -0.03539,-0.143162 -0.139944,-0.238067 -0.04665,-0.04021 -0.122251,-0.0756 l -0.744763,-0.326537 -0.02413,-0.01287 Q 65.130646,10.033883 65.042175,9.6783913 64.934401,9.2666 65.191771,8.9400624 65.450749,8.6119163 65.870583,8.6119163 l 0.176942,0.00483 q 0.08686,0.016086 0.16729,0.032171 0.08043,0.014477 0.162464,0.051474 0.202679,0.094905 0.310452,0.2605866 0.107774,0.1656816 0.194636,0.3587088 0.008,0.017694 0.01448,0.041822 0.01769,0.078819 -0.01609,0.1431618 -0.0193,0.040214 -0.04021,0.061125 -0.02091,0.020911 -0.03378,0.028954 -0.08365,0.059517 -0.183376,0.035388 -0.09973,-0.02252 -0.152813,-0.1286848 -0.04182,-0.093296 -0.09008,-0.18981 -0.04665,-0.098122 -0.131901,-0.1624645 -0.03539,-0.025737 -0.06917,-0.036997 -0.03217,-0.012868 -0.07239,-0.027346 l -0.104556,-0.017694 -0.147987,-0.00483 q -0.215547,0.00322 -0.329755,0.1865929 -0.07721,0.1174248 -0.05791,0.2621952 0.02252,0.1785501 0.16729,0.2766722 0.0064,0.00483 0.01448,0.01126 0.008,0.00483 0.01769,0.00965 l 0.01769,0.00804 0.0193,0.00804 z"
         style="stroke-width:0.264583"
         id="path12246" />
      <path
         d="m 69.316118,8.7293411 q 0.125467,-0.1882014 0.302409,-0.090079 0.17855,0.098122 0.09169,0.3072349 l -0.924922,1.6519903 v 1.076127 q -0.01448,0.228415 -0.225198,0.228415 -0.209113,0 -0.22359,-0.228415 V 10.598487 L 67.413192,8.9464967 q -0.08525,-0.2075042 0.08686,-0.3040178 0.172116,-0.098122 0.307235,0.086862 l 0.754414,1.3479729 z"
         style="stroke-width:0.264583"
         id="path12248" />
      <path
         d="m 72.531628,11.681048 q -0.03539,0.225198 -0.228415,0.225198 -0.191419,-0.0016 -0.225199,-0.225198 V 9.671957 l -0.551735,0.944224 q -0.08847,0.106165 -0.197853,0.110991 -0.107774,0.0048 -0.193027,-0.110991 l -0.548519,-0.9393983 0.0016,2.0042653 q -0.02574,0.22359 -0.233241,0.22359 -0.205895,-0.0016 -0.221981,-0.22359 V 8.8403318 q 0.01287,-0.1849844 0.162464,-0.2203727 0.149597,-0.036997 0.260587,0.1013393 l 0.773717,1.3302786 0.78176,-1.3302786 q 0.110991,-0.1383362 0.25737,-0.1013393 0.147987,0.036997 0.162464,0.2203727 z"
         style="stroke-width:0.264583"
         id="path12250" />
      <path
         d="m 74.145014,8.6119163 q 0.305626,0.025737 0.51313,0.1849843 0.209113,0.1592474 0.289541,0.3844458 0.08043,0.2235897 0.02091,0.4777421 -0.05791,0.2525439 -0.283106,0.4648735 0.247718,0.260587 0.308843,0.562996 0.06113,0.302409 -0.03861,0.566213 -0.09812,0.262195 -0.342624,0.445571 -0.244501,0.183376 -0.606427,0.207504 h -0.0048 -0.855754 q -0.197853,-0.02734 -0.228415,-0.22359 V 8.8403318 q 0.02734,-0.1994614 0.228415,-0.2284155 z m -0.143162,2.8391077 q 0.273455,-0.01126 0.416617,-0.176942 0.143161,-0.165681 0.147987,-0.366751 0.0064,-0.202679 -0.128685,-0.37962 -0.135119,-0.176942 -0.416617,-0.213939 h -0.648249 v 1.137252 z M 74.145014,9.0687472 H 73.372905 V 9.861767 h 0.776934 q 0.199462,-0.020911 0.295975,-0.1431618 0.09812,-0.123859 0.0949,-0.2638037 Q 74.539111,9.3132483 74.43938,9.197432 74.339649,9.0800071 74.145014,9.0687472 Z"
         style="stroke-width:0.264583"
         id="path12252" />
      <path
         d="m 77.57768,9.5593579 q 0.147987,0.4455711 0.11099,0.9249221 -0.03539,0.47935 -0.262195,0.875056 -0.143162,0.24611 -0.39088,0.418225 -0.247718,0.172116 -0.54691,0.120642 -0.487394,-0.08525 -0.746372,-0.508304 -0.258978,-0.423052 -0.297583,-0.941008 -0.037,-0.5195645 0.139944,-1.0117837 0.17855,-0.4922192 0.567822,-0.7158089 0.18981,-0.1093821 0.397314,-0.1093821 0.395706,0 0.646641,0.2991921 0.250935,0.2975835 0.381229,0.6482495 z M 76.562678,9.0687472 q -0.295974,0 -0.448788,0.3184948 -0.151204,0.3184948 -0.191418,0.5436931 -0.03056,0.1640729 -0.02252,0.3973139 0.008,0.233241 0.06756,0.461657 0.05952,0.226807 0.178551,0.410183 0.119033,0.181767 0.31206,0.241283 0.225198,0.07078 0.387663,-0.08847 0.164073,-0.160856 0.247718,-0.341015 0.08525,-0.184984 0.115816,-0.485785 0.03217,-0.300801 -0.01448,-0.5999926 -0.04504,-0.3008006 -0.17855,-0.540476 -0.13351,-0.2412839 -0.37962,-0.3072348 -0.03217,-0.00965 -0.07399,-0.00965 z"
         style="stroke-width:0.264583"
         id="path12254" />
      <path
         d="m 78.349788,11.907855 q -0.197853,-0.01287 -0.228416,-0.22359 V 8.8403318 q 0.03378,-0.2316326 0.23485,-0.2268069 0.20107,0.00322 0.218764,0.2268069 v 2.6187352 l 1.4847,-0.0016 q 0.228416,0.02574 0.225199,0.231633 -0.0016,0.204287 -0.226807,0.218764 z"
         style="stroke-width:0.264583"
         id="path12256" />
      <path
         d="m 82.882708,9.5593579 q 0.147988,0.4455711 0.110991,0.9249221 -0.03539,0.47935 -0.262195,0.875056 -0.143162,0.24611 -0.39088,0.418225 -0.247718,0.172116 -0.54691,0.120642 -0.487394,-0.08525 -0.746372,-0.508304 -0.258978,-0.423052 -0.297583,-0.941008 -0.037,-0.5195645 0.139944,-1.0117837 0.17855,-0.4922192 0.567822,-0.7158089 0.18981,-0.1093821 0.397314,-0.1093821 0.395706,0 0.646641,0.2991921 0.250935,0.2975835 0.381228,0.6482495 z M 81.867707,9.0687472 q -0.295975,0 -0.448788,0.3184948 -0.151204,0.3184948 -0.191418,0.5436931 -0.03056,0.1640729 -0.02252,0.3973139 0.008,0.233241 0.06756,0.461657 0.05952,0.226807 0.17855,0.410183 0.119034,0.181767 0.312061,0.241283 0.225198,0.07078 0.387663,-0.08847 0.164073,-0.160856 0.247718,-0.341015 0.08525,-0.184984 0.115816,-0.485785 0.03217,-0.300801 -0.01448,-0.5999926 -0.04504,-0.3008006 -0.17855,-0.540476 -0.13351,-0.2412839 -0.37962,-0.3072348 -0.03217,-0.00965 -0.07399,-0.00965 z"
         style="stroke-width:0.264583"
         id="path12258" />
      <path
         d="m 84.526657,10.579185 -0.01448,-0.0016 q -0.196245,-0.02413 -0.196245,-0.22359 0,-0.199461 0.196245,-0.22359 l 0.01448,-0.0032 h 0.01448 0.593558 q 0.0933,0 0.159248,0.06756 0.06756,0.06595 0.06756,0.159247 v 0.81554 l -0.0193,0.04182 -0.01126,0.02574 -0.01126,0.02413 -0.01287,0.02413 -0.01287,0.02413 -0.01126,0.02413 -0.01287,0.02413 -0.01448,0.02413 q -0.31206,0.530824 -0.775325,0.519565 -0.463266,-0.01287 -0.778543,-0.524391 -0.149596,-0.242892 -0.221981,-0.608035 -0.07239,-0.366752 -0.04343,-0.747981 0.02895,-0.3828367 0.176942,-0.7270685 0.149596,-0.3458403 0.445571,-0.5485188 0.369969,-0.2509352 0.720635,-0.057908 0.350666,0.1914186 0.52439,0.5388674 l 0.01287,0.025737 0.0097,0.02252 0.01287,0.024128 q 0.05469,0.1528132 -0.04182,0.2493267 -0.0933,0.091688 -0.202679,0.069168 -0.109382,-0.024128 -0.168898,-0.1302933 -0.188202,-0.4664823 -0.485785,-0.4069656 -0.295975,0.059517 -0.443963,0.485785 -0.14477,0.4117912 -0.114208,0.8863159 0.03056,0.472917 0.308844,0.825191 0.191418,0.24611 0.389271,0.157639 0.197853,-0.08847 0.312061,-0.329754 l 0.01769,-0.03539 v -0.49061 z"
         style="stroke-width:0.264583"
         id="path12260" />
      <path
         d="m 87.812944,8.7293411 q 0.125468,-0.1882014 0.302409,-0.090079 0.178551,0.098122 0.09169,0.3072349 L 87.28212,10.598487 v 1.076127 q -0.01448,0.228415 -0.225199,0.228415 -0.209112,0 -0.223589,-0.228415 V 10.598487 L 85.910018,8.9464967 q -0.08525,-0.2075042 0.08686,-0.3040178 0.172115,-0.098122 0.307234,0.086862 l 0.754415,1.3479729 z"
         style="stroke-width:0.264583"
         id="path12262" />
      <path
         d="m 74.107212,15.802177 q -0.03539,0.226807 -0.230024,0.225199 -0.193027,0 -0.226807,-0.225199 v -2.843933 q 0.03378,-0.226807 0.226807,-0.226807 0.194636,-0.0016 0.230024,0.226807 z"
         style="stroke-width:0.264583"
         id="path12264" />
      <path
         d="m 76.785464,15.802177 q 0,0.168899 -0.164073,0.215547 -0.162465,0.04504 -0.252544,-0.09651 l -1.35119,-2.16673 v 2.047696 q -0.03539,0.225199 -0.228416,0.225199 -0.191418,0 -0.225198,-0.225199 v -2.840716 q 0.02413,-0.16729 0.170507,-0.220372 0.147988,-0.05308 0.24611,0.09973 l 1.35119,2.169947 v -2.049305 q 0.03056,-0.230024 0.233241,-0.226807 0.204287,0.0016 0.220373,0.226807 z"
         style="stroke-width:0.264583"
         id="path12266" />
      <path
         d="m 78.06266,15.79896 v -2.615518 h -0.590341 q -0.225199,-0.01769 -0.225199,-0.225198 0.0016,-0.209113 0.225199,-0.228415 h 1.632688 q 0.221981,0.01769 0.221981,0.228415 0.0016,0.209113 -0.221981,0.225198 h -0.588733 v 2.615518 q -0.037,0.228416 -0.238067,0.225199 -0.199461,-0.0032 -0.215547,-0.225199 z"
         style="stroke-width:0.264583"
         id="path12268" />
    </g>
    <g
       id="g1097"
       transform="translate(49.225687,-10.857424)">
      <path
         style="fill:none;stroke:#000000;stroke-width:1;stroke-linecap:butt;stroke-linejoin:miter;stroke-miterlimit:4;stroke-dasharray:none;stroke-opacity:1"
         d="m 38.19754,25.790159 c 2.445382,1.556778 4.757128,5.338507 5.291666,9.260417 v 0"
         id="path1091"
         sodipodi:nodetypes="ccc" />
      <path
         style="fill:#000000;stroke:#000000;stroke-width:0.264583px;stroke-linecap:butt;stroke-linejoin:miter;stroke-opacity:1"
         d="m 43.923519,36.353515 -1.928794,-1.875748 2.672696,-0.634763 z"
         id="path1093" />
    </g>
    <g
       aria-label="INC"
       id="text3484"
       style="font-size:3.29433px;line-height:1.25;font-family:'MS 33558';-inkscape-font-specification:'MS 33558, Normal';text-align:center;text-anchor:middle;stroke-width:0.264583">
      <path
         d="m 90.66378,29.827127 q -0.03539,0.226807 -0.230024,0.225199 -0.193027,0 -0.226807,-0.225199 v -2.843933 q 0.03378,-0.226807 0.226807,-0.226807 0.194636,-0.0016 0.230024,0.226807 z"
         style="stroke-width:0.264583"
         id="path12239" />
      <path
         d="m 93.342032,29.827127 q 0,0.168899 -0.164074,0.215547 -0.162464,0.04504 -0.252543,-0.09651 l -1.35119,-2.16673 v 2.047696 q -0.03539,0.225199 -0.228416,0.225199 -0.191418,0 -0.225198,-0.225199 v -2.840716 q 0.02413,-0.16729 0.170507,-0.220372 0.147988,-0.05308 0.24611,0.09973 l 1.35119,2.169947 v -2.049305 q 0.03056,-0.230024 0.233241,-0.226807 0.204287,0.0016 0.220373,0.226807 z"
         style="stroke-width:0.264583"
         id="path12241" />
      <path
         d="m 95.875513,29.534369 -0.01448,0.02091 q -0.0048,0.0064 -0.008,0.01126 -0.0032,0.0048 -0.0064,0.0097 -0.220373,0.297584 -0.579082,0.42466 -0.3571,0.125467 -0.704549,-0.04665 -0.403748,-0.201069 -0.593558,-0.682029 -0.188202,-0.480959 -0.162465,-0.998915 0.02735,-0.519565 0.273455,-0.953876 0.247719,-0.434311 0.717418,-0.543693 0.270238,-0.06273 0.538867,0.05308 0.26863,0.114208 0.440746,0.321712 0.0016,0 0.008,0.01126 0.07399,0.09651 0.03056,0.21233 -0.04343,0.114208 -0.159247,0.143162 -0.123859,0.03217 -0.228416,-0.07399 -0.215547,-0.250935 -0.415008,-0.241284 -0.199461,0.0097 -0.3571,0.164073 -0.157639,0.154422 -0.262196,0.395706 -0.104556,0.241284 -0.128684,0.452005 -0.02895,0.23485 0.0048,0.472917 0.03539,0.236458 0.146379,0.445571 0.193027,0.366751 0.485785,0.460048 0.294367,0.09169 0.574256,-0.281498 0.01287,-0.01609 0.03056,-0.04182 0.151204,-0.16729 0.318494,-0.03378 0.168899,0.131902 0.04987,0.299192 z"
         style="stroke-width:0.264583"
         id="path12243" />
    </g>
    <g
       aria-label="OFF"
       id="text3488"
       style="font-size:3.29433px;line-height:1.25;font-family:'MS 33558';-inkscape-font-specification:'MS 33558, Normal';text-align:center;text-anchor:middle;stroke-width:0.264583">
      <path
         d="m 63.728235,37.435102 q 0.147988,0.445571 0.110991,0.924921 -0.03539,0.479351 -0.262195,0.875057 -0.143162,0.246109 -0.39088,0.418225 -0.247718,0.172116 -0.54691,0.120642 -0.487394,-0.08525 -0.746372,-0.508305 -0.258978,-0.423051 -0.297584,-0.941007 -0.037,-0.519565 0.139945,-1.011784 0.17855,-0.492219 0.567822,-0.715809 0.18981,-0.109382 0.397314,-0.109382 0.395705,0 0.646641,0.299192 0.250935,0.297584 0.381228,0.64825 z m -1.015001,-0.490611 q -0.295975,0 -0.448788,0.318495 -0.151204,0.318495 -0.191418,0.543693 -0.03056,0.164073 -0.02252,0.397314 0.008,0.233241 0.06756,0.461657 0.05952,0.226807 0.17855,0.410182 0.119034,0.181768 0.312061,0.241284 0.225198,0.07078 0.387663,-0.08847 0.164073,-0.160856 0.247718,-0.341015 0.08525,-0.184984 0.115816,-0.485785 0.03217,-0.300801 -0.01448,-0.599993 -0.04504,-0.3008 -0.17855,-0.540476 -0.13351,-0.241284 -0.37962,-0.307235 -0.03217,-0.0097 -0.07399,-0.0097 z"
         style="stroke-width:0.264583"
         id="path12232" />
      <path
         d="m 64.271929,39.553575 v -2.837499 q 0.02895,-0.21233 0.228415,-0.228416 h 1.557086 q 0.223589,0.01769 0.223589,0.228416 0,0.209112 -0.226807,0.223589 h -1.330278 v 0.879882 h 1.037521 q 0.221981,0.01609 0.225198,0.217156 0.0032,0.20107 -0.225198,0.23485 h -1.037521 v 1.282022 q -0.01609,0.221981 -0.218764,0.225198 -0.20107,0.0032 -0.233241,-0.225198 z"
         style="stroke-width:0.264583"
         id="path12234" />
      <path
         d="m 66.731416,39.553575 v -2.837499 q 0.02895,-0.21233 0.228415,-0.228416 h 1.557086 q 0.22359,0.01769 0.22359,0.228416 0,0.209112 -0.226807,0.223589 h -1.330279 v 0.879882 h 1.037521 q 0.221981,0.01609 0.225198,0.217156 0.0032,0.20107 -0.225198,0.23485 h -1.037521 v 1.282022 q -0.01608,0.221981 -0.218764,0.225198 -0.20107,0.0032 -0.233241,-0.225198 z"
         style="stroke-width:0.264583"
         id="path12236" />
    </g>
  </g>
</svg>
